<?xml version="1.0" encoding="utf-8"?>
<!-- Generator: Adobe Illustrator 25.2.3, SVG Export Plug-In . SVG Version: 6.00 Build 0)  -->
<svg version="1.1" id="Layer_1" xmlns="http://www.w3.org/2000/svg" xmlns:xlink="http://www.w3.org/1999/xlink" x="0px" y="0px"
	 viewBox="0 0 75 75" style="enable-background:new 0 0 75 75;" xml:space="preserve">
<style type="text/css">
	.st0{fill:#CC3363;}
	.st1{fill:#D7D7D7;}
	.st2{fill:#202020;}
</style>
<path class="st0" d="M3,34c0,0,10,7,30,6s22-3,26-5s3.47-3.29,3.47-3.29s-4.43-5.05-12.95-4.38C41,28,24.35,29.85,24.35,29.85L3,34z
	"/>
<path class="st1" d="M70.45,18.11c0.05,2.97-0.22,5.94-0.39,8.91c-0.23,3.95-0.28,7.91-0.3,11.86c-0.05,9.62,0.09,19.23,0.41,28.84
	c0.02,0.52,0.03,1.06-0.17,1.54c-0.66,1.58-2.92,1.44-4.58,1.02c0.18-7.27,0.36-14.54,0.54-21.82c0.15-6.04,0.03-12.79-4.19-17.11
	c-4.22-4.32-10.98-4.6-17.01-4.36c-3.73,0.14-7.48,0.38-11.13,1.17c-2.31,0.5-4.57,1.23-6.91,1.56c-3.75,0.53-7.58,0.04-11.33,0.55
	c-3.94,0.53-7.81,2.16-11.75,1.67c0.48-6.93,4.86-13.46,11.09-16.54c3.64-1.8,7.73-2.44,11.59-3.72c4.13-1.37,7.99-3.48,12.14-4.81
	c2.83-0.9,5.76-1.44,8.69-1.96c3.25-0.59,6.51-1.18,9.79-1.61c2.88-0.38,7.01-0.37,9.85,0.38c2.22,0.58,2.16,2.24,2.51,4.15
	C69.91,11.24,70.4,14.66,70.45,18.11z"/>
<g>
	<g>
		<g>
			<path class="st2" d="M66.67,71.26c0,0.08,0,0.1-0.08,0.2c-0.45,0.68-1.6,1.65-2.91,0c-0.02-0.03-0.11-0.17-0.12-0.25l0.08-5.16
				l0.35-22.58c0.03-1.87,0.04-3.68-0.22-5.38c-0.26-1.69-0.79-3.25-1.75-4.51c-0.95-1.28-2.29-2.31-3.8-3.06
				c-1.51-0.76-3.16-1.21-4.9-1.44c-3.48-0.46-7.17-0.05-10.92,0.28c-3.74,0.34-7.47,0.74-11.19,1.18
				c-7.45,0.89-14.88,1.96-22.27,3.23l-3.44,0.6L3.07,34.8l-0.3,0.05c-0.07,0.04-0.05-0.05-0.05-0.1v-0.18l0.02-0.7l0.03-1.4
				l0.04-1.4l0.04-0.75c0.02-0.49,0.06-0.98,0.11-1.47c0.09-0.99,0.24-1.99,0.47-2.99c0.45-2.01,1.39-4,2.65-5.66
				c1.26-1.68,2.84-3.02,4.48-4.16c3.31-2.27,6.94-3.69,10.43-5.1c3.5-1.4,7.05-2.78,10.7-3.94c7.32-2.33,14.91-3.57,22.45-4.33
				l2.56-0.24l1.52-0.13c0,0,4.77-0.05,8.11,0.23c5.66,0.32,3.45,1.14,0,1.72c0.18,0.02-1.89,0.29-4,0.58s-4.26,0.59-4.26,0.59
				L56.6,5.56l-0.74,0.07l-4.02,0.42c-7.28,0.85-14.46,2.21-21.33,4.62c-3.44,1.19-6.87,2.56-10.29,3.94
				c-3.37,1.37-6.66,2.89-9.31,5.05C9.6,20.74,8.48,22,7.67,23.41c-0.82,1.4-1.26,2.99-1.5,4.7c-0.12,0.85-0.19,1.73-0.23,2.62
				l-0.02,0.42l0.1-0.02l3.9-0.67c7.33-1.23,14.68-2.28,22.06-3.13c3.69-0.43,7.39-0.81,11.09-1.14c3.67-0.32,7.52-0.72,11.47-0.06
				c1.97,0.33,3.93,0.96,5.72,1.96c1.79,1,3.44,2.38,4.63,4.18c1.21,1.8,1.78,3.9,2.02,5.87c0.25,1.99,0.2,3.91,0.18,5.76
				l-0.34,22.21L66.67,71.26z"/>
		</g>
	</g>
</g>
</svg>
