<?xml version="1.0" encoding="utf-8"?>
<!-- Generator: Adobe Illustrator 25.2.3, SVG Export Plug-In . SVG Version: 6.00 Build 0)  -->
<svg version="1.1" id="Layer_2" xmlns="http://www.w3.org/2000/svg" xmlns:xlink="http://www.w3.org/1999/xlink" x="0px" y="0px"
	 viewBox="0 0 75 75" style="enable-background:new 0 0 75 75;" xml:space="preserve">
<style type="text/css">
	.st0{fill:#1CFFFF;}
	.st1{fill:#D7D7D7;}
</style>
<path class="st0" d="M44.48,51.02c-0.77-2.89-1.01-5.93-0.73-8.91c-4.4-0.49-8.84-0.58-13.25-0.27c0.41,3.03,0.17,6.16-0.72,9.09
	c-6.43-0.27-12.82-1.2-19.06-2.77c-1.32-0.33-2.74-0.77-3.49-1.91C6.59,45.26,6.62,44,6.67,42.82c0.12-2.56,0.24-5.12,0.36-7.68
	c0.16-3.31,0.34-6.65,1.25-9.84c0.89-3.13,2.47-6.02,4.09-8.85c1.46-2.55,2.98-5.1,5-7.23c3.48-3.67,8.3-5.9,13.29-6.76
	s10.12-0.42,15.05,0.68c3.13,0.7,6.25,1.69,8.91,3.49c2.66,1.79,4.75,4.32,6.39,7.07c1.61,2.7,2.81,5.66,3.5,8.73
	c0.59,2.62,0.81,5.3,1.23,7.95c0.45,2.83,1.12,5.63,1.25,8.49c0.13,2.86-0.35,5.85-2,8.19c0.02,0.98-0.8,1.97-1.61,2.51
	s-1.78,0.8-2.73,1.02c-4.7,1.09-9.69,1.7-14.31,0.31C45.65,50.67,44.87,50.42,44.48,51.02z"/>
<g>
	<g>
		<path d="M67.61,41.97c-0.55-12.71-1.42-25.39-10.8-34.87c-4.52-4.58-10.46-5.25-16.64-5.87c-6.49-0.65-12.86-0.69-18.46,3.09
			c-5.18,3.51-8.57,8.96-11.51,14.35c-3,5.5-3.74,10.29-3.9,16.51c-0.1,3.62-2.14,11.32,1.29,13.59c2.15,1.43,6.66,1.64,9.21,2.06
			c4.24,0.7,8.51,1,12.81,1.05c1.25,0.02,1.32-2.48,0.08-2.5c-5.49-0.07-10.92-0.58-16.3-1.72c-0.74-0.16-4.79-0.68-5.23-1.28
			c-0.56-0.75-0.18-2.95-0.18-3.84c0-2.43,0.12-4.86,0.19-7.29c0.15-5.71,0.86-10.22,3.61-15.26c3-5.49,6.49-11.02,12.06-14.2
			c5.01-2.86,10.69-2.62,16.26-2.06c5.78,0.59,11.46,1.17,15.7,5.5c8.71,8.89,9.43,20.84,9.93,32.69
			C65.8,43.45,67.68,43.54,67.61,41.97L67.61,41.97z"/>
	</g>
</g>
<g>
	<g>
		<path d="M65.48,42.05c0.5,10.07-13.96,9.13-20.69,8.08c-1.53-0.24-1.89,1.6-0.34,1.84c6.1,0.96,12.28,0.8,18.24-0.93
			c5.21-1.51,5.51-3.92,5.26-9.04C67.89,40.82,65.42,40.71,65.48,42.05L65.48,42.05z"/>
	</g>
</g>
<path class="st1" d="M31.59,72.51c-0.99-5.05-1.64-10.21-1.25-15.34c0.07-0.86,0.16-1.71,0.16-2.58c0-0.78-0.09-1.56-0.17-2.34
	c-0.36-3.34-0.71-6.68-1.07-10.02c1.65,0.12,3.27-0.37,4.9-0.62c2.5-0.38,5.08-0.21,7.5,0.5c0.32,0.09,0.64,0.2,0.88,0.43
	c0.23,0.23,0.35,0.55,0.45,0.86c1,3.1,1.03,6.43,1.04,9.69c0.02,4.26,0.04,8.53,0.06,12.79c0.01,1.62,0.24,3.31,0.15,4.91
	c-0.08,1.54-1.5,1.19-2.77,1.27C40.62,72.12,31.65,72.81,31.59,72.51z"/>
<g>
	<g>
		<path d="M42.44,42.33c-0.52,9.85,1.06,19.65,0.74,29.55c-0.04,1.25,2.44,1.51,2.48,0.28c0.32-9.88-1.26-19.73-0.74-29.55
			C44.99,41.35,42.51,41.09,42.44,42.33L42.44,42.33z"/>
	</g>
</g>
<g>
	<g>
		<path d="M28.9,42.35c0.79,5.55-0.12,11.08-0.08,16.65c0.04,4.68,0.46,9.35,0.88,14.01c0.11,1.18,2.58,1.2,2.46-0.14
			c-0.53-5.8-1.03-11.61-0.81-17.44c0.17-4.46,0.63-8.78,0-13.22C31.19,41.03,28.71,41.02,28.9,42.35L28.9,42.35z"/>
	</g>
</g>
<g>
	<g>
		<path d="M64.23,45.55c-5.29-0.69-10.24-2.61-15.43-3.71c-4.86-1.03-9.85-0.98-14.79-0.78c-5.48,0.23-10.94,0.83-16.34,1.8
			c-3.54,0.64-7.26,1.04-10.12,3.37c-1.09,0.89,1.15,1.9,2.05,1.16c3.77-3.07,10.52-3.1,15.24-3.69c4.48-0.55,9-0.85,13.51-0.88
			c8.99-0.06,16.91,3.45,25.68,4.59C65.58,47.61,65.77,45.75,64.23,45.55L64.23,45.55z"/>
	</g>
</g>
</svg>
