<?xml version="1.0" encoding="utf-8"?>
<!-- Generator: Adobe Illustrator 25.2.3, SVG Export Plug-In . SVG Version: 6.00 Build 0)  -->
<svg version="1.1" id="Layer_1" xmlns="http://www.w3.org/2000/svg" xmlns:xlink="http://www.w3.org/1999/xlink" x="0px" y="0px"
	 viewBox="0 0 75 75" style="enable-background:new 0 0 75 75;" xml:space="preserve">
<style type="text/css">
	.st0{fill:none;stroke:#FCFBEE;stroke-miterlimit:10;}
	.st1{opacity:0.8;}
	.st2{fill:#828282;}
	.st3{fill:#4D4D4D;}
	.st4{fill:#292929;}
	.st5{fill:#222222;}
	.st6{fill:#959595;}
	.st7{fill:#393939;}
	.st8{fill:#404040;}
	.st9{fill:#6E6E6E;}
	.st10{fill:#2A2A2A;}
	.st11{fill:#303030;}
	.st12{opacity:0.8;fill:#828282;enable-background:new    ;}
	.st13{fill:#454545;}
	.st14{fill:#343434;}
	.st15{fill:#505050;}
	.st16{fill:#363636;}
	.st17{fill:#2E2E2E;}
	.st18{fill:#262626;}
	.st19{fill:#595959;}
	.st20{fill:#272727;}
</style>
<g>
	<g>
		<path class="st0" d="M72.23,0.16"/>
	</g>
</g>
<g>
	<g>
		<g>
			<path d="M44.89,34.86c-0.03,0.46-0.08,0.93-0.13,1.41c-0.13,0.86-0.27,1.74-0.41,2.62c-0.1,0.44-0.2,0.88-0.29,1.32
				c-0.06,0.21-0.09,0.46-0.17,0.65l-0.27,0.54c-0.19,0.35-0.35,0.75-0.57,1.07c-0.21,0.3-0.51,0.61-0.85,0.88
				c-0.55,0.39-1.15,0.64-1.84,0.85s-1.47,0.26-2.24,0.32s-1.56,0.08-2.35,0.06c-0.39,0-0.8-0.02-1.17-0.04l-0.93-0.07
				c-0.54-0.05-1-0.11-1.6-0.19c-0.77-0.11-1.53-0.26-2.26-0.47c-1.46-0.42-2.79-1.12-3.85-2.12c-0.75-0.72-1.37-1.56-1.82-2.46
				c-0.71-1.32-1.06-2.99-1.21-4.5l-0.05-0.37c-0.01-0.1-0.05-0.39-0.02-0.9c0.03-0.5,0.12-1.29,0.59-2.26
				c0.46-0.98,1.35-1.86,2.11-2.31c0.78-0.47,1.44-0.66,1.98-0.78c0.55-0.11,1.01-0.14,1.33-0.14c0.72-0.02,1.43,0.08,2.05,0.24
				c1.27,0.33,2.18,0.87,2.87,1.34c0.7,0.48,1.21,0.92,1.62,1.29c0.72,0.64,1.42,1.28,2.14,1.99c1.42,1.42,2.86,3.05,4.1,5.03
				c0.62,0.99,1.18,2.07,1.63,3.22c0.47,1.16,0.79,2.39,0.99,3.29c-0.44,0.1-1.25-0.36-1.33,0.31c-0.07,1.25-0.35,1.75-0.7,2.1
				c-0.35,0.34-0.78,0.47-1.22,0.59c-0.45,0.15-0.39-1.55-0.7-0.92c-0.19-0.8-0.49-1.96-0.84-2.67c-0.35-0.71-0.62-0.91-0.53,0.01
				c-0.21,0.7,0.69,2.82,0.18,3.53c-0.51,0.75-1.47-0.25-1.98,0.5c0.13,0.59,0.54,1.89,0.87,2.54c-0.05,0.42-0.43,0.42-0.77,0.36
				c-0.33-0.05-0.63-0.15-0.46,0.22c0.31,1.18,1.04,2.43,2.08,3.52s2.39,2.02,3.87,2.71c-0.1,0.21-0.06,0.47-0.14,0.65
				c-0.04,0.09-0.11,0.16-0.24,0.19c-0.18,0-0.47-0.05-0.88-0.21c-1.85-0.97-3.43-2.35-4.69-4.01c-0.62-0.83-1.16-1.74-1.59-2.72
				c-0.43-0.97-0.7-1.87-0.91-2.65l-0.52-2c-0.15-0.56-0.29-0.92-0.45-1.3c-0.34-0.77-0.81-1.55-1.44-2.36
				c-0.62-0.81-1.37-1.63-2.23-2.48c-0.42-0.42-0.88-0.85-1.35-1.29l-0.35-0.33l-0.26-0.23c-0.07-0.06-0.13-0.11-0.17-0.14
				c-0.02-0.02-0.04-0.02-0.05-0.03c-0.01-0.01-0.01-0.01-0.01-0.01l0,0c0.01-0.01-0.03,0.03,0.04-0.07
				c0.71-1.03,1.03-1.67,1.19-2.14c0.08-0.24,0.12-0.38,0.13-0.51c0.01-0.04,0.01-0.08,0.01-0.1v-0.01l-0.04-0.74
				c-0.02-0.32-0.14-0.7-0.24-0.84c-0.11-0.17-0.16-0.05,0.32,0.03c0.13,0.02,0.27,0.04,0.51,0.05l0.45,0.02h0.74l1.63-0.03
				l1.26-0.04v0.01l0.01,0.1c0.01,0.14,0.02,0.34,0.03,0.29c0.03,0.03,0.06,0.03,0.09,0.02c0.02-0.01,0.03-0.02,0.03-0.03
				c0.01-0.01,0-0.01,0.01-0.02c0.31,0.04,0.65,0.07,0.97,0.09l0.23,0.01c0.01,0,0.02,0,0.04,0c0.01,0,0,0,0,0l-0.02-0.01
				c-0.01-0.01-0.03-0.01-0.04-0.01c-0.01,0.01-0.01,0.04-0.01,0.06l0.45-2.1c0.17-0.77,0.37-1.56,0.58-2.35
				c0.86-3.16,7.21-5.8,9.51-8.91c0.5-0.58,0.83-0.86,1.04-0.92c0.18-0.01,0.29,0.09,0.28,0.38c-0.02,0.58-5.41,0.87-5.66,1.93
				c0.19-0.7,0.75-0.33,0.94-1.03c0.57,0.42,0.67,2.1-0.15,4.37c0.27-0.55,0.52-1.1,0.84-1.63c0.5-0.42,0.59,0.34,0.99,0.56
				c-0.3,0.5-0.54,1.03-0.34,1.13c0.2,0.1,0.61,0.3,0.81,0.4c0.23-0.5,0.77-1.45,1.08-1.9c-0.31,0.45-0.57,0.93-0.37,1.04
				c0.2,0.11,0.59,0.34,0.79,0.45c-0.31,0.98-1.36,2.23-1.5,3.33l0.64,0.23c0.55-0.9,0.94-2.37,1.45-3.22
				c-0.05,0.54,0.16,0.64,0.56,0.85c-0.44,1.32-1.61,2.5-1.4,4.18c0.14-0.49,0.3-0.97,0.46-1.44c0.37,0.66,0.16,1.47-0.14,2.39
				C45.35,33.03,44.95,34.03,44.89,34.86z"/>
		</g>
	</g>
</g>
<g>
	<g>
		<g>
			<path d="M39.89,14.78c0.95-1.61,2.06-3.18,3.33-4.65c0.33-0.37,0.63-0.72,0.99-1.1c0.55-0.6,1.09-1.08,1.65-1.61
				c1.13-1.01,2.29-1.98,3.49-2.97c2.73-0.3,4.56-0.56,5.28-0.91c0.27-0.13,0.35-0.27,0.26-0.41c0.13,0.04,0.49,0.24,0.82,0.36
				c0.74,0.27,1.71,0.54,3.79,0.8c0.27,2.01,0.6,3.88,1,5.68c0.34,1.59,0.7,3.2,1.05,4.79c0.43,2.09,0.85,4.25,1.11,6.55
				c0.49,4.53,0.41,9.5-1.41,14.32c-0.89,2.39-2.27,4.71-4,6.62c-1.72,1.92-3.77,3.51-6.04,4.67c-2.33,1.18-4.36,1.73-5.79,2.37
				c-0.73,0.32-1.26,0.61-1.8,0.99c-0.54,0.37-1.05,0.81-1.52,1.29c-1.64,1.7-2.92,3.93-3.68,6.47c-0.24,0.74-0.53,1.75-1.11,2.96
				c-0.6,1.25-1.46,2.41-2.28,3.27c-0.21,0.22-0.41,0.44-0.62,0.64c-0.21,0.2-0.39,0.37-0.73,0.67c-0.6,0.52-1.22,1.02-1.87,1.47
				c-1.29,0.91-2.7,1.51-4.22,1.68c-5.07-9.01-4.97-5.62-6.85-7.01c-0.47-0.34-0.92-0.73-1.37-1.13l-0.64-0.59l-0.38-0.35
				c-0.51-0.48-0.99-0.96-1.45-1.45c-1.88-1.95-3.49-3.76-5.17-5.6l-2.51-2.76l-1.32-1.46c-0.79-0.92-1.72-1.79-2.32-2.79
				c-0.31-0.5-0.54-0.99-0.71-1.52c-0.17-0.53-0.28-1.12-0.31-1.69c-0.07-1.12,0.19-2.25,0.62-3.41l1-2.6
				c0.18-0.49,0.32-0.93,0.42-1.32c0.1-0.39,0.16-0.71,0.19-0.99c0.03-0.28,0.01-0.46,0-0.75c-0.06-0.59-0.26-1.47-0.59-2.63
				c-0.31-1.16-0.76-2.51-1.02-4.31c-0.26-1.76-0.29-4.07,0.5-6.31c0.79-2.2,1.94-3.67,2.8-4.77c0.85-1.06,2.18,3.06,3.04,2.08
				c1.72-1.94,3.44-3.75,5.12-5.49l5.16,4.27c-0.04-0.01,0.04,0.02,0.18-0.01c0.14-0.03,0.33-0.1,0.45-0.18
				c0.12-0.08,0.19-0.15,0.17-0.14c-0.01,0-0.03,0.04-0.06,0.08l-0.05,0.09l-0.01,0.02l0,0.01l0,0l0.31-0.65l0.01-0.01l0.03-0.06
				c0.08-0.18,0.18-0.48,0.29-1.03l0.08-0.47l0.08-0.59c0.02-0.22,0.06-0.51,0.08-0.76c0.01-0.09,0.01-0.08,0.01-0.08l0,0l0.01,0
				c0.05,0.01,0.36,0.01,0.89,0c0,0.11-0.19,0.23-0.37,0.38c-0.18,0.13-0.33,0.26-0.42,0.39c-0.08,0.12-0.11,0.25-0.06,0.35
				c0.07,0.11,0.17,0.19,0.84,0.26c2.62,0.19,4.6,0.71,6.03,1.23c1.43,0.54,2.33,1.11,2.87,1.54c1.09,0.91,0.84,1.35,0.65,1.75
				c-0.09,0.19-1.79-0.61-3.29-0.99c-1.49-0.4-2.69-0.56-1.53-0.13c-1.53-0.3-3.29-0.46-5.01-0.43c-0.83,0.03-1.49-0.01-1.79-0.18
				c-0.13-0.06-0.27-0.2-0.33-0.3c-0.06-0.11-0.05-0.12-0.07-0.12l-1.94-1.2c-2.52,2.79-3.77,4.42-0.9,1.74
				c0.35-0.25,0.84-0.69,1.43-1.24l1.68-1.61l-0.97,2.08c-0.11,0.25-0.06,0.63,0.19,0.96c0.24,0.34,0.64,0.57,1.14,0.67
				c0.49,0.11,1.05,0.11,1.63,0.11c0.58,0.01,1.18,0.03,1.75,0.08c2.3,0.16,4.32,0.79,5.1,1.35c0.96,0.69,0.29,0.81-0.31,0.97
				c-0.62,0.16-1.18,0.35-0.31,0.97c0.95,0.3,2.34,0.89,3.51,1.72c1.19,0.82,2.14,1.91,2.67,2.68c0.32,0.91-0.24,0.67-0.7,0.48
				c-0.48-0.18-0.89-0.37-0.42,0.29c0.59,1.07,1,2.24,1.04,3.42c0.08,1.21-0.31,2.96-0.61,5.4c-0.27,2.43-0.24,4.97,0.13,7.5
				c0.19,1.26,0.45,2.53,0.81,3.78l0.28,0.93l0.15,0.47c0.14,0.42,0.31,0.76,0.49,1.08c0.39,0.63,0.78,1.19,1.71,1.85
				c0.49,0.31,1.2,0.71,2.37,0.76c0.56,0.02,1.23-0.11,1.77-0.35c0.58-0.26,0.96-0.56,1.31-0.9c0.17,0.16,0.72-0.09,0.86,0.05
				c0.07,0.07,0.04,0.24-0.21,0.59c-0.11,0.12-0.31,0.31-0.5,0.46c-0.19,0.15-0.39,0.31-0.69,0.47c-0.54,0.32-1.26,0.57-2.02,0.64
				c-0.35,0.03-0.78,0.04-1.12-0.01c-0.32-0.04-0.71-0.11-0.98-0.21c-0.58-0.18-1.06-0.43-1.44-0.68c-0.76-0.5-1.25-1.02-1.68-1.6
				c-0.22-0.28-0.42-0.6-0.6-0.97c-0.09-0.19-0.18-0.38-0.28-0.62c-0.05-0.13-0.1-0.25-0.15-0.4c-1.36-4.09-1.84-8.44-1.41-12.74
				c0.23-2.2,0.58-3.86,0.57-4.94c0-0.55-0.06-0.9-0.18-1.36c-0.12-0.43-0.32-0.89-0.57-1.33c-0.51-0.89-1.31-1.74-2.24-2.38
				c-0.91-0.64-2.08-1.16-3.36-1.5c-1.29-0.34-2.71-0.52-4.19-0.55l-1.34,0c-0.65-0.02-1.58-0.04-2.78-0.41
				c-0.29-0.09-0.6-0.21-0.92-0.35c-0.37-0.17-0.74-0.38-1.07-0.61c-0.66-0.46-1.22-1-1.71-1.67c-0.49-0.67-0.91-1.48-1.15-2.52
				c-0.24-1.02-0.21-2.32,0.21-3.48l8.53,5.25c-1.69,1.8-3.33,3.54-4.86,5.29c-0.75,0.87-1.51,1.77-2.17,2.64
				c-0.64,0.82-0.95,1.39-0.98,1.56c-0.05,0.18-0.58-4.6-0.47-3.88c0.13,0.74,0.42,1.76,0.78,3c0.35,1.26,0.78,2.78,0.94,4.64
				c0.06,0.95,0.06,1.97-0.07,2.9c-0.12,0.94-0.3,1.81-0.52,2.6c-0.22,0.79-0.47,1.52-0.71,2.18L16,40.98l-0.02,0.06
				c-0.02,0.07-0.04,0.15,0.04,0.19l0.08,0.07l1.21,1.34l2.49,2.76c1.65,1.82,3.83,8.86,5.38,10.48c0.39,0.4,0.78,0.8,1.16,1.17
				l0.29,0.28c0.07,0.07,0.02,0.01,0.03,0.03l0.01,0.01l0.02,0.01c0.04,0.02,0.07,0.03,0.12,0.02c0.02-0.01,0.04-0.02,0.05-0.03
				l0.02-0.03c0,0,0.01,0,0.01-0.01c0.01-0.01-0.01,0,0.02-0.01l0.12-0.1c0.32-0.29,0.52-0.54,0.64-0.72
				c0.06-0.1,0.09-0.14,0.14-0.24c0.05-0.11,0.13-0.27,0.2-0.49c0.29-0.79,0.94-2.86,1.73-4.42c0.79-1.62,1.74-3.16,2.87-4.63
				c1.14-1.46,2.46-2.82,3.99-4.01c0.76-0.59,1.59-1.15,2.45-1.64c0.88-0.5,1.77-0.91,2.58-1.23c1.63-0.65,2.99-1.08,4.01-1.5
				c0.51-0.21,0.91-0.39,1.32-0.62s0.8-0.48,1.17-0.76c1.5-1.14,2.67-2.6,3.4-4.34c0.76-1.75,1.14-3.87,1.16-6.18
				c0.03-2.32-0.25-4.72-0.75-7.31l-0.4-1.97l-0.22-1.01l0.01,0.06c0.01,0.02,0,0.13,0.02,0.06c0.01-0.02,0.03-0.04,0.06-0.06
				l0.02-0.03l0.01-0.01c0,0,0.02-0.01,0.03-0.02l0.01-0.01l-0.08,0.08l-0.32,0.34c-0.85,0.91-1.62,1.89-2.32,2.93
				c-0.7,1.03-1.32,2.12-1.85,3.24c-0.14,0.27-0.26,0.56-0.38,0.84c-0.09,0.23-0.16,0.39-0.17,0.44l-0.01,0.01l0,0l-0.22-0.06
				c-0.34-0.08-0.58-0.13-0.85-0.18c-0.49-0.09-0.92-0.13-1.23-0.13c-0.66-0.01-0.94,0.09-0.97,0.11l-5.94-3.42
				c1.05-0.89,2.1-1.78,3.14-2.66l2.82-2.39c1.07-0.87,2.18-1.43,3.3-1.71c0.99-0.25,2.12-0.31,3.2-0.11c1.07,0.18,2.07,0.59,3,1.15
				c1.87,1.09,3.42,3.12,4.76,5.02c1.6,2.36,2.78,4.49,4,6.7c2.4,4.41,4.56,8.94,6.46,13.56c1.71,4.43,1.58,5.06,0.76,3.83
				c-0.85-1.26-2.53-4.37-4.32-7.41c1.17,2.03,0.55,2.31,1.68,4.37c-0.32,0.13-1.17-0.77-2.49-2.72c-1.31-1.94-3.09-4.93-5.38-8.91
				c1.11,2.02,2.15,4.06,3.15,6.13c0.79,2.17-0.62,0.3-1.02,0.49c-0.99-2.06-2.05-4.07-2.25-3.97c-0.2,0.1-0.6,0.31-0.8,0.42
				c1.07,1.98,3.03,6.06,3.93,8.14c-0.9-2.07-1.89-4.11-2.09-4c-0.2,0.09-0.62,0.3-0.82,0.39c-1.07-1.97-2.3-4.48-3.61-6.96
				c-0.66-1.23-1.34-2.47-2.01-3.6c-0.33-0.56-0.68-1.09-1.01-1.58c-0.16-0.23-0.36-0.52-0.49-0.67c-0.12-0.15-0.25-0.31-0.36-0.44
				l-0.48,0.49c0.21,0.34,0.43,0.69,0.66,1.07c0.31,0.51,0.63,1.03,0.96,1.58c0.66,1.14,1.35,2.33,2.06,3.53
				c1.38,2.42,2.7,4.87,3.67,6.88c-1.18-1.9-1.4-1.79-1.8-1.6c-1.54-2.81-3.01-5.7-4.59-8.44c-0.39-0.67-0.79-1.32-1.21-1.94
				l-0.2-0.29l-0.14-0.19c-0.1-0.13-0.2-0.25-0.3-0.37c-0.21-0.24-0.44-0.44-0.72-0.55c-0.28-0.11-0.62-0.05-0.85,0.2
				c-0.06,0.07-0.12,0.13-0.17,0.21c0.06-0.05,0.12-0.09,0.18-0.13c0.3-0.21,0.69-0.11,0.95,0.1c0.27,0.21,0.48,0.48,0.69,0.76
				c-0.28-0.06-0.51-0.16-0.74-0.24c-0.23-0.08-0.55-0.16-0.8,0.05c-0.12,0.09-0.23,0.2-0.34,0.31c-0.18,0.15-0.37,0.3-0.55,0.45
				c-1.07,0.88-2.17,1.79-3.26,2.68l-4.52,3.73l-2.21-5.31c-0.4-0.97-0.55-2.01-0.52-2.84c0.02-0.85,0.17-1.55,0.35-2.15
				c0.18-0.59,0.37-1.09,0.54-1.52c0.17-0.39,0.34-0.76,0.51-1.14C38.46,17.28,39.2,15.95,39.89,14.78z"/>
		</g>
	</g>
</g>
<g>
	<g>
		<g>
			<path d="M12.96,33.9c0.59-1.09,1.38-2.08,2.24-2.96c0.86-0.87,1.8-1.65,2.79-2.4c1.99-1.49,4.15-2.75,6.12-4.04
				c0.59-0.4,1.2-0.77,1.85-1.11c0.32-0.17,0.65-0.33,0.99-0.48c0.05-0.06,0.04-0.09,0.05-0.13c0.02-0.07,0.01-0.15,0-0.2
				l-0.01-0.04c0.01-0.02-0.01,0.01,0.02-0.04l0.14-0.17l0.28-0.34c0.39-0.44,0.81-0.86,1.27-1.24c0.93-0.76,7.08-0.62,8.48-1.06
				c1.36-0.44,3.13-0.6,4.85-0.13c1.69,0.43-1.94,0.62-1.06,1.51c0.9,0.9,1.42,1.68,1.82,2.25c-0.38,0.25-1.21,0.25-1.13,0.76
				c0.2,0.91,0.01,1.34-0.24,1.73c-0.26,0.37-0.62,0.64-0.99,0.91c-0.36,0.29-0.61-0.89-0.78-0.33c-0.31-0.47-0.82-1.14-1.27-1.51
				c-0.46-0.37-0.72-0.4-0.46,0.24c-0.06,0.6,1.16,1.65,0.82,2.35c-0.33,0.73-1.35,0.44-1.68,1.16c0.23,0.35,0.82,1.13,1.24,1.51
				c0.03,0.35-0.29,0.51-0.6,0.61c-0.3,0.1-0.58,0.14-0.36,0.36c0.54,0.87,1.55,1.65,2.73,2.11c1.18,0.47,2.56,0.65,3.95,0.54
				c0.02,0.23,0.14,0.44,0.15,0.64c0.01,0.1-0.01,0.19-0.07,0.28c-0.14,0.09-0.38,0.19-0.77,0.24c-1.72,0.03-3.37-0.38-4.87-1.18
				c-0.75-0.4-1.47-0.91-2.1-1.5c-0.62-0.58-1.06-1.12-1.43-1.6c-0.73-0.96-1.17-1.63-1.4-1.85c-0.03-0.05-0.12-0.05-0.06-0.09
				l0.56-0.59c0.14-0.16,0.29-0.37,0.35-0.44c0.07-0.09,0.18-0.26,0.21-0.31c0.04-0.05,0.07-0.12,0.1-0.18c0,0,0.01-0.01,0.01-0.03
				v-0.01c-0.06,0.17,0.08-0.23,0.06-0.19l0,0l0,0l0,0l0,0c-0.01,0.03-0.05,0.29,0.03,0.67c0.07,0.38,0.24,0.85,0.45,1.23
				c0.29,0.51,0.21,0.34,0.2,0.42l-0.02,0.05v0.01v0.01l-0.05,0.06L35,29.93c-1.02,1.36-2.45,2.35-4.07,2.89l-0.58,0.2l-0.23,0.09
				l-0.46,0.19c-0.3,0.13-0.61,0.27-0.91,0.42c-2.39,1.17-4.69,2.93-6.64,4.89c-0.93,0.94-1.61,1.83-2.03,2.61
				c-0.42,0.77-0.61,1.52-0.64,2.02c-0.15,0.45-1.12,0.44-1.83-0.26c0.23,0.21-0.45,0.23-0.21,0.44c-0.34,0.03-0.8-0.04-1.21-0.31
				c-0.4-0.27-0.73-0.77-0.73-1.45c-0.06,0.33-0.1,0.65-0.12,0.98c-0.24,0.32-0.68-0.02-1.13-0.06c0.02-0.38,0.07-0.75-0.15-0.79
				c-0.22-0.03-0.67-0.1-0.9-0.13c-0.07,0.42-0.12,1.28-0.09,1.71c-0.02-0.43,0.01-0.86-0.22-0.87c-0.23-0.01-0.68-0.04-0.91-0.05
				c-0.19-1.01,0.55-2.31,0.65-3.23L11.97,39c-0.56,0.85-0.66,2.4-0.69,3.41c-0.19-0.52-0.41-0.56-0.87-0.6
				c-0.03-0.83,0.24-1.62,0.52-2.35c0.28-0.74,0.55-1.45,0.57-2.3c-0.22,0.47-0.42,0.96-0.6,1.46c-0.36-0.69-0.05-1.63,0.48-2.47
				C11.9,35.3,12.61,34.56,12.96,33.9z"/>
		</g>
	</g>
</g>
<g>
	<g>
		<g>
			<g class="st1">
				<path class="st2" d="M68.52,48.43c0.87,0.72,1.71,1.53,2.54,2.4l0.81,0.33l-1.13,0.1c-1.8,0.49-3.78,1.57-5.63,1.46
					c0.41-0.16,0.83-0.45,1.22-0.73c0.13-0.09,0.26-0.19,0.38-0.27c0.24-0.18,0.47-0.33,0.66-0.43l-0.05,0.16l0.37-1.14l0.8-0.54
					l-0.8,0.54L68.52,48.43"/>
				<path class="st2" d="M39.78,60.49l0.04,0.05l-0.41,0.05c-1.25-0.48-2.42-1.15-3.61-1.8c-1.36-0.89-2.58-2.21-3.48-3.82
					c-0.18-0.32-0.35-0.66-0.5-1c0.57,0.55,1.16,1.05,1.75,1.5l0.11,0.18c0.81,1.28,1.86,2.19,2.91,2.92
					C37.65,59.3,38.71,59.86,39.78,60.49"/>
				<path class="st3" d="M29.94,55.24c-0.57-0.73-1.19-1.76-1.55-2.33c-0.42-0.67-0.77-1.3-1.11-1.92l0.43-0.14
					c0.31,0.69,0.82,1.42,1.17,2.28c0.05,0.12,0.1,0.24,0.14,0.37c0.05,0.16,0.11,0.32,0.16,0.5l-0.01-0.27
					C29.42,54.24,29.67,54.74,29.94,55.24"/>
				<polyline class="st3" points="28.8,51.69 28.12,50.63 28.16,50.45 28.8,51.69 				"/>
				<polyline class="st3" points="44.26,52.54 44.33,52.78 44.19,52.56 44.26,52.54 				"/>
				<polyline class="st3" points="44.31,45.46 44.19,45.87 44.31,45.46 				"/>
				<polyline class="st3" points="44.19,45.87 44.2,45.91 44.19,45.87 				"/>
				<polyline class="st3" points="29.05,44.77 28.89,45.08 29.05,44.77 				"/>
				<polyline class="st3" points="42.76,44.2 42.7,44.34 42.76,44.2 				"/>
				<polyline class="st3" points="57.13,61.96 58.17,62.15 57.13,61.96 				"/>
				<path class="st3" d="M44.33,52.78c0.04,0.19,0.08,0.38,0.14,0.57C44.41,53.16,44.37,52.97,44.33,52.78"/>
				<polyline class="st3" points="28.21,45.71 28.18,46.09 28.18,45.77 28.21,45.71 				"/>
				<polyline class="st3" points="29.18,44.29 29.05,44.77 29.09,44.46 29.18,44.29 				"/>
				<polyline class="st3" points="28.52,48.07 28.09,47.49 28.1,47.36 28.09,47.49 28.1,47.36 28.15,47.35 28.52,48.07 				"/>
				<path class="st3" d="M28.48,44.98l-0.27,0.73l-0.03,0.38v-0.32c-0.23,0.74-0.39,1.58-0.36,2.57l0.28,0.05l-0.21-1.21l0.2,0.3
					l0.01-0.13l-0.02-0.23l0.07,0.22l0.15-1.19l-0.21,0.51l0.17-0.6l0.03,0.09l0.24-0.55L28.48,44.98 M28.27,46.06l-0.03-0.09
					L28.27,46.06"/>
				<polyline class="st4" points="28.18,45.77 28.18,46.09 28.18,45.77 				"/>
				<polyline class="st4" points="28.1,47.36 28.09,47.49 28.1,47.36 				"/>
				<path class="st3" d="M29.03,43.66l-0.01,0.23L29,44.22l-0.32,1.13l-0.13,0.24l-0.06-0.62C28.67,44.53,28.86,44.11,29.03,43.66"
					/>
				<polyline class="st3" points="28.09,47.13 28.15,47.35 28.1,47.36 28.09,47.13 				"/>
				<polyline class="st4" points="28.09,47.13 28.15,47.35 28.09,47.13 				"/>
				<polyline class="st3" points="29.04,43.57 29.07,43.73 29.02,43.9 29.03,43.66 29.04,43.57 				"/>
				<polyline class="st3" points="29.09,43.68 29.07,43.73 29.09,43.68 				"/>
				<polyline class="st3" points="29.09,43.81 29.18,44.29 29.08,44.05 29.09,43.81 				"/>
				<polyline class="st4" points="28.1,47.36 28.09,47.49 28.1,47.36 				"/>
				<polyline class="st3" points="29.09,43.68 29.09,43.81 29.09,43.68 				"/>
				<polyline class="st3" points="29.07,43.73 29.09,43.81 29.08,44.05 28.99,44.23 29.02,43.9 28.99,44.23 29.02,43.9 29.07,43.73 
									"/>
				<polyline class="st4" points="29.09,43.68 29.09,43.81 29.07,43.73 29.09,43.68 				"/>
				<polyline class="st4" points="29.09,43.81 29.08,44.05 29.09,43.81 				"/>
				<polyline class="st4" points="29.02,43.9 28.99,44.23 29.02,43.9 				"/>
				<polyline class="st3" points="29.08,44.05 29.18,44.29 29.09,44.46 29.08,44.05 				"/>
				<polyline class="st4" points="29.18,44.29 29.09,44.46 29.18,44.29 				"/>
				<polyline class="st4" points="29.08,44.05 29.18,44.29 29.08,44.05 				"/>
				<polyline class="st3" points="29.08,44.05 29.09,44.46 28.89,44.78 29.01,44.27 28.99,44.23 29.08,44.05 				"/>
				<polyline class="st4" points="29.08,44.05 29.09,44.46 29.08,44.05 				"/>
				<polyline class="st4" points="28.24,45.96 28.27,46.06 28.24,45.96 				"/>
				<polyline class="st3" points="28.27,46.06 28.3,46.15 28.1,46.66 28.27,46.06 				"/>
				<polyline class="st4" points="28.27,46.06 28.3,46.15 28.27,46.06 				"/>
				<polyline class="st4" points="28.3,46.15 28.1,46.66 28.3,46.15 				"/>
				<polyline class="st3" points="28.67,45.36 28.62,45.68 28.54,45.6 28.67,45.36 				"/>
				<polyline class="st3" points="28.99,44.23 29.01,44.27 28.67,45.36 28.99,44.23 				"/>
				<polyline class="st4" points="28.99,44.23 29.01,44.27 28.99,44.23 29.01,44.27 28.99,44.23 				"/>
				<polyline class="st5" points="28.99,44.23 29.01,44.27 28.99,44.23 				"/>
				<polyline class="st3" points="39.86,45.64 39.65,46.65 39.77,45.54 39.86,45.64 				"/>
				<polyline class="st3" points="40.17,45.98 39.66,47.01 40.01,45.79 40.17,45.98 				"/>
				<path class="st3" d="M41.84,46.11c0.19,0.74,0.39,1.41,0.16,2l-0.16-0.92l0.02,0.05L41.84,46.11"/>
				<polyline class="st3" points="41.84,46.11 41.86,47.24 41.85,47.19 41.84,46.11 				"/>
				<polyline class="st4" points="41.84,46.11 41.86,47.24 41.84,46.11 				"/>
				<polyline class="st3" points="40.29,46.19 40.14,46.55 40.17,45.98 40.29,46.19 				"/>
				<polyline class="st3" points="39.36,43.83 39.38,44.23 39.36,43.83 				"/>
				<path class="st6" d="M30.8,32.87l-0.35-0.1l-0.61,0.01c0.37,0.69,0.7,1.38,1.21,2.03L31,34.49c0.61,0.67,0.7,1.44,1.05,2.11
					C31.85,35.39,31.09,34.17,30.8,32.87"/>
				<polyline class="st3" points="33.21,37.37 33.31,37.6 33.21,37.37 				"/>
				<polyline class="st3" points="31.04,34.81 31.27,35.12 31.04,34.81 				"/>
				<polyline class="st3" points="33.1,36.97 33.21,37.37 33.1,36.97 				"/>
				<polyline class="st3" points="38.11,44.34 38.12,44.74 37.94,45.18 38.01,44.37 38.11,44.34 				"/>
				<polyline class="st3" points="38.2,44.31 38.12,44.74 38.11,44.34 38.2,44.31 				"/>
				<polyline class="st3" points="38.79,44 38.69,44.37 38.38,45.25 38.44,44.24 38.79,44 				"/>
				<polyline class="st3" points="38.84,43.99 38.69,44.37 38.79,44 38.84,43.99 				"/>
				<polyline class="st3" points="38.96,43.88 38.69,44.9 38.69,44.37 38.84,43.99 38.96,43.88 				"/>
				<path class="st6" d="M38.01,44.37l-0.07,0.81l0.18-0.45c0.06,0.71,0.24,1.49,0.2,2.21c-0.2-0.32-0.33-0.66-0.44-1.01
					c-0.18-0.6-0.27-1.24-0.43-1.86L38.01,44.37"/>
				<polyline class="st7" points="38.01,44.37 37.94,45.18 38.01,44.37 				"/>
				<path class="st3" d="M37.26,43.8c0,1.01,0.15,2.06-0.27,2.91c-0.02-0.07-0.04-0.13-0.07-0.19c-0.38-1.24,0.2-2.36-0.22-3.64
					l-0.04-0.1c-0.22,0.75-0.26,1.81-0.51,2.54c0.09-1.08,0.3-2.12,0.44-3.2C36.83,42.68,37.05,43.24,37.26,43.8"/>
				<polyline class="st3" points="36.31,45.67 35.79,47.22 35.81,46.61 36.31,45.67 				"/>
				<polyline class="st3" points="35.76,49.17 35.78,49.38 35.75,49.46 35.76,49.17 				"/>
				<path class="st3" d="M35.84,47.88l-0.04,0.36c-0.02,0.31-0.04,0.62-0.05,0.93l0.02,0.21C35.79,48.87,35.81,48.37,35.84,47.88
					 M35.8,48.24c-0.02,0.31-0.04,0.62-0.05,0.93C35.76,48.85,35.78,48.55,35.8,48.24"/>
				<path class="st3" d="M35.81,46.61l-0.02,0.61l0.01,1.02c-0.02,0.31-0.04,0.62-0.05,0.93v0.29l0.02-0.08
					c-0.11,0.51-0.23,1-0.29,1.57c-0.18-0.54-0.31-1.02-0.44-1.52C35.35,48.5,35.51,47.5,35.81,46.61"/>
				<polyline class="st4" points="35.81,46.61 35.79,47.22 35.81,46.61 				"/>
				<polyline class="st4" points="35.76,49.17 35.75,49.46 35.76,49.17 				"/>
				<path class="st4" d="M35.8,48.24c-0.02,0.31-0.04,0.62-0.05,0.93C35.76,48.85,35.78,48.55,35.8,48.24"/>
				<path class="st4" d="M35.8,48.24c-0.02,0.31-0.04,0.62-0.05,0.93C35.76,48.85,35.78,48.55,35.8,48.24"/>
				<path class="st3" d="M34.86,49.94c0.07,0.4,0.12,0.76,0.17,1.17c0.05,0.42,0.08,0.83,0.05,1.23c-0.34-0.58-0.69-1.24-0.93-1.74
					l0.36,0.09L34.86,49.94"/>
				<path class="st3" d="M47.95,50.58c0.09,0.12,0.18,0.23,0.29,0.35l-0.09,0.12C48.08,50.89,48.02,50.73,47.95,50.58"/>
				<path class="st8" d="M59.9,43.92c1.89,0.62,3.66,1.36,5.39,2.31l-1.59,0.99c-1.84,0.92-4.15,1.01-5.05-0.43
					c-0.13-0.21-0.23-0.44-0.31-0.71C58.98,45.48,59.48,44.65,59.9,43.92"/>
				<path class="st3" d="M54.53,48.11l0.29,0.07c-0.24,0.36-0.06,0.82-0.63,1.18C54.06,48.86,54.31,48.5,54.53,48.11"/>
				<path class="st9" d="M56.05,46.53c0.74,0.36,1.36,0.19,1.9-0.15c0.13-0.09,0.26-0.19,0.38-0.29c0.07,0.27,0.18,0.5,0.31,0.71
					c0.9,1.44,3.21,1.35,5.05,0.43c-1.3,0.82-2.59,1.64-3.89,2.46l-1.29,0.8c-1.25,0.77-2.5,1.51-3.77,2.23l0.36,0.33
					c0.34-0.11,0.67-0.25,0.98-0.41c0.31-0.15,0.62-0.31,0.92-0.47l0.28-0.16c0.56-0.31,1.1-0.62,1.65-0.88
					c0.55-0.25,1.1-0.46,1.69-0.54c-0.58,0.64-1.27,1.19-2.03,1.64c-0.5,0.29-1.03,0.54-1.57,0.74c-1.63,0.6-3.42,0.71-4.98,0.34
					c-0.53-0.1-1.3-0.01-1.91,0.09l0.93-0.21l-0.04-0.46c-0.53-0.2-1.08-0.36-1.43-0.63c0.09,0.01,0.17,0.02,0.26,0.03
					c0.34-0.01,0.81-0.06,1.22-0.1l1.14-0.18c0.24-0.04,0.47-0.11,0.68-0.2l0,0c0.68-0.29,1.27-0.85,1.91-1.4
					c-0.33,0.08-0.65,0.15-0.98,0.21c-0.21-0.07-0.34-0.17-0.42-0.3c-0.33-0.55,0.38-1.55,0.96-2.06l0.14,0.04
					c-0.22,0.4-0.47,0.76-0.34,1.25c0.57-0.36,0.39-0.82,0.63-1.18l0.49,0.41l0.94,0.04c0.05,0.9,1.16,0.01,1.42,0.67
					c0.5-0.1,0.99-0.22,1.49-0.34l0.25-1.05C58.05,47.83,56.68,47.68,56.05,46.53"/>
				<path class="st10" d="M58.64,46.79c0.9,1.44,3.21,1.35,5.05,0.43C61.86,48.14,59.54,48.23,58.64,46.79"/>
				<path class="st11" d="M54.82,48.18c-0.24,0.36-0.06,0.82-0.63,1.18C54.76,49,54.57,48.54,54.82,48.18"/>
				<path class="st3" d="M48.95,51.63c0.2,0.15,0.42,0.3,0.65,0.44c0.09,0.01,0.17,0.02,0.26,0.03c0.34-0.01,0.81-0.06,1.22-0.1
					l0.02-0.11c-0.37,0-0.76-0.02-1.12-0.04c0.35-0.11,0.73-0.2,1.1-0.33c-0.27-0.08-0.53-0.1-0.8-0.08
					c-0.27,0.02-0.54,0.07-0.72,0.08L48.95,51.63 M49.86,52.09c0.34-0.01,0.81-0.06,1.22-0.1C50.67,52.03,50.2,52.08,49.86,52.09"/>
				<path class="st4" d="M49.86,52.09c0.34-0.01,0.81-0.06,1.22-0.1C50.67,52.03,50.2,52.08,49.86,52.09"/>
				<polyline class="st3" points="54.63,47.94 54.82,48.18 54.53,48.11 54.63,47.94 				"/>
				<polyline class="st3" points="64.2,52.44 64.45,52.69 64.2,52.44 				"/>
				<path class="st12" d="M51.75,43.8c1.77,0.64,1.96,2.75,2.87,4.14l-0.1,0.17l-0.14-0.04c-0.58,0.5-1.29,1.51-0.96,2.06
					c0.08,0.13,0.21,0.23,0.42,0.3c0.33-0.06,0.65-0.13,0.98-0.21c-0.65,0.55-1.23,1.11-1.91,1.4c-0.22,0.09-0.45,0.17-0.68,0.2
					L51.09,52l0.02-0.11l1.02-0.18c-0.71-0.26-1.45-0.02-2.13,0.14c0.35-0.11,0.73-0.2,1.1-0.33c-0.27-0.08-0.53-0.1-0.8-0.08
					c-0.27,0.02-0.54,0.07-0.72,0.08l0.04-0.27c-0.24-0.27-0.45-0.56-0.64-0.86c0.14,0.08,0.28,0.17,0.43,0.24
					c0.17,0.06,0.39,0.11,0.62,0.16l0.23-0.6c-0.34-0.33-0.71-0.71-1.11-1.06c-0.36-0.35-0.56-0.76-0.76-1.07
					c0.12,0.17,0.25,0.38,0.42,0.57c0.19,0.18,0.53,0.32,0.83,0.46c0.62,0.26,1.31,0.42,2.07,0.25l-0.08-0.46l0.41,0.15
					c-0.69-0.62-1.53-0.7-2.1-1.4c0.36,0.14,0.73,0.3,1.11,0.41c-0.26-0.48-0.82-0.68-1.11-1.06c0.89,0.39,1.67,1.85,2.5,1.48
					l0.04-0.02l0.06-0.03c1.48-0.72,0.56-2.39-0.63-3.31l0.38,0.08C52.6,44.66,51.84,44.27,51.75,43.8"/>
				<path class="st13" d="M53.42,50.13c0.08,0.13,0.21,0.23,0.42,0.3c0.33-0.06,0.65-0.13,0.98-0.21c-0.33,0.08-0.65,0.15-0.98,0.21
					C53.63,50.36,53.5,50.26,53.42,50.13"/>
				<path class="st13" d="M54.82,50.21c-0.65,0.55-1.23,1.11-1.91,1.4C53.59,51.32,54.17,50.76,54.82,50.21"/>
				<path class="st14" d="M49.98,51.84c0.35-0.11,0.73-0.2,1.1-0.33C50.71,51.64,50.33,51.73,49.98,51.84"/>
				<polyline class="st14" points="51.1,51.88 51.08,51.99 51.1,51.88 				"/>
				<path class="st12" d="M48.58,53.58l-0.18,0.14l-0.22,0.36l0.3,0.03l-0.3-0.03l-0.03,0.42c0.24,0.13,0.5,0.26,0.78,0.39
					l-0.44-0.05c0.23,0.14,0.46,0.27,0.71,0.4l-0.86-0.16l0.01,0.25l0.29,0.14c0.71,0.06,1.45-0.16,2.17-0.06
					c-0.28,0.15-0.59,0.26-0.89,0.35c-0.65,0.2-1.33,0.22-2.02,0.34l-0.24,0.15c0.91,0.13,1.97,0.03,2.83,0.45
					c-0.07,0.02-0.14,0.04-0.21,0.07c-0.68,0.21-1.3,0.1-1.87,0.02c-0.58-0.09-1.12-0.21-1.77-0.14l-0.11,0.01
					c0.57,0.41,1.62,0.59,2.34,0.86c-1.13-0.14-2.1-0.5-2.95-0.99H45.8c-1.21-0.19-2.2-0.82-2.94-1.64c0.25,0.47,0.56,0.91,0.93,1.3
					c-0.36-0.39-0.67-0.83-0.93-1.3c-1.15-1.4-1.77-2.97-2.05-4.49c-0.08,0.5-0.11,1.03-0.12,1.58c-0.84-0.31-1.21-1.23-1.71-1.82
					c0.23,1.27,0.37,2.63,1.07,3.82c-0.7-1.18-0.84-2.55-1.07-3.82l-0.14-0.19c-0.3,1.29,0.2,2.73,0.5,4.08
					c-0.41-0.77-0.44-1.62-0.84-2.44l-0.03,0.34l0.17,0.37l-0.17-0.37c-0.36-0.81-0.41-1.62-0.4-2.37c-0.89-0.44-1.82-1.1-2.14-1.95
					l-0.14-0.43l0.01,1.02l0.04-0.36c-0.04,0.49-0.06,0.99-0.07,1.5c-0.11,0.51-0.23,1-0.29,1.57c-0.18-0.54-0.31-1.02-0.44-1.52
					l-0.19,0.51c0.07,0.4,0.12,0.76,0.17,1.17c0.05,0.42,0.08,0.83,0.05,1.23c-0.34-0.58-0.69-1.24-0.93-1.74l-0.97-0.74l-0.75,0.43
					c-0.21,0.41-0.3,0.91-0.27,1.48c0.01,0.26,0.09,0.63,0.21,1s0.27,0.75,0.46,1.12l0.15,0.27l0.6-0.46l-0.19,0.69
					c0.3,0.17,0.61,0.32,0.91,0.46l0.39,0.79c0.63,0.13,1.07,0.53,1.47,1.05c0.4,0.51,0.77,1.13,1.19,1.64l-0.22-0.6
					c0.41-0.02,0.71,0.14,0.97,0.4c0.38,0.38,0.68,0.96,1.02,1.33c0.2,0.35,0.42,0.7,0.66,1.03l0.09,0.05l-0.05,0.01l0.03,0.04
					c0.42,0.32,0.87,0.62,1.34,0.89c0.22,0.2,0.45,0.4,0.69,0.59l0.38,0.38l-0.38-0.38c-0.17-0.1-0.32-0.23-0.48-0.34l0.34,0.45
					c-0.27-0.19-0.54-0.38-0.79-0.6c0.49,0.47,1.03,0.88,1.6,1.26c0.21,0.11,0.42,0.2,0.63,0.3l-0.21,0.01
					c0.26,0.19,0.52,0.38,0.79,0.55c0.6,0.27,1.22,0.5,1.86,0.69c0.46-0.05,0.92-0.11,1.38-0.19c-0.39,0.09-0.78,0.18-1.17,0.25
					l-0.65,0.09c0.7,0.08,1.41,0.11,2.12,0.09l-0.12,0.26c0.87,0.11,1.98-0.03,3.09-0.19l0.11-0.02c0.62-0.17,1.22-0.45,1.82-0.66
					c-0.52,0.24-1.05,0.5-1.59,0.72l0.18,0.42c0.54-0.15,1.09-0.39,1.64-0.6c0.54-0.21,1.07-0.41,1.58-0.6
					c0.2-0.07,0.4-0.12,0.61-0.15l-0.19-0.04c0.38-0.15,0.76-0.29,1.12-0.45c0.56-0.43,1.1-0.86,1.57-1.33l-0.62-0.12l0.62,0.12
					c1.73-1.65,2.88-3.47,3.31-5.3c-0.69,0.74-1.42,1.47-1.99,2.26c-0.97,0.97-2.1,1.73-3.44,2.23l-0.44,0.16
					c0.4-0.44,0.79-0.88,1.17-1.32l-0.07,0.03l0.22-0.42L55.72,60c2.18-0.92,3.19-2.69,4.87-3.72l-0.18,0.39
					c0.87-0.84,1.69-1.71,2.48-2.57l0.32-1.78l-0.92,0.5l0.35-0.53c0.02-0.12,0.22-0.42,0.18-0.54c-0.06-0.16-0.49-0.01-2.27,1.12
					l-0.89,0.66c0.85-0.98,1.53-1.94,1.84-3.06l-0.9,0.12c-0.58,0.64-1.27,1.19-2.03,1.64c-0.5,0.29-1.03,0.54-1.57,0.74
					c-1.63,0.6-3.42,0.71-4.98,0.34c-0.53-0.1-1.3-0.01-1.91,0.09l-0.09,0.03c0.12,0.06,0.23,0.1,0.36,0.15
					c-0.18-0.01-0.33-0.03-0.49-0.06c0.29,0.2,0.59,0.38,0.94,0.54c-0.41-0.1-0.77-0.24-1.11-0.39l-0.12,0.14
					c0.28,0.09,0.57,0.19,0.87,0.26c-0.34-0.04-0.65-0.12-0.96-0.19L49.4,54.1C49.11,53.95,48.83,53.76,48.58,53.58 M40.4,54.4
					c-0.43-1.02-0.45-2.1-0.85-3.17C39.94,52.3,39.97,53.37,40.4,54.4l0.17,0.41l0.15,0.23l-0.15-0.23L40.4,54.4l0.14-0.07
					c0.2,0.3,0.4,0.6,0.63,0.88c-0.22-0.29-0.43-0.58-0.63-0.88L40.4,54.4 M45,56.95c-0.91-0.15-1.19-1.09-1.82-1.52
					C43.82,55.86,44.1,56.8,45,56.95 M45.78,56.99h0.06c0.21,0.03,0.42,0.05,0.63,0.07c-0.21-0.02-0.42-0.04-0.63-0.07H45.78
					c-0.75-0.2-1.2-0.68-1.82-1.07C44.58,56.31,45.03,56.79,45.78,56.99 M41.03,54.73l0.36,0.15L41.03,54.73 M58.46,54.79
					c0.41-0.43,0.83-0.84,1.22-1.28C59.3,53.94,58.88,54.36,58.46,54.79 M58.46,54.79c0.41-0.43,0.83-0.84,1.22-1.28
					C59.3,53.94,58.88,54.36,58.46,54.79 M58.46,54.79l-0.21,0.17l-0.19,0.21l-0.21,0.17l-0.18,0.2l-0.02,0.02l-0.2,0.16l-0.19,0.21
					l-0.22,0.16l-0.2,0.21l-0.2,0.21l-0.16,0.13l-0.2,0.21l-0.2,0.21l-0.21,0.2l-0.15,0.17l-0.21,0.2l-0.13,0.22
					c0.93-0.54,1.59-1.27,2.19-1.99l0.07-0.08l0.05-0.06l0.22-0.27l0.05-0.06l0.19-0.21l0.1-0.13L58.46,54.79 M62.32,52.8l-0.3,0.18
					l-0.2,0.14l-0.22,0.14l-0.19,0.18l-0.25,0.22l-0.1,0.13c-0.1,0.11-0.2,0.22-0.3,0.34l0,0l-0.17,0.22l0.17-0.22l-0.17,0.22
					l0.17-0.22l0,0c-0.06,0.07-0.11,0.14-0.18,0.22c0.07-0.1,0.15-0.19,0.23-0.28l0.14-0.13l0.25-0.21l0.08-0.07l0.24-0.19l0.15-0.1
					l0.14-0.13C62.01,53.11,62.18,52.97,62.32,52.8 M33.59,53.69l0.13-0.07l-0.05-0.41L33.59,53.69"/>
				<path class="st2" d="M58.46,54.79c-0.25,0.26-0.52,0.5-0.78,0.75l0.18-0.2l0.21-0.17l0.19-0.21L58.46,54.79"/>
				<polyline class="st2" points="58.25,55.05 58.15,55.18 57.97,55.39 57.91,55.46 58.25,55.05 				"/>
				<path class="st2" d="M57.66,55.56c-0.79,0.75-1.61,1.49-2.28,2.3l0.13-0.22l0.21-0.2l0.15-0.17l0.21-0.2l0.2-0.21l0.2-0.21
					l0.16-0.13l0.2-0.21l0.2-0.21l0.22-0.16l0.19-0.21L57.66,55.56"/>
				<polyline class="st2" points="57.69,55.72 57.64,55.79 57.58,55.86 57.69,55.72 				"/>
				<polyline class="st15" points="39.87,60.53 39.82,60.54 39.78,60.49 39.87,60.53 				"/>
				<polyline class="st14" points="56.51,61.84 57.13,61.96 56.51,61.84 				"/>
				<polyline class="st14" points="35.84,47.88 35.8,48.24 35.84,47.88 				"/>
				<path class="st14" d="M35.05,49.42c0.13,0.5,0.26,0.98,0.44,1.52C35.31,50.4,35.18,49.93,35.05,49.42"/>
				<path class="st14" d="M35.09,52.34c-0.34-0.58-0.69-1.24-0.93-1.74C34.4,51.1,34.75,51.76,35.09,52.34"/>
				<polyline class="st16" points="58.46,54.79 58.26,54.96 58.07,55.17 57.86,55.34 57.68,55.54 57.86,55.34 58.07,55.17 
					58.26,54.96 58.46,54.79 				"/>
				<polyline class="st16" points="58.25,55.05 58.15,55.18 57.97,55.39 57.91,55.46 57.97,55.39 58.15,55.18 58.25,55.05 				"/>
				<polyline class="st16" points="57.66,55.56 57.46,55.72 57.27,55.93 57.05,56.1 56.85,56.3 56.65,56.51 56.49,56.64 
					56.29,56.85 56.08,57.06 55.88,57.26 55.73,57.44 55.51,57.64 55.38,57.86 55.51,57.64 55.73,57.44 55.88,57.26 56.08,57.06 
					56.29,56.85 56.49,56.64 56.65,56.51 56.85,56.3 57.05,56.1 57.27,55.93 57.46,55.72 57.66,55.56 				"/>
				<polyline class="st16" points="57.69,55.72 57.64,55.79 57.58,55.86 57.64,55.79 57.69,55.72 				"/>
				<path class="st16" d="M59.69,53.51c-0.39,0.44-0.81,0.85-1.22,1.28C58.88,54.36,59.3,53.94,59.69,53.51"/>
				<path class="st16" d="M59.69,53.51c-0.39,0.44-0.81,0.85-1.22,1.28C58.88,54.36,59.3,53.94,59.69,53.51"/>
				<path class="st13" d="M50.15,53.37c0.61-0.1,1.38-0.19,1.91-0.09c1.56,0.37,3.34,0.26,4.98-0.34c-1.63,0.6-3.42,0.71-4.98,0.34
					C51.52,53.18,50.76,53.27,50.15,53.37"/>
				<path class="st13" d="M60.63,50.56c-0.58,0.64-1.27,1.19-2.03,1.64C59.36,51.75,60.05,51.2,60.63,50.56"/>
				<path class="st2" d="M61.61,53.26l0.22-0.14c-0.27,0.19-0.52,0.42-0.77,0.68l0.1-0.13l0.25-0.22L61.61,53.26"/>
				<polyline class="st2" points="61.83,53.26 61.69,53.39 61.53,53.49 61.83,53.26 				"/>
				<path class="st2" d="M61.29,53.68l-0.08,0.07l-0.25,0.21l-0.14,0.13C60.96,53.94,61.13,53.81,61.29,53.68"/>
				<polyline class="st2" points="60.77,54.14 60.76,54.14 60.76,54.14 60.77,54.14 				"/>
				<polyline class="st3" points="64.01,52.51 63.93,52.63 64.01,52.51 				"/>
				<path class="st8" d="M63.24,52.31c1.46-0.74,3.07-1.17,4.45-2l-0.37,1.14l0.05-0.16c-0.19,0.1-0.42,0.26-0.66,0.43
					c-0.12,0.09-0.25,0.18-0.38,0.27c-0.39,0.28-0.81,0.57-1.22,0.73l-0.66-0.03l-0.03-0.04l-0.22-0.21l0.15-0.47l-0.34,0.54
					l-0.08,0.12l-1.01,1.46L63.24,52.31"/>
				<path class="st17" d="M66.71,51.72c0.24-0.18,0.47-0.33,0.66-0.43C67.18,51.39,66.96,51.54,66.71,51.72
					c-0.12,0.09-0.25,0.18-0.38,0.27C66.46,51.9,66.59,51.81,66.71,51.72"/>
				<polyline class="st17" points="67.37,51.29 67.33,51.44 67.37,51.29 				"/>
				<polyline class="st18" points="64.2,52.44 64.43,52.65 64.45,52.69 64.2,52.44 				"/>
				<polyline class="st17" points="63.24,52.31 62.92,54.08 63.24,52.31 				"/>
				<path class="st8" d="M61.66,49.49c0.77-0.53,1.93-0.93,2.91-1.29c-0.07,1.29-0.82,2.75-1.32,4.11l-0.92,0.5l0.35-0.53
					c0.02-0.12,0.22-0.42,0.18-0.54c-0.06-0.16-0.49-0.01-2.27,1.12l-0.89,0.66c0.85-0.98,1.53-1.94,1.84-3.06l-0.9,0.12l0.34-0.4
					c0.11-0.19,0.28-0.36,0.48-0.52C61.51,49.59,61.58,49.54,61.66,49.49"/>
				<path class="st17" d="M61.53,50.45c-0.31,1.12-0.99,2.08-1.84,3.06C60.54,52.53,61.22,51.56,61.53,50.45"/>
				<path class="st17" d="M62.85,51.73c0.04,0.12-0.16,0.42-0.18,0.54l-0.35,0.53l0.35-0.53C62.69,52.15,62.89,51.85,62.85,51.73"/>
				<path class="st19" d="M58.52,50.48l1.29-0.8c1.29-0.82,2.59-1.64,3.89-2.46c0.44-0.19,0.85-0.42,1.23-0.69
					c0.13-0.09,0.25-0.19,0.36-0.3c1.12,0.66,2.2,1.35,3.23,2.2l-0.83,1.87c-1.38,0.84-3,1.26-4.45,2c0.5-1.36,1.25-2.82,1.32-4.11
					c-0.97,0.36-2.14,0.76-2.91,1.29l0,0c-0.08,0.05-0.15,0.1-0.21,0.16c-0.2,0.16-0.37,0.33-0.48,0.52l-0.34,0.4
					c-0.59,0.08-1.14,0.29-1.69,0.54c-0.55,0.26-1.09,0.57-1.65,0.88L57,52.14c-0.3,0.17-0.61,0.32-0.92,0.47
					c-0.32,0.16-0.65,0.3-0.98,0.41l-0.36-0.33C56.01,51.99,57.27,51.25,58.52,50.48"/>
				<path class="st14" d="M58.52,50.48c-1.25,0.77-2.5,1.51-3.77,2.23C56.01,51.99,57.27,51.25,58.52,50.48"/>
				<path class="st14" d="M59.81,49.68c1.29-0.82,2.59-1.64,3.89-2.46C62.4,48.05,61.1,48.86,59.81,49.68"/>
				<path class="st14" d="M56.09,52.62c0.31-0.15,0.62-0.31,0.92-0.47l0.28-0.16c0.56-0.31,1.1-0.62,1.65-0.88
					c-0.55,0.26-1.09,0.57-1.65,0.88l-0.28,0.16C56.71,52.32,56.4,52.47,56.09,52.62"/>
				<path class="st20" d="M61.66,49.49L61.66,49.49c-0.08,0.05-0.15,0.1-0.21,0.16C61.51,49.59,61.58,49.54,61.66,49.49"/>
				<path class="st20" d="M64.56,48.2c-0.07,1.29-0.82,2.75-1.32,4.11C63.74,50.95,64.49,49.49,64.56,48.2"/>
				<path class="st3" d="M63.7,47.22l1.59-0.99c-0.12,0.1-0.24,0.2-0.36,0.3C64.55,46.81,64.14,47.04,63.7,47.22"/>
				<polyline class="st18" points="63.7,47.22 65.29,46.23 63.7,47.22 				"/>
			</g>
		</g>
	</g>
</g>
<g>
	<g>
		<g>
			<g class="st1">
				<path class="st2" d="M52.35,20.36c1.24,0.21-2.67-0.15-1.6,0.45c0.4-0.07,0.8-0.11,1.18-0.16c-0.59,0.33-1.2,0.69-1.8,1.1
					c-1.49,1.21-3.05,3.01-4.64,4.85c-1.58,1.84-3.24,3.72-4.88,4.99c0.77-0.89,1.55-2.02,2.26-3.07c0.23-0.35,0.46-0.7,0.68-1.03
					c0.43-0.65,0.82-1.24,1.16-1.68l-0.1,0.33l0.79-2.43c0.47-0.65,0.95-1.3,1.43-1.91c-0.49,0.61-0.96,1.26-1.43,1.91
					C45.99,22.28,51.66,21.7,52.35,20.36"/>
				<path class="st2" d="M20.74,61.67l0.1,0.09c-0.26-0.04-0.52-0.09-0.79-0.15c-1.37-0.66-2.76-1.48-4.1-2.52
					c-0.67-0.51-1.32-1.08-1.94-1.69c-0.56-0.54-1.37-1.33-2.18-2.91c-0.46-0.96-0.88-2.36-0.86-3.94c0.01-0.77,0.12-1.48,0.26-2.07
					c0.13-0.58,0.35-1.17,0.4-1.33c0.38-1.08,0.93-2.12,1.52-3.14c1.2-2.05,2.76-3.97,4.55-5.61c0.71-0.66,1.48-1.27,2.26-1.83
					c-1.44,1.41-2.73,2.95-3.81,4.59l-0.37,0.42c-1.31,1.55-2.36,3.24-3.15,4.93c-0.1,0.21-0.19,0.43-0.27,0.64l-0.12,0.33
					L12.1,47.9c-0.25,0.77-0.5,1.84-0.47,3.07c0.03,1.21,0.34,2.27,0.68,3.07c0.35,0.81,0.74,1.4,1.08,1.86
					c0.36,0.48,0.65,0.79,0.93,1.08c0.28,0.3,0.57,0.59,0.87,0.86c0.59,0.55,1.2,1.04,1.81,1.5C18.25,60.24,19.5,60.98,20.74,61.67"
					/>
				<path class="st3" d="M18.5,34.84c3.31-2.95,7.41-4.88,11.98-4.41c0.65,0.1,1.29,0.2,1.91,0.33l-0.08,0.45
					c-0.6-0.14-1.22-0.24-1.87-0.35c-2.21-0.24-4.52,0.15-6.63,0.9c-0.76,0.26-1.52,0.6-2.28,0.93l0.56-0.17
					C20.85,33.15,19.65,33.95,18.5,34.84"/>
				<path class="st3" d="M28.23,31.38c0.71-0.06,1.44-0.05,2.15,0c0.72,0.11,1.43,0.19,2.1,0.37c0.17,0.09,0.34,0.18,0.5,0.29
					c-0.82-0.29-1.7-0.43-2.61-0.59C29.67,31.37,28.95,31.34,28.23,31.38"/>
				<polyline class="st3" points="25.7,54.29 26.15,54.7 25.54,54.27 25.7,54.29 				"/>
				<path class="st3" d="M28.71,49.96c-0.06-0.1-0.13-0.2-0.2-0.29c-0.04-0.05-0.08-0.09-0.12-0.14c0.04,0.05,0.08,0.09,0.12,0.14
					C28.58,49.76,28.65,49.86,28.71,49.96"/>
				<path class="st3" d="M28.39,49.53c-0.02,0-0.04-0.01-0.06-0.01C28.35,49.52,28.37,49.53,28.39,49.53"/>
				<polyline class="st3" points="35.41,34.89 34.77,35.3 35.41,34.89 				"/>
				<polyline class="st3" points="30.4,50.13 30.35,49.94 30.4,50.13 				"/>
				<polyline class="st3" points="25.1,54.85 26.65,53.95 25.1,54.85 				"/>
				<path class="st3" d="M26.15,54.7c0.3,0.3,0.6,0.6,0.93,0.89C26.76,55.3,26.45,55,26.15,54.7"/>
				<path class="st3" d="M33.39,35.64c-0.25,0.22-0.5,0.43-0.75,0.64c0.21-0.19,0.42-0.37,0.63-0.57L33.39,35.64"/>
				<path class="st3" d="M36.43,34.02c-0.33,0.3-0.68,0.58-1.02,0.87l0.64-0.6L36.43,34.02"/>
				<path class="st3" d="M34.85,44.46c-0.04,0.1-0.05,0.17-0.06,0.2c0-0.04,0-0.02,0-0.09c-0.02-0.12-0.09-0.37-0.33-0.75
					c-0.12-0.19-0.28-0.44-0.51-0.73c-0.27-0.35-0.51-0.65-1.12-1.34l-1.19-1.32l-1.23-1.32l-0.56-0.59c0,0,0,0,0.01-0.01l0.11-0.15
					l0.23-0.16l-0.23,0.16l0.23-0.16l0.03,0.04l-0.3,0.34l-0.02,0.02c0,0.01,0,0,0,0c0.01,0.01-0.02-0.02,0.02,0.02l0.21,0.22
					l1.48,1.59l0.82,0.9l0.53,0.59c0.6,0.68,0.91,1.09,1.14,1.4c0.45,0.62,0.59,0.97,0.65,1.18C34.82,44.67,34.75,44.72,34.85,44.46
					"/>
				<path class="st3" d="M34.93,34.52c-0.51,0.39-1.02,0.76-1.54,1.12c-0.25,0.22-0.5,0.43-0.75,0.64c0.21-0.19,0.42-0.37,0.63-0.57
					c-0.76,0.55-1.54,1.11-2.35,1.66c-0.4,0.28-0.81,0.56-1.22,0.85l-0.04,0.03l-0.02,0.01c0.01,0.02-0.04-0.04,0.04,0.04l0.35,0.36
					l2.11,2.27c0.91,1,1.22,1.38,1.56,1.79c0.58,0.72,0.82,1.12,0.96,1.42c0.31,0.57-0.03,0.71,0.34,0.02l0.12-0.2l0.08-0.11
					l4.32-6.13l0.04-0.12c-0.06-0.09-0.18-0.11-0.27-0.16l0.13,0.16l0.07,0.08c0.02,0-0.03,0.09-0.04,0.14l-0.02,0.04v0.01v0.01
					c3.74-5.3-5.1,7.22-4.19,5.93l-0.01,0.01l-0.03,0.04c-0.14,0.2-0.23,0.35-0.29,0.48c-0.12,0.22-0.12,0.4-0.11,0.3
					c0-0.04-0.01-0.18-0.14-0.45c-0.13-0.28-0.32-0.6-0.77-1.19l-0.42-0.52l-0.63-0.73l-1.07-1.18l-2.04-2.18l0.26-0.22l0.52-0.45
					l-0.52,0.65l0.23-0.16l0.43-0.35l-0.4,0.38c0.78-0.52,1.54-1.08,2.29-1.66c-0.33,0.2-0.68,0.39-1.01,0.58
					c0.4-0.26,0.81-0.52,1.2-0.79l-0.18,0.21c0.38-0.23,0.76-0.45,1.13-0.7C34.1,35.43,34.52,34.98,34.93,34.52 M32.72,36.35
					l0.19-0.21L32.72,36.35"/>
				<path class="st4" d="M33.27,35.72c-0.2,0.2-0.41,0.38-0.63,0.57C32.85,36.1,33.06,35.91,33.27,35.72"/>
				<polyline class="st4" points="30.21,38.19 29.98,38.34 30.21,38.19 				"/>
				<path class="st3" d="M37.73,32.27l-0.48,0.56l-0.7,0.75c-0.77,0.7-1.57,1.35-2.38,1.98l-0.52,0.31
					c0.44-0.44,0.86-0.89,1.27-1.35C35.89,33.83,36.82,33.07,37.73,32.27"/>
				<polyline class="st3" points="30.64,37.84 30.24,38.22 30.21,38.19 30.64,37.84 				"/>
				<polyline class="st4" points="30.64,37.84 30.24,38.22 30.64,37.84 				"/>
				<path class="st3" d="M38,31.96l-0.23,0.33l-0.17,0.23l-0.34,0.31l0.48-0.56C37.82,32.17,37.82,32.19,38,31.96"/>
				<polyline class="st3" points="37.7,32.42 37.6,32.51 37.7,32.42 				"/>
				<path class="st3" d="M37.45,32.72c-0.34,0.44-0.67,0.88-1.02,1.3l0.5-0.71L37.45,32.72"/>
				<polyline class="st4" points="30.21,38.19 29.98,38.34 30.21,38.19 				"/>
				<polyline class="st3" points="37.7,32.42 37.45,32.72 37.7,32.42 				"/>
				<polyline class="st3" points="37.6,32.51 37.45,32.72 36.93,33.31 36.56,33.58 37.25,32.82 36.56,33.58 37.25,32.82 37.6,32.51 
									"/>
				<polyline class="st4" points="37.7,32.42 37.45,32.72 37.6,32.51 37.7,32.42 				"/>
				<polyline class="st4" points="37.45,32.72 36.93,33.31 37.45,32.72 				"/>
				<polyline class="st4" points="37.25,32.82 36.56,33.58 37.25,32.82 				"/>
				<path class="st3" d="M36.93,33.31l-0.5,0.71l-0.37,0.27C36.34,33.96,36.65,33.64,36.93,33.31"/>
				<polyline class="st4" points="36.43,34.02 36.05,34.28 36.43,34.02 				"/>
				<polyline class="st4" points="36.93,33.31 36.43,34.02 36.93,33.31 				"/>
				<path class="st3" d="M36.93,33.31c-0.28,0.34-0.59,0.65-0.88,0.98l-0.67,0.4c0.37-0.32,0.73-0.65,1.1-0.99l0.08-0.12
					L36.93,33.31"/>
				<path class="st4" d="M36.93,33.31c-0.28,0.34-0.59,0.65-0.88,0.98C36.34,33.96,36.65,33.64,36.93,33.31"/>
				<polyline class="st4" points="32.9,36.14 32.72,36.35 32.9,36.14 				"/>
				<path class="st3" d="M32.72,36.35l-0.18,0.21c-0.33,0.2-0.68,0.39-1.01,0.58C31.92,36.89,32.32,36.63,32.72,36.35"/>
				<polyline class="st4" points="32.72,36.35 32.53,36.56 32.72,36.35 				"/>
				<path class="st4" d="M32.53,36.56c-0.33,0.2-0.68,0.39-1.01,0.58C31.85,36.96,32.2,36.77,32.53,36.56"/>
				<polyline class="st3" points="34.18,35.56 33.52,36.12 33.66,35.87 34.18,35.56 				"/>
				<path class="st3" d="M36.56,33.58l-0.08,0.12c-0.74,0.66-1.52,1.27-2.29,1.86C34.99,34.93,35.78,34.27,36.56,33.58"/>
				<polyline class="st4" points="36.56,33.58 36.47,33.7 36.56,33.58 36.47,33.7 36.56,33.58 				"/>
				<polyline class="st5" points="36.56,33.58 36.47,33.7 36.56,33.58 				"/>
				<path class="st3" d="M31.37,46.56c-0.32-0.62-0.65-1.29-1.1-1.9c0.52,0.65,0.9,1.37,1.28,2.04L31.37,46.56"/>
				<path class="st3" d="M30.74,46.13c-0.27-0.69-0.61-1.41-1.09-2.03c0.65,0.66,1.07,1.51,1.44,2.28L30.74,46.13"/>
				<path class="st3" d="M29.44,47.06c-0.19-0.15-0.4-0.28-0.63-0.35c-0.5-0.19-1.03-0.15-1.48-0.05c-0.46,0.09-0.88,0.22-1.31,0.29
					c0.54-0.31,1.1-0.58,1.71-0.65l-0.1,0.02c0.4-0.03,0.81,0.05,1.18,0.26C29.05,46.7,29.25,46.87,29.44,47.06"/>
				<path class="st3" d="M29.44,47.06c-0.18-0.19-0.39-0.36-0.61-0.48c-0.37-0.21-0.78-0.28-1.18-0.26l0.1-0.02
					c0.37,0,0.75,0.08,1.08,0.27C29.05,46.7,29.25,46.87,29.44,47.06"/>
				<path class="st4" d="M29.44,47.06c-0.18-0.19-0.39-0.36-0.61-0.48c-0.37-0.21-0.78-0.28-1.18-0.26c0.4-0.03,0.81,0.05,1.18,0.26
					C29.05,46.7,29.25,46.87,29.44,47.06"/>
				<path class="st3" d="M30.41,45.84c-0.11-0.23-0.23-0.46-0.37-0.68c0.27,0.3,0.5,0.64,0.71,0.97
					C30.63,46.03,30.52,45.93,30.41,45.84"/>
				<polyline class="st3" points="38.69,46.4 37.82,47.1 38.69,46.4 				"/>
				<path class="st6" d="M58.97,34.88l0.73,0.41l1.14,0.46c-1.17-1.44-2.39-2.83-4.11-4.17l0.45,0.57
					c-1.81-1.36-3.13-2.74-4.96-3.91c1.29,1.03,2.64,2.15,3.83,3.27c0.6,0.56,1.15,1.13,1.63,1.68c0.24,0.28,0.46,0.54,0.68,0.83
					C58.57,34.3,58.78,34.59,58.97,34.88"/>
				<path class="st3" d="M49.06,27.26c-0.23-0.05-0.46-0.04-0.67,0.03C48.6,27.22,48.83,27.21,49.06,27.26"/>
				<polyline class="st3" points="56.71,31.58 55.91,30.96 56.71,31.58 				"/>
				<path class="st3" d="M50.03,27.79c-0.3-0.21-0.62-0.42-0.97-0.53C49.41,27.37,49.73,27.58,50.03,27.79"/>
				<path class="st3" d="M37.49,45.69c-0.29,0.22-0.49,0.41-0.95,0.73c-0.24,0.12-0.53,0.26-0.9,0.35
					c-0.37,0.09-0.84,0.11-1.26-0.03c0.42,0.11,0.88,0.07,1.23-0.04s0.62-0.26,0.84-0.4c0.45-0.3,0.67-0.48,0.97-0.69L37.49,45.69"
					/>
				<path class="st3" d="M37.56,45.76c-0.31,0.2-0.54,0.37-1.02,0.66c0.45-0.32,0.66-0.51,0.95-0.73L37.56,45.76"/>
				<path class="st3" d="M38.27,45.98l-0.77,0.47c-0.34,0.18-0.79,0.55-1.67,0.81c-0.43,0.12-1.02,0.16-1.55,0
					c-0.51-0.15-0.89-0.44-1.08-0.63c0.25,0.22,0.8,0.57,1.48,0.62c0.68,0.06,1.26-0.16,1.64-0.35c0.39-0.2,0.65-0.41,0.87-0.57
					l0.54-0.4L38.27,45.98"/>
				<polyline class="st3" points="38.3,46.01 37.49,46.45 38.27,45.98 38.3,46.01 				"/>
				<path class="st3" d="M38.53,45.99l-1.1,0.68c-0.24,0.15-0.52,0.34-0.93,0.54c-0.4,0.19-0.99,0.4-1.69,0.36
					c0.81,0.02,1.43-0.28,1.82-0.51c0.4-0.24,0.68-0.47,0.86-0.62L38.3,46L38.53,45.99"/>
				<path class="st6" d="M37.42,45.61c-0.3,0.21-0.52,0.39-0.97,0.69c-0.22,0.14-0.48,0.29-0.84,0.4c-0.35,0.11-0.81,0.15-1.23,0.04
					c0.41,0.14,0.89,0.12,1.26,0.03s0.66-0.22,0.9-0.35c-0.3,0.2-0.71,0.47-1.36,0.57c-0.32,0.05-0.69,0.02-1.01-0.08
					c-0.32-0.09-0.57-0.24-0.76-0.38c-0.41-0.33-0.62-0.65-0.92-1.01c-0.55-0.71-1.06-1.5-1.63-2.2c0.68,0.51,1.23,1.2,1.83,1.87
					c0.26,0.29,0.52,0.58,0.8,0.84l0.12,0.09c0.07,0.05,0.14,0.1,0.23,0.15c0.17,0.1,0.37,0.18,0.61,0.23
					c0.48,0.1,0.98-0.02,1.3-0.19c0.67-0.35,0.94-0.7,1.27-0.98c0.32-0.29,0.64-0.59,0.95-0.9C37.79,44.83,37.61,45.22,37.42,45.61"
					/>
				<path class="st7" d="M37.42,45.61c-0.3,0.21-0.52,0.39-0.97,0.69c-0.22,0.14-0.48,0.29-0.84,0.4c-0.35,0.11-0.81,0.15-1.23,0.04
					c0.42,0.11,0.88,0.07,1.23-0.04s0.62-0.26,0.84-0.4C36.9,46,37.12,45.82,37.42,45.61"/>
				<path class="st3" d="M38.49,43.75c-0.5,0.41-1.01,0.85-1.54,1.26c-0.27,0.21-0.5,0.4-0.82,0.64c-0.31,0.21-0.75,0.49-1.33,0.46
					c-0.59-0.04-0.97-0.42-1.11-0.6c-0.19-0.24-0.36-0.48-0.52-0.73c-0.32-0.5-0.59-1.03-0.82-1.55c0.12,0.14,0.24,0.28,0.36,0.41
					c0.28,0.34,0.56,0.66,0.82,0.98c0.28,0.31,0.5,0.64,0.86,0.85c0.37,0.23,0.88,0.12,1.22-0.09c0.36-0.21,0.65-0.44,0.96-0.66
					c1.22-0.89,2.43-1.85,3.59-3.23l0.18-0.22c-1.42,1.03-3.57,2.81-5.07,3.53c2.19-1.46,4.29-3.06,6.27-4.77
					C40.6,41.31,39.57,42.56,38.49,43.75"/>
				<path class="st3" d="M34.71,45.07c-0.07-0.05-0.13-0.13-0.19-0.22c-0.07-0.12-0.19-0.26-0.27-0.41
					c-0.18-0.29-0.36-0.59-0.53-0.9c-0.35-0.62-0.71-1.26-1.1-1.88c0.36,0.46,0.7,0.94,1.05,1.42l0.56,1.14
					c0.09,0.19,0.19,0.36,0.29,0.53C34.58,44.9,34.63,44.98,34.71,45.07"/>
				<path class="st3" d="M28.18,38.79c-0.19,0-0.39,0-0.58,0.01l-0.19-0.01C27.67,38.77,27.92,38.77,28.18,38.79"/>
				<path class="st3" d="M31.3,40.3c-0.24-0.23-0.48-0.45-0.75-0.64c-0.3-0.21-0.62-0.38-0.96-0.53c-0.45-0.18-0.93-0.3-1.41-0.34
					c-0.19,0-0.39,0-0.58,0.01c0.67-0.02,1.35,0.09,1.98,0.35C30.23,39.42,30.8,39.82,31.3,40.3 M30.55,39.66
					c-0.3-0.21-0.62-0.38-0.96-0.53c-0.45-0.18-0.93-0.3-1.41-0.34c0.48,0.04,0.96,0.16,1.41,0.34
					C29.92,39.28,30.25,39.44,30.55,39.66"/>
				<path class="st3" d="M33.67,43.09c-0.34-0.47-0.69-0.95-1.05-1.42c-0.6-0.76-1.26-1.48-2.07-2.01c-0.3-0.21-0.62-0.38-0.96-0.53
					c-0.45-0.18-0.93-0.3-1.41-0.34c-0.26-0.01-0.52-0.02-0.77,0l0.19,0.01c-1.23-0.07-2.41,0.19-3.59,0.59
					c1.29-0.74,2.67-1.32,4.18-1.36c0.47,0.1,0.97,0.27,1.46,0.51C31.47,39.43,32.7,41.39,33.67,43.09"/>
				<path class="st4" d="M33.67,43.09c-0.34-0.47-0.69-0.95-1.05-1.42C32.98,42.13,33.32,42.61,33.67,43.09"/>
				<path class="st4" d="M28.18,38.79c-0.26-0.01-0.52-0.02-0.77,0C27.67,38.77,27.92,38.77,28.18,38.79"/>
				<path class="st4" d="M30.55,39.66c-0.3-0.21-0.62-0.38-0.96-0.53c-0.45-0.18-0.93-0.3-1.41-0.34c0.48,0.04,0.96,0.16,1.41,0.34
					C29.92,39.28,30.25,39.44,30.55,39.66"/>
				<path class="st4" d="M30.55,39.66c-0.3-0.21-0.62-0.38-0.96-0.53c-0.45-0.18-0.93-0.3-1.41-0.34c0.48,0.04,0.96,0.16,1.41,0.34
					C29.92,39.28,30.25,39.44,30.55,39.66"/>
				<path class="st3" d="M26.96,37.87c-2.21,0.43-3.99,1.5-5.58,2.22c1.39-1.16,2.86-2.19,4.48-2.82c-0.19,0.17-0.37,0.35-0.55,0.54
					C25.86,37.78,26.41,37.8,26.96,37.87"/>
				<path class="st3" d="M20.84,65.01c-0.57-0.28-1.13-0.58-1.67-0.89l0.61,0.08C20.12,64.48,20.48,64.74,20.84,65.01"/>
				<path class="st8" d="M33.51,23.95c3.11-1.75,11.12-2.48,13.88-3.23c-1.05,1.36-7.09,1.95-8.07,3.33
					c-1.65,2.19-3.46,4.2-5.13,5.38c-1.65,1.21-3.04,1.7-3.67,1.12c-0.18-0.17-0.29-0.42-0.34-0.77
					C31.63,27.87,32.65,25.87,33.51,23.95"/>
				<path class="st3" d="M21.49,38.7l0.62-0.35c-0.69,1-0.45,1.46-1.84,2.99C20.14,40.74,20.83,39.73,21.49,38.7"/>
				<path class="st9" d="M25.48,33.73c1.4-0.48,2.73-1.6,3.89-2.93c0.28-0.33,0.56-0.66,0.83-1.01c0.04,0.35,0.16,0.6,0.34,0.77
					c0.62,0.58,2.02,0.09,3.67-1.12c1.66-1.18,3.48-3.19,5.13-5.38c-1.19,1.72-2.35,3.43-3.61,5.04c-1.24,1.62-2.59,3.17-3.96,4.71
					c-0.92,1.02-1.87,2.02-2.82,3.03c-2.77,2.9-5.62,5.78-8.32,8.86l0.68-0.07l2.07-2.08c0.66-0.68,1.33-1.35,1.98-2.03l0.61-0.63
					c1.22-1.25,2.41-2.47,3.59-3.6c1.17-1.14,2.32-2.19,3.46-3.12c-1.33,1.84-2.87,3.61-4.5,5.3c-1.08,1.12-2.21,2.2-3.34,3.24
					c-3.42,3.13-6.91,5.97-9.95,8.56c-0.54,0.47-1.16,1.1-1.76,1.86c-0.15,0.19-0.31,0.38-0.47,0.58l-0.24,0.3
					c-0.1,0.14-0.24,0.34-0.38,0.65s-0.31,0.78-0.28,1.43c0.02,0.65,0.35,1.35,0.69,1.73c0.34,0.39,0.63,0.58,0.84,0.72l0.42,0.26
					l-0.39-0.23c-0.19-0.12-0.45-0.28-0.77-0.62c-0.31-0.32-0.68-0.9-0.78-1.55c-0.11-0.65,0.02-1.2,0.16-1.55
					c0.14-0.36,0.28-0.59,0.39-0.76c0.12-0.18,0.16-0.23,0.24-0.35l0.44-0.61l-0.17-0.55l-0.8,0.7l-0.2,0.18
					c-0.06,0.05-0.14,0.13-0.25,0.27c-0.2,0.28-0.53,0.69-0.73,1.6c-0.09,0.45-0.1,1.03,0.03,1.6c0.13,0.58,0.41,1.1,0.69,1.47
					c0.57,0.74,1.02,1.01,1.26,1.21c0.34,0.29,0.56,0.5,0.85,0.76l-1.01-0.66c-0.28-0.2-0.78-0.47-1.38-1.25
					c-0.29-0.39-0.58-0.93-0.72-1.53c-0.15-0.59-0.15-1.19-0.07-1.66c0.17-0.95,0.48-1.42,0.67-1.73c0.21-0.33,0.27-0.36,0.38-0.52
					l1.25-1.55c0.78-0.91,1.55-1.82,2.36-2.68c0.5-0.54,0.99-1.07,1.46-1.63l0,0c1.47-1.72,2.85-3.59,4.42-5.49l-2.19,1.96
					c-0.44,0.26-0.72,0.33-0.86,0.26c-0.62-0.29,1.32-3.25,2.85-5.04l0.31-0.18c-0.65,1.03-1.35,2.04-1.23,2.64
					c1.39-1.53,1.16-1.99,1.84-2.99l0.9-0.06l2-1.34c-0.23,1.4,2.4-1.62,2.67-0.9c1.04-0.85,2.07-1.7,3.07-2.57
					c0.3-0.69,0.57-1.4,0.84-2.09C29.09,33.09,26.31,34.74,25.48,33.73"/>
				<path class="st10" d="M30.54,30.56c0.62,0.58,2.02,0.09,3.67-1.12c1.66-1.18,3.48-3.19,5.13-5.38c-1.65,2.19-3.46,4.2-5.13,5.38
					C32.56,30.65,31.17,31.14,30.54,30.56"/>
				<path class="st11" d="M22.11,38.35c-0.69,1-0.45,1.46-1.84,2.99C21.66,39.81,21.42,39.35,22.11,38.35"/>
				<path class="st3" d="M16.16,62.08c-0.74-0.54-1.45-1.11-2.14-1.69l-1.01-0.66c-0.28-0.2-0.78-0.47-1.38-1.25
					c-0.29-0.39-0.58-0.93-0.72-1.53c-0.15-0.59-0.15-1.19-0.07-1.66c0.17-0.95,0.48-1.42,0.67-1.73c0.21-0.33,0.27-0.36,0.38-0.52
					l1.25-1.55l0.03-0.2c-0.39,0.42-0.76,0.86-1.14,1.3c-0.2,0.24-0.35,0.39-0.6,0.71c-0.15,0.22-0.39,0.55-0.61,1.16
					c-0.22,0.58-0.42,1.63-0.11,2.73c-0.18-0.59-0.21-1.21-0.16-1.72c0.05-0.51,0.17-0.91,0.29-1.22c0.24-0.61,0.47-0.93,0.59-1.13
					l0.55-0.78c0.37-0.52,0.72-1.05,1.11-1.54c-0.58,0.46-1.11,1.11-1.66,1.78l-0.21,0.26c-0.06,0.07-0.15,0.18-0.3,0.44
					c-0.15,0.24-0.34,0.57-0.52,1.1c-0.17,0.52-0.34,1.3-0.21,2.23c0.11,0.92,0.58,1.84,1.04,2.39c0.46,0.56,0.87,0.86,1.16,1.07
					c0.29,0.2,0.5,0.32,0.57,0.36l0.3,0.18C14.2,61.14,15.17,61.62,16.16,62.08 M13.01,59.73c-0.28-0.2-0.78-0.47-1.38-1.25
					c-0.29-0.39-0.58-0.93-0.72-1.53c-0.15-0.59-0.15-1.19-0.07-1.66c0.17-0.95,0.48-1.42,0.67-1.73c0.21-0.33,0.27-0.36,0.38-0.52
					l1.25-1.55l-1.25,1.55c-0.12,0.15-0.17,0.19-0.38,0.52c-0.19,0.32-0.5,0.79-0.67,1.73c-0.08,0.47-0.08,1.07,0.07,1.66
					c0.14,0.59,0.43,1.14,0.72,1.53C12.24,59.26,12.73,59.53,13.01,59.73"/>
				<path class="st4" d="M13.01,59.73c-0.28-0.2-0.78-0.47-1.38-1.25c-0.29-0.39-0.58-0.93-0.72-1.53
					c-0.15-0.59-0.15-1.19-0.07-1.66c0.17-0.95,0.48-1.42,0.67-1.73c0.21-0.33,0.27-0.36,0.38-0.52l1.25-1.55l-1.25,1.55
					c-0.12,0.15-0.17,0.19-0.38,0.52c-0.19,0.32-0.5,0.79-0.67,1.73c-0.08,0.47-0.08,1.07,0.07,1.66c0.14,0.59,0.43,1.14,0.72,1.53
					C12.24,59.26,12.73,59.53,13.01,59.73"/>
				<polyline class="st3" points="21.77,38.26 22.11,38.35 21.49,38.7 21.77,38.26 				"/>
				<polyline class="st3" points="39.05,32.43 39.44,32.5 39.05,32.43 				"/>
				<path class="st12" d="M16.87,36.14c4.13-2.24,3.36,1.35,4.91,2.12l-0.29,0.44l-0.31,0.18c-1.54,1.79-3.47,4.75-2.85,5.04
					c0.14,0.07,0.41,0,0.86-0.26l2.19-1.96c-1.57,1.9-2.95,3.77-4.42,5.49c-0.47,0.55-0.96,1.09-1.46,1.63
					c-0.81,0.86-1.58,1.77-2.36,2.68l0.03-0.2c0.7-0.82,1.38-1.65,2.11-2.43c-0.76,0.53-1.51,1.31-2.26,2.18
					c-0.38,0.43-0.72,0.93-1.08,1.41l-0.54,0.76c-0.14,0.22-0.37,0.56-0.59,1.18c-0.22,0.58-0.43,1.67-0.09,2.8
					c-0.18-0.59-0.21-1.21-0.16-1.72c0.05-0.51,0.17-0.91,0.29-1.22c0.24-0.61,0.47-0.93,0.59-1.13l0.55-0.78
					c0.37-0.52,0.72-1.05,1.11-1.54c-0.58,0.46-1.11,1.11-1.66,1.78l-0.21,0.26c-0.06,0.07-0.15,0.18-0.3,0.44
					c-0.15,0.24-0.34,0.57-0.52,1.1c-0.17,0.52-0.34,1.3-0.21,2.23c0.11,0.92,0.58,1.84,1.04,2.39c0.46,0.56,0.87,0.86,1.16,1.07
					c0.29,0.2,0.5,0.32,0.57,0.36l0.3,0.18l-0.31-0.03c-0.11-0.01-0.18,0-0.4-0.08c0.18,0.15,0.21,0.21,0.28,0.3l0.19,0.25
					l0.39,0.49l0.82,0.97c-0.64-0.44-1.22-0.88-1.85-1.36c-0.25-0.2-0.82-0.48-1.63-1.39c-0.4-0.46-0.84-1.12-1.12-1.93
					s-0.36-1.7-0.28-2.41c0.18-1.44,0.66-2.11,0.91-2.53c0.3-0.45,0.35-0.44,0.49-0.6l0.43-1.51c-0.39,0.19-0.8,0.39-1.23,0.62
					c-0.23,0.14-0.42,0.2-0.7,0.42c-0.19,0.19-0.45,0.49-0.77,1.07c-0.3,0.56-0.73,1.47-0.82,2.9c-0.04,0.71,0.03,1.53,0.25,2.31
					c0.21,0.8,0.58,1.55,0.96,2.13c0.79,1.19,1.55,1.78,2.02,2.16l0.55,0.43c0.11,0.1,0.13,0.13,0.2,0.2l0.36,0.38
					c0.49,0.51,1.08,1.02,1.76,1.54c-0.46-0.32-0.88-0.66-1.3-0.99l-0.6-0.51l-0.29-0.26c-0.11-0.1-0.12-0.12-0.46-0.36
					c-0.3-0.22-0.77-0.54-1.4-1.15c-0.61-0.6-1.45-1.62-1.95-3.04c-0.52-1.41-0.53-2.98-0.3-4.05c0.23-1.08,0.58-1.77,0.84-2.24
					c0.27-0.46,0.5-0.76,0.62-0.88l0.28-0.25l0.55-0.51c1.47-1.38,3.05-2.81,4.85-4.73l-0.11-0.57l0.93-0.63
					c-1.47,0.39-3.55,2.27-4.91,2.7c0.9-0.76,1.82-1.46,2.73-2.16c-0.55-0.23-1.91,0.86-2.63,1.03c1.15-0.89,2.1-1.15,3.03-1.45
					c0.92-0.32,1.81-0.71,2.84-1.86l0.09-0.11l0.15-0.16c3.69-3.96,2.35-5.2-0.22-4.53l0.91-0.6
					C18.54,36.07,16.83,36.83,16.87,36.14"/>
				<path class="st13" d="M18.33,43.92c0.14,0.07,0.41,0,0.86-0.26l2.19-1.96l-2.19,1.96C18.74,43.91,18.47,43.98,18.33,43.92"/>
				<path class="st13" d="M21.38,41.69c-1.57,1.9-2.95,3.77-4.42,5.49C18.43,45.46,19.8,43.6,21.38,41.69"/>
				<path class="st14" d="M10.7,57.18c-0.18-0.59-0.21-1.21-0.16-1.72c0.05-0.51,0.17-0.91,0.29-1.22c0.24-0.61,0.47-0.93,0.59-1.13
					l0.55-0.78c0.37-0.52,0.72-1.05,1.11-1.54c-0.39,0.49-0.74,1.03-1.11,1.54l-0.55,0.78c-0.12,0.19-0.35,0.52-0.59,1.13
					c-0.12,0.31-0.24,0.71-0.29,1.22S10.52,56.59,10.7,57.18"/>
				<polyline class="st14" points="13.16,51.29 13.13,51.49 13.16,51.29 				"/>
				<path class="st12" d="M19.45,61.42c0.24,0.05,0.49,0.09,0.73,0.13c0.33-0.01,0.64-0.01,0.97-0.03
					c-0.35-0.12-0.68-0.27-1.02-0.41c0.34,0.13,0.68,0.28,1.02,0.41l0.28-0.34c-0.77-0.39-1.51-0.83-2.22-1.27
					c0.43,0.2,0.85,0.41,1.29,0.59c-0.63-0.38-1.23-0.79-1.81-1.21c0.76,0.43,1.56,0.81,2.37,1.18l0.07-0.24l-0.78-0.44
					c-1.92-0.82-3.95-1.76-5.44-2.94c0.8,0.37,1.58,0.74,2.38,1.1c1.68,0.78,3.43,1.51,5.35,1.99l0.69,0.05
					c-2.45-0.76-5.07-1.99-6.4-3.39c0.16,0.08,0.32,0.15,0.48,0.22c1.53,0.72,2.8,1.42,4.14,2.04c1.34,0.61,2.78,1.12,4.54,1.24
					l0.28,0.02c-0.83-0.27-1.88-0.59-2.88-0.99c-1.01-0.4-1.97-0.89-2.66-1.35c2.31,1.18,4.66,2.09,7.23,2.49l0.34-0.01
					c0.74-0.01,1.47-0.06,2.08-0.12l0.87-0.08l-0.83-0.37c-2.41-1.07-4.55-2.11-6.48-3.38c0.98,0.81,2.05,1.55,3.16,2.24
					c-1.11-0.7-2.18-1.44-3.16-2.24c-0.98-0.67-1.87-1.4-2.64-2.21c-0.38-0.4-0.73-0.82-1.05-1.25c-0.3-0.44-0.63-0.91-0.77-1.28
					c-0.16-0.4-0.12-0.59-0.03-0.72c0.04-0.08,0.12-0.23,0.27-0.47c0.13-0.21,0.28-0.41,0.43-0.61c0.6-0.79,1.25-1.51,1.95-2.14
					c-0.85,0.53-1.7,1.2-2.53,2.02c0.3-1.03,0.89-2.07,1.59-3s1.5-1.75,2.23-2.53c-1.34,0.93-2.56,1.93-3.68,3.12
					c-0.56,0.59-1.09,1.24-1.57,1.93c-0.24,0.36-0.47,0.69-0.62,1.17c-0.16,0.47-0.15,1.04,0,1.52c-0.15-0.48-0.16-1.05,0-1.52
					c0.15-0.48,0.38-0.81,0.62-1.17c0.49-0.7,1.02-1.34,1.57-1.93c1.12-1.19,2.34-2.19,3.68-3.12l0.47-0.46
					c-1.22,0.45-2.56,1.38-3.79,2.54c-0.62,0.58-1.21,1.22-1.76,1.88c-0.28,0.33-0.54,0.67-0.8,1.01c-0.13,0.17-0.25,0.34-0.36,0.52
					c-0.12,0.19-0.23,0.42-0.32,0.68c0.21-0.76,0.5-1.1,0.82-1.56c0.31-0.43,0.64-0.84,0.99-1.23c0.69-0.8,1.42-1.56,2.26-2.46
					c-0.2,0.12-0.4,0.25-0.6,0.38c-0.25,0.26-0.48,0.53-0.72,0.81c0.23-0.27,0.47-0.55,0.72-0.81c1.59-1.71,3.24-2.69,4.83-3.43
					c0.51-0.6,1.13-1.19,1.86-1.62c0.73-0.43,1.59-0.67,2.43-0.57c0.81,0.1,1.54,0.47,2.17,0.99c0.32,0.28,0.63,0.57,0.93,0.88
					c-0.6-0.76-1.26-1.48-2.07-2.01c0.27,0.19,0.52,0.41,0.75,0.64c-0.5-0.48-1.07-0.88-1.72-1.15c-0.63-0.26-1.32-0.37-1.98-0.35
					c-1.23-0.07-2.41,0.19-3.59,0.59c1.29-0.74,2.67-1.32,4.18-1.36c-0.41-0.1-0.82-0.15-1.22-0.17c-2.21,0.43-3.99,1.5-5.58,2.22
					c1.39-1.16,2.86-2.19,4.48-2.82c0.92-0.56,1.95-0.97,3.03-1.12c-0.14-0.29-0.29-0.58-0.44-0.86c-1.01-0.33-2.38-0.38-3.91,0.06
					c-1.53,0.42-3.27,1.35-4.98,2.75c-0.2,0.16-0.4,0.34-0.61,0.52l0.58,0.49c-0.41,0.12-0.82,0.27-1.24,0.43
					c-0.47,0.7-0.91,1.4-1.3,2.12c-0.54,0.55-1.06,1.13-1.56,1.74c-0.43,1.34-1.23,2.76-1.99,4.36l-0.12,0.29
					c-0.05,0.13-0.13,0.33-0.19,0.52c-0.13,0.38-0.25,0.83-0.33,1.35c-0.18,1.05-0.07,2.28,0.19,3.17c0.54,1.83,1.31,2.78,1.77,3.43
					c-0.22-0.39-0.51-0.92-0.81-1.58c0.89,0.86,1.46,1.34,2.1,2.06c0.93,1.03,1.89,2.16,2.8,2.92c0.61,0.63,1.25,1.22,1.9,1.77
					c0.07,0.04,0.13,0.07,0.2,0.1l-0.1-0.02l0.07,0.06c1.01,0.63,2.01,1.18,3,1.67l1.46,0.94L26.14,65l-0.77-0.58l-0.99-0.58
					l0.76,0.64c-0.55-0.31-1.11-0.64-1.67-0.99c1.1,0.74,2.19,1.41,3.24,2.04l1.1,0.58l-0.34-0.07l0.56,0.39l1.14-13.38l-0.53-0.15
					c-0.63-0.11-1.25-0.27-1.88-0.48c-0.44,0.02-0.9,0.03-1.37,0c0.41,0,0.8-0.02,1.17-0.07c0.21-0.01,0.4-0.05,0.6-0.08
					c-0.64-0.06-1.31-0.17-2.01-0.35l0.15-0.23c-0.8-0.29-1.84-0.65-2.94-1.13l-0.11-0.04c-0.65-0.17-1.32-0.4-1.99-0.66
					c0.61,0.19,1.22,0.35,1.81,0.48l0.06-0.46c-0.55-0.19-1.12-0.39-1.7-0.59c-0.3-0.1-0.6-0.23-0.9-0.36l-0.11-0.05l-0.06-0.03
					l-0.03-0.01l-0.01-0.01l-1.25,2.25l-1.52,2.67l-0.52,0.87c-0.26,0.41-0.41,0.62-0.54,0.79c-0.48,0.63-0.65,0.45-0.39,0.48
					c0.14,0.01,0.37,0.07,0.77,0.26c0.22,0.1,0.48,0.24,0.89,0.48l0.94,0.57l2.14,1.37l2.29,1.49l0.01-0.01l0.01-0.01l0.02-0.03
					l0.04-0.05l0.08-0.1l0.17-0.21l-0.24,0.17c0.39-0.58,0.73-1.17,1.16-1.75c0.55-1.09,1.14-2.17,1.74-3.25
					c-0.31,0.18-0.63,0.37-0.92,0.56c0.3-0.19,0.61-0.37,0.92-0.56c2.16-3.86,4.46-7.62,5.69-10.86c-1.45,1.91-2.85,3.78-3.86,5.51
					c-1.67,2.44-3.37,4.68-5.05,6.92l-0.56,0.74c0.4-0.99,0.82-2,1.31-3.01l-0.1,0.12c0.08-0.26,0.16-0.53,0.25-0.79
					c-0.06,0.22-0.11,0.45-0.16,0.67c3.14-3.82,5.18-7.36,8.58-10.94l-0.42,0.78c1.8-2.27,3.64-4.6,5.39-7.05
					c0.41-1.13,0.81-2.25,1.16-3.39c-0.61,0.71-1.24,1.4-1.87,2.07l0.83-1.35c0.08-0.23,0.54-1.01,0.5-1.16
					c-0.08-0.21-0.86,0.75-4.65,4.84l-1.92,2.17c1.96-2.6,3.59-5.06,4.53-7.36c-0.57,0.48-1.16,0.94-1.73,1.4
					c-1.33,1.84-2.87,3.61-4.5,5.3c-1.08,1.12-2.21,2.2-3.34,3.24c-3.42,3.13-6.91,5.97-9.95,8.56c-0.54,0.47-1.16,1.1-1.76,1.86
					c-0.15,0.19-0.31,0.38-0.47,0.58l-0.24,0.3c-0.1,0.14-0.24,0.34-0.38,0.65s-0.31,0.78-0.28,1.43c0.02,0.65,0.35,1.35,0.69,1.73
					c0.34,0.39,0.63,0.58,0.84,0.72l0.42,0.26l0.32,0.17l-0.42-0.37c-0.13-0.12-0.42-0.31-0.79-0.71c0.29,0.3,0.53,0.45,0.69,0.56
					l0.35,0.25l0.67,0.47c-0.33-0.32-0.58-0.61-0.95-0.97c-0.22-0.22-0.68-0.54-1.01-1.32c-0.15-0.38-0.18-0.83-0.12-1.18
					c0.06-0.34,0.19-0.6,0.3-0.77c-0.13,0.24-0.29,0.59-0.3,1.09s0.22,1.05,0.47,1.37c0.54,0.65,0.86,0.78,1.02,0.96
					c0.41,0.36,0.83,0.71,1.27,1.05l0.53,0.15c-0.37-0.26-0.73-0.55-1.09-0.82L13.8,57.8l1.35,1.01c0.42,0.29,0.83,0.59,1.27,0.87
					l0.74,0.11C17.88,60.36,18.64,60.91,19.45,61.42 M18.37,53.18c-0.33-0.58-0.61-1.26-0.59-1.96c0.02-0.72,0.4-1.26,0.79-1.76
					c0.8-1.01,1.67-1.98,2.71-3.06c-1.04,1.08-1.9,2.06-2.71,3.06c-0.39,0.5-0.77,1.04-0.79,1.76
					C17.76,51.92,18.04,52.59,18.37,53.18c0.18,0.31,0.36,0.62,0.56,0.92l0.45,0.55l-0.45-0.55C18.74,53.79,18.55,53.49,18.37,53.18
					l0.23,0.05c0.53,0.77,1.15,1.47,1.82,2.12c-0.67-0.65-1.29-1.35-1.82-2.12L18.37,53.18 M30.19,59.59
					c0.07-0.01,0.14-0.02,0.2-0.02l-0.06,0.66c-2.08-0.87-3.23-2.06-5.08-3.01c1.85,0.96,3,2.14,5.08,3.01l0.06-0.66
					C30.33,59.57,30.26,59.58,30.19,59.59 M28.22,59.81l-0.17,0.01c-0.55,0-1.1-0.05-1.65-0.1c0.55,0.05,1.1,0.1,1.65,0.1
					L28.22,59.81c0.79,0.04,1.51,0.05,2.22,0.05l-0.01,0.09c-0.95-0.54-1.86-1.07-2.95-1.62c1.09,0.54,1.99,1.08,2.95,1.62
					l0.01-0.09C29.73,59.86,29.01,59.85,28.22,59.81 M19.82,54.46c0.29,0.2,0.56,0.41,0.86,0.59
					C20.38,54.87,20.11,54.65,19.82,54.46 M27.51,43.63l2.71-3.5L27.51,43.63 M27.51,43.63l2.71-3.5L27.51,43.63 M27.51,43.63
					l-0.43,0.52l-0.4,0.55l-0.43,0.52l-0.37,0.52l-0.04,0.05l-0.4,0.49l-0.39,0.55l-0.42,0.52l-0.38,0.55l-0.38,0.55l-0.3,0.4
					l-0.36,0.55l-0.36,0.55l-0.36,0.55l-0.25,0.43l-0.34,0.56l-0.2,0.46c1.49-1.98,2.7-3.8,3.93-5.63l0.14-0.19l0.1-0.15l0.46-0.67
					l0.11-0.16l0.39-0.55l0.21-0.32L27.51,43.63 M35.47,35.63c-0.2,0.23-0.41,0.45-0.61,0.69c-0.14,0.16-0.28,0.32-0.42,0.48
					l-0.47,0.51l-0.43,0.54l-0.55,0.66l-0.24,0.34c-0.22,0.3-0.44,0.6-0.67,0.91l-0.01,0.01l-0.4,0.56l0.4-0.56l-0.4,0.56l0.4-0.56
					l0,0c-0.14,0.19-0.27,0.37-0.41,0.57c0.16-0.23,0.34-0.48,0.53-0.72l0.31-0.38l0.55-0.66l0.17-0.21
					c0.17-0.2,0.35-0.41,0.52-0.61l0.32-0.35l0.31-0.39C34.78,36.56,35.15,36.09,35.47,35.63 M19.53,39.1l0.08,0.13
					c0.28-0.18,0.56-0.34,0.85-0.51C20.15,38.84,19.84,38.96,19.53,39.1"/>
				<path class="st2" d="M27.51,43.63c-0.54,0.7-1.09,1.4-1.63,2.11l0.37-0.52l0.43-0.52l0.4-0.55L27.51,43.63"/>
				<path class="st2" d="M27.04,44.29l-0.21,0.32l-0.39,0.55l-0.11,0.16C26.56,44.98,26.8,44.63,27.04,44.29"/>
				<path class="st2" d="M25.84,45.78c-1.62,2.1-3.12,4.21-4.13,6.18l0.2-0.46l0.34-0.56l0.25-0.43l0.36-0.55l0.36-0.55l0.36-0.55
					l0.3-0.4l0.38-0.55l0.38-0.55l0.42-0.52l0.39-0.55L25.84,45.78"/>
				<polyline class="st2" points="25.87,45.99 25.77,46.14 25.64,46.33 25.87,45.99 				"/>
				<path class="st15" d="M20.94,61.77l-0.1-0.02l-0.1-0.09C20.81,61.7,20.88,61.74,20.94,61.77"/>
				<path class="st14" d="M24.17,55.41c0.3-0.19,0.61-0.37,0.92-0.56C24.78,55.04,24.47,55.22,24.17,55.41"/>
				<path class="st14" d="M31.3,40.3c-0.24-0.23-0.48-0.45-0.75-0.64C30.82,39.85,31.07,40.07,31.3,40.3"/>
				<path class="st14" d="M28.19,38.04c-1.51,0.04-2.89,0.62-4.18,1.36C25.3,38.66,26.68,38.07,28.19,38.04"/>
				<path class="st14" d="M21.38,40.09c1.39-1.16,2.86-2.19,4.48-2.82C24.24,37.9,22.77,38.93,21.38,40.09"/>
				<polyline class="st16" points="27.51,43.63 27.08,44.14 26.68,44.69 26.25,45.21 25.88,45.73 26.25,45.21 26.68,44.69 
					27.08,44.14 27.51,43.63 				"/>
				<polyline class="st16" points="27.04,44.29 26.83,44.61 26.44,45.16 26.33,45.32 26.44,45.16 26.83,44.61 27.04,44.29 				"/>
				<polyline class="st16" points="25.84,45.78 25.43,46.28 25.05,46.83 24.63,47.34 24.25,47.9 23.88,48.45 23.58,48.84 
					23.21,49.4 22.85,49.95 22.49,50.5 22.25,50.94 21.91,51.5 21.71,51.96 21.91,51.5 22.25,50.94 22.49,50.5 22.85,49.95 
					23.21,49.4 23.58,48.84 23.88,48.45 24.25,47.9 24.63,47.34 25.05,46.83 25.43,46.28 25.84,45.78 				"/>
				<polyline class="st16" points="25.87,45.99 25.77,46.14 25.64,46.33 25.77,46.14 25.87,45.99 				"/>
				<polyline class="st16" points="30.22,40.13 27.51,43.63 30.22,40.13 				"/>
				<polyline class="st16" points="30.22,40.13 27.51,43.63 30.22,40.13 				"/>
				<path class="st13" d="M14.04,58.81l-0.42-0.26c-0.2-0.14-0.5-0.33-0.84-0.72c-0.34-0.38-0.68-1.08-0.69-1.73
					c-0.03-0.66,0.14-1.12,0.28-1.43c0.15-0.31,0.28-0.51,0.38-0.65l0.24-0.3c0.16-0.2,0.32-0.39,0.47-0.58
					c0.61-0.76,1.23-1.39,1.76-1.86c3.04-2.59,6.54-5.43,9.95-8.56c-3.42,3.13-6.91,5.97-9.95,8.56c-0.54,0.47-1.16,1.1-1.76,1.86
					c-0.15,0.19-0.31,0.38-0.47,0.58l-0.24,0.3c-0.1,0.14-0.24,0.34-0.38,0.65s-0.31,0.78-0.28,1.43c0.02,0.65,0.35,1.35,0.69,1.73
					c0.34,0.39,0.63,0.58,0.84,0.72L14.04,58.81"/>
				<path class="st13" d="M33.02,34.17c-1.33,1.84-2.87,3.61-4.5,5.3C30.16,37.79,31.69,36.01,33.02,34.17"/>
				<path class="st2" d="M33.97,37.31l0.47-0.51c-0.57,0.66-1.13,1.35-1.68,2.06L33,38.52l0.55-0.66L33.97,37.31"/>
				<polyline class="st2" points="34.39,37.02 34.08,37.41 33.76,37.76 34.39,37.02 				"/>
				<path class="st2" d="M33.24,38.37l-0.17,0.21l-0.55,0.66l-0.31,0.38C32.52,39.21,32.87,38.8,33.24,38.37"/>
				<polyline class="st2" points="32.09,39.77 32.08,39.78 32.08,39.78 32.09,39.77 				"/>
				<polyline class="st3" points="38.69,32.82 38.51,33.14 38.69,32.82 				"/>
				<path class="st8" d="M37.34,33.56c2.97-3.27,5.66-6.62,8.06-9.85l-0.79,2.43l0.1-0.33c-0.33,0.44-0.73,1.03-1.16,1.68
					c-0.22,0.33-0.45,0.68-0.68,1.03c-0.7,1.06-1.49,2.18-2.26,3.07c-0.38,0.31-0.79,0.61-1.18,0.91l-0.04-0.03l-0.35-0.04
					l0.41-1.03l-0.77,1.42l-0.18,0.31c-0.75,1.29-1.53,2.57-2.33,3.81C36.59,35.82,36.98,34.7,37.34,33.56"/>
				<path class="st17" d="M43.55,27.49c0.43-0.65,0.82-1.24,1.16-1.68C44.38,26.25,43.99,26.83,43.55,27.49
					c-0.22,0.33-0.45,0.68-0.68,1.03C43.11,28.16,43.34,27.82,43.55,27.49"/>
				<polyline class="st17" points="44.71,25.81 44.61,26.14 44.71,25.81 				"/>
				<polyline class="st18" points="39.05,32.43 39.4,32.47 39.44,32.5 39.05,32.43 				"/>
				<path class="st17" d="M37.34,33.56c-0.36,1.14-0.75,2.26-1.16,3.39C36.59,35.82,36.98,34.7,37.34,33.56"/>
				<path class="st8" d="M35.28,30.97c1.58-1.92,3.61-4.39,5.32-6.48c-0.19,1.19-0.65,2.7-1.24,4.3s-1.36,3.28-2.02,4.76
					c-0.61,0.71-1.24,1.4-1.87,2.07l0.83-1.35c0.08-0.23,0.54-1.01,0.5-1.16c-0.08-0.21-0.86,0.75-4.65,4.84l-1.92,2.17
					c1.96-2.6,3.59-5.06,4.53-7.36c-0.57,0.48-1.16,0.94-1.73,1.4l0.77-1.12c0.28-0.46,0.63-0.98,1.05-1.53
					C34.99,31.35,35.13,31.16,35.28,30.97"/>
				<path class="st17" d="M34.75,32.77c-0.94,2.3-2.58,4.76-4.53,7.36C32.18,37.53,33.81,35.07,34.75,32.77"/>
				<path class="st17" d="M36.8,33.12c0.04,0.15-0.42,0.93-0.5,1.16l-0.83,1.35l0.83-1.35C36.37,34.05,36.84,33.27,36.8,33.12"/>
				<path class="st19" d="M28.95,36.83c0.95-1,1.89-2.01,2.82-3.03c1.37-1.54,2.72-3.09,3.96-4.71c1.25-1.61,2.42-3.32,3.61-5.04
					c0.79-1,1.54-2.03,2.27-3.08l5.8-0.25c1.78-0.42,3.45-0.6,4.95-0.37c-0.68,1.34-6.36,1.92-6.94,3.35
					c-2.41,3.22-5.09,6.57-8.06,9.85c0.66-1.49,1.43-3.17,2.02-4.76c0.59-1.6,1.05-3.11,1.24-4.3c-1.71,2.08-3.74,4.55-5.32,6.48
					l0,0c-0.15,0.19-0.3,0.37-0.44,0.56c-0.43,0.55-0.77,1.07-1.05,1.53l-0.77,1.12c-1.14,0.92-2.29,1.98-3.46,3.12
					c-1.18,1.14-2.37,2.35-3.59,3.6l-0.61,0.63c-0.66,0.67-1.32,1.35-1.98,2.03l-2.07,2.08l-0.68,0.07
					C23.32,42.61,26.18,39.74,28.95,36.83"/>
				<path class="st14" d="M28.95,36.83c-2.77,2.9-5.62,5.78-8.32,8.86C23.32,42.61,26.18,39.74,28.95,36.83"/>
				<path class="st14" d="M31.77,33.81c1.37-1.54,2.72-3.09,3.96-4.71c1.25-1.61,2.42-3.32,3.61-5.04
					c-1.19,1.72-2.35,3.43-3.61,5.04C34.49,30.72,33.14,32.27,31.77,33.81"/>
				<path class="st14" d="M23.38,43.55c0.66-0.68,1.32-1.35,1.98-2.03l0.61-0.63c1.22-1.25,2.41-2.47,3.59-3.6
					c-1.18,1.14-2.37,2.35-3.59,3.6l-0.61,0.63C24.7,42.19,24.04,42.87,23.38,43.55"/>
				<path class="st20" d="M35.28,30.97L35.28,30.97c-0.15,0.19-0.3,0.37-0.44,0.56C34.99,31.35,35.13,31.16,35.28,30.97"/>
				<path class="st20" d="M40.6,24.49c-0.19,1.19-0.65,2.7-1.24,4.3s-1.36,3.28-2.02,4.76c0.66-1.49,1.43-3.17,2.02-4.76
					C39.96,27.19,40.41,25.68,40.6,24.49"/>
				<path class="st3" d="M39.33,24.06c0.97-1.38,7.02-1.97,8.07-3.33l-5.8,0.25C40.87,22.03,40.12,23.06,39.33,24.06"/>
				<path class="st18" d="M39.33,24.06c0.97-1.38,7.02-1.97,8.07-3.33C46.35,22.09,40.3,22.68,39.33,24.06"/>
			</g>
		</g>
	</g>
</g>
<g>
	<g>
		<g>
			<g class="st1">
				<path class="st2" d="M33.7,11.06c0.99-0.69,2.03-1.29,3.15-1.79l0.54-1.03c-0.05,0.67-0.11,1.33-0.18,1.99
					c0,1.74,0.06,3.67-0.02,5.52c-0.02,0.52-0.05,1.04-0.07,1.55c-0.03,0.6-0.07,1.19-0.13,1.74c-0.13,1.1-5.37,1.28-5.67,2.07
					c0.1-0.99,5.11-1.43,5.01-2.6c-0.04-0.39-0.07-0.78-0.11-1.15c-0.08-0.81-0.12-1.2-0.15-1.64l0.13,0.23
					c-0.31-0.58-0.62-1.16-0.94-1.72l-0.24-1.81l0.24,1.81C34.77,13.14,34.25,12.09,33.7,11.06"/>
				<path class="st2" d="M37.85,33.94l-0.06-0.06l0.52-0.02c0.92,0.34,1.83,0.68,2.74,1.01l-9.45,7.19c-0.3-0.47-0.63-0.91-1-1.29
					c-0.64-0.8-1.25-1.6-1.83-2.42l-5.97-8.4l10.49-2.7c0.73-0.19,1.48-0.4,2.23-0.49c0.6-0.09,1.21-0.16,1.82-0.17
					c-1.2,0.33-2.36,0.79-3.47,1.33L33.53,28l-0.04,0.01l-8.79,2.05l4.74,7.89c0.85,1.42,1.86,2.6,2.62,3.98l8.75-6.66
					C39.82,34.86,38.83,34.44,37.85,33.94"/>
				<path class="st3" d="M36.81,24.38c3.04-0.6,6.38-0.54,9.69,0.27l-0.14,0.43c-1.79-0.5-3.73-0.64-5.66-0.79
					c-0.53-0.05-1.06-0.09-1.6-0.13l0.38,0.1C38.59,24.24,37.7,24.28,36.81,24.38"/>
				<path class="st3" d="M43.57,25.12c0.94,0.1,1.89,0.23,2.84,0.44l0.33,0.21l-1.58-0.38L43.57,25.12"/>
				<polyline class="st3" points="33.21,41.5 32.89,41.16 33.32,41.51 33.21,41.5 				"/>
				<path class="st3" d="M40.96,41.66c-0.1-0.12-0.21-0.24-0.33-0.35C40.75,41.42,40.86,41.54,40.96,41.66"/>
				<polyline class="st3" points="40.63,41.31 40.57,41.3 40.63,41.31 				"/>
				<path class="st3" d="M57.24,38.37c-0.04-0.31-0.09-0.62-0.16-0.93C57.15,37.74,57.2,38.06,57.24,38.37"/>
				<polyline class="st3" points="42.99,41.36 42.94,41.22 42.99,41.36 				"/>
				<path class="st3" d="M20.7,25.44c-0.18,0.13-0.14,0.1-0.18,0.13l-3.8,11.64l0.24,0.04l-0.24-0.04l3.8-11.64
					C20.56,25.55,20.52,25.58,20.7,25.44"/>
				<polyline class="st3" points="32.89,41.16 32.3,40.4 32.89,41.16 				"/>
				<path class="st3" d="M57.08,35.68c-0.21-0.43-0.43-0.85-0.66-1.27l0.59,1.08L57.08,35.68"/>
				<path class="st3" d="M57.55,39.95c-0.06-0.52-0.18-1.05-0.31-1.59c0.1,0.35,0.2,0.7,0.28,1.05L57.55,39.95"/>
				<path class="st3" d="M51.62,29.38c0.63,0.34,1.27,0.69,1.88,1.12l0.27,0.3l-0.27-0.3l0.27,0.3l-0.03,0.04l-1.04-0.78
					L51.62,29.38"/>
				<path class="st3" d="M57.79,38.12c-0.16-0.81-0.42-1.62-0.71-2.44c-0.21-0.43-0.43-0.85-0.66-1.27l0.59,1.08
					C56,33,54.24,30.54,51.87,28.65c-0.16-0.01-0.31-0.02-0.47-0.01c0.54,0.39,1.07,0.8,1.58,1.22c0.5,0.45,1.01,0.9,1.48,1.39
					c-0.31-0.27-0.65-0.49-0.97-0.73l0.27,0.3c0.19,0.19,0.38,0.37,0.56,0.58c-0.19-0.2-0.39-0.37-0.59-0.54
					c0.9,1.01,1.69,2.13,2.37,3.3c-0.24-0.49-0.49-0.99-0.75-1.49c0.35,0.6,0.69,1.2,0.99,1.81c-0.07-0.11-0.15-0.22-0.24-0.33
					c0.26,0.56,0.47,1.15,0.68,1.72C57.17,36.61,57.52,37.36,57.79,38.12 M56.34,34.46l0.23,0.34L56.34,34.46"/>
				<polyline class="st4" points="57.02,35.48 56.42,34.41 57.02,35.48 				"/>
				<polyline class="st4" points="53.77,30.8 53.5,30.5 53.77,30.8 				"/>
				<path class="st3" d="M58.14,42.4c-0.02-0.27-0.06-0.54-0.1-0.82c-0.06-0.39-0.09-0.77-0.19-1.18c-0.15-1.22-0.42-2.49-0.86-3.77
					c-0.06-0.25-0.12-0.51-0.21-0.77c0.38,0.75,0.74,1.5,1.01,2.26C58.11,39.62,58.17,41.06,58.14,42.4"/>
				<path class="st3" d="M54.33,31.38c-0.19-0.2-0.39-0.37-0.59-0.54l0.03-0.04C53.96,30.99,54.15,31.17,54.33,31.38"/>
				<path class="st4" d="M54.33,31.38c-0.19-0.2-0.39-0.37-0.59-0.54C53.94,31.02,54.14,31.18,54.33,31.38"/>
				<path class="st3" d="M58.16,42.72l-0.1-0.62l-0.02-0.52c0.04,0.28,0.08,0.56,0.1,0.82L58.16,42.72"/>
				<polyline class="st3" points="58.06,42.25 58.06,42.1 58.06,42.25 				"/>
				<path class="st3" d="M58,41.81c-0.13-0.61-0.26-1.23-0.46-1.86c0.11,0.32,0.24,0.66,0.32,0.98L58,41.81"/>
				<polyline class="st4" points="53.77,30.8 53.5,30.5 53.77,30.8 				"/>
				<path class="st3" d="M58.06,42.25c-0.01-0.14-0.04-0.29-0.06-0.44C58.02,41.96,58.05,42.11,58.06,42.25"/>
				<path class="st3" d="M58.06,42.1L58,41.81l-0.14-0.88c0.01-0.17,0-0.35-0.01-0.53c0.09,0.4,0.13,0.79,0.19,1.18
					c-0.06-0.39-0.09-0.77-0.19-1.18c0.09,0.4,0.13,0.79,0.19,1.18L58.06,42.1"/>
				<path class="st4" d="M58.06,42.25c-0.01-0.14-0.04-0.29-0.06-0.44l0.06,0.28V42.25"/>
				<polyline class="st4" points="58,41.81 57.87,40.93 58,41.81 				"/>
				<path class="st4" d="M58.04,41.58c-0.06-0.39-0.09-0.77-0.19-1.18C57.95,40.8,57.98,41.18,58.04,41.58"/>
				<path class="st3" d="M57.87,40.93c-0.08-0.32-0.21-0.65-0.32-0.98l-0.03-0.54C57.64,39.92,57.78,40.43,57.87,40.93"/>
				<polyline class="st4" points="57.55,39.95 57.52,39.41 57.55,39.95 				"/>
				<path class="st4" d="M57.87,40.93c-0.08-0.32-0.21-0.65-0.32-0.98C57.66,40.28,57.78,40.61,57.87,40.93"/>
				<path class="st3" d="M57.87,40.93c-0.09-0.5-0.23-1.01-0.35-1.52c-0.01-0.31-0.04-0.62-0.07-0.94c0.16,0.6,0.26,1.18,0.35,1.76
					l0.06,0.16C57.87,40.58,57.87,40.76,57.87,40.93"/>
				<path class="st4" d="M57.87,40.93c-0.09-0.5-0.23-1.01-0.35-1.52C57.64,39.92,57.78,40.43,57.87,40.93"/>
				<polyline class="st4" points="56.57,34.8 56.34,34.46 56.57,34.8 				"/>
				<path class="st3" d="M56.34,34.46c-0.07-0.11-0.15-0.22-0.24-0.33c-0.24-0.49-0.49-0.99-0.75-1.49
					C55.7,33.26,56.05,33.85,56.34,34.46"/>
				<path class="st4" d="M56.34,34.46c-0.07-0.11-0.15-0.22-0.24-0.33C56.19,34.24,56.27,34.35,56.34,34.46"/>
				<path class="st4" d="M56.1,34.14c-0.24-0.49-0.49-0.99-0.75-1.49C55.62,33.15,55.87,33.64,56.1,34.14"/>
				<path class="st3" d="M56.99,36.63c-0.13-0.36-0.29-0.72-0.47-1.08l0.26,0.31C56.88,36.12,56.93,36.38,56.99,36.63"/>
				<path class="st3" d="M57.86,40.4l-0.06-0.16c-0.14-1.16-0.4-2.39-0.81-3.6C57.44,37.9,57.7,39.18,57.86,40.4"/>
				<polyline class="st4" points="57.86,40.4 57.8,40.23 57.86,40.4 57.8,40.23 57.86,40.4 				"/>
				<polyline class="st5" points="57.86,40.4 57.8,40.23 57.86,40.4 				"/>
				<path class="st3" d="M43.96,38.24c-0.32-0.36-0.69-0.68-1.07-1.01l0.66,0.5l0.6,0.54L43.96,38.24"/>
				<path class="st3" d="M43.31,38.16c-0.28-0.4-0.59-0.81-0.94-1.19c0.49,0.38,0.92,0.81,1.3,1.25
					C43.55,38.2,43.44,38.16,43.31,38.16"/>
				<path class="st3" d="M41.91,39.29c-1.02-0.38-2.01-0.57-2.9-1.04c0.52,0.07,1.03,0.19,1.53,0.34l-0.08-0.01
					C40.97,38.77,41.46,39.02,41.91,39.29"/>
				<path class="st3" d="M41.91,39.29c-0.45-0.27-0.94-0.52-1.45-0.71l0.08,0.01C41.02,38.79,41.49,39.03,41.91,39.29"/>
				<path class="st4" d="M41.91,39.29c-0.45-0.27-0.94-0.52-1.45-0.71C40.97,38.77,41.46,39.02,41.91,39.29"/>
				<path class="st3" d="M42.96,38.07c-0.11-0.13-0.21-0.27-0.33-0.4l0.68,0.48L42.96,38.07"/>
				<polyline class="st3" points="46.08,39.75 45.75,39.34 46.08,39.75 				"/>
				<path class="st6" d="M52.86,60.65c0.28,0.12,0.59,0.19,0.9,0.23c0.46-0.01,0.91-0.11,1.29-0.31c-0.99,0-1.73-0.54-2.19-1.14
					c-0.48-0.62-0.7-1.37-0.79-2.12c-0.04,0.17-0.06,0.34-0.08,0.52c-0.22-0.85-0.09-1.58,0.03-2.24c0.13-0.66,0.29-1.29,0.37-1.98
					c-0.3,0.98-0.58,2.06-0.72,3.26c-0.06,0.6-0.05,1.25,0.13,1.91C52,59.46,52.35,60.1,52.86,60.65"/>
				<polyline class="st3" points="52,51.18 52.06,50.72 52,51.18 				"/>
				<path class="st3" d="M52.07,57.3c-0.03-0.24-0.04-0.47-0.05-0.7C52.03,56.83,52.04,57.07,52.07,57.3"/>
				<polyline class="st3" points="51.83,51.87 52,51.18 51.83,51.87 				"/>
				<path class="st3" d="M46.84,38.63l-0.39-0.46c-0.1-0.2-0.21-0.39-0.32-0.6c0.29,0.31,0.54,0.65,0.77,0.98L46.84,38.63"/>
				<polyline class="st3" points="46.78,38.7 46.46,38.17 46.84,38.63 46.78,38.7 				"/>
				<path class="st3" d="M46.49,39.31l-0.22-0.45c-0.15-0.4-0.38-0.74-0.6-1.14c0.34,0.38,0.67,0.76,0.94,1.17L46.49,39.31"/>
				<polyline class="st3" points="46.45,39.34 46.27,38.86 46.49,39.31 46.45,39.34 				"/>
				<path class="st3" d="M46.42,39.51c-0.2-0.4-0.39-0.84-0.66-1.23c0.18,0.19,0.36,0.37,0.51,0.58l0.19,0.48L46.42,39.51"/>
				<path class="st6" d="M46.91,38.55c-0.23-0.34-0.48-0.67-0.77-0.98c0.11,0.2,0.22,0.4,0.32,0.6c-0.77-0.8-1.92-1.5-2.93-2.13
					c0.62,0.13,1.2,0.37,1.75,0.67c0.95,0.51,1.74,1.25,2.45,2.01C47.46,38.65,47.19,38.58,46.91,38.55"/>
				<path class="st7" d="M46.91,38.55c-0.23-0.34-0.48-0.67-0.77-0.98C46.43,37.88,46.68,38.21,46.91,38.55"/>
				<path class="st3" d="M48.17,39.02c-0.82-1.39-2.28-2.55-3.15-3.65c0.12,0.05,0.23,0.11,0.34,0.16c1.06,0.56,1.81,1.3,2.38,2.12
					c0.58,0.83,1.08,1.65,1.65,2.61l0.1,0.15c-0.12-1.16-1.07-2.78-1.76-3.85c1.25,1.52,1.91,3.22,2.12,4.86
					C49.39,40.53,48.83,39.74,48.17,39.02"/>
				<path class="st3" d="M47.11,36.18c-0.49-0.75-1.1-1.43-1.77-2.1c0.31,0.23,0.63,0.45,0.92,0.68
					C46.57,35.24,46.88,35.68,47.11,36.18"/>
				<path class="st3" d="M42.11,32.37c-0.12-0.05-0.25-0.08-0.38-0.12l-0.12-0.07C41.79,32.25,41.95,32.29,42.11,32.37"/>
				<path class="st3" d="M44.22,33.47l-0.56-0.34c-0.49-0.29-1.01-0.52-1.54-0.76c-0.12-0.05-0.25-0.08-0.38-0.12
					C42.61,32.59,43.44,33.01,44.22,33.47 M43.66,33.13c-0.49-0.29-1.01-0.52-1.54-0.76C42.64,32.61,43.17,32.84,43.66,33.13"/>
				<path class="st3" d="M46.27,34.76c-0.3-0.24-0.61-0.45-0.92-0.68c-0.54-0.34-1.09-0.68-1.68-0.95
					c-0.49-0.29-1.01-0.52-1.54-0.76c-0.16-0.08-0.33-0.13-0.5-0.19l0.12,0.07c-0.77-0.42-1.59-0.79-2.45-1.1
					c1.01,0.07,2,0.25,2.97,0.48C43.62,32.5,45.22,33.54,46.27,34.76"/>
				<path class="st4" d="M46.27,34.76c-0.3-0.24-0.61-0.45-0.92-0.68C45.65,34.31,45.97,34.52,46.27,34.76"/>
				<path class="st4" d="M42.11,32.37c-0.16-0.08-0.33-0.13-0.5-0.19C41.79,32.25,41.95,32.29,42.11,32.37"/>
				<path class="st4" d="M43.66,33.13c-0.49-0.29-1.01-0.52-1.54-0.76C42.64,32.61,43.17,32.84,43.66,33.13"/>
				<path class="st4" d="M43.66,33.13c-0.49-0.29-1.01-0.52-1.54-0.76C42.64,32.61,43.17,32.84,43.66,33.13"/>
				<path class="st3" d="M41.51,31.15c-1.49-0.37-2.89-0.61-4.08-0.91c1.16-0.16,2.32-0.15,3.49-0.09l-0.46,0.26
					C40.83,30.64,41.17,30.89,41.51,31.15"/>
				<polyline class="st3" points="23.51,39.91 22.74,39.25 23.07,39.24 23.51,39.91 				"/>
				<path class="st8" d="M25.99,18.79c0.39-0.2,0.77-0.45,1.15-0.75c0.19-0.16,0.38-0.28,0.56-0.52l0.54-0.74
					c0.72-0.98,1.46-1.9,2.23-2.77c0.13,1.12,0.24,2.26,0.31,3.37c0.01,1.66-5.37,2.41-5.91,3.27c-0.54,0.89-1.45,1.03-2.3,0.5
					c-0.25-0.15-0.48-0.35-0.73-0.58C21.84,19.6,26.37,19.44,25.99,18.79"/>
				<path class="st3" d="M18.14,22.34l0.29,0.13c-0.16,0.14-0.21,0.34-0.33,0.53c-0.06,0.09-0.13,0.19-0.23,0.27
					c-0.15,0.1-0.43,0.21-0.76,0.3c0.05-0.27,0.26-0.5,0.55-0.72C17.87,22.65,17.98,22.5,18.14,22.34"/>
				<path class="st9" d="M19.74,21.31c0.87,0.48,1.73,0.36,1.99-0.27c0.07-0.14,0.1-0.31,0.11-0.48c0.25,0.24,0.49,0.43,0.73,0.58
					c0.85,0.54,1.76,0.39,2.3-0.5c0.54-0.86,5.91-1.61,5.91-3.27c0.09,1.26-4.92,1.69-4.9,2.92c0.01,1.21,0.07,2.52-0.61,3.58
					c-0.45,0.71-1.24,1.09-2.02,1.33c-2.33,0.62-4.44,1.16-7.25,1.98l0.44,0.35c0.65-0.12,1.3-0.26,1.95-0.41
					c0.59-0.14,1.18-0.29,1.77-0.43l0.54-0.13c1.07-0.28,2.13-0.5,3.18-0.74c1.04-0.24,2.07-0.72,2.72-1.46
					c-0.21,0.76-0.76,1.37-1.43,1.74c-0.68,0.37-1.46,0.57-2.23,0.77c-1.04,0.26-2.1,0.48-3.14,0.65c-1.81,0.29-3.63,0.46-5.35,0.5
					l-0.97,0.02l0.42,1.25c0.45,1.34,1.22,2.58,2.07,3.6c0.73,0.88,2.14,1.76,3.52,2.34c-0.66-0.27-1.33-0.58-1.99-0.94l-0.44,0.28
					c0.79,0.79,1.63,1.5,2.45,2.15l-0.71-0.36c-0.88-0.44-1.78-0.94-2.68-1.56c-0.82-0.56-1.63-1.21-2.36-2.03
					c-0.44-0.51-0.87-1.04-1.27-1.61l0,0c-0.17-0.26-0.34-0.53-0.52-0.8l-2.14-3.29l4.08-1.21c1.23-0.36,2.46-0.88,3.8-1.38
					l-1.96,0.23c-0.35-0.07-0.54-0.18-0.61-0.31c-0.14-0.3,0.31-0.73,0.97-1.15c0.62-0.41,1.75-0.89,1.88-1l0.14,0.07
					c-0.16,0.17-0.27,0.31-0.48,0.51c-0.29,0.22-0.5,0.45-0.55,0.72c0.32-0.09,0.6-0.2,0.76-0.3c0.1-0.08,0.17-0.18,0.23-0.27
					c0.11-0.19,0.17-0.38,0.33-0.53c0.15,0.17,0.31,0.34,0.48,0.5c0.36,0.08,0.75,0.16,1.16,0.23c-0.06,0.84,1.58,0.23,1.96,0.84
					c0.76-0.04,1.57-0.19,2.18-0.64c0-0.48-0.1-0.99-0.26-1.48c-0.56,0.49-1.48,0.72-2.3,0.53C20.82,22.28,20.19,21.86,19.74,21.31"
					/>
				<path class="st10" d="M22.58,21.15c0.85,0.54,1.76,0.39,2.3-0.5c0.54-0.86,5.91-1.61,5.91-3.27c0.01,1.66-5.37,2.41-5.91,3.27
					C24.34,21.54,23.43,21.68,22.58,21.15"/>
				<path class="st11" d="M18.43,22.47c-0.16,0.14-0.21,0.34-0.33,0.53c-0.06,0.09-0.13,0.19-0.23,0.27
					c-0.15,0.1-0.43,0.21-0.76,0.3c0.32-0.09,0.6-0.2,0.76-0.3c0.1-0.08,0.17-0.18,0.23-0.27C18.22,22.81,18.27,22.61,18.43,22.47"
					/>
				<path class="st3" d="M21,37.84l-1.49-1.11l-0.71-0.36c-0.88-0.44-1.78-0.94-2.68-1.56l-0.18,0.01c0.76,0.6,1.53,1.09,2.28,1.53
					c-0.88-0.37-1.8-0.81-2.72-1.38c0.89,0.95,2.23,1.6,3.45,2.14C19.66,37.39,20.34,37.62,21,37.84 M18.8,36.37
					c-0.88-0.44-1.78-0.94-2.68-1.56C17.01,35.43,17.92,35.93,18.8,36.37"/>
				<path class="st4" d="M18.8,36.37c-0.88-0.44-1.78-0.94-2.68-1.56C17.01,35.43,17.92,35.93,18.8,36.37"/>
				<polyline class="st3" points="18.26,22.2 18.43,22.47 18.14,22.34 18.26,22.2 				"/>
				<polyline class="st3" points="30.54,22.24 30.89,22.21 30.54,22.24 				"/>
				<path class="st12" d="M21.48,18.32c0.19,0.67,0.65,1.42,0.97,2.24c0.34,0.81-4.56,0.88-4.19,1.64l-0.12,0.13L18,22.27
					c-0.13,0.12-1.26,0.59-1.88,1c-0.67,0.42-1.11,0.85-0.97,1.15c0.07,0.14,0.25,0.25,0.61,0.31l1.96-0.23
					c-1.33,0.5-2.57,1.02-3.8,1.38l-4.08,1.21l2.14,3.29c0.18,0.27,0.35,0.53,0.52,0.8c0.4,0.57,0.83,1.1,1.27,1.61
					c0.73,0.81,1.54,1.47,2.36,2.03l-0.18,0.01c-0.74-0.51-1.49-1.09-2.16-1.82c0.87,1.53,2.83,2.7,4.44,3.36
					c-0.88-0.37-1.8-0.81-2.72-1.38c0.89,0.95,2.23,1.6,3.45,2.14l-0.47,0.1l1.2,1.47c-0.88-0.53-1.82-1.11-2.77-1.8
					c-0.43,0-0.88-0.05-1.34-0.09c0.73,1.35,1.9,2.98,3.76,4.29c-1.23-0.81-2.37-1.74-3.73-2.9c-0.67-0.57-1.41-1.23-2.21-2
					c-0.81-0.79-1.71-1.73-2.59-2.97l-0.62-0.06c-0.18-0.4-0.32-0.84-0.46-1.25c0.01,0.85,0.46,2.08,1.08,3.14
					c0.3,0.56,0.63,1.02,0.91,1.51c0.28,0.44,0.52,0.85,0.66,1.22c-0.89-0.95-1.73-2.06-2.43-3.28c-0.14,0.28,0.07,0.85,0.37,1.49
					c0.3,0.6,0.69,1.23,0.82,1.61c-0.85-1.03-1.2-1.99-1.43-2.87c-0.23-0.9-0.34-1.73-0.63-2.71l-3.2-10.84l7.23,1.5
					c0.35,0.07,0.73,0.07,1.19-0.04l0.09-0.02l0.14-0.03c3.44-0.86,8.04-1.85,6.27-2.84l0.73,0.08c0.12-0.07,0.29-0.16,0.28-0.2
					c0-0.05-0.01-0.1-0.02-0.16c-0.02-0.11-0.06-0.24-0.1-0.37C21.61,18.82,21.54,18.54,21.48,18.32"/>
				<path class="st13" d="M15.14,24.42c0.07,0.14,0.25,0.25,0.61,0.31l1.96-0.23l-1.96,0.23C15.4,24.67,15.21,24.56,15.14,24.42"/>
				<path class="st13" d="M17.71,24.5c-1.33,0.5-2.57,1.02-3.8,1.38l-4.08,1.21l2.14,3.29c0.18,0.27,0.35,0.53,0.52,0.8
					c-0.17-0.26-0.34-0.53-0.52-0.8l-2.14-3.29l4.08-1.21C15.14,25.52,16.37,25,17.71,24.5"/>
				<path class="st14" d="M18.22,36.36c-0.88-0.37-1.8-0.81-2.72-1.38C16.42,35.55,17.33,35.99,18.22,36.36"/>
				<polyline class="st14" points="15.94,34.82 16.12,34.81 15.94,34.82 				"/>
				<path class="st12" d="M23.19,36.61l0.45,0.03l0.62-0.12l-0.61-0.29l0.61,0.29l0.23-0.35l-1.35-0.99l0.83,0.41l-1.16-0.92
					l1.54,0.83l0.07-0.24l-0.48-0.36c-1.25-0.58-2.72-1-3.82-1.73c0.58,0.15,1.15,0.31,1.72,0.49c1.21,0.37,2.41,0.81,3.65,1.26
					l0.47,0.05c-1.53-0.84-3.41-1.5-4.38-2.51c0.12,0.04,0.23,0.07,0.35,0.1c2.24,0.69,3.65,1.96,5.89,2.81L28,35.44
					c-0.91-0.84-2.57-1.77-3.57-2.53C26.1,33.84,27.59,34.89,29,36l0.21,0.09c2.05,1.06,3.8,2.17,5.5,3.33
					c-0.66-0.61-1.34-1.2-2.04-1.78c0.7,0.58,1.38,1.17,2.04,1.78c0.85,0.61,1.65,1.22,2.41,1.84l2.18,1.78l-0.5-3.06
					c-0.37-2.24-0.98-4.39-1.86-6.54l-1.24,3.05h0.23l-0.24-0.05l1.21-2.97c0.18,0.85,0.31,1.69,0.4,2.53
					c-0.53-0.59-0.99-1.24-1.45-1.9l-0.47,1.15c0.84-0.26,1.71-0.43,2.49-0.57c-0.91-0.09-1.78-0.09-2.66-0.07l0.07-0.18
					c0.48,1.33,0.81,2.62,1.2,3.94c-0.39-1.33-0.72-2.62-1.2-3.94l-0.07,0.18c0.87-0.02,1.75-0.02,2.66,0.07l0.44-0.08
					c-0.93-0.35-2.06-0.48-3.21-0.45l-0.39,0.01l0.17,0.52c0.36,1.1,0.66,2.21,0.76,3.21c-0.31-1.03-0.45-2.02-0.93-3.1l-0.34-0.76
					l0.68-0.07c0.28-0.03,0.57-0.07,0.87-0.13l-0.51-0.09L35,33.79l-0.91,0.14l0.47,0.94l0.13,0.27l-0.13-0.27l-0.47-0.94L35,33.79
					l0.4-0.06c1.56-0.25,2.91-0.02,4.16,0.33c1.4-0.59,3.28-0.91,4.97-0.31c0.27,0.11,0.55,0.21,0.82,0.33
					c-0.54-0.34-1.09-0.68-1.68-0.95l0.56,0.34c-0.78-0.46-1.61-0.88-2.48-1.21c-0.77-0.42-1.59-0.79-2.45-1.1
					c1.01,0.07,2,0.25,2.97,0.48c-0.24-0.18-0.5-0.32-0.75-0.48c-1.49-0.37-2.89-0.61-4.08-0.91c1.16-0.16,2.32-0.15,3.49-0.09
					c0.7-0.12,1.42-0.25,2.16-0.29l-0.12-0.9c-1.16-0.92-3.44-1.65-6.23-1.39c-0.16,0.01-0.33,0.04-0.5,0.06l0.25,0.72l-0.88-0.38
					c-0.47,0.24-0.92,0.54-1.35,0.82l-0.53,0.08l-6.68,1.05l3.19,7.53l0.2,0.46c0.61,0.16,1,0.63,1.26,1.2
					c0.26,0.58,0.4,1.25,0.55,1.86l0.05-0.59c0.4,0.16,0.62,0.47,0.73,0.82c0.04,0.13,0.06,0.26,0.08,0.39l7.14-5.43
					c-0.47-0.36-0.9-0.8-1.31-1.12l-1.08-1.14l-0.12-0.06h0.06l-0.04-0.04c-0.6-0.39-1.22-0.76-1.84-1.13l-0.89-0.77l-0.47-0.5
					l0.47,0.5l0.62,0.47l-0.44-0.55l1.03,0.79c-0.66-0.57-1.33-1.14-2.02-1.69l-0.76-0.51l0.26,0.06l-0.91-0.83
					c-0.68-0.49-1.38-0.97-2.09-1.43c-0.55-0.16-1.1-0.3-1.65-0.44l1.42,0.3l0.77,0.19c-0.8-0.36-1.6-0.71-2.41-1.04l0.21-0.19
					c-0.47-0.25-1.02-0.49-1.6-0.73c-0.3-0.11-0.6-0.23-0.9-0.35l-0.84-0.3l-0.11-0.03l-1.71-0.31l1.53,0.16l0.02-0.46
					c-1.02-0.26-1.96-0.28-2.58-0.54c-0.17-0.06-0.26-0.13-0.38-0.22l0.06,0.13c-0.26-0.09-0.42-0.17-0.53-0.21
					c-0.04,0.02-0.13,0.04-0.16,0.07L21.8,24.3c0,0-0.02,0.01-0.09,0.1l-0.13,0.17c-0.18,0.22-0.43,0.45-0.52,0.56
					c-0.07,0.07-0.14,0.13-0.22,0.2l-0.13,0.11c0.04-0.04,0.25-0.21,0.39-0.35c-0.14,0.15-0.35,0.31-0.39,0.35
					c-0.18,0.14-0.14,0.1-0.18,0.13l-3.98,10.89c1.31-0.73,2.52-1.48,3.61-2.26c0.15-0.1,0.24-0.19,0.43-0.3l0.64-0.36
					c0.41-0.24,0.8-0.47,1.16-0.7c0.73-0.47,1.36-0.91,1.87-1.37c-1.09,0.44-2.17,0.87-3.24,1.3c-0.26,0.11-0.57,0.23-0.78,0.33
					l-0.51,0.27c-0.34,0.18-0.66,0.37-0.97,0.56c-0.84,0.41-1.69,0.78-2.56,1.11l4.01-9.28c0.17-0.03,0.18-0.03,0.55,0.22
					c0.08,0.04,0.13,0.1,0.23,0.15c-0.44,0.05-0.79,0.12-1.11,0.18l0.01,0.02c-0.09,0.04-0.2,0.07-0.31,0.11
					c0.11-0.04,0.2-0.08,0.3-0.13c-0.12-0.1-0.16-0.16-0.28-0.2l-3.57,8.26c1.34-0.47,2.53-1.03,3.72-1.56l0.46-0.2l0.67-0.25
					l1.33-0.47c0.88-0.31,1.79-0.57,2.71-0.87l-0.65,0.46c1.29-0.52,2.45-1.1,3.46-1.82c1.01-0.7,1.92-1.68,2.42-2.9
					c0.1-1.08-0.05-2.17-0.34-3.22c-0.13,0.71-0.32,1.41-0.64,2.06c0.1-0.42,0.14-0.85,0.16-1.28c-0.03-0.21-0.05-0.95-0.17-1.07
					c-0.08-0.08-0.14,0.1-0.34,0.81c-0.11,0.35-0.24,0.84-0.56,1.43c-0.32,0.6-0.9,1.28-1.82,1.78c-0.61,0.38-1.27,0.64-1.96,0.89
					c1.05-0.53,1.97-1.11,2.54-2c0.57-0.89,0.62-2.01,0.38-2.98c-0.18,0.44-0.44,0.85-0.78,1.2c-0.21,0.76-0.76,1.37-1.43,1.74
					c-0.68,0.37-1.46,0.57-2.23,0.77c-1.04,0.26-2.1,0.48-3.14,0.65c-1.81,0.29-3.63,0.46-5.35,0.5l-0.97,0.02l0.42,1.25
					c0.45,1.34,1.22,2.58,2.07,3.6c0.73,0.88,2.14,1.76,3.52,2.34l0.24,0.09l-0.62-0.5l0.99,0.57c-0.46-0.44-0.91-0.89-1.35-1.36
					c0.6,0.5,1.22,0.97,1.85,1.42L21,35.48c-0.52-0.34-1.05-0.7-1.57-1.07c0.6,0.38,1.21,0.75,1.81,1.09l0.51-0.05L23.19,36.61
					 M36.8,39.22c-0.22-1.59-0.29-3.13-1.14-5.02l-0.34,0.83c0.11-0.01,0.24-0.02,0.37-0.04c-0.13,0.01-0.26,0.03-0.37,0.04
					l0.34-0.83C36.51,36.09,36.58,37.63,36.8,39.22l0.07,0.69l0.08,0.44l-0.08-0.44L36.8,39.22l0.18,0.06
					c0.1,0.38,0.18,0.77,0.26,1.15l0.74-0.56l-0.53-0.38l0.53,0.38l-0.74,0.56c-0.08-0.38-0.17-0.77-0.26-1.15L36.8,39.22
					 M30.56,36.16c1.47,0.7,2.08,1.83,3.37,2.55C32.64,37.99,32.03,36.86,30.56,36.16 M29.28,35.63l-0.11-0.04l-1.04-0.52l1.04,0.52
					L29.28,35.63c1.21,0.71,2,1.5,3.17,2.23C31.27,37.12,30.49,36.34,29.28,35.63 M37.42,40.33l0.02,0.04l0.43-0.33l-0.62-0.21
					l0.62,0.21l-0.43,0.33L37.42,40.33 M21.31,29.53c1.11-0.44,2.18-0.89,3.15-1.37C23.49,28.65,22.42,29.09,21.31,29.53
					 M21.31,29.53c1.11-0.44,2.18-0.89,3.15-1.37C23.49,28.65,22.42,29.09,21.31,29.53 M21.31,29.53l-0.52,0.18l-0.51,0.23
					l-0.54,0.18c-0.18,0.08-0.29,0.14-0.43,0.21l-0.04,0.02l-0.42,0.15l-0.42,0.21L18,30.87l-0.42,0.21l-0.42,0.21l-0.32,0.13
					l-0.42,0.21L16,31.84l-0.42,0.21l-0.1,0.06l2.1-4.86l0.13,0.06l0.2,0.14l0.23,0.04c-0.14-0.11-0.24-0.24-0.37-0.34l-2.23,5.17
					c1.26-0.49,2.36-1.06,3.45-1.64l0.15-0.07l0.11-0.06c0.18-0.09,0.3-0.17,0.53-0.27l0.15-0.07l0.52-0.23l0.28-0.15L21.31,29.53
					 M29.14,25.6c-0.1,0.21-0.22,0.43-0.35,0.64c-0.09,0.14-0.18,0.29-0.28,0.43c-0.12,0.14-0.23,0.29-0.37,0.42
					c-0.12,0.14-0.24,0.27-0.37,0.4c-0.16,0.16-0.34,0.3-0.52,0.43l-0.24,0.21c-0.23,0.17-0.46,0.34-0.7,0.5l-0.01,0.01l-0.44,0.29
					l0.44-0.29l-0.44,0.29l0.44-0.29l0,0c-0.15,0.1-0.29,0.19-0.45,0.29c0.18-0.12,0.38-0.24,0.58-0.37l0.32-0.19
					c0.19-0.12,0.38-0.24,0.56-0.37l0.17-0.13c0.17-0.13,0.33-0.27,0.49-0.41c0.1-0.08,0.19-0.17,0.28-0.26
					c0.08-0.1,0.17-0.21,0.24-0.32C28.8,26.47,29.02,26.03,29.14,25.6 M36.48,28.37l0.02,0.15c0.22,0.02,0.44,0.06,0.65,0.09
					C36.93,28.53,36.71,28.44,36.48,28.37"/>
				<path class="st2" d="M21.31,29.53c-0.67,0.27-1.34,0.53-2.01,0.8c0.14-0.07,0.25-0.13,0.43-0.21l0.54-0.18l0.51-0.23
					L21.31,29.53"/>
				<polyline class="st2" points="20.7,29.81 20.42,29.96 19.9,30.19 19.75,30.26 20.7,29.81 				"/>
				<path class="st2" d="M19.26,30.36c-1.32,0.57-2.63,1.15-3.8,1.77l2.12-4.9c0.19,0.1,0.34,0.2,0.53,0.25l-0.23-0.04l-0.2-0.14
					l-0.13-0.06l-2.1,4.86l0.1-0.06l0.42-0.21l0.42-0.21l0.42-0.21l0.32-0.13l0.42-0.21l0.42-0.21l0.43-0.16l0.42-0.21L19.26,30.36"
					/>
				<polyline class="st2" points="19.21,30.53 19.1,30.6 18.95,30.67 19.21,30.53 				"/>
				<polyline class="st15" points="37.73,33.88 37.79,33.88 37.85,33.94 37.73,33.88 				"/>
				<path class="st14" d="M21.09,25.09c-0.14,0.15-0.35,0.31-0.39,0.35C20.74,25.4,20.96,25.24,21.09,25.09"/>
				<polyline class="st14" points="44.22,33.47 43.66,33.13 44.22,33.47 				"/>
				<path class="st14" d="M42.26,31.64c-0.97-0.24-1.96-0.41-2.97-0.48C40.3,31.23,41.29,31.4,42.26,31.64"/>
				<path class="st14" d="M37.43,30.25c1.16-0.16,2.32-0.15,3.49-0.09C39.76,30.1,38.59,30.09,37.43,30.25"/>
				<path class="st16" d="M21.31,29.53l-0.52,0.18l-0.51,0.23l-0.54,0.18c-0.18,0.08-0.29,0.14-0.43,0.21
					c0.14-0.07,0.25-0.13,0.43-0.21l0.54-0.18l0.51-0.23L21.31,29.53"/>
				<polyline class="st16" points="20.7,29.81 20.42,29.96 19.9,30.19 19.75,30.26 19.9,30.19 20.42,29.96 20.7,29.81 				"/>
				<polyline class="st16" points="19.26,30.36 18.84,30.51 18.42,30.72 17.99,30.88 17.56,31.08 17.14,31.29 16.82,31.42 
					16.4,31.63 15.97,31.84 15.55,32.05 15.46,32.1 17.56,27.24 17.68,27.3 17.88,27.44 18.11,27.48 17.88,27.44 17.68,27.3 
					17.56,27.24 15.46,32.1 15.55,32.05 15.97,31.84 16.4,31.63 16.82,31.42 17.14,31.29 17.56,31.08 17.99,30.88 18.42,30.72 
					18.84,30.51 19.26,30.36 				"/>
				<polyline class="st16" points="19.21,30.53 19.1,30.6 18.95,30.67 19.1,30.6 19.21,30.53 				"/>
				<path class="st16" d="M24.46,28.16c-0.97,0.48-2.04,0.93-3.15,1.37C22.42,29.09,23.49,28.65,24.46,28.16"/>
				<path class="st16" d="M24.46,28.16c-0.97,0.48-2.04,0.93-3.15,1.37C22.42,29.09,23.49,28.65,24.46,28.16"/>
				<path class="st13" d="M19.49,35.24c-1.38-0.59-2.79-1.47-3.52-2.34c-0.85-1.02-1.62-2.26-2.07-3.6l-0.42-1.25l0.97-0.02
					c1.72-0.03,3.54-0.2,5.35-0.5c-1.81,0.29-3.63,0.46-5.35,0.5l-0.97,0.02l0.42,1.25c0.45,1.34,1.22,2.58,2.07,3.6
					C16.69,33.77,18.1,34.65,19.49,35.24"/>
				<path class="st13" d="M26.6,24.38c-0.21,0.76-0.76,1.37-1.43,1.74c-0.68,0.37-1.46,0.57-2.23,0.77c0.78-0.2,1.55-0.4,2.23-0.77
					C25.84,25.75,26.39,25.14,26.6,24.38"/>
				<path class="st2" d="M28.15,27.08c0.13-0.13,0.25-0.27,0.37-0.42c-0.41,0.56-0.94,1.04-1.49,1.46l0.24-0.21
					c0.18-0.13,0.36-0.27,0.52-0.43C27.91,27.36,28.03,27.22,28.15,27.08"/>
				<path class="st2" d="M28.5,26.86c-0.07,0.11-0.15,0.22-0.24,0.32c-0.09,0.09-0.18,0.18-0.28,0.26
					C28.18,27.26,28.35,27.07,28.5,26.86"/>
				<path class="st2" d="M27.5,27.85l-0.17,0.13c-0.18,0.13-0.37,0.26-0.56,0.37l-0.32,0.19C26.79,28.34,27.15,28.12,27.5,27.85"/>
				<polyline class="st2" points="26.32,28.62 26.32,28.63 26.31,28.63 26.32,28.62 				"/>
				<polyline class="st3" points="30.47,22.66 30.5,22.97 30.47,22.66 				"/>
				<path class="st8" d="M29.79,23.54c0.31-1.65,5.5-2.56,5.57-4.37c0.01-0.45,0.03-0.91,0.03-1.37l-0.01-1.32
					c-0.01-0.75-0.04-1.51-0.11-2.26c0.32,0.57,0.63,1.14,0.94,1.72l-0.13-0.23c0.02,0.44,0.06,0.83,0.14,1.64
					c0.03,0.37,0.07,0.76,0.11,1.15c0.1,1.18-4.91,1.61-5.01,2.6c-0.13,0.39-0.27,0.76-0.42,1.11l-0.05-0.02l-0.3,0.05l-0.28-0.96
					c0.08,0.46,0.15,0.92,0.21,1.38l0.03,0.31c0.1,1.27,0.06,2.57-0.37,3.79C30.23,25.68,30.08,24.58,29.79,23.54"/>
				<path class="st17" d="M36.22,17.35c-0.08-0.81-0.12-1.2-0.14-1.64C36.1,16.15,36.14,16.54,36.22,17.35
					c0.03,0.37,0.07,0.76,0.11,1.15C36.29,18.1,36.25,17.72,36.22,17.35"/>
				<polyline class="st17" points="36.08,15.71 36.21,15.94 36.08,15.71 				"/>
				<polyline class="st18" points="30.54,22.24 30.84,22.19 30.89,22.21 30.54,22.24 				"/>
				<path class="st17" d="M29.79,23.54c0.29,1.04,0.44,2.14,0.34,3.22C30.23,25.68,30.08,24.58,29.79,23.54"/>
				<path class="st8" d="M26.72,21.69c-0.02-1.61,5.26-2.79,5.34-4.67c0.58,0.68,1.13,1.78,1.63,3.1c0.49,1.31-4.13,2.02-3.89,3.42
					c-0.13,0.71-0.32,1.41-0.64,2.06c0.1-0.42,0.14-0.85,0.16-1.28c-0.03-0.21-0.05-0.95-0.17-1.07c-0.08-0.08-0.14,0.1-0.34,0.81
					c-0.11,0.35-0.24,0.84-0.56,1.43c-0.32,0.6-0.9,1.28-1.82,1.78c-0.61,0.38-1.27,0.64-1.96,0.89c1.05-0.53,1.97-1.11,2.54-2
					c0.57-0.89,0.62-2.01,0.38-2.98c-0.18,0.44-0.44,0.85-0.78,1.2c0.08-0.3,0.13-0.62,0.14-0.94c-0.02-0.4-0.02-0.83-0.02-1.29
					C26.72,22,26.72,21.85,26.72,21.69"/>
				<path class="st17" d="M27.38,23.18c0.24,0.97,0.19,2.09-0.38,2.98c-0.57,0.9-1.49,1.47-2.54,2c1.05-0.53,1.97-1.11,2.54-2
					C27.57,25.27,27.62,24.15,27.38,23.18"/>
				<path class="st17" d="M29.13,23.25c0.12,0.12,0.14,0.85,0.17,1.07c-0.01,0.43-0.06,0.86-0.16,1.28c0.1-0.42,0.14-0.85,0.16-1.28
					C29.27,24.1,29.25,23.37,29.13,23.25"/>
				<path class="st19" d="M23.26,25.22c0.77-0.24,1.57-0.63,2.02-1.33c0.68-1.06,0.62-2.37,0.61-3.58c-0.02-1.23,5-1.66,4.9-2.92
					c0.02-0.83-0.03-1.7-0.16-2.53c-0.04-0.28-0.09-0.56-0.15-0.83c1.04-1.09,2.07-2.11,3.22-2.96c0.55,1.03,1.07,2.08,1.57,3.16
					c0.08,0.76,0.11,1.51,0.11,2.26l0.01,1.32c0,0.46-0.02,0.92-0.03,1.37c-0.07,1.81-5.26,2.72-5.57,4.37
					c-0.24-1.4,4.38-2.11,3.89-3.42c-0.5-1.31-1.05-2.41-1.63-3.1c-0.08,1.87-5.35,3.05-5.34,4.67l0,0c0,0.16,0,0.31,0,0.47
					c0,0.46,0.01,0.89,0.02,1.29c-0.02,0.32-0.06,0.63-0.14,0.94c-0.65,0.74-1.68,1.22-2.72,1.46c-1.05,0.25-2.11,0.47-3.18,0.74
					l-0.54,0.13c-0.59,0.14-1.18,0.28-1.77,0.43c-0.65,0.15-1.3,0.29-1.95,0.41L16,27.2C18.81,26.38,20.92,25.84,23.26,25.22"/>
				<path class="st14" d="M23.26,25.22c-2.33,0.62-4.44,1.16-7.25,1.98C18.81,26.38,20.92,25.84,23.26,25.22"/>
				<path class="st14" d="M25.27,23.88c0.68-1.06,0.62-2.37,0.61-3.58c-0.02-1.23,5-1.66,4.9-2.92c0.09,1.26-4.92,1.69-4.9,2.92
					C25.89,21.51,25.95,22.82,25.27,23.88"/>
				<path class="st14" d="M18.4,27.14c0.59-0.14,1.18-0.29,1.77-0.43l0.54-0.13c1.07-0.28,2.13-0.5,3.18-0.74
					c-1.05,0.25-2.11,0.47-3.18,0.74l-0.54,0.13C19.58,26.86,18.99,27,18.4,27.14"/>
				<path class="st20" d="M26.72,21.69L26.72,21.69c0,0.16,0,0.31,0,0.47C26.72,22,26.72,21.85,26.72,21.69"/>
				<path class="st20" d="M32.05,17.02c0.58,0.68,1.13,1.78,1.63,3.1c0.49,1.31-4.13,2.02-3.89,3.42c-0.24-1.4,4.38-2.11,3.89-3.42
					C33.18,18.81,32.63,17.71,32.05,17.02"/>
				<path class="st3" d="M30.79,17.38c-0.07-1.11-0.17-2.25-0.31-3.37c0.06,0.28,0.11,0.55,0.15,0.83
					C30.75,15.68,30.81,16.55,30.79,17.38"/>
				<path class="st18" d="M30.79,17.38c-0.07-1.11-0.17-2.25-0.31-3.37C30.61,15.13,30.72,16.28,30.79,17.38"/>
			</g>
		</g>
	</g>
</g>
</svg>
