<?xml version="1.0" encoding="utf-8"?>
<!-- Generator: Adobe Illustrator 25.2.3, SVG Export Plug-In . SVG Version: 6.00 Build 0)  -->
<svg version="1.1" id="Layer_1" xmlns="http://www.w3.org/2000/svg" xmlns:xlink="http://www.w3.org/1999/xlink" x="0px" y="0px"
	 viewBox="0 0 75 75" style="enable-background:new 0 0 75 75;" xml:space="preserve">
<style type="text/css">
	.st0{fill:#3B3BFF;}
	.st1{opacity:0.8;}
	.st2{fill:#9F9FFF;}
	.st3{fill:#7676FF;}
	.st4{fill:#5B5BFF;}
	.st5{fill:#5555FF;}
	.st6{fill:#ADADFF;}
	.st7{fill:#6767FF;}
	.st8{fill:#6C6CFF;}
	.st9{fill:#8F8FFF;}
	.st10{fill:#6060FF;}
	.st11{opacity:0.8;fill:#9F9FFF;enable-background:new    ;}
	.st12{fill:#7070FF;}
	.st13{fill:#6363FF;}
	.st14{fill:#7878FF;}
	.st15{fill:#6464FF;}
	.st16{fill:#5E5EFF;}
	.st17{fill:#5858FF;}
	.st18{fill:#7F7FFF;}
	.st19{fill:#5959FF;}
</style>
<g>
	<g>
		<g>
			<path class="st0" d="M32.2,29.3c0.5,0,0.9,0.1,1.4,0.1c0.9,0.1,1.7,0.3,2.6,0.4c0.4,0.1,0.9,0.2,1.3,0.3c0.2,0.1,0.5,0.1,0.7,0.2
				l0.5,0.3c0.3,0.2,0.8,0.4,1.1,0.6c0.3,0.2,0.6,0.5,0.9,0.9c0.4,0.5,0.6,1.2,0.8,1.8s0.3,1.5,0.3,2.2s0.1,1.6,0.1,2.3
				c0,0.4,0,0.8,0,1.2l-0.1,0.9c0,0.5-0.1,1-0.2,1.6c-0.1,0.8-0.3,1.5-0.5,2.3c-0.4,1.5-1.1,2.8-2.1,3.8c-0.7,0.8-1.6,1.4-2.5,1.8
				c-1.3,0.7-3,1.1-4.5,1.2l-0.4,0c-0.1,0-0.4,0-0.9,0c-0.5,0-1.3-0.1-2.3-0.6c-1-0.5-1.9-1.3-2.3-2.1c-0.5-0.8-0.7-1.4-0.8-2
				c-0.1-0.5-0.1-1-0.1-1.3c0-0.7,0.1-1.4,0.2-2c0.3-1.3,0.9-2.2,1.3-2.9c0.5-0.7,0.9-1.2,1.3-1.6c0.6-0.7,1.3-1.4,2-2.1
				c1.4-1.4,3.1-2.9,5-4.1c1-0.6,2.1-1.2,3.2-1.6c1.2-0.5,2.4-0.8,3.3-1c0.1,0.4-0.4,1.2,0.3,1.3c1.2,0.1,1.8,0.4,2.1,0.7
				c0.3,0.4,0.5,0.8,0.6,1.2c0.2,0.5-1.5,0.4-0.9,0.7c-0.8,0.2-2,0.5-2.7,0.8s-0.9,0.6,0,0.5c0.7,0.2,2.8-0.7,3.5-0.2
				c0.8,0.5-0.2,1.5,0.5,2c0.6-0.1,1.9-0.5,2.5-0.9c0.4,0,0.4,0.4,0.4,0.8c0,0.3-0.2,0.6,0.2,0.5c1.2-0.3,2.4-1,3.5-2.1
				s2-2.4,2.7-3.9c0.2,0.1,0.5,0.1,0.7,0.1c0.1,0,0.2,0.1,0.2,0.2c0,0.2,0,0.5-0.2,0.9c-1,1.8-2.3,3.4-4,4.7
				c-0.8,0.6-1.7,1.2-2.7,1.6c-1,0.4-1.9,0.7-2.7,0.9l-2,0.5c-0.6,0.2-0.9,0.3-1.3,0.5c-0.8,0.3-1.5,0.8-2.4,1.4
				c-0.8,0.6-1.6,1.4-2.5,2.2c-0.4,0.4-0.8,0.9-1.3,1.3L36,46.2l-0.2,0.3c-0.1,0.1-0.1,0.1-0.1,0.2c0,0,0,0,0,0s0,0,0,0l0,0
				c0,0,0,0-0.1,0c-1-0.7-1.7-1-2.1-1.2c-0.2-0.1-0.4-0.1-0.5-0.1c0,0-0.1,0-0.1,0h0l-0.7,0c-0.3,0-0.7,0.1-0.8,0.2
				c-0.2,0.1,0,0.2,0-0.3c0-0.1,0-0.3,0-0.5l0-0.5v-0.7l0-1.6l0-1.3h0l0.1,0c0.1,0,0.3,0,0.3,0c0,0,0-0.1,0-0.1c0,0,0,0,0,0
				c0,0,0,0,0,0c0-0.3,0.1-0.7,0.1-1l0-0.2c0,0,0,0,0,0c0,0,0,0,0,0l0,0c0,0,0,0,0,0c0,0,0,0,0.1,0L29.6,39
				c-0.8-0.2-1.6-0.4-2.4-0.6c-3.2-0.9-6.6-2.1-9.7-4.4c-0.6-0.5-0.9-0.8-0.9-1c0-0.2,0.1-0.3,0.4-0.3c0.6,0,1.7,0.3,2.7,0.6
				c-0.7-0.2-0.3-0.8-1-0.9c0.4-0.6,2.1-0.7,4.4,0.2c-0.5-0.3-1.1-0.5-1.6-0.8c-0.4-0.5,0.3-0.6,0.6-1c0.5,0.3,1,0.5,1.1,0.3
				c0.1-0.2,0.3-0.6,0.4-0.8c-0.5-0.2-1.5-0.8-1.9-1.1c0.5,0.3,0.9,0.6,1,0.4c0.1-0.2,0.3-0.6,0.5-0.8c1,0.3,2.2,1.4,3.3,1.5
				l0.2-0.6c-0.9-0.5-2.4-0.9-3.2-1.5c0.5,0,0.6-0.2,0.9-0.6c1.3,0.4,2.5,1.6,4.2,1.4c-0.5-0.1-1-0.3-1.4-0.5
				c0.7-0.4,1.5-0.2,2.4,0.1C30.3,28.9,31.3,29.2,32.2,29.3z"/>
		</g>
	</g>
</g>
<g>
	<g>
		<g>
			<path class="st0" d="M44,18.5c1.3-1.3,2.8-2.6,4.4-3.7c0.4-0.3,0.8-0.5,1.2-0.8c0.7-0.4,1.3-0.8,2-1.1c1.3-0.7,2.7-1.3,4.1-2
				c2.7,0.4,4.5,0.6,5.3,0.5c0.3-0.1,0.4-0.2,0.4-0.3c0.1,0.1,0.4,0.4,0.7,0.6c0.7,0.4,1.5,1,3.5,1.7c-0.2,2-0.4,3.9-0.5,5.8
				c-0.1,1.6-0.1,3.3-0.2,4.9c-0.1,2.1-0.2,4.3-0.6,6.6c-0.7,4.5-2,9.3-5,13.5c-1.5,2.1-3.4,4-5.5,5.4c-2.2,1.4-4.5,2.4-7,3
				c-2.5,0.5-4.7,0.6-6.2,0.8c-0.8,0.1-1.4,0.3-2,0.5c-0.6,0.2-1.2,0.5-1.8,0.9c-2,1.2-3.8,3.1-5.2,5.3c-0.4,0.7-1,1.6-1.8,2.6
				c-0.9,1.1-2,2-3,2.6c-0.3,0.2-0.5,0.3-0.8,0.5s-0.5,0.3-0.9,0.5c-0.7,0.3-1.4,0.7-2.2,0.9c-1.5,0.6-3,0.8-4.5,0.6
				c-2.2-0.3-4.2-1.6-5.7-3.4c-0.4-0.5-0.7-0.9-1-1.4l-0.5-0.7L11,61.5c-0.4-0.6-0.7-1.2-1-1.8c-1.3-2.4-2.4-4.5-3.6-6.7l-1.8-3.3
				l-0.9-1.8c-0.5-1.1-1.2-2.2-1.5-3.3C2,44.1,1.9,43.5,1.8,43s0-1.2,0.1-1.7c0.2-1.1,0.8-2.1,1.5-3.1l1.6-2.3
				c0.3-0.4,0.6-0.8,0.7-1.2c0.2-0.3,0.3-0.7,0.4-0.9c0.1-0.3,0.1-0.4,0.2-0.7c0.1-0.6,0.1-1.5,0.1-2.7c0-1.2-0.1-2.6,0.1-4.4
				c0.2-1.8,0.8-4,2.1-6c1.3-1.9,2.8-3.1,3.9-3.9c1.1-0.8,2.1-1.6,3.2-2.3c2.1-1.4,4.3-2.8,6.3-4l3.9,5.4c0,0,0,0,0.2,0
				c0.1,0,0.3,0,0.5-0.1s0.2-0.1,0.2-0.1c0,0,0,0-0.1,0.1l-0.1,0.1l0,0v0l0,0l0.5-0.6l0,0l0-0.1c0.1-0.1,0.3-0.4,0.5-0.9l0.2-0.4
				l0.2-0.6c0.1-0.2,0.2-0.5,0.3-0.7c0-0.1,0-0.1,0-0.1l0,0h0c0,0,0.4,0.1,0.9,0.2c0,0.1-0.2,0.2-0.5,0.3c-0.2,0.1-0.4,0.2-0.5,0.3
				s-0.2,0.2-0.1,0.3c0,0.1,0.1,0.2,0.8,0.5c2.5,0.9,4.3,1.9,5.5,2.7c1.2,0.9,2,1.7,2.4,2.2c0.8,1.2,0.5,1.5,0.2,1.9
				c-0.1,0.2-1.6-1-2.9-1.8c-1.3-0.8-2.5-1.2-1.5-0.5c-1.4-0.7-3.1-1.3-4.7-1.7c-0.8-0.2-1.4-0.4-1.7-0.6c-0.1-0.1-0.2-0.3-0.2-0.4
				c0-0.1,0-0.1,0-0.1l-1.6-1.6c-3.1,2.1-4.8,3.3-1.3,1.5c0.4-0.1,1-0.4,1.7-0.8l2-1.1l-1.4,1.8c-0.2,0.2-0.2,0.6-0.1,1
				c0.1,0.4,0.5,0.7,0.9,0.9c0.5,0.2,1,0.4,1.5,0.5c0.6,0.2,1.1,0.3,1.7,0.5c2.2,0.7,4,1.9,4.6,2.6c0.8,0.9,0.1,0.9-0.5,0.9
				c-0.6,0-1.2,0-0.5,0.9c0.8,0.5,2,1.5,3,2.5c0.9,1.1,1.6,2.4,1.9,3.3c0.1,1-0.4,0.6-0.8,0.3c-0.4-0.3-0.8-0.6-0.5,0.2
				c0.3,1.2,0.4,2.4,0.1,3.6c-0.2,1.2-1,2.8-2,5.1c-0.9,2.3-1.5,4.8-1.8,7.3c-0.1,1.3-0.2,2.6-0.2,3.9l0,1l0,0.5
				c0,0.4,0.1,0.8,0.2,1.2c0.2,0.7,0.5,1.3,1.2,2.2c0.4,0.4,1,1,2.1,1.3c0.5,0.2,1.2,0.2,1.8,0.1c0.6-0.1,1.1-0.3,1.5-0.5
				c0.1,0.2,0.7,0.1,0.8,0.3c0,0.1,0,0.2-0.3,0.5c-0.1,0.1-0.4,0.2-0.6,0.3c-0.2,0.1-0.5,0.2-0.8,0.3c-0.6,0.2-1.4,0.2-2.1,0.1
				c-0.3-0.1-0.8-0.2-1.1-0.3c-0.3-0.1-0.7-0.3-0.9-0.5c-0.5-0.3-0.9-0.7-1.2-1c-0.6-0.7-1-1.3-1.2-2c-0.1-0.3-0.2-0.7-0.3-1.1
				c0-0.2-0.1-0.4-0.1-0.7c0-0.1,0-0.3,0-0.4c-0.3-4.3,0.4-8.6,1.9-12.7c0.8-2.1,1.5-3.6,1.8-4.6c0.1-0.5,0.2-0.9,0.2-1.4
				c0-0.5-0.1-0.9-0.2-1.4c-0.3-1-0.8-2-1.6-2.9c-0.7-0.9-1.7-1.6-2.9-2.3c-1.2-0.7-2.5-1.2-3.9-1.6l-1.3-0.3
				c-0.6-0.2-1.5-0.4-2.6-1.1c-0.3-0.2-0.5-0.4-0.8-0.6c-0.3-0.3-0.6-0.6-0.9-0.9c-0.5-0.6-0.9-1.3-1.2-2c-0.3-0.8-0.5-1.7-0.5-2.7
				c0-1.1,0.4-2.3,1.1-3.3l6.9,7.2c-2.1,1.3-4.1,2.6-6,3.9c-1,0.6-1.9,1.3-2.8,2c-0.8,0.6-1.3,1.1-1.3,1.3c-0.1,0.2-0.2,0.5-0.3,1.2
				c-0.1,0.8,0,1.8,0,3.1c0,1.3,0,2.9-0.3,4.7c-0.2,0.9-0.4,1.9-0.8,2.8c-0.4,0.9-0.8,1.7-1.2,2.4c-0.4,0.7-0.8,1.3-1.2,1.9
				l-0.5,0.7l0,0c0,0.1-0.1,0.1,0,0.2l0.1,0.1l0.8,1.6L16,48c1.1,2.2,2.3,4.5,3.4,6.4c0.3,0.5,0.5,1,0.8,1.4l0.2,0.3c0,0.1,0,0,0,0
				l0,0l0,0c0,0,0.1,0,0.1,0c0,0,0,0,0.1,0l0,0c0,0,0,0,0,0c0,0,0,0,0,0l0.1-0.1c0.4-0.2,0.6-0.4,0.8-0.5c0.1-0.1,0.1-0.1,0.2-0.2
				s0.2-0.2,0.3-0.4c0.5-0.7,1.6-2.5,2.8-3.8c1.2-1.4,2.5-2.6,4-3.8c1.5-1.1,3.1-2.1,4.9-2.9c0.9-0.4,1.8-0.7,2.8-1
				c1-0.3,1.9-0.4,2.8-0.5c1.7-0.2,3.2-0.3,4.3-0.4c0.5-0.1,1-0.2,1.4-0.3s0.9-0.3,1.3-0.4c1.7-0.7,3.2-1.8,4.4-3.3
				c1.2-1.5,2.1-3.5,2.7-5.7c0.6-2.2,1-4.6,1.1-7.3l0.1-2l0-1l0,0.1c0,0,0,0.1,0,0.1c0,0,0,0,0.1,0l0,0l0,0c0,0,0,0,0,0l0,0
				l-0.1,0.1L54.4,23c-1,0.7-2,1.4-3,2.2c-0.9,0.8-1.8,1.7-2.6,2.7c-0.2,0.2-0.4,0.5-0.6,0.7C48.1,28.8,48,29,47.9,29l0,0l0,0
				l-0.2-0.1c-0.3-0.2-0.5-0.3-0.8-0.4c-0.5-0.2-0.9-0.4-1.2-0.4c-0.6-0.2-0.9-0.1-1-0.1l-4.9-4.8c1.2-0.6,2.5-1.2,3.7-1.8l3.3-1.6
				c1.3-0.6,2.5-0.8,3.6-0.8c1,0,2.1,0.2,3.1,0.7c1,0.5,1.8,1.1,2.6,1.9c1.5,1.5,2.5,3.9,3.3,6.1c1,2.7,1.5,5.1,2.2,7.5
				c1.2,4.9,2.2,9.8,2.8,14.8c0.5,4.7,0.2,5.3-0.2,3.9c-0.5-1.4-1.3-4.9-2.3-8.3c0.6,2.3,0,2.4,0.5,4.7c-0.3,0-0.9-1-1.7-3.3
				c-0.8-2.2-1.7-5.5-3-10c0.6,2.2,1,4.5,1.5,6.7c0.2,2.3-0.7,0.1-1.1,0.2c-0.4-2.2-1-4.5-1.2-4.4c-0.2,0-0.7,0.2-0.9,0.2
				c0.5,2.2,1.4,6.6,1.7,8.9c-0.3-2.2-0.8-4.5-1-4.4c-0.2,0-0.7,0.1-0.9,0.2c-0.5-2.2-1.1-4.9-1.7-7.7c-0.3-1.4-0.7-2.7-1-4
				c-0.2-0.6-0.4-1.2-0.6-1.8c-0.1-0.3-0.2-0.6-0.3-0.8c-0.1-0.2-0.2-0.4-0.2-0.5l-0.6,0.4c0.1,0.4,0.2,0.8,0.4,1.2
				c0.2,0.6,0.3,1.2,0.5,1.8c0.3,1.3,0.7,2.6,1.1,3.9c0.7,2.7,1.4,5.4,1.8,7.6c-0.7-2.1-0.9-2.1-1.3-2c-0.8-3.1-1.5-6.3-2.3-9.3
				c-0.2-0.8-0.4-1.5-0.7-2.2L51,30.5L51,30.3c-0.1-0.1-0.1-0.3-0.2-0.4c-0.1-0.3-0.3-0.5-0.6-0.7c-0.2-0.2-0.6-0.2-0.9,0
				c-0.1,0-0.2,0.1-0.2,0.2c0.1,0,0.1-0.1,0.2-0.1c0.3-0.1,0.7,0.1,0.9,0.3c0.2,0.3,0.3,0.6,0.5,0.9c-0.3-0.1-0.5-0.3-0.7-0.4
				c-0.2-0.1-0.5-0.3-0.8-0.2c-0.1,0.1-0.3,0.1-0.4,0.2c-0.2,0.1-0.4,0.2-0.7,0.3c-1.3,0.6-2.5,1.2-3.8,1.8L39,34.6l-0.8-5.7
				c-0.1-1,0-2.1,0.2-2.9c0.2-0.8,0.6-1.5,0.9-2s0.6-1,0.9-1.3c0.3-0.3,0.5-0.6,0.8-1C42,20.5,43,19.4,44,18.5z"/>
		</g>
	</g>
</g>
<g>
	<g>
		<g>
			<path class="st0" d="M31.2,61.2c-1.1-0.6-2.1-1.4-3-2.2c-0.9-0.9-1.6-1.8-2.4-2.8c-1.5-2-2.8-4.2-4-6.1c-0.4-0.6-0.8-1.2-1.1-1.8
				c-0.2-0.3-0.3-0.7-0.5-1c-0.1,0-0.1,0-0.1,0c-0.1,0-0.1,0-0.2,0l0,0c0,0,0,0,0,0L19.6,47l-0.3-0.3c-0.4-0.4-0.9-0.8-1.2-1.3
				c-0.8-0.9-1.4-2-1.9-3.4c-0.4-1.4-0.6-3.1-0.1-4.8c0.4-1.7,1.4-3.1,2.3-4c0.9-0.9,1.7-1.4,2.2-1.8c0.2,0.4,0.2,1.2,0.8,1.1
				c0.9-0.2,1.3,0,1.7,0.2c0.4,0.3,0.6,0.6,0.9,1c0.3,0.4-0.9,0.6-0.3,0.8c-0.5,0.3-1.1,0.8-1.5,1.3c-0.4,0.5-0.4,0.7,0.2,0.5
				c0.6,0.1,1.6-1.2,2.4-0.8c0.7,0.3,0.4,1.3,1.2,1.7c0.4-0.2,1.1-0.8,1.5-1.2c0.4,0,0.5,0.3,0.6,0.6c0.1,0.3,0.1,0.6,0.4,0.4
				c0.9-0.5,1.6-1.5,2.1-2.7c0.5-1.2,0.6-2.6,0.5-4c0.2,0,0.4-0.1,0.6-0.1c0.1,0,0.2,0,0.3,0.1c0.1,0.1,0.2,0.4,0.2,0.8
				c0,1.7-0.4,3.4-1.2,4.9c-0.4,0.8-0.9,1.5-1.5,2.1c-0.6,0.6-1.1,1.1-1.6,1.4c-1,0.7-1.6,1.2-1.9,1.4c0,0,0,0.1-0.1,0.1l-0.6-0.6
				C25.3,40,25,39.9,25,39.8c-0.1-0.1-0.3-0.2-0.3-0.2c0,0-0.1-0.1-0.2-0.1c0,0,0,0,0,0h0c0.2,0.1-0.2-0.1-0.2-0.1l0,0l0,0l0,0l0,0
				c0,0,0.3,0,0.7,0c0.4-0.1,0.9-0.2,1.2-0.5c0.5-0.3,0.3-0.2,0.4-0.2l0,0h0h0l0.1,0l0.5,0.4c1.4,1,2.4,2.5,2.9,4.1l0.2,0.6l0.1,0.2
				l0.2,0.5c0.1,0.3,0.3,0.6,0.4,0.9c1.2,2.4,2.9,4.7,4.9,6.6c0.9,0.9,1.8,1.6,2.6,2c0.8,0.4,1.5,0.6,2,0.6c0.5,0.2,0.4,1.1-0.3,1.8
				c0.2-0.2,0.2,0.5,0.4,0.2c0,0.3,0,0.8-0.3,1.2c-0.3,0.4-0.8,0.7-1.5,0.7c0.3,0.1,0.7,0.1,1,0.1c0.3,0.2,0,0.7-0.1,1.1
				c-0.4,0-0.8-0.1-0.8,0.2c0,0.2-0.1,0.7-0.1,0.9c0.4,0.1,1.3,0.1,1.7,0.1c-0.4,0-0.9,0-0.9,0.2s0,0.7,0,0.9
				c-1,0.2-2.3-0.5-3.2-0.7l-0.2,0.6c0.8,0.6,2.4,0.7,3.4,0.7c-0.5,0.2-0.6,0.4-0.6,0.9c-0.8,0-1.6-0.2-2.3-0.5
				c-0.7-0.3-1.5-0.5-2.3-0.6c0.5,0.2,1,0.4,1.5,0.6c-0.7,0.4-1.6,0-2.5-0.5C32.6,62.3,31.9,61.6,31.2,61.2z"/>
		</g>
	</g>
</g>
<g>
	<g>
		<g>
			<g class="st1">
				<path class="st2" d="M45.7,5.7c0.7-0.9,1.5-1.7,2.4-2.5l0.3-0.8l0.1,1.1c0.5,1.8,1.6,3.8,1.5,5.6c-0.2-0.4-0.5-0.8-0.7-1.2
					c-0.1-0.1-0.2-0.3-0.3-0.4c-0.2-0.2-0.3-0.5-0.4-0.7l0.2,0.1l-1.2-0.4l-0.5-0.8l0.5,0.8L45.7,5.7"/>
				<path class="st2" d="M57.8,34.4L57.8,34.4l0.1,0.4c-0.5,1.2-1.2,2.4-1.8,3.6c-0.9,1.4-2.2,2.6-3.8,3.5c-0.3,0.2-0.7,0.3-1,0.5
					c0.5-0.6,1-1.2,1.5-1.8l0.2-0.1c1.3-0.8,2.2-1.9,2.9-2.9C56.6,36.5,57.2,35.5,57.8,34.4"/>
				<path class="st3" d="M52.5,44.3c-0.7,0.6-1.8,1.2-2.3,1.5c-0.7,0.4-1.3,0.8-1.9,1.1l-0.1-0.4c0.7-0.3,1.4-0.8,2.3-1.2
					c0.1,0,0.2-0.1,0.4-0.1c0.2,0,0.3-0.1,0.5-0.2L51,45C51.5,44.8,52,44.5,52.5,44.3"/>
				<polyline class="st3" points="49,45.4 47.9,46.1 47.8,46 49,45.4 				"/>
				<polyline class="st3" points="49.8,29.9 50.1,29.9 49.9,30 49.8,29.9 				"/>
				<polyline class="st3" points="42.8,29.9 43.2,30 42.8,29.9 				"/>
				<polyline class="st3" points="43.2,30 43.2,30 43.2,30 				"/>
				<polyline class="st3" points="42.1,45.2 42.4,45.3 42.1,45.2 				"/>
				<polyline class="st3" points="41.5,31.4 41.6,31.5 41.5,31.4 				"/>
				<polyline class="st3" points="59.3,17.1 59.5,16 59.3,17.1 				"/>
				<path class="st3" d="M50.1,29.9c0.2,0,0.4-0.1,0.6-0.1C50.5,29.8,50.3,29.8,50.1,29.9"/>
				<polyline class="st3" points="43,46 43.4,46 43.1,46 43,46 				"/>
				<polyline class="st3" points="41.6,45 42.1,45.2 41.8,45.1 41.6,45 				"/>
				<polyline class="st3" points="45.4,45.7 44.8,46.1 44.7,46.1 44.8,46.1 44.7,46.1 44.6,46 45.4,45.7 				"/>
				<path class="st3" d="M42.3,45.7L43,46l0.4,0h-0.3c0.7,0.2,1.6,0.4,2.6,0.4l0-0.3l-1.2,0.2l0.3-0.2l-0.1,0l-0.2,0l0.2-0.1
					l-1.2-0.2l0.5,0.2l-0.6-0.2l0.1,0l-0.5-0.2L42.3,45.7 M43.4,45.9L43.4,45.9L43.4,45.9"/>
				<polyline class="st4" points="43.1,46 43.4,46 43.1,46 				"/>
				<polyline class="st4" points="44.7,46.1 44.8,46.1 44.7,46.1 				"/>
				<path class="st3" d="M41,45.2l0.2,0l0.3,0l1.1,0.3l0.2,0.1l-0.6,0.1C41.8,45.5,41.4,45.3,41,45.2"/>
				<polyline class="st3" points="44.4,46.1 44.6,46 44.7,46.1 44.4,46.1 				"/>
				<polyline class="st4" points="44.4,46.1 44.6,46 44.4,46.1 				"/>
				<polyline class="st3" points="40.9,45.2 41,45.1 41.2,45.2 41,45.2 40.9,45.2 				"/>
				<polyline class="st3" points="41,45.1 41,45.1 41,45.1 				"/>
				<polyline class="st3" points="41.1,45.1 41.6,45 41.3,45.1 41.1,45.1 				"/>
				<polyline class="st4" points="44.7,46.1 44.8,46.1 44.7,46.1 				"/>
				<polyline class="st3" points="41,45.1 41.1,45.1 41,45.1 				"/>
				<polyline class="st3" points="41,45.1 41.1,45.1 41.3,45.1 41.5,45.2 41.2,45.2 41.5,45.2 41.2,45.2 41,45.1 				"/>
				<polyline class="st4" points="41,45.1 41.1,45.1 41,45.1 41,45.1 				"/>
				<polyline class="st4" points="41.1,45.1 41.3,45.1 41.1,45.1 				"/>
				<polyline class="st4" points="41.2,45.2 41.5,45.2 41.2,45.2 				"/>
				<polyline class="st3" points="41.3,45.1 41.6,45 41.8,45.1 41.3,45.1 				"/>
				<polyline class="st4" points="41.6,45 41.8,45.1 41.6,45 				"/>
				<polyline class="st4" points="41.3,45.1 41.6,45 41.3,45.1 				"/>
				<polyline class="st3" points="41.3,45.1 41.8,45.1 42.1,45.3 41.6,45.2 41.5,45.2 41.3,45.1 				"/>
				<polyline class="st4" points="41.3,45.1 41.8,45.1 41.3,45.1 				"/>
				<polyline class="st4" points="43.3,46 43.4,45.9 43.3,46 				"/>
				<polyline class="st3" points="43.4,45.9 43.5,45.9 44,46.1 43.4,45.9 				"/>
				<polyline class="st4" points="43.4,45.9 43.5,45.9 43.4,45.9 				"/>
				<polyline class="st4" points="43.5,45.9 44,46.1 43.5,45.9 				"/>
				<polyline class="st3" points="42.7,45.5 43,45.6 42.9,45.7 42.7,45.5 				"/>
				<polyline class="st3" points="41.5,45.2 41.6,45.2 42.7,45.5 41.5,45.2 				"/>
				<polyline class="st4" points="41.5,45.2 41.6,45.2 41.5,45.2 41.6,45.2 41.5,45.2 				"/>
				<polyline class="st5" points="41.5,45.2 41.6,45.2 41.5,45.2 				"/>
				<polyline class="st3" points="42.9,34.3 43.9,34.5 42.8,34.4 42.9,34.3 				"/>
				<polyline class="st3" points="43.3,34 44.3,34.5 43.1,34.2 43.3,34 				"/>
				<path class="st3" d="M43.4,32.4c0.7-0.2,1.4-0.4,2-0.2l-0.9,0.2l0,0L43.4,32.4"/>
				<polyline class="st3" points="43.4,32.4 44.5,32.3 44.5,32.3 43.4,32.4 				"/>
				<polyline class="st4" points="43.4,32.4 44.5,32.3 43.4,32.4 				"/>
				<polyline class="st3" points="43.5,33.9 43.8,34.1 43.3,34 43.5,33.9 				"/>
				<polyline class="st3" points="41.1,34.8 41.5,34.8 41.1,34.8 				"/>
				<path class="st6" d="M30.2,43.4l-0.1,0.3l0,0.6c0.7-0.4,1.4-0.7,2-1.2l-0.3,0c0.7-0.6,1.4-0.7,2.1-1
					C32.7,42.3,31.5,43.1,30.2,43.4"/>
				<polyline class="st3" points="34.7,41 34.9,40.9 34.7,41 				"/>
				<polyline class="st3" points="32.1,43.2 32.4,42.9 32.1,43.2 				"/>
				<polyline class="st3" points="34.3,41.1 34.7,41 34.3,41.1 				"/>
				<polyline class="st3" points="41.6,36.1 42,36.1 42.5,36.3 41.7,36.2 41.6,36.1 				"/>
				<polyline class="st3" points="41.6,36 42,36.1 41.6,36.1 41.6,36 				"/>
				<polyline class="st3" points="41.3,35.4 41.7,35.5 42.5,35.8 41.5,35.8 41.3,35.4 				"/>
				<polyline class="st3" points="41.3,35.4 41.7,35.5 41.3,35.4 41.3,35.4 				"/>
				<polyline class="st3" points="41.2,35.2 42.2,35.5 41.7,35.5 41.3,35.4 41.2,35.2 				"/>
				<path class="st6" d="M41.7,36.2l0.8,0.1L42,36.1c0.7-0.1,1.5-0.2,2.2-0.2c-0.3,0.2-0.7,0.3-1,0.4c-0.6,0.2-1.2,0.3-1.9,0.4
					L41.7,36.2"/>
				<polyline class="st7" points="41.7,36.2 42.5,36.3 41.7,36.2 				"/>
				<path class="st3" d="M41.1,36.9c1,0,2.1-0.2,2.9,0.3c-0.1,0-0.1,0-0.2,0.1c-1.2,0.4-2.4-0.2-3.6,0.2l-0.1,0
					c0.8,0.2,1.8,0.3,2.5,0.5c-1.1-0.1-2.1-0.3-3.2-0.4C40,37.4,40.5,37.1,41.1,36.9"/>
				<polyline class="st3" points="43,37.9 44.5,38.4 43.9,38.4 43,37.9 				"/>
				<polyline class="st3" points="46.5,38.4 46.7,38.4 46.8,38.4 46.5,38.4 				"/>
				<path class="st3" d="M45.2,38.3l0.4,0c0.3,0,0.6,0,0.9,0l0.2,0C46.2,38.4,45.7,38.4,45.2,38.3 M45.5,38.4c0.3,0,0.6,0,0.9,0
					C46.2,38.4,45.8,38.4,45.5,38.4"/>
				<path class="st3" d="M43.9,38.4l0.6,0l1,0c0.3,0,0.6,0,0.9,0h0.3l-0.1,0c0.5,0.1,1,0.2,1.6,0.3c-0.5,0.2-1,0.3-1.5,0.4
					C45.8,38.8,44.8,38.7,43.9,38.4"/>
				<polyline class="st4" points="43.9,38.4 44.5,38.4 43.9,38.4 				"/>
				<polyline class="st4" points="46.5,38.4 46.8,38.4 46.5,38.4 				"/>
				<path class="st4" d="M45.5,38.4c0.3,0,0.6,0,0.9,0C46.2,38.4,45.8,38.4,45.5,38.4"/>
				<path class="st4" d="M45.5,38.4c0.3,0,0.6,0,0.9,0C46.2,38.4,45.8,38.4,45.5,38.4"/>
				<path class="st3" d="M47.2,39.3c0.4-0.1,0.8-0.1,1.2-0.2c0.4,0,0.8-0.1,1.2,0c-0.6,0.3-1.2,0.7-1.7,0.9l0.1-0.4L47.2,39.3"/>
				<path class="st3" d="M47.9,26.2c0.1-0.1,0.2-0.2,0.3-0.3l0.1,0.1C48.2,26.1,48,26.2,47.9,26.2"/>
				<path class="st8" d="M41.2,14.3c0.6-1.9,1.4-3.7,2.3-5.4l1,1.6c0.9,1.8,1,4.1-0.4,5.1c-0.2,0.1-0.4,0.2-0.7,0.3
					C42.8,15.2,41.9,14.7,41.2,14.3"/>
				<path class="st3" d="M45.4,19.7l0.1-0.3c0.4,0.2,0.8,0.1,1.2,0.6C46.2,20.1,45.8,19.9,45.4,19.7"/>
				<path class="st9" d="M43.8,18.1c0.4-0.7,0.2-1.4-0.2-1.9c-0.1-0.1-0.2-0.3-0.3-0.4c0.3-0.1,0.5-0.2,0.7-0.3
					c1.4-0.9,1.3-3.2,0.4-5.1c0.8,1.3,1.6,2.6,2.5,3.9l0.8,1.3c0.8,1.3,1.5,2.5,2.2,3.8l0.3-0.4c-0.1-0.3-0.2-0.7-0.4-1
					c-0.2-0.3-0.3-0.6-0.5-0.9l-0.2-0.3c-0.3-0.6-0.6-1.1-0.9-1.6c-0.2-0.6-0.5-1.1-0.5-1.7c0.6,0.6,1.2,1.3,1.6,2
					c0.3,0.5,0.5,1,0.7,1.6c0.6,1.6,0.7,3.4,0.3,5c-0.1,0.5,0,1.3,0.1,1.9l-0.2-0.9l-0.5,0c-0.2,0.5-0.4,1.1-0.6,1.4
					c0-0.1,0-0.2,0-0.3c0-0.3-0.1-0.8-0.1-1.2L49.1,22c0-0.2-0.1-0.5-0.2-0.7l0,0c-0.3-0.7-0.8-1.3-1.4-1.9c0.1,0.3,0.2,0.6,0.2,1
					c-0.1,0.2-0.2,0.3-0.3,0.4c-0.5,0.3-1.5-0.4-2.1-1l0-0.1c0.4,0.2,0.8,0.5,1.2,0.3c-0.4-0.6-0.8-0.4-1.2-0.6l0.4-0.5l0-0.9
					c0.9,0,0-1.2,0.7-1.4c-0.1-0.5-0.2-1-0.3-1.5l-1.1-0.3C45.1,16.1,45,17.5,43.8,18.1"/>
				<path class="st4" d="M44.1,15.6c1.4-0.9,1.3-3.2,0.4-5.1C45.4,12.3,45.5,14.6,44.1,15.6"/>
				<path class="st10" d="M45.5,19.4c0.4,0.2,0.8,0.1,1.2,0.6C46.3,19.4,45.8,19.6,45.5,19.4"/>
				<path class="st3" d="M48.9,25.2c0.2-0.2,0.3-0.4,0.4-0.6c0-0.1,0-0.2,0-0.3c0-0.3-0.1-0.8-0.1-1.2l-0.1,0c0,0.4,0,0.8,0,1.1
					c-0.1-0.4-0.2-0.7-0.3-1.1c-0.1,0.3-0.1,0.5-0.1,0.8c0,0.3,0.1,0.5,0.1,0.7L48.9,25.2 M49.4,24.3c0-0.3-0.1-0.8-0.1-1.2
					C49.3,23.5,49.4,24,49.4,24.3"/>
				<path class="st4" d="M49.4,24.3c0-0.3-0.1-0.8-0.1-1.2C49.3,23.5,49.4,24,49.4,24.3"/>
				<polyline class="st3" points="45.2,19.6 45.5,19.4 45.4,19.7 45.2,19.6 				"/>
				<polyline class="st3" points="49.7,10 50,9.7 49.7,10 				"/>
				<path class="st11" d="M41.1,22.4c0.6-1.8,2.8-2,4.1-2.9l0.2,0.1l0,0.1c0.5,0.6,1.5,1.3,2.1,1c0.1-0.1,0.2-0.2,0.3-0.4
					c-0.1-0.3-0.1-0.6-0.2-1c0.5,0.6,1.1,1.2,1.4,1.9c0.1,0.2,0.2,0.5,0.2,0.7l0.2,1.1l-0.1,0l-0.2-1c-0.3,0.7,0,1.5,0.1,2.1
					c-0.1-0.4-0.2-0.7-0.3-1.1c-0.1,0.3-0.1,0.5-0.1,0.8c0,0.3,0.1,0.5,0.1,0.7l-0.3,0c-0.3,0.2-0.6,0.5-0.9,0.6
					c0.1-0.1,0.2-0.3,0.2-0.4c0.1-0.2,0.1-0.4,0.2-0.6L47.5,24c-0.3,0.3-0.7,0.7-1.1,1.1c-0.3,0.4-0.8,0.6-1.1,0.8
					c0.2-0.1,0.4-0.2,0.6-0.4c0.2-0.2,0.3-0.5,0.5-0.8c0.3-0.6,0.4-1.3,0.2-2.1l-0.5,0.1l0.2-0.4c-0.6,0.7-0.7,1.5-1.4,2.1
					c0.1-0.4,0.3-0.7,0.4-1.1c-0.5,0.3-0.7,0.8-1.1,1.1c0.4-0.9,1.8-1.7,1.5-2.5l0,0l0-0.1c-0.7-1.5-2.4-0.6-3.3,0.6l0.1-0.4
					C42,21.6,41.6,22.4,41.1,22.4"/>
				<path class="st12" d="M47.4,20.8c0.1-0.1,0.2-0.2,0.3-0.4c-0.1-0.3-0.1-0.6-0.2-1c0.1,0.3,0.2,0.6,0.2,1
					C47.7,20.6,47.6,20.7,47.4,20.8"/>
				<path class="st12" d="M47.5,19.4c0.5,0.6,1.1,1.2,1.4,1.9C48.6,20.6,48.1,20,47.5,19.4"/>
				<path class="st13" d="M49.1,24.2c-0.1-0.4-0.2-0.7-0.3-1.1C48.9,23.5,49,23.9,49.1,24.2"/>
				<polyline class="st13" points="49.2,23.1 49.3,23.1 49.2,23.1 				"/>
				<path class="st11" d="M50.9,25.6l0.1,0.2l0.4,0.2l0-0.3l0,0.3l0.4,0c0.1-0.2,0.3-0.5,0.4-0.8l0,0.4c0.1-0.2,0.3-0.5,0.4-0.7
					l-0.2,0.9l0.2,0l0.1-0.3c0.1-0.7-0.2-1.5-0.1-2.2c0.2,0.3,0.3,0.6,0.3,0.9c0.2,0.6,0.2,1.3,0.3,2l0.2,0.2c0.1-0.9,0-2,0.5-2.8
					c0,0.1,0,0.1,0.1,0.2c0.2,0.7,0.1,1.3,0,1.9c-0.1,0.6-0.2,1.1-0.1,1.8l0,0.1c0.4-0.6,0.6-1.6,0.9-2.3c-0.1,1.1-0.5,2.1-1,3v0.1
					c-0.2,1.2-0.8,2.2-1.6,2.9c0.5-0.2,0.9-0.6,1.3-0.9c-0.4,0.4-0.8,0.7-1.3,0.9c-1.4,1.2-3,1.8-4.5,2c0.5,0.1,1,0.1,1.6,0.1
					c-0.3,0.8-1.2,1.2-1.8,1.7c1.3-0.2,2.6-0.4,3.8-1.1c-1.2,0.7-2.5,0.8-3.8,1.1l-0.2,0.1c1.3,0.3,2.7-0.2,4.1-0.5
					c-0.8,0.4-1.6,0.4-2.4,0.8l0.3,0l0.4-0.2l-0.4,0.2c-0.8,0.4-1.6,0.4-2.4,0.4c-0.4,0.9-1.1,1.8-2,2.1l-0.4,0.1l1,0l-0.4,0
					c0.5,0,1,0.1,1.5,0.1c0.5,0.1,1,0.2,1.6,0.3c-0.5,0.2-1,0.3-1.5,0.4l0.5,0.2c0.4-0.1,0.8-0.1,1.2-0.2c0.4,0,0.8-0.1,1.2,0
					c-0.6,0.3-1.2,0.7-1.7,0.9l-0.7,1l0.4,0.8c0.4,0.2,0.9,0.3,1.5,0.3c0.3,0,0.6-0.1,1-0.2s0.8-0.3,1.1-0.5l0.3-0.2L51,40.6
					l0.7,0.2c0.2-0.3,0.3-0.6,0.5-0.9l0.8-0.4c0.1-0.6,0.5-1.1,1-1.5c0.5-0.4,1.1-0.8,1.6-1.2L55,37.1c0-0.4,0.1-0.7,0.4-1
					c0.4-0.4,1-0.7,1.3-1c0.3-0.2,0.7-0.4,1-0.7l0-0.1l0,0l0,0c0.3-0.4,0.6-0.9,0.9-1.3c0.2-0.2,0.4-0.5,0.6-0.7l0.4-0.4l-0.4,0.4
					c-0.1,0.2-0.2,0.3-0.3,0.5l0.5-0.3c-0.2,0.3-0.4,0.5-0.6,0.8c0.5-0.5,0.9-1,1.3-1.6c0.1-0.2,0.2-0.4,0.3-0.6l0,0.2
					c0.2-0.3,0.4-0.5,0.5-0.8c0.3-0.6,0.5-1.2,0.7-1.9c0-0.5-0.1-0.9-0.2-1.4c0.1,0.4,0.2,0.8,0.2,1.2l0.1,0.6
					c0.1-0.7,0.1-1.4,0.1-2.1l0.3,0.1c0.1-0.9,0-2-0.2-3.1l0-0.1c-0.2-0.6-0.5-1.2-0.7-1.8c0.2,0.5,0.5,1,0.7,1.6l0.4-0.2
					c-0.2-0.5-0.4-1.1-0.6-1.6c-0.2-0.5-0.4-1.1-0.6-1.6c-0.1-0.2-0.1-0.4-0.2-0.6l0,0.2c-0.2-0.4-0.3-0.8-0.5-1.1
					c-0.4-0.6-0.9-1.1-1.3-1.6l-0.1,0.6l0.1-0.6c-1.7-1.7-3.5-2.9-5.3-3.3c0.7,0.7,1.5,1.4,2.3,2c1,1,1.7,2.1,2.2,3.4l0.2,0.4
					c-0.4-0.4-0.9-0.8-1.3-1.2l0,0.1l-0.4-0.3l0.4,0.1c-0.9-2.2-2.7-3.2-3.7-4.9l0.4,0.2c-0.8-0.9-1.7-1.7-2.6-2.5L49.6,11l0.5,0.9
					l-0.5-0.4c-0.1,0-0.4-0.2-0.5-0.2c-0.2,0.1,0,0.5,1.1,2.3l0.7,0.9c-1-0.9-1.9-1.5-3.1-1.8l0.1,0.9c0.6,0.6,1.2,1.3,1.6,2
					c0.3,0.5,0.5,1,0.7,1.6c0.6,1.6,0.7,3.4,0.3,5c-0.1,0.5,0,1.3,0.1,1.9l0,0.1c0.1-0.1,0.1-0.2,0.2-0.4c0,0.2,0,0.3-0.1,0.5
					c0.2-0.3,0.4-0.6,0.5-0.9c-0.1,0.4-0.2,0.8-0.4,1.1l0.1,0.1c0.1-0.3,0.2-0.6,0.3-0.9c0,0.3-0.1,0.6-0.2,1l0.2,0.2
					C51.2,25.1,51,25.4,50.9,25.6 M51.7,33.8c-1,0.4-2.1,0.5-3.2,0.8C49.6,34.3,50.7,34.2,51.7,33.8l0.4-0.2l0.2-0.2l-0.2,0.2
					L51.7,33.8l-0.1-0.1c0.3-0.2,0.6-0.4,0.9-0.6c-0.3,0.2-0.6,0.4-0.9,0.6L51.7,33.8 M54.2,29.2c-0.2,0.9-1.1,1.2-1.5,1.8
					C53.2,30.4,54.1,30.1,54.2,29.2 M54.3,28.4L54.3,28.4c0-0.3,0-0.5,0.1-0.7C54.3,27.9,54.3,28.2,54.3,28.4L54.3,28.4
					c-0.2,0.8-0.7,1.2-1.1,1.8C53.6,29.6,54.1,29.2,54.3,28.4 M52,33.2l0.2-0.4L52,33.2 M52.1,15.7c-0.4-0.4-0.8-0.8-1.3-1.2
					C51.2,14.9,51.7,15.3,52.1,15.7 M52.1,15.7c-0.4-0.4-0.8-0.8-1.3-1.2C51.2,14.9,51.7,15.3,52.1,15.7 M52.1,15.7l0.2,0.2l0.2,0.2
					l0.2,0.2l0.2,0.2l0,0l0.2,0.2l0.2,0.2l0.2,0.2l0.2,0.2l0.2,0.2l0.1,0.2l0.2,0.2l0.2,0.2l0.2,0.2l0.2,0.1l0.2,0.2l0.2,0.1
					c-0.5-0.9-1.3-1.6-2-2.2l-0.1-0.1l-0.1,0l-0.3-0.2l-0.1,0L52.5,16l-0.1-0.1L52.1,15.7 M50.1,11.9l0.2,0.3l0.1,0.2l0.1,0.2
					l0.2,0.2L51,13l0.1,0.1c0.1,0.1,0.2,0.2,0.3,0.3l0,0l0.2,0.2l-0.2-0.2l0.2,0.2l-0.2-0.2l0,0c0.1,0.1,0.1,0.1,0.2,0.2
					c-0.1-0.1-0.2-0.1-0.3-0.2l-0.1-0.1L51,13L51,12.9l-0.2-0.2l-0.1-0.1l-0.1-0.1C50.4,12.2,50.3,12,50.1,11.9 M51,40.6l-0.1-0.1
					l-0.4,0L51,40.6"/>
				<path class="st2" d="M52.1,15.7c0.3,0.2,0.5,0.5,0.8,0.8l-0.2-0.2l-0.2-0.2l-0.2-0.2L52.1,15.7"/>
				<polyline class="st2" points="52.3,15.9 52.5,16 52.7,16.2 52.8,16.3 52.3,15.9 				"/>
				<path class="st2" d="M52.9,16.5c0.8,0.8,1.5,1.6,2.3,2.3l-0.2-0.1l-0.2-0.2l-0.2-0.1l-0.2-0.2l-0.2-0.2L54,17.7l-0.1-0.2
					l-0.2-0.2l-0.2-0.2l-0.2-0.2L53,16.8L52.9,16.5"/>
				<polyline class="st2" points="53,16.5 53.1,16.5 53.2,16.6 53,16.5 				"/>
				<polyline class="st14" points="57.8,34.3 57.8,34.4 57.8,34.4 57.8,34.3 				"/>
				<polyline class="st13" points="59.1,17.7 59.3,17.1 59.1,17.7 				"/>
				<polyline class="st13" points="45.2,38.3 45.5,38.4 45.2,38.3 				"/>
				<path class="st13" d="M46.7,39.2c0.5-0.1,1-0.3,1.5-0.4C47.7,38.9,47.2,39,46.7,39.2"/>
				<path class="st13" d="M49.6,39.1c-0.6,0.3-1.2,0.7-1.7,0.9C48.4,39.8,49,39.5,49.6,39.1"/>
				<polyline class="st15" points="52.1,15.7 52.3,15.9 52.5,16.1 52.6,16.3 52.8,16.5 52.6,16.3 52.5,16.1 52.3,15.9 52.1,15.7 
									"/>
				<polyline class="st15" points="52.3,15.9 52.5,16 52.7,16.2 52.8,16.3 52.7,16.2 52.5,16 52.3,15.9 				"/>
				<polyline class="st15" points="52.9,16.5 53,16.7 53.2,16.9 53.4,17.1 53.6,17.4 53.8,17.5 53.9,17.7 54.2,17.9 54.4,18.1 
					54.6,18.3 54.7,18.5 54.9,18.7 55.2,18.8 54.9,18.7 54.7,18.5 54.6,18.3 54.4,18.1 54.2,17.9 53.9,17.7 53.8,17.5 53.6,17.4 
					53.4,17.1 53.2,16.9 53,16.7 52.9,16.5 				"/>
				<polyline class="st15" points="53,16.5 53.1,16.5 53.2,16.6 53.1,16.5 53,16.5 				"/>
				<path class="st15" d="M50.8,14.5c0.4,0.4,0.8,0.8,1.3,1.2C51.7,15.3,51.2,14.9,50.8,14.5"/>
				<path class="st15" d="M50.8,14.5c0.4,0.4,0.8,0.8,1.3,1.2C51.7,15.3,51.2,14.9,50.8,14.5"/>
				<path class="st12" d="M50.7,24c-0.1-0.6-0.2-1.4-0.1-1.9c0.4-1.6,0.3-3.3-0.3-5c0.6,1.6,0.7,3.4,0.3,5
					C50.5,22.7,50.6,23.4,50.7,24"/>
				<path class="st12" d="M47.9,13.6c0.6,0.6,1.2,1.3,1.6,2C49,14.8,48.5,14.1,47.9,13.6"/>
				<path class="st2" d="M50.6,12.6l-0.1-0.2c0.2,0.3,0.4,0.5,0.7,0.8L51,13l-0.2-0.2L50.6,12.6"/>
				<polyline class="st2" points="50.6,12.4 50.7,12.5 50.8,12.7 50.6,12.4 				"/>
				<path class="st2" d="M51,12.9L51,12.9l0.3,0.3l0.1,0.1C51.2,13.2,51.1,13.1,51,12.9"/>
				<polyline class="st2" points="51.4,13.4 51.4,13.4 51.4,13.4 51.4,13.4 				"/>
				<polyline class="st3" points="49.8,10.2 49.9,10.3 49.8,10.2 				"/>
				<path class="st8" d="M49.6,11c-0.7-1.5-1.2-3.1-2-4.4l1.1,0.4l-0.2-0.1C48.7,7,48.8,7.2,49,7.5c0.1,0.1,0.2,0.2,0.3,0.4
					c0.3,0.4,0.6,0.8,0.7,1.2l0,0.7l0,0L49.7,10l-0.5-0.1l0.5,0.3l0.1,0.1l1.5,1L49.6,11"/>
				<path class="st16" d="M49,7.5c-0.2-0.2-0.3-0.5-0.4-0.7C48.7,7,48.8,7.2,49,7.5c0.1,0.1,0.2,0.2,0.3,0.4
					C49.2,7.7,49.1,7.6,49,7.5"/>
				<polyline class="st16" points="48.6,6.8 48.7,6.9 48.6,6.8 				"/>
				<polyline class="st17" points="49.7,10 50,9.8 50,9.7 49.7,10 				"/>
				<polyline class="st16" points="49.6,11 51.4,11.3 49.6,11 				"/>
				<path class="st8" d="M46.8,12.5c-0.5-0.8-0.9-1.9-1.3-2.9c1.3,0.1,2.8,0.8,4.1,1.3l0.5,0.9l-0.5-0.4c-0.1,0-0.4-0.2-0.5-0.2
					c-0.2,0.1,0,0.5,1.1,2.3l0.7,0.9c-1-0.9-1.9-1.5-3.1-1.8l0.1,0.9l-0.4-0.3c-0.2-0.1-0.4-0.3-0.5-0.5
					C46.9,12.7,46.8,12.6,46.8,12.5"/>
				<path class="st16" d="M47.7,12.7c1.1,0.3,2.1,1,3.1,1.8C49.8,13.7,48.9,13,47.7,12.7"/>
				<path class="st16" d="M49,11.4c0.1,0,0.4,0.2,0.5,0.2l0.5,0.4l-0.5-0.4C49.5,11.5,49.2,11.3,49,11.4"/>
				<path class="st18" d="M47.8,15.7L47,14.4c-0.8-1.3-1.6-2.6-2.5-3.9c-0.2-0.4-0.4-0.9-0.7-1.2c-0.1-0.1-0.2-0.2-0.3-0.4
					c0.7-1.1,1.3-2.2,2.2-3.2l1.9,0.8c0.8,1.4,1.3,3,2,4.4c-1.4-0.5-2.8-1.2-4.1-1.3c0.4,1,0.8,2.1,1.3,2.9l0,0
					c0,0.1,0.1,0.1,0.2,0.2c0.2,0.2,0.3,0.4,0.5,0.5l0.4,0.3c0.1,0.6,0.3,1.1,0.5,1.7c0.3,0.6,0.6,1.1,0.9,1.6l0.2,0.3
					c0.2,0.3,0.3,0.6,0.5,0.9c0.2,0.3,0.3,0.6,0.4,1L50,19.5C49.3,18.2,48.5,16.9,47.8,15.7"/>
				<path class="st13" d="M47.8,15.7c0.8,1.2,1.5,2.5,2.2,3.8C49.3,18.2,48.5,16.9,47.8,15.7"/>
				<path class="st13" d="M47,14.4c-0.8-1.3-1.6-2.6-2.5-3.9C45.3,11.8,46.2,13.1,47,14.4"/>
				<path class="st13" d="M49.9,18.1c-0.2-0.3-0.3-0.6-0.5-0.9l-0.2-0.3c-0.3-0.6-0.6-1.1-0.9-1.6c0.3,0.6,0.6,1.1,0.9,1.6l0.2,0.3
					C49.6,17.5,49.8,17.8,49.9,18.1"/>
				<path class="st19" d="M46.8,12.5L46.8,12.5c0,0.1,0.1,0.1,0.2,0.2C46.9,12.7,46.8,12.6,46.8,12.5"/>
				<path class="st19" d="M45.5,9.6c1.3,0.1,2.8,0.8,4.1,1.3C48.2,10.5,46.8,9.7,45.5,9.6"/>
				<path class="st3" d="M44.5,10.5l-1-1.6c0.1,0.1,0.2,0.2,0.3,0.4C44.1,9.6,44.3,10.1,44.5,10.5"/>
				<polyline class="st17" points="44.5,10.5 43.5,8.9 44.5,10.5 				"/>
			</g>
		</g>
	</g>
</g>
<g>
	<g>
		<g>
			<g class="st1">
				<path class="st2" d="M16.9,26.9c0.2-1.2,0.7-2.4,1.3-3.5C18,23.1,18,22.7,18,22.3c0.3,0.6,0.7,1.2,1.1,1.8c1.2,1.5,3,3,4.9,4.6
					c1.8,1.6,3.7,3.2,5,4.9c-0.9-0.8-2-1.5-3.1-2.3c-0.4-0.2-0.7-0.5-1-0.7c-0.6-0.4-1.2-0.8-1.7-1.2l0.3,0.1L21,28.8
					c-0.6-0.5-1.3-1-1.9-1.4c0.6,0.5,1.3,1,1.9,1.4C19.6,28.2,18.2,27.6,16.9,26.9"/>
				<path class="st2" d="M59,53.5L59,53.5c0,0.2,0,0.4-0.1,0.7c-0.7,1.4-1.5,2.8-2.5,4.1c-0.5,0.7-1.1,1.3-1.7,1.9
					c-0.5,0.6-1.3,1.4-2.9,2.2c-1,0.5-2.4,0.9-3.9,0.9c-0.8,0-1.5-0.1-2.1-0.3c-0.6-0.1-1.2-0.3-1.3-0.4c-1.1-0.4-2.1-0.9-3.1-1.5
					c-2-1.2-4-2.8-5.6-4.5c-0.7-0.7-1.3-1.5-1.8-2.3c1.4,1.4,3,2.7,4.6,3.8l0.4,0.4c1.5,1.3,3.2,2.4,4.9,3.2
					c0.2,0.1,0.4,0.2,0.6,0.3l0.3,0.1l0.4,0.1c0.8,0.2,1.8,0.5,3.1,0.5c1.2,0,2.3-0.3,3.1-0.7c0.8-0.3,1.4-0.7,1.9-1.1
					c0.5-0.4,0.8-0.7,1.1-0.9c0.3-0.3,0.6-0.6,0.9-0.9c0.5-0.6,1-1.2,1.5-1.8C57.5,56,58.3,54.7,59,53.5"/>
				<path class="st3" d="M32.1,55.7c-3-3.3-4.9-7.4-4.4-12c0.1-0.7,0.2-1.3,0.3-1.9l0.5,0.1c-0.1,0.6-0.2,1.2-0.4,1.9
					c-0.2,2.2,0.1,4.5,0.9,6.6c0.3,0.8,0.6,1.5,0.9,2.3l-0.2-0.6C30.4,53.3,31.2,54.5,32.1,55.7"/>
				<path class="st3" d="M28.7,46c-0.1-0.7,0-1.4,0-2.2c0.1-0.7,0.2-1.4,0.4-2.1c0.1-0.2,0.2-0.3,0.3-0.5c-0.3,0.8-0.4,1.7-0.6,2.6
					C28.7,44.5,28.6,45.2,28.7,46"/>
				<polyline class="st3" points="51.6,48.5 52,48 51.6,48.7 51.6,48.5 				"/>
				<path class="st3" d="M47.3,45.5c-0.1,0.1-0.2,0.1-0.3,0.2c0,0-0.1,0.1-0.1,0.1c0,0,0.1-0.1,0.1-0.1
					C47.1,45.6,47.2,45.5,47.3,45.5"/>
				<path class="st3" d="M46.8,45.8C46.8,45.8,46.8,45.9,46.8,45.8C46.8,45.8,46.8,45.8,46.8,45.8"/>
				<polyline class="st3" points="32.2,38.8 32.6,39.4 32.2,38.8 				"/>
				<polyline class="st3" points="47.4,43.8 47.2,43.8 47.4,43.8 				"/>
				<polyline class="st3" points="52.2,49.1 51.2,47.5 52.2,49.1 				"/>
				<path class="st3" d="M52,48c0.3-0.3,0.6-0.6,0.9-0.9C52.6,47.4,52.3,47.8,52,48"/>
				<path class="st3" d="M32.9,40.8c0.2,0.2,0.4,0.5,0.6,0.8c-0.2-0.2-0.4-0.4-0.6-0.6L32.9,40.8"/>
				<path class="st3" d="M31.3,37.8c0.3,0.3,0.6,0.7,0.9,1l-0.6-0.6L31.3,37.8"/>
				<path class="st3" d="M41.8,39.3c0.1,0,0.2,0,0.2,0.1c0,0,0,0-0.1,0c-0.1,0-0.4,0.1-0.8,0.3c-0.2,0.1-0.4,0.3-0.7,0.5
					c-0.3,0.3-0.7,0.5-1.3,1.1l-1.3,1.2l-1.3,1.2l-0.6,0.6c0,0,0,0,0,0l-0.2-0.1L35.5,44l0.2,0.2L35.5,44l0,0l0.3,0.3l0,0
					c0,0,0,0,0,0c0,0,0,0,0,0l0.2-0.2l1.6-1.5l0.9-0.8l0.6-0.5c0.7-0.6,1.1-0.9,1.4-1.1C41.2,39.6,41.6,39.5,41.8,39.3
					C42,39.4,42,39.5,41.8,39.3"/>
				<path class="st3" d="M31.8,39.3c0.4,0.5,0.8,1,1.1,1.5c0.2,0.2,0.4,0.5,0.6,0.8c-0.2-0.2-0.4-0.4-0.6-0.6
					c0.5,0.8,1.1,1.5,1.7,2.3c0.3,0.4,0.6,0.8,0.8,1.2l0,0l0,0c0,0,0,0,0,0l0.4-0.3l2.3-2.1c1-0.9,1.4-1.2,1.8-1.6
					c0.7-0.6,1.1-0.8,1.4-1c0.6-0.3,0.7,0,0-0.3l-0.2-0.1L41.1,39L35,34.7l-0.1,0c-0.1,0.1-0.1,0.2-0.2,0.3l0.2-0.1l0.1-0.1
					c0,0,0.1,0,0.1,0l0,0h0h0c-5.3-3.7,7.2,5.1,5.9,4.2l0,0l0,0c0.2,0.1,0.3,0.2,0.5,0.3c0.2,0.1,0.4,0.1,0.3,0.1c0,0-0.2,0-0.5,0.1
					c-0.3,0.1-0.6,0.3-1.2,0.8l-0.5,0.4L39,41.3l-1.2,1.1l-2.2,2l-0.2-0.3L35,43.7l0.7,0.5L35.5,44l-0.3-0.4l0.4,0.4
					c-0.5-0.8-1.1-1.5-1.7-2.3c0.2,0.3,0.4,0.7,0.6,1c-0.3-0.4-0.5-0.8-0.8-1.2l0.2,0.2c-0.2-0.4-0.5-0.8-0.7-1.1
					C32.7,40.1,32.3,39.7,31.8,39.3 M33.7,41.5l-0.2-0.2L33.7,41.5"/>
				<path class="st4" d="M33,40.9c0.2,0.2,0.4,0.4,0.6,0.6C33.4,41.3,33.2,41.1,33,40.9"/>
				<polyline class="st4" points="35.5,44 35.6,44.2 35.5,44 				"/>
				<path class="st3" d="M29.6,36.5l0.6,0.5l0.8,0.7c0.7,0.8,1.4,1.6,2,2.4l0.3,0.5c-0.4-0.4-0.9-0.9-1.4-1.3
					C31.1,38.3,30.4,37.4,29.6,36.5"/>
				<polyline class="st3" points="35.1,43.6 35.5,44 35.5,44 35.1,43.6 				"/>
				<polyline class="st4" points="35.1,43.6 35.5,44 35.1,43.6 				"/>
				<path class="st3" d="M29.2,36.2l0.3,0.2l0.2,0.2l0.3,0.3l-0.6-0.5C29.5,36.4,29.5,36.4,29.2,36.2"/>
				<polyline class="st3" points="29.7,36.5 29.8,36.6 29.7,36.5 				"/>
				<path class="st3" d="M30,36.8c0.4,0.3,0.9,0.7,1.3,1l-0.7-0.5L30,36.8"/>
				<polyline class="st4" points="35.5,44 35.6,44.2 35.5,44 				"/>
				<polyline class="st3" points="29.7,36.5 30,36.8 29.7,36.5 				"/>
				<polyline class="st3" points="29.8,36.6 30,36.8 30.6,37.3 30.9,37.6 30.1,36.9 30.9,37.6 30.1,36.9 29.8,36.6 				"/>
				<polyline class="st4" points="29.7,36.5 30,36.8 29.8,36.6 29.7,36.5 				"/>
				<polyline class="st4" points="30,36.8 30.6,37.3 30,36.8 				"/>
				<polyline class="st4" points="30.1,36.9 30.9,37.6 30.1,36.9 				"/>
				<path class="st3" d="M30.6,37.3l0.7,0.5l0.3,0.4C31.3,37.9,30.9,37.5,30.6,37.3"/>
				<polyline class="st4" points="31.3,37.8 31.6,38.2 31.3,37.8 				"/>
				<polyline class="st4" points="30.6,37.3 31.3,37.8 30.6,37.3 				"/>
				<path class="st3" d="M30.6,37.3c0.3,0.3,0.6,0.6,1,0.9l0.4,0.7c-0.3-0.4-0.6-0.7-1-1.1l-0.1-0.1L30.6,37.3"/>
				<path class="st4" d="M30.6,37.3c0.3,0.3,0.6,0.6,1,0.9C31.3,37.9,30.9,37.5,30.6,37.3"/>
				<polyline class="st4" points="33.4,41.3 33.7,41.5 33.4,41.3 				"/>
				<path class="st3" d="M33.7,41.5l0.2,0.2c0.2,0.3,0.4,0.7,0.6,1C34.2,42.3,33.9,41.9,33.7,41.5"/>
				<polyline class="st4" points="33.7,41.5 33.9,41.7 33.7,41.5 				"/>
				<path class="st4" d="M33.9,41.7c0.2,0.3,0.4,0.7,0.6,1C34.2,42.3,34.1,42,33.9,41.7"/>
				<polyline class="st3" points="32.9,40 33.4,40.7 33.2,40.5 32.9,40 				"/>
				<path class="st3" d="M30.9,37.6l0.1,0.1c0.7,0.7,1.3,1.5,1.9,2.3C32.2,39.2,31.6,38.4,30.9,37.6"/>
				<polyline class="st4" points="30.9,37.6 31,37.7 30.9,37.6 31,37.7 30.9,37.6 				"/>
				<polyline class="st5" points="30.9,37.6 31,37.7 30.9,37.6 				"/>
				<path class="st3" d="M43.9,42.8c-0.6,0.3-1.3,0.7-1.9,1.1c0.7-0.5,1.4-0.9,2-1.3L43.9,42.8"/>
				<path class="st3" d="M43.4,43.5c-0.7,0.3-1.4,0.6-2,1.1c0.7-0.7,1.5-1.1,2.3-1.4L43.4,43.5"/>
				<path class="st3" d="M44.4,44.8c-0.2,0.2-0.3,0.4-0.3,0.6c-0.2,0.5-0.2,1,0,1.5c0.1,0.5,0.2,0.9,0.3,1.3
					c-0.3-0.5-0.6-1.1-0.7-1.7l0,0.1c0-0.4,0-0.8,0.3-1.2C44,45.2,44.2,44.9,44.4,44.8"/>
				<path class="st3" d="M44.4,44.8c-0.2,0.2-0.4,0.4-0.5,0.6c-0.2,0.4-0.3,0.8-0.3,1.2l0-0.1c0-0.4,0.1-0.8,0.3-1.1
					C44,45.2,44.2,44.9,44.4,44.8"/>
				<path class="st4" d="M44.4,44.8c-0.2,0.2-0.4,0.4-0.5,0.6c-0.2,0.4-0.3,0.8-0.3,1.2c0-0.4,0-0.8,0.3-1.2
					C44,45.2,44.2,44.9,44.4,44.8"/>
				<path class="st3" d="M43.1,43.8c-0.2,0.1-0.5,0.2-0.7,0.4c0.3-0.3,0.6-0.5,1-0.7C43.3,43.6,43.2,43.7,43.1,43.8"/>
				<polyline class="st3" points="43.7,35.5 44.4,36.4 43.7,35.5 				"/>
				<path class="st6" d="M32.2,15.2l0.4-0.7l0.5-1.1c-1.4,1.2-2.8,2.4-4.2,4.1l0.6-0.5c-1.4,1.8-2.7,3.1-3.9,5
					c1-1.3,2.1-2.6,3.3-3.8c0.6-0.6,1.1-1.1,1.7-1.6c0.3-0.2,0.5-0.5,0.8-0.7C31.6,15.6,31.9,15.4,32.2,15.2"/>
				<path class="st3" d="M24.6,25.1c0,0.2,0,0.5,0,0.7C24.5,25.6,24.5,25.4,24.6,25.1"/>
				<polyline class="st3" points="28.9,17.5 28.3,18.3 28.9,17.5 				"/>
				<path class="st3" d="M25.1,24.2c-0.2,0.3-0.4,0.6-0.5,1C24.7,24.8,24.9,24.5,25.1,24.2"/>
				<path class="st3" d="M43,36.7c0.2,0.3,0.4,0.5,0.7,1c0.1,0.2,0.3,0.5,0.3,0.9c0.1,0.4,0.1,0.8,0,1.3c0.1-0.4,0.1-0.9,0-1.2
					s-0.3-0.6-0.4-0.8C43.3,37.3,43.1,37.1,43,36.7L43,36.7"/>
				<path class="st3" d="M43,36.6c0.2,0.3,0.4,0.5,0.7,1C43.4,37.2,43.2,37,43,36.6L43,36.6"/>
				<path class="st3" d="M43.3,35.9l0.5,0.8c0.2,0.3,0.5,0.8,0.8,1.7c0.1,0.4,0.2,1,0,1.5c-0.2,0.5-0.4,0.9-0.6,1.1
					c0.2-0.2,0.6-0.8,0.6-1.5c0.1-0.7-0.2-1.3-0.3-1.6c-0.2-0.4-0.4-0.7-0.6-0.9l-0.4-0.5L43.3,35.9"/>
				<polyline class="st3" points="43.3,35.9 43.8,36.7 43.3,35.9 43.3,35.9 				"/>
				<path class="st3" d="M43.3,35.7l0.7,1.1c0.2,0.2,0.3,0.5,0.5,0.9c0.2,0.4,0.4,1,0.4,1.7c0-0.8-0.3-1.4-0.5-1.8
					c-0.2-0.4-0.5-0.7-0.6-0.9l-0.4-0.8L43.3,35.7"/>
				<path class="st6" d="M42.9,36.8c0.2,0.3,0.4,0.5,0.7,1c0.1,0.2,0.3,0.5,0.4,0.8c0.1,0.3,0.2,0.8,0,1.2c0.1-0.4,0.1-0.9,0-1.3
					s-0.2-0.7-0.3-0.9c0.2,0.3,0.5,0.7,0.6,1.4c0,0.3,0,0.7-0.1,1c-0.1,0.3-0.2,0.6-0.4,0.8c-0.3,0.4-0.7,0.6-1,0.9
					c-0.7,0.5-1.5,1.1-2.2,1.6c0.5-0.7,1.2-1.2,1.9-1.8c0.3-0.3,0.6-0.5,0.8-0.8l0.1-0.1c0-0.1,0.1-0.1,0.2-0.2
					c0.1-0.2,0.2-0.4,0.2-0.6c0.1-0.5,0-1-0.2-1.3c-0.3-0.7-0.7-0.9-1-1.3c-0.3-0.3-0.6-0.6-0.9-1C42.1,36.4,42.5,36.6,42.9,36.8"/>
				<path class="st7" d="M42.9,36.8c0.2,0.3,0.4,0.5,0.7,1c0.1,0.2,0.3,0.5,0.4,0.8c0.1,0.3,0.2,0.8,0,1.2c0.1-0.4,0.1-0.9,0-1.2
					s-0.3-0.6-0.4-0.8C43.3,37.3,43.1,37.1,42.9,36.8"/>
				<path class="st3" d="M41,35.7c0.4,0.5,0.8,1,1.3,1.5c0.2,0.3,0.4,0.5,0.6,0.8c0.2,0.3,0.5,0.8,0.5,1.3c0,0.6-0.4,1-0.6,1.1
					c-0.2,0.2-0.5,0.4-0.7,0.5c-0.5,0.3-1,0.6-1.5,0.8c0.1-0.1,0.3-0.2,0.4-0.4c0.3-0.3,0.7-0.6,1-0.8c0.3-0.3,0.6-0.5,0.8-0.9
					c0.2-0.4,0.1-0.9-0.1-1.2c-0.2-0.4-0.4-0.7-0.7-1c-0.9-1.2-1.8-2.4-3.2-3.6l-0.2-0.2c1,1.4,2.8,3.6,3.5,5.1
					c-1.5-2.2-3.1-4.3-4.8-6.3C38.6,33.6,39.8,34.6,41,35.7"/>
				<path class="st3" d="M42.4,39.5c0,0.1-0.1,0.1-0.2,0.2c-0.1,0.1-0.3,0.2-0.4,0.3c-0.3,0.2-0.6,0.4-0.9,0.5
					c-0.6,0.3-1.3,0.7-1.9,1.1c0.5-0.4,0.9-0.7,1.4-1l1.1-0.6c0.2-0.1,0.4-0.2,0.5-0.3C42.2,39.6,42.3,39.6,42.4,39.5"/>
				<path class="st3" d="M36.1,46c0,0.2,0,0.4,0,0.6l0,0.2C36.1,46.5,36.1,46.3,36.1,46"/>
				<path class="st3" d="M37.6,42.9c-0.2,0.2-0.5,0.5-0.6,0.8c-0.2,0.3-0.4,0.6-0.5,1c-0.2,0.5-0.3,0.9-0.3,1.4c0,0.2,0,0.4,0,0.6
					c0-0.7,0.1-1.3,0.3-2C36.7,44,37.1,43.4,37.6,42.9 M37,43.7c-0.2,0.3-0.4,0.6-0.5,1c-0.2,0.5-0.3,0.9-0.3,1.4
					c0-0.5,0.2-1,0.3-1.4C36.6,44.3,36.7,44,37,43.7"/>
				<path class="st3" d="M40.4,40.5c-0.5,0.3-1,0.7-1.4,1c-0.8,0.6-1.5,1.3-2,2.1c-0.2,0.3-0.4,0.6-0.5,1c-0.2,0.5-0.3,0.9-0.3,1.4
					c0,0.3,0,0.5,0,0.8l0-0.2c-0.1,1.2,0.2,2.4,0.6,3.6c-0.7-1.3-1.3-2.7-1.4-4.2c0.1-0.5,0.3-1,0.5-1.5
					C36.7,42.7,38.7,41.5,40.4,40.5"/>
				<path class="st4" d="M40.4,40.5c-0.5,0.3-1,0.7-1.4,1C39.4,41.2,39.9,40.9,40.4,40.5"/>
				<path class="st4" d="M36.1,46c0,0.3,0,0.5,0,0.8C36.1,46.5,36.1,46.3,36.1,46"/>
				<path class="st4" d="M37,43.7c-0.2,0.3-0.4,0.6-0.5,1c-0.2,0.5-0.3,0.9-0.3,1.4c0-0.5,0.2-1,0.3-1.4C36.6,44.3,36.7,44,37,43.7"
					/>
				<path class="st4" d="M37,43.7c-0.2,0.3-0.4,0.6-0.5,1c-0.2,0.5-0.3,0.9-0.3,1.4c0-0.5,0.2-1,0.3-1.4C36.6,44.3,36.7,44,37,43.7"
					/>
				<path class="st3" d="M35.2,47.2c0.4,2.2,1.5,4,2.2,5.6c-1.2-1.4-2.2-2.9-2.8-4.5c0.2,0.2,0.3,0.4,0.5,0.5
					C35.1,48.3,35.1,47.8,35.2,47.2"/>
				<path class="st3" d="M62.3,53.3c-0.3,0.6-0.6,1.1-0.9,1.7l0.1-0.6C61.8,54.1,62,53.7,62.3,53.3"/>
				<path class="st8" d="M21.2,40.7c-1.8-3.1-3.3-6-4-8.8c1.4,1,2.8,2,4.1,3c2.2,1.7,4.2,3.5,5.4,5.1c1.2,1.7,1.7,3,1.1,3.7
					c-0.2,0.2-0.4,0.3-0.8,0.3C25.2,42.6,23.2,41.5,21.2,40.7"/>
				<path class="st3" d="M36,52.7l-0.3-0.6c1,0.7,1.5,0.5,3,1.8C38,54.1,37,53.4,36,52.7"/>
				<path class="st9" d="M31,48.7c-0.5-1.4-1.6-2.7-2.9-3.9c-0.3-0.3-0.7-0.6-1-0.8c0.4,0,0.6-0.2,0.8-0.3c0.6-0.6,0.1-2-1.1-3.7
					c-1.2-1.7-3.2-3.5-5.4-5.1c1.7,1.2,3.4,2.3,5,3.6c1.6,1.2,3.2,2.6,4.7,4c1,0.9,2,1.9,3,2.8c2.9,2.8,5.8,5.6,8.9,8.3l-0.1-0.7
					l-2.1-2.1c-0.7-0.7-1.3-1.3-2-2l-0.6-0.6c-1.2-1.2-2.5-2.4-3.6-3.6c-1.1-1.2-2.2-2.3-3.1-3.5c1.8,1.3,3.6,2.9,5.3,4.5
					c1.1,1.1,2.2,2.2,3.2,3.3c3.1,3.4,6,6.9,8.6,10c0.5,0.5,1.1,1.2,1.9,1.8c0.2,0.2,0.4,0.3,0.6,0.5l0.3,0.2
					c0.1,0.1,0.3,0.2,0.7,0.4s0.8,0.3,1.4,0.3c0.7,0,1.3-0.3,1.7-0.7c0.4-0.3,0.6-0.6,0.7-0.8l0.3-0.4l-0.2,0.4
					c-0.1,0.2-0.3,0.5-0.6,0.8c-0.3,0.3-0.9,0.7-1.5,0.8c-0.7,0.1-1.2,0-1.5-0.2c-0.4-0.1-0.6-0.3-0.8-0.4c-0.2-0.1-0.2-0.2-0.3-0.2
					l-0.6-0.4L49.9,61l0.7,0.8l0.2,0.2c0,0.1,0.1,0.1,0.3,0.2c0.3,0.2,0.7,0.5,1.6,0.7c0.5,0.1,1,0.1,1.6,0c0.6-0.1,1.1-0.4,1.5-0.7
					c0.7-0.6,1-1,1.2-1.3c0.3-0.3,0.5-0.6,0.8-0.8l-0.7,1c-0.2,0.3-0.5,0.8-1.2,1.4c-0.4,0.3-0.9,0.6-1.5,0.7
					c-0.6,0.2-1.2,0.2-1.7,0.1c-1-0.2-1.4-0.5-1.7-0.7c-0.3-0.2-0.4-0.3-0.5-0.4l-1.5-1.2c-0.9-0.8-1.8-1.5-2.7-2.4
					c-0.5-0.5-1.1-1-1.6-1.5l0,0c-1.7-1.5-3.6-2.8-5.5-4.4l2,2.2c0.3,0.4,0.3,0.7,0.3,0.9c-0.3,0.6-3.2-1.3-5-2.8L36,52.7
					c1,0.7,2,1.3,2.6,1.2c-1.5-1.4-2-1.2-3-1.8l-0.1-0.9l-1.3-2c1.4,0.2-1.6-2.4-0.9-2.7c-0.8-1-1.7-2.1-2.6-3.1
					c-0.7-0.3-1.4-0.6-2.1-0.8C30.4,45.1,32,47.9,31,48.7"/>
				<path class="st4" d="M27.9,43.7c0.6-0.6,0.1-2-1.1-3.7c-1.2-1.7-3.2-3.5-5.4-5.1c2.2,1.7,4.2,3.5,5.4,5.1
					C27.9,41.6,28.4,43,27.9,43.7"/>
				<path class="st10" d="M35.7,52.1c1,0.7,1.5,0.5,3,1.8C37.1,52.5,36.7,52.8,35.7,52.1"/>
				<path class="st3" d="M59.4,58c-0.5,0.7-1.1,1.5-1.7,2.1l-0.7,1c-0.2,0.3-0.5,0.8-1.2,1.4c-0.4,0.3-0.9,0.6-1.5,0.7
					c-0.6,0.2-1.2,0.2-1.7,0.1c-1-0.2-1.4-0.5-1.7-0.7c-0.3-0.2-0.4-0.3-0.5-0.4l-1.5-1.2l-0.2,0c0.4,0.4,0.9,0.8,1.3,1.1
					c0.2,0.2,0.4,0.3,0.7,0.6c0.2,0.2,0.5,0.4,1.2,0.6c0.6,0.2,1.6,0.4,2.7,0.1c-0.6,0.2-1.2,0.2-1.7,0.2c-0.5,0-0.9-0.2-1.2-0.3
					c-0.6-0.2-0.9-0.5-1.1-0.6l-0.8-0.5c-0.5-0.4-1-0.7-1.5-1.1c0.5,0.6,1.1,1.1,1.8,1.7l0.3,0.2c0.1,0.1,0.2,0.2,0.4,0.3
					c0.2,0.2,0.6,0.3,1.1,0.5c0.5,0.2,1.3,0.3,2.2,0.2c0.9-0.1,1.8-0.6,2.4-1c0.6-0.5,0.9-0.9,1.1-1.2c0.2-0.3,0.3-0.5,0.4-0.6
					l0.2-0.3C58.4,60,58.9,59,59.4,58 M57,61.2c-0.2,0.3-0.5,0.8-1.2,1.4c-0.4,0.3-0.9,0.6-1.5,0.7c-0.6,0.2-1.2,0.2-1.7,0.1
					c-1-0.2-1.4-0.5-1.7-0.7c-0.3-0.2-0.4-0.3-0.5-0.4l-1.5-1.2l1.5,1.2c0.2,0.1,0.2,0.2,0.5,0.4c0.3,0.2,0.8,0.5,1.7,0.7
					c0.5,0.1,1.1,0.1,1.7-0.1c0.6-0.1,1.1-0.4,1.5-0.7C56.6,62,56.8,61.5,57,61.2"/>
				<path class="st4" d="M57,61.2c-0.2,0.3-0.5,0.8-1.2,1.4c-0.4,0.3-0.9,0.6-1.5,0.7c-0.6,0.2-1.2,0.2-1.7,0.1
					c-1-0.2-1.4-0.5-1.7-0.7c-0.3-0.2-0.4-0.3-0.5-0.4l-1.5-1.2l1.5,1.2c0.2,0.1,0.2,0.2,0.5,0.4c0.3,0.2,0.8,0.5,1.7,0.7
					c0.5,0.1,1.1,0.1,1.7-0.1c0.6-0.1,1.1-0.4,1.5-0.7C56.6,62,56.8,61.5,57,61.2"/>
				<polyline class="st3" points="35.6,52.4 35.7,52.1 36,52.7 35.6,52.4 				"/>
				<polyline class="st3" points="29.7,35.2 29.8,34.8 29.7,35.2 				"/>
				<path class="st11" d="M33.4,57.3c-2.2-4.1,1.3-3.4,2.1-4.9l0.4,0.3l0.2,0.3c1.8,1.5,4.8,3.5,5,2.8c0.1-0.1,0-0.4-0.3-0.9l-2-2.2
					c1.9,1.6,3.8,3,5.5,4.4c0.5,0.5,1.1,1,1.6,1.5c0.9,0.8,1.8,1.6,2.7,2.4l-0.2,0c-0.8-0.7-1.7-1.4-2.4-2.1
					c0.5,0.8,1.3,1.5,2.2,2.3c0.4,0.4,0.9,0.7,1.4,1.1l0.8,0.5c0.2,0.1,0.6,0.4,1.2,0.6c0.6,0.2,1.7,0.4,2.8,0.1
					c-0.6,0.2-1.2,0.2-1.7,0.2c-0.5,0-0.9-0.2-1.2-0.3c-0.6-0.2-0.9-0.5-1.1-0.6l-0.8-0.5c-0.5-0.4-1-0.7-1.5-1.1
					c0.5,0.6,1.1,1.1,1.8,1.7l0.3,0.2c0.1,0.1,0.2,0.2,0.4,0.3c0.2,0.2,0.6,0.3,1.1,0.5c0.5,0.2,1.3,0.3,2.2,0.2
					c0.9-0.1,1.8-0.6,2.4-1c0.6-0.5,0.9-0.9,1.1-1.2c0.2-0.3,0.3-0.5,0.4-0.6l0.2-0.3l0,0.3c0,0.1,0,0.2-0.1,0.4
					c0.2-0.2,0.2-0.2,0.3-0.3l0.2-0.2l0.5-0.4l1-0.8c-0.4,0.6-0.9,1.2-1.4,1.8c-0.2,0.2-0.5,0.8-1.4,1.6c-0.5,0.4-1.1,0.8-1.9,1.1
					c-0.8,0.3-1.7,0.4-2.4,0.3c-1.4-0.2-2.1-0.7-2.5-0.9c-0.5-0.3-0.4-0.3-0.6-0.5L48.1,63c0.2,0.4,0.4,0.8,0.6,1.2
					c0.1,0.2,0.2,0.4,0.4,0.7c0.2,0.2,0.5,0.4,1.1,0.8c0.6,0.3,1.5,0.7,2.9,0.8c0.7,0,1.5,0,2.3-0.2c0.8-0.2,1.5-0.6,2.1-1
					c1.2-0.8,1.8-1.5,2.2-2l0.4-0.5c0.1-0.1,0.1-0.1,0.2-0.2l0.4-0.4c0.5-0.5,1-1.1,1.5-1.8c-0.3,0.5-0.7,0.9-1,1.3l-0.5,0.6
					l-0.3,0.3c-0.1,0.1-0.1,0.1-0.4,0.5c-0.2,0.3-0.5,0.8-1.2,1.4c-0.6,0.6-1.6,1.4-3,1.9c-1.4,0.5-3,0.5-4,0.3
					c-1.1-0.2-1.8-0.6-2.2-0.8c-0.5-0.3-0.8-0.5-0.9-0.6L48.5,65L48,64.4c-1.4-1.5-2.8-3-4.7-4.8l-0.6,0.1l-0.6-0.9
					c0.4,1.5,2.3,3.5,2.7,4.9c-0.8-0.9-1.5-1.8-2.2-2.7c-0.2,0.5,0.9,1.9,1,2.6c-0.9-1.2-1.2-2.1-1.5-3c-0.3-0.9-0.7-1.8-1.9-2.8
					l-0.1-0.1l-0.2-0.2c-4-3.7-5.2-2.3-4.5,0.2l-0.6-0.9C33.4,55.7,34.1,57.4,33.4,57.3"/>
				<path class="st12" d="M41.2,55.9c0.1-0.1,0-0.4-0.3-0.9l-2-2.2l2,2.2C41.2,55.5,41.3,55.7,41.2,55.9"/>
				<path class="st12" d="M39,52.8c1.9,1.6,3.8,3,5.5,4.4C42.8,55.8,40.9,54.4,39,52.8"/>
				<path class="st13" d="M54.5,63.5c-0.6,0.2-1.2,0.2-1.7,0.2c-0.5,0-0.9-0.2-1.2-0.3c-0.6-0.2-0.9-0.5-1.1-0.6l-0.8-0.5
					c-0.5-0.4-1-0.7-1.5-1.1c0.5,0.4,1,0.7,1.5,1.1l0.8,0.5c0.2,0.1,0.5,0.3,1.1,0.6c0.3,0.1,0.7,0.2,1.2,0.3
					C53.3,63.7,53.9,63.7,54.5,63.5"/>
				<polyline class="st13" points="48.6,61 48.8,61.1 48.6,61 				"/>
				<path class="st11" d="M58.7,54.8c0-0.2,0.1-0.5,0.1-0.7c0-0.3,0-0.6,0-1c-0.1,0.3-0.3,0.7-0.4,1c0.1-0.3,0.3-0.7,0.4-1l-0.3-0.3
					c-0.4,0.8-0.8,1.5-1.3,2.2c0.2-0.4,0.4-0.8,0.6-1.3c-0.4,0.6-0.8,1.2-1.2,1.8c0.4-0.8,0.8-1.6,1.2-2.4l-0.2-0.1l-0.4,0.8
					c-0.8,1.9-1.8,4-2.9,5.4c0.4-0.8,0.7-1.6,1.1-2.4c0.8-1.7,1.5-3.4,2-5.3l0-0.7c-0.8,2.5-2,5.1-3.4,6.4c0.1-0.2,0.2-0.3,0.2-0.5
					c0.7-1.5,1.4-2.8,2-4.1c0.6-1.3,1.1-2.8,1.2-4.5l0-0.3c-0.3,0.8-0.6,1.9-1,2.9c-0.4,1-0.9,2-1.3,2.7c1.2-2.3,2.1-4.7,2.5-7.2
					l0-0.3c0-0.7-0.1-1.5-0.1-2.1l-0.1-0.9L57,43.7c-1.1,2.4-2.1,4.5-3.4,6.5c0.8-1,1.5-2,2.2-3.2c-0.7,1.1-1.4,2.2-2.2,3.2
					c-0.7,1-1.4,1.9-2.2,2.6c-0.4,0.4-0.8,0.7-1.2,1c-0.4,0.3-0.9,0.6-1.3,0.8c-0.4,0.2-0.6,0.1-0.7,0c-0.1,0-0.2-0.1-0.5-0.3
					c-0.2-0.1-0.4-0.3-0.6-0.4c-0.8-0.6-1.5-1.2-2.1-2c0.5,0.8,1.2,1.7,2,2.5c-1-0.3-2.1-0.9-3-1.6s-1.8-1.5-2.5-2.2
					c0.9,1.3,1.9,2.6,3.1,3.7c0.6,0.6,1.2,1.1,1.9,1.6c0.4,0.2,0.7,0.5,1.2,0.6c0.5,0.2,1,0.2,1.5,0c-0.5,0.2-1,0.2-1.5,0
					c-0.5-0.2-0.8-0.4-1.2-0.6c-0.7-0.5-1.3-1-1.9-1.6c-1.2-1.1-2.2-2.3-3.1-3.7L41,50.2c0.5,1.2,1.4,2.6,2.5,3.8
					c0.6,0.6,1.2,1.2,1.9,1.8c0.3,0.3,0.7,0.5,1,0.8c0.2,0.1,0.3,0.2,0.5,0.4c0.2,0.1,0.4,0.2,0.7,0.3c-0.8-0.2-1.1-0.5-1.6-0.8
					c-0.4-0.3-0.8-0.6-1.2-1c-0.8-0.7-1.6-1.4-2.5-2.3c0.1,0.2,0.2,0.4,0.4,0.6c0.3,0.2,0.5,0.5,0.8,0.7c-0.3-0.2-0.5-0.5-0.8-0.7
					C41,52.2,40,50.6,39.3,49c-0.6-0.5-1.2-1.1-1.6-1.9s-0.7-1.6-0.6-2.4c0.1-0.8,0.5-1.5,1-2.2c0.3-0.3,0.6-0.6,0.9-0.9
					c-0.8,0.6-1.5,1.3-2,2.1c0.2-0.3,0.4-0.5,0.6-0.8c-0.5,0.5-0.9,1.1-1.2,1.7c-0.3,0.6-0.4,1.3-0.3,2c-0.1,1.2,0.2,2.4,0.6,3.6
					c-0.7-1.3-1.3-2.7-1.4-4.2c-0.1,0.4-0.2,0.8-0.2,1.2c0.4,2.2,1.5,4,2.2,5.6c-1.2-1.4-2.2-2.9-2.8-4.5c-0.6-0.9-1-2-1.1-3
					c-0.3,0.1-0.6,0.3-0.9,0.4c-0.3,1-0.4,2.4,0.1,3.9c0.4,1.5,1.3,3.3,2.8,5c0.2,0.2,0.3,0.4,0.5,0.6l0.5-0.6
					c0.1,0.4,0.3,0.8,0.4,1.2c0.7,0.5,1.4,0.9,2.1,1.3c0.5,0.5,1.1,1.1,1.7,1.6c1.3,0.4,2.8,1.2,4.4,2l0.3,0.1
					c0.1,0,0.3,0.1,0.5,0.2c0.4,0.1,0.8,0.2,1.3,0.3c1,0.2,2.3,0.1,3.2-0.2c1.8-0.5,2.8-1.3,3.4-1.8c-0.4,0.2-0.9,0.5-1.6,0.8
					c0.9-0.9,1.3-1.5,2.1-2.1c1-0.9,2.2-1.9,2.9-2.8c0.6-0.6,1.2-1.2,1.8-1.9c0-0.1,0.1-0.1,0.1-0.2l0,0.1l0.1-0.1
					c0.6-1,1.2-2,1.7-3l0.9-1.5l0.6-0.8l-0.6,0.8l-0.6,1l0.6-0.8c-0.3,0.5-0.6,1.1-1,1.7c0.7-1.1,1.4-2.2,2-3.2l0.6-1.1l-0.1,0.3
					l0.4-0.6L50.4,45l-0.2,0.5c-0.1,0.6-0.3,1.2-0.5,1.9c0,0.4,0,0.9,0,1.4c0-0.4,0-0.8-0.1-1.2c0-0.2,0-0.4-0.1-0.6
					c-0.1,0.6-0.2,1.3-0.3,2L49,48.9c-0.3,0.8-0.7,1.8-1.1,2.9l0,0.1c-0.2,0.7-0.4,1.3-0.7,2c0.2-0.6,0.3-1.2,0.5-1.8l-0.5-0.1
					c-0.2,0.5-0.4,1.1-0.6,1.7c-0.1,0.3-0.2,0.6-0.4,0.9l0,0.1l0,0.1l0,0l0,0l2.2,1.2l2.7,1.5l0.9,0.5c0.4,0.3,0.6,0.4,0.8,0.5
					c0.6,0.5,0.5,0.7,0.5,0.4c0-0.1,0.1-0.4,0.3-0.8c0.1-0.2,0.2-0.5,0.5-0.9l0.6-0.9l1.4-2.1l1.5-2.3l0,0l0,0l0,0l0,0l-0.1-0.1
					L57,51.8l0.2,0.2c-0.6-0.4-1.2-0.7-1.8-1.2c-1.1-0.5-2.2-1.1-3.2-1.7c0.2,0.3,0.4,0.6,0.6,0.9c-0.2-0.3-0.4-0.6-0.6-0.9
					c-3.9-2.2-7.6-4.5-10.9-5.7c1.9,1.5,3.8,2.8,5.5,3.9c2.4,1.7,4.7,3.4,6.9,5l0.7,0.6c-1-0.4-2-0.8-3-1.3l0.1,0.1
					c-0.3-0.1-0.5-0.2-0.8-0.2c0.2,0.1,0.5,0.1,0.7,0.2c-3.8-3.1-7.4-5.2-10.9-8.6l0.8,0.4c-2.3-1.8-4.6-3.6-7-5.4
					c-1.1-0.4-2.2-0.8-3.4-1.2c0.7,0.6,1.4,1.2,2.1,1.9l-1.4-0.8c-0.2-0.1-1-0.5-1.2-0.5c-0.2,0.1,0.8,0.9,4.8,4.7l2.2,1.9
					c-2.6-2-5.1-3.6-7.4-4.5c0.5,0.6,0.9,1.2,1.4,1.7c1.8,1.3,3.6,2.9,5.3,4.5c1.1,1.1,2.2,2.2,3.2,3.3c3.1,3.4,6,6.9,8.6,10
					c0.5,0.5,1.1,1.2,1.9,1.8c0.2,0.2,0.4,0.3,0.6,0.5l0.3,0.2c0.1,0.1,0.3,0.2,0.7,0.4s0.8,0.3,1.4,0.3c0.7,0,1.3-0.3,1.7-0.7
					c0.4-0.3,0.6-0.6,0.7-0.8l0.3-0.4l0.2-0.3l-0.4,0.4c-0.1,0.1-0.3,0.4-0.7,0.8c0.3-0.3,0.5-0.5,0.6-0.7L56,60l0.5-0.7
					c-0.3,0.3-0.6,0.6-1,1c-0.2,0.2-0.5,0.7-1.3,1c-0.4,0.2-0.8,0.2-1.2,0.1c-0.3-0.1-0.6-0.2-0.8-0.3c0.2,0.1,0.6,0.3,1.1,0.3
					s1-0.2,1.4-0.5c0.7-0.5,0.8-0.9,1-1c0.4-0.4,0.7-0.8,1-1.3l0.2-0.5c-0.3,0.4-0.5,0.7-0.8,1.1l-1,1.2l1-1.3
					c0.3-0.4,0.6-0.8,0.9-1.3L57,57C57.7,56.3,58.2,55.5,58.7,54.8 M50.5,55.8c-0.6,0.3-1.3,0.6-2,0.6c-0.7,0-1.3-0.4-1.8-0.8
					c-1-0.8-2-1.7-3.1-2.7c1.1,1,2.1,1.9,3.1,2.7c0.5,0.4,1,0.8,1.8,0.8C49.2,56.4,49.9,56.2,50.5,55.8c0.3-0.2,0.6-0.4,0.9-0.6
					l0.5-0.5l-0.5,0.5C51.1,55.5,50.8,55.6,50.5,55.8l0-0.2c0.8-0.5,1.5-1.2,2.1-1.8c-0.7,0.7-1.3,1.3-2.1,1.8L50.5,55.8 M56.9,44
					c0-0.1,0-0.1,0-0.2l0.7,0.1c-0.9,2.1-2.1,3.2-3,5.1c1-1.8,2.1-3,3-5.1l-0.7-0.1C56.9,43.9,56.9,43.9,56.9,44 M57.1,46l0,0.2
					c0,0.5,0,1.1-0.1,1.7c0-0.5,0.1-1.1,0.1-1.7L57.1,46c0-0.8,0-1.5,0-2.2l0.1,0c-0.5,1-1.1,1.9-1.6,3c0.5-1.1,1.1-2,1.6-3l-0.1,0
					C57.2,44.5,57.2,45.2,57.1,46 M51.8,54.4c0.2-0.3,0.4-0.6,0.6-0.9C52.2,53.8,52,54.1,51.8,54.4 M40.9,46.7L37.4,44L40.9,46.7
					 M40.9,46.7L37.4,44L40.9,46.7 M40.9,46.7l0.5,0.4l0.5,0.4l0.5,0.4l0.5,0.4l0,0l0.5,0.4l0.5,0.4l0.5,0.4l0.5,0.4l0.5,0.4
					l0.4,0.3l0.5,0.4l0.5,0.4l0.5,0.4l0.4,0.2l0.6,0.3l0.5,0.2c-2-1.5-3.8-2.7-5.6-3.9l-0.2-0.1l-0.2-0.1l-0.7-0.5l-0.2-0.1
					l-0.5-0.4l-0.3-0.2L40.9,46.7 M32.9,38.7c0.2,0.2,0.5,0.4,0.7,0.6c0.2,0.1,0.3,0.3,0.5,0.4l0.5,0.5l0.5,0.4l0.7,0.5l0.3,0.2
					c0.3,0.2,0.6,0.4,0.9,0.7l0,0l0.6,0.4l-0.6-0.4l0.6,0.4l-0.6-0.4l0,0c0.2,0.1,0.4,0.3,0.6,0.4c-0.2-0.2-0.5-0.3-0.7-0.5
					l-0.4-0.3l-0.7-0.5L35.7,41c-0.2-0.2-0.4-0.3-0.6-0.5l-0.3-0.3l-0.4-0.3C33.8,39.4,33.4,39,32.9,38.7 M36.4,54.7l0.1-0.1
					c-0.2-0.3-0.3-0.6-0.5-0.8C36.1,54,36.3,54.4,36.4,54.7"/>
				<path class="st2" d="M40.9,46.7c0.7,0.5,1.4,1.1,2.1,1.6L42.5,48L42,47.5l-0.5-0.4L40.9,46.7"/>
				<path class="st2" d="M41.6,47.2l0.3,0.2l0.5,0.4l0.2,0.1C42.3,47.6,41.9,47.4,41.6,47.2"/>
				<path class="st2" d="M43.1,48.4c2.1,1.6,4.2,3.1,6.2,4.1l-0.5-0.2L48.2,52l-0.4-0.2l-0.5-0.4L46.7,51l-0.5-0.4l-0.4-0.3
					l-0.5-0.4l-0.5-0.4l-0.5-0.4l-0.5-0.4L43.1,48.4"/>
				<polyline class="st2" points="43.3,48.3 43.4,48.4 43.6,48.6 43.3,48.3 				"/>
				<path class="st14" d="M59.1,53.3L59.1,53.3L59,53.5C59,53.4,59,53.3,59.1,53.3"/>
				<path class="st13" d="M52.7,50c-0.2-0.3-0.4-0.6-0.6-0.9C52.3,49.4,52.5,49.7,52.7,50"/>
				<path class="st13" d="M37.6,42.9c-0.2,0.2-0.5,0.5-0.6,0.8C37.1,43.4,37.4,43.1,37.6,42.9"/>
				<path class="st13" d="M35.3,46c0,1.5,0.6,2.9,1.4,4.2C36,48.9,35.4,47.5,35.3,46"/>
				<path class="st13" d="M37.4,52.8c-1.2-1.4-2.2-2.9-2.8-4.5C35.2,50,36.2,51.4,37.4,52.8"/>
				<polyline class="st15" points="40.9,46.7 41.4,47.1 42,47.5 42.5,48 43,48.3 42.5,48 42,47.5 41.4,47.1 40.9,46.7 				"/>
				<polyline class="st15" points="41.6,47.2 41.9,47.4 42.5,47.8 42.6,47.9 42.5,47.8 41.9,47.4 41.6,47.2 				"/>
				<polyline class="st15" points="43.1,48.4 43.6,48.8 44.1,49.2 44.6,49.6 45.2,50 45.8,50.3 46.1,50.6 46.7,51 47.2,51.3 
					47.8,51.7 48.2,52 48.8,52.3 49.3,52.5 48.8,52.3 48.2,52 47.8,51.7 47.2,51.3 46.7,51 46.1,50.6 45.8,50.3 45.2,50 44.6,49.6 
					44.1,49.2 43.6,48.8 43.1,48.4 				"/>
				<polyline class="st15" points="43.3,48.3 43.4,48.4 43.6,48.6 43.4,48.4 43.3,48.3 				"/>
				<polyline class="st15" points="37.4,44 40.9,46.7 37.4,44 				"/>
				<polyline class="st15" points="37.4,44 40.9,46.7 37.4,44 				"/>
				<path class="st12" d="M56.1,60.2l-0.3,0.4c-0.1,0.2-0.3,0.5-0.7,0.8c-0.4,0.3-1.1,0.7-1.7,0.7c-0.7,0-1.1-0.1-1.4-0.3
					c-0.3-0.2-0.5-0.3-0.7-0.4L51,61.2c-0.2-0.2-0.4-0.3-0.6-0.5c-0.8-0.6-1.4-1.2-1.9-1.8c-2.6-3-5.4-6.5-8.6-10
					c3.1,3.4,6,6.9,8.6,10c0.5,0.5,1.1,1.2,1.9,1.8c0.2,0.2,0.4,0.3,0.6,0.5l0.3,0.2c0.1,0.1,0.3,0.2,0.7,0.4s0.8,0.3,1.4,0.3
					c0.7,0,1.3-0.3,1.7-0.7c0.4-0.3,0.6-0.6,0.7-0.8L56.1,60.2"/>
				<path class="st12" d="M31.5,41.2c1.8,1.3,3.6,2.9,5.3,4.5C35.1,44,33.3,42.5,31.5,41.2"/>
				<path class="st2" d="M34.6,40.2l-0.5-0.5c0.7,0.6,1.3,1.1,2.1,1.7l-0.3-0.2l-0.7-0.5L34.6,40.2"/>
				<polyline class="st2" points="34.3,39.8 34.7,40.1 35.1,40.4 34.3,39.8 				"/>
				<path class="st2" d="M35.7,41l0.2,0.2l0.7,0.5l0.4,0.3C36.5,41.7,36.1,41.3,35.7,41"/>
				<polyline class="st2" points="37.1,42.1 37.1,42.1 37.1,42.1 37.1,42.1 				"/>
				<polyline class="st3" points="30.1,35.5 30.4,35.7 30.1,35.5 				"/>
				<path class="st8" d="M30.9,36.9c-3.3-3-6.6-5.7-9.9-8.1l2.4,0.8l-0.3-0.1c0.4,0.3,1,0.7,1.7,1.2c0.3,0.2,0.7,0.5,1,0.7
					c1.1,0.7,2.2,1.5,3.1,2.3c0.3,0.4,0.6,0.8,0.9,1.2l0,0l0,0.3l-1-0.4l1.4,0.8l0.3,0.2c1.3,0.8,2.6,1.5,3.8,2.3
					C33.1,37.6,32,37.2,30.9,36.9"/>
				<path class="st16" d="M24.8,30.6c-0.6-0.4-1.2-0.8-1.7-1.2C23.5,29.8,24.1,30.2,24.8,30.6c0.3,0.2,0.7,0.5,1,0.7
					C25.5,31.1,25.1,30.9,24.8,30.6"/>
				<polyline class="st16" points="23.1,29.5 23.4,29.6 23.1,29.5 				"/>
				<polyline class="st17" points="29.7,35.2 29.8,34.8 29.8,34.8 29.7,35.2 				"/>
				<path class="st16" d="M30.9,36.9c1.1,0.4,2.3,0.8,3.4,1.2C33.1,37.6,32,37.2,30.9,36.9"/>
				<path class="st8" d="M28.3,38.9c-1.9-1.6-4.4-3.6-6.5-5.3c1.2,0.2,2.7,0.7,4.3,1.2c1.6,0.6,3.3,1.4,4.8,2
					c0.7,0.6,1.4,1.2,2.1,1.9l-1.4-0.8c-0.2-0.1-1-0.5-1.2-0.5c-0.2,0.1,0.8,0.9,4.8,4.7l2.2,1.9c-2.6-2-5.1-3.6-7.4-4.5
					c0.5,0.6,0.9,1.2,1.4,1.7l-1.1-0.8c-0.5-0.3-1-0.6-1.5-1C28.6,39.2,28.5,39.1,28.3,38.9"/>
				<path class="st16" d="M30.1,39.4c2.3,0.9,4.8,2.6,7.4,4.5C34.8,42,32.4,40.4,30.1,39.4"/>
				<path class="st16" d="M30.4,37.4c0.1,0,0.9,0.4,1.2,0.5l1.4,0.8l-1.4-0.8C31.3,37.8,30.6,37.4,30.4,37.4"/>
				<path class="st18" d="M34.1,45.2c-1-1-2-1.9-3-2.8c-1.5-1.4-3.1-2.7-4.7-4c-1.6-1.2-3.3-2.4-5-3.6c-1-0.8-2-1.5-3.1-2.3
					l-1.1-0.7c-0.4-1.8-0.6-3.5-0.4-5c1.3,0.7,2.7,1.3,4.2,1.9c3.2,2.4,6.6,5.1,9.9,8.1c-1.5-0.7-3.2-1.4-4.8-2
					c-1.6-0.6-3.1-1-4.3-1.2c2.1,1.7,4.5,3.7,6.5,5.3l0,0c0.2,0.2,0.4,0.3,0.6,0.4c0.5,0.4,1.1,0.8,1.5,1l1.1,0.8
					c0.9,1.1,2,2.3,3.1,3.5c1.1,1.2,2.3,2.4,3.6,3.6l0.6,0.6c0.7,0.7,1.3,1.3,2,2l2.1,2.1l0.1,0.7C39.9,50.9,37,48,34.1,45.2"/>
				<path class="st13" d="M34.1,45.2c2.9,2.8,5.8,5.6,8.9,8.3C39.9,50.9,37,48,34.1,45.2"/>
				<path class="st13" d="M31.1,42.4c-1.5-1.4-3.1-2.7-4.7-4c-1.6-1.2-3.3-2.4-5-3.6c1.7,1.2,3.4,2.3,5,3.6
					C28,39.7,29.6,41.1,31.1,42.4"/>
				<path class="st13" d="M40.8,50.8c-0.7-0.7-1.3-1.3-2-2l-0.6-0.6c-1.2-1.2-2.5-2.4-3.6-3.6c1.1,1.2,2.3,2.4,3.6,3.6l0.6,0.6
					C39.5,49.5,40.2,50.2,40.8,50.8"/>
				<path class="st19" d="M28.3,38.9L28.3,38.9c0.2,0.2,0.4,0.3,0.6,0.4C28.6,39.2,28.5,39.1,28.3,38.9"/>
				<path class="st19" d="M21.8,33.6c1.2,0.2,2.7,0.7,4.3,1.2c1.6,0.6,3.3,1.4,4.8,2c-1.5-0.7-3.2-1.4-4.8-2
					C24.5,34.2,23,33.8,21.8,33.6"/>
				<path class="st3" d="M21.4,34.9c-1.4-1-2.8-2-4.1-3l1.1,0.7C19.3,33.3,20.4,34.1,21.4,34.9"/>
				<path class="st17" d="M21.4,34.9c-1.4-1-2.8-2-4.1-3C18.6,32.9,20,33.9,21.4,34.9"/>
			</g>
		</g>
	</g>
</g>
<g>
	<g>
		<g>
			<g class="st1">
				<path class="st2" d="M7.6,45.6c-0.7-1-1.3-2-1.8-3.2l-1-0.5c0.7,0,1.3,0.1,2,0.2c1.7,0,3.7-0.1,5.5,0c0.5,0,1,0,1.6,0.1
					c0.6,0,1.2,0.1,1.7,0.1c1.1,0.1,2.1,0.3,2.9,0.6c-1-0.1-2.2,0-3.4,0.1c-0.4,0-0.8,0.1-1.1,0.1c-0.8,0.1-1.2,0.1-1.6,0.2l0.2-0.1
					c-0.6,0.3-1.2,0.6-1.7,0.9l-1.8,0.2l1.8-0.2C9.6,44.5,8.6,45,7.6,45.6"/>
				<path class="st2" d="M31.2,36.3L31.2,36.3l-0.1-0.5c0.3-0.9,0.7-1.8,1-2.7l7.2,9.5c-0.5,0.3-0.9,0.6-1.3,1
					c-0.8,0.6-1.6,1.2-2.4,1.8l-8.4,6l-2.7-10.5c-0.2-0.7-0.4-1.5-0.5-2.2c-0.1-0.6-0.2-1.2-0.2-1.8c0.3,1.2,0.8,2.4,1.3,3.5
					l0.1,0.3l0,0l2,8.8l7.9-4.7c1.4-0.8,2.6-1.9,4-2.6l-6.7-8.8C32.2,34.4,31.7,35.4,31.2,36.3"/>
				<path class="st3" d="M21.7,37.4c-0.6-3-0.5-6.4,0.3-9.7l0.4,0.1c-0.5,1.8-0.6,3.7-0.8,5.7c0,0.5-0.1,1.1-0.1,1.6l0.1-0.4
					C21.5,35.6,21.6,36.5,21.7,37.4"/>
				<path class="st3" d="M22.4,30.6c0.1-0.9,0.2-1.9,0.4-2.8l0.2-0.3L22.7,29L22.4,30.6"/>
				<polyline class="st3" points="38.8,41 38.5,41.3 38.8,40.9 38.8,41 				"/>
				<path class="st3" d="M39,33.2c-0.1,0.1-0.2,0.2-0.3,0.3C38.7,33.5,38.8,33.3,39,33.2"/>
				<polyline class="st3" points="38.6,33.6 38.6,33.6 38.6,33.6 				"/>
				<path class="st3" d="M35.7,17c-0.3,0-0.6,0.1-0.9,0.2C35,17,35.3,17,35.7,17"/>
				<polyline class="st3" points="38.7,31.2 38.5,31.3 38.7,31.2 				"/>
				<path class="st3" d="M22.7,53.5c0.1,0.2,0.1,0.1,0.1,0.2l11.6,3.8l0-0.2l0,0.2l-11.6-3.8C22.8,53.6,22.9,53.7,22.7,53.5"/>
				<polyline class="st3" points="38.5,41.3 37.7,41.9 38.5,41.3 				"/>
				<path class="st3" d="M33,17.1c-0.4,0.2-0.8,0.4-1.3,0.7l1.1-0.6L33,17.1"/>
				<path class="st3" d="M37.2,16.6c-0.5,0.1-1,0.2-1.6,0.3c0.3-0.1,0.7-0.2,1-0.3L37.2,16.6"/>
				<path class="st3" d="M26.7,22.6c0.3-0.6,0.7-1.3,1.1-1.9l0.3-0.3l-0.3,0.3l0.3-0.3l0,0l-0.8,1L26.7,22.6"/>
				<path class="st3" d="M35.4,16.4c-0.8,0.2-1.6,0.4-2.4,0.7c-0.4,0.2-0.8,0.4-1.3,0.7l1.1-0.6c-2.5,1-5,2.8-6.8,5.1
					c0,0.2,0,0.3,0,0.5c0.4-0.5,0.8-1.1,1.2-1.6c0.5-0.5,0.9-1,1.4-1.5c-0.3,0.3-0.5,0.6-0.7,1l0.3-0.3c0.2-0.2,0.4-0.4,0.6-0.6
					c-0.2,0.2-0.4,0.4-0.5,0.6c1-0.9,2.1-1.7,3.3-2.4c-0.5,0.2-1,0.5-1.5,0.8c0.6-0.4,1.2-0.7,1.8-1c-0.1,0.1-0.2,0.1-0.3,0.2
					c0.6-0.3,1.2-0.5,1.7-0.7C33.9,17,34.7,16.7,35.4,16.4 M31.8,17.9l0.3-0.2L31.8,17.9"/>
				<polyline class="st4" points="32.8,17.2 31.7,17.8 32.8,17.2 				"/>
				<polyline class="st4" points="28.1,20.4 27.8,20.7 28.1,20.4 				"/>
				<path class="st3" d="M39.7,16.1c-0.3,0-0.5,0.1-0.8,0.1c-0.4,0.1-0.8,0.1-1.2,0.2c-1.2,0.1-2.5,0.4-3.8,0.9
					c-0.2,0.1-0.5,0.1-0.8,0.2c0.8-0.4,1.5-0.7,2.3-1C36.9,16.1,38.4,16,39.7,16.1"/>
				<path class="st3" d="M28.7,19.9c-0.2,0.2-0.4,0.4-0.5,0.6l0,0C28.3,20.2,28.5,20,28.7,19.9"/>
				<path class="st4" d="M28.7,19.9c-0.2,0.2-0.4,0.4-0.5,0.6C28.3,20.3,28.5,20.1,28.7,19.9"/>
				<path class="st3" d="M40,16l-0.6,0.1l-0.5,0c0.3,0,0.6-0.1,0.8-0.1L40,16"/>
				<polyline class="st3" points="39.5,16.1 39.4,16.1 39.5,16.1 				"/>
				<path class="st3" d="M39.1,16.2c-0.6,0.1-1.2,0.3-1.9,0.5c0.3-0.1,0.7-0.2,1-0.3L39.1,16.2"/>
				<polyline class="st4" points="28.1,20.4 27.8,20.7 28.1,20.4 				"/>
				<path class="st3" d="M39.5,16.1c-0.1,0-0.3,0-0.4,0.1C39.3,16.2,39.4,16.1,39.5,16.1"/>
				<path class="st3" d="M39.4,16.1l-0.3,0.1l-0.9,0.1c-0.2,0-0.3,0-0.5,0c0.4-0.1,0.8-0.1,1.2-0.2c-0.4,0.1-0.8,0.1-1.2,0.2
					c0.4-0.1,0.8-0.1,1.2-0.2L39.4,16.1"/>
				<path class="st4" d="M39.5,16.1c-0.1,0-0.3,0-0.4,0.1l0.3-0.1H39.5"/>
				<polyline class="st4" points="39.1,16.2 38.2,16.3 39.1,16.2 				"/>
				<path class="st4" d="M38.9,16.1c-0.4,0.1-0.8,0.1-1.2,0.2C38.1,16.2,38.5,16.2,38.9,16.1"/>
				<path class="st3" d="M38.2,16.3c-0.3,0.1-0.7,0.2-1,0.3l-0.5,0C37.2,16.6,37.7,16.4,38.2,16.3"/>
				<polyline class="st4" points="37.2,16.6 36.7,16.7 37.2,16.6 				"/>
				<path class="st4" d="M38.2,16.3c-0.3,0.1-0.7,0.2-1,0.3C37.6,16.5,37.9,16.4,38.2,16.3"/>
				<path class="st3" d="M38.2,16.3c-0.5,0.1-1,0.2-1.5,0.4c-0.3,0-0.6,0-0.9,0.1c0.6-0.2,1.2-0.3,1.8-0.4l0.2-0.1
					C37.9,16.3,38.1,16.3,38.2,16.3"/>
				<path class="st4" d="M38.2,16.3c-0.5,0.1-1,0.2-1.5,0.4C37.2,16.6,37.7,16.4,38.2,16.3"/>
				<polyline class="st4" points="32.1,17.6 31.8,17.9 32.1,17.6 				"/>
				<path class="st3" d="M31.8,17.9c-0.1,0.1-0.2,0.1-0.3,0.2c-0.5,0.2-1,0.5-1.5,0.8C30.5,18.5,31.1,18.1,31.8,17.9"/>
				<path class="st4" d="M31.8,17.9c-0.1,0.1-0.2,0.1-0.3,0.2C31.5,18,31.6,17.9,31.8,17.9"/>
				<path class="st4" d="M31.4,18.1c-0.5,0.2-1,0.5-1.5,0.8C30.4,18.6,30.9,18.3,31.4,18.1"/>
				<path class="st3" d="M33.9,17.2c-0.4,0.1-0.7,0.3-1.1,0.5l0.3-0.3C33.4,17.3,33.7,17.3,33.9,17.2"/>
				<path class="st3" d="M37.7,16.3l-0.2,0.1c-1.2,0.1-2.4,0.4-3.6,0.8C35.2,16.8,36.5,16.5,37.7,16.3"/>
				<polyline class="st4" points="37.7,16.3 37.5,16.4 37.7,16.3 37.5,16.4 37.7,16.3 				"/>
				<polyline class="st5" points="37.7,16.3 37.5,16.4 37.7,16.3 				"/>
				<path class="st3" d="M35.5,30.2c-0.4,0.3-0.7,0.7-1,1.1l0.5-0.7l0.5-0.6L35.5,30.2"/>
				<path class="st3" d="M35.5,30.9c-0.4,0.3-0.8,0.6-1.2,0.9c0.4-0.5,0.8-0.9,1.2-1.3C35.5,30.6,35.5,30.8,35.5,30.9"/>
				<path class="st3" d="M36.6,32.3c-0.4,1-0.6,2-1,2.9c0.1-0.5,0.2-1,0.3-1.5l0,0.1C36.1,33.2,36.3,32.7,36.6,32.3"/>
				<path class="st3" d="M36.6,32.3c-0.3,0.5-0.5,0.9-0.7,1.5l0-0.1C36.1,33.2,36.3,32.7,36.6,32.3"/>
				<path class="st4" d="M36.6,32.3c-0.3,0.5-0.5,0.9-0.7,1.5C36.1,33.2,36.3,32.7,36.6,32.3"/>
				<path class="st3" d="M35.4,31.2c-0.1,0.1-0.3,0.2-0.4,0.3l0.5-0.7L35.4,31.2"/>
				<polyline class="st3" points="37,28.1 36.6,28.4 37,28.1 				"/>
				<path class="st6" d="M57.9,21.3c0.1-0.3,0.2-0.6,0.2-0.9c0-0.5-0.1-0.9-0.3-1.3c0,1-0.5,1.7-1.1,2.2c-0.6,0.5-1.4,0.7-2.1,0.8
					c0.2,0,0.3,0.1,0.5,0.1c-0.8,0.2-1.6,0.1-2.2,0c-0.7-0.1-1.3-0.3-2-0.4c1,0.3,2.1,0.6,3.3,0.7c0.6,0.1,1.2,0,1.9-0.1
					C56.8,22.2,57.4,21.9,57.9,21.3"/>
				<polyline class="st3" points="48.5,22.2 48,22.1 48.5,22.2 				"/>
				<path class="st3" d="M54.6,22.1c-0.2,0-0.5,0-0.7,0C54.1,22.2,54.4,22.1,54.6,22.1"/>
				<polyline class="st3" points="49.2,22.4 48.5,22.2 49.2,22.4 				"/>
				<path class="st3" d="M35.9,27.4l-0.5,0.4c-0.2,0.1-0.4,0.2-0.6,0.3C35.2,27.8,35.5,27.5,35.9,27.4L35.9,27.4"/>
				<polyline class="st3" points="36,27.4 35.5,27.7 35.9,27.4 36,27.4 				"/>
				<path class="st3" d="M36.6,27.7l-0.5,0.2c-0.4,0.1-0.7,0.4-1.1,0.6c0.4-0.3,0.8-0.7,1.2-0.9L36.6,27.7"/>
				<polyline class="st3" points="36.6,27.8 36.2,27.9 36.6,27.7 36.6,27.8 				"/>
				<path class="st3" d="M36.8,27.8c-0.4,0.2-0.8,0.4-1.2,0.7c0.2-0.2,0.4-0.4,0.6-0.5l0.5-0.2L36.8,27.8"/>
				<path class="st6" d="M35.8,27.3c-0.3,0.2-0.7,0.5-1,0.8c0.2-0.1,0.4-0.2,0.6-0.3c-0.8,0.8-1.5,1.9-2.1,2.9
					c0.1-0.6,0.4-1.2,0.7-1.8c0.5-1,1.2-1.7,2-2.5C36,26.7,35.9,27,35.8,27.3"/>
				<path class="st7" d="M35.8,27.3c-0.3,0.2-0.7,0.5-1,0.8C35.2,27.8,35.5,27.5,35.8,27.3"/>
				<path class="st3" d="M36.3,26c-1.4,0.8-2.5,2.3-3.7,3.1c0-0.1,0.1-0.2,0.2-0.3c0.6-1.1,1.3-1.8,2.1-2.4c0.8-0.6,1.7-1.1,2.6-1.6
					l0.2-0.1c-1.2,0.1-2.8,1.1-3.8,1.8c1.5-1.2,3.2-1.9,4.9-2.1C37.8,24.8,37,25.4,36.3,26"/>
				<path class="st3" d="M33.5,27.1c-0.8,0.5-1.4,1.1-2.1,1.8c0.2-0.3,0.5-0.6,0.7-0.9C32.5,27.6,33,27.3,33.5,27.1"/>
				<path class="st3" d="M29.7,32.1c0,0.1-0.1,0.2-0.1,0.4l-0.1,0.1C29.5,32.4,29.6,32.2,29.7,32.1"/>
				<path class="st3" d="M30.8,30l-0.3,0.6c-0.3,0.5-0.5,1-0.8,1.5c0,0.1-0.1,0.2-0.1,0.4C29.9,31.6,30.3,30.8,30.8,30 M30.4,30.5
					c-0.3,0.5-0.5,1-0.8,1.5C29.9,31.5,30.1,31,30.4,30.5"/>
				<path class="st3" d="M32.1,27.9c-0.2,0.3-0.5,0.6-0.7,0.9c-0.3,0.5-0.7,1.1-1,1.7c-0.3,0.5-0.5,1-0.8,1.5
					c-0.1,0.2-0.1,0.3-0.2,0.5l0.1-0.1c-0.4,0.8-0.8,1.6-1.1,2.5c0.1-1,0.2-2,0.5-3C29.8,30.6,30.8,29,32.1,27.9"/>
				<path class="st4" d="M32.1,27.9c-0.2,0.3-0.5,0.6-0.7,0.9C31.6,28.5,31.8,28.2,32.1,27.9"/>
				<path class="st4" d="M29.7,32.1c-0.1,0.2-0.1,0.3-0.2,0.5C29.5,32.4,29.6,32.2,29.7,32.1"/>
				<path class="st4" d="M30.4,30.5c-0.3,0.5-0.5,1-0.8,1.5C29.9,31.5,30.1,31,30.4,30.5"/>
				<path class="st4" d="M30.4,30.5c-0.3,0.5-0.5,1-0.8,1.5C29.9,31.5,30.1,31,30.4,30.5"/>
				<path class="st3" d="M28.5,32.7c-0.4,1.5-0.6,2.9-0.9,4.1c-0.2-1.2-0.1-2.3-0.1-3.5l0.3,0.5C27.9,33.4,28.2,33,28.5,32.7"/>
				<polyline class="st3" points="37.2,50.7 36.5,51.5 36.5,51.1 37.2,50.7 				"/>
				<path class="st8" d="M15.3,53.3c-0.2-0.4-0.4-0.8-0.8-1.2c-0.2-0.2-0.3-0.4-0.5-0.6L13.3,51c-1-0.7-1.9-1.5-2.8-2.2
					c1.1-0.1,2.3-0.2,3.4-0.3c1.7,0,3.2,0.3,4.1,0.8c0.9,0.5,1,1.5,0.5,2.3c-0.1,0.2-0.4,0.5-0.6,0.7C16.9,52.4,15.9,52.9,15.3,53.3
					"/>
				<path class="st3" d="M19.6,56.1l0.1-0.3c0.1,0.2,0.3,0.2,0.5,0.3c0.1,0.1,0.2,0.1,0.3,0.2c0.1,0.2,0.2,0.4,0.3,0.8
					c-0.3,0-0.5-0.3-0.7-0.5C20,56.3,19.8,56.2,19.6,56.1"/>
				<path class="st9" d="M18.6,54.5c0.5-0.9,0.4-1.7-0.3-2c-0.1-0.1-0.3-0.1-0.5-0.1c0.2-0.2,0.4-0.5,0.6-0.7
					c0.5-0.8,0.4-1.8-0.5-2.3c-0.9-0.5-2.4-0.8-4.1-0.8c1.3-0.1,2.5-0.2,3.7-0.2c1.2,0,2.5-0.1,3.6,0.6c0.7,0.5,1.1,1.2,1.3,2
					c0.6,2.3,1.2,4.4,2,7.2l0.4-0.4c-0.1-0.7-0.3-1.3-0.4-2c-0.1-0.6-0.3-1.2-0.4-1.8l-0.1-0.5c-0.3-1.1-0.5-2.1-0.7-3.2
					c-0.2-1-0.7-2.1-1.5-2.7c0.8,0.2,1.4,0.8,1.7,1.4c0.4,0.7,0.6,1.5,0.8,2.2c0.3,1,0.5,2.1,0.6,3.1c0.3,1.8,0.5,3.6,0.5,5.3l0,1
					l1.2-0.4c1.3-0.5,2.6-1.2,3.6-2.1c0.9-0.7,1.8-2.1,2.3-3.5c-0.3,0.7-0.6,1.3-0.9,2l0.3,0.4c0.8-0.8,1.5-1.6,2.2-2.5l-0.4,0.7
					c-0.4,0.9-0.9,1.8-1.6,2.7c-0.6,0.8-1.2,1.6-2,2.4c-0.5,0.4-1,0.9-1.6,1.3l0,0c-0.3,0.2-0.5,0.3-0.8,0.5l-3.3,2.1l-1.2-4.1
					c-0.4-1.2-0.9-2.5-1.4-3.8l0.2,2c-0.1,0.3-0.2,0.5-0.3,0.6c-0.3,0.1-0.7-0.3-1.1-1c-0.4-0.6-0.9-1.8-1-1.9l0.1-0.1
					c0.2,0.2,0.3,0.3,0.5,0.5c0.2,0.3,0.5,0.5,0.7,0.5c-0.1-0.3-0.2-0.6-0.3-0.8c-0.1-0.1-0.2-0.2-0.3-0.2c-0.2-0.1-0.4-0.2-0.5-0.3
					c0.2-0.2,0.3-0.3,0.5-0.5c0.1-0.4,0.2-0.8,0.2-1.2c0.8,0.1,0.2-1.6,0.8-2c0-0.8-0.2-1.6-0.6-2.2c-0.5,0-1,0.1-1.5,0.3
					c0.5,0.6,0.7,1.5,0.5,2.3C19.6,53.4,19.2,54,18.6,54.5"/>
				<path class="st4" d="M18.4,51.6c0.5-0.8,0.4-1.8-0.5-2.3c-0.9-0.5-2.4-0.8-4.1-0.8c1.7,0,3.2,0.3,4.1,0.8
					C18.8,49.9,19,50.8,18.4,51.6"/>
				<path class="st10" d="M19.8,55.8c0.1,0.2,0.3,0.2,0.5,0.3c0.1,0.1,0.2,0.1,0.3,0.2c0.1,0.2,0.2,0.4,0.3,0.8
					c-0.1-0.3-0.2-0.6-0.3-0.8c-0.1-0.1-0.2-0.2-0.3-0.2C20.1,56,19.9,55.9,19.8,55.8"/>
				<path class="st3" d="M35.1,53.2L34,54.7l-0.4,0.7c-0.4,0.9-0.9,1.8-1.6,2.7l0,0.2c0.6-0.8,1.1-1.5,1.5-2.3
					c-0.4,0.9-0.8,1.8-1.4,2.7c1-0.9,1.6-2.2,2.1-3.5C34.7,54.5,34.9,53.9,35.1,53.2 M33.7,55.4c-0.4,0.9-0.9,1.8-1.6,2.7
					C32.7,57.2,33.2,56.3,33.7,55.4"/>
				<path class="st4" d="M33.7,55.4c-0.4,0.9-0.9,1.8-1.6,2.7C32.7,57.2,33.2,56.3,33.7,55.4"/>
				<polyline class="st3" points="19.5,55.9 19.8,55.8 19.6,56.1 19.5,55.9 				"/>
				<polyline class="st3" points="19.5,43.7 19.5,43.3 19.5,43.7 				"/>
				<path class="st11" d="M14.8,57.8c0.7-0.2,1.4-0.7,2.2-1c0.8-0.3,1.7-0.5,2.5-0.9l0.1,0.1l-0.1,0.1c0.1,0.1,0.6,1.3,1,1.9
					c0.4,0.7,0.9,1.1,1.1,1c0.1-0.1,0.2-0.2,0.3-0.6l-0.2-2c0.5,1.3,1,2.6,1.4,3.8l1.2,4.1l3.3-2.1c0.3-0.2,0.5-0.3,0.8-0.5
					c0.6-0.4,1.1-0.8,1.6-1.3c0.8-0.7,1.5-1.5,2-2.4l0,0.2c-0.5,0.7-1.1,1.5-1.8,2.2c1.5-0.9,2.7-2.8,3.4-4.4
					c-0.4,0.9-0.8,1.8-1.4,2.7c1-0.9,1.6-2.2,2.1-3.5l0.1,0.5l1.5-1.2c-0.5,0.9-1.1,1.8-1.8,2.8c0,0.4,0,0.9-0.1,1.3
					c1.3-0.7,3-1.9,4.3-3.8c-0.8,1.2-1.7,2.4-2.9,3.7c-0.6,0.7-1.2,1.4-2,2.2c-0.8,0.8-1.7,1.7-3,2.6L30.5,64
					c-0.4,0.2-0.8,0.3-1.2,0.5c0.9,0,2.1-0.5,3.1-1.1c0.6-0.3,1-0.6,1.5-0.9c0.4-0.3,0.8-0.5,1.2-0.7c-1,0.9-2.1,1.7-3.3,2.4
					c0.3,0.1,0.9-0.1,1.5-0.4c0.6-0.3,1.2-0.7,1.6-0.8c-1,0.8-2,1.2-2.9,1.4c-0.9,0.2-1.7,0.3-2.7,0.6l-10.8,3.2l1.5-7.2
					c0.1-0.3,0.1-0.7,0-1.2l0-0.1l0-0.1c-0.9-3.4-2.7-3-3.6-1.2l0.1-0.7c-0.1-0.1-0.2-0.3-0.2-0.3c0,0-0.1,0-0.2,0
					c-0.1,0-0.2,0.1-0.4,0.1C15.3,57.7,15,57.7,14.8,57.8"/>
				<path class="st12" d="M21.7,59.1c0.1-0.1,0.2-0.2,0.3-0.6l-0.2-2l0.2,2C22,58.8,21.9,59,21.7,59.1"/>
				<path class="st12" d="M21.8,56.5c0.5,1.3,1,2.6,1.4,3.8l1.2,4.1l3.3-2.1c0.3-0.2,0.5-0.3,0.8-0.5c-0.3,0.2-0.5,0.3-0.8,0.5
					l-3.3,2.1l-1.2-4.1C22.8,59.1,22.3,57.8,21.8,56.5"/>
				<path class="st13" d="M33.7,56c-0.4,0.9-0.8,1.8-1.4,2.7C32.8,57.8,33.3,56.9,33.7,56"/>
				<polyline class="st13" points="32.1,58.3 32.1,58.1 32.1,58.3 				"/>
				<path class="st11" d="M33.9,51l0-0.5l-0.1-0.6l-0.3,0.6l0.3-0.6l-0.3-0.2l-1,1.3l0.4-0.8L32,51.4l0.8-1.5l-0.2-0.1l-0.4,0.5
					c-0.6,1.2-1,2.7-1.7,3.8c0.1-0.6,0.3-1.2,0.5-1.7c0.4-1.2,0.8-2.4,1.3-3.7l0-0.5c-0.8,1.5-1.5,3.4-2.5,4.4
					c0-0.1,0.1-0.2,0.1-0.3c0.7-2.2,2-3.7,2.8-5.9l0.1-0.2c-0.8,0.9-1.8,2.6-2.5,3.6c0.9-1.7,2-3.2,3.1-4.6l0.1-0.2
					c1.1-2,2.2-3.8,3.3-5.5c-0.6,0.7-1.2,1.3-1.8,2c0.6-0.7,1.2-1.4,1.8-2c0.6-0.8,1.2-1.7,1.8-2.4l1.8-2.2l-3.1,0.5
					c-2.2,0.4-4.4,1-6.5,1.9l3,1.2v-0.2l0,0.2l-3-1.2c0.9-0.2,1.7-0.3,2.5-0.4c-0.6,0.5-1.2,1-1.9,1.5l1.1,0.5
					c-0.3-0.8-0.4-1.7-0.6-2.5c-0.1,0.9-0.1,1.8-0.1,2.7l-0.2-0.1c1.3-0.5,2.6-0.8,3.9-1.2c-1.3,0.4-2.6,0.7-3.9,1.2l0.2,0.1
					c0-0.9,0-1.8,0.1-2.7l-0.1-0.4c-0.4,0.9-0.5,2.1-0.5,3.2l0,0.4l0.5-0.2c1.1-0.4,2.2-0.7,3.2-0.8c-1,0.3-2,0.5-3.1,0.9l-0.8,0.3
					l-0.1-0.7c0-0.3-0.1-0.6-0.1-0.9L31,38.8l0.1,0.4l0.1,0.9l0.9-0.5l0.3-0.1l-0.3,0.1l-0.9,0.5l-0.1-0.9L31,38.8
					c-0.2-1.6,0-2.9,0.3-4.2c-0.6-1.4-0.9-3.3-0.3-5c0.1-0.3,0.2-0.5,0.3-0.8c-0.3,0.5-0.7,1.1-1,1.7l0.3-0.6
					c-0.5,0.8-0.9,1.6-1.2,2.5c-0.4,0.8-0.8,1.6-1.1,2.5c0.1-1,0.2-2,0.5-3c-0.2,0.2-0.3,0.5-0.5,0.7c-0.4,1.5-0.6,2.9-0.9,4.1
					c-0.2-1.2-0.1-2.3-0.1-3.5c-0.1-0.7-0.2-1.4-0.3-2.2l-0.9,0.1c-0.9,1.2-1.6,3.4-1.4,6.2c0,0.2,0,0.3,0.1,0.5l0.7-0.2l-0.4,0.9
					c0.2,0.5,0.5,0.9,0.8,1.3l0.1,0.5l1,6.7l7.5-3.2l0.5-0.2c0.2-0.6,0.6-1,1.2-1.3c0.6-0.3,1.2-0.4,1.9-0.5l-0.6,0
					c0.2-0.4,0.5-0.6,0.8-0.7c0.1,0,0.3-0.1,0.4-0.1l-5.4-7.1c-0.4,0.5-0.8,0.9-1.1,1.3l-1.1,1.1l-0.1,0.1v-0.1l0,0
					c-0.4,0.6-0.8,1.2-1.1,1.8l-0.8,0.9l-0.5,0.5l0.5-0.5l0.5-0.6L29.1,39l0.8-1c-0.6,0.7-1.1,1.3-1.7,2l-0.5,0.8l0.1-0.3L27,41.4
					c-0.5,0.7-1,1.4-1.4,2.1c-0.2,0.5-0.3,1.1-0.4,1.7l0.3-1.4l0.2-0.8c-0.4,0.8-0.7,1.6-1,2.4l-0.2-0.2c-0.2,0.5-0.5,1-0.7,1.6
					c-0.1,0.3-0.2,0.6-0.4,0.9L23,48.5l0,0.1l-0.3,1.7l0.2-1.5l-0.5,0c-0.3,1-0.3,2-0.5,2.6c-0.1,0.2-0.1,0.3-0.2,0.4l0.1-0.1
					c-0.1,0.3-0.2,0.4-0.2,0.5c0,0,0,0.1,0.1,0.2l0,0.1c0,0,0,0,0.1,0.1l0.2,0.1c0.2,0.2,0.5,0.4,0.6,0.5c0.1,0.1,0.1,0.1,0.2,0.2
					l0.1,0.1c0,0-0.2-0.2-0.4-0.4c0.1,0.1,0.3,0.3,0.4,0.4c0.1,0.2,0.1,0.1,0.1,0.2l10.9,4c-0.7-1.3-1.5-2.5-2.3-3.6
					c-0.1-0.2-0.2-0.2-0.3-0.4l-0.4-0.6c-0.2-0.4-0.5-0.8-0.7-1.2c-0.5-0.7-0.9-1.4-1.4-1.9c0.4,1.1,0.9,2.2,1.3,3.2
					c0.1,0.3,0.2,0.6,0.3,0.8l0.3,0.5c0.2,0.3,0.4,0.7,0.6,1c0.4,0.8,0.8,1.7,1.1,2.6l-9.3-4c0-0.2,0-0.2,0.2-0.5
					c0-0.1,0.1-0.1,0.1-0.2c0,0.4,0.1,0.8,0.2,1.1l0,0c0,0.1,0.1,0.2,0.1,0.3c0-0.1-0.1-0.2-0.1-0.3c-0.1,0.1-0.2,0.2-0.2,0.3
					l8.3,3.6c-0.5-1.3-1-2.5-1.6-3.7L29.9,54l-0.2-0.7L29.2,52c-0.3-0.9-0.6-1.8-0.9-2.7l0.5,0.7c-0.5-1.3-1.1-2.5-1.8-3.5
					c-0.7-1-1.7-1.9-2.9-2.4c-1.1-0.1-2.2,0-3.2,0.3c0.7,0.1,1.4,0.3,2.1,0.6c-0.4-0.1-0.9-0.1-1.3-0.2c-0.2,0-1,0-1.1,0.2
					c-0.1,0.1,0.1,0.1,0.8,0.3c0.4,0.1,0.8,0.2,1.4,0.6c0.6,0.3,1.3,0.9,1.8,1.8c0.4,0.6,0.6,1.3,0.9,2c-0.5-1-1.1-2-2-2.5
					s-2-0.6-3-0.4c0.4,0.2,0.9,0.4,1.2,0.8c0.8,0.2,1.4,0.8,1.7,1.4c0.4,0.7,0.6,1.5,0.8,2.2c0.3,1,0.5,2.1,0.6,3.1
					c0.3,1.8,0.5,3.6,0.5,5.3l0,1l1.2-0.4c1.3-0.5,2.6-1.2,3.6-2.1c0.9-0.7,1.8-2.1,2.3-3.5l0.1-0.2l-0.5,0.6l0.6-1
					c-0.4,0.5-0.9,0.9-1.4,1.3c0.5-0.6,1-1.2,1.4-1.8l0-0.4c-0.3,0.5-0.7,1-1.1,1.6c0.4-0.6,0.8-1.2,1.1-1.8l0-0.5L33.9,51
					 M36.5,37.4c-1.6,0.2-3.1,0.3-5,1.1l0.8,0.3c0-0.1,0-0.2,0-0.4c0,0.1,0,0.3,0,0.4l-0.8-0.3C33.4,37.7,34.9,37.6,36.5,37.4
					l0.7-0.1l0.4-0.1l-0.4,0.1L36.5,37.4l0.1-0.2c0.4-0.1,0.8-0.2,1.2-0.3l-0.6-0.7l-0.4,0.5l0.4-0.5l0.6,0.7
					c-0.4,0.1-0.8,0.2-1.2,0.3L36.5,37.4 M33.5,43.6c0.7-1.5,1.8-2.1,2.5-3.4C35.3,41.6,34.2,42.2,33.5,43.6 M32.9,44.9l0,0.1
					l-0.5,1l0.5-1L32.9,44.9c0.7-1.2,1.5-2,2.2-3.2C34.4,42.9,33.6,43.7,32.9,44.9 M37.6,36.8L37.6,36.8l-0.3-0.5l-0.2,0.6l0.2-0.6
					L37.6,36.8L37.6,36.8 M26.8,52.9c-0.4-1.1-0.9-2.2-1.4-3.2C25.9,50.7,26.4,51.8,26.8,52.9 M26.8,52.9c-0.4-1.1-0.9-2.2-1.4-3.2
					C25.9,50.7,26.4,51.8,26.8,52.9 M26.8,52.9l0.2,0.5l0.2,0.5l0.2,0.5c0.1,0.2,0.1,0.3,0.2,0.4l0,0l0.1,0.4l0.2,0.4l0.2,0.4
					l0.2,0.4l0.2,0.4l0.1,0.3l0.2,0.4l0.2,0.4l0.2,0.4l0.1,0.1l-4.9-2.1l0.1-0.1l0.1-0.2l0-0.2c-0.1,0.1-0.2,0.2-0.3,0.4l5.2,2.2
					c-0.5-1.3-1.1-2.4-1.6-3.5l-0.1-0.2l-0.1-0.1c-0.1-0.2-0.2-0.3-0.3-0.5l-0.1-0.2l-0.2-0.5l-0.1-0.3L26.8,52.9 M22.9,45
					c0.2,0.1,0.4,0.2,0.6,0.3c0.1,0.1,0.3,0.2,0.4,0.3c0.1,0.1,0.3,0.2,0.4,0.4c0.1,0.1,0.3,0.2,0.4,0.4c0.2,0.2,0.3,0.3,0.4,0.5
					l0.2,0.2c0.2,0.2,0.3,0.5,0.5,0.7l0,0l0.3,0.4l-0.3-0.4l0.3,0.4l-0.3-0.4l0,0c0.1,0.2,0.2,0.3,0.3,0.5c-0.1-0.2-0.2-0.4-0.4-0.6
					l-0.2-0.3c-0.1-0.2-0.2-0.4-0.4-0.6l-0.1-0.2c-0.1-0.2-0.3-0.3-0.4-0.5c-0.1-0.1-0.2-0.2-0.3-0.3c-0.1-0.1-0.2-0.2-0.3-0.2
					C23.8,45.4,23.3,45.2,22.9,45 M25.7,37.7l0.1,0c0-0.2,0.1-0.4,0.1-0.7C25.8,37.3,25.7,37.5,25.7,37.7"/>
				<path class="st2" d="M26.8,52.9c0.3,0.7,0.5,1.3,0.8,2c-0.1-0.1-0.1-0.2-0.2-0.4l-0.2-0.5L27,53.4L26.8,52.9"/>
				<polyline class="st2" points="27.1,53.5 27.3,53.8 27.5,54.3 27.6,54.5 27.1,53.5 				"/>
				<path class="st2" d="M27.6,54.9c0.6,1.3,1.1,2.6,1.8,3.8l-4.9-2.1c0.1-0.2,0.2-0.3,0.2-0.5l0,0.2l-0.1,0.2l-0.1,0.1l4.9,2.1
					l-0.1-0.1l-0.2-0.4l-0.2-0.4l-0.2-0.4l-0.1-0.3l-0.2-0.4l-0.2-0.4L28,55.8l-0.2-0.4L27.6,54.9"/>
				<polyline class="st2" points="27.8,55 27.9,55.1 28,55.2 27.8,55 				"/>
				<polyline class="st14" points="31.2,36.5 31.2,36.4 31.2,36.3 31.2,36.5 				"/>
				<path class="st13" d="M22.4,53.1c0.1,0.1,0.3,0.3,0.4,0.4C22.7,53.5,22.5,53.2,22.4,53.1"/>
				<polyline class="st13" points="30.8,30 30.4,30.5 30.8,30 				"/>
				<path class="st13" d="M28.9,31.9c-0.2,1-0.4,2-0.5,3C28.5,33.9,28.7,32.9,28.9,31.9"/>
				<path class="st13" d="M27.5,36.8c-0.2-1.2-0.1-2.3-0.1-3.5C27.4,34.4,27.4,35.6,27.5,36.8"/>
				<path class="st15" d="M26.8,52.9l0.2,0.5l0.2,0.5l0.2,0.5c0.1,0.2,0.1,0.3,0.2,0.4c-0.1-0.1-0.1-0.2-0.2-0.4l-0.2-0.5L27,53.4
					L26.8,52.9"/>
				<polyline class="st15" points="27.1,53.5 27.3,53.8 27.5,54.3 27.6,54.5 27.5,54.3 27.3,53.8 27.1,53.5 				"/>
				<polyline class="st15" points="27.6,54.9 27.8,55.3 28,55.8 28.2,56.2 28.4,56.6 28.6,57.1 28.7,57.4 28.9,57.8 29.1,58.2 
					29.4,58.7 29.4,58.7 24.5,56.6 24.6,56.5 24.7,56.3 24.8,56.1 24.7,56.3 24.6,56.5 24.5,56.6 29.4,58.7 29.4,58.7 29.1,58.2 
					28.9,57.8 28.7,57.4 28.6,57.1 28.4,56.6 28.2,56.2 28,55.8 27.8,55.3 27.6,54.9 				"/>
				<polyline class="st15" points="27.8,55 27.9,55.1 28,55.2 27.9,55.1 27.8,55 				"/>
				<path class="st15" d="M25.5,49.7c0.5,1,0.9,2,1.4,3.2C26.4,51.8,25.9,50.7,25.5,49.7"/>
				<path class="st15" d="M25.5,49.7c0.5,1,0.9,2,1.4,3.2C26.4,51.8,25.9,50.7,25.5,49.7"/>
				<path class="st12" d="M32.5,54.7c-0.6,1.4-1.5,2.8-2.3,3.5c-1,0.8-2.3,1.6-3.6,2.1l-1.2,0.4l0-1c0-1.7-0.2-3.5-0.5-5.3
					c0.3,1.8,0.5,3.6,0.5,5.3l0,1l1.2-0.4c1.3-0.5,2.6-1.2,3.6-2.1C31.1,57.5,32,56.1,32.5,54.7"/>
				<path class="st12" d="M21.7,47.6c0.8,0.2,1.4,0.8,1.7,1.4c0.4,0.7,0.6,1.5,0.8,2.2c-0.2-0.8-0.4-1.5-0.8-2.2
					C23,48.4,22.4,47.8,21.7,47.6"/>
				<path class="st2" d="M24.4,46c-0.1-0.1-0.3-0.2-0.4-0.4c0.6,0.4,1,0.9,1.5,1.5l-0.2-0.2c-0.1-0.2-0.3-0.4-0.4-0.5
					C24.6,46.3,24.5,46.2,24.4,46"/>
				<path class="st2" d="M24.2,45.7c0.1,0.1,0.2,0.2,0.3,0.2c0.1,0.1,0.2,0.2,0.3,0.3C24.6,46,24.4,45.8,24.2,45.7"/>
				<path class="st2" d="M25.1,46.7l0.1,0.2c0.1,0.2,0.3,0.4,0.4,0.6l0.2,0.3C25.6,47.4,25.4,47,25.1,46.7"/>
				<polyline class="st2" points="25.9,47.9 25.9,47.9 25.9,47.9 25.9,47.9 				"/>
				<polyline class="st3" points="20,43.7 20.3,43.7 20,43.7 				"/>
				<path class="st8" d="M20.8,44.4c-1.6-0.3-3.4-0.4-5.2-0.5c-0.4,0-0.9,0-1.4,0l-1.3,0c-0.8,0-1.5,0-2.3,0.1
					c0.6-0.3,1.1-0.6,1.7-0.9l-0.2,0.1c0.4,0,0.8-0.1,1.6-0.1c0.4,0,0.8-0.1,1.1-0.1c1.2-0.1,2.4-0.2,3.4-0.1
					c0.4,0.1,0.8,0.3,1.1,0.4l0,0l0,0.3l-1,0.3c0.5-0.1,0.9-0.2,1.4-0.2l0.3,0c1.3-0.1,2.6-0.1,3.8,0.4C23,44,21.9,44.1,20.8,44.4"
					/>
				<path class="st16" d="M13.8,43c-0.8,0.1-1.2,0.1-1.6,0.1C12.6,43.2,13,43.1,13.8,43c0.4,0,0.8-0.1,1.1-0.1
					C14.6,43,14.2,43,13.8,43"/>
				<polyline class="st16" points="12.2,43.2 12.4,43.1 12.2,43.2 				"/>
				<polyline class="st17" points="19.5,43.7 19.5,43.3 19.5,43.3 19.5,43.7 				"/>
				<path class="st16" d="M20.8,44.4c1-0.3,2.1-0.4,3.2-0.3C23,44,21.9,44.1,20.8,44.4"/>
				<path class="st8" d="M19,47.5c-1.6,0-3.6-0.2-5.5-0.3c0.7-0.6,1.8-1.1,3.1-1.6c1.3-0.5,2.8-0.9,4.2-1.2c0.7,0.1,1.4,0.3,2.1,0.6
					c-0.4-0.1-0.9-0.1-1.3-0.2c-0.2,0-1,0-1.1,0.2c-0.1,0.1,0.1,0.1,0.8,0.3c0.4,0.1,0.8,0.2,1.4,0.6c0.6,0.3,1.3,0.9,1.8,1.8
					c0.4,0.6,0.6,1.3,0.9,2c-0.5-1-1.1-2-2-2.5s-2-0.6-3-0.4c0.4,0.2,0.9,0.4,1.2,0.8c-0.3-0.1-0.6-0.1-0.9-0.1c-0.4,0-0.8,0-1.3,0
					C19.3,47.5,19.1,47.5,19,47.5"/>
				<path class="st16" d="M20.5,46.8c1-0.2,2.1-0.2,3,0.4c0.9,0.6,1.5,1.5,2,2.5c-0.5-1-1.1-2-2-2.5S21.5,46.6,20.5,46.8"/>
				<path class="st16" d="M20.5,45.1c0.1-0.1,0.9-0.1,1.1-0.2c0.4,0,0.9,0.1,1.3,0.2c-0.4-0.1-0.9-0.1-1.3-0.2
					C21.4,44.9,20.7,45,20.5,45.1"/>
				<path class="st18" d="M22.5,50.9c-0.2-0.8-0.6-1.6-1.3-2c-1.1-0.7-2.4-0.6-3.6-0.6c-1.2,0-2.5,0.1-3.7,0.2c-0.8,0-1.7,0-2.5,0.2
					c-0.3,0-0.6,0.1-0.8,0.2c-1.1-1-2.1-2.1-3-3.2c1-0.5,2.1-1.1,3.1-1.6c0.8-0.1,1.5-0.1,2.3-0.1l1.3,0c0.5,0,0.9,0,1.4,0
					c1.8,0.1,3.5,0.2,5.2,0.5c-1.4,0.2-2.9,0.7-4.2,1.2c-1.3,0.5-2.4,1-3.1,1.6c1.9,0.1,3.9,0.3,5.5,0.3l0,0c0.2,0,0.3,0,0.5,0
					c0.5,0,0.9,0,1.3,0c0.3,0,0.6,0.1,0.9,0.1c0.7,0.7,1.2,1.7,1.5,2.7c0.2,1,0.5,2.1,0.7,3.2l0.1,0.5c0.1,0.6,0.3,1.2,0.4,1.8
					c0.1,0.7,0.3,1.3,0.4,2l-0.4,0.4C23.7,55.4,23.1,53.3,22.5,50.9"/>
				<path class="st13" d="M22.5,50.9c0.6,2.3,1.2,4.4,2,7.2C23.7,55.4,23.1,53.3,22.5,50.9"/>
				<path class="st13" d="M21.2,48.9c-1.1-0.7-2.4-0.6-3.6-0.6c-1.2,0-2.5,0.1-3.7,0.2c1.3-0.1,2.5-0.2,3.7-0.2
					C18.8,48.3,20.1,48.2,21.2,48.9"/>
				<path class="st13" d="M24.4,55.8c-0.1-0.6-0.3-1.2-0.4-1.8l-0.1-0.5c-0.3-1.1-0.5-2.1-0.7-3.2c0.2,1,0.5,2.1,0.7,3.2L24,54
					C24.1,54.6,24.3,55.2,24.4,55.8"/>
				<path class="st19" d="M19,47.5L19,47.5c0.2,0,0.3,0,0.5,0C19.3,47.5,19.1,47.5,19,47.5"/>
				<path class="st19" d="M13.5,47.2c0.7-0.6,1.8-1.1,3.1-1.6c1.3-0.5,2.8-0.9,4.2-1.2c-1.4,0.2-2.9,0.7-4.2,1.2
					C15.3,46.1,14.2,46.6,13.5,47.2"/>
				<path class="st3" d="M13.9,48.5c-1.1,0.1-2.2,0.2-3.4,0.3c0.3-0.1,0.6-0.1,0.8-0.2C12.2,48.5,13,48.5,13.9,48.5"/>
				<path class="st17" d="M13.9,48.5c-1.1,0.1-2.2,0.2-3.4,0.3C11.6,48.7,12.8,48.5,13.9,48.5"/>
			</g>
		</g>
	</g>
</g>
</svg>
