<?xml version="1.0" encoding="utf-8"?>
<!-- Generator: Adobe Illustrator 25.2.3, SVG Export Plug-In . SVG Version: 6.00 Build 0)  -->
<svg version="1.1" id="Layer_1" xmlns="http://www.w3.org/2000/svg" xmlns:xlink="http://www.w3.org/1999/xlink" x="0px" y="0px"
	 viewBox="0 0 75 75" style="enable-background:new 0 0 75 75;" xml:space="preserve">
<style type="text/css">
	.st0{fill:none;stroke:#F0DC82;stroke-miterlimit:10;}
	.st1{fill:#F0DC82;}
	.st2{opacity:0.8;}
	.st3{fill:#F8EEC2;}
	.st4{fill:#F5E7A8;}
	.st5{fill:#F2E296;}
	.st6{fill:#F2E193;}
	.st7{fill:#F9F0CB;}
	.st8{fill:#F3E49E;}
	.st9{fill:#F4E5A1;}
	.st10{fill:#F6EBB8;}
	.st11{fill:#F2E297;}
	.st12{fill:#F3E399;}
	.st13{opacity:0.8;fill:#F8EEC2;}
	.st14{fill:#F4E6A4;}
	.st15{fill:#F3E39C;}
	.st16{fill:#F5E7A9;}
	.st17{fill:#F3E299;}
	.st18{fill:#F2E195;}
	.st19{fill:#F5E8AE;}
</style>
<g>
	<g>
		<path class="st0" d="M72.23,0.16"/>
	</g>
</g>
<g>
	<g>
		<g>
			<path class="st1" d="M42.02,29.16c0.19,0.42,0.37,0.85,0.55,1.3c0.29,0.83,0.58,1.66,0.87,2.5c0.12,0.43,0.24,0.87,0.36,1.31
				c0.05,0.22,0.14,0.45,0.16,0.65l0.02,0.61c0,0.4,0.04,0.83,0,1.21c-0.04,0.37-0.16,0.78-0.34,1.18c-0.3,0.6-0.72,1.1-1.22,1.62
				c-0.51,0.51-1.18,0.92-1.83,1.34c-0.66,0.41-1.34,0.8-2.04,1.16c-0.34,0.18-0.72,0.35-1.05,0.51l-0.85,0.37
				c-0.5,0.21-0.93,0.38-1.5,0.58c-0.73,0.26-1.47,0.49-2.21,0.65c-1.48,0.32-2.99,0.33-4.4-0.05c-1-0.28-1.94-0.73-2.77-1.31
				c-1.24-0.83-2.34-2.14-3.19-3.4l-0.22-0.3c-0.06-0.08-0.23-0.32-0.44-0.78c-0.21-0.45-0.51-1.2-0.54-2.27
				c-0.05-1.08,0.31-2.28,0.78-3.03c0.46-0.79,0.95-1.26,1.38-1.62c0.43-0.36,0.83-0.6,1.11-0.75c0.62-0.35,1.3-0.6,1.92-0.75
				c1.27-0.3,2.33-0.26,3.16-0.17c0.84,0.09,1.5,0.25,2.03,0.37c0.94,0.22,1.85,0.46,2.82,0.75c1.92,0.58,3.96,1.35,5.98,2.51
				c1.01,0.58,2.01,1.27,2.95,2.07c0.96,0.8,1.83,1.74,2.42,2.43c-0.34,0.3-1.27,0.27-1.03,0.9c0.53,1.14,0.51,1.71,0.37,2.18
				c-0.15,0.46-0.47,0.78-0.8,1.1c-0.32,0.34-1.08-1.19-1.05-0.48c-0.54-0.62-1.36-1.5-2-1.96c-0.65-0.46-0.97-0.51-0.46,0.26
				c0.14,0.72,1.94,2.16,1.82,3.03c-0.1,0.9-1.41,0.47-1.51,1.38c0.4,0.46,1.37,1.41,1.97,1.83c0.15,0.39-0.18,0.57-0.51,0.68
				c-0.32,0.11-0.62,0.16-0.3,0.41c0.83,0.9,2.06,1.66,3.5,2.12c1.44,0.47,3.06,0.66,4.69,0.57c0.01,0.23,0.17,0.45,0.18,0.64
				c0.01,0.1-0.02,0.19-0.13,0.28c-0.16,0.08-0.43,0.18-0.88,0.23c-2.09,0.01-4.13-0.45-6.02-1.33c-0.94-0.44-1.84-0.99-2.69-1.65
				c-0.83-0.65-1.5-1.32-2.06-1.91l-1.4-1.52c-0.4-0.42-0.69-0.68-1.01-0.94c-0.66-0.52-1.45-0.99-2.38-1.4
				c-0.93-0.42-1.98-0.79-3.13-1.13c-0.57-0.17-1.17-0.34-1.79-0.5l-0.46-0.12l-0.34-0.08c-0.09-0.02-0.17-0.03-0.22-0.04
				c-0.03-0.01-0.04,0-0.06,0c-0.01,0-0.01,0-0.01,0l0,0c0-0.01-0.01,0.04,0.01-0.08c0.14-1.24,0.12-1.96,0.05-2.45
				c-0.04-0.25-0.08-0.39-0.12-0.51c-0.01-0.04-0.03-0.08-0.04-0.1l-0.01-0.01l-0.38-0.64c-0.17-0.27-0.45-0.56-0.61-0.63
				c-0.18-0.1-0.16,0.03,0.29-0.12c0.12-0.04,0.26-0.09,0.47-0.19l0.4-0.2l0.65-0.35l1.42-0.8l1.09-0.63l0.01,0.01l0.06,0.09
				c0.08,0.12,0.18,0.29,0.16,0.24c0.04,0.01,0.07,0,0.08-0.02c0.01-0.01,0.01-0.03,0.01-0.04c0-0.01-0.01-0.01,0-0.02
				c0.29-0.11,0.6-0.24,0.9-0.38l0.21-0.1c0.01-0.01,0.02-0.02,0.03-0.02c0.01,0,0,0,0,0l-0.02,0c-0.01,0-0.03,0-0.04,0.01
				c-0.01,0.02,0.01,0.04,0.02,0.06l-0.6-2.07c-0.21-0.76-0.41-1.55-0.59-2.35c-0.73-3.19-1.22-6.84-0.66-10.66
				c0.16-0.75,0.33-1.15,0.48-1.3c0.15-0.1,0.3-0.06,0.43,0.21c0.26,0.52,0.49,1.64,0.77,2.69c-0.17-0.71,0.5-0.65,0.35-1.35
				c0.69,0.1,1.58,1.54,1.93,3.93c-0.02-0.61-0.06-1.22-0.03-1.84c0.24-0.6,0.68,0.02,1.13,0.03c-0.03,0.58,0.01,1.16,0.23,1.15
				c0.23-0.01,0.68-0.02,0.91-0.03c-0.03-0.55-0.01-1.64,0.06-2.18c-0.06,0.54-0.06,1.09,0.17,1.09c0.23,0.01,0.68,0.02,0.91,0.02
				c0.18,1.01-0.15,2.61,0.25,3.64l0.67-0.1c0.06-1.06-0.28-2.53-0.24-3.52c0.21,0.5,0.44,0.49,0.9,0.49
				c0.24,1.37-0.24,2.96,0.74,4.35c-0.11-0.5-0.19-1-0.27-1.49c0.64,0.41,0.83,1.22,1,2.18C41.56,27.34,41.68,28.41,42.02,29.16z"/>
		</g>
	</g>
</g>
<g>
	<g>
		<g>
			<path class="st1" d="M57.16,34.5c1.79,0.55,3.57,1.27,5.3,2.16c0.44,0.23,0.85,0.44,1.3,0.71c0.71,0.4,1.3,0.81,1.95,1.23
				c1.24,0.87,2.47,1.77,3.7,2.7c0.93,2.59,1.61,4.3,2.11,4.93c0.19,0.23,0.34,0.28,0.46,0.16c-0.01,0.14-0.13,0.53-0.16,0.88
				c-0.09,0.79-0.13,1.8,0.1,3.87c-1.89,0.72-3.64,1.49-5.3,2.29c-1.47,0.71-2.94,1.42-4.42,2.14c-1.93,0.91-3.94,1.82-6.12,2.6
				c-4.3,1.53-9.14,2.6-14.26,1.96c-2.53-0.32-5.11-1.12-7.36-2.36c-2.27-1.23-4.29-2.86-5.95-4.8c-1.68-1.99-2.7-3.84-3.65-5.08
				c-0.48-0.64-0.88-1.08-1.37-1.52c-0.48-0.44-1.03-0.83-1.61-1.18c-2.04-1.21-4.5-1.93-7.15-2.08c-0.78-0.06-1.83-0.11-3.13-0.39
				c-1.36-0.29-2.68-0.86-3.71-1.45c-0.26-0.15-0.52-0.3-0.76-0.46c-0.24-0.15-0.45-0.29-0.82-0.55c-0.64-0.46-1.28-0.95-1.87-1.47
				c-1.18-1.05-2.1-2.28-2.62-3.72c-0.77-2.13-0.54-4.48,0.38-6.63c0.23-0.54,0.49-1.07,0.78-1.59l0.42-0.76l0.26-0.45
				c0.35-0.6,0.71-1.19,1.07-1.75c1.46-2.28,2.85-4.26,4.25-6.33l2.11-3.08l1.11-1.63c0.71-0.98,1.35-2.09,2.17-2.91
				c0.41-0.41,0.84-0.75,1.32-1.04c0.48-0.29,1.03-0.53,1.57-0.69C18.31,7.86,19.48,7.85,20.7,8l2.77,0.37
				c0.52,0.06,0.98,0.1,1.38,0.11c0.4,0.01,0.73-0.01,1-0.04c0.27-0.03,0.45-0.09,0.73-0.18c0.57-0.2,1.37-0.59,2.41-1.19
				c1.05-0.58,2.27-1.32,3.95-2c1.65-0.67,3.89-1.23,6.25-0.98c2.32,0.26,4.02,1.04,5.29,1.62c1.23,0.58,2.39,1.17,3.54,1.77
				c2.29,1.22,4.45,2.48,6.53,3.7l-2.95,6.01c0-0.05-0.01,0.04,0.05,0.17c0.05,0.13,0.17,0.3,0.28,0.4
				c0.11,0.11,0.19,0.15,0.17,0.14c-0.01,0-0.04-0.02-0.09-0.04l-0.09-0.03l-0.03-0.01l-0.01,0l0,0l0.7,0.14l0.02,0L52.68,18
				c0.19,0.03,0.51,0.06,1.06,0.04l0.47-0.03l0.59-0.06c0.23-0.03,0.51-0.06,0.76-0.1c0.09-0.01,0.08-0.01,0.08-0.01l0,0l0,0.01
				c0.01,0.06,0.08,0.36,0.2,0.87c-0.11,0.03-0.27-0.12-0.44-0.27c-0.17-0.15-0.34-0.27-0.48-0.32c-0.14-0.05-0.26-0.05-0.36,0.01
				c-0.09,0.09-0.15,0.21-0.05,0.88c0.43,2.6,0.38,4.64,0.2,6.16c-0.2,1.52-0.53,2.52-0.84,3.15c-0.64,1.27-1.12,1.14-1.55,1.04
				c-0.21-0.05,0.18-1.89,0.2-3.42c0.04-1.54-0.08-2.74-0.23-1.52c-0.06-1.55-0.32-3.3-0.74-4.98c-0.22-0.81-0.33-1.45-0.24-1.79
				c0.03-0.14,0.13-0.31,0.21-0.39c0.09-0.09,0.11-0.08,0.1-0.09l0.71-2.17c-3.3-1.8-5.18-2.64-1.91-0.47
				c0.32,0.29,0.86,0.66,1.54,1.1l1.95,1.26l-2.22-0.44c-0.27-0.05-0.62,0.08-0.89,0.41c-0.27,0.32-0.4,0.75-0.39,1.27
				c0.01,0.51,0.14,1.05,0.27,1.62c0.13,0.57,0.24,1.15,0.33,1.72c0.37,2.27,0.24,4.39-0.13,5.28c-0.45,1.09-0.72,0.47-1.02-0.08
				c-0.3-0.57-0.62-1.07-1.02-0.08c-0.07,1-0.32,2.48-0.86,3.81c-0.52,1.34-1.36,2.52-1.99,3.22c-0.81,0.52-0.71-0.08-0.63-0.57
				c0.07-0.52,0.15-0.95-0.38-0.34c-0.9,0.82-1.95,1.49-3.08,1.81c-1.15,0.36-2.95,0.39-5.4,0.66c-2.43,0.3-4.89,0.92-7.27,1.87
				c-1.19,0.48-2.36,1.03-3.49,1.66l-0.84,0.49l-0.42,0.25c-0.37,0.24-0.67,0.48-0.94,0.73c-0.52,0.53-0.98,1.03-1.4,2.1
				c-0.19,0.55-0.41,1.33-0.19,2.48c0.11,0.55,0.39,1.18,0.76,1.64c0.39,0.5,0.77,0.8,1.18,1.07c-0.12,0.19,0.25,0.68,0.15,0.85
				c-0.05,0.09-0.22,0.09-0.63-0.06c-0.14-0.08-0.38-0.24-0.56-0.38c-0.19-0.14-0.39-0.31-0.62-0.56c-0.43-0.45-0.84-1.09-1.1-1.81
				c-0.12-0.34-0.21-0.75-0.25-1.09c-0.04-0.32-0.05-0.72-0.03-1c0.04-0.61,0.17-1.14,0.33-1.56c0.32-0.86,0.7-1.45,1.16-2
				c0.23-0.28,0.49-0.54,0.8-0.81c0.16-0.14,0.32-0.27,0.53-0.41c0.11-0.08,0.23-0.15,0.35-0.23c3.66-2.27,7.78-3.75,12.06-4.33
				c2.19-0.28,3.89-0.33,4.94-0.6c0.53-0.13,0.86-0.27,1.28-0.49c0.4-0.22,0.79-0.51,1.16-0.87c0.74-0.71,1.39-1.68,1.8-2.73
				c0.41-1.04,0.65-2.3,0.68-3.62c0.04-1.33-0.12-2.75-0.44-4.19l-0.31-1.3c-0.13-0.63-0.33-1.55-0.25-2.81
				c0.02-0.31,0.06-0.64,0.13-0.97c0.08-0.4,0.2-0.81,0.34-1.18c0.29-0.75,0.69-1.42,1.23-2.05c0.54-0.63,1.23-1.23,2.19-1.7
				c0.94-0.47,2.21-0.74,3.43-0.6l-3.13,9.51c-2.14-1.23-4.21-2.42-6.28-3.5c-1.02-0.53-2.07-1.05-3.07-1.51
				c-0.94-0.44-1.57-0.6-1.75-0.59c-0.18,0-0.51,0.04-1.2,0.32c-0.69,0.3-1.61,0.82-2.74,1.46c-1.15,0.64-2.53,1.4-4.3,1.99
				c-0.91,0.29-1.9,0.52-2.84,0.61c-0.94,0.11-1.82,0.12-2.65,0.1c-0.82-0.03-1.59-0.1-2.29-0.18l-0.8-0.1l-0.06,0
				c-0.07-0.01-0.15,0-0.18,0.08l-0.05,0.09l-1.02,1.48l-2.11,3.06c-1.39,2.03-2.87,4.11-4.08,6c-0.31,0.48-0.6,0.94-0.87,1.41
				l-0.2,0.35c-0.05,0.09-0.01,0.02-0.02,0.04l0,0.01l-0.01,0.03c-0.01,0.04-0.02,0.08,0.01,0.12c0.01,0.02,0.03,0.03,0.05,0.04
				l0.03,0.01c0,0,0.01,0.01,0.01,0.01c0.01,0-0.01,0,0.02,0.01l0.13,0.09c0.36,0.24,0.65,0.38,0.85,0.45
				c0.11,0.04,0.16,0.05,0.27,0.08c0.11,0.03,0.29,0.06,0.52,0.09c0.84,0.1,3,0.25,4.7,0.65c1.76,0.39,3.48,0.95,5.17,1.71
				c1.68,0.76,3.31,1.73,4.83,2.95c0.76,0.61,1.49,1.28,2.17,2.01c0.69,0.74,1.29,1.51,1.8,2.22c1.02,1.43,1.75,2.66,2.39,3.55
				c0.33,0.45,0.6,0.79,0.91,1.13c0.31,0.34,0.65,0.66,1.01,0.96c1.46,1.2,3.15,1.99,5.01,2.3c1.88,0.33,4.03,0.2,6.27-0.3
				c2.27-0.5,4.53-1.34,6.93-2.43l1.82-0.85l0.93-0.45l-0.05,0.02c-0.01,0.01-0.13,0.04-0.05,0.03c0.03,0.01,0.05,0.02,0.07,0.04
				l0.03,0.02l0.01,0.01c0,0,0.01,0.01,0.02,0.02c0,0,0.02,0.01,0.01,0l-0.1-0.06l-0.41-0.23c-1.08-0.62-2.22-1.14-3.39-1.58
				c-1.17-0.44-2.37-0.79-3.58-1.04c-0.3-0.07-0.61-0.11-0.91-0.17c-0.25-0.04-0.42-0.06-0.47-0.06l-0.01,0l0,0l0-0.23
				c-0.01-0.34-0.01-0.6-0.03-0.87c-0.03-0.5-0.09-0.93-0.15-1.23c-0.14-0.65-0.3-0.89-0.33-0.92l1.94-6.57
				c1.11,0.81,2.22,1.62,3.32,2.43l2.98,2.19c1.09,0.84,1.9,1.79,2.43,2.81c0.47,0.91,0.79,1.99,0.86,3.08
				c0.07,1.08-0.09,2.15-0.42,3.18c-0.63,2.07-2.23,4.05-3.78,5.79c-1.92,2.11-3.73,3.74-5.59,5.44c-3.72,3.36-7.63,6.51-11.68,9.44
				c-3.92,2.69-4.56,2.71-3.55,1.62c1.02-1.11,3.66-3.48,6.2-5.92c-1.7,1.61-2.12,1.07-3.85,2.65c-0.2-0.28,0.48-1.32,2.07-3.05
				c1.59-1.73,4.07-4.15,7.41-7.31c-1.71,1.54-3.45,3.03-5.23,4.49c-1.93,1.26-0.43-0.53-0.72-0.88c1.77-1.44,3.49-2.94,3.33-3.11
				c-0.15-0.17-0.45-0.51-0.6-0.68c-1.68,1.5-5.19,4.36-7.01,5.71c1.8-1.36,3.55-2.79,3.41-2.97c-0.14-0.18-0.43-0.53-0.57-0.7
				c1.67-1.5,3.83-3.28,5.93-5.13c1.04-0.93,2.1-1.87,3.03-2.79c0.47-0.46,0.91-0.91,1.31-1.36c0.19-0.21,0.42-0.48,0.54-0.63
				c0.12-0.15,0.24-0.31,0.35-0.46l-0.59-0.36c-0.28,0.28-0.57,0.58-0.88,0.9c-0.42,0.42-0.86,0.86-1.31,1.31
				c-0.95,0.91-1.96,1.87-2.96,2.82c-2.03,1.9-4.11,3.76-5.84,5.17c1.58-1.59,1.42-1.78,1.13-2.12c2.37-2.15,4.85-4.25,7.15-6.43
				c0.56-0.54,1.1-1.08,1.6-1.62l0.24-0.26l0.16-0.18c0.1-0.12,0.2-0.25,0.29-0.38c0.18-0.26,0.33-0.53,0.37-0.83
				c0.05-0.29-0.09-0.62-0.39-0.78c-0.08-0.05-0.16-0.08-0.24-0.12c0.06,0.04,0.12,0.09,0.17,0.14c0.27,0.24,0.27,0.65,0.12,0.95
				c-0.14,0.31-0.36,0.58-0.58,0.84c-0.01-0.29,0.03-0.53,0.06-0.78c0.03-0.24,0.03-0.57-0.23-0.77c-0.12-0.1-0.25-0.17-0.38-0.27
				c-0.19-0.14-0.38-0.29-0.57-0.43c-1.11-0.84-2.24-1.69-3.36-2.54l-4.68-3.54l4.66-3.38c0.85-0.62,1.82-1,2.65-1.16
				c0.84-0.18,1.56-0.19,2.17-0.17c0.62,0.03,1.14,0.1,1.6,0.18c0.41,0.08,0.82,0.16,1.22,0.23C54.39,33.69,55.85,34.1,57.16,34.5z"
				/>
		</g>
	</g>
</g>
<g>
	<g>
		<g>
			<path class="st1" d="M13.41,43.36c0-1.24,0.24-2.49,0.58-3.66c0.35-1.17,0.81-2.3,1.34-3.43c1.06-2.25,2.37-4.38,3.5-6.44
				c0.33-0.63,0.7-1.25,1.11-1.85c0.2-0.3,0.42-0.6,0.65-0.89c0.02-0.07-0.01-0.1-0.01-0.14c-0.02-0.07-0.06-0.13-0.1-0.18
				l-0.03-0.03c0-0.02-0.01,0.01,0-0.05l0.04-0.22l0.09-0.44c0.13-0.57,0.31-1.14,0.53-1.69c0.46-1.11,1.1-2.21,2.13-3.26
				c0.99-1.03,2.48-2.01,4.22-2.4c1.69-0.41,3.43-0.21,4.63,0.16c1.22,0.37,2.04,0.81,2.67,1.13c-0.22,0.4-0.95,0.79-0.64,1.2
				c0.61,0.71,0.64,1.18,0.6,1.63c-0.05,0.45-0.24,0.86-0.44,1.27c-0.18,0.43-0.96-0.5-0.85,0.08c-0.5-0.27-1.26-0.62-1.83-0.73
				c-0.58-0.11-0.82-0.01-0.3,0.43c0.23,0.56,1.8,0.91,1.83,1.69c0.05,0.79-0.99,1.02-0.93,1.82c0.37,0.2,1.25,0.61,1.8,0.75
				c0.19,0.3-0.02,0.59-0.24,0.82c-0.22,0.23-0.45,0.39-0.15,0.49c0.89,0.51,2.14,0.73,3.4,0.58c1.27-0.14,2.57-0.63,3.74-1.38
				c0.12,0.19,0.33,0.33,0.44,0.49c0.05,0.08,0.08,0.17,0.07,0.28c-0.08,0.14-0.25,0.34-0.57,0.57c-1.5,0.83-3.15,1.25-4.85,1.26
				c-0.85,0-1.72-0.11-2.56-0.34c-0.82-0.22-1.46-0.49-2.02-0.74c-1.09-0.51-1.79-0.89-2.11-0.97c-0.05-0.03-0.13,0.01-0.09-0.05
				l0.21-0.78c0.05-0.2,0.08-0.46,0.11-0.55c0.02-0.11,0.03-0.32,0.04-0.37c0.01-0.06,0.01-0.14,0-0.2c0,0,0-0.01,0-0.03l0-0.01
				c0.03,0.17-0.04-0.24-0.03-0.2l0,0l0,0l0,0l0,0c0.01,0.03,0.1,0.28,0.34,0.58c0.24,0.3,0.61,0.64,0.97,0.88
				c0.5,0.31,0.35,0.2,0.38,0.27l0.01,0.06l0,0.01l0,0.01l-0.01,0.07l-0.1,0.62c-0.26,1.68-1.05,3.23-2.24,4.46l-0.42,0.45
				l-0.16,0.19l-0.31,0.38c-0.21,0.26-0.41,0.52-0.6,0.8c-1.56,2.15-2.76,4.79-3.56,7.44c-0.38,1.26-0.56,2.37-0.56,3.25
				c-0.01,0.87,0.18,1.63,0.38,2.09c0.07,0.47-0.78,0.92-1.73,0.63c0.3,0.07-0.29,0.42,0.02,0.49c-0.29,0.19-0.73,0.35-1.21,0.29
				c-0.48-0.05-1.01-0.34-1.32-0.94c0.1,0.32,0.22,0.62,0.36,0.92c-0.06,0.4-0.61,0.3-1.03,0.48c-0.16-0.34-0.29-0.7-0.5-0.62
				c-0.21,0.08-0.64,0.23-0.85,0.31c0.13,0.41,0.5,1.19,0.73,1.55c-0.22-0.37-0.4-0.76-0.61-0.67c-0.21,0.1-0.62,0.29-0.82,0.38
				c-0.64-0.8-0.6-2.3-0.94-3.15l-0.67,0.1c-0.09,1.01,0.55,2.43,1,3.34c-0.42-0.37-0.62-0.3-1.05-0.12
				c-0.42-0.72-0.55-1.54-0.65-2.32c-0.11-0.78-0.2-1.53-0.58-2.29c0.03,0.52,0.08,1.04,0.16,1.57c-0.64-0.43-0.81-1.42-0.74-2.41
				C13.12,45.09,13.4,44.11,13.41,43.36z"/>
		</g>
	</g>
</g>
<g>
	<g>
		<g>
			<g class="st2">
				<path class="st3" d="M69.26,30.01c1.1,0.23,2.23,0.54,3.37,0.92l0.87-0.09l-0.95,0.62c-1.36,1.28-2.59,3.17-4.28,3.94
					c0.29-0.34,0.52-0.78,0.73-1.22c0.07-0.14,0.14-0.29,0.21-0.42c0.13-0.27,0.25-0.51,0.38-0.69l0.03,0.16l-0.21-1.18l0.45-0.85
					l-0.45,0.85L69.26,30.01"/>
				<path class="st3" d="M49.59,54.18l0.06,0.03l-0.33,0.24c-1.32,0.17-2.68,0.12-4.03,0.11c-1.62-0.15-3.32-0.73-4.87-1.73
					c-0.31-0.2-0.62-0.41-0.91-0.65c0.76,0.21,1.51,0.38,2.25,0.5l0.18,0.11c1.32,0.75,2.67,1.06,3.94,1.21
					C47.14,54.14,48.34,54.14,49.59,54.18"/>
				<path class="st4" d="M38.43,54.18c-0.85-0.38-1.88-0.99-2.47-1.32c-0.68-0.4-1.29-0.79-1.88-1.17l0.31-0.33
					c0.6,0.46,1.39,0.87,2.1,1.46c0.1,0.08,0.2,0.17,0.3,0.26c0.12,0.12,0.25,0.23,0.38,0.36l-0.13-0.23
					C37.5,53.55,37.96,53.87,38.43,54.18"/>
				<polyline class="st4" points="35.75,51.59 34.65,50.98 34.61,50.8 35.75,51.59 				"/>
				<polyline class="st4" points="49.79,45.06 49.96,45.24 49.74,45.11 49.79,45.06 				"/>
				<polyline class="st4" points="46.5,38.79 46.58,39.21 46.5,38.79 				"/>
				<polyline class="st4" points="46.58,39.21 46.62,39.24 46.58,39.21 				"/>
				<polyline class="st4" points="32.71,45.38 32.72,45.72 32.71,45.38 				"/>
				<polyline class="st4" points="44.54,38.41 44.55,38.56 44.54,38.41 				"/>
				<polyline class="st4" points="65.58,47.31 66.59,46.99 65.58,47.31 				"/>
				<path class="st4" d="M49.96,45.24c0.12,0.15,0.25,0.3,0.39,0.44C50.22,45.54,50.09,45.39,49.96,45.24"/>
				<polyline class="st4" points="32.42,46.6 32.57,46.95 32.42,46.67 32.42,46.6 				"/>
				<polyline class="st4" points="32.6,44.89 32.71,45.38 32.61,45.08 32.6,44.89 				"/>
				<polyline class="st4" points="33.8,48.53 33.15,48.22 33.1,48.1 33.15,48.22 33.1,48.1 33.14,48.07 33.8,48.53 				"/>
				<path class="st4" d="M32.31,45.83l0.1,0.77l0.15,0.35l-0.15-0.28c0.15,0.76,0.4,1.58,0.9,2.44l0.27-0.09l-0.75-0.97l0.32,0.17
					L33.1,48.1l-0.12-0.2l0.16,0.16l-0.43-1.13l0.06,0.55l-0.13-0.61l0.07,0.07l-0.05-0.6L32.31,45.83 M32.64,46.87l-0.07-0.07
					L32.64,46.87"/>
				<polyline class="st5" points="32.42,46.67 32.57,46.95 32.42,46.67 				"/>
				<polyline class="st5" points="33.1,48.1 33.15,48.22 33.1,48.1 				"/>
				<path class="st4" d="M32.17,44.41l0.1,0.21l0.13,0.3l0.25,1.15l0,0.27l-0.34-0.52C32.27,45.33,32.23,44.88,32.17,44.41"/>
				<polyline class="st4" points="32.98,47.91 33.14,48.07 33.1,48.1 32.98,47.91 				"/>
				<polyline class="st5" points="32.98,47.91 33.14,48.07 32.98,47.91 				"/>
				<polyline class="st4" points="32.14,44.32 32.25,44.44 32.27,44.61 32.17,44.41 32.14,44.32 				"/>
				<polyline class="st4" points="32.24,44.39 32.25,44.44 32.24,44.39 				"/>
				<polyline class="st4" points="32.29,44.5 32.6,44.89 32.41,44.72 32.29,44.5 				"/>
				<polyline class="st5" points="33.1,48.1 33.15,48.22 33.1,48.1 				"/>
				<polyline class="st4" points="32.24,44.39 32.29,44.5 32.24,44.39 				"/>
				<polyline class="st4" points="32.25,44.44 32.29,44.5 32.41,44.72 32.41,44.92 32.27,44.61 32.41,44.92 32.27,44.61 
					32.25,44.44 				"/>
				<polyline class="st5" points="32.24,44.39 32.29,44.5 32.25,44.44 32.24,44.39 				"/>
				<polyline class="st5" points="32.29,44.5 32.41,44.72 32.29,44.5 				"/>
				<polyline class="st5" points="32.27,44.61 32.41,44.92 32.27,44.61 				"/>
				<polyline class="st4" points="32.41,44.72 32.6,44.89 32.61,45.08 32.41,44.72 				"/>
				<polyline class="st5" points="32.6,44.89 32.61,45.08 32.6,44.89 				"/>
				<polyline class="st5" points="32.41,44.72 32.6,44.89 32.41,44.72 				"/>
				<polyline class="st4" points="32.41,44.72 32.61,45.08 32.58,45.46 32.44,44.94 32.41,44.92 32.41,44.72 				"/>
				<polyline class="st5" points="32.41,44.72 32.61,45.08 32.41,44.72 				"/>
				<polyline class="st5" points="32.56,46.8 32.64,46.87 32.56,46.8 				"/>
				<polyline class="st4" points="32.64,46.87 32.71,46.94 32.77,47.49 32.64,46.87 				"/>
				<polyline class="st5" points="32.64,46.87 32.71,46.94 32.64,46.87 				"/>
				<polyline class="st5" points="32.71,46.94 32.77,47.49 32.71,46.94 				"/>
				<polyline class="st4" points="32.66,46.07 32.76,46.37 32.66,46.34 32.66,46.07 				"/>
				<polyline class="st4" points="32.41,44.92 32.44,44.94 32.66,46.07 32.41,44.92 				"/>
				<polyline class="st5" points="32.41,44.92 32.44,44.94 32.41,44.92 32.44,44.94 32.41,44.92 				"/>
				<polyline class="st6" points="32.41,44.92 32.44,44.94 32.41,44.92 				"/>
				<polyline class="st4" points="42.66,41.05 42.95,42.03 42.54,41 42.66,41.05 				"/>
				<polyline class="st4" points="43.1,41.2 43.13,42.35 42.86,41.11 43.1,41.2 				"/>
				<path class="st4" d="M44.63,40.53c0.51,0.56,1.01,1.06,1.08,1.69l-0.57-0.74l0.04,0.04L44.63,40.53"/>
				<polyline class="st4" points="44.63,40.53 45.18,41.51 45.14,41.48 44.63,40.53 				"/>
				<polyline class="st5" points="44.63,40.53 45.18,41.51 44.63,40.53 				"/>
				<polyline class="st4" points="43.3,41.33 43.34,41.72 43.1,41.2 43.3,41.33 				"/>
				<polyline class="st4" points="41.37,39.68 41.57,40.03 41.37,39.68 				"/>
				<path class="st7" d="M28.65,34.05l-0.36,0.07l-0.53,0.3c0.65,0.43,1.26,0.89,2.02,1.22l-0.19-0.27c0.85,0.3,1.29,0.95,1.92,1.37
					C30.77,35.78,29.52,35.06,28.65,34.05"/>
				<polyline class="st4" points="32.89,36.88 33.1,37.04 32.89,36.88 				"/>
				<polyline class="st4" points="29.78,35.65 30.13,35.81 29.78,35.65 				"/>
				<polyline class="st4" points="32.62,36.58 32.89,36.88 32.62,36.58 				"/>
				<polyline class="st4" points="40.5,40.73 40.7,41.07 40.75,41.55 40.43,40.8 40.5,40.73 				"/>
				<polyline class="st4" points="40.58,40.66 40.7,41.07 40.5,40.73 40.58,40.66 				"/>
				<polyline class="st4" points="40.94,40.11 41.03,40.48 41.17,41.4 40.75,40.48 40.94,40.11 				"/>
				<polyline class="st4" points="40.98,40.07 41.03,40.48 40.94,40.11 40.98,40.07 				"/>
				<polyline class="st4" points="41.04,39.92 41.28,40.94 41.03,40.48 40.98,40.07 41.04,39.92 				"/>
				<path class="st7" d="M40.43,40.8l0.32,0.75l-0.05-0.48c0.38,0.6,0.91,1.21,1.22,1.85c-0.32-0.19-0.6-0.42-0.86-0.68
					c-0.45-0.45-0.82-0.96-1.26-1.44L40.43,40.8"/>
				<polyline class="st8" points="40.43,40.8 40.75,41.55 40.43,40.8 				"/>
				<path class="st4" d="M39.5,40.65c0.47,0.89,1.1,1.75,1.14,2.7l-0.15-0.14c-0.92-0.92-0.93-2.17-1.91-3.11l-0.08-0.07
					c0.16,0.77,0.63,1.72,0.75,2.48c-0.42-0.99-0.73-2.01-1.12-3.03C38.59,39.86,39.06,40.25,39.5,40.65"/>
				<polyline class="st4" points="39.55,42.74 39.82,44.36 39.55,43.81 39.55,42.74 				"/>
				<polyline class="st4" points="40.7,46.09 40.82,46.27 40.84,46.35 40.7,46.09 				"/>
				<path class="st4" d="M40.17,44.92l0.13,0.33c0.13,0.28,0.26,0.56,0.4,0.84l0.12,0.17C40.59,45.81,40.37,45.36,40.17,44.92
					 M40.3,45.25c0.13,0.28,0.26,0.56,0.4,0.84C40.56,45.81,40.43,45.53,40.3,45.25"/>
				<path class="st4" d="M39.55,43.81l0.27,0.55l0.49,0.89c0.13,0.28,0.26,0.56,0.4,0.84l0.13,0.25l-0.02-0.08
					c0.14,0.5,0.27,0.99,0.48,1.52c-0.41-0.39-0.76-0.75-1.1-1.13C40.03,45.7,39.7,44.74,39.55,43.81"/>
				<polyline class="st5" points="39.55,43.81 39.82,44.36 39.55,43.81 				"/>
				<polyline class="st5" points="40.7,46.09 40.84,46.35 40.7,46.09 				"/>
				<path class="st5" d="M40.3,45.25c0.13,0.28,0.26,0.56,0.4,0.84C40.56,45.81,40.43,45.53,40.3,45.25"/>
				<path class="st5" d="M40.3,45.25c0.13,0.28,0.26,0.56,0.4,0.84C40.56,45.81,40.43,45.53,40.3,45.25"/>
				<path class="st4" d="M40.28,47.19c0.25,0.32,0.46,0.61,0.7,0.95c0.24,0.35,0.46,0.69,0.62,1.06c-0.58-0.35-1.19-0.77-1.64-1.1
					l0.36-0.09L40.28,47.19"/>
				<path class="st4" d="M52.13,41.59c0.13,0.06,0.27,0.12,0.42,0.17l-0.02,0.15C52.39,41.81,52.25,41.7,52.13,41.59"/>
				<path class="st9" d="M59.53,30.09c1.96-0.34,3.87-0.53,5.84-0.5l-0.94,1.62c-1.19,1.68-3.19,2.85-4.66,2
					c-0.21-0.12-0.41-0.28-0.6-0.48C59.45,31.9,59.5,30.93,59.53,30.09"/>
				<path class="st4" d="M56.76,36.31l0.29-0.08c-0.04,0.44,0.34,0.75,0,1.34C56.7,37.2,56.76,36.77,56.76,36.31"/>
				<path class="st10" d="M57.36,34.21c0.82-0.03,1.29-0.48,1.61-1.03c0.08-0.14,0.14-0.29,0.2-0.44c0.19,0.2,0.39,0.36,0.6,0.48
					c1.47,0.85,3.47-0.32,4.66-2c-0.76,1.34-1.52,2.67-2.27,4l-0.77,1.31c-0.74,1.27-1.5,2.51-2.27,3.74l0.47,0.12
					c0.24-0.26,0.47-0.53,0.68-0.83c0.2-0.28,0.4-0.56,0.59-0.85l0.17-0.27c0.35-0.54,0.68-1.07,1.04-1.56
					c0.37-0.48,0.75-0.93,1.23-1.28c-0.21,0.84-0.56,1.65-1.02,2.4c-0.31,0.49-0.65,0.96-1.04,1.39c-1.16,1.3-2.68,2.24-4.23,2.64
					c-0.51,0.16-1.15,0.6-1.64,0.98l0.72-0.62l-0.25-0.39c-0.56,0.08-1.13,0.19-1.56,0.12c0.08-0.03,0.16-0.06,0.24-0.1
					c0.3-0.17,0.69-0.43,1.03-0.66l0.93-0.69c0.19-0.14,0.36-0.32,0.51-0.5l0,0c0.47-0.58,0.72-1.35,1.03-2.14
					c-0.25,0.23-0.51,0.44-0.76,0.65c-0.22,0.04-0.38,0.01-0.51-0.06c-0.55-0.34-0.4-1.55-0.12-2.27l0.15-0.04
					c-0.01,0.45-0.06,0.89,0.29,1.27c0.34-0.59-0.04-0.91,0-1.34l0.62,0.14l0.85-0.41c0.47,0.77,1.02-0.54,1.56-0.08
					c0.39-0.32,0.77-0.66,1.15-1l-0.28-1.05C59.74,34.41,58.45,34.93,57.36,34.21"/>
				<path class="st11" d="M59.77,33.22c1.47,0.85,3.47-0.32,4.66-2C63.24,32.89,61.25,34.06,59.77,33.22"/>
				<path class="st12" d="M57.05,36.24c-0.04,0.44,0.34,0.75,0,1.34C57.39,36.99,57.01,36.67,57.05,36.24"/>
				<path class="st4" d="M53.5,42.05c0.25,0.04,0.51,0.07,0.78,0.08c0.08-0.03,0.16-0.06,0.24-0.1c0.3-0.17,0.69-0.43,1.03-0.66
					l-0.04-0.11c-0.33,0.18-0.68,0.34-1,0.49c0.26-0.26,0.55-0.52,0.81-0.81c-0.27,0.06-0.52,0.16-0.74,0.3
					c-0.23,0.14-0.44,0.32-0.6,0.4L53.5,42.05 M54.52,42.03c0.3-0.17,0.69-0.43,1.03-0.66C55.21,41.59,54.82,41.85,54.52,42.03"/>
				<path class="st5" d="M54.52,42.03c0.3-0.17,0.69-0.43,1.03-0.66C55.21,41.59,54.82,41.85,54.52,42.03"/>
				<polyline class="st4" points="56.77,36.12 57.05,36.24 56.76,36.31 56.77,36.12 				"/>
				<polyline class="st4" points="67.34,35.58 67.68,35.68 67.34,35.58 				"/>
				<path class="st13" d="M52.29,33.82c1.86-0.27,3.02,1.5,4.48,2.3l-0.01,0.19l-0.15,0.04c-0.28,0.72-0.43,1.94,0.12,2.27
					c0.13,0.08,0.3,0.1,0.51,0.06c0.26-0.21,0.52-0.42,0.76-0.65c-0.31,0.79-0.56,1.56-1.03,2.14c-0.15,0.19-0.31,0.36-0.51,0.5
					l-0.93,0.69l-0.04-0.11l0.81-0.64c-0.75,0.11-1.29,0.67-1.81,1.13c0.26-0.26,0.55-0.52,0.81-0.81c-0.27,0.06-0.52,0.16-0.74,0.3
					c-0.23,0.14-0.44,0.32-0.6,0.4l-0.1-0.26c-0.34-0.13-0.66-0.29-0.96-0.45c0.16,0.01,0.32,0.01,0.49,0.01
					c0.18-0.02,0.39-0.08,0.62-0.15l-0.08-0.64c-0.46-0.14-0.96-0.29-1.47-0.41c-0.49-0.14-0.85-0.41-1.17-0.58
					c0.19,0.09,0.4,0.21,0.64,0.3c0.25,0.07,0.62,0.03,0.95,0.01c0.67-0.07,1.35-0.25,1.94-0.75l-0.29-0.36l0.43-0.06
					c-0.9-0.23-1.68,0.11-2.51-0.24c0.39-0.04,0.79-0.08,1.18-0.16c-0.46-0.3-1.04-0.21-1.48-0.41c0.97-0.08,2.35,0.85,2.9,0.13
					l0.02-0.03l0.04-0.05c0.97-1.33-0.64-2.37-2.12-2.62l0.37-0.1C53.43,34.18,52.58,34.2,52.29,33.82"/>
				<path class="st14" d="M56.74,38.62c0.13,0.08,0.3,0.1,0.51,0.06c0.26-0.21,0.52-0.42,0.76-0.65c-0.25,0.23-0.51,0.44-0.76,0.65
					C57.03,38.73,56.86,38.7,56.74,38.62"/>
				<path class="st14" d="M58.01,38.03c-0.31,0.79-0.56,1.56-1.03,2.14C57.45,39.59,57.7,38.82,58.01,38.03"/>
				<path class="st15" d="M54.51,41.75c0.26-0.26,0.55-0.52,0.81-0.81C55.06,41.23,54.77,41.49,54.51,41.75"/>
				<polyline class="st15" points="55.51,41.26 55.55,41.37 55.51,41.26 				"/>
				<path class="st13" d="M54.09,43.94L54,44.15l-0.03,0.42l0.28-0.11l-0.28,0.11l0.17,0.39c0.28,0,0.57,0,0.87-0.02L54.6,45.1
					c0.26,0.02,0.54,0.02,0.82,0.02l-0.84,0.26l0.13,0.22l0.33-0.02c0.65-0.28,1.2-0.83,1.89-1.08c-0.18,0.27-0.39,0.5-0.62,0.73
					c-0.48,0.48-1.07,0.82-1.62,1.25l-0.14,0.24c0.87-0.31,1.75-0.9,2.71-0.93l-0.15,0.16c-0.5,0.5-1.1,0.7-1.64,0.9
					c-0.55,0.19-1.08,0.34-1.63,0.71l-0.09,0.06c0.7,0.09,1.7-0.25,2.47-0.34c-1.06,0.41-2.09,0.55-3.06,0.52l-0.11,0.06
					c-1.16,0.4-2.33,0.31-3.37-0.06c0.44,0.29,0.93,0.54,1.43,0.71c-0.5-0.17-0.99-0.42-1.43-0.71c-1.67-0.69-2.96-1.79-3.92-2.99
					c0.17,0.48,0.38,0.96,0.64,1.45c-0.89,0.12-1.64-0.51-2.36-0.8c0.8,1.01,1.56,2.15,2.74,2.86c-1.18-0.71-1.94-1.85-2.74-2.86
					l-0.22-0.1c0.34,1.28,1.47,2.31,2.36,3.36c-0.72-0.49-1.15-1.22-1.89-1.75l0.13,0.32l0.32,0.25l-0.32-0.25
					c-0.7-0.54-1.12-1.23-1.47-1.9c-0.99,0.03-2.12-0.11-2.81-0.71l-0.32-0.32l0.49,0.89l-0.13-0.33c0.2,0.45,0.41,0.9,0.65,1.35
					c0.14,0.5,0.27,0.99,0.48,1.52c-0.41-0.39-0.76-0.75-1.1-1.13l0.08,0.54c0.25,0.32,0.46,0.61,0.7,0.95
					c0.24,0.35,0.46,0.69,0.62,1.06c-0.58-0.35-1.19-0.77-1.64-1.1l-1.2-0.19l-0.46,0.73c0.01,0.46,0.17,0.94,0.46,1.43
					c0.13,0.22,0.37,0.52,0.66,0.79c0.28,0.27,0.59,0.53,0.94,0.77l0.25,0.17l0.31-0.69l0.15,0.7c0.34,0,0.68,0,1.02-0.02l0.72,0.52
					c0.61-0.18,1.19-0.03,1.79,0.23c0.59,0.26,1.21,0.63,1.83,0.89l-0.47-0.43c0.35-0.21,0.69-0.21,1.04-0.11
					c0.52,0.15,1.05,0.52,1.53,0.7c0.34,0.22,0.7,0.41,1.07,0.6l0.1,0l-0.04,0.03l0.04,0.02c0.53,0.09,1.06,0.14,1.6,0.15
					c0.29,0.08,0.59,0.15,0.88,0.2l0.51,0.16l-0.51-0.16c-0.2-0.01-0.39-0.05-0.59-0.07l0.51,0.24c-0.33-0.04-0.66-0.08-0.98-0.15
					c0.65,0.18,1.32,0.3,2,0.36c0.23,0,0.47-0.02,0.7-0.03l-0.18,0.1c0.32,0.05,0.64,0.09,0.96,0.11c0.65-0.04,1.31-0.13,1.97-0.27
					c0.39-0.26,0.76-0.53,1.12-0.82c-0.3,0.27-0.6,0.52-0.92,0.77l-0.53,0.38c0.65-0.26,1.29-0.57,1.92-0.92l0.02,0.29
					c0.82-0.31,1.73-0.96,2.64-1.63l0.09-0.07c0.47-0.44,0.87-0.97,1.3-1.44c-0.35,0.45-0.69,0.94-1.06,1.38l0.36,0.29
					c0.41-0.39,0.78-0.85,1.16-1.3c0.38-0.44,0.75-0.87,1.11-1.28c0.14-0.15,0.3-0.29,0.47-0.42l-0.18,0.05
					c0.27-0.31,0.53-0.61,0.78-0.93c0.29-0.64,0.56-1.28,0.76-1.91l-0.6,0.18l0.6-0.18c0.75-2.27,0.9-4.41,0.42-6.24
					c-0.26,0.98-0.56,1.96-0.69,2.93c-0.4,1.32-1.04,2.52-1.98,3.59l-0.31,0.35c0.14-0.58,0.29-1.15,0.41-1.71l-0.05,0.06
					l-0.01-0.47l0.05,0.42c1.49-1.84,1.54-3.88,2.54-5.58L66,41.07c0.37-1.15,0.69-2.3,0.98-3.44l-0.55-1.72l-0.58,0.87l0.06-0.63
					c-0.04-0.12,0-0.47-0.09-0.56c-0.13-0.11-0.44,0.23-1.48,2.06l-0.48,1c0.29-1.26,0.43-2.43,0.18-3.57l-0.74,0.53
					c-0.21,0.84-0.56,1.65-1.02,2.4c-0.31,0.49-0.65,0.96-1.04,1.39c-1.16,1.3-2.68,2.24-4.23,2.64c-0.51,0.16-1.15,0.6-1.64,0.98
					l-0.07,0.07c0.13-0.01,0.25-0.02,0.39-0.04c-0.16,0.08-0.31,0.12-0.46,0.18c0.35,0.04,0.7,0.05,1.09,0.03
					c-0.41,0.11-0.79,0.15-1.16,0.18l-0.04,0.18c0.29-0.05,0.59-0.1,0.9-0.18c-0.32,0.12-0.63,0.2-0.94,0.29l-0.02,0.3
					C54.73,44.02,54.4,43.98,54.09,43.94 M47.26,48.52c-0.86-0.7-1.39-1.64-2.25-2.4C45.87,46.88,46.4,47.82,47.26,48.52l0.34,0.29
					l0.24,0.14l-0.24-0.14L47.26,48.52l0.09-0.12c0.31,0.17,0.64,0.34,0.97,0.48c-0.33-0.15-0.65-0.31-0.97-0.48L47.26,48.52
					 M52.52,48.6c-0.87,0.3-1.56-0.4-2.32-0.48C50.96,48.2,51.65,48.9,52.52,48.6 M53.23,48.27l0.06-0.03
					c0.2-0.07,0.4-0.15,0.59-0.24c-0.2,0.09-0.39,0.16-0.59,0.24L53.23,48.27c-0.75,0.18-1.38-0.03-2.11-0.09
					C51.85,48.24,52.48,48.44,53.23,48.27 M47.98,48.51l0.39-0.04L47.98,48.51 M63.38,40.35c0.16-0.57,0.34-1.14,0.48-1.71
					C63.72,39.22,63.54,39.78,63.38,40.35 M63.38,40.35c0.16-0.57,0.34-1.14,0.48-1.71C63.72,39.22,63.54,39.78,63.38,40.35
					 M63.38,40.35l-0.1,0.25l-0.07,0.27l-0.11,0.25l-0.06,0.26l-0.01,0.03l-0.1,0.24l-0.07,0.28l-0.12,0.25l-0.08,0.28l-0.08,0.28
					l-0.08,0.19l-0.08,0.28l-0.08,0.28l-0.09,0.28l-0.05,0.22l-0.09,0.28l-0.01,0.26c0.57-0.92,0.8-1.86,1-2.79l0.02-0.1l0.01-0.08
					l0.07-0.34l0.02-0.08l0.07-0.28l0.02-0.16L63.38,40.35 M65.85,36.79l-0.18,0.3l-0.11,0.22l-0.13,0.23l-0.08,0.25l-0.12,0.31
					l-0.03,0.17c-0.04,0.14-0.07,0.29-0.1,0.44l0,0.01l-0.05,0.28l0.05-0.28l-0.05,0.28l0.05-0.28l0,0
					c-0.02,0.09-0.03,0.18-0.05,0.28c0.01-0.12,0.04-0.24,0.08-0.35l0.06-0.18l0.12-0.31l0.03-0.1l0.12-0.28l0.09-0.16l0.06-0.18
					C65.72,37.21,65.8,37,65.85,36.79 M40.92,51.1L41,50.97l-0.24-0.34L40.92,51.1"/>
				<path class="st3" d="M63.38,40.35c-0.1,0.34-0.22,0.69-0.34,1.03l0.06-0.26l0.11-0.25l0.07-0.27L63.38,40.35"/>
				<polyline class="st3" points="63.31,40.69 63.29,40.85 63.23,41.12 63.21,41.2 63.31,40.69 				"/>
				<path class="st3" d="M63.03,41.41c-0.35,1.04-0.72,2.07-0.92,3.1l0.01-0.26l0.09-0.28l0.05-0.22l0.09-0.28l0.08-0.28l0.08-0.28
					l0.08-0.19l0.08-0.28l0.08-0.28l0.12-0.25l0.07-0.28L63.03,41.41"/>
				<polyline class="st3" points="63.14,41.54 63.13,41.62 63.1,41.72 63.14,41.54 				"/>
				<polyline class="st16" points="49.69,54.18 49.64,54.21 49.59,54.18 49.69,54.18 				"/>
				<polyline class="st15" points="64.98,47.49 65.58,47.31 64.98,47.49 				"/>
				<polyline class="st15" points="40.17,44.92 40.3,45.25 40.17,44.92 				"/>
				<path class="st15" d="M40.2,46.65c0.35,0.38,0.69,0.74,1.1,1.13C40.89,47.39,40.55,47.03,40.2,46.65"/>
				<path class="st15" d="M41.61,49.2c-0.58-0.35-1.19-0.77-1.64-1.1C40.42,48.43,41.03,48.85,41.61,49.2"/>
				<polyline class="st15" points="63.38,40.35 63.28,40.6 63.21,40.88 63.11,41.12 63.04,41.39 63.11,41.12 63.21,40.88 
					63.28,40.6 63.38,40.35 				"/>
				<polyline class="st15" points="63.31,40.69 63.29,40.85 63.23,41.12 63.21,41.2 63.23,41.12 63.29,40.85 63.31,40.69 				"/>
				<polyline class="st15" points="63.03,41.41 62.93,41.65 62.86,41.93 62.75,42.17 62.67,42.45 62.59,42.73 62.51,42.92 
					62.43,43.2 62.35,43.48 62.26,43.76 62.21,43.98 62.12,44.26 62.11,44.51 62.12,44.26 62.21,43.98 62.26,43.76 62.35,43.48 
					62.43,43.2 62.51,42.92 62.59,42.73 62.67,42.45 62.75,42.17 62.86,41.93 62.93,41.65 63.03,41.41 				"/>
				<polyline class="st15" points="63.14,41.54 63.13,41.62 63.1,41.72 63.13,41.62 63.14,41.54 				"/>
				<path class="st15" d="M63.86,38.65c-0.14,0.57-0.32,1.13-0.48,1.71C63.54,39.78,63.72,39.22,63.86,38.65"/>
				<path class="st15" d="M63.86,38.65c-0.14,0.57-0.32,1.13-0.48,1.71C63.54,39.78,63.72,39.22,63.86,38.65"/>
				<path class="st14" d="M55.37,43.02c0.49-0.38,1.12-0.82,1.64-0.98c1.55-0.41,3.07-1.35,4.23-2.64c-1.16,1.3-2.68,2.24-4.23,2.64
					C56.5,42.2,55.86,42.64,55.37,43.02"/>
				<path class="st14" d="M63.3,35.61c-0.21,0.84-0.56,1.65-1.02,2.4C62.74,37.26,63.09,36.45,63.3,35.61"/>
				<path class="st3" d="M65.43,37.53l0.13-0.23c-0.15,0.29-0.27,0.61-0.36,0.96l0.03-0.17l0.12-0.31L65.43,37.53"/>
				<polyline class="st3" points="65.62,37.42 65.56,37.6 65.48,37.76 65.62,37.42 				"/>
				<path class="st3" d="M65.35,38.04l-0.03,0.1l-0.12,0.31l-0.06,0.18C65.19,38.43,65.27,38.24,65.35,38.04"/>
				<polyline class="st3" points="65.1,38.7 65.1,38.7 65.1,38.7 65.1,38.7 				"/>
				<polyline class="st4" points="67.2,35.73 67.19,35.87 67.2,35.73 				"/>
				<path class="st9" d="M66.43,35.92c0.93-1.34,2.16-2.47,2.98-3.86l0.21,1.18l-0.03-0.16c-0.12,0.18-0.25,0.42-0.38,0.69
					c-0.07,0.14-0.14,0.28-0.21,0.42c-0.21,0.43-0.45,0.88-0.73,1.22l-0.6,0.28l-0.04-0.02l-0.3-0.08l-0.09-0.49l-0.05,0.64
					l-0.02,0.14l-0.21,1.76L66.43,35.92"/>
				<path class="st17" d="M69.21,33.76c0.13-0.27,0.25-0.51,0.38-0.69C69.47,33.25,69.35,33.49,69.21,33.76
					c-0.07,0.14-0.14,0.28-0.21,0.42C69.08,34.04,69.15,33.9,69.21,33.76"/>
				<polyline class="st17" points="69.59,33.07 69.62,33.23 69.59,33.07 				"/>
				<polyline class="st18" points="67.34,35.58 67.63,35.66 67.68,35.68 67.34,35.58 				"/>
				<polyline class="st17" points="66.43,35.92 66.98,37.63 66.43,35.92 				"/>
				<path class="st9" d="M63.7,34.17c0.43-0.83,1.27-1.73,1.96-2.5c0.55,1.17,0.57,2.81,0.77,4.25l-0.58,0.87l0.06-0.63
					c-0.04-0.12,0-0.47-0.09-0.56c-0.13-0.11-0.44,0.23-1.48,2.06l-0.48,1c0.29-1.26,0.43-2.43,0.18-3.57l-0.74,0.53l0.11-0.51
					c0.01-0.22,0.07-0.45,0.18-0.68C63.62,34.33,63.66,34.25,63.7,34.17"/>
				<path class="st17" d="M64.04,35.08c0.25,1.13,0.11,2.3-0.18,3.57C64.15,37.38,64.29,36.21,64.04,35.08"/>
				<path class="st17" d="M65.81,35.59c0.09,0.09,0.06,0.44,0.09,0.56l-0.06,0.63l0.06-0.63C65.87,36.04,65.91,35.68,65.81,35.59"/>
				<path class="st19" d="M61.4,36.53l0.77-1.31c0.76-1.33,1.51-2.66,2.27-4c0.3-0.37,0.56-0.77,0.76-1.19
					c0.07-0.14,0.13-0.29,0.18-0.43c1.3,0.06,2.58,0.16,3.89,0.42l0.15,2.04c-0.82,1.39-2.05,2.52-2.98,3.86
					c-0.2-1.43-0.22-3.08-0.77-4.25c-0.69,0.77-1.53,1.68-1.96,2.5l0,0c-0.04,0.08-0.08,0.16-0.12,0.24
					c-0.1,0.24-0.17,0.47-0.18,0.68l-0.11,0.51c-0.48,0.35-0.86,0.8-1.23,1.28c-0.36,0.49-0.69,1.02-1.04,1.56l-0.17,0.27
					c-0.18,0.29-0.39,0.57-0.59,0.85c-0.21,0.29-0.43,0.57-0.68,0.83l-0.47-0.12C59.9,39.04,60.66,37.79,61.4,36.53"/>
				<path class="st15" d="M61.4,36.53c-0.74,1.27-1.5,2.51-2.27,3.74C59.9,39.04,60.66,37.79,61.4,36.53"/>
				<path class="st15" d="M62.16,35.22c0.76-1.33,1.51-2.66,2.27-4C63.68,32.55,62.92,33.89,62.16,35.22"/>
				<path class="st15" d="M60.27,39.56c0.2-0.28,0.4-0.56,0.59-0.85l0.17-0.27c0.35-0.54,0.68-1.07,1.04-1.56
					c-0.36,0.49-0.69,1.02-1.04,1.56l-0.17,0.27C60.67,39,60.47,39.28,60.27,39.56"/>
				<path class="st18" d="M63.7,34.17L63.7,34.17c-0.04,0.08-0.08,0.16-0.12,0.24C63.62,34.33,63.66,34.25,63.7,34.17"/>
				<path class="st18" d="M65.66,31.67c0.55,1.17,0.57,2.81,0.77,4.25C66.23,34.48,66.21,32.84,65.66,31.67"/>
				<path class="st4" d="M64.43,31.22l0.94-1.62c-0.05,0.15-0.12,0.29-0.18,0.43C64.99,30.45,64.74,30.84,64.43,31.22"/>
				<polyline class="st18" points="64.43,31.22 65.37,29.59 64.43,31.22 				"/>
			</g>
		</g>
	</g>
</g>
<g>
	<g>
		<g>
			<g class="st2">
				<path class="st3" d="M36.92,14.54c1.2-0.4,2.43-0.55,3.66-0.52c0.32-0.25,0.65-0.48,0.97-0.7c-0.37,0.57-0.73,1.17-1.07,1.82
					c-0.75,1.77-1.27,4.09-1.8,6.46c-0.53,2.37-1.11,4.81-1.95,6.69c0.26-1.15,0.42-2.51,0.54-3.77c0.04-0.42,0.08-0.83,0.11-1.23
					c0.07-0.78,0.14-1.48,0.23-2.03l0.07,0.34l-0.44-2.52c0.11-0.8,0.23-1.59,0.37-2.36c-0.14,0.77-0.25,1.56-0.37,2.36
					C37.06,17.55,36.94,16.05,36.92,14.54"/>
				<path class="st3" d="M33.34,64.19l0.13,0.03c-0.25,0.08-0.5,0.16-0.77,0.23c-1.51,0.06-3.14-0.01-4.8-0.29
					c-0.83-0.13-1.68-0.33-2.51-0.58c-0.75-0.21-1.83-0.52-3.29-1.54c-0.86-0.63-1.89-1.66-2.61-3.07
					c-0.35-0.69-0.59-1.37-0.74-1.95c-0.15-0.57-0.24-1.2-0.27-1.36c-0.17-1.13-0.18-2.3-0.14-3.49c0.09-2.37,0.57-4.8,1.38-7.09
					c0.32-0.92,0.7-1.81,1.13-2.68c-0.61,1.92-1.01,3.89-1.2,5.84c-0.04,0.18-0.09,0.37-0.13,0.55c-0.43,1.99-0.56,3.97-0.46,5.84
					c0.01,0.23,0.03,0.47,0.06,0.7l0.05,0.34l0.07,0.44c0.14,0.8,0.42,1.86,1.03,2.93c0.6,1.05,1.37,1.85,2.05,2.38
					c0.69,0.55,1.31,0.89,1.83,1.14c0.54,0.26,0.95,0.39,1.33,0.52c0.39,0.13,0.78,0.26,1.17,0.35c0.78,0.21,1.55,0.36,2.3,0.47
					C30.47,64.1,31.93,64.17,33.34,64.19"/>
				<path class="st4" d="M18.73,41.58c1.53-4.16,4.24-7.79,8.49-9.53c0.62-0.21,1.23-0.43,1.84-0.61l0.14,0.44
					c-0.6,0.16-1.19,0.36-1.82,0.57c-2.06,0.83-3.92,2.26-5.42,3.92c-0.55,0.59-1.06,1.24-1.57,1.9l0.42-0.41
					C20,38.98,19.32,40.25,18.73,41.58"/>
				<path class="st4" d="M25.69,33.94c0.6-0.39,1.25-0.72,1.89-1.01c0.69-0.24,1.35-0.5,2.03-0.67c0.19,0,0.38,0,0.57,0.02
					c-0.87,0.13-1.7,0.42-2.58,0.71C26.95,33.26,26.3,33.57,25.69,33.94"/>
				<polyline class="st4" points="34.24,55.35 34.84,55.5 34.1,55.4 34.24,55.35 				"/>
				<path class="st4" d="M34.86,50.11c-0.1-0.06-0.21-0.12-0.32-0.17c-0.06-0.03-0.11-0.04-0.17-0.06c0.06,0.02,0.11,0.04,0.17,0.06
					C34.65,49.99,34.76,50.05,34.86,50.11"/>
				<path class="st4" d="M34.37,49.88c-0.02,0-0.04,0.01-0.05,0.02C34.34,49.89,34.35,49.89,34.37,49.88"/>
				<polyline class="st4" points="33.67,33.66 33.3,34.32 33.67,33.66 				"/>
				<polyline class="st4" points="36.43,49.46 36.3,49.31 36.43,49.46 				"/>
				<polyline class="st4" points="33.98,56.13 34.93,54.6 33.98,56.13 				"/>
				<path class="st4" d="M34.84,55.5c0.4,0.12,0.81,0.24,1.24,0.35C35.65,55.74,35.24,55.62,34.84,55.5"/>
				<path class="st4" d="M32.25,35.27c-0.11,0.31-0.23,0.62-0.36,0.92c0.1-0.26,0.2-0.53,0.28-0.8L32.25,35.27"/>
				<path class="st4" d="M34.16,32.41c-0.15,0.42-0.32,0.83-0.49,1.25l0.28-0.83L34.16,32.41"/>
				<path class="st4" d="M37.68,42.37c0.01,0.11,0.03,0.17,0.04,0.2c-0.02-0.04,0-0.02-0.05-0.08c-0.07-0.1-0.25-0.28-0.64-0.51
					c-0.19-0.11-0.45-0.26-0.79-0.41c-0.4-0.18-0.76-0.33-1.62-0.66l-1.67-0.6l-1.71-0.59l-0.77-0.26c0,0,0,0,0-0.01l0.03-0.19
					l0.13-0.25l-0.13,0.25l0.13-0.25l0.05,0.02l-0.1,0.44l-0.01,0.03c0,0.01,0,0,0,0c0.01,0-0.03-0.01,0.03,0.01l0.28,0.09
					l2.06,0.71l1.14,0.41l0.75,0.28c0.85,0.32,1.32,0.53,1.66,0.7c0.69,0.34,0.98,0.58,1.12,0.73
					C37.76,42.56,37.72,42.64,37.68,42.37"/>
				<path class="st4" d="M33.08,33.56c-0.27,0.58-0.54,1.15-0.83,1.71c-0.11,0.31-0.23,0.62-0.36,0.92c0.1-0.26,0.2-0.53,0.28-0.8
					c-0.41,0.84-0.84,1.7-1.29,2.58c-0.22,0.44-0.45,0.88-0.68,1.32l-0.02,0.04l-0.01,0.02c0.02,0.01-0.06-0.02,0.05,0.02l0.48,0.16
					l2.93,1.01c1.27,0.46,1.73,0.64,2.22,0.85c0.86,0.36,1.25,0.6,1.52,0.8c0.54,0.36,0.3,0.65,0.31-0.14l0.01-0.24l0.01-0.14
					l0.92-7.44l-0.02-0.12c-0.1-0.05-0.21-0.01-0.31-0.02l0.19,0.08l0.09,0.04c0.02-0.01,0.02,0.1,0.03,0.14l0.01,0.04l0,0.01
					l0,0.01c0.81-6.43-1.1,8.77-0.9,7.21l0,0.01l-0.01,0.05c-0.03,0.24-0.03,0.42-0.03,0.55c0,0.25,0.08,0.4,0.04,0.31
					c-0.02-0.04-0.1-0.15-0.33-0.34c-0.24-0.18-0.57-0.38-1.24-0.68l-0.62-0.26l-0.9-0.35l-1.5-0.54l-2.83-0.96l0.12-0.32l0.24-0.64
					l-0.16,0.82l0.13-0.25l0.22-0.51l-0.17,0.53c0.44-0.82,0.85-1.67,1.24-2.54c-0.2,0.34-0.41,0.66-0.62,0.99
					c0.23-0.42,0.47-0.84,0.68-1.27l-0.06,0.27c0.23-0.38,0.46-0.76,0.67-1.15C32.77,34.76,32.93,34.16,33.08,33.56 M31.99,36.22
					l0.06-0.27L31.99,36.22"/>
				<path class="st5" d="M32.17,35.4c-0.09,0.27-0.19,0.53-0.28,0.8C31.99,35.93,32.08,35.67,32.17,35.4"/>
				<polyline class="st5" points="30.64,39.02 30.51,39.27 30.64,39.02 				"/>
				<path class="st4" d="M34.49,30.25l-0.16,0.72l-0.26,0.99c-0.35,0.98-0.75,1.93-1.16,2.87l-0.31,0.52
					c0.18-0.59,0.34-1.19,0.49-1.79C33.6,32.49,34.06,31.39,34.49,30.25"/>
				<polyline class="st4" points="30.85,38.51 30.68,39.03 30.64,39.02 30.85,38.51 				"/>
				<polyline class="st5" points="30.85,38.51 30.68,39.03 30.85,38.51 				"/>
				<path class="st4" d="M34.57,29.85l-0.05,0.4l-0.04,0.28l-0.15,0.44l0.16-0.72C34.51,30.13,34.53,30.14,34.57,29.85"/>
				<polyline class="st4" points="34.53,30.4 34.48,30.53 34.53,30.4 				"/>
				<path class="st4" d="M34.45,30.79c-0.09,0.54-0.18,1.09-0.29,1.63l0.11-0.87L34.45,30.79"/>
				<polyline class="st5" points="30.64,39.02 30.51,39.27 30.64,39.02 				"/>
				<polyline class="st4" points="34.53,30.4 34.45,30.79 34.53,30.4 				"/>
				<polyline class="st4" points="34.48,30.53 34.45,30.79 34.26,31.55 34.07,31.96 34.33,30.97 34.07,31.96 34.33,30.97 
					34.48,30.53 				"/>
				<polyline class="st5" points="34.53,30.4 34.45,30.79 34.48,30.53 34.53,30.4 				"/>
				<polyline class="st5" points="34.45,30.79 34.26,31.55 34.45,30.79 				"/>
				<polyline class="st5" points="34.33,30.97 34.07,31.96 34.33,30.97 				"/>
				<path class="st4" d="M34.26,31.55l-0.11,0.87l-0.2,0.41C34.05,32.4,34.18,31.98,34.26,31.55"/>
				<polyline class="st5" points="34.16,32.41 33.95,32.82 34.16,32.41 				"/>
				<polyline class="st5" points="34.26,31.55 34.16,32.41 34.26,31.55 				"/>
				<path class="st4" d="M34.26,31.55c-0.09,0.43-0.21,0.85-0.31,1.28l-0.41,0.67c0.18-0.46,0.34-0.92,0.5-1.39l0.02-0.14
					L34.26,31.55"/>
				<path class="st5" d="M34.26,31.55c-0.09,0.43-0.21,0.85-0.31,1.28C34.05,32.4,34.18,31.98,34.26,31.55"/>
				<polyline class="st5" points="32.05,35.95 31.99,36.22 32.05,35.95 				"/>
				<path class="st4" d="M31.99,36.22l-0.06,0.27c-0.2,0.34-0.41,0.66-0.62,0.99C31.53,37.07,31.77,36.65,31.99,36.22"/>
				<polyline class="st5" points="31.99,36.22 31.92,36.49 31.99,36.22 				"/>
				<path class="st5" d="M31.92,36.49c-0.2,0.34-0.41,0.66-0.62,0.99C31.51,37.16,31.72,36.83,31.92,36.49"/>
				<polyline class="st4" points="32.9,34.83 32.58,35.63 32.59,35.35 32.9,34.83 				"/>
				<path class="st4" d="M34.07,31.96l-0.02,0.14c-0.35,0.93-0.74,1.84-1.14,2.72C33.32,33.9,33.71,32.94,34.07,31.96"/>
				<polyline class="st5" points="34.07,31.96 34.05,32.11 34.07,31.96 34.05,32.11 34.07,31.96 				"/>
				<polyline class="st6" points="34.07,31.96 34.05,32.11 34.07,31.96 				"/>
				<path class="st4" d="M35.6,45.86c-0.57-0.4-1.18-0.83-1.86-1.16c0.76,0.33,1.44,0.79,2.09,1.19L35.6,45.86"/>
				<path class="st4" d="M34.85,45.77c-0.56-0.48-1.2-0.96-1.92-1.28c0.88,0.28,1.65,0.83,2.34,1.34L34.85,45.77"/>
				<path class="st4" d="M34.13,47.21c-0.24-0.04-0.48-0.05-0.72-0.02c-0.53,0.07-0.97,0.35-1.33,0.65
					c-0.36,0.3-0.67,0.61-1.02,0.87c0.33-0.52,0.7-1.03,1.21-1.38l-0.07,0.07c0.34-0.21,0.74-0.34,1.16-0.33
					C33.63,47.07,33.89,47.13,34.13,47.21"/>
				<path class="st4" d="M34.13,47.21c-0.25-0.08-0.51-0.14-0.77-0.13c-0.42-0.01-0.82,0.12-1.16,0.33l0.07-0.07
					c0.32-0.18,0.7-0.28,1.09-0.27C33.62,47.07,33.89,47.13,34.13,47.21"/>
				<path class="st5" d="M34.13,47.21c-0.25-0.08-0.51-0.14-0.77-0.13c-0.42-0.01-0.82,0.12-1.16,0.33
					c0.34-0.21,0.74-0.34,1.16-0.33C33.63,47.07,33.89,47.13,34.13,47.21"/>
				<path class="st4" d="M34.41,45.67c-0.21-0.15-0.42-0.3-0.65-0.43c0.38,0.14,0.74,0.33,1.08,0.52
					C34.7,45.74,34.56,45.7,34.41,45.67"/>
				<polyline class="st4" points="41.98,42.27 41.55,43.29 41.98,42.27 				"/>
				<path class="st7" d="M54.44,22.55l0.83,0.02l1.22-0.13c-1.72-0.72-3.44-1.37-5.59-1.74L51.57,21c-2.24-0.35-4.05-0.94-6.22-1.11
					c1.62,0.3,3.34,0.65,4.92,1.08c0.79,0.21,1.54,0.45,2.23,0.71c0.35,0.13,0.66,0.26,0.99,0.41
					C53.82,22.23,54.14,22.39,54.44,22.55"/>
				<path class="st4" d="M42.12,20.5c-0.22,0.06-0.42,0.18-0.58,0.34C41.7,20.69,41.9,20.57,42.12,20.5"/>
				<polyline class="st4" points="50.91,20.71 49.91,20.54 50.91,20.71 				"/>
				<path class="st4" d="M43.22,20.51c-0.37-0.04-0.75-0.08-1.1-0.01C42.48,20.43,42.86,20.47,43.22,20.51"/>
				<path class="st4" d="M40.59,42.2c-0.15,0.33-0.24,0.6-0.49,1.09c-0.16,0.22-0.35,0.48-0.63,0.73c-0.28,0.25-0.7,0.49-1.13,0.57
					c0.42-0.1,0.81-0.35,1.07-0.61c0.26-0.26,0.42-0.52,0.55-0.74c0.26-0.47,0.37-0.74,0.53-1.06L40.59,42.2"/>
				<path class="st4" d="M40.69,42.23c-0.18,0.32-0.3,0.58-0.58,1.06c0.25-0.5,0.34-0.76,0.49-1.09L40.69,42.23"/>
				<path class="st4" d="M41.41,42.09l-0.46,0.78c-0.21,0.32-0.44,0.86-1.09,1.5c-0.33,0.31-0.83,0.62-1.36,0.73
					c-0.52,0.11-0.99,0.04-1.25-0.04c0.32,0.08,0.98,0.13,1.6-0.15c0.63-0.27,1.04-0.73,1.28-1.08c0.25-0.36,0.38-0.67,0.5-0.91
					l0.29-0.61L41.41,42.09"/>
				<polyline class="st4" points="41.46,42.11 40.95,42.88 41.41,42.09 41.46,42.11 				"/>
				<path class="st4" d="M41.66,41.98l-0.65,1.12c-0.14,0.24-0.29,0.55-0.56,0.91c-0.27,0.36-0.68,0.82-1.33,1.11
					c0.72-0.37,1.13-0.92,1.36-1.31c0.24-0.4,0.37-0.73,0.47-0.95l0.51-0.77L41.66,41.98"/>
				<path class="st7" d="M40.49,42.17c-0.16,0.33-0.27,0.59-0.53,1.06c-0.13,0.22-0.29,0.48-0.55,0.74
					c-0.26,0.26-0.65,0.52-1.07,0.61c0.43-0.07,0.84-0.31,1.13-0.57c0.29-0.25,0.48-0.51,0.63-0.73c-0.17,0.32-0.4,0.75-0.93,1.15
					c-0.26,0.19-0.6,0.34-0.93,0.41c-0.33,0.07-0.62,0.06-0.85,0.03c-0.52-0.1-0.86-0.28-1.29-0.46c-0.82-0.37-1.64-0.82-2.47-1.18
					c0.83,0.13,1.65,0.48,2.49,0.79c0.36,0.13,0.73,0.26,1.1,0.36l0.15,0.03c0.08,0.01,0.17,0.02,0.27,0.02
					c0.19,0.01,0.42-0.01,0.65-0.08c0.47-0.14,0.85-0.48,1.06-0.78c0.42-0.63,0.5-1.06,0.66-1.46c0.15-0.41,0.29-0.82,0.42-1.24
					C40.46,41.31,40.48,41.74,40.49,42.17"/>
				<path class="st8" d="M40.49,42.17c-0.16,0.33-0.27,0.59-0.53,1.06c-0.13,0.22-0.29,0.48-0.55,0.74
					c-0.26,0.26-0.65,0.52-1.07,0.61c0.42-0.1,0.81-0.35,1.07-0.61c0.26-0.26,0.42-0.52,0.55-0.74
					C40.22,42.76,40.33,42.5,40.49,42.17"/>
				<path class="st4" d="M40.56,40.02c-0.25,0.6-0.49,1.23-0.76,1.84c-0.14,0.32-0.25,0.59-0.42,0.95
					c-0.18,0.34-0.43,0.78-0.96,1.03c-0.53,0.24-1.06,0.09-1.26-0.01c-0.27-0.12-0.54-0.26-0.8-0.4c-0.52-0.3-1-0.63-1.46-0.98
					c0.17,0.07,0.34,0.13,0.51,0.2c0.41,0.17,0.8,0.32,1.19,0.48c0.39,0.14,0.74,0.32,1.16,0.34c0.44,0.03,0.83-0.31,1.04-0.66
					c0.22-0.35,0.36-0.7,0.53-1.04c0.66-1.36,1.27-2.78,1.65-4.54l0.06-0.28c-0.77,1.58-1.83,4.16-2.81,5.5
					c1.24-2.31,2.34-4.72,3.28-7.16C41.27,36.88,40.96,38.46,40.56,40.02"/>
				<path class="st4" d="M37.85,42.97c-0.09-0.02-0.17-0.05-0.27-0.1c-0.12-0.08-0.29-0.14-0.43-0.23
					c-0.29-0.17-0.59-0.35-0.89-0.54c-0.6-0.38-1.22-0.78-1.85-1.14c0.54,0.24,1.06,0.5,1.59,0.76l1.04,0.74
					c0.17,0.12,0.34,0.23,0.5,0.33C37.66,42.88,37.74,42.93,37.85,42.97"/>
				<path class="st4" d="M29.13,40.5c-0.17,0.09-0.34,0.18-0.5,0.29l-0.18,0.08C28.67,40.73,28.9,40.61,29.13,40.5"/>
				<path class="st4" d="M32.59,40.36c-0.32-0.09-0.64-0.17-0.96-0.21c-0.36-0.05-0.73-0.04-1.1-0.02c-0.48,0.05-0.96,0.17-1.4,0.36
					c-0.17,0.09-0.34,0.18-0.5,0.29c0.58-0.33,1.23-0.56,1.91-0.63C31.23,40.1,31.93,40.18,32.59,40.36 M31.63,40.16
					c-0.36-0.05-0.73-0.04-1.1-0.02c-0.48,0.05-0.96,0.17-1.4,0.36c0.44-0.19,0.92-0.31,1.4-0.36
					C30.9,40.11,31.27,40.11,31.63,40.16"/>
				<path class="st4" d="M35.99,41.71c-0.53-0.26-1.05-0.52-1.59-0.76c-0.89-0.38-1.81-0.71-2.77-0.8c-0.36-0.05-0.73-0.04-1.1-0.02
					c-0.48,0.05-0.96,0.17-1.4,0.36c-0.23,0.11-0.46,0.22-0.68,0.36l0.18-0.08c-1.12,0.51-2.03,1.3-2.89,2.21
					c0.79-1.26,1.74-2.42,3.05-3.16c0.47-0.13,0.98-0.22,1.53-0.24C32.33,39.52,34.34,40.67,35.99,41.71"/>
				<path class="st5" d="M35.99,41.71c-0.53-0.26-1.05-0.52-1.59-0.76C34.94,41.19,35.47,41.45,35.99,41.71"/>
				<path class="st5" d="M29.13,40.5c-0.23,0.11-0.46,0.22-0.68,0.36C28.67,40.73,28.9,40.61,29.13,40.5"/>
				<path class="st5" d="M31.63,40.16c-0.36-0.05-0.73-0.04-1.1-0.02c-0.48,0.05-0.96,0.17-1.4,0.36c0.44-0.19,0.92-0.31,1.4-0.36
					C30.9,40.11,31.27,40.11,31.63,40.16"/>
				<path class="st5" d="M31.63,40.16c-0.36-0.05-0.73-0.04-1.1-0.02c-0.48,0.05-0.96,0.17-1.4,0.36c0.44-0.19,0.92-0.31,1.4-0.36
					C30.9,40.11,31.27,40.11,31.63,40.16"/>
				<path class="st4" d="M27.62,40.27c-1.75,1.42-2.81,3.2-3.88,4.59c0.68-1.68,1.49-3.28,2.62-4.6c-0.09,0.24-0.16,0.49-0.23,0.74
					C26.61,40.71,27.11,40.46,27.62,40.27"/>
				<path class="st4" d="M35.01,67.09c-0.64,0.02-1.27,0.02-1.89,0l0.58-0.22C34.13,66.96,34.56,67.02,35.01,67.09"/>
				<path class="st9" d="M26.85,24.91c1.92-3,3.78-5.75,5.87-7.71c-0.28,1.7-0.48,3.39-0.69,5.06c-0.42,2.71-1.08,5.34-1.99,7.16
					c-0.89,1.84-1.88,2.93-2.71,2.71c-0.24-0.06-0.46-0.23-0.66-0.52C27.03,29.25,26.99,27,26.85,24.91"/>
				<path class="st4" d="M23.19,43.58l0.38-0.6c-0.14,1.2,0.29,1.5-0.22,3.5C22.96,46.01,23.09,44.8,23.19,43.58"/>
				<path class="st10" d="M24.37,37.31c1.01-1.08,1.65-2.7,2.05-4.42c0.1-0.42,0.18-0.85,0.26-1.28c0.2,0.29,0.42,0.46,0.66,0.52
					c0.82,0.22,1.82-0.87,2.71-2.71c0.91-1.82,1.57-4.45,1.99-7.16c-0.24,2.08-0.46,4.13-0.81,6.14c-0.33,2.01-0.79,4.02-1.28,6.02
					c-0.34,1.33-0.69,2.66-1.06,4c-1.08,3.86-2.24,7.75-3.16,11.73l0.57-0.38l0.84-2.81c0.27-0.91,0.53-1.82,0.79-2.72l0.24-0.84
					c0.49-1.68,0.97-3.31,1.47-4.87c0.5-1.55,1.01-3.03,1.58-4.38c-0.31,2.25-0.83,4.54-1.48,6.79c-0.43,1.5-0.91,2.98-1.42,4.43
					c-1.54,4.37-3.28,8.53-4.75,12.24c-0.25,0.67-0.5,1.51-0.68,2.47c-0.05,0.24-0.09,0.48-0.14,0.73l-0.07,0.38
					c-0.02,0.17-0.05,0.41-0.03,0.75c0.02,0.34,0.09,0.83,0.43,1.4c0.32,0.56,0.95,1.03,1.43,1.2c0.49,0.19,0.83,0.22,1.08,0.24
					l0.49,0.03l-0.45-0.02c-0.22-0.02-0.53-0.04-0.97-0.18c-0.43-0.13-1.03-0.48-1.42-1c-0.4-0.52-0.54-1.07-0.59-1.44
					c-0.05-0.38-0.03-0.65-0.02-0.85c0.02-0.21,0.04-0.28,0.05-0.42l0.11-0.74l-0.41-0.4l-0.37,0.99l-0.09,0.25
					c-0.03,0.07-0.06,0.18-0.09,0.36c-0.05,0.34-0.15,0.86,0.11,1.75c0.13,0.44,0.39,0.96,0.79,1.4c0.39,0.45,0.88,0.78,1.3,0.97
					c0.85,0.38,1.38,0.41,1.68,0.48c0.44,0.09,0.73,0.18,1.11,0.27l-1.2-0.11c-0.34-0.04-0.9-0.05-1.81-0.45
					c-0.44-0.2-0.95-0.55-1.36-1c-0.41-0.45-0.69-0.98-0.84-1.43c-0.3-0.92-0.24-1.48-0.23-1.85c0.03-0.39,0.06-0.45,0.09-0.64
					l0.37-1.96c0.26-1.17,0.51-2.34,0.82-3.47c0.19-0.71,0.37-1.41,0.52-2.12l0,0c0.49-2.21,0.82-4.51,1.31-6.93l-1.01,2.77
					c-0.27,0.44-0.48,0.63-0.63,0.63c-0.68,0.03-0.37-3.49,0.14-5.79l0.19-0.3c-0.09,1.22-0.23,2.43,0.16,2.9
					c0.51-2.01,0.08-2.3,0.22-3.5l0.77-0.48l1.14-2.12c0.45,1.34,1.36-2.56,1.94-2.05c0.52-1.24,1.02-2.47,1.5-3.71
					c-0.06-0.75-0.16-1.5-0.24-2.24C27.25,35.05,25.57,37.81,24.37,37.31"/>
				<path class="st11" d="M27.34,32.13c0.82,0.22,1.82-0.87,2.71-2.71c0.91-1.82,1.57-4.45,1.99-7.16
					c-0.42,2.71-1.08,5.34-1.99,7.16C29.16,31.26,28.16,32.35,27.34,32.13"/>
				<path class="st12" d="M23.57,42.98c-0.14,1.2,0.29,1.5-0.22,3.5C23.86,44.48,23.43,44.19,23.57,42.98"/>
				<path class="st4" d="M29.49,66.71c-0.91-0.13-1.8-0.29-2.68-0.48l-1.2-0.11c-0.34-0.04-0.9-0.05-1.81-0.45
					c-0.44-0.2-0.95-0.55-1.36-1c-0.41-0.45-0.69-0.98-0.84-1.43c-0.3-0.92-0.24-1.48-0.23-1.85c0.03-0.39,0.06-0.45,0.09-0.64
					l0.37-1.96l-0.07-0.19c-0.14,0.55-0.26,1.12-0.39,1.68c-0.07,0.31-0.13,0.51-0.19,0.9c-0.03,0.27-0.08,0.67,0,1.31
					c0.08,0.61,0.39,1.64,1.19,2.46c-0.43-0.43-0.76-0.97-0.95-1.44c-0.19-0.47-0.27-0.88-0.32-1.21c-0.07-0.65-0.02-1.05-0.01-1.27
					l0.12-0.95c0.08-0.63,0.14-1.27,0.25-1.89c-0.29,0.68-0.46,1.5-0.63,2.35l-0.06,0.32c-0.02,0.09-0.04,0.23-0.06,0.53
					c-0.01,0.28-0.03,0.66,0.06,1.22c0.09,0.54,0.31,1.31,0.86,2.07c0.53,0.76,1.38,1.35,2.04,1.62c0.67,0.28,1.18,0.35,1.53,0.39
					c0.35,0.04,0.59,0.04,0.67,0.05l0.35,0.02C27.32,66.81,28.4,66.78,29.49,66.71 M25.61,66.12c-0.34-0.04-0.9-0.05-1.81-0.45
					c-0.44-0.2-0.95-0.55-1.36-1c-0.41-0.45-0.69-0.98-0.84-1.43c-0.3-0.92-0.24-1.48-0.23-1.85c0.03-0.39,0.06-0.45,0.09-0.64
					l0.37-1.96l-0.37,1.96c-0.03,0.19-0.06,0.24-0.09,0.64c-0.02,0.37-0.07,0.93,0.23,1.85c0.15,0.45,0.43,0.98,0.84,1.43
					c0.4,0.46,0.92,0.8,1.36,1C24.71,66.07,25.27,66.08,25.61,66.12"/>
				<path class="st5" d="M25.61,66.12c-0.34-0.04-0.9-0.05-1.81-0.45c-0.44-0.2-0.95-0.55-1.36-1c-0.41-0.45-0.69-0.98-0.84-1.43
					c-0.3-0.92-0.24-1.48-0.23-1.85c0.03-0.39,0.06-0.45,0.09-0.64l0.37-1.96l-0.37,1.96c-0.03,0.19-0.06,0.24-0.09,0.64
					c-0.02,0.37-0.07,0.93,0.23,1.85c0.15,0.45,0.43,0.98,0.84,1.43c0.4,0.46,0.92,0.8,1.36,1C24.71,66.07,25.27,66.08,25.61,66.12"
					/>
				<polyline class="st4" points="23.23,43.06 23.57,42.98 23.19,43.58 23.23,43.06 				"/>
				<polyline class="st4" points="35.73,29.77 36.1,29.65 35.73,29.77 				"/>
				<path class="st13" d="M17.9,43.5c2.59-3.93,3.6-0.39,5.33-0.44l-0.05,0.52L23,43.88c-0.51,2.3-0.82,5.82-0.14,5.79
					c0.16-0.01,0.36-0.2,0.63-0.63l1.01-2.77c-0.49,2.42-0.83,4.72-1.31,6.93c-0.16,0.71-0.34,1.41-0.52,2.12
					c-0.31,1.14-0.56,2.3-0.82,3.47l-0.07-0.19c0.23-1.06,0.44-2.11,0.71-3.14c-0.42,0.82-0.72,1.86-0.96,2.99
					c-0.13,0.56-0.2,1.16-0.29,1.75l-0.12,0.93c-0.02,0.26-0.06,0.67,0.03,1.32c0.08,0.62,0.41,1.68,1.24,2.51
					c-0.43-0.43-0.76-0.97-0.95-1.44c-0.19-0.47-0.27-0.88-0.32-1.21c-0.07-0.65-0.02-1.05-0.01-1.27l0.12-0.95
					c0.08-0.63,0.14-1.27,0.25-1.89c-0.29,0.68-0.46,1.5-0.63,2.35l-0.06,0.32c-0.02,0.09-0.04,0.23-0.06,0.53
					c-0.01,0.28-0.03,0.66,0.06,1.22c0.09,0.54,0.31,1.31,0.86,2.07c0.53,0.76,1.38,1.35,2.04,1.62c0.67,0.28,1.18,0.35,1.53,0.39
					c0.35,0.04,0.59,0.04,0.67,0.05l0.35,0.02l-0.29,0.12c-0.1,0.04-0.16,0.09-0.39,0.12c0.23,0.05,0.29,0.09,0.39,0.13l0.29,0.13
					l0.58,0.25L28.01,68c-0.77-0.09-1.49-0.2-2.27-0.33c-0.32-0.05-0.95-0.04-2.09-0.45c-0.57-0.22-1.27-0.59-1.9-1.18
					c-0.63-0.58-1.11-1.33-1.38-1.99c-0.52-1.35-0.41-2.17-0.39-2.66c0.05-0.54,0.1-0.55,0.15-0.76l-0.34-1.53
					c-0.25,0.35-0.52,0.72-0.79,1.13c-0.14,0.23-0.27,0.37-0.42,0.7c-0.07,0.25-0.17,0.64-0.18,1.31c0,0.64,0.05,1.64,0.64,2.94
					c0.3,0.65,0.75,1.33,1.31,1.93c0.56,0.6,1.24,1.09,1.85,1.43c1.26,0.68,2.2,0.84,2.8,0.96l0.68,0.12
					c0.15,0.03,0.18,0.06,0.27,0.08l0.49,0.16c0.68,0.22,1.43,0.39,2.28,0.52c-0.56-0.06-1.09-0.17-1.61-0.26l-0.77-0.17l-0.38-0.09
					c-0.15-0.03-0.16-0.05-0.58-0.1c-0.37-0.05-0.93-0.11-1.78-0.36c-0.82-0.24-2.04-0.74-3.15-1.76c-1.12-1-1.87-2.38-2.17-3.44
					c-0.31-1.06-0.33-1.83-0.31-2.37c0.02-0.53,0.08-0.9,0.13-1.07l0.13-0.35l0.25-0.71c0.64-1.91,1.37-3.91,2.05-6.46l-0.36-0.45
					l0.52-1c-1.11,1.04-2.06,3.68-3.05,4.7c0.44-1.1,0.92-2.15,1.4-3.19c-0.59,0.05-1.28,1.66-1.83,2.14c0.6-1.33,1.32-2,1.99-2.71
					c0.66-0.72,1.26-1.48,1.63-2.98l0.03-0.14l0.05-0.21c1.39-5.23-0.37-5.69-2.32-3.89l0.53-0.96
					C19.34,42.64,18.19,44.12,17.9,43.5"/>
				<path class="st14" d="M22.85,49.67c0.16-0.01,0.36-0.2,0.63-0.63l1.01-2.77l-1.01,2.77C23.22,49.47,23.01,49.66,22.85,49.67"/>
				<path class="st14" d="M24.5,46.27c-0.49,2.42-0.83,4.72-1.31,6.93C23.67,50.98,24.01,48.69,24.5,46.27"/>
				<path class="st15" d="M22.37,64.96c-0.43-0.43-0.76-0.97-0.95-1.44c-0.19-0.47-0.27-0.88-0.32-1.21
					c-0.07-0.65-0.02-1.05-0.01-1.27l0.12-0.95c0.08-0.63,0.14-1.27,0.25-1.89c-0.11,0.62-0.17,1.26-0.25,1.89l-0.12,0.95
					c-0.02,0.23-0.07,0.62,0.01,1.27c0.04,0.33,0.12,0.74,0.32,1.21C21.61,63.99,21.94,64.52,22.37,64.96"/>
				<polyline class="st15" points="21.77,58.6 21.84,58.79 21.77,58.6 				"/>
				<path class="st13" d="M32.09,64.58c0.24-0.07,0.47-0.15,0.71-0.23c0.28-0.16,0.57-0.31,0.84-0.48
					c-0.36,0.06-0.73,0.08-1.09,0.13c0.36-0.04,0.73-0.07,1.09-0.13l0.09-0.43c-0.86,0.02-1.72-0.02-2.56-0.08
					c0.47-0.03,0.95-0.04,1.42-0.09c-0.73-0.04-1.45-0.12-2.17-0.22c0.88,0.02,1.76-0.02,2.65-0.08l-0.05-0.24l-0.89-0.03
					c-2.08,0.17-4.32,0.31-6.19-0.03c0.88-0.05,1.74-0.1,2.62-0.15c1.85-0.11,3.74-0.28,5.65-0.76l0.63-0.28
					c-2.52,0.48-5.41,0.63-7.24,0.03c0.18-0.01,0.36-0.02,0.53-0.03c1.69-0.09,3.14-0.06,4.62-0.16c1.47-0.1,2.97-0.32,4.59-1.05
					l0.26-0.12c-0.86,0.15-1.93,0.37-3.01,0.49c-1.08,0.12-2.15,0.14-2.98,0.06c2.6-0.05,5.1-0.35,7.55-1.21l0.29-0.17
					c0.65-0.35,1.27-0.74,1.78-1.08l0.73-0.49l-0.91,0.07c-2.63,0.19-5.01,0.28-7.31,0.07c1.25,0.25,2.54,0.4,3.85,0.49
					c-1.31-0.09-2.6-0.24-3.85-0.49c-1.18-0.13-2.31-0.36-3.37-0.7c-0.53-0.17-1.03-0.38-1.52-0.61c-0.47-0.24-0.98-0.5-1.28-0.76
					c-0.33-0.28-0.38-0.46-0.37-0.62c0-0.09,0-0.26,0.02-0.54c0.02-0.25,0.06-0.5,0.09-0.74c0.15-0.98,0.39-1.92,0.71-2.8
					c-0.5,0.87-0.93,1.86-1.28,2.97c-0.23-1.05-0.19-2.25-0.01-3.39c0.18-1.15,0.49-2.25,0.77-3.28c-0.74,1.45-1.35,2.91-1.77,4.48
					c-0.21,0.79-0.38,1.6-0.48,2.45c-0.05,0.43-0.09,0.83,0,1.32c0.08,0.49,0.35,0.99,0.71,1.34c-0.36-0.35-0.63-0.85-0.71-1.34
					c-0.09-0.49-0.05-0.9,0-1.32c0.1-0.84,0.27-1.66,0.48-2.45c0.42-1.58,1.03-3.04,1.77-4.48l0.19-0.63
					c-0.86,0.97-1.61,2.42-2.15,4.03c-0.27,0.8-0.49,1.65-0.67,2.49c-0.09,0.42-0.16,0.85-0.23,1.26c-0.03,0.21-0.06,0.42-0.07,0.62
					c-0.01,0.22-0.01,0.48,0.03,0.75c-0.17-0.77-0.08-1.21-0.01-1.76c0.08-0.53,0.17-1.04,0.29-1.55c0.23-1.02,0.52-2.04,0.83-3.23
					c-0.11,0.2-0.24,0.41-0.35,0.62c-0.09,0.35-0.17,0.7-0.25,1.05c0.08-0.35,0.16-0.7,0.25-1.05c0.6-2.26,1.59-3.9,2.65-5.3
					c0.17-0.77,0.43-1.58,0.87-2.31c0.44-0.72,1.09-1.34,1.87-1.64c0.76-0.29,1.58-0.31,2.39-0.15c0.41,0.09,0.82,0.21,1.23,0.34
					c-0.89-0.38-1.81-0.71-2.77-0.8c0.33,0.04,0.65,0.12,0.96,0.21c-0.67-0.19-1.36-0.27-2.05-0.2c-0.68,0.07-1.33,0.29-1.91,0.63
					c-1.12,0.51-2.03,1.3-2.89,2.21c0.79-1.26,1.74-2.42,3.05-3.16c-0.4,0.11-0.79,0.25-1.16,0.43c-1.75,1.42-2.81,3.2-3.88,4.59
					c0.68-1.68,1.49-3.28,2.62-4.6c0.55-0.92,1.26-1.78,2.14-2.42c-0.26-0.19-0.53-0.38-0.79-0.55c-1.05,0.18-2.28,0.79-3.43,1.89
					c-1.15,1.09-2.25,2.73-3.1,4.78c-0.1,0.24-0.19,0.49-0.29,0.74l0.75,0.16c-0.3,0.3-0.59,0.63-0.89,0.96
					c-0.09,0.84-0.14,1.67-0.15,2.48c-0.22,0.74-0.4,1.5-0.55,2.27c0.25,1.38,0.21,3.01,0.3,4.78l0.03,0.31
					c0.01,0.14,0.04,0.35,0.07,0.55c0.07,0.4,0.17,0.85,0.34,1.34c0.34,1.01,1.01,2.04,1.66,2.71c1.33,1.36,2.47,1.84,3.18,2.19
					c-0.38-0.24-0.89-0.57-1.46-1.02c1.2,0.34,1.92,0.49,2.82,0.83c1.31,0.47,2.68,1.01,3.84,1.26c0.84,0.27,1.68,0.49,2.51,0.67
					c0.08,0,0.15,0,0.23,0l-0.09,0.03l0.09,0.02c1.18,0.08,2.33,0.09,3.43,0.06l1.73,0.15l0.95,0.15l-0.95-0.15l-1.15-0.04
					l0.97,0.21c-0.63-0.02-1.28-0.05-1.94-0.09c1.32,0.13,2.6,0.21,3.82,0.28l1.25-0.01l-0.34,0.1l0.68,0.08l-5.3-12.34l-0.54,0.12
					c-0.61,0.2-1.23,0.35-1.88,0.46c-0.38,0.23-0.77,0.45-1.21,0.65c0.36-0.2,0.7-0.4,1-0.61c0.18-0.11,0.33-0.23,0.49-0.35
					c-0.59,0.25-1.24,0.47-1.94,0.64l0.02-0.27c-0.84,0.12-1.93,0.29-3.12,0.39l-0.12,0.01c-0.66,0.16-1.35,0.27-2.07,0.36
					c0.63-0.12,1.24-0.26,1.82-0.43l-0.16-0.43c-0.57,0.09-1.17,0.19-1.78,0.28c-0.31,0.05-0.63,0.08-0.96,0.1l-0.12,0.01l-0.06,0
					l-0.03,0l-0.02,0L26,56.13l-0.09,3.08l-0.05,1.01c-0.03,0.48-0.07,0.74-0.11,0.95c-0.13,0.78-0.36,0.71-0.12,0.61
					c0.13-0.05,0.36-0.11,0.81-0.13c0.24-0.01,0.53-0.01,1.01,0.01l1.09,0.06l2.53,0.2l2.72,0.24l0-0.01l0-0.02l0.01-0.03l0.01-0.07
					l0.02-0.13l0.05-0.26l-0.13,0.27c0.07-0.69,0.1-1.38,0.2-2.09c-0.03-1.22-0.02-2.45,0.01-3.68c-0.19,0.31-0.38,0.62-0.55,0.93
					c0.17-0.31,0.36-0.62,0.55-0.93c0.09-4.43,0.35-8.82-0.1-12.26c-0.38,2.36-0.74,4.68-0.82,6.68c-0.33,2.94-0.77,5.71-1.19,8.48
					c-0.05,0.3-0.1,0.61-0.15,0.91c-0.12-1.07-0.22-2.15-0.27-3.27l-0.03,0.15c-0.05-0.27-0.11-0.54-0.15-0.82
					c0.05,0.23,0.12,0.45,0.18,0.67c0.97-4.85,1.1-8.94,2.42-13.69l0,0.89c0.52-2.85,1.04-5.77,1.44-8.75
					c-0.17-1.19-0.35-2.37-0.57-3.54c-0.21,0.91-0.43,1.82-0.68,2.71l0.1-1.58c-0.04-0.24,0-1.15-0.1-1.26
					c-0.17-0.15-0.4,1.07-1.82,6.46l-0.68,2.82c0.5-3.21,0.79-6.16,0.53-8.63c-0.27,0.69-0.58,1.37-0.87,2.05
					c-0.31,2.25-0.83,4.54-1.48,6.79c-0.43,1.5-0.91,2.98-1.42,4.43c-1.54,4.37-3.28,8.53-4.75,12.24c-0.25,0.67-0.5,1.51-0.68,2.47
					c-0.05,0.24-0.09,0.48-0.14,0.73l-0.07,0.38c-0.02,0.17-0.05,0.41-0.03,0.75c0.02,0.34,0.09,0.83,0.43,1.4
					c0.32,0.56,0.95,1.03,1.43,1.2c0.49,0.19,0.83,0.22,1.08,0.24l0.49,0.03l0.36,0L25.9,64.7c-0.17-0.05-0.51-0.07-1.03-0.25
					c0.4,0.12,0.68,0.15,0.87,0.17l0.43,0.05l0.81,0.1c-0.44-0.13-0.8-0.26-1.3-0.41c-0.3-0.09-0.86-0.15-1.51-0.69
					c-0.32-0.27-0.55-0.65-0.66-0.98c-0.11-0.33-0.11-0.61-0.1-0.83c-0.01,0.27,0.02,0.65,0.25,1.1c0.22,0.44,0.69,0.83,1.07,0.99
					c0.78,0.32,1.13,0.28,1.35,0.37c0.53,0.12,1.07,0.24,1.61,0.33l0.54-0.12c-0.45-0.06-0.9-0.14-1.35-0.21l-1.49-0.28l1.67,0.25
					c0.51,0.06,1.01,0.13,1.53,0.17l0.7-0.25C30.21,64.38,31.14,64.51,32.09,64.58 M27.26,57.82c-0.57-0.36-1.13-0.82-1.44-1.45
					c-0.32-0.65-0.24-1.3-0.13-1.92c0.23-1.27,0.54-2.53,0.94-3.98c-0.4,1.44-0.71,2.71-0.94,3.98c-0.11,0.62-0.19,1.28,0.13,1.92
					C26.13,56.99,26.69,57.46,27.26,57.82c0.3,0.19,0.61,0.37,0.92,0.55l0.66,0.28l-0.66-0.28C27.87,58.19,27.56,58,27.26,57.82
					l0.22-0.07c0.83,0.43,1.71,0.76,2.6,1.01c-0.9-0.26-1.78-0.58-2.6-1.01L27.26,57.82 M40.7,57.91c0.06-0.04,0.11-0.08,0.16-0.12
					l0.26,0.61c-2.25,0.21-3.82-0.29-5.9-0.26c2.08-0.03,3.65,0.47,5.9,0.26l-0.26-0.61C40.81,57.83,40.75,57.87,40.7,57.91
					 M39.06,59.03l-0.14,0.08c-0.49,0.26-1,0.47-1.5,0.69c0.51-0.21,1.01-0.43,1.5-0.69L39.06,59.03c0.72-0.34,1.36-0.67,1.98-1.01
					l0.03,0.08c-1.09-0.03-2.15-0.07-3.36-0.04c1.21-0.03,2.26,0.01,3.36,0.04l-0.03-0.08C40.42,58.36,39.78,58.69,39.06,59.03
					 M29.14,58.26c0.35,0.04,0.69,0.1,1.03,0.11C29.83,58.36,29.49,58.3,29.14,58.26 M30.82,45.09l0.74-4.36L30.82,45.09
					 M30.82,45.09l0.74-4.36L30.82,45.09 M30.82,45.09l-0.14,0.66l-0.09,0.67l-0.14,0.66l-0.08,0.64l-0.01,0.06l-0.12,0.63
					l-0.08,0.67l-0.13,0.65l-0.07,0.67l-0.07,0.66l-0.08,0.49l-0.06,0.66l-0.06,0.66l-0.06,0.66l-0.01,0.5l-0.04,0.65l0.04,0.5
					c0.38-2.45,0.59-4.62,0.82-6.81l0.03-0.24l0.01-0.18l0.09-0.81l0.03-0.19l0.09-0.67l0.03-0.38L30.82,45.09 M34.07,34.28
					c-0.07,0.29-0.14,0.59-0.22,0.89c-0.05,0.2-0.1,0.41-0.14,0.62l-0.17,0.67l-0.12,0.68L33.25,38l-0.05,0.41
					c-0.05,0.37-0.11,0.74-0.16,1.12l0,0.02l-0.09,0.68l0.09-0.68l-0.09,0.68l0.09-0.68l0-0.01c-0.03,0.23-0.06,0.46-0.09,0.69
					c0.03-0.28,0.08-0.58,0.13-0.89l0.09-0.48l0.17-0.84l0.05-0.27c0.06-0.26,0.12-0.52,0.17-0.79l0.12-0.46l0.09-0.49
					C33.9,35.43,34.01,34.84,34.07,34.28 M21.64,44.85l0.13,0.08c0.16-0.29,0.34-0.57,0.51-0.84
					C22.07,44.33,21.85,44.58,21.64,44.85"/>
				<path class="st3" d="M30.82,45.09c-0.15,0.87-0.3,1.75-0.45,2.63l0.08-0.64l0.14-0.66l0.09-0.67L30.82,45.09"/>
				<path class="st3" d="M30.72,45.89l-0.03,0.38l-0.09,0.67l-0.03,0.19C30.62,46.72,30.67,46.31,30.72,45.89"/>
				<path class="st3" d="M30.36,47.78c-0.44,2.61-0.77,5.19-0.74,7.39l-0.04-0.5l0.04-0.65l0.01-0.5l0.06-0.66l0.06-0.66l0.06-0.66
					l0.08-0.49l0.07-0.66l0.07-0.67l0.13-0.65l0.08-0.67L30.36,47.78"/>
				<polyline class="st3" points="30.48,47.94 30.47,48.12 30.44,48.36 30.48,47.94 				"/>
				<path class="st16" d="M33.57,64.19l-0.09,0.03l-0.13-0.03C33.42,64.19,33.5,64.19,33.57,64.19"/>
				<path class="st15" d="M33.42,57.05c0.17-0.31,0.36-0.62,0.55-0.93C33.79,56.44,33.6,56.75,33.42,57.05"/>
				<path class="st15" d="M32.59,40.36c-0.32-0.09-0.64-0.17-0.96-0.21C31.96,40.2,32.28,40.27,32.59,40.36"/>
				<path class="st15" d="M28.78,39.84c-1.31,0.74-2.25,1.91-3.05,3.16C26.53,41.74,27.47,40.58,28.78,39.84"/>
				<path class="st15" d="M23.75,44.85c0.68-1.68,1.49-3.28,2.62-4.6C25.24,41.58,24.42,43.18,23.75,44.85"/>
				<polyline class="st15" points="30.82,45.09 30.68,45.75 30.59,46.42 30.45,47.08 30.37,47.71 30.45,47.08 30.59,46.42 
					30.68,45.75 30.82,45.09 				"/>
				<polyline class="st15" points="30.72,45.89 30.68,46.27 30.6,46.94 30.57,47.13 30.6,46.94 30.68,46.27 30.72,45.89 				"/>
				<polyline class="st15" points="30.36,47.78 30.24,48.4 30.15,49.07 30.03,49.72 29.95,50.39 29.88,51.05 29.8,51.54 29.74,52.2 
					29.69,52.86 29.63,53.52 29.62,54.02 29.58,54.67 29.62,55.17 29.58,54.67 29.62,54.02 29.63,53.52 29.69,52.86 29.74,52.2 
					29.8,51.54 29.88,51.05 29.95,50.39 30.03,49.72 30.15,49.07 30.24,48.4 30.36,47.78 				"/>
				<polyline class="st15" points="30.48,47.94 30.47,48.12 30.44,48.36 30.47,48.12 30.48,47.94 				"/>
				<polyline class="st15" points="31.56,40.72 30.82,45.09 31.56,40.72 				"/>
				<polyline class="st15" points="31.56,40.72 30.82,45.09 31.56,40.72 				"/>
				<path class="st14" d="M26.08,64.83l-0.49-0.03c-0.24-0.02-0.59-0.05-1.08-0.24c-0.48-0.17-1.1-0.63-1.43-1.2
					c-0.34-0.57-0.4-1.06-0.43-1.4c-0.02-0.34,0.01-0.58,0.03-0.75l0.07-0.38c0.05-0.25,0.1-0.49,0.14-0.73
					c0.18-0.96,0.43-1.81,0.68-2.47c1.47-3.71,3.21-7.87,4.75-12.24c-1.54,4.37-3.28,8.53-4.75,12.24c-0.25,0.67-0.5,1.51-0.68,2.47
					c-0.05,0.24-0.09,0.48-0.14,0.73l-0.07,0.38c-0.02,0.17-0.05,0.41-0.03,0.75c0.02,0.34,0.09,0.83,0.43,1.4
					c0.32,0.56,0.95,1.03,1.43,1.2c0.49,0.19,0.83,0.22,1.08,0.24L26.08,64.83"/>
				<path class="st14" d="M31.23,34.15c-0.31,2.25-0.83,4.54-1.48,6.79C30.4,38.69,30.92,36.4,31.23,34.15"/>
				<path class="st3" d="M33.54,36.47l0.17-0.67c-0.19,0.85-0.36,1.72-0.51,2.61L33.25,38l0.17-0.84L33.54,36.47"/>
				<path class="st3" d="M33.77,36.02l-0.09,0.49l-0.12,0.46C33.64,36.65,33.7,36.34,33.77,36.02"/>
				<path class="st3" d="M33.39,37.76l-0.05,0.27l-0.17,0.84l-0.09,0.48C33.16,38.83,33.27,38.3,33.39,37.76"/>
				<polyline class="st3" points="33.04,39.53 33.04,39.54 33.04,39.54 33.04,39.53 				"/>
				<polyline class="st4" points="35.59,30.29 35.58,30.65 35.59,30.29 				"/>
				<path class="st9" d="M34.75,31.57c1.08-4.29,1.87-8.5,2.48-12.48l0.44,2.52l-0.07-0.34c-0.09,0.55-0.16,1.25-0.23,2.03
					c-0.04,0.39-0.08,0.81-0.11,1.22c-0.12,1.26-0.28,2.63-0.54,3.77c-0.19,0.46-0.4,0.91-0.61,1.36l-0.05-0.01l-0.33,0.13
					l-0.12-1.1l-0.01,1.62l-0.01,0.36c-0.05,1.49-0.14,2.98-0.26,4.46C35.15,33.93,34.97,32.75,34.75,31.57"/>
				<path class="st17" d="M37.37,23.29c0.07-0.78,0.14-1.48,0.23-2.03C37.51,21.81,37.44,22.51,37.37,23.29
					c-0.04,0.39-0.08,0.81-0.11,1.22C37.29,24.1,37.33,23.69,37.37,23.29"/>
				<polyline class="st17" points="37.6,21.27 37.67,21.61 37.6,21.27 				"/>
				<polyline class="st18" points="35.73,29.77 36.05,29.65 36.1,29.65 35.73,29.77 				"/>
				<path class="st17" d="M34.75,31.57c0.22,1.18,0.4,2.35,0.57,3.54C35.15,33.93,34.97,32.75,34.75,31.57"/>
				<path class="st9" d="M31.72,30.26c0.49-2.44,1.11-5.58,1.64-8.22c0.39,1.14,0.7,2.69,0.93,4.38c0.23,1.69,0.35,3.53,0.46,5.15
					c-0.21,0.91-0.43,1.82-0.68,2.71l0.1-1.58c-0.04-0.24,0-1.15-0.1-1.26c-0.17-0.15-0.4,1.07-1.82,6.46l-0.68,2.82
					c0.5-3.21,0.79-6.16,0.53-8.63c-0.27,0.69-0.58,1.37-0.87,2.05l0.15-1.35c0.03-0.54,0.09-1.16,0.21-1.84
					C31.63,30.74,31.67,30.5,31.72,30.26"/>
				<path class="st17" d="M32.09,32.1c0.25,2.47-0.03,5.42-0.53,8.63C32.06,37.51,32.35,34.57,32.09,32.1"/>
				<path class="st17" d="M34.06,31.45c0.11,0.11,0.06,1.02,0.1,1.26l-0.1,1.58l0.1-1.58C34.12,32.46,34.17,31.56,34.06,31.45"/>
				<path class="st19" d="M28.89,38.42c0.37-1.33,0.72-2.66,1.06-4c0.49-2,0.95-4,1.28-6.02c0.35-2.01,0.57-4.07,0.81-6.14
					c0.23-1.25,0.4-2.52,0.55-3.79l0.14-1.28c1.37-1.21,2.76-2.15,4.19-2.65c0.03,1.5,0.15,3.01,0.31,4.55
					c-0.61,3.98-1.4,8.2-2.48,12.48c-0.12-1.63-0.23-3.47-0.46-5.15c-0.23-1.69-0.53-3.24-0.93-4.38c-0.53,2.64-1.15,5.78-1.64,8.22
					l0,0c-0.04,0.24-0.09,0.47-0.13,0.7c-0.12,0.68-0.17,1.31-0.21,1.84l-0.15,1.35c-0.57,1.35-1.09,2.83-1.58,4.38
					c-0.5,1.56-0.98,3.19-1.47,4.87l-0.24,0.84c-0.26,0.9-0.53,1.81-0.79,2.72l-0.84,2.81l-0.57,0.38
					C26.65,46.17,27.81,42.28,28.89,38.42"/>
				<path class="st15" d="M28.89,38.42c-1.08,3.86-2.24,7.75-3.16,11.73C26.65,46.17,27.81,42.28,28.89,38.42"/>
				<path class="st15" d="M29.95,34.42c0.49-2,0.95-4,1.28-6.02c0.35-2.01,0.57-4.07,0.81-6.14c-0.24,2.08-0.46,4.13-0.81,6.14
					C30.89,30.42,30.43,32.42,29.95,34.42"/>
				<path class="st15" d="M27.13,46.96c0.27-0.91,0.53-1.82,0.79-2.72l0.24-0.84c0.49-1.68,0.97-3.31,1.47-4.87
					c-0.5,1.56-0.98,3.19-1.47,4.87l-0.24,0.84C27.67,45.14,27.4,46.05,27.13,46.96"/>
				<path class="st18" d="M31.71,30.26L31.71,30.26c-0.04,0.24-0.09,0.47-0.13,0.7C31.63,30.74,31.67,30.5,31.71,30.26"/>
				<path class="st18" d="M33.36,22.04c0.39,1.14,0.7,2.69,0.93,4.38c0.23,1.69,0.35,3.53,0.46,5.15c-0.12-1.63-0.23-3.47-0.46-5.15
					C34.06,24.73,33.75,23.18,33.36,22.04"/>
				<path class="st4" d="M32.03,22.26c0.21-1.68,0.41-3.37,0.69-5.06l-0.14,1.28C32.43,19.74,32.26,21.01,32.03,22.26"/>
				<path class="st18" d="M32.03,22.26c0.21-1.68,0.41-3.37,0.69-5.06C32.44,18.89,32.24,20.58,32.03,22.26"/>
			</g>
		</g>
	</g>
</g>
<g>
	<g>
		<g>
			<g class="st2">
				<path class="st3" d="M52.05,2.09c1.14-0.37,2.32-0.64,3.54-0.8l0.81-0.83c-0.24,0.62-0.49,1.24-0.75,1.85
					c-0.51,1.66-1,3.53-1.62,5.27c-0.17,0.49-0.35,0.98-0.52,1.46c-0.2,0.57-0.41,1.12-0.63,1.63c-0.44,1.02-0.9,1.91-1.41,2.58
					c0.38-0.92,0.69-2.13,0.94-3.28c0.08-0.38,0.16-0.76,0.23-1.13c0.16-0.79,0.23-1.18,0.34-1.61l0.06,0.26
					c-0.12-0.65-0.25-1.29-0.4-1.92l0.29-1.8l-0.29,1.8C52.47,4.39,52.27,3.23,52.05,2.09"/>
				<path class="st3" d="M53.99,27.44l-0.04-0.07l0.51,0.14l2.33,1.77l-11.13,4.13c-0.15-0.54-0.34-1.05-0.59-1.53
					c-0.38-0.95-0.73-1.89-1.05-2.85l-3.27-9.78l10.82,0.46c0.75,0.03,1.53,0.05,2.28,0.18c0.6,0.09,1.2,0.2,1.79,0.37
					c-1.24-0.03-2.49,0.07-3.7,0.26l-0.35-0.03l-0.04,0l-9-0.59l2.24,8.92c0.4,1.61,1.02,3.02,1.35,4.57l10.31-3.82
					C55.6,28.88,54.78,28.19,53.99,27.44"/>
				<path class="st4" d="M55.77,17.98c3.08,0.31,6.26,1.34,9.2,3.07l-0.26,0.37c-1.57-1-3.38-1.7-5.18-2.4
					c-0.49-0.2-0.99-0.4-1.49-0.59l0.33,0.21C57.51,18.37,56.65,18.15,55.77,17.98"/>
				<path class="st4" d="M62.02,20.65c0.87,0.37,1.74,0.77,2.59,1.25l0.26,0.3l-1.4-0.83L62.02,20.65"/>
				<polyline class="st4" points="47.34,33.32 47.14,32.9 47.45,33.36 47.34,33.32 				"/>
				<path class="st4" d="M54.71,35.73c-0.06-0.15-0.13-0.29-0.21-0.43C54.58,35.43,54.65,35.58,54.71,35.73"/>
				<polyline class="st4" points="54.5,35.3 54.45,35.27 54.5,35.3 				"/>
				<path class="st4" d="M71.25,37.31c0.05-0.31,0.1-0.62,0.12-0.94C71.35,36.69,71.3,37,71.25,37.31"/>
				<polyline class="st4" points="56.75,36.03 56.74,35.88 56.75,36.03 				"/>
				<path class="st4" d="M40.05,14.32c-0.21,0.08-0.17,0.06-0.21,0.07l-7.02,10.04l0.21,0.11l-0.21-0.11l7.02-10.04
					C39.88,14.38,39.84,14.4,40.05,14.32"/>
				<polyline class="st4" points="47.14,32.9 46.8,32.01 47.14,32.9 				"/>
				<path class="st4" d="M71.88,34.69c-0.08-0.47-0.16-0.94-0.26-1.41l0.25,1.2L71.88,34.69"/>
				<path class="st4" d="M71.08,38.92c0.09-0.52,0.13-1.06,0.17-1.61c-0.01,0.36-0.01,0.73-0.04,1.08L71.08,38.92"/>
				<path class="st4" d="M68.48,27.07c0.51,0.51,1.01,1.03,1.47,1.62l0.17,0.37l-0.17-0.37l0.17,0.37l-0.04,0.03l-0.77-1.05
					L68.48,27.07"/>
				<path class="st4" d="M71.85,37.23c0.08-0.82,0.07-1.67,0.03-2.54c-0.08-0.47-0.16-0.94-0.26-1.41l0.25,1.2
					c-0.24-2.68-1.22-5.54-2.93-8.04c-0.15-0.05-0.29-0.11-0.44-0.15c0.4,0.53,0.79,1.07,1.16,1.62c0.35,0.58,0.71,1.15,1.01,1.76
					c-0.22-0.35-0.48-0.66-0.72-0.99l0.17,0.37c0.13,0.24,0.26,0.47,0.37,0.72c-0.12-0.24-0.27-0.46-0.41-0.69
					c0.57,1.22,1,2.52,1.31,3.84c-0.08-0.54-0.18-1.09-0.29-1.64c0.16,0.68,0.32,1.35,0.42,2.02c-0.04-0.13-0.08-0.26-0.13-0.38
					c0.08,0.61,0.11,1.24,0.15,1.85C71.69,35.61,71.81,36.43,71.85,37.23 M71.53,33.31l0.12,0.39L71.53,33.31"/>
				<polyline class="st5" points="71.87,34.48 71.62,33.28 71.87,34.48 				"/>
				<polyline class="st5" points="70.13,29.06 69.95,28.69 70.13,29.06 				"/>
				<path class="st4" d="M70.94,41.42c0.06-0.26,0.1-0.54,0.14-0.81c0.06-0.39,0.14-0.77,0.16-1.18c0.21-1.21,0.33-2.51,0.27-3.86
					c0.01-0.26,0.04-0.52,0.02-0.8c0.15,0.83,0.27,1.65,0.31,2.46C71.71,38.76,71.36,40.15,70.94,41.42"/>
				<path class="st4" d="M70.5,29.78c-0.12-0.24-0.27-0.46-0.41-0.69l0.04-0.03C70.25,29.3,70.39,29.52,70.5,29.78"/>
				<path class="st5" d="M70.5,29.78c-0.12-0.24-0.27-0.46-0.41-0.69C70.23,29.31,70.37,29.53,70.5,29.78"/>
				<path class="st4" d="M70.86,41.74l0.09-0.62l0.13-0.51c-0.04,0.28-0.08,0.56-0.14,0.81L70.86,41.74"/>
				<polyline class="st4" points="70.91,41.26 70.95,41.12 70.91,41.26 				"/>
				<path class="st4" d="M70.98,40.83c0.06-0.62,0.11-1.25,0.1-1.91c0.01,0.34,0.03,0.7,0.02,1.03L70.98,40.83"/>
				<polyline class="st5" points="70.13,29.06 69.95,28.69 70.13,29.06 				"/>
				<path class="st4" d="M70.91,41.26c0.03-0.14,0.05-0.29,0.07-0.43C70.96,40.97,70.94,41.12,70.91,41.26"/>
				<path class="st4" d="M70.95,41.12l0.03-0.29l0.13-0.88c0.06-0.16,0.1-0.34,0.15-0.51c-0.03,0.41-0.11,0.79-0.16,1.18
					c0.06-0.39,0.14-0.77,0.16-1.18c-0.03,0.41-0.11,0.79-0.16,1.18L70.95,41.12"/>
				<path class="st5" d="M70.91,41.26c0.03-0.14,0.05-0.29,0.07-0.43l-0.03,0.29L70.91,41.26"/>
				<polyline class="st5" points="70.98,40.83 71.1,39.94 70.98,40.83 				"/>
				<path class="st5" d="M71.09,40.61c0.06-0.39,0.14-0.77,0.16-1.18C71.22,39.84,71.14,40.22,71.09,40.61"/>
				<path class="st4" d="M71.1,39.94c0.01-0.33-0.01-0.69-0.02-1.03l0.13-0.53C71.18,38.91,71.16,39.44,71.1,39.94"/>
				<polyline class="st5" points="71.08,38.92 71.21,38.39 71.08,38.92 				"/>
				<path class="st5" d="M71.1,39.94c0.01-0.33-0.01-0.69-0.02-1.03C71.09,39.26,71.12,39.61,71.1,39.94"/>
				<path class="st4" d="M71.1,39.94c0.06-0.5,0.08-1.03,0.11-1.56c0.08-0.3,0.14-0.61,0.21-0.92c-0.02,0.62-0.09,1.21-0.18,1.79
					l0.01,0.17C71.21,39.61,71.16,39.78,71.1,39.94"/>
				<path class="st5" d="M71.1,39.94c0.06-0.5,0.08-1.03,0.11-1.56C71.18,38.91,71.16,39.44,71.1,39.94"/>
				<polyline class="st5" points="71.65,33.7 71.53,33.31 71.65,33.7 				"/>
				<path class="st4" d="M71.53,33.31c-0.04-0.13-0.08-0.26-0.13-0.38c-0.08-0.54-0.18-1.09-0.29-1.64
					C71.26,31.97,71.42,32.64,71.53,33.31"/>
				<path class="st5" d="M71.53,33.31c-0.04-0.13-0.08-0.26-0.13-0.38C71.44,33.05,71.49,33.18,71.53,33.31"/>
				<path class="st5" d="M71.39,32.93c-0.08-0.54-0.18-1.09-0.29-1.64C71.21,31.84,71.31,32.39,71.39,32.93"/>
				<path class="st4" d="M71.52,35.57c-0.02-0.38-0.07-0.77-0.13-1.17l0.16,0.37C71.55,35.05,71.53,35.31,71.52,35.57"/>
				<path class="st4" d="M71.25,39.43l-0.01-0.17c0.21-1.15,0.31-2.4,0.27-3.68C71.58,36.92,71.46,38.22,71.25,39.43"/>
				<polyline class="st5" points="71.25,39.43 71.24,39.26 71.25,39.43 71.24,39.26 71.25,39.43 				"/>
				<polyline class="st6" points="71.25,39.43 71.24,39.26 71.25,39.43 				"/>
				<path class="st4" d="M58.58,33.33c-0.2-0.44-0.46-0.85-0.73-1.27l0.48,0.67l0.42,0.69L58.58,33.33"/>
				<path class="st4" d="M57.98,33.06c-0.15-0.46-0.32-0.95-0.56-1.41c0.35,0.51,0.65,1.04,0.88,1.57
					C58.2,33.16,58.1,33.1,57.98,33.06"/>
				<path class="st4" d="M56.32,33.73c-0.86-0.66-1.76-1.13-2.48-1.84c0.48,0.22,0.93,0.48,1.36,0.77l-0.07-0.03
					C55.57,32.97,55.96,33.35,56.32,33.73"/>
				<path class="st4" d="M56.32,33.73c-0.35-0.39-0.75-0.77-1.19-1.1l0.07,0.03C55.61,33,55.99,33.36,56.32,33.73"/>
				<path class="st5" d="M56.32,33.73c-0.35-0.39-0.75-0.77-1.19-1.1C55.57,32.97,55.96,33.35,56.32,33.73"/>
				<path class="st4" d="M57.67,32.88c-0.07-0.16-0.13-0.32-0.2-0.48l0.51,0.66L57.67,32.88"/>
				<polyline class="st4" points="60.17,35.39 59.98,34.9 60.17,35.39 				"/>
				<path class="st7" d="M60.59,57.35c0.24,0.19,0.51,0.36,0.8,0.49c0.44,0.13,0.91,0.16,1.32,0.08c-0.95-0.28-1.5-1.02-1.77-1.73
					c-0.28-0.73-0.27-1.51-0.14-2.26c-0.08,0.15-0.16,0.31-0.23,0.47c0.04-0.88,0.37-1.54,0.68-2.13c0.32-0.6,0.65-1.15,0.93-1.79
					c-0.57,0.85-1.16,1.81-1.64,2.91c-0.23,0.56-0.41,1.18-0.43,1.87C60.1,55.97,60.25,56.68,60.59,57.35"/>
				<polyline class="st4" points="62.51,48.04 62.7,47.62 62.51,48.04 				"/>
				<path class="st4" d="M60.8,53.92c0.04-0.23,0.1-0.46,0.16-0.69C60.9,53.46,60.84,53.69,60.8,53.92"/>
				<polyline class="st4" points="62.15,48.65 62.51,48.04 62.15,48.65 				"/>
				<path class="st4" d="M61.23,34.54l-0.24-0.56c-0.03-0.22-0.08-0.44-0.13-0.66c0.19,0.38,0.33,0.77,0.45,1.17L61.23,34.54"/>
				<polyline class="st4" points="61.14,34.59 60.99,33.98 61.23,34.54 61.14,34.59 				"/>
				<path class="st4" d="M60.69,35.08l-0.08-0.49c-0.03-0.42-0.15-0.82-0.24-1.26c0.22,0.47,0.42,0.92,0.56,1.39L60.69,35.08"/>
				<polyline class="st4" points="60.64,35.11 60.61,34.59 60.69,35.08 60.64,35.11 				"/>
				<path class="st4" d="M60.56,35.26c-0.07-0.44-0.13-0.92-0.27-1.37c0.12,0.23,0.23,0.46,0.32,0.7l0.04,0.52L60.56,35.26"/>
				<path class="st7" d="M61.31,34.48c-0.12-0.39-0.27-0.79-0.45-1.17c0.05,0.23,0.1,0.44,0.13,0.66c-0.51-0.99-1.4-1.99-2.18-2.88
					c0.55,0.3,1.04,0.7,1.48,1.15c0.76,0.76,1.3,1.7,1.76,2.63C61.81,34.73,61.57,34.59,61.31,34.48"/>
				<path class="st8" d="M61.31,34.48c-0.12-0.39-0.27-0.79-0.45-1.17C61.05,33.7,61.19,34.09,61.31,34.48"/>
				<path class="st4" d="M62.38,35.29c-0.38-1.57-1.44-3.1-1.96-4.41c0.1,0.09,0.19,0.17,0.28,0.25c0.85,0.84,1.35,1.76,1.66,2.72
					c0.31,0.96,0.55,1.89,0.82,2.98L63.24,37c0.22-1.15-0.21-2.97-0.57-4.2c0.76,1.81,0.9,3.63,0.62,5.27
					C63.11,37.1,62.8,36.17,62.38,35.29"/>
				<path class="st4" d="M62.2,32.27c-0.26-0.86-0.64-1.69-1.09-2.52c0.23,0.31,0.47,0.61,0.69,0.92
					C61.95,31.22,62.12,31.72,62.2,32.27"/>
				<path class="st4" d="M58.52,27.17c-0.1-0.08-0.22-0.15-0.32-0.22l-0.1-0.1C58.24,26.96,58.39,27.05,58.52,27.17"/>
				<path class="st4" d="M60.22,28.83l-0.44-0.48c-0.39-0.42-0.82-0.79-1.26-1.18c-0.1-0.08-0.22-0.15-0.32-0.22
					C58.93,27.53,59.6,28.17,60.22,28.83 M59.78,28.35c-0.39-0.42-0.82-0.79-1.26-1.18C58.96,27.56,59.39,27.93,59.78,28.35"/>
				<path class="st4" d="M61.8,30.67c-0.22-0.31-0.45-0.61-0.69-0.92c-0.42-0.48-0.85-0.97-1.33-1.4c-0.39-0.42-0.82-0.79-1.26-1.18
					c-0.13-0.12-0.28-0.22-0.42-0.32l0.1,0.1c-0.61-0.63-1.29-1.22-2.02-1.76c0.94,0.36,1.84,0.82,2.7,1.33
					C59.92,27.73,61.15,29.2,61.8,30.67"/>
				<path class="st5" d="M61.8,30.67c-0.22-0.31-0.45-0.61-0.69-0.92C61.34,30.06,61.58,30.35,61.8,30.67"/>
				<path class="st5" d="M58.52,27.17c-0.13-0.12-0.28-0.22-0.42-0.32C58.24,26.96,58.39,27.05,58.52,27.17"/>
				<path class="st5" d="M59.78,28.35c-0.39-0.42-0.82-0.79-1.26-1.18C58.96,27.56,59.39,27.93,59.78,28.35"/>
				<path class="st5" d="M59.78,28.35c-0.39-0.42-0.82-0.79-1.26-1.18C58.96,27.56,59.39,27.93,59.78,28.35"/>
				<path class="st4" d="M58.3,25.83c-1.32-0.79-2.59-1.43-3.64-2.05c1.15,0.19,2.27,0.54,3.37,0.93l-0.52,0.12
					C57.79,25.15,58.05,25.49,58.3,25.83"/>
				<polyline class="st4" points="38.53,28.98 37.98,28.12 38.3,28.21 38.53,28.98 				"/>
				<path class="st9" d="M42.43,7.24c0.43-0.08,0.87-0.21,1.32-0.38c0.23-0.1,0.45-0.15,0.69-0.33l0.73-0.55
					c0.98-0.72,1.95-1.39,2.94-2c-0.2,1.11-0.43,2.23-0.68,3.31c-0.48,1.59-1.22,2.99-1.99,3.66c-0.77,0.69-1.69,0.57-2.35-0.19
					c-0.19-0.21-0.36-0.47-0.53-0.77C42.83,9.06,42.6,7.97,42.43,7.24"/>
				<path class="st4" d="M38.5,10.6l0.24,0.21c-0.19,0.09-0.3,0.26-0.47,0.41c-0.08,0.07-0.18,0.14-0.3,0.19
					c-0.18,0.05-0.48,0.07-0.81,0.07c0.13-0.24,0.4-0.41,0.73-0.53C38.15,10.82,38.3,10.72,38.5,10.6"/>
				<path class="st10" d="M40.33,10.09c0.69,0.71,1.55,0.85,1.98,0.32c0.1-0.12,0.19-0.26,0.25-0.42c0.17,0.3,0.34,0.56,0.53,0.77
					c0.66,0.76,1.57,0.89,2.35,0.19c0.77-0.67,1.51-2.07,1.99-3.66c-0.28,1.23-0.59,2.43-0.93,3.62c-0.34,1.16-0.67,2.43-1.62,3.25
					c-0.64,0.54-1.51,0.69-2.32,0.69c-2.41-0.08-4.59-0.18-7.51-0.22l0.32,0.47c0.66,0.08,1.32,0.13,1.98,0.18
					c0.61,0.04,1.21,0.07,1.82,0.11l0.55,0.03c1.1,0.05,2.18,0.14,3.26,0.21c1.07,0.08,2.19-0.09,3.03-0.61
					c-0.42,0.67-1.12,1.09-1.88,1.24c-0.76,0.16-1.56,0.12-2.36,0.09c-1.07-0.05-2.15-0.15-3.2-0.29c-1.82-0.24-3.61-0.61-5.26-1.08
					l-0.93-0.26l0.04,1.32c0.04,1.41,0.42,2.82,0.93,4.04c0.45,1.05,1.54,2.3,2.69,3.27c-0.55-0.45-1.1-0.94-1.63-1.48L33.9,22
					c0.52,0.99,1.12,1.9,1.72,2.77l-0.57-0.55c-0.71-0.67-1.43-1.41-2.11-2.27c-0.62-0.77-1.21-1.63-1.67-2.62
					c-0.28-0.62-0.53-1.25-0.75-1.91l0,0c-0.09-0.3-0.18-0.61-0.27-0.91l-1.09-3.77l4.26,0.03c1.28,0.01,2.61-0.13,4.03-0.22
					l-1.94-0.35c-0.32-0.17-0.46-0.33-0.49-0.48c-0.05-0.33,0.5-0.61,1.27-0.82c0.71-0.21,1.93-0.34,2.09-0.41l0.11,0.11
					c-0.2,0.11-0.35,0.22-0.6,0.35c-0.34,0.13-0.61,0.29-0.73,0.53c0.34,0,0.64-0.02,0.81-0.07c0.12-0.05,0.22-0.12,0.3-0.19
					c0.16-0.15,0.27-0.32,0.47-0.41c0.1,0.21,0.2,0.41,0.31,0.62c0.32,0.18,0.67,0.37,1.04,0.55c-0.3,0.79,1.45,0.68,1.63,1.38
					c0.74,0.18,1.56,0.28,2.27,0.03c0.14-0.46,0.2-0.98,0.18-1.49c-0.68,0.31-1.62,0.25-2.35-0.16
					C41.08,11.32,40.59,10.74,40.33,10.09"/>
				<path class="st11" d="M43.09,10.75c0.66,0.76,1.57,0.89,2.35,0.19c0.77-0.67,1.51-2.07,1.99-3.66
					c-0.48,1.59-1.22,2.99-1.99,3.66C44.66,11.64,43.75,11.51,43.09,10.75"/>
				<path class="st12" d="M38.74,10.81c-0.19,0.09-0.3,0.26-0.47,0.41c-0.08,0.07-0.18,0.14-0.3,0.19
					c-0.18,0.05-0.48,0.07-0.81,0.07c0.34,0,0.64-0.02,0.81-0.07c0.12-0.05,0.22-0.12,0.3-0.19C38.44,11.07,38.55,10.9,38.74,10.81"
					/>
				<path class="st4" d="M36.72,26.27l-1.11-1.5l-0.57-0.55c-0.71-0.67-1.43-1.41-2.11-2.27l-0.18-0.04
					c0.55,0.79,1.14,1.49,1.74,2.13c-0.74-0.61-1.49-1.3-2.2-2.11c0.57,1.17,1.67,2.18,2.68,3.05
					C35.57,25.44,36.16,25.87,36.72,26.27 M35.05,24.22c-0.71-0.67-1.43-1.41-2.11-2.27C33.61,22.8,34.33,23.54,35.05,24.22"/>
				<path class="st5" d="M35.05,24.22c-0.71-0.67-1.43-1.41-2.11-2.27C33.61,22.8,34.33,23.54,35.05,24.22"/>
				<polyline class="st4" points="38.66,10.51 38.74,10.81 38.5,10.6 38.66,10.51 				"/>
				<polyline class="st4" points="50.39,14.12 50.74,14.19 50.39,14.12 				"/>
				<path class="st13" d="M38.25,5.48c-0.02,0.7,0.21,1.55,0.28,2.42c0.09,0.87,0,1.77,0.13,2.6L38.5,10.6l-0.11-0.11
					c-0.16,0.07-1.38,0.2-2.09,0.41c-0.76,0.21-1.31,0.49-1.27,0.82c0.02,0.15,0.17,0.31,0.49,0.48l1.94,0.35
					c-1.42,0.09-2.75,0.23-4.03,0.22l-4.26-0.03l1.09,3.77c0.09,0.31,0.18,0.61,0.27,0.91c0.22,0.66,0.47,1.29,0.75,1.91
					c0.46,0.99,1.05,1.85,1.67,2.62l-0.18-0.04c-0.56-0.71-1.1-1.48-1.54-2.37c0.39,1.71,1.92,3.41,3.28,4.5
					c-0.74-0.61-1.49-1.3-2.2-2.11c0.57,1.17,1.67,2.18,2.68,3.05l-0.47-0.04l0.72,1.76c-0.69-0.77-1.42-1.59-2.13-2.52
					c-0.41-0.12-0.83-0.31-1.25-0.48c0.3,1.5,0.95,3.4,2.34,5.2c-0.94-1.13-1.77-2.35-2.72-3.85c-0.47-0.74-0.99-1.59-1.54-2.55
					c-0.54-0.99-1.13-2.16-1.61-3.6l-0.57-0.24c-0.06-0.44-0.06-0.89-0.08-1.33c-0.24,0.82-0.16,2.13,0.12,3.32
					c0.13,0.62,0.3,1.16,0.44,1.71c0.14,0.5,0.25,0.96,0.28,1.36c-0.57-1.17-1.06-2.47-1.37-3.85c-0.22,0.22-0.18,0.84-0.08,1.53
					c0.11,0.66,0.3,1.38,0.31,1.78c-0.51-1.23-0.57-2.26-0.54-3.16c0.04-0.93,0.18-1.75,0.19-2.78l0.09-11.3l6.48,3.54
					c0.31,0.17,0.68,0.28,1.15,0.31l0.09,0l0.14,0.01c3.54,0.18,3.61-1.69,2.21-3.14l0.68,0.29C38,6.88,38.19,6.85,38.19,6.8
					c0.01-0.05,0.02-0.1,0.03-0.16c0.01-0.11,0.01-0.24,0.01-0.38C38.23,5.99,38.24,5.71,38.25,5.48"/>
				<path class="st14" d="M35.02,11.72c0.02,0.15,0.17,0.31,0.49,0.48l1.94,0.35l-1.94-0.35C35.2,12.03,35.05,11.88,35.02,11.72"/>
				<path class="st14" d="M37.45,12.55c-1.42,0.09-2.75,0.23-4.03,0.22l-4.26-0.03l1.09,3.77c0.09,0.31,0.18,0.61,0.27,0.91
					c-0.09-0.3-0.18-0.61-0.27-0.91l-1.09-3.77l4.26,0.03C34.7,12.78,36.03,12.64,37.45,12.55"/>
				<path class="st15" d="M34.5,24.04c-0.74-0.61-1.49-1.3-2.2-2.11C33.01,22.74,33.76,23.43,34.5,24.04"/>
				<polyline class="st15" points="32.76,21.91 32.94,21.95 32.76,21.91 				"/>
				<path class="st13" d="M39.18,25.73l0.42,0.16l0.63,0.06l-0.5-0.45l0.5,0.45l0.32-0.27l-1-1.34l0.67,0.63l-0.84-1.22L40.61,25
					l0.14-0.21l-0.36-0.48c-1.03-0.92-2.31-1.75-3.15-2.77c0.51,0.31,1.01,0.63,1.51,0.97c1.04,0.71,2.07,1.48,3.13,2.27l0.43,0.18
					c-1.22-1.25-2.83-2.43-3.47-3.68c0.1,0.07,0.2,0.13,0.3,0.2c1.94,1.31,2.92,2.93,4.82,4.4L44.11,26
					c-0.63-1.07-1.94-2.44-2.68-3.46c1.35,1.38,2.46,2.82,3.49,4.29l0.18,0.14c1.66,1.61,3,3.19,4.29,4.78
					c-0.45-0.78-0.94-1.54-1.43-2.3c0.5,0.76,0.98,1.52,1.43,2.3c0.63,0.83,1.23,1.65,1.77,2.46l1.57,2.34l0.41-3.07
					c0.3-2.25,0.34-4.48,0.12-6.8l-2.07,2.56l0.22,0.06l-0.22-0.12l2.02-2.49c-0.08,0.86-0.19,1.71-0.35,2.53
					c-0.34-0.72-0.59-1.48-0.83-2.24l-0.78,0.97c0.88,0,1.76,0.09,2.55,0.18c-0.84-0.35-1.68-0.61-2.52-0.84l0.12-0.15
					c0.07,1.41,0.01,2.74,0,4.12c0.01-1.38,0.07-2.71,0-4.12l-0.12,0.15c0.84,0.23,1.68,0.49,2.52,0.84l0.44,0.05
					c-0.79-0.61-1.83-1.06-2.94-1.36l-0.37-0.1l0.01,0.55c0.03,1.16-0.01,2.31-0.21,3.29c0-1.08,0.15-2.06,0.01-3.24l-0.1-0.83
					l0.67,0.13c0.27,0.05,0.56,0.1,0.86,0.13l-0.46-0.24l-0.4-0.06l-0.91-0.13l0.17,1.04l0.05,0.3l-0.05-0.3l-0.17-1.04l0.91,0.13
					l0.4,0.06c1.57,0.21,2.79,0.82,3.88,1.52c1.51-0.16,3.41,0.08,4.85,1.14c0.23,0.19,0.47,0.36,0.69,0.56
					c-0.42-0.48-0.85-0.97-1.33-1.4l0.44,0.48c-0.61-0.67-1.28-1.31-2.02-1.88c-0.61-0.63-1.29-1.22-2.02-1.76
					c0.94,0.36,1.84,0.82,2.7,1.33c-0.18-0.24-0.38-0.45-0.58-0.68c-1.32-0.79-2.59-1.43-3.64-2.05c1.15,0.19,2.27,0.54,3.37,0.93
					c0.7,0.09,1.43,0.18,2.15,0.35l0.15-0.9c-0.85-1.21-2.81-2.58-5.55-3.14c-0.16-0.04-0.33-0.06-0.5-0.08l0.03,0.76l-0.73-0.62
					c-0.51,0.1-1.03,0.25-1.53,0.39l-0.54-0.07l-6.7-0.94l0.86,8.13l0.05,0.5c0.54,0.33,0.77,0.89,0.86,1.52
					c0.08,0.63,0.02,1.31-0.02,1.94l0.22-0.55c0.34,0.27,0.46,0.63,0.46,1c0,0.13-0.01,0.27-0.03,0.4l8.42-3.12
					c-0.34-0.48-0.62-1.03-0.93-1.45l-0.7-1.4l-0.1-0.09l0.06,0.02l-0.03-0.05c-0.47-0.55-0.94-1.08-1.43-1.61l-0.63-1l-0.3-0.62
					l0.3,0.62l0.46,0.63l-0.26-0.65l0.76,1.05c-0.46-0.74-0.94-1.48-1.44-2.21l-0.58-0.7l0.23,0.13l-0.63-1.06
					c-0.51-0.67-1.04-1.33-1.58-1.98c-0.48-0.31-0.96-0.61-1.45-0.9l1.27,0.7l0.68,0.4c-0.66-0.58-1.32-1.15-2-1.7l0.25-0.13
					c-0.38-0.37-0.83-0.76-1.32-1.16c-0.25-0.19-0.5-0.39-0.76-0.59L44.77,16l-0.09-0.06l-1.54-0.8l1.41,0.59l0.16-0.44
					c-0.9-0.54-1.79-0.84-2.31-1.26c-0.14-0.11-0.21-0.2-0.3-0.32l0.02,0.14c-0.22-0.17-0.35-0.29-0.44-0.36
					c-0.05,0.01-0.14,0-0.17,0.02l-0.07,0.03c0,0-0.02,0.01-0.11,0.07l-0.18,0.12c-0.23,0.16-0.54,0.31-0.66,0.38
					c-0.08,0.04-0.17,0.09-0.26,0.12l-0.16,0.07c0.05-0.03,0.3-0.12,0.48-0.23c-0.18,0.1-0.43,0.2-0.48,0.23
					c-0.22,0.08-0.16,0.06-0.21,0.07l-6.98,9.26c1.47-0.32,2.85-0.69,4.11-1.11c0.17-0.05,0.28-0.11,0.5-0.16l0.71-0.16
					c0.46-0.11,0.9-0.22,1.32-0.33c0.83-0.23,1.56-0.48,2.19-0.77c-1.16,0.1-2.33,0.2-3.48,0.3c-0.28,0.03-0.61,0.05-0.84,0.09
					l-0.57,0.11c-0.37,0.08-0.74,0.16-1.09,0.26c-0.92,0.15-1.85,0.26-2.77,0.32l6.53-7.72c0.17,0.02,0.18,0.03,0.46,0.37
					c0.06,0.06,0.1,0.13,0.18,0.21c-0.43-0.08-0.79-0.12-1.11-0.15L39,14.92c-0.1,0.01-0.21,0.01-0.33,0.01
					c0.11-0.01,0.22-0.02,0.32-0.04c-0.08-0.13-0.11-0.2-0.21-0.28l-5.82,6.87c1.41-0.06,2.72-0.25,4.02-0.41l0.5-0.06l0.71-0.04
					l1.41-0.07c0.94-0.04,1.88-0.02,2.85-0.05l-0.76,0.25c1.39-0.12,2.67-0.34,3.84-0.73c1.17-0.38,2.33-1.04,3.15-2.07
					c0.41-1,0.59-2.09,0.61-3.17c-0.33,0.64-0.72,1.25-1.22,1.78c0.21-0.38,0.39-0.77,0.52-1.18c0.03-0.21,0.23-0.92,0.15-1.07
					c-0.05-0.1-0.17,0.06-0.56,0.67c-0.2,0.3-0.47,0.73-0.96,1.21c-0.48,0.48-1.23,0.97-2.26,1.18c-0.69,0.18-1.41,0.24-2.13,0.28
					c1.16-0.21,2.21-0.49,3.01-1.18c0.8-0.69,1.18-1.74,1.23-2.74c-0.3,0.37-0.66,0.69-1.1,0.92c-0.42,0.67-1.12,1.09-1.88,1.24
					c-0.76,0.16-1.56,0.12-2.36,0.09c-1.07-0.05-2.15-0.15-3.2-0.29c-1.82-0.24-3.61-0.61-5.26-1.08l-0.93-0.26l0.04,1.32
					c0.04,1.41,0.42,2.82,0.93,4.04c0.45,1.05,1.54,2.3,2.69,3.27l0.2,0.15l-0.45-0.65l0.78,0.83c-0.31-0.55-0.62-1.12-0.89-1.69
					c0.43,0.65,0.89,1.29,1.35,1.9l0.36,0.12c-0.4-0.48-0.8-0.97-1.19-1.48c0.46,0.54,0.94,1.07,1.42,1.57l0.51,0.1L39.18,25.73
					 M51.44,32.18c0.25-1.59,0.63-3.08,0.37-5.13l-0.56,0.69c0.11,0.02,0.23,0.05,0.36,0.07c-0.13-0.03-0.25-0.05-0.36-0.07
					l0.56-0.69C52.07,29.1,51.7,30.59,51.44,32.18l-0.13,0.68l-0.05,0.45l0.05-0.45L51.44,32.18l0.16,0.11
					c-0.02,0.39-0.05,0.79-0.08,1.18l0.87-0.32l-0.39-0.52l0.39,0.52l-0.87,0.32c0.04-0.39,0.06-0.78,0.08-1.18L51.44,32.18
					 M46.36,27.44c1.2,1.1,1.46,2.35,2.48,3.42C47.82,29.79,47.56,28.54,46.36,27.44 M45.29,26.55l-0.09-0.07l-0.85-0.8l0.85,0.8
					L45.29,26.55c0.95,1.03,1.47,2.01,2.38,3.05C46.76,28.57,46.24,27.59,45.29,26.55 M51.71,33.42l0.01,0.05l0.51-0.19l-0.54-0.39
					l0.54,0.39l-0.51,0.19L51.71,33.42 M39.44,18.41c1.19-0.1,2.34-0.22,3.41-0.39C41.78,18.19,40.63,18.31,39.44,18.41
					 M39.44,18.41c1.19-0.1,2.34-0.22,3.41-0.39C41.78,18.19,40.63,18.31,39.44,18.41 M39.44,18.41l-0.55,0.02l-0.56,0.07
					l-0.57,0.02c-0.2,0.02-0.32,0.05-0.47,0.07l-0.05,0.01l-0.44,0.02l-0.46,0.08l-0.46,0.03L35.4,18.8l-0.46,0.08l-0.35,0.03
					l-0.46,0.08l-0.47,0.08l-0.46,0.08l-0.11,0.03l3.42-4.04l0.1,0.1l0.15,0.19l0.2,0.1c-0.1-0.15-0.16-0.3-0.25-0.44l-3.64,4.3
					c1.35-0.1,2.57-0.33,3.78-0.56l0.16-0.03l0.12-0.03c0.2-0.04,0.34-0.07,0.59-0.11l0.16-0.02l0.57-0.07l0.31-0.06L39.44,18.41
					 M48.08,16.93c-0.16,0.17-0.33,0.35-0.52,0.51c-0.13,0.11-0.26,0.23-0.39,0.33c-0.15,0.1-0.31,0.21-0.47,0.29
					c-0.15,0.1-0.31,0.19-0.47,0.27c-0.2,0.1-0.41,0.19-0.62,0.26l-0.29,0.13c-0.27,0.1-0.54,0.19-0.82,0.28l-0.01,0l-0.51,0.15
					L44.49,19l-0.51,0.15L44.49,19l0,0c-0.17,0.05-0.34,0.1-0.51,0.15c0.2-0.07,0.43-0.12,0.66-0.19l0.37-0.09
					c0.22-0.06,0.43-0.12,0.64-0.2l0.2-0.08c0.2-0.07,0.39-0.16,0.59-0.25c0.12-0.05,0.23-0.11,0.34-0.17
					c0.11-0.07,0.22-0.15,0.32-0.23C47.5,17.66,47.83,17.3,48.08,16.93 M54.3,21.71l-0.03,0.15c0.2,0.08,0.4,0.18,0.6,0.28
					C54.68,21.99,54.49,21.84,54.3,21.71"/>
				<path class="st3" d="M39.44,18.41c-0.72,0.06-1.43,0.12-2.15,0.19c0.15-0.02,0.28-0.05,0.47-0.07l0.57-0.02l0.56-0.07
					L39.44,18.41"/>
				<polyline class="st3" points="38.78,18.5 38.47,18.56 37.9,18.63 37.73,18.65 38.78,18.5 				"/>
				<path class="st3" d="M37.24,18.6c-1.43,0.16-2.85,0.33-4.15,0.59l3.45-4.07c0.15,0.15,0.27,0.29,0.43,0.4l-0.2-0.1l-0.15-0.19
					l-0.1-0.1l-3.42,4.04l0.11-0.03l0.46-0.08l0.47-0.08l0.46-0.08l0.35-0.03l0.46-0.08l0.47-0.08l0.46-0.03l0.46-0.08L37.24,18.6"
					/>
				<polyline class="st3" points="37.14,18.76 37.02,18.79 36.86,18.81 37.14,18.76 				"/>
				<polyline class="st16" points="53.89,27.35 53.95,27.36 53.99,27.44 53.89,27.35 				"/>
				<path class="st15" d="M40.53,14.09c-0.18,0.1-0.43,0.2-0.48,0.23C40.1,14.29,40.35,14.2,40.53,14.09"/>
				<polyline class="st15" points="60.22,28.83 59.78,28.35 60.22,28.83 				"/>
				<path class="st15" d="M58.88,26.51c-0.86-0.51-1.76-0.96-2.7-1.33C57.12,25.55,58.02,26,58.88,26.51"/>
				<path class="st15" d="M54.66,23.78c1.15,0.19,2.27,0.54,3.37,0.93C56.92,24.32,55.81,23.97,54.66,23.78"/>
				<path class="st15" d="M39.44,18.41l-0.55,0.02l-0.56,0.07l-0.57,0.02c-0.2,0.02-0.32,0.05-0.47,0.07
					c0.15-0.02,0.28-0.05,0.47-0.07l0.57-0.02l0.56-0.07L39.44,18.41"/>
				<polyline class="st15" points="38.78,18.5 38.47,18.56 37.9,18.63 37.73,18.65 37.9,18.63 38.47,18.56 38.78,18.5 				"/>
				<polyline class="st15" points="37.24,18.6 36.8,18.62 36.33,18.7 35.87,18.73 35.4,18.8 34.94,18.88 34.59,18.91 34.13,18.99 
					33.66,19.06 33.2,19.14 33.09,19.17 36.51,15.12 36.62,15.22 36.77,15.41 36.97,15.51 36.77,15.41 36.62,15.22 36.51,15.12 
					33.09,19.17 33.2,19.14 33.66,19.06 34.13,18.99 34.59,18.91 34.94,18.88 35.4,18.8 35.87,18.73 36.33,18.7 36.8,18.62 
					37.24,18.6 				"/>
				<polyline class="st15" points="37.14,18.76 37.02,18.79 36.86,18.81 37.02,18.79 37.14,18.76 				"/>
				<path class="st15" d="M42.85,18.02c-1.07,0.18-2.22,0.29-3.41,0.39C40.63,18.31,41.78,18.19,42.85,18.02"/>
				<path class="st15" d="M42.85,18.02c-1.07,0.18-2.22,0.29-3.41,0.39C40.63,18.31,41.78,18.19,42.85,18.02"/>
				<path class="st14" d="M36.04,23.34c-1.15-0.96-2.25-2.21-2.69-3.27c-0.52-1.22-0.89-2.63-0.93-4.04l-0.04-1.32l0.93,0.26
					c1.65,0.47,3.44,0.84,5.26,1.08c-1.82-0.24-3.61-0.61-5.26-1.08l-0.93-0.26l0.04,1.32c0.04,1.41,0.42,2.82,0.93,4.04
					C33.79,21.12,34.89,22.37,36.04,23.34"/>
				<path class="st14" d="M46,15.01c-0.42,0.67-1.12,1.09-1.88,1.24c-0.76,0.16-1.56,0.12-2.36,0.09c0.8,0.04,1.6,0.07,2.36-0.09
					C44.88,16.11,45.58,15.69,46,15.01"/>
				<path class="st3" d="M46.7,18.05c0.16-0.08,0.32-0.19,0.47-0.29c-0.56,0.42-1.2,0.72-1.85,0.96l0.29-0.13
					c0.21-0.08,0.42-0.16,0.62-0.26C46.39,18.24,46.54,18.15,46.7,18.05"/>
				<path class="st3" d="M47.1,17.94c-0.1,0.08-0.21,0.16-0.32,0.23c-0.11,0.06-0.23,0.12-0.34,0.17
					C46.67,18.23,46.89,18.1,47.1,17.94"/>
				<path class="st3" d="M45.85,18.6l-0.2,0.08c-0.21,0.08-0.43,0.14-0.64,0.2l-0.37,0.09C45.03,18.86,45.44,18.75,45.85,18.6"/>
				<polyline class="st3" points="44.5,19 44.49,19 44.49,19 44.5,19 				"/>
				<polyline class="st4" points="50.21,14.5 50.14,14.8 50.21,14.5 				"/>
				<path class="st9" d="M49.29,15.14c0.77-1.49,1.39-3.1,1.98-4.81c0.14-0.43,0.29-0.86,0.42-1.3l0.38-1.27
					c0.21-0.72,0.4-1.45,0.55-2.2c0.14,0.64,0.27,1.28,0.4,1.92l-0.06-0.26c-0.11,0.43-0.18,0.82-0.34,1.61
					c-0.07,0.36-0.15,0.74-0.23,1.13c-0.25,1.15-0.55,2.36-0.94,3.28c-0.23,0.33-0.48,0.64-0.73,0.94l-0.04-0.03l-0.3-0.04l0.02-1
					c-0.06,0.46-0.12,0.92-0.2,1.38l-0.06,0.3c-0.27,1.25-0.69,2.48-1.46,3.52C49.1,17.32,49.27,16.22,49.29,15.14"/>
				<path class="st17" d="M52.63,8.84c0.16-0.79,0.23-1.19,0.34-1.61C52.86,7.65,52.79,8.04,52.63,8.84
					c-0.07,0.36-0.15,0.74-0.23,1.13C52.48,9.58,52.56,9.2,52.63,8.84"/>
				<polyline class="st17" points="52.97,7.23 53.03,7.48 52.97,7.23 				"/>
				<polyline class="st18" points="50.39,14.12 50.7,14.16 50.74,14.19 50.39,14.12 				"/>
				<path class="st17" d="M49.29,15.14c-0.02,1.08-0.2,2.17-0.61,3.17C49.1,17.32,49.27,16.22,49.29,15.14"/>
				<path class="st9" d="M46.89,12.48c0.45-1.55,1.23-3.39,1.85-5.16c0.36,0.82,0.56,2.03,0.66,3.43c0.09,1.4,0.08,2.98-0.1,4.39
					c-0.33,0.64-0.72,1.25-1.22,1.78c0.21-0.38,0.39-0.77,0.52-1.18c0.03-0.21,0.23-0.92,0.15-1.07c-0.05-0.1-0.17,0.06-0.56,0.67
					c-0.2,0.3-0.47,0.73-0.96,1.21c-0.48,0.48-1.23,0.97-2.26,1.18c-0.69,0.18-1.41,0.24-2.13,0.28c1.16-0.21,2.21-0.49,3.01-1.18
					c0.8-0.69,1.18-1.74,1.23-2.74c-0.3,0.37-0.66,0.69-1.1,0.92c0.17-0.27,0.3-0.55,0.41-0.85c0.1-0.38,0.22-0.8,0.35-1.24
					C46.8,12.78,46.85,12.63,46.89,12.48"/>
				<path class="st17" d="M47.1,14.1c-0.06,1-0.43,2.05-1.23,2.74c-0.8,0.69-1.86,0.97-3.01,1.18c1.16-0.21,2.21-0.49,3.01-1.18
					C46.67,16.15,47.04,15.09,47.1,14.1"/>
				<path class="st17" d="M48.75,14.67c0.08,0.15-0.12,0.86-0.15,1.07c-0.14,0.41-0.31,0.81-0.52,1.18
					c0.21-0.38,0.39-0.77,0.52-1.18C48.64,15.53,48.83,14.82,48.75,14.67"/>
				<path class="st19" d="M42.56,14.85c0.81,0,1.68-0.14,2.32-0.69c0.96-0.82,1.28-2.09,1.62-3.25c0.34-1.18,0.65-2.39,0.93-3.62
					c0.27-0.79,0.46-1.64,0.59-2.47c0.04-0.28,0.07-0.56,0.1-0.84c1.31-0.74,2.59-1.42,3.94-1.89c0.22,1.15,0.42,2.3,0.58,3.48
					c-0.15,0.75-0.34,1.48-0.55,2.2L51.7,9.03c-0.13,0.44-0.28,0.87-0.42,1.3c-0.6,1.71-1.21,3.33-1.98,4.81
					c0.18-1.41,0.19-3,0.1-4.39c-0.09-1.4-0.3-2.61-0.66-3.43c-0.62,1.77-1.4,3.62-1.85,5.16l0,0c-0.05,0.15-0.09,0.3-0.13,0.45
					c-0.13,0.44-0.25,0.85-0.35,1.24c-0.11,0.3-0.24,0.59-0.41,0.85c-0.83,0.52-1.96,0.68-3.03,0.61c-1.08-0.07-2.15-0.17-3.26-0.21
					l-0.55-0.03c-0.6-0.04-1.21-0.07-1.82-0.11c-0.66-0.05-1.32-0.1-1.98-0.18l-0.32-0.47C37.97,14.66,40.14,14.76,42.56,14.85"/>
				<path class="st15" d="M42.56,14.85c-2.41-0.08-4.59-0.18-7.51-0.22C37.97,14.67,40.14,14.76,42.56,14.85"/>
				<path class="st15" d="M44.87,14.16c0.96-0.82,1.28-2.09,1.62-3.25c0.34-1.18,0.65-2.39,0.93-3.62
					c-0.28,1.23-0.59,2.43-0.93,3.62C46.16,12.07,45.83,13.33,44.87,14.16"/>
				<path class="st15" d="M37.35,15.27c0.61,0.04,1.21,0.07,1.82,0.11l0.55,0.03c1.1,0.05,2.18,0.14,3.26,0.21
					c-1.08-0.07-2.15-0.17-3.26-0.21l-0.55-0.03C38.56,15.35,37.95,15.31,37.35,15.27"/>
				<path class="st18" d="M46.89,12.48L46.89,12.48c-0.05,0.15-0.09,0.3-0.13,0.45C46.8,12.78,46.85,12.63,46.89,12.48"/>
				<path class="st18" d="M48.74,7.31c0.36,0.82,0.56,2.03,0.66,3.43c0.09,1.4,0.08,2.98-0.1,4.39c0.18-1.41,0.19-3,0.1-4.39
					C49.31,9.35,49.1,8.14,48.74,7.31"/>
				<path class="st4" d="M47.42,7.29c0.25-1.08,0.49-2.2,0.68-3.31c-0.03,0.28-0.06,0.56-0.1,0.84C47.89,5.65,47.69,6.5,47.42,7.29"
					/>
				<path class="st18" d="M47.42,7.29c0.25-1.08,0.49-2.2,0.68-3.31C47.91,5.09,47.68,6.21,47.42,7.29"/>
			</g>
		</g>
	</g>
</g>
</svg>
