<?xml version="1.0" encoding="utf-8"?>
<!-- Generator: Adobe Illustrator 25.2.3, SVG Export Plug-In . SVG Version: 6.00 Build 0)  -->
<svg version="1.1" id="Layer_2" xmlns="http://www.w3.org/2000/svg" xmlns:xlink="http://www.w3.org/1999/xlink" x="0px" y="0px"
	 viewBox="0 0 250 500" style="enable-background:new 0 0 250 500;" xml:space="preserve">
<style type="text/css">
	.st0{fill:#ED1C24;}
	.st1{fill:#D7D7D7;}
	.st2{fill:#EF3940;}
	.st3{fill:none;stroke:#F36E73;stroke-miterlimit:10;}
</style>
<path class="st0" d="M155.55,193.35c-2.86-9.26-3.78-18.96-2.71-28.5c-16.39-1.57-32.95-1.86-49.41-0.88
	c1.54,9.71,0.62,19.7-2.67,29.09c-23.95-0.87-47.8-3.85-71.05-8.87c-4.91-1.06-10.23-2.47-13.01-6.11c-2.41-3.15-2.3-7.19-2.1-10.95
	c0.43-8.2,0.88-16.39,1.35-24.59c0.6-10.59,1.26-21.29,4.65-31.49c3.34-10.02,9.22-19.26,15.25-28.31
	c5.44-8.16,11.11-16.32,18.65-23.15c12.97-11.74,30.96-18.88,49.53-21.63s37.73-1.35,56.12,2.19c11.67,2.25,23.3,5.42,33.22,11.15
	c9.9,5.73,17.72,13.81,23.82,22.62c6,8.65,10.46,18.1,13.04,27.92c2.19,8.37,3.01,16.96,4.57,25.44c1.66,9.04,4.17,18.01,4.64,27.15
	c0.47,9.15-1.3,18.72-7.45,26.2c0.09,3.13-2.97,6.29-5.99,8.04c-3.03,1.74-6.64,2.54-10.2,3.25c-17.52,3.5-36.12,5.45-53.34,0.98
	C159.9,192.23,157,191.44,155.55,193.35z"/>
<g>
	<g>
		<path d="M239.21,164.34c-1.53-31.16-2.8-67.7-23.19-93.26c-5.06-6.34-11.2-11.9-17.31-17.21c-5.71-4.96-11.82-8.77-19.13-10.9
			c-16.1-4.69-33.78-5.96-50.45-6.91c-16.71-0.96-33.57-0.76-49.13,6.12c-13.25,5.86-24.5,15.27-33.8,26.27
			c-5.5,6.51-10.34,13.54-14.94,20.7c-4.09,6.37-8.4,12.82-11.17,19.91c-5.95,15.2-4.32,33.24-4.8,49.26
			c-0.15,5.18-0.31,10.37-0.46,15.55c-0.07,2.51-0.86,6.29,1.17,8.35c2.13,2.16,7.42,2.43,10.18,3.04
			c4.41,0.97,8.84,1.86,13.28,2.67c20.05,3.61,40.39,5.37,60.76,5.44c1.25,0,1.32-2.49,0.08-2.5c-15.93-0.05-31.83-1.12-47.6-3.33
			c-8.08-1.13-16.12-2.55-24.09-4.26c-2.68-0.58-8.38-0.79-10.52-2.49c-3.08-2.45-1.26-11.17-1.16-14.63
			c0.23-7.78,0.46-15.55,0.69-23.33c0.25-8.58,0.13-17.36,2.03-25.77c1.79-7.93,5.8-14.84,10.07-21.66
			c4.03-6.45,8.19-12.83,12.78-18.91c8.67-11.47,19.01-21.73,31.65-28.76c14.06-7.82,29.49-9.94,45.4-9.57
			c15.97,0.37,31.98,2.02,47.73,4.69c7.29,1.24,14.71,2.72,21.23,6.4c6.83,3.85,12.67,9.69,18.27,15.1
			c26.72,25.82,28.84,65.01,30.56,99.94C237.41,165.82,239.29,165.91,239.21,164.34L239.21,164.34z"/>
	</g>
</g>
<g>
	<path class="st1" d="M38.16,488.63c2.27-7.55,5.09-14.93,8.43-22.07c1.64-3.51,3.43-7,4.36-10.77c0.72-2.9,0.92-5.9,1.22-8.88
		c2.16-21.26,9.74-41.74,20.29-60.33c2.47-4.35,5.11-8.61,7.36-13.08c4.58-9.09,7.52-18.9,10.43-28.65c0.58-1.95,1.16-3.9,1.73-5.84
		c6.34-21.55,12.3-43.64,12.27-66.27c-0.02-21.93-3.81-43.71-2.69-65.74c0.71-13.86,3-27.87,0.03-41.5l50.53,0.59
		c-0.48,7.36-0.96,14.75-0.36,22.1c0.41,5,1.31,9.97,1.99,14.95c2.58,18.94,2.48,38.72,0.75,57.68c-0.86,9.45,0.09,19.24-0.26,28.76
		c-0.37,10.03-1.26,20.05-3.22,29.9c-5.53,27.83-19.44,53.76-22.39,81.99c-1.69,16.2,0.35,32.77,5.92,48.07
		c2.6,7.13,6.06,14.14,11.59,19.33c3.85,3.61,8.54,6.19,13.23,8.59c9.82,5.02,19.94,9.45,30.3,13.25"/>
</g>
<g>
	<g>
		<path d="M237.2,164.6c0.24,4.18,0.86,8.63,0.46,12.81c-0.56,5.76-4.01,8.52-9.17,10.2c-7.17,2.34-14.73,3.82-22.18,4.94
			c-16.59,2.51-33.46,2.42-50.05-0.03c-1.53-0.23-1.89,1.61-0.34,1.84c18.85,2.78,38.04,2.56,56.79-0.91
			c7.24-1.34,17.69-2.37,23.52-7.36c5.96-5.1,3.84-14.74,3.45-21.55C239.59,163.37,237.12,163.26,237.2,164.6L237.2,164.6z"/>
	</g>
</g>
<g>
	<g>
		<path d="M151.34,165.84c-0.79,12.11-0.33,23.44,1.38,35.44c1.85,12.97,2.48,26.07,2.17,39.16c-0.3,12.51-1.66,24.86-1.43,37.38
			c0.23,12.62-0.37,25.26-2.52,37.72c-3.96,22.91-13.86,44.15-19.55,66.6c-5.73,22.62-5.55,46.17,2.7,68.18
			c3.95,10.54,9.81,19.07,19.63,24.84c11.31,6.64,23.74,11.76,36.01,16.31c1.34,0.5,2.39-1.15,0.86-1.72
			c-11.32-4.2-22.52-8.97-33.13-14.76c-11.06-6.04-17.34-14.8-21.5-26.52c-7.83-22.07-7.56-45.31-1.63-67.77
			c5.6-21.21,14.77-41.39,18.78-63.03c2.17-11.73,3.06-23.79,2.92-35.72c-0.14-12.23,0.72-24.21,1.21-36.41
			c0.51-12.63,0.21-25.31-1.2-37.87c-0.74-6.58-2.04-13.1-2.58-19.7c-0.59-7.27-0.09-14.59,0.38-21.85
			C153.91,164.87,151.42,164.6,151.34,165.84L151.34,165.84z"/>
	</g>
</g>
<g>
	<g>
		<path d="M100.82,165.46c2.37,11.81,1.18,23.67,0.32,35.58c-0.77,10.71-0.6,21.37,0.09,32.08c1.47,23,3.6,45.4-0.61,68.27
			c-1.99,10.79-4.81,21.4-7.85,31.94c-3.04,10.55-5.94,21.26-10,31.47c-3.96,9.96-9.95,18.82-14.83,28.32
			c-4.51,8.8-8.33,17.96-11.22,27.42c-1.73,5.67-3.13,11.44-4.14,17.28c-1.01,5.84-1,11.94-2.42,17.69
			c-1.42,5.71-4.59,10.95-6.86,16.34c-2.27,5.39-4.21,10.9-5.93,16.49c-0.36,1.16,2.1,1.57,2.47,0.37
			c1.75-5.72,3.77-11.35,6.12-16.85c2.01-4.71,4.6-9.25,6.14-14.15c1.37-4.34,1.5-8.89,2.05-13.37c0.69-5.59,1.75-11.13,3.13-16.59
			c2.67-10.57,6.59-20.81,11.38-30.6c4.81-9.85,11.1-18.93,15.4-29.03c3.8-8.92,6.44-18.29,9.18-27.58
			c3.16-10.7,6.23-21.44,8.57-32.35c4.71-21.97,4.25-43.3,2.57-65.57c-1.01-13.43-1.77-26.82-0.83-40.28
			c0.87-12.39,2.19-24.73-0.27-37.03C103.04,164.15,100.56,164.15,100.82,165.46L100.82,165.46z"/>
	</g>
</g>
<g>
	<g>
		<path d="M228.91,177.89c-18.32-1.69-35.82-7.39-53.75-11.13c-17.47-3.65-35.1-3.85-52.87-3.4c-18.75,0.48-37.46,1.97-56.05,4.47
			c-9.26,1.25-18.5,2.71-27.67,4.5c-6.43,1.25-12.75,2.71-17.89,6.98c-1.08,0.9,1.16,1.91,2.05,1.16c6.97-5.79,17.22-6.53,25.82-8
			c8.27-1.41,16.56-2.63,24.89-3.64c17.66-2.14,35.42-3.37,53.21-3.69c18.35-0.33,36.04,0.59,53.96,4.74
			c15.97,3.7,31.73,8.36,48.11,9.87C230.26,179.9,230.47,178.03,228.91,177.89L228.91,177.89z"/>
	</g>
</g>
<g>
	<g>
		<g>
			<path class="st2" d="M46.79,44.65c1-1.32,1.69-3.05,2.03-4.93c0.35-1.88,0.36-3.88,0.21-5.84c-0.31-3.93-1.26-7.7-1.9-11.12
				c-0.62,4.1-1.1,8.41-2.26,12.42c-2.51-2.49-5.18-4.3-7.74-6.22c-2.59-1.91-5.23-3.8-7.96-5.54c-5.44-3.51-11.38-6.45-17.68-7.71
				c6.08,2.09,11.38,5.67,16.19,9.74c2.42,2.03,4.73,4.19,7.02,6.4c2.28,2.23,4.66,4.39,6.41,6.68c-3.84,1-7.34,2.62-11.01,4.11
				c3.12-0.19,5.89-0.64,8.64-0.67c1.37-0.01,2.75,0.08,4.12,0.46C44.23,42.8,45.6,43.5,46.79,44.65z"/>
		</g>
	</g>
</g>
<g>
	<g>
		<g>
			<path class="st2" d="M208.51,49.18c1.44-0.57,2.69-0.11,3.94,0.28c1.29,0.39,2.6,0.93,4.63,0.75c1.88-0.07,3.95-0.62,5.72-1.06
				c1.79-0.45,3.43-0.87,4.9-1.03c-3.77-0.8-8.12-0.83-12.05-1.99c2.18-2.4,3.29-4.89,4.74-6.85c1.36-1.94,3.38-3.54,5.51-5.19
				l12.69-9.92l-14.09,7.82c-2.32,1.29-4.85,2.66-6.97,4.82c-2.06,2.08-3.61,4.34-5.33,5.65c-1.47-3.49-3.85-6.29-5.63-9.8
				c0.24,1.52,0.67,2.78,1.13,3.93c0.44,1.16,1.06,2.1,1.3,3.31c0.39,1.1-0.1,2.68-0.48,4.31
				C208.14,45.83,207.83,47.79,208.51,49.18z"/>
		</g>
	</g>
</g>
<g>
	<g>
		<g>
			<path class="st2" d="M53.39,198.47c-7.15-1.04-15.42,0.05-23.45,3.76c4.69-0.48,9.23-0.28,13.47,0.52
				c-2.71,2.89-4.96,6.16-6.7,9.66c-0.87,1.74-1.62,3.56-2.22,5.38c-0.6,1.82-1.1,3.63-1.61,5.4c-1.02,3.54-2.17,6.99-4.35,9.88
				c-2.17,2.9-5.16,5.23-7.81,7.83c2.93-2.29,6.13-4.22,8.78-7.02c2.67-2.81,4.33-6.41,5.76-9.85c1.43-3.49,2.77-6.82,4.74-9.76
				c1.93-2.97,4.27-5.64,6.92-7.9c0.87,4.06,2.34,7.82,4.29,11.14C49.89,211.85,50.45,205.1,53.39,198.47z"/>
		</g>
	</g>
</g>
<g>
	<g>
		<g>
			<path class="st2" d="M187.56,201.89c2.56,7.07,2.79,13.94,2.3,20.59c1.61-3.75,3.01-7.65,3.99-11.78
				c5.4,5.24,9.82,11.66,13.97,18.27c4.16,6.61,8.17,13.46,13.05,19.62c-4.19-6.65-7.4-13.77-10.85-20.84
				c-3.45-7.06-7.23-14.15-12.47-20.47c4.34-0.5,8.85-0.56,13.39-0.33c-3.86-1.56-7.81-2.88-11.75-3.79
				C195.24,202.26,191.29,201.8,187.56,201.89z"/>
		</g>
	</g>
</g>
<g>
	<g>
		<path class="st3" d="M517.69,245.13"/>
	</g>
</g>
</svg>
