<?xml version="1.0" encoding="utf-8"?>
<!-- Generator: Adobe Illustrator 25.2.3, SVG Export Plug-In . SVG Version: 6.00 Build 0)  -->
<svg version="1.1" id="Layer_1" xmlns="http://www.w3.org/2000/svg" xmlns:xlink="http://www.w3.org/1999/xlink" x="0px" y="0px"
	 viewBox="0 0 75 75" style="enable-background:new 0 0 75 75;" xml:space="preserve">
<style type="text/css">
	.st0{fill:#D7D7D7;}
	.st1{fill:#76CB82;}
	.st2{fill:#202020;}
</style>
<g id="Layer_1_1_">
	<path class="st0" d="M364.61,54.57c-7.04-0.75-14.1,0.73-21.02,2.21c-1.8,0.38-3.61,0.77-5.27,1.55c-1.75,0.82-3.28,2.03-4.8,3.24
		c-3.07,2.45-6.14,4.89-9.22,7.34c-0.84,0.66-1.75,1.93-0.96,2.68c0.25,0.24,0.6,0.32,0.94,0.39c2.33,0.52,4.67,1.04,7.06,1.21
		c3.13,0.23,6.27-0.13,9.41-0.15c3.97-0.02,7.92,0.5,11.88,0.64c6.71,0.24,13.44-0.63,20.15-0.33c3.79,0.17,7.57,0.7,11.36,0.8
		c3.16,0.08,6.32-0.14,9.47-0.35c0.45-0.03,0.93-0.07,1.3-0.33c1.07-0.76,0.36-2.44-0.47-3.46c-2.85-3.5-6.27-6.52-10.09-8.93
		c-3.64-2.3-7.4-3.56-11.5-4.76C370.15,55.52,367.41,54.87,364.61,54.57z"/>
	<path class="st0" d="M364.46,98.25c-0.05-1.77-0.1-3.53-0.18-5.3c-0.12-2.67-0.32-5.34-0.52-8.01c-0.27-3.65-0.54-7.3-0.82-10.95
		c-4.27-0.56-8.61-0.53-12.87,0.08c0.7,0.52,0.94,1.47,0.94,2.34s-0.21,1.74-0.21,2.61c0.01,1.61,0.74,3.15,0.83,4.76
		c0.06,1.06-0.16,2.12-0.34,3.17c-1.08,6.29-0.74,12.72-0.6,19.1c0.03,1.46,0.06,2.93-0.04,4.39c-0.11,1.59-0.36,3.17-0.56,4.75
		c-0.46,3.68-0.65,7.4-0.57,11.11c0.01,0.38,0.04,0.81,0.3,1.09c0.19,0.2,0.46,0.29,0.73,0.35c3.55,0.87,7.14-0.92,10.62-2.03
		c1.23-0.39,3.63-0.58,3.96-2.02c0.39-1.71-0.11-4.09-0.16-5.85c-0.11-4.2-0.23-8.39-0.34-12.59
		C364.59,102.91,364.53,100.58,364.46,98.25z"/>
</g>
<path class="st1" d="M358.61,97.31c0,0.05,0,0.06-0.04,0.12c-0.26,0.42-0.93,1.02-1.74,0.05c-0.01-0.02-0.07-0.1-0.08-0.14
	l-0.07-3.08l-0.08-2.33l-0.08-1.72c0,0,0.05-2.83,0.18-4.83c0.14-3.39,0.66-2.09,1.03-0.01c0.01-0.11,0.19,1.13,0.35,2.41
	c0.15,1.3,0.3,2.58,0.3,2.58l0.07,1.49l0.09,2.35L358.61,97.31z"/>
<path class="st1" d="M353.42,83.73c0-0.05,0-0.06,0.04-0.12c0.26-0.42,0.93-1.02,1.74-0.05c0.01,0.02,0.07,0.1,0.08,0.14l0.07,3.08
	l0.08,2.33l0.08,1.72c0,0-0.05,2.83-0.18,4.83c-0.14,3.39-0.66,2.09-1.03,0.01c-0.01,0.11-0.19-1.13-0.35-2.41
	c-0.15-1.3-0.3-2.58-0.3-2.58l-0.07-1.49l-0.09-2.35L353.42,83.73z"/>
<g>
	<g>
		<g>
			<path class="st1" d="M363.5,96.95c0.01,0.05,0.01,0.06-0.03,0.13c-0.21,0.43-0.79,1.14-1.72,0.27c-0.02-0.02-0.08-0.09-0.1-0.14
				c-0.14-1.04-0.25-2.09-0.33-3.14c-0.04-0.64-0.08-1.28-0.1-1.92c-0.02-0.59-0.03-1.17-0.03-1.76c0,0,0.04-0.72,0.16-1.7
				c0.11-0.97,0.32-2.19,0.56-3.17c0.81-3.34,1.03-1.9,1.02,0.17c0.03-0.11-0.01,1.13,0.01,2.4c0.02,1.26,0.1,2.54,0.1,2.54
				l0.03,1.45c0.02,0.62,0.06,1.23,0.1,1.85C363.26,94.94,363.36,95.95,363.5,96.95z"/>
		</g>
	</g>
</g>
<g id="Layer_2_1_">
	<g>
		<g>
			<g>
				<path class="st1" d="M361.91,84.53c0-0.04-0.01-0.06,0.03-0.12c0.22-0.43,0.84-1.09,1.74-0.19c0.02,0.02,0.08,0.1,0.09,0.14
					c0.1,1.04,0.18,2.08,0.24,3.12l0.07,1.4l0.07,1.74c0,0-0.12,2.87-0.46,4.87c-0.51,3.38-0.87,1.99-1.03-0.09
					c-0.02,0.11-0.08-1.14-0.17-2.41c-0.1-1.29-0.21-2.56-0.21-2.56l-0.06-1.47l-0.08-1.37C362.08,86.57,362,85.55,361.91,84.53z"/>
			</g>
		</g>
	</g>
	<g>
		<g>
			<g>
				<path class="st2" d="M362.35,74.39c0-0.05,0-0.06,0.04-0.13c0.25-0.44,0.9-1.03,1.74-0.09c0.02,0.02,0.07,0.1,0.08,0.14
					c0.03,1.01,0.12,2.02,0.21,3.03c0.38,3.85,1.08,7.73,1.32,11.72c0.15,1.99,0.04,4.04,0,5.95c-0.03,1.94-0.01,3.89,0.01,5.85
					c0.05,3.91,0.12,7.87-0.13,11.82c-0.12,1.96-0.25,3.9-0.24,5.81l0.03,1.1l0.05,0.88c0,0-0.01,0.69,0.03,1.63
					c0.03,0.94,0.1,2.13,0.16,3.13c0.33,3.36-0.37,2.17-1.02,0.14c0,0.11-0.34-1.11-0.6-2.39c-0.27-1.28-0.43-2.62-0.43-2.62
					l-0.04-0.92l-0.01-0.46v-1.16c0.02-1.97,0.17-3.91,0.27-5.82c0.21-3.8,0.13-7.64,0.08-11.5c-0.02-1.93-0.04-3.87,0-5.81
					c0.05-1.98,0.13-3.8-0.02-5.7c-0.24-3.78-0.92-7.57-1.3-11.45C362.47,76.49,362.39,75.44,362.35,74.39z"/>
			</g>
		</g>
	</g>
	<g>
		<g>
			<g>
				<path class="st2" d="M394.43,72.73c0.05,0,0.06,0,0.12,0.04c0.42,0.24,1.06,0.89,0.13,1.74c-0.02,0.02-0.1,0.07-0.14,0.08
					c-0.06,0-1.2,0.06-2.87,0.15c-0.4,0.01-0.8,0.03-1.21,0.04c-1.24,0.04-2.5,0.1-3.79,0.11c-2.57,0.05-5.22,0.07-7.94,0.04
					c-5.44-0.05-11.15-0.23-17.04-0.42c-5.89-0.18-11.96-0.36-18.11-0.32c-3.08,0-6.15,0.13-9.3,0.2c-3.14,0.05-6.43-0.05-9.59-1.15
					c-0.39-0.13-0.78-0.29-1.16-0.46c-0.19-0.08-0.38-0.17-0.57-0.26c-0.34-0.17-0.71-0.36-1.01-0.56l-0.12-0.07
					c-0.03-0.03,0-0.09-0.01-0.13l0.02-0.29l0.04-0.57c0.04-0.18,0.06-0.4,0.11-0.56c0.03-0.12,0.07-0.24,0.11-0.35
					c0.17-0.46,0.4-0.88,0.67-1.26c1.09-1.54,2.72-2.31,4.05-3.03c2.67-1.35,4.86-3.46,7.35-5.39c1.24-0.96,2.57-1.88,4.03-2.57
					c1.46-0.69,2.98-1.15,4.48-1.51c3.01-0.67,5.9-1.19,8.82-1.69c2.91-0.48,5.82-0.83,8.69-0.9c2.88-0.07,5.72,0.21,8.39,0.73
					c2.68,0.52,5.22,1.22,7.65,1.98c2.43,0.75,4.76,1.62,6.93,2.64c2.16,1.03,4.16,2.23,5.88,3.61c0.86,0.69,1.67,1.42,2.39,2.18
					c0.36,0.38,0.7,0.77,1.03,1.16l0.16,0.19c0.22,0.27,0.4,0.51,0.55,0.7c0.29,0.4,0.46,0.63,0.46,0.63s0.39,0.63,0.83,1.52
					c0.44,0.89,0.9,2.06,1.16,3.05c0.11,0.39,0.26,0.83,0.14,1.23c-0.13,0.44-0.49,0.56-0.69,0.55c-0.23-0.01-0.32-0.15-0.32-0.21
					c-0.01-0.07,0.03-0.1,0.09-0.11c0.1-0.02,0.19-0.11,0.23-0.27c0-0.08-0.12-0.36-0.41-0.84c0.02,0.11-0.52-0.99-1.21-2.02
					c-0.67-1.04-1.47-2.01-1.47-2.01s-0.15-0.21-0.42-0.57c-0.07-0.09-0.15-0.19-0.23-0.29c-0.04-0.05-0.09-0.11-0.13-0.16
					l-0.07-0.09l-0.33-0.39l-0.44-0.5c-2.41-2.66-5.9-4.92-10.08-6.6c-2.09-0.85-4.35-1.58-6.71-2.25
					c-2.36-0.67-4.83-1.27-7.38-1.64c-5.1-0.78-10.6-0.19-16.23,0.84c-2.81,0.55-5.76,0.99-8.49,1.79
					c-1.37,0.41-2.66,0.96-3.88,1.71c-1.22,0.74-2.38,1.65-3.54,2.6c-1.17,0.95-2.34,1.95-3.63,2.87c-0.63,0.49-1.31,0.92-2.01,1.32
					l-2.01,1.09c-0.63,0.36-1.2,0.75-1.65,1.21c-0.45,0.46-0.8,1-0.95,1.55c-0.01,0.05,0,0.01-0.01,0.02l-0.01-0.01l0.22,0.11
					l0.5,0.21c0.66,0.29,1.36,0.5,2.06,0.69c2.84,0.72,5.89,0.72,8.93,0.64c3.06-0.11,6.16-0.17,9.21-0.18
					c6.11,0,12.11,0.17,17.92,0.35c5.81,0.18,11.43,0.36,16.76,0.39c2.67,0.02,5.26,0,7.77-0.05c1.54-0.05,3.03-0.1,4.47-0.14
					C393.26,72.79,394.37,72.73,394.43,72.73z"/>
			</g>
		</g>
	</g>
	<g>
		<g>
			<g>
				<path class="st1" d="M351.41,83.83c0-0.05,0-0.06,0.04-0.12c0.24-0.43,0.88-1.05,1.74-0.12c0.02,0.02,0.07,0.1,0.08,0.14
					l0.2,3.07l0.24,3.02l0.16,1.71c0,0,0.09,2.83,0.05,4.84c0.03,3.39-0.55,2.12-1.03,0.06c-0.01,0.11-0.25-1.12-0.47-2.39
					c-0.21-1.29-0.42-2.57-0.42-2.57l-0.14-1.48l-0.25-3.04L351.41,83.83z"/>
			</g>
		</g>
	</g>
	<g>
		<g>
			<g>
				<path class="st2" d="M349.98,73.72c0-0.04-0.01-0.06,0.03-0.12c0.22-0.43,0.84-1.1,1.73-0.2c0.02,0.02,0.08,0.1,0.09,0.14
					c0.1,1.03,0.19,2.07,0.27,3.11c0.3,4.12,0.4,8.26,0.29,12.39c-0.04,2.17-0.51,4.22-0.7,6.17c-0.2,1.93-0.02,3.93,0.15,5.98
					c0.19,2.05,0.23,4.2,0.11,6.27c-0.12,2.08-0.31,4.12-0.47,6.16l-0.68,8.17c0,0-0.42,2.81-0.87,4.77
					c-0.67,3.33-0.97,1.95-1.02-0.15c-0.06,0.21,0.06-5.02,0.06-5.02l0.7-8.55c0.16-2.01,0.35-4.02,0.44-6
					c0.11-1.99,0.02-3.91-0.16-5.92c-0.16-2-0.33-4.1-0.08-6.21c0.23-2.08,0.65-4,0.66-5.93c0.1-4,0-8.01-0.3-12
					C350.17,75.76,350.08,74.74,349.98,73.72z"/>
			</g>
		</g>
	</g>
	<g>
		<g>
			<g>
				<path class="st1" d="M354.47,83.89c0-0.05,0-0.06,0.04-0.12c0.26-0.42,0.93-1.02,1.74-0.05c0.01,0.02,0.07,0.1,0.08,0.14
					l0.07,3.08l0.08,2.33l0.08,1.72c0,0-0.05,2.83-0.18,4.83c-0.14,3.39-0.66,2.09-1.03,0.01c-0.01,0.11-0.19-1.13-0.35-2.41
					c-0.15-1.3-0.3-2.58-0.3-2.58l-0.07-1.49L354.54,87L354.47,83.89z"/>
			</g>
		</g>
	</g>
	<g>
		<g>
			<g>
				<path class="st1" d="M358.23,83.41c0-0.05,0-0.06,0.04-0.12c0.26-0.41,0.93-1.01,1.75-0.04c0.01,0.02,0.07,0.1,0.08,0.15
					l0.02,3.09l0.01,2.41l0.01,1.72c0,0-0.17,2.84-0.44,4.83c-0.37,3.38-0.79,2.03-1.03-0.06c-0.04,0.22-0.39-5-0.39-5l-0.01-1.48
					l-0.02-2.41L358.23,83.41z"/>
			</g>
		</g>
	</g>
	<g>
		<g>
			<g>
				<path class="st1" d="M360.13,84.09c-0.01-0.05-0.01-0.06,0.03-0.13c0.21-0.43,0.79-1.14,1.72-0.27c0.02,0.02,0.08,0.09,0.1,0.14
					c0.14,1.04,0.25,2.09,0.33,3.14c0.04,0.64,0.08,1.28,0.1,1.92c0.02,0.59,0.03,1.17,0.03,1.76c0,0-0.04,0.72-0.16,1.7
					c-0.11,0.97-0.32,2.19-0.56,3.17c-0.81,3.34-1.03,1.9-1.02-0.17c-0.03,0.11,0.01-1.13-0.01-2.4c-0.02-1.26-0.1-2.54-0.1-2.54
					l-0.03-1.45c-0.02-0.62-0.06-1.23-0.1-1.85C360.37,86.1,360.27,85.09,360.13,84.09z"/>
			</g>
		</g>
	</g>
	<g>
		<g>
			<g>
				<path class="st2" d="M351.03,83.81c-0.05,0-0.06,0-0.12-0.05c-0.4-0.27-0.97-0.96,0.03-1.75c0.02-0.01,0.11-0.07,0.15-0.07
					l3.09,0.06l1.16,0.03l1.72,0.03c0,0,2.83,0.24,4.81,0.56c3.37,0.46,2.02,0.85-0.08,1.03c0.22,0.04-5.02,0.26-5.02,0.26
					l-1.48-0.03l-1.16-0.02L351.03,83.81z"/>
			</g>
		</g>
	</g>
	<g>
		<g>
			<g>
				<path class="st2" d="M363.88,97.23c0.05,0,0.06,0.01,0.12,0.06c0.39,0.3,0.91,1.03-0.14,1.74c-0.02,0.01-0.11,0.06-0.15,0.06
					c-1.02-0.09-2.03-0.17-3.05-0.23l-1.85-0.09l-1.71-0.05c0,0-2.28-0.2-4.8-0.43c-3.38-0.23-2.07-0.72,0.03-1.03
					c-0.11-0.02,1.15-0.16,2.44-0.25c1.29-0.1,2.61-0.15,2.61-0.15l1.5,0.04l1.89,0.09C361.81,97.05,362.85,97.13,363.88,97.23z"/>
			</g>
		</g>
	</g>
</g>
<path class="st0" d="M72.75,4.75c0,0-38.03,1.83-53.79,22.38S2.78,56.42,2.78,56.42s-1.13,5.35-1.27,7.88c-0.14,2.53,0,6.76,0,6.76
	h67.72l1.27-1.27L72.75,4.75z"/>
<g>
	<g>
		<path d="M0.82,62.83c0.72-2.77,1.26-5.62,2.2-8.31C13.19,25.56,33.13,9.69,61.34,4.97c2.95-0.49,5.9-0.99,8.86-1.46
			c3.68-0.58,3.98-0.25,3.8,3.66c-0.93,20.31-1.85,40.62-2.74,60.93c-0.2,4.53-0.16,4.57-4.39,4.49
			c-17.12-0.3-34.25-0.64-51.37-0.93c-4.89-0.08-9.79-0.07-14.68-0.1C0.82,68.64,0.82,65.74,0.82,62.83z M36.81,35.19
			c-1.25-1.05-2.53-2.06-3.75-3.16c-2.27-2.04-4.45-4.2-6.78-6.16c-0.77-0.65-1.89-0.84-2.85-1.24c-0.2,0.41-0.4,0.82-0.6,1.23
			c4.61,3.68,9.22,7.35,13.83,11.03c8.66,7.38,17.32,14.76,26.03,22.19c0.16-0.37,0.28-0.55,0.24-0.59
			c-9.14-12.97-18.3-25.92-27.46-38.88c-0.33-0.46-0.62-1.07-1.06-1.29c-0.64-0.32-1.41-0.34-2.12-0.49
			c0.07,0.74-0.12,1.69,0.25,2.17c1.96,2.59,4.08,5.05,6.08,7.6c0.6,0.77,1.01,1.72,1.51,2.59c-4.38-2.54-5.99-8.22-10.92-9.84
			c2.1,3.1,4.47,5.89,6.9,8.61c2.44,2.73,4.97,5.36,7.41,8.09c2.28,2.55,5.12,4.63,6.49,8C42.92,38.25,36.2,31.13,29.48,24
			c-0.58-0.61-1.06-1.41-1.74-1.78c-0.42-0.22-1.14,0.21-1.73,0.35c0.11,0.48,0.06,1.14,0.34,1.42c0.98,0.99,2.18,1.76,3.12,2.79
			C31.96,29.53,34.37,32.38,36.81,35.19z M7.38,48.06c-1.63,1.54-2.11,2.73,0.67,3.35c4.78,1.06,9.56,2.2,14.31,3.38
			c12.27,3.06,24.53,6.17,36.8,9.2c0.51,0.13,1.16-0.38,2.67-0.92c-6.21-3.03-11.63-5.65-17.02-8.32
			c-10.1-5-20.18-10.04-30.27-15.05c-1.17-0.58-2.18-1.52-3.5,0.18c-2.87,3.68-2.78,4.46,1.55,5.97c8.25,2.88,16.53,5.68,24.78,8.56
			c0.92,0.32,1.76,0.93,2.63,1.4c-0.12,0.29-0.24,0.59-0.37,0.88c-1.4-0.42-2.8-0.85-4.2-1.27c-3.38-1.01-6.76-2.02-10.14-3.03
			c-5.28-1.99-10.54-4.01-15.84-5.93C8.31,46.04,7.27,46.33,7.38,48.06z M39.04,17.1c-0.26-0.07-0.52-0.15-0.79-0.22
			c-0.92-0.26-1.83-0.51-2.75-0.77c0.37,0.87,0.73,1.75,1.12,2.61c0.12,0.26,0.31,0.47,0.48,0.7c7.86,11.12,15.68,22.26,23.59,33.34
			c1.85,2.59,3.95,4.97,5.94,7.45c0.24-0.15,0.47-0.31,0.71-0.46c-0.14-0.62-0.19-1.28-0.43-1.84
			c-4.82-11.03-9.65-22.05-14.53-33.06c-1.56-3.53-3.17-7.05-4.92-10.49c-0.77-1.51-1.69-3.28-4.13-2.59
			c1.51,2.8,2.88,5.33,4.25,7.86c-0.23,0.15-0.46,0.3-0.7,0.44c-1.8-2.47-3.6-4.94-5.39-7.41c-0.23,0.18-0.46,0.36-0.69,0.55
			c5.33,9.07,10.66,18.14,16,27.2c-0.36,0.24-0.71,0.48-1.07,0.72c-3.3-5.36-6.59-10.73-9.89-16.09c-1.98-3.39-3.94-6.8-5.98-10.16
			c-0.23-0.38-0.85-0.5-1.29-0.74c-0.02,0.59-0.1,1.19-0.02,1.77C38.62,16.33,38.88,16.71,39.04,17.1z M31.6,41.28
			c-2.26-1.32-4.48-2.7-6.77-3.93c-2.65-1.42-5.36-2.71-8.07-4c-0.21-0.1-0.62,0.31-1.18,0.6c0.89,0.88,1.62,1.59,2.63,2.58
			c-0.8,0.05-1.18,0.11-1.55,0.08c-0.85-0.06-1.7-0.16-2.55-0.24c0.62,0.73,1.2,1.51,1.88,2.16c0.39,0.37,0.94,0.56,1.44,0.8
			c10.22,5.05,20.44,10.09,30.66,15.14c4.38,2.16,8.77,4.32,13.15,6.48c-0.42-1.37-1.14-2.17-1.95-2.85
			c-7.03-5.94-14.07-11.89-21.13-17.79c-4.6-3.85-9.21-7.68-13.89-11.41c-1.03-0.82-1.98-2.93-3.6-1.07
			C20.53,28,21.81,30,22.73,30.71c3.42,2.62,6.98,5.03,10.46,7.55c0.79,0.58,1.49,1.3,2.23,1.96c-0.19,0.28-0.39,0.57-0.58,0.85
			c-2.63-1.85-5.26-3.73-7.91-5.56c-2.71-1.87-5.24-4.18-8.39-5.07c-0.12,0.26-0.24,0.52-0.37,0.78c4.65,3.14,9.29,6.29,13.94,9.43
			C31.95,40.86,31.78,41.07,31.6,41.28z M56.33,22.12c-0.33,0.15-0.66,0.3-0.99,0.45c-0.37-1.18-0.74-2.36-1.1-3.54
			c-0.8-2.62-1.63-5.23-2.4-7.85c-0.64-2.18-2.12-2.08-3.49-1.22c-0.37,0.23-0.23,1.89,0.07,2.74c0.57,1.62,1.45,3.12,2.16,4.68
			c5.55,12.1,11.1,24.2,16.64,36.3c-0.15-6.14-0.97-12.12-1.81-18.09c-1.17-8.33-2.3-16.66-3.6-24.96c-0.21-1.32-1.6-3.64-1.83-3.56
			c-2.36,0.87-0.93,2.88-0.7,4.35c0.42,2.71,1.27,5.34,1.84,8.03c0.17,0.81,0.15,2.4-0.02,2.44c-2.17,0.47-1.13,1.76-0.86,2.99
			c0.8,3.58,1.49,7.18,2.23,10.77c-0.41,0.11-0.82,0.21-1.23,0.32c-0.34-1.28-0.72-2.56-1.03-3.85C58.6,25.06,57.03,18,55.3,10.98
			c-0.24-0.99-1.23-1.78-1.87-2.66c-0.05,1.04-0.35,2.15-0.11,3.1C54.23,15.02,55.31,18.56,56.33,22.12z M3.22,61.3
			c-0.02,0.36-0.04,0.73-0.06,1.09c8.35,0.68,16.7,1.38,25.05,2.03c8.81,0.69,17.63,1.33,26.45,1.96c0.96,0.07,1.94-0.15,2.9-0.23
			c-0.77-0.61-1.46-1.42-2.32-1.8c-1.37-0.6-2.84-0.99-4.3-1.33c-12.73-2.96-25.47-5.92-38.22-8.82c-2.39-0.54-4.83-0.85-7.25-1.26
			c-0.05,0.29-0.09,0.59-0.14,0.88c5.36,1.31,11.21,1.6,15.95,4.2c4.86,2.67,10.55,0.99,14.89,4.81c-6.48-0.93-12.95-1.87-19.43-2.8
			c-0.03,0.19-0.05,0.39-0.08,0.58c2.35,0.48,4.69,0.95,7.04,1.43c-0.05,0.3-0.1,0.6-0.15,0.9C16.74,63.2,10.07,60.01,3.22,61.3z
			 M28.76,67.27c-0.02,0.34-0.04,0.68-0.06,1.03c-0.78,0-1.55,0.01-2.33,0c-7.19-0.11-14.38-0.27-21.58-0.31
			c-0.79,0-1.58,0.61-2.38,0.93c0.76,0.39,1.52,1.11,2.28,1.11c15.57,0.19,31.15,0.3,46.72,0.42c0.81,0.01,1.65,0.11,2.44-0.04
			c0.45-0.08,0.84-0.57,1.26-0.87c-0.33-0.4-0.59-1.01-1-1.15c-0.75-0.27-1.59-0.32-2.4-0.39c-15.01-1.27-30.02-2.55-45.04-3.73
			c-1.3-0.1-2.66,0.48-3.99,0.74c0.04,0.43,0.08,0.86,0.12,1.3C11.47,66.63,20.11,66.95,28.76,67.27z M64.17,6.5
			c-0.46,0.06-0.91,0.13-1.37,0.19c2.35,16.04,4.7,32.08,7.05,48.12C71.24,38.4,71.8,21.95,72.31,5.5
			c-0.42-0.02-0.84-0.04-1.26-0.06c0,4.51,0,9.03,0,13.54c-0.28,0-0.56,0-0.84-0.01c-0.13-2.51-0.25-5.03-0.37-7.3
			c0,6.43,0,13.08,0,19.72c-0.4,0.04-0.8,0.07-1.21,0.11c-0.38-8.38-0.16-16.83-1.48-25.08c-0.4,0.04-0.79,0.09-1.19,0.13
			c0.38,4.03,0.77,8.06,1.15,12.09c-0.25,0.03-0.51,0.07-0.76,0.1C65.62,14.66,64.9,10.58,64.17,6.5z M57.03,70.59
			c3.96,0,7.43,0.07,10.9-0.07c0.54-0.02,1.42-0.92,1.51-1.52c0.3-1.99,0.44-4.04,0.36-6.06c-0.02-0.51-1.27-1.52-1.62-1.37
			C63.9,63.31,59.69,65.25,57.03,70.59z"/>
		<path d="M32.13,40.66c4.22,2.78,8.45,5.56,12.67,8.34c-0.22,0.39-0.44,0.78-0.66,1.17c-2.08-1.38-4.2-2.71-6.24-4.16
			c-2.14-1.52-4.21-3.15-6.31-4.73C31.78,41.07,31.95,40.86,32.13,40.66z"/>
		<path d="M7.3,47.96c3.28,0.67,6.58,1.27,9.85,2.05c2.75,0.66,5.46,1.54,8.19,2.32c0.44,0.49,0.88,0.99,2.07,2.32
			c-2.33-0.6-3.78-0.93-5.21-1.36c-4.38-1.32-8.77-2.65-13.13-4.05C8.41,49.02,7.88,48.39,7.3,47.96z"/>
		<path d="M27.79,49.89c-5.63-2.51-11.26-5.02-16.89-7.53c0.1-0.27,0.2-0.53,0.29-0.8c5.89,1.81,11.55,4.25,16.94,7.4
			C28.02,49.27,27.91,49.58,27.79,49.89z"/>
	</g>
</g>
</svg>
