<?xml version="1.0" encoding="utf-8"?>
<!-- Generator: Adobe Illustrator 25.2.3, SVG Export Plug-In . SVG Version: 6.00 Build 0)  -->
<svg version="1.1" id="Layer_1" xmlns="http://www.w3.org/2000/svg" xmlns:xlink="http://www.w3.org/1999/xlink" x="0px" y="0px"
	 viewBox="0 0 75 75" style="enable-background:new 0 0 75 75;" xml:space="preserve">
<style type="text/css">
	.st0{fill:#1CFFFF;}
	.st1{fill:#D7D7D7;}
	.st2{fill:none;stroke:#000000;stroke-width:2;stroke-linecap:round;stroke-linejoin:round;stroke-miterlimit:10;}
</style>
<path class="st0" d="M60.63,46.61c-2.97,0.41-10.32,0.14-13.25-0.39c-5.49-0.99-7.05-0.85-12.7-0.44
	c-5.64,0.41-9.55,0.25-15.21,0.44c-0.57,0.02-2.34-0.11-2.65-0.44c-0.23-0.23-1.28-1.2-1.22-1.48c0.81-3.86,2.31-6.71,3.91-10.44
	c0.65-1.51,1.42-2.99,1.83-4.54c0.23-0.91,0.34-1.84,0.5-2.76c0.67-3.88,2.29-7.66,3.91-11.4c0.65-1.51,1.01-3.11,1.7-4.61
	c1.16-2.53,1.75-5.73,4.64-7.45c0.87-0.51,2.73-1.81,3.86-1.79c1.77,0.03,4.62,2.43,4.06,3.5c3.07,3.02,5.27,6.43,7.37,9.84
	c1.88,3.04,3.69,6.1,5.12,9.26c2.92,6.49,4.21,13.42,8.8,19.42c0.5,0.65,1.05,1.33,1.01,2.06C62.27,46.1,61.66,46.48,60.63,46.61z"
	/>
<polygon class="st1" points="33.18,43.85 34.25,74 44.21,74 44.21,43.85 "/>
<g>
	<g>
		<path d="M63.85,45.78c-6.13,0.81-12.26,1.61-18.65,2.45c0,7.59-0.01,15.53,0.01,23.48c0,1.47,0.11,2.95-2.46,2.16
			c0-9.57,0-19.27,0-29.18c-2.25-0.13-4.17-0.28-6.1-0.34c-1.92-0.06-2.08,1.18-2.02,2.74c0.29,7.56,0.51,15.13,0.75,22.69
			c0.02,0.78,0.19,1.65-0.08,2.34c-0.25,0.66-0.97,1.12-1.49,1.67c-0.32-0.6-0.91-1.2-0.92-1.81c-0.11-7.48-0.12-14.97-0.17-22.46
			c0-0.57-0.05-1.15-0.09-1.97c-2.82-0.17-5.52-0.32-8.22-0.5c-2.14-0.14-4.3-0.21-6.41-0.53c-3.63-0.54-3.88-1.06-2.71-4.72
			c1.85-5.76,3.55-11.58,5.6-17.26c2.02-5.63,4.39-11.13,6.62-16.69c0.52-1.3,0.92-2.73,1.75-3.81c3.51-4.58,7.93-4.99,12.14-1.02
			c4.03,3.81,7.22,8.33,9.5,13.39c2.86,6.38,5.48,12.87,8.21,19.31c1.18,2.79,2.38,5.57,3.63,8.33c0.2,0.44,0.72,0.75,1.09,1.12
			C63.85,45.39,63.85,45.58,63.85,45.78z M60.04,44.7c-2.06-5.66-3.77-10.81-5.81-15.82c-1.69-4.14-3.6-8.21-5.72-12.14
			C45.75,11.63,43,6.42,38.1,3c-1.04-0.72-3.48-1.14-4.02-0.54c-2.31,2.56-4.58,5.35-6.07,8.44c-1.64,3.39-2.4,7.21-3.58,10.83
			c-1.49,4.56-3.08,9.08-4.54,13.65c-0.88,2.79-1.58,5.64-2.58,9.24C31.89,41.96,45.97,42.65,60.04,44.7z M24.67,44.84
			c0,0.22,0,0.44-0.01,0.66c2.65,0,5.31,0,7.96,0c-0.02-0.22-0.02-0.44-0.04-0.66C29.96,44.84,27.32,44.84,24.67,44.84z M45.2,44.79
			c0,0.23,0.01,0.45,0.01,0.68c2.31,0,4.61,0,6.91,0c-0.01-0.23-0.02-0.45-0.02-0.68C49.81,44.79,47.51,44.79,45.2,44.79z"/>
		<path class="st2" d="M38.31,2.02c-3.48-1.5-6.08-0.98-7.85,2.4c-2.28,4.36-4.09,8.98-5.92,13.57c-1.51,3.78-2.86,7.65-4.12,11.52
			c-1.1,3.41-2.03,6.88-2.94,10.34c-0.41,1.55-0.6,3.15-0.9,4.73"/>
		<path class="st2" d="M61.5,44.89c-1.18-2.86-2.39-5.7-3.51-8.58c-1.8-4.62-3.27-9.38-5.35-13.86C49.18,15,45.64,7.53,38.9,2.32"/>
		<path class="st2" d="M33.61,44.3c0.2,9.86,0.39,19.71,0.59,29.57"/>
		<path class="st2" d="M43.89,44.59c0,9.46,0,18.92,0,28.39"/>
		<path class="st2" d="M63.56,45.48c-3.32,0.39-6.65,0.93-9.99,1.14c-3.02,0.2-6.07,0.04-9.1,0.04"/>
		<path class="st2" d="M54.16,45.18c-1.76-0.39-3.52-1.09-5.28-1.13c-7.05-0.13-14.09-0.13-21.13,0c-1.77,0.03-3.53,0.73-5.28,1.13"
			/>
		<path class="st2" d="M33.02,46.67c-3.52-0.29-7.05-0.59-10.57-0.89"/>
		<path class="st2" d="M14.23,45.18c2.55,0.1,5.09,0.2,7.64,0.29"/>
	</g>
</g>
</svg>
