<?xml version="1.0" encoding="utf-8"?>
<!-- Generator: Adobe Illustrator 25.2.3, SVG Export Plug-In . SVG Version: 6.00 Build 0)  -->
<svg version="1.1" id="Layer_2_1_" xmlns="http://www.w3.org/2000/svg" xmlns:xlink="http://www.w3.org/1999/xlink" x="0px" y="0px"
	 viewBox="0 0 75 75" style="enable-background:new 0 0 75 75;" xml:space="preserve">
<style type="text/css">
	.st0{fill:#D7D7D7;}
	.st1{fill:#1CFFFF;}
	.st2{fill:none;}
</style>
<rect x="30.47" y="18.27" class="st0" width="13.89" height="55.86"/>
<path class="st1" d="M28.38,29.35c-7.79,0.09-15.58,0.17-23.36,0.26c-0.41,0-0.83,0.01-1.22-0.11c-1.39-0.42-1.9-2.14-1.93-3.59
	c-0.1-4.41,2.09-8.57,4.71-12.12c0.74-1.01,1.53-1.99,2.43-2.86c1.8-1.75,4-3.03,6.24-4.16c6.64-3.33,14.01-5.43,21.43-5.22
	c3.11,0.09,6.19,0.57,9.26,1.11c3.73,0.66,7.49,1.4,10.93,2.99c3.22,1.49,6.06,3.66,8.87,5.82c1.09,0.83,2.18,1.68,3.03,2.75
	c0.83,1.06,1.39,2.3,1.94,3.52c1.09,2.44,2.2,4.9,2.74,7.52c0.26,1.27,0.33,2.76-0.59,3.68c-0.71,0.71-1.8,0.84-2.8,0.91
	c-3.22,0.25-6.46,0.33-9.69,0.24c-3.62-0.09-7.11-0.9-10.73-1.02c-1.3-0.04-2.56-0.25-3.86-0.28c-0.39-0.01-0.83-0.04-1.12-0.3
	c-0.35-0.32-0.36-0.86-0.36-1.34c0.04-2.48-0.14-4.97-0.53-7.42c-0.04-0.28-0.1-0.57-0.26-0.79c-0.15-0.2-0.37-0.33-0.59-0.44
	c-2.58-1.34-5.63-1.3-8.54-1.22c-0.76,0.02-1.54,0.04-2.23,0.36c-1.31,0.61-1.95,2.15-2.06,3.59c-0.11,1.44,0.18,2.89,0.14,4.33
	C30.19,26.99,29.58,28.55,28.38,29.35z"/>
<g id="Layer_1">
	<g>
		<g>
			<path d="M29.69,74.49c0-14.65,0-29.3,0-43.57c-8.55,0-16.64,0.03-24.74-0.01c-4.16-0.02-4.18-0.1-4.12-4.17
				C0.9,21.66,3.32,17.5,6.1,13.52c4.12-5.89,10.17-8.55,16.8-10.8c7.85-2.66,15.72-2.39,23.46-1.02c6.77,1.2,13.61,3.45,18.78,8.37
				c4.67,4.45,8.63,9.56,9.29,16.44c0.23,2.39-0.42,3.88-2.99,3.93c-7.84,0.12-15.7,0.42-23.53,0.14c-2.41-0.09-2.77,0.31-2.75,2.44
				c0.1,12.69,0.1,25.38,0.11,38.07c0,1.14-0.14,2.29-0.21,3.43c-0.3,0-0.61,0-0.91,0.01c-0.08-1.14-0.23-2.28-0.24-3.43
				c-0.07-16.12-0.18-32.25-0.1-48.37c0.02-3.13-0.91-4.3-4.08-3.92c-2.76,0.33-6.57-0.79-8.07,0.65c-1.46,1.41-0.69,5.25-0.7,8.02
				c-0.05,14.46-0.04,28.92-0.05,43.38c0,1.2,0,2.41,0,3.61C30.5,74.48,30.09,74.48,29.69,74.49z M72.99,26.39
				c-0.74-2.6-0.94-4.73-1.91-6.43c-4.8-8.45-12.36-13.34-21.58-15.7c-7.44-1.9-15.11-2.02-22.59-0.7
				c-7.27,1.28-14.26,3.84-18.9,10.2C5.34,17.42,2.22,21,2.75,26.45c1.21-0.85,2.18-1.57,3.17-2.23c2.19-1.46,4.21-3.41,6.62-4.23
				c4.02-1.36,8.26-2.29,12.48-2.86c11.38-1.54,22.65-0.63,33.74,2.31c1.53,0.41,3.06,0.96,4.47,1.68
				C66.28,22.67,69.26,24.36,72.99,26.39z M4.26,27.25c0.17,0.49,0.35,0.98,0.52,1.47c5.98,0,11.96,0.16,17.93-0.04
				c7.23-0.24,7.16-0.37,6.88-7.61c-0.06-1.65-0.58-2.1-2.17-2.07c-4.64,0.09-9.22,0.47-13.39,2.73
				C10.74,23.49,7.52,25.4,4.26,27.25z M71.33,28.41c-7.4-6.22-15.12-8.94-23.69-9.29c-0.81-0.03-2.29,0.75-2.37,1.3
				c-0.27,2.04-0.21,4.15,0.03,6.2c0.07,0.65,1.06,1.7,1.64,1.71C54.77,28.45,62.59,28.41,71.33,28.41z"/>
		</g>
	</g>
</g>
<rect class="st2" width="75" height="75"/>
</svg>
