<?xml version="1.0" encoding="utf-8"?>
<!-- Generator: Adobe Illustrator 25.2.3, SVG Export Plug-In . SVG Version: 6.00 Build 0)  -->
<svg version="1.1" id="Layer_1" xmlns="http://www.w3.org/2000/svg" xmlns:xlink="http://www.w3.org/1999/xlink" x="0px" y="0px"
	 viewBox="0 0 75 75" style="enable-background:new 0 0 75 75;" xml:space="preserve">
<style type="text/css">
	.st0{fill:#D7D7D7;}
	.st1{fill:#CC3363;}
	.st2{fill:#202020;}
</style>
<path class="st0" d="M71.09,61.1c-0.02,2.08-0.06,4.21-0.83,6.14c-0.77,1.93-2.43,3.65-4.49,3.87c-1.15-8.92-0.1-18.03-1.48-26.92
	c-0.52-3.38-1.53-6.93-4.13-9.16c-1.25-1.07-2.78-1.75-4.31-2.32c-8.18-3.04-17.13-3.32-25.84-2.85
	c-8.72,0.47-17.41,1.65-26.14,1.39c0.21-2.48,0.42-5,1.31-7.32s2.56-4.47,4.89-5.35c0.6-0.23,1.24-0.37,1.8-0.68
	c0.75-0.42,1.3-1.11,1.92-1.7c1.92-1.84,4.53-2.74,7.05-3.58c3-1.01,5.99-2.02,8.99-3.03c5.99-2.02,12.01-4.02,18.18-5.4
	c3.06-0.68,6.15-0.22,9.27-0.51c2.87-0.27,6.62-0.8,9.45-0.04c2.43,0.65,1.88,3.4,2.08,5.47c0.32,3.25,0.6,6.5,0.85,9.75
	c0.51,6.62,0.89,13.25,1.13,19.89C71.06,46.19,71.16,53.65,71.09,61.1z"/>
<path class="st1" d="M3,35c0,0,2,4,15,4s25-2,35,3s11.69,9.29,11.69,9.29l-3.6-13.58c0,0-1.35-5.04-8.22-6.38
	s-28.54-1.02-28.54-1.02S7.69,31.49,5.84,32.75C3.99,34.01,3,35,3,35z"/>
<g>
	<g>
		<g>
			<path class="st2" d="M66.67,71.27c0,0.08,0,0.1-0.08,0.2c-0.45,0.67-1.6,1.65-2.91-0.01c-0.02-0.03-0.11-0.18-0.12-0.25
				l0.15-5.17c0.12-3.61,0.17-7.15-0.14-10.67c-0.14-1.76-0.36-3.52-0.63-5.28c-0.28-1.77-0.56-3.52-0.98-5.2
				c-0.41-1.7-0.91-3.38-1.55-4.95c-0.32-0.78-0.68-1.53-1.09-2.2c-0.22-0.35-0.4-0.6-0.67-0.94c-0.28-0.33-0.55-0.67-0.83-0.98
				c-0.56-0.64-1.15-1.22-1.74-1.68c-0.6-0.47-1.18-0.78-1.87-0.96c-0.68-0.2-1.57-0.29-2.52-0.46c-1.03-0.19-1.7-0.34-2.59-0.44
				c-3.49-0.38-7.12-0.54-10.7-0.68c-1.8-0.06-3.6-0.11-5.39-0.13c-1.79-0.01-3.59-0.04-5.27,0.12c-3.6,0.33-7.25,0.57-10.78,0.93
				c-1.76,0.19-3.5,0.46-5.28,0.77L5.9,34.32l-2.42,0.43l-0.61,0.11c-0.05,0-0.11,0.03-0.14,0.01V34.7l0.01-0.34l0.03-1.35
				l0.07-2.35c0.02-0.47,0.05-0.94,0.09-1.41c0.16-1.89,0.48-3.85,1.25-5.74c0.76-1.89,1.97-3.57,3.36-4.97
				c1.4-1.4,2.98-2.55,4.62-3.51c3.28-1.93,6.75-3.24,10.1-4.58c3.38-1.34,6.8-2.64,10.33-3.72c7.06-2.16,14.35-3.32,21.61-4.05
				l2.51-0.24l1.52-0.13c0,0,4.77-0.05,8.11,0.23c5.66,0.32,3.45,1.14,0,1.72c0.18,0.02-1.89,0.29-4,0.58s-4.26,0.59-4.26,0.59
				L56.6,5.56l-0.74,0.07l-3.87,0.4c-7,0.81-13.92,2.09-20.54,4.32c-3.32,1.11-6.61,2.41-9.91,3.72c-3.28,1.31-6.5,2.65-9.25,4.55
				c-1.37,0.94-2.61,2.02-3.6,3.26c-0.97,1.25-1.7,2.64-2.11,4.17C6.16,27.6,6,29.26,5.93,30.99l-0.01,0.16l0.1-0.02l1.19-0.22
				c3.49-0.62,7.05-1.3,10.68-1.62l10.7-0.89c3.69-0.13,7.22,0,10.81,0.12c3.59,0.16,7.12,0.3,10.81,0.77
				c0.44,0.06,1.04,0.18,1.4,0.25c0.4,0.09,0.81,0.15,1.25,0.22c0.85,0.13,1.86,0.27,2.91,0.66c1.05,0.38,1.96,1.02,2.72,1.68
				c0.77,0.66,1.4,1.37,2.02,2.08c0.3,0.38,0.58,0.68,0.9,1.12c0.32,0.42,0.59,0.85,0.83,1.29c0.49,0.86,0.88,1.74,1.22,2.62
				c0.68,1.76,1.19,3.53,1.61,5.32c0.42,1.81,0.71,3.59,0.98,5.37c0.27,1.79,0.49,3.59,0.63,5.41c0.3,3.63,0.25,7.28,0.13,10.84
				L66.67,71.27z"/>
		</g>
	</g>
</g>
</svg>
