<?xml version="1.0" encoding="utf-8"?>
<!-- Generator: Adobe Illustrator 25.2.3, SVG Export Plug-In . SVG Version: 6.00 Build 0)  -->
<svg version="1.1" id="Layer_1" xmlns="http://www.w3.org/2000/svg" xmlns:xlink="http://www.w3.org/1999/xlink" x="0px" y="0px"
	 viewBox="0 0 75 75" style="enable-background:new 0 0 75 75;" xml:space="preserve">
<style type="text/css">
	.st0{fill:#D7D7D7;}
</style>
<path class="st0" d="M72.75,3.49c0,0-36.32,3.8-51.53,22.1S3.77,56.28,3.07,60.08s-0.7,10.14-0.7,10.14l66.31,1.27L72.75,3.49z"/>
<g>
	<g>
		<path d="M69.92,72.54c-23.16-0.56-45.76-1.11-68.9-1.67c0-1.83-0.43-4.46,0.07-6.88c3.14-15.02,9.13-28.64,19.84-39.4
			c8.6-8.63,19.26-14.01,30.48-17.77c6.32-2.12,13.04-3,19.62-4.22c3.02-0.56,3.75,0.3,3.52,3.64c-1.12,16.19-2.31,32.37-3.46,48.56
			C70.68,60.62,70.32,66.45,69.92,72.54z M8.41,46.46c0.82,0.81,0.99,1.09,1.22,1.19c13.73,5.72,27.46,11.43,41.19,17.13
			c1.56,0.65,3.11,1.34,4.72,1.78c0.67,0.18,1.8-0.01,2.15-0.49c0.35-0.48,0.17-1.6-0.11-2.3c-0.37-0.92-1.02-1.74-1.61-2.55
			c-7.08-9.59-14.15-19.19-21.29-28.74c-2.56-3.43-5.3-6.73-8.42-10.67c-3.25,3.4-6.3,6.59-9.43,9.88
			c6.37,6.64,13.55,11.09,19.01,17.47c-0.3,0.37-0.59,0.74-0.89,1.12c-6.33-5.39-12.66-10.78-19.43-16.54
			C12.87,38.46,10.65,42.44,8.41,46.46z M28.76,20.33c0.14,0.93,0.09,1.28,0.24,1.48C39,35.18,49.03,48.52,59.02,61.9
			c1.44,1.93,2.71,1.55,4.21,0.03c-4.03-17.4-8.06-34.8-12.26-52.96c-3.74,1.53-6.88,2.82-10.29,4.21c1.57,3.67,2.87,6.73,4.18,9.78
			c1.32,3.06,2.64,6.11,3.96,9.17c-0.49,0.25-0.97,0.51-1.46,0.76c-3.78-5.47-4.58-12.77-8.82-18.28
			C35.02,16.68,31.8,18.56,28.76,20.33z M52.84,8.17c3.46,14.78,6.72,28.8,10.03,42.81c0.64,2.69,1.35,5.37,2.23,7.98
			c0.26,0.78,1.24,1.83,1.86,1.81c0.64-0.02,1.62-1.09,1.81-1.87c0.45-1.82,0.57-3.74,0.71-5.63c0.54-7.28,1.09-14.56,1.55-21.85
			c0.55-8.85,1.02-17.7,1.55-27.16C70.21,4.67,68.26,5,66.68,5.28c0,3.21-0.01,5.82,0,8.44c0.01,2.48,0.15,4.97,0.05,7.45
			c-0.09,2.42,0.53,5-1.16,7.26c-1.7-7.44,0.03-15.22-2.04-23.04C59.88,6.34,56.69,7.17,52.84,8.17z M54.64,70.11
			c0.1-0.28,0.2-0.56,0.3-0.84C39.6,61.51,24.08,54.24,7.24,49.14c-1.43,4.56-2.7,8.61-4.15,13.22c6.97,0.91,13.27,0.41,19.18,2.28
			c-0.04,0.41-0.09,0.82-0.13,1.24c-6.39-0.51-12.78-1.02-19.12-1.53c-0.58,5.28-0.34,5.57,3.53,5.3c2.09-0.15,4.18-0.42,6.26-0.39
			C26.75,69.5,40.7,69.82,54.64,70.11z M68.2,63.47c-6.12,0.61-8.98,2.73-9.49,7.31c1.54,0,3.05-0.04,4.55,0.01
			c5.33,0.15,5.57-0.1,5.28-5.78C68.51,64.59,68.36,64.17,68.2,63.47z"/>
	</g>
</g>
</svg>
