<?xml version="1.0" encoding="utf-8"?>
<!-- Generator: Adobe Illustrator 25.2.3, SVG Export Plug-In . SVG Version: 6.00 Build 0)  -->
<svg version="1.1" id="Layer_1_xA0_Image_1_" xmlns="http://www.w3.org/2000/svg" xmlns:xlink="http://www.w3.org/1999/xlink"
	 x="0px" y="0px" viewBox="0 0 75 75" style="enable-background:new 0 0 75 75;" xml:space="preserve">
<style type="text/css">
	.st0{fill:#CDDADC;}
	.st1{fill:#DFB487;}
	.st2{fill:#A55809;}
	.st3{fill:#BE946B;}
	.st4{fill:#7D420A;}
	.st5{fill:#C8BB9F;}
	.st6{fill:#82562D;}
	.st7{fill:#877F66;}
	.st8{fill:#AEBFBB;}
	.st9{fill:#D6A371;}
	.st10{fill:#CEA680;}
	.st11{fill:#A79F89;}
	.st12{fill:#CFC6AB;}
	.st13{fill:#97937C;}
	.st14{fill:#A6662F;}
	.st15{fill:#B8AE96;}
	.st16{fill:#D4CDB8;}
	.st17{fill:#A5825E;}
	.st18{fill:#9B5A1D;}
	.st19{fill:#9A7246;}
	.st20{fill:#8F500A;}
	.st21{fill:#7A6F57;}
	.st22{fill:#D9E3E5;}
	.st23{fill:#CA8955;}
	.st24{fill:#D9AE81;}
	.st25{fill:#C07A44;}
	.st26{fill:#E2BB8F;}
	.st27{fill:#B26522;}
	.st28{fill:#BA7236;}
</style>
<path d="M49,70.5c0.9-0.4,1.6-1,2.3-1.6c1.9-1.7,3.9-3.5,4.8-5.9c1.4-3.5,0.3-7.5-0.2-11.2s-0.2-8.2,2.9-10.4
	c1.6-1.1,3.7-1.4,5.5-2.3c2.3-1.3,3.7-3.9,4.6-6.4C71.7,24,69.1,13.8,62.2,8c-1-0.9-2.2-1.6-3.4-2.2c-1.3-0.6-2.6-1-4-1.4
	C44.9,1.7,34.1,0.7,23.9,3c-3.5,0.8-7,2-9.9,4.1c-2.4,1.6-4.3,3.8-6.1,6.1c-2.2,2.9-4.1,6.1-5.6,9.5c-0.4,0.8-0.7,1.7-0.8,2.6
	c-0.1,1.2,0.2,2.4,0.5,3.5c0.6,2.2,1.1,4.3,1.7,6.5c0.2,0.7,0.4,1.4,0.8,2C5.1,38,6,38.5,6.8,38.9c4.8,2.4,9.7,4.5,14.8,6.2
	c0.6,0.2,1.3,0.4,1.7,0.9c0.4,0.4,0.6,1,0.7,1.6c0.6,2.3,1.3,4.6,1.9,6.8c0.2,0.8,0.5,1.8,0.1,2.6c-0.2,0.6-0.7,1-1,1.5
	c-0.6,0.9-0.8,2-1.2,3c-0.6,1.5-1.8,2.6-2.6,3.9s-1.5,3-0.9,4.5c0.2,0.5,5.1,1,5.8,1.1c2,0.3,4,0.6,6.1,0.8c3.5,0.3,7.6,0.6,11-0.4
	C45.2,70.9,47.3,71.2,49,70.5z"/>
<g>
	<g>
		<polygon class="st0" points="54.9,40.5 25.7,42.5 27.2,45.5 27.4,51.1 26.8,53.4 27.5,58.7 24.6,66.4 22.5,68.1 24,69.1 
			32.3,69.7 36.4,69.7 41.5,70.4 49.9,67.9 52.4,65.6 53.3,63.1 54,61 53.8,54.9 52.6,45.5 54.2,42.8 		"/>
		<polyline class="st1" points="57.8,39.4 68,31 67.6,19.2 64.9,15.5 42.9,22 21.7,25 10.6,31.8 11.7,37.2 15,40.6 24.1,43 36,42.5 
			57.8,39.9 		"/>
		<polygon class="st2" points="8.3,30.9 6.3,19.7 14.5,9.6 27.2,4.2 33.4,3.1 51.1,6.5 57.9,9.2 63.9,14.8 65.3,15.9 62.8,18 
			45.2,22.9 16.4,31.2 		"/>
		<path class="st3" d="M37.3,3c0.6,0.2,1.2,0.3,1.8,0.5c-0.8,0.1-1.5,0.2-2.3,0.3c-0.3,0-0.7,0-1,0s-0.7,0-1,0c-0.6,0-1.2,0-1.8,0
			c-0.6,0.1-1.2,0.2-1.8,0.3c-0.8-0.1-1.7-0.2-2.5-0.3c1.2-0.2,2.4-0.3,3.7-0.5c0.5-0.1,0.9-0.2,1.4-0.3C34.9,3,36.1,3,37.3,3z"/>
		<path class="st4" d="M18.1,7.5c0.1,0,0.1-0.1,0.2-0.1c0.2,0,0.4,0,0.5,0c0,0.5,0.1,0.9,0.7,0.8c0.5-0.1,1-0.2,1.3-0.5
			c1-0.7,2-1,3.1-0.6c0,0.2-0.1,0.4-0.1,0.6c0,0.5,0.1,1,0.1,1.5c-0.2,0-0.4,0-0.6,0.1c-0.4,0-0.9,0-0.7,0.7c0.4,0,0.7-0.1,0.8-0.1
			c0.7,1.2-0.4,1.6-0.7,2.1c0.6,0.5,1,0.9,1.5,1.4c0,0.2,0,0.3,0.1,0.5c-1.1-0.1-1,0.6-1,1.1l0,0c-0.1,0-0.2,0-0.2,0
			c-1-0.4-1.4,0.8-2.4,0.7c0.7,0.5,1.2,0.8,1.6,1.1c0.1,0.1,0.2,0.2,0.3,0.3c0.1,0.5,0.1,1.4,0.4,1.5c0.9,0.3,0.9,0.9,0.9,1.6
			c-0.5-0.1-1,0.2-1.4-0.5c-0.2-0.5-0.8-0.4-0.9,0.3c0,0.2,0,0.5,0,0.7c-0.3-0.4-0.7-0.8-1-1.2c-0.2,0.1-0.5,0.1-0.6,0.3
			c-0.5,0.8-1.1,1-1.9,0.5c-0.2-0.1-0.5,0.1-0.8,0.1c-0.5,0.1-0.9,0.2-1.4,0.2c-0.4,0-0.7,0.1-1.1,0.1c-0.3-0.1-0.6-0.3-0.9-0.5
			c-0.1,0.2-0.2,0.5-0.3,0.7l0,0c-0.2-0.1-0.5-0.2-0.7-0.3c-0.3-0.2-0.7-0.4-1-0.6c-0.1,0.1-0.1,0.2-0.2,0.3
			c0.1,0.2,0.2,0.5,0.3,0.8c-0.4,0.1-0.7,0.1-1,0.2c0,0.1,0,0.2-0.1,0.3c1.2,0.3,2.3,0.6,3.6,1c0,0.2,0,0.6,0,1c-0.3,0-0.5,0-0.8,0
			c-0.5,0-1.1,0-1.7,0c-0.3-0.4-0.4-1.1-1.2-0.9c-0.1,0.1-0.1,0.1-0.1,0.1c-0.3,1.8-0.3,1.8-1.6,0.8c0.2-0.7,0.4-1.4,0.3-2.1
			c0-0.2,0.1-0.5,0.2-0.7c0.4-0.7,0.4-1.4-0.3-2c-0.3,0-0.6,0-0.9,0.1c-0.1-0.5-0.2-0.9-0.2-1.3c0,0,0-0.1,0.1-0.1
			c0.2-0.2,0.4-0.4,0.5-0.6C8.9,16.3,9,16.1,9.1,16c0.8,0,0.8-0.7,0.8-1.2c0-0.1,0-0.2,0-0.2l0,0c0.2-0.1,0.4-0.2,0.6-0.3
			c0.1,0,0.1-0.1,0.1-0.1c0.3-0.2,0.5-0.4,0.8-0.6c0.1-0.1,0.2-0.2,0.3-0.2c0.2-0.3,0.3-0.5,0.5-0.8c0.2-0.2,0.4-0.3,0.5-0.5
			c0,0,0.1-0.1,0.1-0.2c0.7-0.5,1.4-1.1,2.1-1.6c0.6,0,1.3-0.2,1.6,0.1c0.3,0.3,0.2,1.1,0.4,1.7c0.8-0.3,1.5-0.6,2.2-0.8
			c0-0.1,0-0.2,0-0.3c-0.5-0.3-1-0.5-1.7-0.9c0.7-0.3,1.1-0.5,1.8-0.8c-0.4-0.5-0.8-0.9-1.2-1.2C18,7.7,18.1,7.6,18.1,7.5z
			 M19.8,12.7c0.3-0.1,0.7-0.3,1-0.4c0-0.1-0.1-0.2-0.1-0.3c-0.3,0.1-0.6,0.2-0.9,0.2c-0.3,0.1-0.6,0.1-0.8,0.2
			c-0.5,0.6-0.9,1.3-1.5,2.1c0.8-0.3,1.4-0.6,2-0.9c0.6-0.1,1.4,0.7,2-0.5c-0.6,0-1.2,0-1.7,0C19.8,13,19.8,12.9,19.8,12.7z
			 M11.7,15.8c-0.9,1-0.6,1.8-0.4,2.8C12.4,17.8,12.4,17.5,11.7,15.8z"/>
		<path class="st5" d="M39.1,70.1c-1.3-0.1-2.5-0.1-3.8-0.2c0.3-0.6,0.5-1.3,0.8-2.1c0.4,0.1,1,0.2,1.5,0.4c0.9,0.4,1.9,0.1,2.4-0.8
			c0.5-0.8,0.5-2.1-0.2-2.6c-0.1-1-0.2-2-0.3-3c0.7-0.2,1.4-0.4,2.1-0.6c0.1,0,0.2-0.4,0.1-0.5c0-0.1-0.3-0.3-0.4-0.3
			c-1.2-0.4-2.4-0.9-3.6-1.3c0,0.1-0.1,0.3-0.2,0.5c-0.1,0.1-0.2,0.2-0.3,0.3c-0.5-0.3-0.9-0.5-1.4-0.8c0-0.1,0.1-0.2,0.1-0.4
			c0.4-0.1,0.8-0.3,1.3-0.4c0.8,0.3,1.5,0.5,2.3,0.8c0.3,0.1,0.7,0.2,1,0.3c0.6-0.1,1.3-0.2,1.9-0.3c0,0.5,0,0.9,0.1,1.2
			c0.2,0.3,0.5,0.8,0.7,0.8c0.3,0,0.7-0.4,0.8-0.7c0.1-0.4,0-0.9-0.1-1.3c-0.1-0.8,0-1.4,1-1.2c0.1,0.9,0.8,1.1,1.5,1.3
			c1.4,1.2,3.1,1.3,4.8,1.3c0.3,0.3,0.5,0.7,0.8,1c0.1,0.3,0.1,0.7,0.2,1c-0.7,0-1,0.2-0.9,1.1c0.1,0.6-0.2,1.3-0.4,2
			c-0.2-0.3-0.3-0.6-0.5-1.1c-1.2,0.5-1.8,1.5-2.3,2.6c-0.6-0.2-1.2-0.3-1.6-0.4c-0.4,0.6-0.8,1.1-1.2,1.8c-0.7-1.3-1.7-1-2.6-1.1
			c-0.7,0-2.1,0.4-2.4,1C40.2,68.8,39.1,69.1,39.1,70.1z"/>
		<path class="st6" d="M8.2,17.1c0.1,0.4,0.1,0.8,0.2,1.3c0.3,0,0.6,0,0.9-0.1c0.6,0.6,0.7,1.2,0.3,2c-0.1,0.2-0.3,0.5-0.2,0.7
			c0.2,0.7,0,1.4-0.3,2.1c0,0.5,0,0.9,0,1.3c0.8,0.3,1.5,0.6,2.3,1c0,0.4,0,0.7,0,1s0,0.5,0,0.8c0,0.6,0,1.2,0,1.9
			c0.5,0.1,0.9,0.1,1.3,0.2c1.6,1.1,0.5,3.1,1.3,4.4c-0.9,0.5-0.8,1.4-0.6,2.1c0.2,0.9,0.6,1.9,0.9,2.8c-0.1,0.7-0.6,0.4-1,0.5
			c-0.5-0.2-1-0.3-1.5-0.5l0,0c-0.2-0.2-0.4-0.3-0.6-0.5c-0.1,0-0.1,0-0.2-0.1c-0.7-0.7-1.2-1.6-2.3-1.7l0,0
			c-0.2-0.2-0.4-0.3-0.5-0.5c-0.2-0.4-0.8-0.9-0.7-1.3c0.2-0.8-0.1-1.3-0.3-2c0-0.5-0.2-1.1-0.4-1.8c0-0.3,0-0.7,0-1
			c-0.2-1-0.4-1.9-0.6-2.9c-0.1-0.3-0.1-0.6-0.1-0.8c0.1-0.6,0.3-1.1,0.4-1.6c0.1-1.1-0.2-2.3,0-3.5c0.2-0.7,0-1.5,0.8-1.9
			c0.5,0.6,0.5,0.6,0.8-0.2c-0.3,0-0.5,0-0.7,0c0-0.1-0.1-0.2-0.1-0.3c0.1-0.4,0.2-0.9,0.2-1.3l0,0C7.8,17.2,8,17.2,8.2,17.1z"/>
		<path class="st7" d="M28.4,69.7c-2-0.1-4,0-5.8-1c0-0.2,0-0.4,0-0.6l0,0c0.5-0.3,1-0.6,1.4-1c0.5-0.5,0.9-1,1.4-1.5
			c0.3,0,0.6,0,0.9,0c1.6-0.1,2.4-1.1,2.3-2.7c-0.1-1.8,0-2,1.9-2.1c0.2,0,0.3-0.1,0.4-0.1c0-1,0-1.9,0-2.8
			c-0.6-0.1-1.1-0.1-1.5-0.2c-0.2-1-0.4-1.9-1.6-1.9c-0.2-0.6-0.4-1.2-0.5-1.9c-0.1-0.6-0.4-1.3-0.1-1.7c0.9-1.1,0.5-2.2,0.6-3.4
			c0.6-0.1,0.8,0.3,0.9,0.8c0.5,1.5,1.8,2.1,2.9,3l0,0c-0.2,0.4-0.4,0.8-0.5,1.2c-0.1,0.5-0.3,1.4-0.1,1.5c1.1,0.7,0.8,1.6,0.8,2.6
			c0,0.6,0.1,0.9,0.8,0.8l0,0c0.3,0.2,0.5,0.3,0.8,0.5c0,0.2,0,0.3,0,0.5c-0.2,0-0.4,0-0.7,0.1c0.2,0.4,0.3,0.7,0.4,1
			c-0.4,0.2-0.8,0.4-1.2,0.7c1.5,1.6,1.5,3.4,1.2,5.1c-0.7,0.4-1.5,0.5-1.8,1C30.4,68.6,29.7,69.4,28.4,69.7z"/>
		<path class="st8" d="M55.3,42.2c-0.1,0.2-0.2,0.5-0.4,0.7c-1.4,1.4-2,3-1.8,4.9c0.1,0.4,0,0.8,0,1.3c-0.2,0.2-0.4,0.3-0.5,0.5
			c-0.1,0-0.2,0-0.2,0c-0.1-0.1-0.2-0.2-0.3-0.3c0-0.3,0.1-0.5,0.1-0.8c0-0.4,0.1-1.1-0.1-1.2c-0.4-0.2-1-0.1-1.5-0.1
			c-0.6,0.1-1.3,0-1.5,0.8c-0.1,0-0.2,0-0.3,0c-0.2,0-0.3,0-0.5,0s-0.3,0-0.5,0c-0.3,0.2-0.5,0.3-0.8,0.5c-0.7,0-1.3,0-2,0
			c-0.4,0.1-1.1-0.3-1.3,0.5c-0.3,0-0.7,0-1,0c-0.8,0-1.5,0-2.3,0c-0.3,0-0.7,0-1,0c-0.2-0.1-0.5-0.2-0.6-0.1
			c-1,0.4-2.1,0.9-3.1,1.4c-0.3,0.2-0.6,0.5-0.9,0.8c-0.2,0-0.5,0-0.7,0c-0.8-1.6,0.9-2,1.6-3.1c-0.7-0.1-1.2-0.1-1.6-0.2
			c-0.3,0-0.6,0-0.9,0c-0.9-0.1-1.6-0.7-1.7-1.5c0.1-0.6,0.1-1.2,0.2-1.7c0.2-0.8-0.1-1.2-1-1c-0.4,0-0.8,0-1.3,0
			c-0.3-0.1-0.5-0.2-0.8-0.3c0-0.2,0-0.5,0-0.7c0.2,0,0.5,0,0.7,0c1.2,0.5,2.4,0.2,3.5-0.3c0.2,0.2,0.5,0.7,0.7,0.7
			c1,0,1,0.7,1.1,1.3s0,1.1-0.1,1.6c0.8,0.3,1.5,0.7,2.2,1c2.1,0.6,4.2,0.6,6.3,0.2c2.8-0.6,5.7-1.4,8.4-2c0.5-1.5,0.9-2.9,1.4-4.5
			c0.1,0,0.5,0,0.8,0C54.1,41.2,54.3,42,55.3,42.2z"/>
		<path class="st9" d="M68,22.4c0,1.2,0.1,2.4,0.1,3.5c-0.2,0.2-0.4,0.4-0.6,0.5c0,0.1,0,0.2,0,0.2c-0.9-0.1-0.7,0.5-0.8,1.1
			c-0.1,0.5-0.2,1.3-0.4,1.3c-1.1,0.2-0.9,1.1-1.1,1.8c-0.1,0.3-0.1,0.7-0.1,1.1c-0.5-0.2-0.9-0.4-1.3-0.6c-0.1,0.7-0.2,1.2-0.3,1.9
			c-0.9-0.4-0.5-1.1-0.6-1.6c0-0.2,0-0.3,0-0.5c0.5,0,0.9-0.1,0.7-0.7c-0.2-0.9-0.5-1.8-1.2-2.4c0.2-0.3,0.3-0.7,0.5-1
			c0.2-0.2,0.5-0.3,0.7-0.4c-0.2-0.4-0.3-0.6-0.4-1c0.6-0.1,1-0.2,1.4-0.3c0.1-1.3-0.5-1.5-2.1-0.9c-0.1,0.4,0.5,1.2-0.7,1.2
			c-0.1-1-0.7-1.3-1.5-0.5c-0.4-0.3-0.6-0.5-0.9-0.7c-0.1-0.5-0.1-1-0.2-1.6c0-0.1-0.4-0.2-0.6-0.2l0,0c0.3-0.6,0.7-1.2,1-1.7
			c0.1,0,0.2,0,0.3,0.1c0,0.7-0.3,1.6,0.1,2.2c0.4,0.6,1.2,0.9,2,1.4c0.3-1,0.3-1.6-0.6-1.9c-0.6-0.2-0.7-0.7,0-1
			c1-0.4,1.2-1.1,0.9-2.1c-0.1-0.3,0.1-0.6,0.1-1c0.4-1,0.9-0.3,1.3,0c-0.1,0.4-0.1,0.8-0.2,1.5c0.5,0.5,0.3,2,2,2
			c-0.2-0.5-0.3-0.9-0.5-1.4c0.3,0,0.7-0.1,0.8,0c0.5,0.6,0.9,1.2,1.4,1.8C67.4,22.6,67.7,22.5,68,22.4z M64.9,26.6
			c-0.3,0.5-0.8,1-0.9,1.5c0,0.2,0.7,0.6,1.2,0.9C66.1,27.5,66.1,27.5,64.9,26.6z"/>
		<path class="st0" d="M53.8,40.4c-0.4,0-0.7,0-0.8,0c-0.5,1.6-0.9,3-1.4,4.5c-2.8,0.7-5.6,1.4-8.4,2c-2.1,0.4-4.2,0.4-6.3-0.2
			c-0.7-0.2-1.4-0.6-2.2-1c0-0.5,0.1-1,0.1-1.6c-0.1-0.6-0.1-1.3-1.1-1.3c-0.2,0-0.5-0.5-0.7-0.7c0.5,0,1,0,1.5,0
			c0.6,1.4,1.1,1.5,2.3,0.5c0.1-0.1,0.2-0.2,0.3-0.3c0.7-0.2,1.4-0.4,2.2-0.5c0.6-0.1,1.3,0,1.9,0c-0.6,0.4-1.2,0.9-1.9,1.4
			c0.4,2.4,0.4,2.4,1.5,2.8c0.3-0.5,0.7-0.9,1.4-0.5c0.2,0.1,0.5,0.1,0.7,0c1.7-0.2,3.5-0.2,5.2-0.6c0.9-0.2,1.7-0.8,2.4-1.5
			c0.3-0.3,0.1-1.1,0-1.6c-0.1-0.4-0.4-0.7-0.5-0.9c0.6-0.3,1.1-0.5,1.6-0.7c1.5-0.4,3.1-0.9,4.6-1.3c0.1,0,0.2,0,0.3,0
			c0,0.3,0,0.6,0,1c-0.3,0-0.7,0-1,0.1C54.8,40.3,54.3,40.3,53.8,40.4z"/>
		<path class="st10" d="M62.9,31.8c0.1,0.5-0.3,1.2,0.6,1.6c0.1-0.7,0.2-1.2,0.3-1.9c0.4,0.2,0.8,0.3,1.3,0.6
			c0.1-0.5,0.1-0.8,0.1-1.1c0.2-0.7,0-1.6,1.1-1.8c0.2,0,0.3-0.8,0.4-1.3s-0.1-1.2,0.8-1.1c0,1.7,0,3.4,0,5.1
			c-0.2,0.3-0.5,0.5-0.7,0.8c-1.2,0-1.7,0.9-2.3,1.6c-0.4,0.5-0.7,1.3-1.6,1c-0.1,0-0.4,0-0.5,0.1c-1,0.9-2.1,1.5-3.4,1.6
			c-0.2,0-0.4,0.5-0.6,0.7l0,0c-1.6-0.6-2.9,0-4.3,0.7c-0.7,0.4-1.5,0.6-2.3,0.3c0-0.4,0-0.7,0-1.1c0-0.9,0.4-1.4,1.3-1.4
			c0.3,0,0.5,0,0.8,0c0.8-0.1,1.7-0.2,2.5-0.3c0.1,0.1,0.2,0.3,0.4,0.7c0.1-0.6,0.2-0.9,0.3-1.3c0.6,0.1,1,0.2,1.6,0.4
			c0.1-0.7,0.1-1.3,0.2-2.2c1.3,0.9,1-1,2-0.8c0.1,0.3,0.3,0.6,0.4,0.9c0.1,0,0.2,0,0.3,0c0.1-0.3,0.2-0.6,0.3-1
			c0.3-0.3,0.5-0.5,0.8-0.8C62.6,31.8,62.8,31.8,62.9,31.8z"/>
		<path class="st11" d="M33.2,59.8c0-0.2,0-0.3,0-0.5c0-0.1,0-0.2,0-0.3c1.1,0.4,2.2,0.8,3.4,1.2c0.2,0.1,0.4-0.2,0.7-0.4
			c0.1-0.1,0.2-0.2,0.3-0.3c0.9,0,1.2,0.6,1.5,1.3c0.2,0.4,0.4,0.7,0.5,1c0.1,1,0.2,2,0.3,3c0.2,1.2-0.8,1.9-0.9,3
			c-0.2,0-0.5,0.1-0.6,0c-0.8-0.8-1.9-0.7-2.9-0.9c-0.3,0-0.8,0.1-0.8,0.3c-0.3,0.8-0.4,1.7-0.6,2.6c-1,0-2,0-3,0.1
			c0.1-0.5,1-0.7,0.7-1.5c0-0.1,0.5-0.3,0.7-0.5c0.8-0.6,1.7-1.2,2.3-2c0.3-0.4-0.2-1.3-0.3-2c1.9-1,1.9-1,1.6-2.9
			C35,60.6,34.1,60.2,33.2,59.8z"/>
		<path class="st12" d="M39.1,70.1c0-1.1,1.1-1.3,1.5-2c0.4-0.6,1.7-1,2.4-1c0.9,0,1.9-0.3,2.6,1.1c0.5-0.7,0.8-1.1,1.2-1.8
			c0.4,0.1,1,0.3,1.6,0.4c0.5-1.1,1.1-2.1,2.3-2.6c0.2,0.5,0.4,0.8,0.5,1.1c-0.1,0.6-0.2,1.2-0.3,1.8c-0.4,0.3-0.8,0.5-1.3,0.8
			c-1-0.1-2.1-0.6-2.8,0.8c-0.1,0.1-0.4,0.2-0.6,0.2c-1.4,0-2.8,0-4.2-0.1c-0.9-0.1-1.6,0.4-1.9,1.4C39.9,70.2,39.5,70.1,39.1,70.1z
			"/>
		<path class="st13" d="M33.2,59.8c0.9,0.4,1.7,0.8,2.7,1.3c0.3,1.8,0.3,1.8-1.6,2.9c0.1,0.7,0.6,1.6,0.3,2c-0.5,0.8-1.5,1.3-2.3,2
			c-0.2,0.2-0.7,0.4-0.7,0.5c0.3,0.8-0.5,1-0.7,1.5c-0.9-0.1-1.7-0.1-2.6-0.2c1.3-0.3,2-1.1,2.7-2.2c0.3-0.4,1-0.6,1.8-1
			c0.3-1.7,0.3-3.5-1.2-5.1c0.5-0.2,0.8-0.4,1.2-0.7c-0.1-0.3-0.2-0.6-0.4-1C32.8,59.8,33,59.8,33.2,59.8z"/>
		<path class="st13" d="M52.5,49.6c0.2-0.2,0.4-0.3,0.5-0.5c0.8,1.9,0.9,3.8,0.7,5.9c-0.3,0.4-0.4,0.8,0.1,1.1
			c0,0.7-0.1,1.5-0.1,2.2c-0.1,0.1-0.3,0.1-0.4,0.2c0.1,0.1,0.3,0.2,0.4,0.3c0,1,0.1,2,0.1,3c-0.9,0.1-0.6,0.8-0.6,1.3
			c-0.1,0.8-0.1,1.6-0.2,2.3c0,0.6-0.2,0.9-0.8,1c-0.5-0.3-0.6-0.6-0.4-1.1c0.3-1,0.4-2,0.6-2.9c-0.1-0.3-0.1-0.7-0.2-1
			c0.1-0.4,0.2-0.8,0.2-1.2c0.1-0.9-0.2-1.8,0.4-2.8c0.2-0.4,0.6-1.3-0.4-1.7l0,0c0-0.3,0-0.7,0-1c0.7-0.1,0.5-0.6,0.5-1
			C52.9,52.3,52.7,51,52.5,49.6z"/>
		<path class="st11" d="M27.7,48.8c-0.1,1.1,0.3,2.3-0.6,3.4c-0.3,0.3,0,1.1,0.1,1.7c0.1,0.6,0.3,1.2,0.5,1.9
			c-0.1,0.5-0.3,1.1-0.3,1.6c0.3,1.8-0.3,3.4-0.9,5c-0.4,1.1-0.8,2.2-1.2,3.3c-0.4,0.5-0.9,1-1.4,1.5c-0.4,0.4-0.9,0.7-1.4,1
			c0.6-0.9,1.1-1.7,1.7-2.6c1-1.5,1.8-3,2.1-4.8c0.1-0.6,0.7-1.4,0.5-1.9c-0.5-1.3,0.3-2.5,0.1-3.7c-0.1-0.5-0.4-0.9-0.4-1.4
			c-0.1-0.6-0.3-1.4,0-1.8c0.5-0.7,0.5-1.3,0.5-2c0-1.1,0-2.3,0-3.4c0.1-0.1,0.2-0.2,0.2-0.3c0.2,0.2,0.4,0.4,0.5,0.6
			c0.1,0.3,0.2,0.6,0.3,0.9C27.8,48.1,27.7,48.5,27.7,48.8z"/>
		<path class="st14" d="M36.8,3.8c0.8-0.1,1.5-0.2,2.3-0.3c0.8,0.1,1.5,0.1,2.3,0.2c0.1,1.2,0.6,1.5,2,1.5c0.3,0.3,0.7,0.5,1,0.8
			c-0.1,0.2-0.2,0.3-0.3,0.5c-0.4,0.1-0.8,0.2-1.3,0.3c-0.2-0.3-0.3-0.7-0.5-1C42.2,6,42,6.1,42,6.2c-0.7,1.1-1.4,1.2-2.5,0.4
			c-0.6-0.5-1.3-0.8-2-1.2c0.1-0.2,0.2-0.5,0.2-0.6C37.4,4.4,37.1,4.1,36.8,3.8z"/>
		<path class="st15" d="M28.7,42.5c0,0.2,0,0.5,0,0.7v0.1c-0.8-0.1-1.7-0.2-2.5-0.3c-0.5,0-0.9-0.1-1.4-0.1c-0.2,0-0.4,0.1-0.6,0.1
			c-2.5-0.5-5.2-0.6-7.5-1.8c-0.3-0.2-0.7-0.3-1.1-0.3c-1.1-0.1-2-0.4-2.9-1.1c-1-0.8-2.1-1.4-3.2-2.2c-0.2-0.1-0.3-0.3-0.4-0.5
			c0.7,0.3,1.4,0.6,2.1,0.9c0.1,0,0.1,0,0.2,0.1c0.2,0.2,0.4,0.3,0.6,0.5l0,0c0.5,0.3,1,0.6,1.5,0.8c0.3,0.1,0.5,0.2,0.8,0.3
			c0.6,0.9,1.3,0.4,2.1,0.3c0.2,0.1,0.3,0.2,0.5,0.2c0,0.7,0.5,0.9,1,1c1,0.1,2,0.2,3.1,0.3c0.3,0.1,0.7,0.2,1,0.2
			c0.9,0.2,1.9,0.3,2.8,0.5c0.4,0.1,0.7,0.2,1.1,0.2C26.7,42.5,27.7,42.5,28.7,42.5z"/>
		<path class="st6" d="M23.9,7.6C23.9,7.4,24,7.2,24,7c-1.2-0.4-2.2-0.1-3.1,0.6C20.5,7.9,20,8,19.6,8.1c-0.6,0.1-0.7-0.3-0.7-0.8
			c0-0.1,0-0.2,0.1-0.4c0-0.1,0.1-0.1,0.2-0.2c0.3-0.1,0.5-0.2,0.8-0.2c0.2,0,0.3,0,0.5,0c0.9,0.4,1,0.3,1.2-0.6
			c0.1-0.1,0.1-0.1,0.2-0.2c0.2,0,0.4,0,0.6,0c0.6,0.1,1.1,0.2,1.8,0.3c0-0.4,0-0.7,0-1c0.7-0.1,1.3-0.1,1.9-0.3
			c0.6-0.2,1.1-0.5,1.6-0.7c0.3-0.1,0.7-0.2,1-0.2c0.8,0.1,1.7,0.2,2.5,0.3c-0.3,0.2-0.6,0.6-1,0.6C28.9,5,27.4,5.2,26,5.5
			c-0.4,0.1-0.8,0.5-1,0.8c-0.1,0.2,0,0.5,0,0.7c0.5,0.4,1.2-0.6,1.4,0.4C25.5,7.4,24.7,7.5,23.9,7.6z"/>
		<path class="st16" d="M40.4,70.2c0.3-1,1.1-1.4,1.9-1.4c1.4,0.1,2.8,0.1,4.2,0.1c0.2,0,0.5-0.1,0.6-0.2c0.6-1.4,1.7-0.9,2.8-0.8
			c-0.6,0.7-1.1,1.4-1.7,2c-0.2,0.2-0.5,0.3-0.8,0.3c-2,0.1-4,0.2-5.9,0.2C41,70.4,40.7,70.3,40.4,70.2z"/>
		<path class="st16" d="M56.4,40.1c0-0.3,0-0.6,0-1c0.8-0.3,1.9-0.3,2-1.5l0,0c1.3-0.2,2.6-0.3,3.8-1.1c0.4-0.3,1-0.2,1.5-0.3
			c0.5-0.5,1-0.9,1.6-1.4c0.1,1.2-0.9,1.9-1.6,2.7c-1,1.1-2.5,1.1-3.7,1.5c-0.8,0.2-1.6,0.3-2.2,0.9C57.4,40.2,56.8,40.1,56.4,40.1z
			"/>
		<path class="st17" d="M7.3,18.5c0,0.1,0.1,0.2,0.1,0.3c0,0.1-0.1,0.2-0.1,0.2c-0.8,0.4-0.6,1.2-0.8,1.9c-0.3,1.2,0.1,2.3,0,3.5
			c0,0.6-0.3,1.1-0.4,1.6c0,0.3,0,0.6,0.1,0.8c0.2,1,0.4,1.9,0.6,2.9c-0.2-0.2-0.4-0.3-0.5-0.5c-0.1-0.3,0-0.7-0.2-0.9
			c-1.6-2-0.5-4.3-0.6-6.4c0-1.2,0.8-2.4,1.3-3.5C7,18.5,7.2,18.5,7.3,18.5z"/>
		<path class="st3" d="M68,22.4c-0.3,0.1-0.6,0.3-0.8,0.4c-0.5-0.6-0.9-1.3-1.4-1.8c-0.1-0.1-0.5,0-0.8,0c0.2,0.5,0.3,0.9,0.5,1.4
			c-1.7,0-1.5-1.5-2-2c0.1-0.6,0.2-1.1,0.2-1.5c1.3-0.5,1.8,0.9,2.9,1.3c0-0.4,0.1-0.8,0.1-1.1c0.7,0.1,0.7,0.6,0.8,1.1
			c0.1,0.2,0.3,0.4,0.5,0.6c0,0.1,0,0.2,0,0.3c-0.1,0-0.2,0.1-0.3,0.1c0.1,0,0.2,0,0.3,0.1C68,21.7,68,22,68,22.4z"/>
		<path class="st15" d="M34,69.8c0.2-0.9,0.4-1.7,0.6-2.6c0.1-0.2,0.6-0.3,0.8-0.3c1,0.2,2.1,0,2.9,0.9c0.1,0.1,0.3,0,0.6,0
			c0-1.1,1.1-1.8,0.9-3c0.6,0.6,0.7,1.8,0.2,2.6c-0.6,0.9-1.5,1.2-2.4,0.8c-0.5-0.2-1-0.3-1.5-0.4c-0.3,0.8-0.6,1.5-0.8,2.1
			C34.9,69.9,34.4,69.9,34,69.8z"/>
		<path class="st16" d="M68.1,20.8c-0.2-0.2-0.5-0.4-0.5-0.6c-0.1-0.5-0.1-1-0.8-1.1l0,0c-0.2-0.3-0.5-0.5-0.7-0.8l0,0
			c-0.1-1.3-0.4-1.7-1.5-2.1l0,0c-0.2-0.1-0.4-0.3-0.6-0.4l0,0c-0.2-0.3-0.5-0.5-0.7-0.8l0,0c-0.3-0.2-0.5-0.5-0.8-0.7l0,0
			c-0.2-0.3-0.5-0.5-0.7-0.8c-0.1-0.1-0.2-0.2-0.2-0.3c-0.2-0.1-0.4-0.3-0.6-0.4c-0.1,0-0.1-0.1-0.2-0.1c-0.2-0.1-0.4-0.3-0.6-0.4
			c-0.1-0.3-0.2-0.5-0.3-0.8l0.1-0.1c0.8,0.6,1.7,1,2.4,1.7c1.2,1,2.4,2.1,3.5,3.1c0.2,0.1,0.4,0.3,0.4,0.4c-0.2,1.2,1,1.7,1.3,2.6
			C68,19.6,68,20.2,68.1,20.8z"/>
		<path class="st6" d="M18,7.9c0.4,0.4,0.8,0.8,1.2,1.2c-0.7,0.3-1.2,0.5-1.8,0.8c0.7,0.4,1.2,0.7,1.7,0.9c0,0.1,0,0.2,0,0.3
			c-0.7,0.3-1.4,0.5-2.2,0.8c-0.1-0.7,0-1.4-0.4-1.7c-0.3-0.3-1-0.1-1.6-0.1c0.3-0.4,0.6-0.8,0.8-1.2c0,0,0.1-0.1,0.2-0.1
			c0.2-0.1,0.4-0.2,0.6-0.3c0-0.1,0.1-0.1,0.2-0.1c0.2-0.1,0.4-0.2,0.6-0.4c0-0.1,0.1-0.1,0.2-0.1C17.6,7.8,17.8,7.8,18,7.9z"/>
		<path class="st5" d="M65.2,34.8c-0.5,0.4-1,0.9-1.6,1.4c-0.4,0.1-1.1,0-1.5,0.3c-1.1,0.9-2.5,1-3.8,1.1c0.2-0.2,0.4-0.7,0.6-0.7
			c1.4-0.1,2.4-0.7,3.4-1.6c0.1-0.1,0.3-0.1,0.5-0.1c0.9,0.3,1.2-0.5,1.6-1c0.6-0.8,1.2-1.7,2.3-1.6c-0.4,0.5-0.8,1-1.1,1.4
			C65.5,34.3,65.4,34.6,65.2,34.8z"/>
		<path class="st18" d="M44.4,6.1c-0.3-0.3-0.7-0.5-1-0.8C43.7,5,44,4.7,44.2,4.4c0.2,0,0.3,0.1,0.5,0.1c0.3,0.3,0.5,1,0.8,1
			c1.1,0.2,2.2,0.2,3.3,0.2l0,0c0.1,0.4,0.1,0.7,0.2,1.1c-0.8,0.4-1.5,0.4-2.3,0c-0.2-0.1-0.6,0-1,0c-0.1,0-0.2,0-0.3,0
			C45.2,6.4,45,6,44.4,6.1z"/>
		<path class="st19" d="M49,6.9c-0.1-0.4-0.1-0.7-0.2-1.1c1.4,0.5,2.8,0.9,4.2,1.5c1,0.4,2,0.9,3,1.4c0,0.1,0,0.2,0,0.2
			c-1-0.4-2-0.8-3-1.1c-0.3-0.1-0.8-0.4-1-0.3c-0.6,0.2-1,0-1.5-0.4C50.3,6.9,50,7,49.7,6.9C49.5,6.9,49.2,6.9,49,6.9z"/>
		<path class="st15" d="M6.8,30.7C7,31.4,7.2,32,7.4,32.6c0.2,0.6,0.6,1.2,0.3,2c-0.1,0.3,0.4,0.8,0.7,1.3c0.2,0.2,0.4,0.3,0.5,0.5
			l0,0c0,0.2,0,0.5,0,0.7c-1.2-0.5-1.8-1.4-2-2.7c-0.2-1.1-0.3-2.2-0.5-3.5C6.4,30.9,6.6,30.8,6.8,30.7z"/>
		<path class="st16" d="M56.1,8.9c0-0.1,0-0.2,0-0.2c0.8-0.1,0.6,0.7,1.5,0.5c0,0.5,0.9-0.1,0.9,0.4c0.5,0.6,1.6,0.7,1.5,1.8
			l-0.1,0.1c-0.9-0.6-2.1-0.8-2.4-2.1c0-0.1-0.3-0.1-0.4-0.1C56.8,9.1,56.4,9,56.1,8.9z"/>
		<path class="st8" d="M24.1,43c0.2,0,0.4-0.1,0.6-0.1c0.5,0,0.9,0,1.4,0.1c0.5,0.8,1.1,1.5,1.1,2.5c0,0.3,0,0.5,0,0.8
			c-0.1,0.1-0.2,0.2-0.2,0.3c-0.3-0.4-0.7-0.8-0.7-1.1c0.1-1.4-0.6-2-1.8-2.2C24.3,43.2,24.2,43.1,24.1,43z"/>
		<path class="st15" d="M52.5,62.3c-0.2,1-0.4,2-0.6,2.9c-0.1,0.5-0.1,0.9,0.4,1.1c-0.4,0.2-0.9,0.5-1.3,0.7
			c0.1-0.6,0.2-1.2,0.3-1.8c0.1-0.7,0.5-1.4,0.4-2C51.5,62.5,51.8,62.3,52.5,62.3z"/>
		<path class="st17" d="M48.8,5.7c-1.1-0.1-2.2-0.1-3.3-0.2c-0.3-0.1-0.5-0.7-0.8-1C46.1,4.9,47.4,5.3,48.8,5.7z"/>
		<path class="st17" d="M44.2,4.4c-0.3,0.3-0.6,0.6-0.8,0.9c-1.4,0-1.9-0.4-2-1.5c0.5,0.1,1,0.2,1.5,0.2c0.1,0,0.3,0,0.5,0.1
			C43.7,4.2,43.9,4.3,44.2,4.4z"/>
		<path class="st16" d="M67.5,31.8c0-1.7,0-3.4,0-5.1c0-0.1,0-0.2,0-0.2c0.2,0,0.4,0,0.7-0.1c-0.1,1.5-0.1,3.1-0.2,4.6
			C68,31.3,67.7,31.5,67.5,31.8z"/>
		<path class="st11" d="M15.7,8.9c-0.3,0.4-0.6,0.8-0.8,1.2c-0.7,0.5-1.4,1.1-2.1,1.6c0-0.1,0-0.2-0.1-0.3
			C13.5,10.4,14.4,9.4,15.7,8.9z"/>
		<path class="st15" d="M53.8,40.4c0.5-0.1,1-0.2,1.5-0.3c0,0.7,0,1.3,0,2C54.3,42,54.1,41.2,53.8,40.4z"/>
		<path class="st12" d="M8.2,17.1c-0.2,0-0.4,0.1-0.6,0.1c0.5-0.9,1-1.7,1.6-2.6c0.1-0.1,0.5-0.1,0.7-0.2c0,0.1,0,0.2,0,0.2
			c-0.3,0.4-0.6,0.8-0.8,1.2C9,16,9,16.1,8.9,16.3c-0.2,0.2-0.4,0.4-0.5,0.6C8.3,17,8.2,17.1,8.2,17.1z"/>
		<path class="st17" d="M27.7,4.1c-0.5,0.2-1.1,0.5-1.6,0.7C25.5,5,24.8,5,24.2,5.1c0-0.1,0-0.2,0-0.3C25.3,4.6,26.5,4.3,27.7,4.1z"
			/>
		<path class="st19" d="M24.1,4.8c0,0.1,0,0.2,0,0.3c0,0.3,0,0.7,0,1c-0.6-0.1-1.2-0.2-1.8-0.3c0-0.1,0-0.3,0-0.4
			C22.9,5.2,23.5,5,24.1,4.8z"/>
		<path class="st12" d="M11.4,13.4c-0.3,0.2-0.5,0.4-0.8,0.6c-0.2-1.1,0.6-1.6,1.5-1.9c0,0.1,0.1,0.2,0.1,0.3
			c-0.2,0.3-0.3,0.5-0.5,0.8C11.6,13.3,11.5,13.4,11.4,13.4z"/>
		<path class="st7" d="M8.9,37.1c0-0.2,0-0.5,0-0.7c1.1,0.1,1.7,1,2.3,1.7c-0.7-0.3-1.4-0.6-2.1-0.9C9,37.2,8.9,37.1,8.9,37.1z"/>
		<path class="st19" d="M21.5,6c-0.2,0.9-0.3,1-1.2,0.6c0-0.1,0-0.2,0-0.3C20.7,6.2,21.1,6.1,21.5,6z"/>
		<path class="st12" d="M7.3,18.5c-0.2,0-0.4,0-0.5,0c0.1-0.5-0.1-1.2,0.8-1.2C7.5,17.7,7.4,18.1,7.3,18.5z"/>
		<path class="st8" d="M53.3,63.1c0-0.5-0.2-1.2,0.6-1.3C54,62.3,54,62.8,53.3,63.1z"/>
		<path class="st8" d="M53.9,56c-0.5-0.3-0.5-0.7-0.1-1.1C53.8,55.3,53.9,55.6,53.9,56z"/>
		<path class="st11" d="M22.5,68.1c0,0.2,0,0.4,0,0.6c-0.2-0.1-0.4-0.1-0.8-0.2C22.1,68.3,22.3,68.2,22.5,68.1z"/>
		<path class="st8" d="M53.8,58.7c-0.1-0.1-0.3-0.2-0.4-0.3c0.1-0.1,0.3-0.1,0.4-0.2C53.8,58.4,53.8,58.6,53.8,58.7z"/>
		<path class="st10" d="M68.2,26.4c-0.2,0-0.4,0-0.7,0.1c0.2-0.2,0.4-0.4,0.6-0.5C68.2,26.1,68.2,26.2,68.2,26.4z"/>
		<path class="st11" d="M19.8,6.6c-0.3,0.1-0.5,0.2-0.8,0.2c0.3-0.2,0.5-0.3,0.8-0.5C19.8,6.5,19.8,6.5,19.8,6.6z"/>
		<path class="st17" d="M19.8,6.6c0-0.1,0-0.2,0-0.2c0.2,0,0.3-0.1,0.5-0.1c0,0.1,0,0.2,0,0.3C20.1,6.6,20,6.6,19.8,6.6z"/>
		<path class="st11" d="M16.5,8.5c-0.2,0.1-0.4,0.2-0.6,0.3C16.1,8.7,16.3,8.6,16.5,8.5z"/>
		<path class="st11" d="M17.3,8c-0.2,0.1-0.4,0.2-0.6,0.4C16.9,8.2,17.1,8.1,17.3,8z"/>
		<path class="st12" d="M12.7,11.5c0,0.1,0,0.2,0.1,0.3c0,0.1,0,0.1-0.1,0.2c-0.2,0-0.4,0-0.5,0C12.3,11.8,12.5,11.6,12.7,11.5z"/>
		<path class="st3" d="M43.4,4.1C43.2,4,43,4,42.9,4C43,4,43.2,4,43.4,4.1z"/>
		<path class="st11" d="M18,7.9c-0.2,0-0.4,0-0.5,0c0.2-0.1,0.4-0.2,0.6-0.3C18.1,7.6,18,7.7,18,7.9z"/>
		<path class="st11" d="M18.8,7c0,0.1,0,0.2-0.1,0.4c-0.2,0-0.4,0-0.5,0C18.4,7.2,18.6,7.1,18.8,7z"/>
		<path class="st12" d="M10.5,14.2c-0.2,0.1-0.4,0.2-0.6,0.3C9.9,14.1,10.1,13.9,10.5,14.2z"/>
		<path class="st11" d="M12.1,11.9c0.2,0,0.4,0,0.5,0c-0.2,0.2-0.4,0.3-0.5,0.5c0-0.1-0.1-0.2-0.1-0.3C12.1,12.1,12.1,12,12.1,11.9z
			"/>
		<path class="st17" d="M22.3,5.4c0,0.1,0,0.3,0,0.4c-0.2,0-0.4,0-0.6,0C21.9,5.6,22.1,5.5,22.3,5.4z"/>
		<path class="st16" d="M68.1,21.3c-0.1,0-0.2,0-0.3-0.1c0.1,0,0.2-0.1,0.3-0.1C68.1,21.2,68.1,21.3,68.1,21.3z"/>
		<path class="st18" d="M26.4,7.4c-0.2-1.1-0.9,0-1.4-0.4c0-0.2-0.1-0.5,0-0.7c0.3-0.3,0.6-0.7,1-0.8c1.4-0.3,2.8-0.4,4.2-0.7
			c0.4-0.1,0.6-0.4,1-0.6C31.8,4,32.4,3.9,33,3.8c0,0.2,0,0.3,0,0.5c-0.1,0.3-0.1,0.9-0.3,1c-0.8,0.2-1.6,0.2-2.5,0.3
			C29.3,6.7,27.7,6.8,26.4,7.4z"/>
		<path class="st18" d="M34.8,3.8c0.3,0,0.7,0,1,0c0.4,0.7,0.8,1.3,1.3,2c-0.1,0.9-0.8,0-1.1,0.4c-0.2,0.2-0.4,0.6-0.4,0.7
			c0.3,0.6,0.6,1.1,0.9,1.5c-1.2,0.7-2.2,0.3-3.2-0.6c0.4,0,0.8,0.1,1.3,0.2c0-0.4,0.1-0.7,0.1-1c-0.5-0.9-1-1.7-0.8-2.8
			C34.1,4.2,34.4,4,34.8,3.8z"/>
		<path class="st20" d="M37.1,5.8c-0.4-0.7-0.8-1.3-1.3-2c0.3,0,0.7,0,1,0c0.3,0.3,0.6,0.6,1,0.9c-0.1,0.1-0.1,0.4-0.2,0.6
			C37.4,5.5,37.2,5.7,37.1,5.8z"/>
		<path class="st14" d="M34.8,3.8c-0.3,0.2-0.7,0.3-1,0.5c-0.3,0-0.5,0-0.8,0c0-0.2,0-0.3,0-0.5C33.6,3.8,34.2,3.8,34.8,3.8z"/>
		<path class="st20" d="M33,4.3c0.3,0,0.5,0,0.8,0c-0.2,1.1,0.3,1.9,0.8,2.8c-0.2,0-0.6,0-0.7-0.1c-0.7-0.7-1.4-0.8-2.2,0
			c-0.1,0.1-0.4,0-0.6-0.1c-0.7-0.2-1.2-0.1-1.4,0.6c0.4,0,0.8-0.1,1.3-0.1c0,0.4,0.1,0.7,0.1,1c-0.7,0.2-1.5,0.6-2.3,0.3
			c0.1-0.3,0.3-0.6,0.4-0.9c-0.7-0.1-1.3-0.3-1.4,0.8c0.4,0,0.7,0.1,1,0.1c0.1,1.1,1,1.3,1.9,1.5c0-0.7,0.1-1.2,0.3-1.8
			c0.7,0.1,0.6,0.6,0.5,1c-0.2,0.9-0.5,1.8-0.7,2.6c-0.6,0.3-1.2,0.6-1.8,0.9c-0.3-0.2-0.6-0.5-1-0.8c-0.6,1.1,0.4,1,0.8,1.3
			c0,0.8-0.4,1.6,0.5,2.2c0.1,0,0,0.2,0,0.4c-0.6,0.5-1.2,0.9-1.9,1.4c-0.4,0.3-0.9,0.5-1.4,0.7c-0.2-0.2-0.3-0.3-0.5-0.5
			c0.1-0.2,0.2-0.3,0.3-0.5c0.2-0.1,0.3-0.2,0.5-0.3c0.7,0.1,0.8-0.4,1-0.9c0.1-0.4,0.4-0.8,0.6-1.2c-0.9-0.4-1.9,0-2,0.9
			c0,0.4,0.2,0.7,0.3,1.1c-0.2,0.1-0.3,0.2-0.5,0.3c-0.3,0.1-0.5,0.2-0.8,0.3c-0.8-0.2-1.5-0.3-2.3-0.5c-0.1-0.1-0.2-0.2-0.3-0.3
			c0.5-0.1,1.1-0.3,1.7-0.4c-0.4-0.8,0.1-1.3,0.9-1.6c-0.4-0.4-0.7-0.8-1-0.2c-0.1,0.2-0.3,0.3-0.5,0.4c0-0.5-0.1-1.2,1-1.1
			c0-0.2,0-0.3-0.1-0.5c-0.5-0.4-0.9-0.9-1.5-1.4c0.3-0.5,1.4-0.9,0.7-2.1c-0.1,0-0.4,0.1-0.8,0.1C22.5,9,23,9,23.4,9
			c0.2,0,0.3,0,0.6-0.1c0-0.5-0.1-1-0.1-1.5c0.8-0.1,1.7-0.2,2.5-0.3c1.4-0.5,2.9-0.7,3.8-1.8c0.9-0.1,1.7-0.1,2.5-0.3
			C32.9,5.2,32.9,4.6,33,4.3z"/>
		<path class="st20" d="M13.4,20.6c0.1-0.2,0.2-0.5,0.3-0.7c0.3,0.2,0.6,0.3,0.9,0.5c0.4,0,0.7-0.1,1.1-0.1c0.5-0.1,0.9-0.1,1.4-0.2
			c0.3,0,0.6-0.2,0.8-0.1c0.8,0.5,1.4,0.4,1.9-0.5c0.1-0.2,0.4-0.2,0.6-0.3c0.4,0.4,0.7,0.8,1,1.2c-0.3,1,0.9,0.2,1,1.1
			c-0.5,0.1-1,0.1-1.4,0.2c-0.1-0.3-0.1-0.6-0.2-1c-0.9,0.4-0.5,1-0.3,1.5c-0.3,0.2-0.7,0.3-1,0.5c-0.9-0.7-1.6,0.3-2.2,0.5
			c-0.1-0.4-0.1-0.9-0.2-1c-0.4-0.2-0.7,0-0.5,0.6c0,0.1-0.1,0.3-0.2,0.3c-0.6,0.3-1.1,0.7-1.8,1.1c0-0.4-0.1-0.7-0.1-1
			c0-0.4,0-0.7,0-1c-1.3-0.3-2.4-0.7-3.6-1c0-0.1,0-0.2,0.1-0.3c0.3-0.1,0.6-0.1,1-0.2c-0.1-0.3-0.2-0.5-0.3-0.8
			c0.1-0.1,0.1-0.2,0.2-0.3c0.3,0.2,0.7,0.4,1,0.6C12.9,20.4,13.2,20.5,13.4,20.6c0.1,0.2,0.3,0.5,0.4,0.7c0.1-0.1,0.2-0.2,0.3-0.3
			C13.9,20.9,13.7,20.7,13.4,20.6z"/>
		<path class="st18" d="M14.5,23.1c0,0.3,0.1,0.6,0.1,1c0.7-0.4,1.3-0.7,1.8-1.1c0.1-0.1,0.3-0.3,0.2-0.3c-0.2-0.6,0.1-0.7,0.5-0.6
			c0.1,0.1,0.1,0.5,0.2,1c0.6-0.2,1.2-1.2,2.2-0.5c-0.2,0.7,0.2,1.1,0.7,1.5c-0.3,0.2-0.6,0.5-0.9,0.7c-1.9-1-2.8-0.4-3.1,1
			c-0.4,0.1-0.7,0.1-1.1,0.2c-0.6,0.2-1,0.1-0.9-0.7c0-0.2-0.4-0.6-0.6-0.7c-0.3-0.1-0.7,0-1,0c-0.4-1,0.8-0.9,1-1.5
			C14,23.1,14.2,23.1,14.5,23.1z"/>
		<path class="st18" d="M21.1,21.6c0.5-0.1,1-0.1,1.4-0.2c0-0.9-1.3-0.1-1-1.1c0-0.2,0-0.5,0-0.7c0.1-0.7,0.7-0.7,0.9-0.3
			c0.4,0.7,0.9,0.4,1.4,0.5l0,0c0.4,1,1,0.4,1.5,0.2c0.1,0,0.2,0,0.3,0c0.1,0.6,0.2,1.2,0.2,1.8c-0.2,0.1-0.3,0.2-0.5,0.3
			c-0.4-0.1-0.7-0.1-1,0.4c-0.2,0.3-0.7,0.4-1,0.6c-0.1-0.5-0.2-1-1-1.1c0,0.4,0,0.8,0,1.1c-0.4,0-0.7,0-1.1-0.1
			c0.3-0.5,0.6-0.9-0.2-1C21,21.9,21,21.8,21.1,21.6z"/>
		<path class="st20" d="M13.7,23.1c-0.2,0.6-1.4,0.6-1,1.5c-0.2,0.4-0.3,0.8-0.5,1.3c-0.1,0.2-0.2,0.3-0.3,0.5c-0.2,0-0.3,0-0.5,0
			c0-0.3,0-0.7,0-1c-0.8-0.3-1.5-0.6-2.3-1c0-0.4,0-0.9,0-1.3c1.3,1,1.3,1,1.6-0.8c0,0,0-0.1,0.1-0.1c0.8-0.2,0.9,0.6,1.2,0.9
			C12.6,23.1,13.2,23.1,13.7,23.1z"/>
		<path class="st18" d="M25.4,17.5c0.2,0.2,0.3,0.3,0.5,0.5c0.2,0.6,0.4,1.3-0.5,1.5c-0.5,0.1-1,0.2-1.5,0.3l0,0
			c0.1-0.7,0-1.3-0.9-1.6c-0.3-0.1-0.3-1-0.4-1.5c0.8,0.2,1.5,0.3,2.3,0.5C25,17.4,25.2,17.4,25.4,17.5z"/>
		<path class="st18" d="M23.3,14.7c0.2-0.1,0.4-0.2,0.5-0.4c0.4-0.6,0.6-0.2,1,0.2c-0.8,0.3-1.3,0.8-0.9,1.6
			c-0.6,0.2-1.2,0.3-1.7,0.4c-0.5-0.3-0.9-0.6-1.6-1.1c1,0.1,1.4-1.1,2.4-0.7c-0.1,0.1-0.2,0.3-0.3,0.4c0.1,0,0.1,0.1,0.2,0.1
			C23.1,15.1,23.2,14.9,23.3,14.7L23.3,14.7z"/>
		<path class="st6" d="M11.7,15.8c0.7,1.7,0.6,2-0.4,2.8C11.1,17.6,10.9,16.7,11.7,15.8z"/>
		<path class="st6" d="M19.5,13.7c-0.6,0.3-1.2,0.5-2,0.9c0.6-0.9,1-1.5,1.5-2.1c0.1-0.2,0.5-0.2,0.8-0.2c0,0.2,0,0.3,0,0.5
			s0,0.3,0,0.5C19.7,13.4,19.6,13.5,19.5,13.7z"/>
		<path class="st20" d="M19.5,13.7c0.1-0.2,0.2-0.3,0.2-0.5c0.6,0,1.1,0,1.7,0C21,14.5,20.2,13.6,19.5,13.7z"/>
		<path class="st20" d="M19.8,12.7c0-0.2,0-0.3,0-0.5c0.3-0.1,0.6-0.2,0.9-0.2c0,0.1,0.1,0.2,0.1,0.3C20.4,12.4,20.1,12.6,19.8,12.7
			z"/>
		<path class="st6" d="M9.1,16c0.3-0.4,0.6-0.8,0.8-1.2C9.9,15.3,9.9,15.9,9.1,16z"/>
		<path class="st20" d="M23.3,14.7c-0.1,0.2-0.2,0.4-0.4,0.6c-0.1,0-0.1-0.1-0.2-0.1c0.1-0.1,0.2-0.3,0.3-0.4
			C23.2,14.7,23.3,14.7,23.3,14.7z"/>
		<path class="st6" d="M8.3,17c0.2-0.2,0.4-0.4,0.5-0.6C8.7,16.6,8.5,16.8,8.3,17z"/>
		<path class="st11" d="M11.4,13.4c0.1-0.1,0.2-0.2,0.3-0.2C11.6,13.3,11.5,13.4,11.4,13.4z"/>
		<path class="st15" d="M37.3,59.8c-0.2,0.1-0.5,0.4-0.7,0.4c-1.1-0.3-2.3-0.8-3.4-1.2c-0.3-0.1-0.5-0.2-0.8-0.2l0,0
			c0-0.6,0-1.2,0-1.9c0-0.2,0.3-0.5,0.5-0.7c0.3,0.2,0.7,0.3,1,0.5c0.2,0.1,0.6,0.2,0.7,0.4c0.5,0.8,1.2,0.7,2,0.6
			c0.2-1.4-0.8-2.4-1.3-3.4c0.1-0.3-0.3-0.3-0.5-0.4c-0.6,0-1.2,0-1.8-0.1c0-1-0.7-1.2-1.5-1.3l0,0c0-0.3,0-0.7,0-1
			c0.1-0.3,0.2-0.7,0.2-1c0.1,0,0.2,0,0.3-0.1c0.3,1,0.6,1.9,1.9,1.8c0-0.4,0-0.8,0.1-1.2c0.2,0,0.5,0,0.7,0c0,0.2,0,0.5,0,0.7
			c0.1,0.3,0.1,0.7,0.5,0.3c0.5,0,1,0,1.5,0c0.8,0,1.8-0.2,2.3,0.8c-0.2,0.5-0.3,1-0.5,1.5c-0.2,0.4-0.3,0.9-0.5,1.3
			c0,0.1,0,0.2,0,0.3c-0.8,0.3-0.7,0.9-0.7,1.5c0,0.3,0,0.5,0,0.8c-0.4,0.1-0.8,0.3-1.3,0.4c0,0.1-0.1,0.2-0.1,0.4
			C36.4,59.2,36.9,59.5,37.3,59.8z"/>
		<path class="st16" d="M46.7,59c-0.7-0.1-1.4-0.3-1.5-1.3c0.4-0.2,0.8-0.4,1.2-0.5c0.3-0.1,0.9,0,0.9-0.2c0.1-0.4,0.1-0.9-0.1-1.2
			c-0.6-1.1-1.3-2.1-1.9-3.2c-0.1-0.2-0.1-0.4-0.1-0.6c0.5-0.2,1-0.4,1.5-0.5c0.4-0.1,0.9,0,1.2-0.1c1.1-0.4,2.1-1,3.1-1.6
			c0.2,0,0.3,0,0.5,0c0.1,0,0.2,0,0.3,0c0,0.3,0,0.5,0,0.8c-0.8,0.2-1.6,0.4-2.4,0.7c-0.3,0.1-0.6,0.5-0.6,0.7
			c0.1,0.6,0.1,1.3,0.5,1.8c1.3,1.5,0.8,3.4,1.2,5.2c0.1,0.2-0.2,0.7-0.5,0.7c-0.2,0.1-0.7,0-0.9-0.2C48.3,58.6,47.9,58.5,46.7,59z"
			/>
		<path class="st12" d="M45.2,52.1c0,0.2,0,0.4,0.1,0.6c0.6,1.1,1.3,2.1,1.9,3.2c0.2,0.3,0.2,0.8,0.1,1.2c0,0.1-0.6,0.1-0.9,0.2
			c-0.4,0.1-0.8,0.3-1.2,0.5c-1-0.2-1.1,0.4-1,1.2c0.1,0.4,0.2,0.9,0.1,1.3c-0.1,0.3-0.6,0.7-0.8,0.7c-0.3,0-0.6-0.5-0.7-0.8
			c-0.1-0.3-0.1-0.6-0.1-1.2c-0.7,0.1-1.3,0.2-1.9,0.3c0.5-0.6,0.7-1.6,1.8-1.6c0.1,0,0.4-0.4,0.4-0.6c0-0.2-0.3-0.5-0.6-0.5
			c-0.5-0.1-1.1,0-1.6,0c-0.4-1-0.2-1.3,0.8-1.5c0.3-0.1,0.5-0.3,0.8-0.4c0.4-0.3,0.7-0.6,1.2-1c0.3,0.9,0.8,1.4,1.6,1.1
			c0.2-1.3,0.1-1.5-1.1-1.9c0.2-0.2,0.3-0.3,0.5-0.5C44.7,52.1,44.9,52.1,45.2,52.1z"/>
		<path class="st12" d="M46.7,59c1.2-0.5,1.6-0.4,2.4,0.4c0.2,0.2,0.6,0.3,0.9,0.2c0.2-0.1,0.5-0.5,0.5-0.7
			c-0.4-1.7,0.1-3.6-1.2-5.2c-0.4-0.4-0.4-1.2-0.5-1.8c0-0.2,0.3-0.6,0.6-0.7c0.8-0.3,1.6-0.5,2.4-0.7c0.1,0.6,0.2,1.2,0.3,1.8
			c-0.1,0.8-0.2,1.5-0.4,2.2c-0.3,0.9,0.1,1.1,0.9,1.1l0,0c0,0.3,0,0.7,0,1c-0.2,0.2-0.5,0.3-0.7,0.5c-0.1,1-0.2,2-0.3,3.1
			C49.8,60.3,48.1,60.2,46.7,59z"/>
		<path class="st12" d="M37.3,58.2c0-0.3,0-0.5,0-0.8c1.4,0.1,0.7-0.9,0.7-1.5c0-0.1,0-0.2,0-0.3c0.4-0.1,0.9-0.1,1.4-0.2
			c0,0.4,0.1,0.7,0.1,1c-0.1,0.8,0.3,1.1,1,1c-0.1,1.3-0.9,0.3-1.5,0.3c0.2,0.5,0.3,0.8,0.5,1.2C38.8,58.7,38.1,58.5,37.3,58.2z"/>
		<path class="st15" d="M39.6,61.8c-0.2-0.3-0.4-0.7-0.5-1c-0.3-0.6-0.6-1.3-1.5-1.3c0.1-0.2,0.2-0.4,0.2-0.5
			c1.3,0.5,2.4,0.9,3.6,1.3c0.2,0.1,0.4,0.2,0.4,0.3c0,0.2,0,0.5-0.1,0.5C41,61.4,40.3,61.6,39.6,61.8z"/>
		<path class="st16" d="M39.6,59c-0.1-0.4-0.3-0.7-0.5-1.2c0.6,0,1.4,1,1.5-0.3c0-0.3,0-0.7,0-1c0.5,0,1.1,0,1.6,0
			c0.2,0,0.5,0.3,0.6,0.5c0,0.2-0.3,0.6-0.4,0.6c-1.1,0-1.3,1-1.8,1.6C40.3,59.2,39.9,59.1,39.6,59z"/>
		<path class="st15" d="M52.5,56.7c0-0.3,0-0.7,0-1c1,0.4,0.6,1.3,0.4,1.7c-0.6,0.9-0.3,1.8-0.4,2.8c0,0.4-0.1,0.8-0.2,1.2
			c-0.3-0.3-0.5-0.7-0.8-1c0.1-1,0.2-2,0.3-3.1C52,57,52.3,56.9,52.5,56.7z"/>
		<path class="st19" d="M14.4,38.6c-0.3-0.9-0.7-1.8-0.9-2.8c-0.2-0.8-0.3-1.6,0.6-2.1c-0.9-1.4,0.3-3.3-1.3-4.4
			c-0.4-0.1-0.8-0.1-1.3-0.2c0-0.7,0-1.3,0-1.9c0.2-0.2,0.3-0.3,0.5-0.5c0.3,0,0.5,0,0.8,0c0.4,0.8,0.9,1.6,1.4,2.6
			c0.6-0.2,1.3-0.4,1.9-0.6c1.3-0.4,1.4-0.7,0.7-2c0.7-0.2,1.1-1.2,2.2-0.9c0.1,0.5,0.2,0.9,0.3,1.5c0.5-0.2,0.8-0.4,1.1-0.6
			c0.3,0.1,0.5,0.2,0.8,0.3c0,0.3,0,0.5,0,0.8c0,0.2,0,0.3,0,0.6c-0.4-0.2-0.7-0.4-1.1-0.6c-0.1,0.9-0.1,1.7-1,2.1
			C19,30,18.9,30.3,19,30.5c0.3,0.5,0.7,1.1,1.2,1.5c0.2,0.2,0.5,0.1,0.8,0.1c0.1,0.3,0.2,0.5,0.3,0.8c-0.1,0.8-0.2,1.7-0.1,2.5
			c0.1,1.1,0.4,2.1-0.6,3c0,0.1,0.1,0.1,0.1,0.2c0.6,0,1.1,0,1.8,0c0,0.7,0.2,1.3,1.1,1.3c0.2,0,0.3,0.4,0.5,0.6
			c-0.2,0.1-0.3,0.4-0.5,0.4c-0.8,0.1-1.6,0.2-2.5,0.3l0,0C21,40.9,21,40.5,20.6,41c-0.2,0-0.3,0-0.5,0c-0.2-0.2-0.4-0.4-0.7-0.5
			C18.6,40,18,40,17.5,39.9c-0.1-0.5-0.2-1-0.3-1.5c0.2,0,0.4-0.1,0.9-0.2c-0.6-0.3-1-0.6-1.3-0.8c-0.1-0.5-0.2-1.1-0.3-1.6
			c0,0.1,0.1,0.2,0.1,0.4c-0.4,0.5-0.8,0.9-1.1,1.4c-0.2-0.2-0.3-0.3-0.5-0.5c0,0.5,0,1,0,1.5C14.8,38.6,14.6,38.6,14.4,38.6z
			 M16.4,31.2c-0.7,0.1-1.2,0.1-1.8,0.2c0.7,0.5,1.5,0.8,1.8,1.4c0.3,0.6,0.2,1.5,0.3,2.3c1.3-1.4,1.1-4.5,0-5
			C16.5,30.4,16.5,30.8,16.4,31.2z M19.4,38.7c0.6-1,0.6-1.8-0.3-2.3C19.2,37.2,18.7,37.9,19.4,38.7z"/>
		<path class="st21" d="M14.4,38.6c0.2,0,0.4,0,0.5,0c0.8,0.5,1.6,0.2,2.3-0.2c0.1,0.5,0.2,1,0.3,1.5c-0.1,0.1-0.2,0.2-0.3,0.3
			c-0.2,0-0.3,0-0.5,0c-0.2-0.1-0.3-0.2-0.5-0.2c-0.7-0.1-1.4-0.2-2.1-0.3c-0.3-0.1-0.5-0.2-0.8-0.3c0-0.1,0-0.2,0-0.3
			C13.8,39.1,14.4,39.4,14.4,38.6z"/>
		<path class="st7" d="M13.5,39.1c0,0.1,0,0.2,0,0.3c-0.5-0.3-1-0.6-1.5-0.8C12.4,38.8,12.9,39,13.5,39.1z"/>
		<path class="st4" d="M7.4,19.1c0-0.1,0-0.2,0.1-0.2c0.2,0,0.5,0,0.7,0C7.8,19.6,7.8,19.6,7.4,19.1z"/>
		<path class="st14" d="M11.9,26.7c-0.2,0.2-0.3,0.3-0.5,0.5c0-0.3,0-0.5,0-0.8c0.2,0,0.3,0,0.5,0C11.9,26.5,11.9,26.6,11.9,26.7z"
			/>
		<path class="st7" d="M8.9,36.4c-0.2-0.2-0.4-0.3-0.5-0.5C8.5,36,8.7,36.2,8.9,36.4z"/>
		<path class="st7" d="M11.9,38.6c-0.2-0.2-0.4-0.3-0.6-0.5C11.6,38.3,11.8,38.5,11.9,38.6z"/>
		<path class="st21" d="M25.3,65.6c0.4-1.1,0.8-2.2,1.2-3.3c0.6-1.6,1.2-3.2,0.9-5c-0.1-0.5,0.2-1.1,0.3-1.6c1.2,0,1.4,1,1.6,1.9
			c0.5,0.1,1,0.1,1.5,0.2c0,0.9,0,1.8,0,2.8c-0.1,0-0.3,0.1-0.4,0.1c-1.9,0.2-2.1,0.3-1.9,2.1c0.1,1.6-0.7,2.6-2.3,2.7
			C25.9,65.6,25.6,65.6,25.3,65.6z"/>
		<path class="st13" d="M33,56.2c-0.2,0.2-0.5,0.4-0.5,0.7c-0.1,0.6,0,1.2,0,1.9c-0.6,0.1-0.8-0.3-0.8-0.8c0-0.9,0.2-1.9-0.8-2.6
			c-0.2-0.1,0-1,0.1-1.5c0.1-0.4,0.3-0.8,0.5-1.2C32.3,52.8,33,53,33,54C34.3,55.4,34.3,55.4,33,56.2z"/>
		<path class="st13" d="M31.5,51.6c0,0.3,0,0.7,0,1c-1.1-0.9-2.4-1.5-2.9-3c-0.1-0.4-0.3-0.9-0.9-0.8c0.1-0.3,0.2-0.7,0.2-1
			c0.2,0,0.6,0,0.7,0.1c0.7,0.9,1.5,0.6,2.3,0.5c0.2,0,0.4,0.1,0.5,0.1c-0.2,0.4-0.3,0.8-0.5,1.2C30.6,50.5,30.7,51.1,31.5,51.6z"/>
		<path class="st13" d="M32.5,58.7c0.3,0.1,0.5,0.2,0.8,0.2c0,0.1,0,0.2,0,0.3C33,59.1,32.7,58.9,32.5,58.7z"/>
		<path class="st22" d="M45.2,52.1c-0.3,0-0.5,0-0.8,0c-1.1-0.1-2.2-0.2-3.3-0.3c0.4-0.9,1-1.5,2-1.8c1.4-0.3,2.7-0.8,4.1-1.3
			c0.2,0,0.3,0,0.5,0c0.2-0.2,0.4-0.5,0.5-0.7c0.2,0,0.3,0,0.5,0c0.2,0.2,0.4,0.7,0.6,0.7c0.6,0,1-0.3,1-1c0.4,0.1,0.8,0.2,1,0.3
			c-0.1,0.7-0.2,1.2-0.3,1.8c-1,0.6-2.1,1.1-3.1,1.6c-0.4,0.2-0.8,0.1-1.2,0.1C46.2,51.7,45.7,52,45.2,52.1z"/>
		<path class="st0" d="M47.2,48.8c-1.4,0.4-2.7,0.9-4.1,1.3c-1,0.2-1.6,0.9-2,1.8c-0.1,0.1-0.2,0.2-0.3,0.3c-0.4,0-0.8,0-1.3,0
			c-0.2-0.1-0.3-0.2-0.5-0.3c-0.1-0.6-0.3-0.7-0.8-0.3c-0.3,0-0.5,0-0.8,0c0.1-0.3,0.1-0.9,0.2-0.9c1-0.2,1.1-1,1.6-1.6
			c0.3,0,0.7,0,1,0c0.3,0.2,0.6,0.5,0.8,0.5c0.5-0.1,1-0.3,1.5-0.5c0.3,0,0.7,0,1,0c0.4-0.1,1.1,0.3,1.3-0.5c0.7,0,1.3,0,2,0
			C47,48.6,47.1,48.7,47.2,48.8z"/>
		<path class="st7" d="M31.5,48.6c-0.2,0-0.4-0.1-0.5-0.1c-0.8,0.1-1.7,0.4-2.3-0.5c-0.1-0.1-0.5-0.1-0.7-0.1
			c-0.1-0.3-0.1-0.7-0.3-0.9c-0.1-0.2-0.3-0.4-0.5-0.6c0-0.3,0-0.5,0-0.8c1.1-0.4,1.5-1.1,1.5-2.3v-0.1c0.3,0.1,0.5,0.2,0.8,0.3
			c-0.2,0.6-0.4,1.2-0.6,1.9c0.3,0.2,0.7,0.4,1,0.6c0,0.4,0.1,0.8,0.1,1.2c0.5,0.2,1.1,0.2,1.6,0.5c0.3,0.2,0.4,0.6,0.7,0.9
			C32,48.5,31.7,48.6,31.5,48.6z"/>
		<path class="st11" d="M31.5,48.6c0.2,0,0.5,0,0.7,0c0.6,0.5,1.3,0.2,1.8-0.7c0.5,0.1,1,0.1,1.6,0.2c-0.8,1.1-2.4,1.5-1.6,3.1
			c0,0.4,0,0.7-0.1,1.2c-1.3,0.1-1.6-0.8-1.9-1.8c-0.1,0-0.2,0-0.3,0.1c-0.1,0.3-0.2,0.7-0.2,1c-0.8-0.5-0.9-1.1-0.4-1.9
			C31.2,49.4,31.3,49,31.5,48.6z"/>
		<path class="st13" d="M34,47.8c-0.5,1-1.2,1.2-1.8,0.7c-0.2-0.3-0.4-0.7-0.7-0.9c-0.5-0.3-1-0.3-1.6-0.5c0-0.4-0.1-0.8-0.1-1.2
			c-0.4-0.2-0.8-0.4-1-0.6c0.2-0.7,0.4-1.3,0.6-1.9c0.4,0,0.8,0,1.3,0c0,0.8,0,1.6,0.1,2.4c0,0.1,0.4,0.2,0.6,0.4
			c0.1,0.8,0.8,1.4,1.7,1.5C33.4,47.8,33.7,47.8,34,47.8z"/>
		<path class="st16" d="M39.3,49.1c-0.5,0.6-0.6,1.5-1.6,1.6c-0.1,0-0.1,0.6-0.2,0.9c-0.3,0.2-0.5,0.3-0.8,0.5c-0.5,0-1,0-1.5,0
			c-0.2-0.1-0.3-0.2-0.5-0.3c0-0.2,0-0.5,0-0.7c0.3-0.3,0.5-0.6,0.9-0.8c1-0.5,2-1,3.1-1.4C38.8,48.9,39.1,49,39.3,49.1z"/>
		<path class="st15" d="M34.5,42.2c-0.5,0-1,0-1.5,0c-1.2,0.4-2.3,0.7-3.5,0.3c0-0.3,0-0.5,0-0.8l0,0c0.2,0,0.3,0.1,0.5,0.1
			c1.4-0.1,2.8-0.2,4.2-0.3c0.2,0,0.5,0.1,0.7,0.2c0.6,0.1,1.1,0.2,1.7,0.3c0,0.1,0,0.2,0,0.3C35.9,42.2,35.2,42.2,34.5,42.2z"/>
		<path class="st11" d="M29.4,41.7c0,0.3,0,0.5,0,0.8c-0.2,0-0.5,0-0.7,0c-1,0-2,0-3,0c-0.4,0-0.7-0.1-1.1-0.2c0-0.2,0-0.3,0-0.5
			C26.2,41.7,27.8,41.7,29.4,41.7z"/>
		<path class="st15" d="M52,52.4c-0.1-0.6-0.2-1.2-0.3-1.8c0-0.3,0-0.5,0-0.8c0.2-0.1,0.3-0.2,0.5-0.3c0.1,0,0.2,0,0.2,0
			c0.2,1.4,0.4,2.7,0.5,4.1c0,0.4,0.2,0.9-0.5,1C52.4,53.9,52.2,53.1,52,52.4z"/>
		<path class="st0" d="M51,49.8c0.1-0.5,0.2-1.1,0.3-1.8c-0.3-0.1-0.7-0.2-1-0.3l0,0c0.1-0.2,0.2-0.3,0.3-0.5c0.5,0,1-0.1,1.5,0.1
			c0.2,0.1,0.1,0.8,0.1,1.2c0,0.3,0,0.5-0.1,0.8c-0.2,0.2-0.3,0.4-0.5,0.5C51.4,49.8,51.2,49.8,51,49.8z"/>
		<path class="st11" d="M31.4,46.3c-0.2-0.1-0.6-0.2-0.6-0.4c-0.1-0.8-0.1-1.6-0.1-2.4c0.9-0.2,1.1,0.2,1,1
			C31.6,45.1,31.5,45.7,31.4,46.3z"/>
		<path class="st16" d="M42.6,49.1c-0.5,0.2-1,0.4-1.5,0.5c-0.2,0-0.5-0.3-0.8-0.5C41.1,49.1,41.9,49.1,42.6,49.1z"/>
		<path class="st0" d="M50.3,47.8c0.1,0.7-0.4,1-1,1c-0.2,0-0.4-0.5-0.6-0.7c0.1,0,0.2,0,0.3,0C49.4,48,49.8,47.9,50.3,47.8
			L50.3,47.8z"/>
		<path class="st16" d="M50.3,47.8C49.8,47.9,49.4,48,49,48c0.3-0.8,0.9-0.7,1.5-0.8C50.4,47.5,50.3,47.6,50.3,47.8z"/>
		<path class="st16" d="M44.9,48.6c-0.2,0.8-0.8,0.4-1.3,0.5C43.8,48.2,44.5,48.7,44.9,48.6z"/>
		<path class="st16" d="M47.2,48.8c-0.1-0.1-0.2-0.2-0.3-0.3c0.3-0.2,0.5-0.3,0.8-0.5c0,0.2,0,0.5,0,0.7
			C47.5,48.8,47.4,48.8,47.2,48.8z"/>
		<path class="st0" d="M47.7,48.8c0-0.2,0-0.5,0-0.7c0.2,0,0.3,0,0.5,0C48.1,48.3,47.9,48.6,47.7,48.8z"/>
		<path class="st12" d="M51.5,49.8c0.2-0.2,0.3-0.4,0.5-0.5c0.1,0.1,0.2,0.2,0.3,0.3c-0.2,0.1-0.3,0.2-0.5,0.3
			C51.7,49.8,51.6,49.8,51.5,49.8z"/>
		<path class="st23" d="M58.6,22.9c0.2,0.1,0.6,0.1,0.6,0.2c0.1,0.5,0.1,1,0.2,1.6c-0.8-0.4-1.5-0.8-2.3-1.3
			c-0.8-0.4-1.7-0.9-2.5-1.3c-0.1-0.4-0.1-0.8-0.2-1.2c-1,0.5-1.5,1.6-2.7,1.7c-0.3,0-0.5,0-0.8,0c-1.3-0.1-2.5-0.2-3.8-0.3
			c-0.1,0-0.2,0-0.3,0c-0.4,0-1-0.3-1.1-0.1c-0.5,0.5-0.9,1.2-1.3,1.8c-0.3-0.3-0.6-0.7-0.9-0.9c-0.2-0.1-0.7-0.2-0.8-0.1
			c-0.6,0.9-1.1,1.8-1.7,2.7c-0.6-1.2-1.8-0.8-3-0.9c0.1,1.6,0.1,1.6-0.6,2.2c-0.3-0.3-0.5-0.5-0.8-0.8c-0.7-0.3-1,0-0.8,1
			c0,0.2,0,0.3,0,0.5c-0.7,0.3-1.3,0.5-2,0.8c-0.1-0.2-0.2-0.5-0.3-0.7c-0.2,0.2-0.5,0.3-0.6,0.5C33,28.5,33,28.7,33,29
			c-0.2,0-0.3,0-0.5,0c-2.3-0.6-3.5-0.6-5.2,0c0.8,1.3,0.8,1.5,0.1,2c-0.5-1.3-0.5-1.3-2.3-1.1c0,0-0.1,0-0.1,0.1
			c-0.4,1-0.9,1.2-1.8,0.9c-1.1-0.4-0.6-0.9-0.2-1.5c0.3-0.6-0.1-0.8-0.7-0.8c0-0.1,0-0.2,0-0.3c1.5,0.3,2.5-1.2,4.1-1.1
			c-0.8-1-0.4-1.2,0.5-1.2c0.3,0.3,0.5,0.5,0.8,0.8c0.5,0.6,1,0.6,1.5-0.1c0.3-0.4,0.4-0.6,0.8-0.2c-0.1,0.3-0.3,0.6-0.4,0.9
			c0.6,0.1,1.1,0.2,1.7,0.3C31.4,27,32,26.4,31,26c0-0.2,0-0.4,0.1-0.6c0.2-0.3,0.4-0.5,0.6-0.8c-0.4,0.1-0.7,0.1-1.1,0.2
			c-0.1,0-0.2,0.1-0.3,0.2c-0.2-0.3-0.3-0.5-0.5-0.8c0.1-0.2,0.2-0.3,0.3-0.5c0.3,0,0.5,0,0.8,0l0,0c0.7,0.3,0.7,0.3,0.8-0.8
			c0.1,0,0.2,0,0.3,0c0.2,0.3,0.3,0.5,0.5,0.8l0,0c0,0.2,0,0.3,0,0.5c0,0.5-0.1,1.1,0.6,1.1c0.6,0,1.2-0.2,1.1-1.1
			c1.3,0,1.6-0.4,1.9-1.8c0-0.3,0.3-0.7,0.5-0.7c1.1-0.2,2.2-0.2,3.3-0.3c0.1,0.5,0.1,1,0.2,1.6c0.5-0.1,1-0.3,1.2-0.3
			c-0.2-0.8-0.4-1.4-0.6-2c0.2-0.3,0.4-0.5,0.5-0.8c0.5,0,0.8-0.1,0.8-0.7c0-0.2,0.2-0.4,0.2-0.6c0.3,0.4,0.5,0.8,0.8,1.3
			c0.4-0.1,0.8-0.3,1.2-0.5c0.2,1.1,0.3,1.2,1.5,0.7c0.5,0.2,0.9,0.4,1.4,0.5c0.1-0.3,0.2-0.7,0.4-1.3c0.6,1.1,1.2,1.2,2.1,1
			c0-0.3-0.1-0.5-0.1-0.7c0.4-0.2,0.7-0.4,1.1-0.7c0.6,0.3,0.6,0.3,1.2-0.1c0.3,0.2,0.5,0.3,0.8,0.5c0,0.1,0,0.2,0,0.3
			c1,0.5,2,0.5,3,0c1.2,0.2,1.8,0.8,2.1,2c0,0.2,0.2,0.4,0.4,0.4c0.1,0,0.4-0.2,0.5-0.3c0.1-0.4,0.1-0.9,0.1-1.4c0.5,0,1,0,1.6-0.1
			c-0.1-1-0.2-1.9-0.3-2.7c0.3,0,0.5,0,0.8,0c0.3,0.3,0.5,0.6,0.8,0.8c0.3,0.2,0.6,0.3,0.9,0.4c0,0.3-0.2,0.7-0.1,1
			c0.3,1,0.1,1.7-0.9,2.1c-0.6,0.3-0.6,0.8,0,1c0.9,0.3,0.9,0.9,0.6,1.9c-0.7-0.5-1.6-0.8-2-1.4c-0.3-0.6-0.1-1.4-0.1-2.2
			c-0.1,0-0.2,0-0.3-0.1C59.3,21.7,59,22.3,58.6,22.9L58.6,22.9C58.5,23,58.5,23,58.5,23C58.6,22.9,58.6,22.9,58.6,22.9z M41.5,20.8
			c-0.1,0.1-0.2,0.1-0.3,0.2c0.1,0.2,0.3,0.3,0.4,0.5c0.1-0.1,0.1-0.1,0.2-0.2C41.8,21.2,41.6,21,41.5,20.8z"/>
		<path class="st1" d="M61.7,32.5c-0.1,0.3-0.2,0.6-0.3,1c-0.1,0-0.2,0-0.3,0c-0.1-0.3-0.3-0.6-0.4-0.9c-1-0.2-0.7,1.7-2,0.8
			c-0.1,0.9-0.2,1.5-0.2,2.2c-0.5-0.1-1-0.2-1.6-0.4c-0.1,0.3-0.1,0.7-0.3,1.3c-0.2-0.4-0.3-0.5-0.4-0.7c-0.1-0.5,0-1.2-0.2-1.5
			c-0.3-0.3-1-0.1-1.5-0.2L54.4,34c0.2-0.2,0.4-0.5,0.4-0.7c0.1-0.6,0.3-1.2,0.2-1.8c0-0.1-0.7-0.2-1-0.3c-0.2-0.1-0.3-0.3-0.5-0.5
			c-0.6-0.7-1.2-1.3-1.9-2.1c0-0.1,0.1-0.4,0.1-0.7c0.1-0.1,0.2-0.2,0.3-0.3c0.3,0,0.5,0,0.8,0c-0.1,0.9,0.1,1.6,0.9,2
			c0.2-0.3,0.4-0.6,0.5-0.9c0.2-0.5,0.5-1-0.3-1.2c0-0.2,0-0.3,0-0.5c0.3,0,0.5,0,0.8,0c-0.1,0.9,0.5,0.8,1.1,0.8
			c0.5,0,1.3,0.2,1.2-0.8c0.1-0.1,0.2-0.2,0.3-0.3c0.2,0,0.3,0,0.5,0c0.4,0.1,1,0.2,1.1,0.4c0.6,1,1.8,0.4,2.5,1.2
			c0.1-0.1,0.1-0.2,0.2-0.2c-0.1-0.4-0.1-0.8-0.2-1.4c0.6,0.1,1,0.2,1.5,0.3c-0.2,0.3-0.3,0.7-0.5,1c-0.3,0.9-0.3,1.7,0.4,2.5
			c0.1,0.1,0.1,0.4,0.1,0.6s0,0.3,0,0.5c-0.2,0-0.3,0-0.5,0c-0.4-0.8-0.6-1.7-1.1-2.3c-0.4-0.4-1.1-0.5-1.7-0.7
			c-0.1,0-0.4,0.2-0.4,0.3c0.2,0.4,0.4,0.7,0.6,1.1c0,0.1,0,0.2,0,0.4c-0.3,0.2-0.6,0.5-0.9,0.8c0-0.1,0-0.2,0-0.3
			c-0.5-0.2-0.9-0.5-1.4-0.7c-0.4-0.3-0.9-0.5-1.3-0.8c-0.4,1.4-0.4,1.4,0.9,1.8c0.3,0.1,0.5,0.3,0.7,0.5c0.9,0.4,1.8,0.7,2.8,0
			C61.1,31.6,61.6,31.8,61.7,32.5z"/>
		<path class="st24" d="M62.9,27.2c-0.5-0.1-0.9-0.2-1.5-0.3c0.1,0.6,0.1,1,0.2,1.4c-0.1,0.1-0.1,0.2-0.2,0.2
			c-0.7-0.7-1.8-0.2-2.5-1.2c-0.2-0.3-0.7-0.3-1.1-0.4c0.1-0.3,0.3-0.7,0.3-0.8c-0.4-1-0.7-1.8-1.1-2.7c0.8,0.4,1.5,0.8,2.3,1.3
			c0.3,0.2,0.6,0.5,0.9,0.7c0.8-0.8,1.3-0.6,1.5,0.5c1.2,0,0.6-0.8,0.7-1.2c1.7-0.6,2.2-0.4,2.1,0.9c-0.4,0.1-0.9,0.2-1.4,0.3
			c0.1,0.3,0.3,0.6,0.4,1C63.4,26.9,63.2,27,62.9,27.2z"/>
		<path class="st25" d="M62.4,18.8c-0.3-0.1-0.7-0.2-0.9-0.4c-0.3-0.2-0.5-0.5-0.8-0.8c0-0.3,0-0.6,0-0.9c0.1-1.2,0.7-1.5,1.8-1
			c0.2,0.1,0.5,0.1,0.7,0.1s0.5,0,0.7,0l0,0c0.2,0.1,0.4,0.3,0.6,0.4l0,0c0.3,0.6,0.7,1.3,1,1.9c0.1,0.1,0.3,0.1,0.5,0.1l0,0
			c-0.1,0.6,0.1,0.8,0.7,0.8l0,0c0,0.3-0.1,0.6-0.1,1.1c-1.1-0.4-1.6-1.8-2.9-1.3C63.3,18.5,62.9,17.8,62.4,18.8z"/>
		<path class="st3" d="M64.9,26.6c1.2,0.9,1.2,0.9,0.3,2.4c-0.4-0.3-1.2-0.7-1.2-0.9C64.1,27.6,64.6,27.1,64.9,26.6z"/>
		<path class="st24" d="M62.9,31.3c0-0.2,0-0.5-0.1-0.6c-0.7-0.7-0.7-1.6-0.4-2.5c0.8,0.6,1,1.5,1.2,2.4
			C63.8,31.1,63.4,31.3,62.9,31.3z"/>
		<path class="st22" d="M51.5,40.4c-0.5,0.2-1,0.5-1.6,0.7c0.2,0.3,0.5,0.6,0.5,0.9c0.1,0.5,0.3,1.4,0,1.6c-0.7,0.6-1.5,1.3-2.4,1.5
			c-1.7,0.4-3.5,0.4-5.2,0.6c-0.2,0-0.6,0.1-0.7,0c-0.7-0.4-1.1,0-1.4,0.5c-1.1-0.5-1.1-0.5-1.5-2.8c0.7-0.5,1.3-0.9,1.9-1.4
			c0.2,0,0.5,0,0.7,0c0.2,0.2,0.5,0.5,0.7,0.4c1.4-0.1,2.9-0.2,4.3-0.6c0.4-0.1,1.5-0.1,1.3-1.1l0,0C49.3,40.6,50.4,40.5,51.5,40.4z
			"/>
		<path class="st5" d="M41.9,42c-0.2,0-0.5,0-0.7,0c-0.6,0-1.3-0.1-1.9,0c-0.7,0.1-1.4,0.3-2.2,0.5c-0.2-0.1-0.3-0.2-0.5-0.3
			c0-0.1,0-0.2,0-0.3c0-0.2,0-0.3,0-0.5c0.8,0,1.6,0.2,2.3-0.1c1.3-0.5,2.5-0.1,3.8-0.3c1.1-0.2,2.4,0.3,3.4-0.7
			c0.3-0.3,0.7-0.5,1-0.8c0.2,0.1,0.5,0.2,0.7,0.4c0-0.1,0-0.2,0-0.3c0.4-0.1,0.8-0.3,1.2-0.3s1.8-0.4,2.1-0.6c0.3,0,0.5,0,0.8,0
			c0.8,0.3,1.6,0.1,2.3-0.3c1.4-0.7,2.7-1.3,4.3-0.7c-0.1,1.2-1.2,1.2-2,1.5c-0.1,0-0.2,0-0.3,0c-0.1-0.7-0.6-0.4-1-0.3
			c-1.2,0.3-2.3,0.6-3.5,0.8c-1.1,0.2-2.1,0.4-3.2,0.6c-0.1,0-0.2,0.3-0.2,0.4l0,0c-0.3,0-0.5,0-0.8,0c-1.2,0.3-2.3,0.6-3.5,0.9
			C43.3,41.8,42.6,41.9,41.9,42z"/>
		<path class="st16" d="M48.2,40.7c0.1-0.1,0.1-0.4,0.2-0.4c1.1-0.2,2.1-0.4,3.2-0.6c1.2-0.2,2.4-0.5,3.5-0.8c0.4-0.1,0.8-0.4,1,0.3
			c-1.5,0.4-3.1,0.9-4.6,1.3C50.4,40.5,49.3,40.6,48.2,40.7z"/>
		<path class="st8" d="M36.5,42.2c0.2,0.1,0.3,0.2,0.5,0.3c-0.1,0.1-0.2,0.2-0.3,0.3c-1.2,1-1.6,0.9-2.3-0.5
			C35.2,42.2,35.9,42.2,36.5,42.2z"/>
		<path class="st26" d="M52,28c-0.1,0.3-0.1,0.6-0.1,0.7c0.7,0.8,1.3,1.4,1.9,2.1c0.2,0.2,0.3,0.4,0.5,0.5c0.3,0.2,1,0.2,1,0.3
			c0,0.6-0.1,1.2-0.2,1.8c-0.1,0.3-0.3,0.5-0.4,0.7c-0.1-0.7-0.6-0.7-1.1-0.7c0.1,1,0.2,1.8,0.4,2.7c-0.3,0-0.5,0-0.8,0
			c-0.2-0.3-0.3-0.6-0.6-0.8c-0.8-0.5-1.7-0.9-2.8-1.4c0.2,0.5,0.3,0.8,0.5,1.1c0.2,0.5,0.2,0.8-0.4,0.9c-0.1,0-0.2,0-0.2,0
			c-0.2-0.2-0.3-0.5-0.5-0.7c-0.2,0.1-0.5,0.2-0.7,0.2c-0.5-0.2-1-0.4-1.4-0.5c0.1-0.4,0.2-0.7,0.3-1.1c-1.2,1-1.2,1-1.4,0.1
			c-0.3-0.4-0.7-0.9-1-1.3c-0.2-0.3-0.2-0.7-0.3-1.2c0.5,0.2,0.9,0.3,1.4,0.5c-0.3-0.8-0.5-1.4-0.6-2c0.2,0,0.3,0,0.5,0
			c0.3,0.3,0.8,0.5,0.9,0.9c0.3,0.9,0.9,0.7,1.5,0.6c0.1-0.4,0.3-0.8,0.4-1.3c0.4,0.5,0.7,0.8,0.9,1.1c0.3-1.2-0.8-1.9-0.7-2.9
			c0,0-0.3-0.1-0.4-0.2c-0.7,1.2-0.7,1.2-2,0.6c-0.1-0.1-0.2-0.1-0.4-0.1c-0.5-0.2-1-0.4-1.7-0.8c0.7-0.2,1.1-0.3,1.7-0.5
			c-0.2-0.4-0.4-0.7-0.6-1c-0.1-0.2-0.2-0.5-0.3-0.7c0.1-0.2,0.1-0.5,0.3-0.7c0.1-0.2,0.3-0.4,0.5-0.5c0.2,0.5,0.5,0.9,0.6,1.4
			c0.1,0.3,0.3,0.7,0.7,0.4c0.2-0.1,0.1-0.5,0.2-0.8c0.5-0.1,1-0.2,1.5-0.3c0.3,0,0.5,0,0.8,0c0,0.1,0,0.2,0,0.3
			c-0.3,0.1-0.5,0.2-0.8,0.3c-0.1,0.1-0.3,0.1-0.4,0.2c0.1,0.1,0.3,0.2,0.4,0.3c0.3,0.2,0.7,0.4,1,0.6c-0.4,1.1-0.2,1.4,0.8,1.4
			C51,28,51.5,28,52,28z"/>
		<path class="st24" d="M57.6,30.3c0.5,0.2,0.9,0.5,1.4,0.7c0,0.1,0,0.2,0,0.3c0.3-0.3,0.6-0.6,0.9-0.8c0-0.2,0-0.3,0-0.4
			c-0.2-0.4-0.4-0.7-0.6-1.1c0,0,0.3-0.3,0.4-0.3c0.6,0.2,1.4,0.3,1.7,0.7c0.5,0.6,0.8,1.5,1.1,2.3c-0.3,0.3-0.5,0.5-0.8,0.8
			c0-0.7-0.6-1-1-0.7c-1,0.6-1.9,0.3-2.8,0C57.8,31.3,57.7,30.8,57.6,30.3z"/>
		<path class="st24" d="M49.7,35.9c0.6-0.1,0.6-0.5,0.4-0.9c-0.1-0.3-0.3-0.6-0.5-1.1c1.1,0.6,2,1,2.8,1.4c0.3,0.1,0.4,0.5,0.6,0.8
			c-0.9,0-1.3,0.6-1.3,1.4c0,0.4,0,0.7,0,1.1c-0.3,0-0.5,0-0.8,0c0-0.2,0-0.3,0-0.5c0.1-0.7-0.1-1.3-0.8-1.6
			C50,36.4,49.9,36.1,49.7,35.9z"/>
		<path class="st24" d="M53.8,36.1c-0.1-0.9-0.2-1.7-0.4-2.7c0.5-0.1,1,0,1.1,0.7c0,0,0,0.1,0.1,0.1c0.5,0,1.2-0.1,1.5,0.2
			s0.2,1,0.2,1.5C55.5,35.9,54.6,36,53.8,36.1z"/>
		<path class="st5" d="M52,52.4c0.2,0.8,0.3,1.5,0.5,2.3c0,0.3,0,0.7,0,1c-0.8,0.1-1.2-0.1-0.9-1.1C51.9,53.9,51.9,53.1,52,52.4z"/>
		<path class="st2" d="M28.7,13.5c-0.4-0.3-1.4-0.2-0.8-1.3c0.4,0.3,0.7,0.6,1,0.8c0.6-0.3,1.2-0.6,1.8-0.9c0.2-0.8,0.5-1.7,0.7-2.6
			c0.1-0.4,0.2-0.9-0.5-1l0,0c0-0.3-0.1-0.6-0.1-1c-0.5,0.1-0.9,0.1-1.3,0.1c0.3-0.7,0.8-0.9,1.4-0.6c0.2,0.1,0.5,0.2,0.6,0.1
			c0.8-0.7,1.4-0.6,2.2,0c0.2,0.1,0.5,0.1,0.7,0.1c0,0.3-0.1,0.6-0.1,1C33.9,8,33.5,8,33.1,7.9c1,0.9,2,1.3,3.2,0.6
			C36,8,35.8,7.6,35.4,7c0.1-0.1,0.3-0.5,0.4-0.7c0.4-0.4,1,0.5,1.1-0.4c0.2-0.2,0.3-0.3,0.5-0.5c0.7,0.4,1.4,0.8,2,1.2
			c1,0.8,1.8,0.7,2.5-0.4C42,6.1,42.2,6,42.3,5.8c0.2,0.4,0.4,0.7,0.5,1c0.4,1.2,1.4,0.5,2.1,0.6c0.2,0.4,0.4,0.7,0.5,1
			c0.1,0,0.1-0.1,0.2-0.1c0-0.5,0-1,0-1.5c0.3,0,0.7-0.2,1,0c0.8,0.4,1.5,0.4,2.3,0c0.3,0,0.5,0,0.8,0c-0.4,1.1,0.9,1,1.4,1.8
			c-0.8,0.4-1.6,0.2-2.4,0.2c-0.1,0-0.2-0.1-0.3-0.1c0.1,0,0.2,0.1,0.3,0.1c0,0.1,0,0.2,0,0.3c-0.2,0.2-0.3,0.5-0.5,0.5
			c-1.5,0-2.4,0.6-2.8,2c-0.4,0.1-1.3-1.2-1.3,0.4c-0.4,0-0.8,0-0.7,0.5c0,0.6,0,1.3,0,2c-0.4,0-0.9,0-1.3,0c-0.3-0.4-0.7-0.7-1-1.1
			c-0.1,0-0.2,0.1-0.3,0.1c0,0.3-0.1,0.6,0,0.9c0.1,0.4,0.4,0.7,0.6,1.1c-0.2,0.3-0.3,0.6-0.5,0.8c-0.5,0.6-0.3,1,0.2,1.4
			c-0.2,0.2-0.3,0.4-0.5,0.5c0,1-0.5,0.8-1,0.5c-0.2,0-0.3,0-0.5,0c0.2-0.3,0.3-0.6,0.5-1c-0.4-0.2-0.7-0.4-1-0.6
			c0.6-0.2,1.1-0.4,1.6-0.6c-0.2-0.7-0.3-1.1-0.4-1.6c0.1,0,0.2-0.1,0.3-0.1L40,14.7c-0.1,0.1-0.2,0.1-0.3,0.2
			c-0.9-0.2-0.6,0.7-1,1.4c-0.2-0.4-0.4-0.7-0.5-1c-0.1-0.8-0.4-1-1.2-0.7c-0.3,0.1-0.7,0-1.1-0.1c-0.6-0.2-1.1-0.6-1.6-0.7
			c-0.3-0.1-0.9,0.1-1,0.4c-0.2,0.3,0,0.8,0.1,1.2c0.1,0.2,0.3,0.4,0.4,0.5c-0.3,1.4-1.1,0.4-1.7,0.6l0,0c0.2-0.4,0.4-0.7,0.6-1.2
			c-0.3-0.1-0.7-0.3-0.9-0.4c-0.3,0.3-0.6,0.8-0.7,0.7c-0.4-0.1-0.8-0.4-1-0.7C29.8,14.3,29.6,13.6,28.7,13.5z M38.8,11
			c-0.8-1.3-2.1-0.3-3-0.8c0.4,0.5,0.9,0.8,1.2,1.2c0.4,0.5,0.6,1.2,0.9,1.8c0.1,0,0.2,0,0.3,0c0.1-0.3,0.1-0.7,0.2-1
			C38.5,11.8,38.6,11.5,38.8,11z"/>
		<path class="st27" d="M45.7,6.9c0,0.5,0,1,0,1.5c-0.1,0-0.1,0.1-0.2,0.1c-0.2-0.3-0.3-0.6-0.5-1c-0.7,0-1.7,0.7-2.1-0.6
			c0.4-0.1,0.8-0.2,1.3-0.3c0.4,0.1,0.8,0.2,1.3,0.3C45.5,6.9,45.6,6.9,45.7,6.9z"/>
		<path class="st2" d="M45.4,6.9c-0.4-0.1-0.8-0.2-1.3-0.3c0.1-0.2,0.2-0.3,0.3-0.5C45,6,45.2,6.4,45.4,6.9z"/>
		<path class="st17" d="M29.4,41.7c-1.6,0-3.2,0-4.8,0c-0.6-0.1-1.1-0.2-1.7-0.2c-0.4,0-0.8,0.1-1.1,0.2c-0.3-0.1-0.7-0.2-1-0.2
			c0-0.2,0-0.4,0-0.5c0.8-0.1,1.7-0.2,2.5-0.3c0.2,0,0.4-0.3,0.5-0.4c-0.2-0.2-0.3-0.6-0.5-0.6c-0.9,0-1.1-0.5-1.1-1.3
			c-0.6,0-1.2,0-1.8,0c0-0.1-0.1-0.1-0.1-0.2c1-0.9,0.8-1.9,0.6-3c-0.1-0.8,0.1-1.6,0.1-2.5c0.8,0.1,0.4,0.8,0.5,1.2s0,0.9,0.2,1.1
			c0.5,0.5,1.1,0.9,1.8,1.2c0.1,0,0.4-0.2,0.5-0.4c0.1-0.1,0.2-0.3,0.4-0.7c0.1,0.7,0.1,1.1,0.2,1.5c1,0.4,2.1,0.5,2.3,1.8
			c0,0.1,0.3,0.3,0.4,0.3c0.2,0,0.4-0.2,0.5-0.3c0.1-0.2,0.2-0.5,0.4-0.8c0.5,0.7,1,1.2,1.1,1.8C29.5,40.2,29.4,41,29.4,41.7
			L29.4,41.7z"/>
		<path class="st21" d="M28.7,43.2c0.1,1.1-0.4,1.9-1.5,2.3c0.1-1-0.6-1.8-1.1-2.5C27,43.1,27.8,43.1,28.7,43.2z"/>
		<path class="st13" d="M20.8,40.9c0,0.2,0,0.4,0,0.5c-1-0.1-2-0.2-3.1-0.3c-0.6-0.1-1.1-0.3-1-1c0.2,0,0.3,0,0.5,0
			c0.7,0.9,1.7,0.3,2.5,0.5c0.2,0,0.3,0,0.5,0C20.5,40.8,20.6,40.8,20.8,40.9L20.8,40.9z"/>
		<path class="st13" d="M21.8,41.7c0.4-0.1,0.8-0.2,1.1-0.2c0.6,0,1.1,0.1,1.7,0.2c0,0.2,0,0.3,0,0.5C23.7,42,22.7,41.9,21.8,41.7z"
			/>
		<path class="st13" d="M14.2,39.7c0.7,0.1,1.4,0.2,2.1,0.3C15.5,40.2,14.8,40.6,14.2,39.7z"/>
		<path class="st28" d="M63.2,15.7c-0.2,0-0.5,0-0.7-0.1c-1.1-0.5-1.7-0.2-1.8,1c0,0.3,0,0.6,0,0.9c-0.3,0-0.5,0-0.8,0
			c-0.1-0.1-0.2-0.3-0.3-0.5c-0.2,0.4-0.3,0.6-0.4,0.8c-0.5-0.3-0.9-0.6-1.3-0.8v-0.1c0,0,0,0-0.1,0l0.1,0.1c0.2,0.5,0.3,1,0.5,1.5
			c-0.4-0.1-0.8-0.3-1.2-0.4c-0.3-0.1-1-0.2-1-0.1c-0.2,0.5,0.2,0.7,0.6,0.8c-0.4,0.3-0.8,0.5-1.3,0.8c-1,0.5-2,0.5-3,0
			c0-0.1,0-0.2,0-0.3c-0.3-0.2-0.5-0.3-0.8-0.5c0-0.2,0-0.3,0-0.5c0.3-0.2,0.5-0.3,0.8-0.5c0.3,0.3,0.6,0.7,0.8,1
			c0.5-0.3,0.9-0.5,1.3-0.8c-0.8-0.7-0.8-0.7-2.1-0.7c-0.5-0.3-1-0.5-1.5-0.8c0.1-0.4,0.2-0.7,0.4-1.1c-0.4-0.1-0.7-0.3-1.2-0.5
			c0.3-0.7,0.6-1.2,0.9-1.8c-0.1-0.1-0.3-0.2-0.5-0.4c0.5-0.2,0.8-0.3,1.2-0.5c0,0.2,0,0.4,0,0.5c0,0.5,0,0.9,0.7,0.7
			c0.2,0,0.4,0.3,0.6,0.5c-0.3,0.4-0.5,0.9-0.8,1.3c0.5,0.4,0.9,0.7,1.3,1c1.3,0.9,2.1,0.9,2.7,0c0.3-0.4,0.6-0.9,0.9-1.4
			c-0.2,0-0.4-0.1-0.8-0.1c0.2-0.3,0.3-0.5,0.4-0.7c-0.7-0.5-1.3-1-1.9-1.4c0.5,0,1,0,1.5,0c0.4,0.3,0.8,0.5,1.3,0.8
			c0.9,0.7,1.8,0.7,2.6,0c0.2-0.1,0.4-0.1,0.7-0.2c0.2,0,0.4,0,0.5,0c0.1,0.1,0.2,0.2,0.2,0.3c-0.1,0.6,0.2,0.8,0.7,0.8l0,0
			c-0.1,0.6,0.2,0.8,0.8,0.7l0,0C63.2,15.2,63.2,15.5,63.2,15.7z"/>
		<path class="st14" d="M56.3,12.7c-0.5,0-1,0-1.5,0c-0.1,0-0.2,0-0.3,0c-0.3-0.3-0.7-0.5-1-0.8c-0.2-0.2-0.3-0.3-0.5-0.5
			c-0.1-0.3-0.2-0.5-0.3-0.8c0.4-0.1,0.8-0.3,1.1-0.4C54,10,54,9.7,54,9.4c0.1,0,0.2-0.1,0.3-0.1c0,1,0.4,1.5,1.3,1.3
			c0.7-0.1,1.5-0.4,1.4-1.4c0.1,0,0.4,0,0.4,0.1c0.3,1.2,1.5,1.5,2.4,2.1c0.1,0.3,0.2,0.5,0.3,0.8c0.2,0.1,0.4,0.3,0.6,0.4
			c0.1,0,0.1,0.1,0.2,0.1c0,0.2,0,0.3,0,0.5c-0.2,0.1-0.5,0.1-0.7,0.2c-0.8,0.8-1.8,0.8-2.6,0c0.3-0.7,0.7-1.4,1.1-2.1
			c-0.5-0.2-0.9-0.3-1.5-0.5C56.9,11.5,56.6,12.1,56.3,12.7z"/>
		<path class="st3" d="M66,18.3c-0.2,0-0.4,0-0.5-0.1c-0.4-0.6-0.7-1.3-1-1.9C65.7,16.6,65.9,16.9,66,18.3z"/>
		<path class="st3" d="M62.4,14.2c-0.6,0.1-0.8-0.2-0.7-0.8C61.9,13.7,62.2,14,62.4,14.2z"/>
		<path class="st3" d="M63.2,15c-0.6,0.1-0.8-0.2-0.8-0.7C62.7,14.5,63,14.7,63.2,15z"/>
		<path class="st3" d="M63.2,15.7c0-0.3,0-0.5,0-0.8c0.2,0.3,0.5,0.5,0.7,0.8C63.7,15.8,63.5,15.7,63.2,15.7z"/>
		<path class="st3" d="M66.7,19.1c-0.6,0-0.8-0.2-0.7-0.8C66.3,18.5,66.5,18.8,66.7,19.1z"/>
		<path class="st3" d="M64.5,16.2c-0.2-0.1-0.4-0.3-0.6-0.4C64.1,15.9,64.3,16.1,64.5,16.2z"/>
		<path class="st3" d="M60.7,12.6c-0.2-0.1-0.4-0.3-0.6-0.4C60.3,12.3,60.5,12.5,60.7,12.6z"/>
		<path class="st3" d="M60.9,13.2c0-0.2,0-0.3,0-0.5c0.2,0.1,0.4,0.3,0.6,0.4C61.3,13.2,61.1,13.2,60.9,13.2z"/>
		<path class="st18" d="M57.1,9.3c0.1,1-0.7,1.2-1.4,1.4c-0.9,0.2-1.3-0.4-1.3-1.3c-0.1,0-0.2,0.1-0.3,0.1c0,0.3-0.1,0.6-0.1,0.9
			c-0.4,0.1-0.7,0.3-1.1,0.4c-0.8-0.3-1.7-0.5-2.5-0.8c-0.1-0.1-0.2-0.2-0.2-0.2c-0.4-0.2-0.8-0.3-1.3-0.5c0-0.1,0-0.2,0-0.3l0,0
			c0.8-0.1,1.5,0.2,2.4-0.2C50.9,8,49.6,8.1,49.9,7c0.3,0.1,0.6,0,0.8,0.2C51,7.5,51.4,7.7,52,7.4c0.3-0.1,0.7,0.2,1,0.3
			c1,0.4,2,0.8,3,1.1C56.4,9,56.8,9.1,57.1,9.3z"/>
		<path class="st2" d="M25.4,19.6c0.9-0.3,0.7-0.9,0.5-1.5c0.5-0.2,1-0.4,1.4-0.7c0.7-0.4,1.3-0.9,1.9-1.4c0.3,0.1,0.6,0.1,0.8,0.3
			c0.7,0.7,1.4,0.9,2.3,0.2l0,0c0.1,0.8,0.1,0.8,0.8,0.8c0.1,0,0.1,0.2,0.2,0.3c0.2,0.1,0.4,0.2,0.7,0.2c0,0.2,0,0.3,0,0.5
			c-0.1,0.2-0.2,0.3-0.2,0.5c-0.6-0.1-1.3-0.5-1.8,0.1c0.3,0.4,0.6,0.7,0.9,1.2c-0.5,0-0.8,0-1.2,0l0,0c-0.1-0.8-0.5-1.1-1.3-1
			c-0.3,0-0.7,0-1,0c-0.7,0.2-1.4,0.5-2.1,0.7c-0.2-0.2-0.3-0.4-0.5-0.6c-0.5,0.3-0.9,0.6-1.3,0.9c-0.1,0-0.2,0-0.3,0
			C25.4,19.9,25.4,19.7,25.4,19.6z"/>
		<path class="st27" d="M32.2,16.5c-0.8,0.7-1.6,0.5-2.3-0.2c-0.2-0.2-0.5-0.2-0.8-0.3c0-0.1,0-0.3,0-0.4c-0.9-0.6-0.5-1.4-0.5-2.2
			c0.9,0.2,1.1,0.9,1.5,1.5c0.2,0.3,0.6,0.6,1,0.7c0.1,0,0.4-0.4,0.7-0.7c0.2,0.1,0.6,0.2,0.9,0.4C32.6,15.8,32.4,16.2,32.2,16.5z"
			/>
		<path class="st2" d="M26.1,16.8c-0.1-0.4-0.4-0.8-0.3-1.1c0.1-1,1.1-1.4,2-0.9c-0.2,0.4-0.5,0.8-0.6,1.2
			C27,16.4,26.8,16.8,26.1,16.8L26.1,16.8z"/>
		<path class="st18" d="M31,8.4c-0.1,0.6-0.2,1.1-0.4,1.8c-0.9-0.3-1.8-0.4-1.9-1.5l0,0C29.5,9,30.2,8.6,31,8.4L31,8.4z"/>
		<path class="st18" d="M28.7,8.6c-0.3,0-0.6-0.1-1-0.1c0.1-1.1,0.7-0.9,1.4-0.8C28.9,8.1,28.8,8.3,28.7,8.6L28.7,8.6z"/>
		<path class="st2" d="M25.4,17.5c-0.2-0.1-0.3-0.2-0.5-0.3c0.3-0.1,0.5-0.2,0.8-0.3l0,0C25.5,17.2,25.5,17.4,25.4,17.5z"/>
		<path class="st2" d="M25.6,17c0.2-0.1,0.3-0.2,0.5-0.3l0,0C26,16.9,25.8,16.9,25.6,17L25.6,17z"/>
		<path class="st19" d="M21,22.1c0.8,0.1,0.5,0.6,0.2,1c0.4,0,0.8,0,1.1,0.1c0,0.1,0,0.1,0,0.2c-0.1,0-0.2,0-0.3,0
			c-0.1,0.1-0.1,0.1-0.2,0.2c-0.3,0.3-0.6,0.6-1,0.8c-0.1,0.1-0.4-0.2-0.6-0.3c-0.5-0.4-0.9-0.8-0.7-1.5c0.3-0.2,0.7-0.3,1-0.5
			C20.7,22.1,20.9,22.1,21,22.1z"/>
		<path class="st4" d="M21,22.1c-0.2,0-0.3,0-0.5,0c-0.2-0.5-0.6-1.1,0.3-1.5c0.1,0.4,0.2,0.7,0.2,1C21,21.8,21,21.9,21,22.1z"/>
		<path class="st4" d="M13.4,20.6c0.2,0.1,0.5,0.3,0.7,0.4c-0.1,0.1-0.2,0.2-0.3,0.3C13.7,21.1,13.6,20.8,13.4,20.6L13.4,20.6z"/>
		<path class="st14" d="M20.3,24.1c0.2,0.1,0.5,0.4,0.6,0.3c0.4-0.2,0.7-0.6,1-0.8c0.1-0.1,0.1-0.1,0.2-0.2c0.1,0,0.2,0,0.3,0
			c0,1,0.6,1.1,1.6,1.2c-0.3-0.6-0.4-1-0.6-1.4c0.4-0.2,0.9-0.3,1-0.6c0.3-0.5,0.6-0.4,1-0.4c0,0.3,0,0.7,0,1c0.3,1.3,0.3,1.2-1,1.8
			c-0.2,0.1-0.4,0.5-0.5,0.7c-0.4,0.3-0.8,0.5-1.3,0.8c-0.9,0.1-1.1-0.5-0.9-1.3c-0.1,0-0.2,0-0.4,0c-0.3,0.5-0.7,1.1-1,1.6
			c-0.3,0.2-0.6,0.3-1.1,0.6c-0.1-0.5-0.2-1-0.3-1.5c-1-0.4-1.4,0.6-2.2,0.9c0.7,1.3,0.6,1.6-0.7,2c-0.7,0.2-1.4,0.4-1.9,0.6
			c-0.5-1-1-1.8-1.4-2.6c0.2-0.2,0.5-0.3,0.7-0.5c0-0.1,0-0.1-0.1-0.2c-0.4,0-0.8,0-1.2-0.1c0.2-0.4,0.3-0.8,0.5-1.3
			c0.3,0,0.7-0.1,1,0s0.6,0.5,0.6,0.7c-0.1,0.8,0.2,0.9,0.9,0.7c0.4-0.1,0.7-0.2,1.1-0.2c0.4-1.3,1.3-2,3.1-1
			C19.7,24.6,20,24.4,20.3,24.1z"/>
		<path class="st27" d="M25.6,20.1c0.4-0.3,0.8-0.5,1.3-0.9c0.1,0.2,0.3,0.4,0.5,0.6c0.7-0.2,1.4-0.5,2.1-0.7c0,0.2,0,0.4,0,0.4
			c0.8,0.2,1.5,0.4,2.2,0.6l0,0c0.3,0.5,0.7,1,1,1.4c-0.5,0.4-0.9,0.7-1.2,0.9c-0.4,0.1-0.8,0.2-1.3,0.3c-0.2-0.3-0.5-0.7-0.7-1
			c-0.4-0.6-1.9-0.8-2.2-0.3c-0.4,0.7-0.9,0.5-1.4,0.5C25.8,21.3,25.7,20.7,25.6,20.1z"/>
		<path class="st28" d="M25.9,21.8c0.5,0,1,0.2,1.4-0.5c0.3-0.6,1.8-0.3,2.2,0.3c0.2,0.3,0.5,0.7,0.7,1c-0.1,0.3-0.2,0.7-0.2,1
			c-0.1,0.2-0.2,0.3-0.3,0.5c-0.4-0.2-0.7-0.3-1.1-0.5c-0.7-0.3-1.3-0.3-1.7,0.5l0,0c-0.2-0.1-0.3-0.3-0.5-0.4
			c-0.3-0.2-0.7-0.4-1-0.6c0-0.3,0-0.7,0-1C25.5,22,25.7,21.9,25.9,21.8z"/>
		<path class="st25" d="M23.4,23.1c0.2,0.4,0.4,0.8,0.6,1.4c-1-0.1-1.7-0.2-1.6-1.2c0-0.1,0-0.1,0-0.2c0-0.4,0-0.7,0-1.1
			C23.1,22.1,23.2,22.6,23.4,23.1z"/>
		<path class="st27" d="M25.4,19.6c0,0.2,0,0.3,0,0.5c-0.5,0.2-1.1,0.7-1.5-0.2C24.4,19.7,24.9,19.7,25.4,19.6z"/>
		<path class="st6" d="M12.2,25.9c0.4,0,0.8,0,1.2,0.1c0,0.1,0,0.1,0.1,0.2c-0.2,0.2-0.5,0.3-0.7,0.5c-0.3,0-0.5,0-0.8,0
			c0-0.1,0-0.2,0-0.3C12,26.3,12.1,26.1,12.2,25.9z"/>
		<path class="st5" d="M39.6,52.1c0.4,0,0.8,0,1.3,0c0.9,0.9,2,0.4,3,0.5c1.2,0.4,1.3,0.6,1.1,1.9c-0.8,0.3-1.3-0.2-1.6-1.1
			c-0.5,0.4-0.9,0.7-1.2,1c-0.2,0.2-0.5,0.4-0.8,0.4c-1,0.2-1.1,0.5-0.8,1.5c0,0.3,0,0.7,0,1c-0.8,0.1-1.1-0.2-1-1
			c0-0.3-0.1-0.6-0.1-1c-0.5,0.1-1,0.2-1.4,0.2c0.2-0.4,0.4-0.9,0.5-1.3c0.2-0.5,0.3-1,0.5-1.5C39.3,52.6,39.4,52.4,39.6,52.1z"/>
		<path class="st11" d="M33,56.2c1.3-0.8,1.3-0.8,0-2.3c0.6,0,1.2,0,1.8,0.1c0.2,0,0.6,0.1,0.7,0.2c0.5,1.1,1.5,2,1.3,3.4
			c-0.8,0.1-1.5,0.3-2-0.6c-0.1-0.2-0.5-0.2-0.7-0.4C33.7,56.5,33.3,56.4,33,56.2z"/>
		<path class="st8" d="M39.6,52.1c-0.2,0.3-0.3,0.5-0.5,0.8c-0.5-0.9-1.5-0.7-2.3-0.8c0.3-0.2,0.5-0.3,0.8-0.5c0.3,0,0.5,0,0.8,0
			c0.3,0.1,0.5,0.2,0.8,0.3C39.3,52,39.4,52,39.6,52.1z"/>
		<path class="st5" d="M38.1,55.9c0,0.6,0.7,1.6-0.7,1.5C37.4,56.9,37.3,56.2,38.1,55.9z"/>
		<path class="st8" d="M34.8,51.9c0.2,0.1,0.3,0.2,0.5,0.3C34.9,52.5,34.8,52.2,34.8,51.9z"/>
		<path class="st16" d="M43.9,52.6c-1-0.1-2.2,0.4-3-0.5c0.1-0.1,0.2-0.2,0.3-0.3c1.1,0.1,2.2,0.2,3.3,0.3
			C44.2,52.3,44.1,52.5,43.9,52.6z"/>
		<path class="st5" d="M52.5,56.7c-0.2,0.2-0.5,0.3-0.7,0.5C52,57,52.3,56.9,52.5,56.7z"/>
		<path class="st3" d="M29.4,41.7c0-0.7,0.1-1.5-0.1-2.2c-0.2-0.6-0.7-1.1-1.1-1.8c-0.2,0.4-0.2,0.6-0.4,0.8
			c-0.1,0.1-0.3,0.3-0.5,0.3s-0.4-0.2-0.4-0.3c-0.2-1.3-1.3-1.5-2.3-1.8c0-0.4-0.1-0.8-0.2-1.5c-0.2,0.4-0.3,0.6-0.4,0.7
			c-0.2,0.2-0.5,0.4-0.5,0.4c-0.6-0.4-1.2-0.7-1.8-1.2c-0.2-0.2-0.1-0.7-0.2-1.1c-0.1-0.4,0.3-1.1-0.5-1.2c-0.1-0.3-0.2-0.5-0.3-0.8
			c0.1-0.5,0.5-1.2,0.3-1.5c-0.8-1.5,0.2-1.7,1.2-2c0.6,0,1,0.2,0.7,0.8c-0.3,0.6-0.8,1.2,0.2,1.5c0.9,0.3,1.4,0.1,1.8-0.9l0.1-0.1
			c1.8-0.2,1.8-0.2,2.3,1.1c0.7-0.4,0.7-0.6-0.1-2c1.7-0.6,2.9-0.6,5.2,0c-0.1,0.9,0.1,1.6,0.9,2c0.2,0.1,0.2,0.4,0.3,0.6
			c-0.2,0.1-0.5,0.1-0.7,0.2c-0.3-0.2-0.5-0.3-0.8-0.5c-0.2-0.2-0.5-0.4-0.7-0.4c-0.5,0-1.3,0.1-1.4,0.4c-0.3,0.6-0.2,1.3,0.6,1.6
			c-0.2,0.8-0.3,1.5-0.5,2.3c-0.1,0.5-0.3,1-0.4,1.6c-0.1,0-0.2,0-0.3,0c-0.2-0.3-0.3-0.7-0.6-1.2c-0.4,0.5-1.2,0.4-1.1,1.2
			c0.7,0.3,1.4,0.6,2.2,1c0.1-0.1,0.4-0.3,0.8-0.5c0.2,0.3,0.3,0.5,0.6,0.9c0.3-0.5,0.6-0.9,0.9-1.4c0.3,0,0.8-0.2,0.6,0.6
			c0.5,0.1,1.1,0.2,1.5,0.2c0.2-0.3,0.3-0.6,0.5-0.9c0.7,1.9,1.3,3.4,1.8,4.9c0,0.2,0,0.3,0,0.5c-0.6-0.1-1.1-0.2-1.7-0.3
			c-0.2,0-0.5-0.2-0.7-0.2c-1.4,0.1-2.8,0.2-4.2,0.3C29.8,41.8,29.6,41.7,29.4,41.7z"/>
		<path class="st25" d="M22.6,26.4c0.4-0.3,0.8-0.5,1.3-0.8l0,0c0.2,0.2,0.3,0.3,0.5,0.5c0.7,0.4,1.2,0.2,1.2-0.6
			c0.1-0.5,0.3-0.7,0.8-0.7c0.2,0.3,0.3,0.7,0.5,1c-0.9,0-1.3,0.2-0.5,1.2c-1.6-0.1-2.6,1.4-4.1,1.1c-0.4-0.2-0.8-0.3-1.3-0.5
			c0-0.3,0-0.5,0-0.8c0.5,0.1,1,0.2,1.5,0.4c0.5,0.2,0.9,0,1.2-0.5C23.3,26.7,22.9,26.6,22.6,26.4z"/>
		<path class="st17" d="M21.1,27.7c0.4,0.2,0.8,0.3,1.3,0.5c0,0.1,0,0.2,0,0.3c-1,0.3-2,0.6-1.2,2c0.2,0.3-0.2,1-0.3,1.5
			c-0.3,0-0.7,0-0.8-0.1c-0.4-0.5-0.8-1-1.2-1.5c-0.1-0.1,0-0.5,0.1-0.6c0.9-0.4,0.9-1.2,1-2.1c0.4,0.2,0.8,0.4,1.1,0.6
			C21,28,21.1,27.9,21.1,27.7z"/>
		<path class="st17" d="M16.4,31.2c0.1-0.4,0.2-0.8,0.3-1.1c1.2,0.5,1.3,3.6,0,5c-0.1-0.8,0-1.7-0.3-2.3s-1.1-0.9-1.8-1.4
			C15.1,31.3,15.7,31.3,16.4,31.2z"/>
		<path class="st6" d="M17.3,38.4c-0.7,0.5-1.5,0.8-2.3,0.2c0-0.5,0-1,0-1.5c0.2,0.2,0.3,0.3,0.5,0.5c0.4-0.5,0.8-0.9,1.1-1.4
			c0-0.1-0.1-0.2-0.1-0.4c0.1,0.5,0.2,1,0.3,1.6c0.4,0.2,0.7,0.4,1.3,0.8C17.7,38.3,17.5,38.3,17.3,38.4z"/>
		<path class="st28" d="M22.6,26.4c0.4,0.1,0.7,0.3,1.2,0.4c-0.3,0.5-0.6,0.7-1.2,0.5c-0.5-0.2-1-0.3-1.5-0.4
			c-0.3-0.1-0.5-0.2-0.8-0.3c0.3-0.5,0.7-1.1,1-1.6c0.1,0,0.2,0,0.4,0C21.5,26,21.6,26.5,22.6,26.4z"/>
		<path class="st6" d="M19.4,38.7c-0.6-0.7-0.2-1.5-0.3-2.3C19.9,36.8,20,37.7,19.4,38.7z"/>
		<path class="st7" d="M19.8,40.7c-0.8-0.2-1.8,0.5-2.5-0.5c0.1-0.1,0.2-0.2,0.3-0.3c0.5,0.1,1.1,0.1,1.6,0.3
			C19.3,40.3,19.6,40.5,19.8,40.7z"/>
		<path class="st7" d="M20.8,40.9c-0.2-0.1-0.3-0.2-0.5-0.2C20.7,40.3,20.8,40.6,20.8,40.9z"/>
		<path class="st16" d="M39.1,51.9c-0.3-0.1-0.5-0.2-0.8-0.3C38.7,51.2,39,51.3,39.1,51.9z"/>
		<path class="st9" d="M45.7,24.2c-0.2,0.2-0.4,0.3-0.5,0.5s-0.2,0.5-0.3,0.7c-0.1,0-0.2,0-0.2,0.1c-0.2,0.8-1.2,1.1-1.1,2
			c0,0.1-0.5,0.3-0.7,0.4c-0.2-0.3-0.3-0.6-0.5-1c-0.1-0.1-0.2-0.1-0.3-0.2c-0.1,0.4-0.3,0.7-0.4,1c-0.6-0.4-0.9-0.6-1.5-0.9
			c0.3,0.9,0.5,1.6,0.7,2.2c-0.7,0.1-1.4,0.1-2.1,0.2c-0.5,0-1,0-1.4,0c0.1-0.9,0.1-1.6,0.2-2.3c0.7-0.6,0.7-0.6,0.6-2.2
			c1.1,0.1,2.4-0.3,3,0.9c0.6-0.9,1.1-1.8,1.7-2.7c0.1-0.1,0.6,0,0.8,0.1c0.4,0.3,0.7,0.6,0.9,0.9c0.4-0.6,0.8-1.3,1.3-1.8
			c0.2-0.2,0.7,0.1,1.1,0.1c-0.2,0.3-0.3,0.5-0.5,0.8C45.8,23.2,45.7,23.6,45.7,24.2z"/>
		<path class="st28" d="M31.5,22.4c0.3-0.3,0.7-0.5,1.2-0.9c-0.3-0.4-0.6-0.9-1-1.4c0.3,0,0.7,0,1.2,0c-0.4-0.5-0.7-0.8-0.9-1.2
			c0.6-0.6,1.2-0.2,1.8-0.1c-0.1,0.3-0.3,0.6-0.4,0.9c0.4,0.4,0.8,0.8,1.2,1.2c0.6,0.4,1.4,0.2,1.6-0.5c0.4-1.1,0.7-1.2,1.8-0.7
			c0.4,0.2,0.9,0.3,1.3,0.5c-1.5-0.9-1.7-1.2-1.5-1.8c0.5,0.2,0.9,0.3,1.3,0.5c0.2,0,0.3,0,0.5,0c0.3,0.6,0.7,1.2,1,1.8
			c0.2,0.6,0.3,1.2,0.6,2c-0.3,0.1-0.7,0.2-1.2,0.3c-0.1-0.6-0.1-1-0.2-1.6c-1.1,0.1-2.2,0.1-3.3,0.3c-0.2,0-0.5,0.5-0.5,0.7
			c-0.2,1.4-0.6,1.7-1.9,1.8c-0.4-0.9-1.2-0.3-1.8-0.5l0,0c-0.2-0.3-0.3-0.5-0.5-0.8c-0.1,0-0.2,0-0.3,0
			C31.5,22.7,31.5,22.5,31.5,22.4z"/>
		<path class="st27" d="M42.1,14.5c0.4,0,0.9,0,1.3,0c0-0.7,0-1.4,0-2s0.4-0.5,0.7-0.5l0,0c0.1,0.6,0.2,1.2,0.3,1.8
			c0,0.4,0,0.8,0.1,1.3c1-0.7,1.8-0.9,2.7-0.6c-0.1,0.7-0.7,0.5-1.1,0.5c-0.8-0.1-1.1,0.3-1,1c0.2,1.2,1.2,1.4,2.3,1.7
			c-0.1,0.2-0.2,0.4-0.2,0.6c-1-0.1-1.9-0.1-2.9-0.2c0,0.1,0,0.3,0,0.4c0.6,0.1,1.2,0.2,1.7,0.3c0.2,0,0.3,0.2,0.5,0.3
			c-0.8,0.1-1.5,0.2-2.3,0.3c-0.4,0.2-0.8,0.3-1.2,0.5c-0.3-0.5-0.6-0.9-0.8-1.3c0-0.7-0.5-0.8-1-0.8c-0.5-0.4-0.7-0.9-0.2-1.4
			c0.2-0.2,0.3-0.6,0.5-0.8C42.2,15.6,42.1,15,42.1,14.5z"/>
		<path class="st9" d="M57.1,23.4c0.3,0.9,0.7,1.7,1.1,2.7c-0.1,0.2-0.2,0.5-0.3,0.8c-0.2,0-0.3,0-0.5,0c-0.1,0-0.2,0-0.2,0
			c0.1-0.8-0.3-1.3-0.8-1.8c-0.3-1-1.1,0.1-1.6-0.4c-0.1-0.4-0.2-0.8-0.3-1.3c-0.6,0.8-1.6,1.2-2.3,0.8c-0.3-0.2-0.3-0.8-0.5-1.3
			c0-0.1,0-0.2,0-0.4c1.2-0.1,1.7-1.2,2.7-1.7c0.1,0.4,0.1,0.8,0.2,1.2C55.5,22.5,56.3,23,57.1,23.4z"/>
		<path class="st9" d="M33,31.8c0.2-0.1,0.5-0.1,0.7-0.2c-0.1-0.2-0.1-0.5-0.3-0.6c-0.8-0.4-1-1.1-0.9-2c0.2,0,0.3,0,0.5,0
			c0.2,0.3,0.5,0.5,0.8,1c0.1-0.7,0.2-1.1,0.2-1.5c0.7-0.3,1.3-0.5,2-0.8c0.3,1.1,0.5,2.3,0.7,3.2c-0.8,0.4-1.4,0.8-2,1.1
			c-1.2,0-0.6,1-1,1.5c-0.2,0-0.3,0-0.5,0c0-0.3,0-0.7,0-1c-0.1-0.1-0.2-0.2-0.3-0.3C33,32.1,33,31.9,33,31.8z"/>
		<path class="st24" d="M34.8,32c0.6-0.3,1.2-0.7,2-1.1c-0.2-0.9-0.5-2.1-0.7-3.2c0-0.2,0-0.3,0-0.5c0.3-0.3,0.5-0.7,0.8-1
			c0.3,0.3,0.5,0.5,0.8,0.8c-0.1,0.7-0.1,1.4-0.2,2.3c0.5,0,1,0,1.4,0c-0.2,0.7-0.3,1.3-0.5,2c0,0.7,0,1.4,0,2c-0.3,0-0.5,0-0.8,0
			c-0.5-1-0.7-1.1-1.8-0.8c-0.3,0-0.7,0-1,0C34.8,32.4,34.8,32.2,34.8,32z"/>
		<path class="st28" d="M46.4,19.1c-0.2-0.1-0.3-0.2-0.5-0.3c-0.6-0.1-1.2-0.2-1.7-0.3c0-0.1,0-0.3,0-0.4c1,0.1,1.9,0.1,2.9,0.2
			c0.8,0.2,0.8,0.2,0.7-1c-0.4-0.3-1-0.5-1.1-0.8c-0.2-1.4-0.9-0.8-1.6-0.5c-0.1-0.7,0.1-1.1,1-1c0.4,0,1,0.2,1.1-0.5
			c0.3,0,0.5,0,0.8,0c-0.1,0.3-0.3,0.6-0.4,0.8c0.2,0.3,0.4,0.5,0.6,0.8c-0.5,0.8,0.1,1.1,0.7,1.4c-0.2,0.6-0.4,1.2,0.4,1.5
			c0.1,0,0.1,0.4,0.1,0.6s0.1,0.4,0.1,0.7c-0.8,0.3-1.5,0.1-2.1-1c-0.2,0.6-0.3,1-0.4,1.3c-0.5-0.2-1-0.4-1.4-0.5
			C45.9,19.7,46.2,19.4,46.4,19.1z"/>
		<path class="st24" d="M51.8,22.6c0,0.1,0,0.3,0,0.4c0.1,0.4,0.2,1.1,0.5,1.3c0.7,0.4,1.6,0,2.3-0.8c0.1,0.6,0.2,0.9,0.3,1.3
			c0.4,0.4,1.2-0.6,1.6,0.4c-0.1,0.5-0.3,1.1-0.4,1.6c-0.4,0.1-0.8,0.3-1.1,0.4c-0.3,0-0.5,0-0.8,0c-0.8-0.8-1.7-1.5-2.5-2.3
			c-0.1-0.2-0.3-0.4-0.4-0.5c-0.3-0.3-0.6-0.6-0.9-0.8c0.4-0.5,0.6-0.7,0.8-1C51.3,22.6,51.5,22.6,51.8,22.6z"/>
		<path class="st25" d="M49.5,19.6c0-0.2,0-0.6-0.1-0.6c-0.9-0.3-0.6-0.9-0.4-1.5c-0.7-0.3-1.2-0.6-0.7-1.4c0.8,0.1,1.7-0.5,2.3,0.5
			c-0.3,1.1,0.9,1.2,1.3,1.8c0,0.2,0,0.3,0,0.5c-0.5,0.4-0.5,0.4-1.2,0.1C50.2,19.1,49.9,19.4,49.5,19.6z"/>
		<path class="st9" d="M51,22.6c-0.2,0.3-0.4,0.5-0.8,1c0.3,0.2,0.6,0.5,0.9,0.8c0.2,0.2,0.3,0.3,0.4,0.5c-0.2,0-0.3,0-0.5,0
			c-0.3-0.1-0.5-0.2-0.8-0.3c-0.3,0.1-0.5,0.2-0.8,0.2s-0.5,0-0.8,0c0-0.5,0-0.9-0.1-1.4c-0.1,0-0.2,0-0.2,0
			c-0.1,0.2-0.2,0.3-0.3,0.4c-0.3-0.5-0.6-1-0.9-1.5C48.5,22.4,49.7,22.5,51,22.6z"/>
		<path class="st25" d="M58.4,18.5c-0.2-0.5-0.3-1-0.5-1.5l0,0c0.4,0.3,0.8,0.5,1.3,0.8c0.1-0.2,0.2-0.4,0.4-0.8
			c0.1,0.2,0.2,0.4,0.3,0.5c0.1,0.9,0.2,1.7,0.3,2.7c-0.6,0-1.1,0.1-1.6,0.1l0,0C58.5,19.7,58.5,19.1,58.4,18.5z"/>
		<path class="st25" d="M30.2,24.9c0.1-0.1,0.2-0.1,0.3-0.2c0.4-0.1,0.7-0.1,1.1-0.2c-0.2,0.2-0.4,0.5-0.6,0.8c0,0.2,0,0.4,0,0.6
			c-0.3,0.2-0.7,0.4-1,0.5c-0.4-0.4-0.5-0.2-0.8,0.2c-0.5,0.7-1,0.7-1.5,0.1c0.3-0.4,0.5-0.9,0.8-1.3C29,25.2,29.8,25.9,30.2,24.9z"
			/>
		<path class="st1" d="M47.2,22.4c0.3,0.5,0.6,1,0.9,1.5c0.1-0.1,0.2-0.3,0.3-0.4c0.1,0,0.2,0,0.2,0c0,0.5,0,0.9,0.1,1.4
			c-0.5,0.1-1,0.2-1.5,0.3c-0.3-0.3-0.6-0.5-0.7-0.8c-0.1-0.4,0-0.8,0-1.2c0.2-0.3,0.3-0.5,0.5-0.8C47,22.4,47.1,22.4,47.2,22.4z"/>
		<path class="st27" d="M30.2,24.9c-0.4,1-1.2,0.3-1.8,0.5c-0.5-0.4-1-0.8-1.5-1.3c0.4-0.8,1-0.7,1.7-0.5c0.4,0.1,0.7,0.3,1.1,0.5
			C29.9,24.4,30,24.7,30.2,24.9z"/>
		<path class="st25" d="M55.6,19.6c0.4-0.3,0.8-0.5,1.3-0.8c0.3,0.3,0.6,0.5,0.7,0.9c0.2,0.6,0.5,0.7,1,0.7l0,0c0,0.5,0,0.9-0.1,1.4
			c0,0.1-0.3,0.3-0.5,0.3c-0.1,0-0.3-0.2-0.4-0.4C57.4,20.4,56.8,19.8,55.6,19.6z"/>
		<path class="st25" d="M32.2,23.6c0.6,0.2,1.4-0.4,1.8,0.5c0.1,0.8-0.6,1-1.1,1.1c-0.7,0-0.6-0.6-0.6-1.1
			C32.2,24,32.2,23.8,32.2,23.6z"/>
		<path class="st28" d="M26.9,24.1c0.5,0.4,1,0.8,1.5,1.3c-0.3,0.4-0.5,0.9-0.8,1.3c-0.3-0.3-0.5-0.5-0.8-0.8
			c-0.2-0.3-0.3-0.7-0.5-1C26.6,24.7,26.7,24.4,26.9,24.1L26.9,24.1z"/>
		<path class="st9" d="M29.9,26.5c0.3-0.2,0.7-0.4,1-0.5c1,0.4,0.4,1.1,0.3,1.7c-0.6-0.1-1.1-0.2-1.7-0.3
			C29.7,27,29.8,26.7,29.9,26.5z"/>
		<path class="st25" d="M46.4,19.1c-0.3,0.3-0.5,0.7-0.8,1c-1.3,0.5-1.4,0.4-1.5-0.7C44.9,19.3,45.7,19.2,46.4,19.1z"/>
		<path class="st27" d="M40.6,20.6c-0.3-0.6-0.7-1.2-1-1.8c0.6,0.3,1.1,0.5,1-0.5c1,0.2,0.3,1,0.5,1.5C41,20.1,40.8,20.3,40.6,20.6z
			"/>
		<path class="st25" d="M41.1,19.8c-0.2-0.5,0.4-1.3-0.5-1.5c0.2-0.2,0.3-0.4,0.5-0.5c0.5,0,1,0.1,1,0.8c-0.1,0.2-0.2,0.4-0.2,0.6
			C41.9,19.7,41.6,19.9,41.1,19.8z"/>
		<path class="st25" d="M31.5,22.4c0,0.2,0,0.3,0,0.5c0,1.1,0,1.1-0.8,0.8c0-0.1,0.1-0.2,0.1-0.4c0,0.1-0.1,0.2-0.1,0.4
			c-0.3,0-0.5,0-0.8,0c0.1-0.3,0.2-0.7,0.2-1C30.6,22.5,31,22.5,31.5,22.4z"/>
		<path class="st3" d="M34,28.5c-0.1,0.4-0.1,0.8-0.2,1.5c-0.3-0.4-0.6-0.7-0.8-1c0-0.2,0-0.5,0.1-0.7s0.4-0.3,0.6-0.5
			C33.8,28,33.9,28.2,34,28.5z"/>
		<path class="st9" d="M36.8,26.2c-0.3,0.3-0.5,0.7-0.8,1C35.8,26.2,36.1,25.9,36.8,26.2z"/>
		<path class="st25" d="M41.5,20.8c0.1,0.2,0.2,0.4,0.4,0.6c-0.1,0.1-0.1,0.1-0.2,0.2c-0.1-0.2-0.3-0.3-0.4-0.5
			C41.3,20.9,41.4,20.9,41.5,20.8z"/>
		<path class="st25" d="M31.7,22.9c0.2,0.3,0.3,0.5,0.5,0.8C32.1,23.4,31.9,23.1,31.7,22.9z"/>
		<path class="st9" d="M58.6,22.9L58.5,23C58.5,23,58.5,22.9,58.6,22.9L58.6,22.9L58.6,22.9z"/>
		<path class="st25" d="M52.5,19.3c0,0.1,0,0.2,0,0.3C52.5,19.5,52.5,19.4,52.5,19.3z"/>
		<path class="st24" d="M50.3,24.7c0.3,0.1,0.5,0.2,0.8,0.3c-0.3,1.1,0.4,1.4,1.3,1.7c0,0.4,0,0.7,0,1.1c-0.1,0.1-0.2,0.2-0.3,0.3
			c-0.5,0-1,0-1.5,0c-1.1,0-1.3-0.3-0.8-1.4c-0.3-0.2-0.6-0.4-1-0.6c0-0.2,0-0.3,0-0.5c0.3-0.1,0.5-0.2,0.8-0.3
			C49.7,25,50,24.8,50.3,24.7z"/>
		<path class="st26" d="M52.3,27.7c0-0.3,0-0.7,0-1.1c-0.8-0.3-1.5-0.7-1.3-1.7c0.2,0,0.3,0,0.5,0c0.8,0.8,1.7,1.5,2.5,2.3
			c0,0.2,0,0.3,0,0.5c-0.3,0-0.7,0-1,0C52.8,27.7,52.5,27.7,52.3,27.7z"/>
		<path class="st26" d="M54.8,27.2c0.4-0.1,0.7-0.3,1.1-0.4c0.1-0.5,0.3-1.1,0.4-1.6c0.5,0.5,0.9,1,0.8,1.8c0,0.1,0,0.2,0,0.3
			c0.1,1-0.7,0.7-1.2,0.8C55.4,28,54.7,28.1,54.8,27.2z"/>
		<path class="st24" d="M53,27.7c0.3,0,0.7,0,1,0c0.8,0.2,0.5,0.7,0.3,1.2c-0.1,0.3-0.3,0.6-0.5,0.9C53.1,29.3,52.9,28.6,53,27.7z"
			/>
		<path class="st26" d="M57.6,30.3c0.1,0.5,0.2,1,0.3,1.5c-0.2-0.2-0.4-0.4-0.7-0.5c-1.2-0.4-1.2-0.4-0.9-1.8
			C56.8,29.7,57.2,30,57.6,30.3z"/>
		<path class="st24" d="M57.1,27.2c0-0.1,0-0.2,0-0.3c0.1,0,0.2,0,0.2,0C57.3,27,57.2,27.1,57.1,27.2z"/>
		<path class="st0" d="M41.9,42c0.7-0.1,1.4-0.2,2.1-0.4c1.2-0.3,2.3-0.6,3.5-0.9c0.2-0.1,0.5,0,0.8,0c0.1,1-0.9,1-1.3,1.1
			c-1.4,0.4-2.8,0.5-4.3,0.6C42.4,42.5,42.1,42.1,41.9,42z"/>
		<path class="st10" d="M33.2,33.6c0.2,0,0.3,0,0.5,0c0,0.7,0.5,0.8,1,0.8c0.2,0.1,0.3,0.2,0.5,0.3c0.3,0,0.5,0,0.8,0
			c0.6-0.1,1.2-0.1,1.8-0.2c0.5,1.2,0.5,1.2-0.6,1.8c-0.3,0.2-0.5,0.6-0.8,0.9c0.1,0.1,0.2,0.2,0.2,0.2c0.4-0.2,0.8-0.5,1.3-0.8
			c0.2,0.3,0.3,0.7,0.5,1c0.1-0.1,0.2-0.2,0.4-0.2c0.1-0.4,0.2-0.8,0.4-1.2c0.5,0,0.8,0.1,1.2,0.1c0-0.1,0.1-0.2,0.1-0.3
			c-0.3-0.2-0.5-0.5-0.8-0.6C39,35.3,39,34.8,39,34.3c0.5,0,1,0,1.5,0c0.3,0.5,0.4,1.3,1.3,1.3c0,0.3,0,0.5,0,0.8
			c-0.3,0.3-0.6,0.6-0.9,1c-0.3-0.1-0.8-0.1-1.3-0.2c0.1,1-1.2,1.9,0.1,2.7c0.4-0.4,0.9-0.8,1.3-1.3c0.5,0.7,0.9,1.2,1.1,1.6
			c0.8,0,1.3,0,1.8,0c0.7,0.1,1.2-0.1,1.6-0.9c-0.8,0-0.4-1.5-1.6-1c0,0.4,0,0.7,0,1.1c-0.1,0-0.2,0.1-0.3,0.1
			c-0.7-0.7-1.2-1.7-1.6-2.6c0.8,0.2,1.5,0.3,2.3,0.5c0.3,0.1,0.7,0.2,1,0.3c0.2,0.1,0.4,0.3,0.5,0.4c0.1,0.7,0.6,0.8,1.3,0.8
			c-0.1-0.4-0.2-0.7-0.3-1c0.2-0.4,0.5-0.8,0.8-1.3c0.2,0.2,0.3,0.4,0.5,0.5c0.2,0.3,0.3,0.9,0.5,0.9c0.8,0.1,1.5,0,2.3,0
			c0,0.2,0,0.3,0,0.5c-0.2,0.3-1.6,0.6-2.1,0.6c-0.4,0-0.8,0.2-1.2,0.3c0,0.1,0,0.2,0,0.3c-0.2-0.1-0.5-0.3-0.7-0.4
			c-0.4,0.3-0.7,0.5-1,0.8c-1,1-2.3,0.6-3.4,0.7c-1.2,0.2-2.5-0.2-3.8,0.3c-0.7,0.3-1.5,0.1-2.3,0.1c-0.6-1.5-1.1-3-1.8-4.9
			c-0.2,0.3-0.3,0.5-0.5,0.9c-0.4-0.1-0.9-0.1-1.5-0.2c0.3-0.8-0.3-0.6-0.6-0.6c-0.3,0.5-0.6,0.9-0.9,1.4c-0.3-0.4-0.4-0.6-0.6-0.9
			c-0.3,0.2-0.7,0.5-0.8,0.5c-0.8-0.4-1.5-0.7-2.2-1c-0.1-0.9,0.7-0.8,1.1-1.2c0.3,0.5,0.4,0.8,0.6,1.2c0.1,0,0.2,0,0.3,0
			c0.1-0.5,0.3-1,0.4-1.6c0.7,0.1,1.4,0.6,1.9-0.2c-0.1-0.3-0.2-0.5-0.2-0.7c0.1,0,0.1-0.1,0.2-0.1c0.3,0.2,0.5,0.5,1,0.9
			C33.1,34.3,33.2,33.9,33.2,33.6z"/>
		<path class="st1" d="M45.4,37.6c-0.3-0.1-0.7-0.2-1-0.3c0-0.6-0.1-1-0.8-1c-0.3,0-0.5-0.3-0.8-0.4c-0.3-0.1-0.7-0.2-1-0.3
			c-0.9,0-0.9-0.8-1.3-1.3c0-0.6,0-1.2,0-1.8c0.2-0.3,0.5-0.6,0.5-0.8c-0.2-0.7-0.4-1.4-0.8-2.4c-0.3,0.4-0.5,0.7-0.7,1
			S39,31,38.7,31.4c-0.1,0-0.3,0-0.5-0.1c0.2-0.7,0.3-1.3,0.5-2c0.7-0.1,1.4-0.1,2.1-0.2c-0.2-0.6-0.4-1.2-0.7-2.2
			c0.6,0.4,0.9,0.6,1.5,0.9c0.1-0.3,0.3-0.7,0.4-1c0.1,0.1,0.2,0.1,0.3,0.2c0.2,0.3,0.3,0.6,0.5,1c0.5,0.9,1.1,1.7,2.3,1.8
			c0.2,0.6,0.4,1.2,0.6,2c-0.6-0.2-0.9-0.3-1.4-0.5c0.1,0.5,0.1,0.9,0.3,1.2c0.3,0.5,0.7,0.9,1,1.3c-0.2,0-0.5,0-0.7-0.1
			c0.1,0.6,0.1,1.1,0.2,1.6c-0.6-1-1.2-1.9-1.7-2.9c-0.7-1.4-1.1-1.8-2.1-1.7c0.2,0.7,0.3,1.4,0.5,2.1c0,0.2,0,0.5,0,0.8
			c0.1,0.9,0.5,1.3,1.4,1.2c0.2,0,0.5-0.1,0.8-0.2c0,0.8,0.4,1.1,1.1,1c0.1,0.4-0.3,1.1,0.5,1.3C45.6,37.1,45.5,37.4,45.4,37.6z"/>
		<path class="st24" d="M45.7,36.9c-0.8-0.2-0.4-0.8-0.5-1.3c0-0.1,0-0.2,0-0.3c-0.1-0.5-0.1-1-0.2-1.6c0.2,0,0.5,0.1,0.7,0.1
			c0.2,0.8,0.2,0.8,1.4-0.1c-0.1,0.5-0.2,0.7-0.3,1.1c0.5,0.2,1,0.4,1.4,0.5c0.2,0.5,0.4,1.1,0.6,1.7c-0.1,0-0.4,0.1-0.6,0.1
			c-0.2-0.2-0.3-0.3-0.5-0.5c-0.3,0.5-0.5,0.9-0.8,1.3c-0.1-0.2-0.2-0.5-0.3-0.7C46.4,36.7,46.2,36.4,45.7,36.9z"/>
		<path class="st1" d="M45.9,28.5c0.1,0,0.3,0,0.4,0.1c1.3,0.7,1.3,0.7,2-0.6c0.1,0.1,0.4,0.1,0.4,0.2c-0.1,1.1,1,1.7,0.7,2.9
			c-0.3-0.3-0.6-0.7-0.9-1.1c-0.2,0.5-0.3,0.8-0.4,1.3c-0.6,0.1-1.2,0.3-1.5-0.6c-0.1-0.3-0.6-0.6-0.9-0.9
			C45.8,29.3,45.8,28.9,45.9,28.5z"/>
		<path class="st24" d="M45.9,28.5c-0.1,0.4-0.2,0.8-0.3,1.3c-0.2,0-0.3,0-0.5,0c-1.2-0.1-1.7-0.9-2.3-1.8c0.2-0.2,0.7-0.3,0.7-0.4
			c-0.1-1,0.9-1.3,1.1-2c0,0,0.2,0,0.2-0.1c0.1,0.2,0.2,0.5,0.3,0.7c0.2,0.3,0.4,0.6,0.6,1c-0.6,0.2-1,0.3-1.7,0.5
			C45,28,45.4,28.3,45.9,28.5z"/>
		<path class="st3" d="M48.2,37.1c0.2,0,0.5-0.1,0.6-0.1c-0.2-0.6-0.4-1.1-0.6-1.7c0.2-0.1,0.5-0.2,0.7-0.2c0.2,0.2,0.3,0.5,0.5,0.7
			c0.1,0,0.2,0,0.2,0c0.2,0.2,0.3,0.5,0.5,0.6c0.6,0.4,0.9,0.9,0.8,1.6c-0.8,0-1.6,0.1-2.3,0C48.5,38,48.4,37.5,48.2,37.1z"/>
		<path class="st24" d="M46.4,23.1c0,0.4-0.1,0.9,0,1.2c0.1,0.3,0.5,0.5,0.7,0.8c-0.1,0.3,0,0.6-0.2,0.8c-0.4,0.3-0.5,0-0.7-0.4
			c-0.2-0.5-0.4-0.9-0.6-1.4C45.7,23.6,45.8,23.2,46.4,23.1z"/>
		<path class="st1" d="M50.3,24.7c-0.3,0.2-0.5,0.3-0.8,0.5c0-0.1,0-0.2,0-0.3C49.7,24.8,50,24.7,50.3,24.7z"/>
		<path class="st24" d="M49.5,35.8c-0.2-0.2-0.3-0.5-0.5-0.7C49.1,35.3,49.3,35.6,49.5,35.8z"/>
		<path class="st1" d="M48.7,25.4c0,0.2,0,0.3,0,0.5c-0.1-0.1-0.3-0.2-0.4-0.3C48.5,25.5,48.6,25.5,48.7,25.4z"/>
		<path class="st27" d="M39.1,18.8c-0.4-0.2-0.9-0.3-1.3-0.5c-0.1,0.6,0.1,0.9,1.5,1.8c-0.4-0.2-0.9-0.2-1.3-0.5
			c-1.1-0.6-1.3-0.5-1.8,0.7c-0.2,0.7-1,1-1.6,0.5c-0.5-0.3-0.8-0.8-1.2-1.2c0.2-0.3,0.3-0.6,0.4-0.9c0.1-0.2,0.2-0.3,0.2-0.5
			c0.8-0.1,1.6,0.1,2.4-0.1c0-0.1,0-0.2,0-0.2c-0.5-0.1-1.1-0.2-1.6-0.4c0-0.1,0-0.2,0-0.3c0.3-0.1,0.5-0.2,0.8-0.4
			c-0.1-0.1-0.2-0.3-0.3-0.4c0.2-0.1,0.5-0.2,0.7-0.3c0-1.2-0.2-1.4-1.4-1.3c0.1,0.5,0.1,1,0.2,1.6c-0.3,0.4-0.5,0.9-0.8,1.3
			c-0.2-0.1-0.5-0.1-0.7-0.2c-0.1-0.1-0.2-0.3-0.2-0.3c-0.8,0.1-0.8,0.1-0.8-0.8c0.6-0.2,1.4,0.8,1.7-0.6c-0.1-0.1-0.4-0.3-0.4-0.5
			c-0.1-0.4-0.2-0.9-0.1-1.2c0.1-0.2,0.7-0.5,1-0.4c0.6,0.1,1.1,0.5,1.6,0.7c0.3,0.1,0.7,0.2,1.1,0.1c0.8-0.3,1.1-0.1,1.2,0.7
			c0,0.3,0.2,0.5,0.5,1c0.4-0.6,0.1-1.5,1-1.4l0,0c0.1,0.5,0.2,0.9,0.4,1.6c-0.5,0.2-1,0.4-1.6,0.6c0.3,0.2,0.6,0.4,1,0.6
			C39.4,18.2,39.3,18.5,39.1,18.8z"/>
		<path class="st27" d="M50.5,16.5c-0.6-1-1.5-0.4-2.3-0.5c-0.2-0.2-0.4-0.5-0.6-0.8c0.1-0.2,0.2-0.5,0.4-0.8c0-0.1,0-0.2,0-0.3
			c0.2-0.1,0.5-0.1,0.7-0.2c0-0.1,0-0.2-0.1-0.2c-0.2,0.1-0.4,0.1-0.6,0.2c-0.6-0.1-1.3,0-1.5-0.8c0.3-0.1,0.7-0.2,1-0.4
			c0-0.1,0-0.3,0-0.4c-0.5-0.2-1-0.4-1.7-0.6c0.1,0.7,0.1,1,0.2,1.4c-0.3,0-0.5,0-0.8,0c-0.1-0.7-0.1-1.3-1-1.3l0,0
			c0-1.6,0.9-0.2,1.3-0.4c0.4-1.4,1.3-2,2.8-2c0.2,0,0.3-0.3,0.5-0.5c0.4,0.2,0.8,0.3,1.3,0.5c-0.9,0.5-2,0.7-2.5,1.7
			c0,0.1,0.1,0.2,0.1,0.3c0.9-0.3,1.8-0.6,2.8-0.9c-0.1-0.3-0.1-0.6-0.2-0.8c0.8,0.3,1.7,0.5,2.5,0.8c0.1,0.3,0.2,0.5,0.3,0.8
			c-0.4,0.4-0.9,0.8-1.3,1.3c0-0.2,0-0.3,0-0.5c-0.4,0.2-0.8,0.3-1.2,0.5c0.3,0.2,0.5,0.4,0.5,0.4c-0.3,0.6-0.6,1.1-0.9,1.8
			c0.5,0.2,0.9,0.4,1.2,0.5c-0.1,0.4-0.2,0.7-0.4,1.1C50.8,16.5,50.7,16.5,50.5,16.5z"/>
		<path class="st27" d="M38.8,11c-0.2,0.5-0.4,0.8-0.5,1.2c-0.1,0.3-0.1,0.7-0.2,1c-0.1,0-0.2,0-0.3,0c-0.3-0.6-0.5-1.2-0.9-1.8
			c-0.3-0.4-0.9-0.7-1.2-1.2C36.7,10.7,38,9.8,38.8,11z"/>
		<path class="st28" d="M42.1,14.5c0,0.5,0.1,1.1-0.8,1c-0.2-0.4-0.5-0.7-0.6-1.1c-0.1-0.3,0-0.6,0-0.9c0.1,0,0.2-0.1,0.3-0.1
			C41.5,13.8,41.8,14.1,42.1,14.5z"/>
		<path class="st18" d="M48.7,8.9c-0.1,0-0.2-0.1-0.3-0.1C48.5,8.8,48.6,8.9,48.7,8.9L48.7,8.9z"/>
		<path class="st27" d="M39.8,15c0.1-0.1,0.2-0.1,0.3-0.2c0,0,0,0.1,0.1,0.1C40.1,14.9,40,15,39.8,15L39.8,15z"/>
		<path class="st27" d="M54.6,12.7c0.1,0,0.2,0,0.3,0c0.6,0.5,1.3,0.9,1.9,1.4c-0.1,0.2-0.2,0.4-0.4,0.7c0.3,0,0.6,0.1,0.8,0.1
			c-0.3,0.5-0.6,0.9-0.9,1.4c-0.6,0.9-1.4,0.9-2.7,0c0.3-0.7,0.9-1.4,0.5-2.3c0.2,0,0.4-0.1,0.6-0.1c-0.3-0.3-0.5-0.6-0.8-0.9
			C54.1,12.9,54.3,12.8,54.6,12.7z"/>
		<path class="st2" d="M53.8,13c0.3,0.3,0.5,0.6,0.8,0.9c-0.1,0-0.4,0.1-0.6,0.1c-0.3,0-0.7,0-1,0c-0.2-0.2-0.4-0.6-0.6-0.5
			c-0.7,0.1-0.7-0.3-0.7-0.7c0.4-0.4,0.9-0.8,1.3-1.3c0.2,0.2,0.3,0.3,0.5,0.5c-0.5,0.1-0.6,0.3-0.2,0.6
			C53.5,12.7,53.6,12.8,53.8,13z"/>
		<path class="st18" d="M56.3,12.7c0.3-0.6,0.6-1.2,0.9-1.9c0.6,0.2,0.9,0.3,1.5,0.5c-0.4,0.7-0.7,1.4-1.1,2.1
			C57.2,13.2,56.8,13,56.3,12.7z"/>
		<path class="st23" d="M58.6,20.3c-0.5,0-0.9-0.1-1-0.7c-0.1-0.3-0.5-0.6-0.7-0.9c-0.5-0.1-0.8-0.3-0.6-0.8c0-0.1,0.7,0.1,1,0.1
			c0.4,0.1,0.8,0.2,1.2,0.4C58.5,19.1,58.5,19.7,58.6,20.3z"/>
		<path class="st25" d="M53.1,13.9c0.3,0,0.7,0,1,0c0.4,0.9-0.2,1.6-0.5,2.3c-0.4-0.3-0.8-0.6-1.3-1C52.5,14.8,52.8,14.4,53.1,13.9z
			"/>
		<path class="st23" d="M50.5,16.5c0.2,0,0.3,0,0.5,0c0.5,0.3,1,0.5,1.5,0.8c0,0.2,0,0.3,0,0.5c-0.3,0.2-0.5,0.3-0.8,0.5
			C51.4,17.7,50.2,17.6,50.5,16.5z"/>
		<path class="st27" d="M52.5,17.8c0-0.2,0-0.3,0-0.5c1.4,0,1.4,0,2.1,0.7c-0.4,0.2-0.8,0.5-1.3,0.8C53.1,18.4,52.8,18.1,52.5,17.8z
			"/>
		<path class="st25" d="M57.9,17l-0.1-0.1C57.8,16.9,57.8,16.9,57.9,17C57.8,17,57.9,17,57.9,17L57.9,17z"/>
		<path class="st28" d="M53.8,13c-0.2-0.1-0.3-0.2-0.5-0.4C52.9,12.2,53,12,53.5,12c0.3,0.3,0.7,0.5,1,0.8
			C54.3,12.8,54.1,12.9,53.8,13z"/>
		<path class="st2" d="M50.3,9.9c0.1,0.3,0.1,0.6,0.2,0.8c-1,0.3-1.9,0.6-2.8,0.9c0-0.1-0.1-0.2-0.1-0.3c0.5-1,1.6-1.3,2.5-1.7
			C50.1,9.7,50.2,9.8,50.3,9.9z"/>
		<path class="st28" d="M34,17.8c0.3-0.4,0.5-0.9,0.8-1.3c0.2,0,0.3,0,0.5,0c0.1,0.1,0.2,0.3,0.3,0.4c-0.3,0.1-0.5,0.2-0.8,0.4
			c0,0.1,0,0.2,0,0.3c0.5,0.1,1.1,0.2,1.6,0.4c0,0.1,0,0.2,0,0.2c-0.8,0.2-1.6,0.1-2.4,0.1C34,18.1,34,18,34,17.8z"/>
		<path class="st28" d="M31.7,20.1c-0.7-0.2-1.4-0.4-2.2-0.6c0,0,0-0.2,0-0.4c0.3,0,0.7,0,1,0C31.2,19,31.7,19.3,31.7,20.1z"/>
		<path class="st25" d="M22,23.4c-0.1,0.1-0.1,0.1-0.2,0.2C21.9,23.5,22,23.5,22,23.4z"/>
		<path class="st27" d="M26.9,24.1c-0.2,0.3-0.3,0.5-0.5,0.8c-0.5-0.1-0.7,0.1-0.8,0.7c-0.1,0.8-0.6,0.9-1.2,0.6
			c-0.2-0.2-0.3-0.3-0.5-0.5l0,0c0.2-0.2,0.3-0.6,0.5-0.7c1.3-0.6,1.3-0.6,1-1.8c0.3,0.2,0.7,0.4,1,0.6C26.6,23.9,26.7,24,26.9,24.1
			z"/>
		<path class="st24" d="M33.2,33.6C33.1,34,33.1,34.4,33,35c-0.5-0.4-0.7-0.7-1-0.9c-0.1,0-0.1,0.1-0.2,0.1c0.1,0.2,0.1,0.5,0.2,0.7
			c-0.5,0.8-1.2,0.3-1.9,0.2c0.2-0.8,0.3-1.5,0.5-2.3c0.1-0.4,0.2-0.8,0.4-1.3c0.4,0.3,0.7,0.5,1.1,0.8c0-0.4,0-0.7,0.1-1
			c0.3,0.2,0.5,0.3,0.8,0.5c0,0.2,0,0.3,0,0.5c0.1,0.1,0.2,0.2,0.3,0.3C33.2,32.9,33.2,33.2,33.2,33.6z"/>
		<path class="st9" d="M32.2,31.3c0,0.3,0,0.6-0.1,1c-0.4-0.3-0.6-0.5-1.1-0.8c-0.2,0.5-0.3,0.9-0.4,1.3c-0.9-0.3-0.9-1-0.6-1.6
			c0.2-0.3,0.9-0.3,1.4-0.4C31.7,30.8,32,31.1,32.2,31.3z"/>
		<path class="st14" d="M23.8,25.7c0.2,0.2,0.3,0.3,0.5,0.5C24.2,26,24,25.8,23.8,25.7z"/>
		<path class="st25" d="M45.2,16c0.7-0.3,1.4-0.9,1.6,0.5c0,0.3,0.7,0.5,1.1,0.8c0.1,1.3,0.1,1.3-0.7,1c0.1-0.2,0.2-0.4,0.2-0.6
			C46.4,17.4,45.4,17.2,45.2,16z"/>
		<path class="st25" d="M45.2,13.2c0.3,0,0.5,0,0.8,0c0.2,0,0.3,0,0.5,0c0.3,0.7,0.9,0.7,1.5,0.8c0,0.1,0,0.2,0,0.2
			c0,0.1,0,0.2,0,0.3c-0.3,0-0.5,0-0.8,0c-0.9-0.4-1.8-0.2-2.7,0.6c0-0.5,0-0.9-0.1-1.3C44.7,13.6,44.9,13.4,45.2,13.2z"/>
		<path class="st2" d="M45.2,13.2c-0.3,0.2-0.5,0.3-0.8,0.5c-0.1-0.6-0.2-1.2-0.3-1.8C45.1,11.9,45.1,12.6,45.2,13.2z"/>
		<path class="st3" d="M34.8,34.3c-0.6,0-1-0.1-1-0.8c0.4-0.5-0.1-1.6,1-1.5c0,0.2,0,0.3,0,0.5c0,0.4,0,0.8,0,1.3
			C34.8,34,34.8,34.1,34.8,34.3z"/>
		<path class="st3" d="M33.2,32.5c-0.1-0.1-0.2-0.2-0.3-0.3C33.1,32.4,33.2,32.5,33.2,32.5z"/>
		<path class="st1" d="M39.1,34.3c0,0.5,0,1,0.7,1.1c0.3,0.1,0.6,0.4,0.8,0.6c0,0.1-0.1,0.2-0.1,0.3c-0.4,0-0.8-0.1-1.2-0.1
			c-0.1,0.4-0.2,0.8-0.4,1.2c-0.1,0.1-0.2,0.2-0.4,0.2c-0.2-0.3-0.3-0.6-0.5-1c-0.5,0.3-0.9,0.5-1.3,0.8c-0.1-0.1-0.2-0.2-0.2-0.2
			c0.3-0.3,0.5-0.7,0.8-0.9c1.1-0.6,1.1-0.6,0.6-1.8c-0.6,0.1-1.2,0.1-1.8,0.2c0-0.2,0-0.3,0-0.5c0.5-0.3,1-0.5,1.5-0.8
			c0.3,0,0.5,0,0.8,0c0.2,0,0.5,0,0.8-0.1C39.1,33.6,39.1,34,39.1,34.3z"/>
		<path class="st9" d="M39.1,34.3c0-0.4,0-0.7,0-1.1c-0.3,0-0.5,0.1-0.8,0.1c0-0.7,0-1.4,0-2c0.2,0,0.4,0.1,0.5,0.1
			c0.3-0.4,0.5-0.7,0.8-1.1c-0.2,1,0.1,1.8,1,2.3c0,0.6,0,1.2,0,1.8C40.1,34.3,39.6,34.3,39.1,34.3z"/>
		<path class="st9" d="M37.6,33.3c-0.5,0.3-1,0.5-1.5,0.8c-0.1-0.5-0.2-1-0.3-1.5C36.8,32.2,37.1,32.3,37.6,33.3z"/>
		<path class="st26" d="M35.8,32.5c0.1,0.5,0.2,1,0.3,1.5c0,0.2,0,0.3,0,0.5c-0.3,0-0.5,0-0.8,0c-0.2-0.3-0.3-0.5-0.5-0.8
			c0-0.4,0-0.8,0-1.3C35.1,32.5,35.4,32.5,35.8,32.5z"/>
		<path class="st28" d="M30.7,23.6c0-0.1,0.1-0.2,0.1-0.4C30.8,23.4,30.7,23.5,30.7,23.6L30.7,23.6z"/>
		<path class="st3" d="M42.1,36.9c0.5,0.9,0.9,1.9,1.6,2.6c0.1,0,0.2-0.1,0.3-0.1c0-0.3,0-0.7,0-1.1c1.2-0.5,0.8,1.1,1.6,1
			c-0.4,0.8-0.9,1-1.6,0.9c-0.5-0.1-1,0-1.8,0c-0.2-0.3-0.7-0.9-1.1-1.6c-0.5,0.5-0.9,0.9-1.3,1.3c-1.3-0.8,0.1-1.7-0.1-2.7
			c0.5,0.1,1,0.1,1.3,0.2c0.3-0.4,0.6-0.7,0.9-1C42,36.5,42,36.7,42.1,36.9z"/>
		<path class="st24" d="M42.1,36.9c-0.1-0.2-0.2-0.3-0.3-0.5c0-0.3,0-0.5,0-0.8c0.3,0.1,0.7,0.2,1,0.3s0.5,0.4,0.8,0.4
			c0.7,0.1,0.8,0.5,0.8,1C43.7,37.2,42.9,37,42.1,36.9z"/>
		<path class="st3" d="M45.7,36.9c0.5-0.5,0.8-0.2,1,0.3c0.1,0.2,0.2,0.5,0.3,0.7c0.1,0.3,0.2,0.6,0.3,1c-0.7,0-1.2-0.1-1.3-0.8
			c0-0.2-0.3-0.3-0.5-0.4C45.5,37.4,45.6,37.1,45.7,36.9z"/>
		<path class="st1" d="M34.8,33.8c0.2,0.3,0.3,0.5,0.5,0.8c-0.2-0.1-0.3-0.2-0.5-0.3C34.8,34.1,34.8,34,34.8,33.8z"/>
		<path class="st26" d="M45.2,35.3c0,0.1,0,0.2,0,0.3c-0.7,0.2-1.1-0.2-1.1-1c-0.3,0.1-0.5,0.1-0.8,0.2c-0.8,0.1-1.3-0.3-1.4-1.2
			c0-0.3,0-0.5,0-0.8c-0.1-0.7-0.3-1.4-0.5-2.1c1-0.1,1.4,0.3,2.1,1.7C44,33.4,44.6,34.4,45.2,35.3z"/>
		<path class="st26" d="M40.6,32.5c-0.9-0.5-1.2-1.3-1-2.3c0.2-0.3,0.4-0.6,0.7-1c0.3,1,0.6,1.7,0.8,2.4
			C41.1,32,40.8,32.3,40.6,32.5z"/>
		<path class="st2" d="M35.3,16.5c-0.2,0-0.3,0-0.5,0c-0.1-0.5-0.1-1-0.2-1.6c1.2-0.1,1.4,0.1,1.4,1.3
			C35.8,16.3,35.5,16.4,35.3,16.5z"/>
		<path class="st2" d="M46.4,13.2c-0.2,0-0.3,0-0.5,0c-0.1-0.4-0.1-0.7-0.2-1.4c0.7,0.3,1.2,0.4,1.7,0.6c0,0.1,0,0.3,0,0.4
			C47.1,13,46.8,13.1,46.4,13.2z"/>
		<path class="st28" d="M48,14.2c0-0.1,0-0.2,0-0.2c0.2-0.1,0.4-0.1,0.6-0.2c0,0.1,0,0.2,0.1,0.2C48.4,14.1,48.2,14.2,48,14.2z"/>
	</g>
</g>
</svg>
