<?xml version="1.0" encoding="utf-8"?>
<!-- Generator: Adobe Illustrator 25.2.3, SVG Export Plug-In . SVG Version: 6.00 Build 0)  -->
<svg version="1.1" id="Layer_2" xmlns="http://www.w3.org/2000/svg" xmlns:xlink="http://www.w3.org/1999/xlink" x="0px" y="0px"
	 viewBox="0 0 75 75" style="enable-background:new 0 0 75 75;" xml:space="preserve">
<style type="text/css">
	.st0{fill:#D7D7D7;}
	.st1{fill:#202020;}
</style>
<g id="Layer_1_1_">
	<path class="st0" d="M42.5,1.1c-7-0.7-14.1,0.7-21,2.2c-1.8,0.4-3.6,0.8-5.3,1.5c-1.8,0.8-3.3,2-4.8,3.2c-3.1,2.4-6.1,4.9-9.2,7.3
		c-0.8,0.7-1.8,1.9-1,2.7c0.2,0.2,0.6,0.3,0.9,0.4c2.3,0.5,4.7,1,7.1,1.2c3.1,0.2,6.3-0.1,9.4-0.1c4,0,7.9,0.5,11.9,0.6
		c6.7,0.2,13.4-0.6,20.1-0.3c3.8,0.2,7.6,0.7,11.4,0.8c3.2,0.1,6.3-0.1,9.5-0.4c0.4,0,0.9-0.1,1.3-0.3c1.1-0.8,0.4-2.4-0.5-3.5
		C69.5,13,66.1,10,62.3,7.6C58.6,5.3,54.9,4,50.8,2.8C48.1,2,45.3,1.4,42.5,1.1z"/>
	<path class="st0" d="M42.4,44.8c0-1.8-0.1-3.5-0.2-5.3c-0.1-2.7-0.3-5.3-0.5-8c-0.3-3.6-0.5-7.3-0.8-10.9C36.6,20,32.3,20,28,20.6
		c0.7,0.5,0.9,1.5,0.9,2.3s-0.2,1.7-0.2,2.6c0,1.6,0.7,3.1,0.8,4.8c0.1,1.1-0.2,2.1-0.3,3.2c-1.1,6.3-0.7,12.7-0.6,19.1
		c0,1.5,0.1,2.9,0,4.4c-0.1,1.6-0.4,3.2-0.6,4.8c-0.5,3.7-0.6,7.4-0.6,11.1c0,0.4,0,0.8,0.3,1.1c0.2,0.2,0.5,0.3,0.7,0.3
		c3.5,0.9,7.1-0.9,10.6-2c1.2-0.4,3.6-0.6,4-2c0.4-1.7-0.1-4.1-0.2-5.8c-0.1-4.2-0.2-8.4-0.3-12.6C42.5,49.4,42.5,47.1,42.4,44.8z"
		/>
</g>
<g id="Layer_2_2_">
	<g>
		<g>
			<g>
				<path class="st1" d="M40.7,21c0,0,0-0.1,0-0.1c0.2-0.4,0.9-1,1.7-0.1c0,0,0.1,0.1,0.1,0.1c0,1,0.1,2,0.2,3
					c0.4,3.9,1.1,7.7,1.3,11.7c0.2,2,0,4,0,6c0,1.9,0,3.9,0,5.8c0,3.9,0.1,7.9-0.1,11.8c-0.1,2-0.2,3.9-0.2,5.8l0,1.1l0,0.9
					c0,0,0,0.7,0,1.6c0,0.9,0.1,2.1,0.2,3.1c0.3,3.4-0.4,2.2-1,0.1c0,0.1-0.3-1.1-0.6-2.4C42.1,68.3,42,67,42,67l0-0.9l0-0.5v-1.2
					c0-2,0.2-3.9,0.3-5.8c0.2-3.8,0.1-7.6,0.1-11.5c0-1.9,0-3.9,0-5.8c0-2,0.1-3.8,0-5.7c-0.2-3.8-0.9-7.6-1.3-11.5
					C40.8,23.1,40.8,22,40.7,21z"/>
			</g>
		</g>
	</g>
	<g>
		<g>
			<g>
				<path class="st1" d="M72.8,19.3c0.1,0,0.1,0,0.1,0c0.4,0.2,1.1,0.9,0.1,1.7c0,0-0.1,0.1-0.1,0.1c-0.1,0-1.2,0.1-2.9,0.1
					c-0.4,0-0.8,0-1.2,0c-1.2,0-2.5,0.1-3.8,0.1c-2.6,0-5.2,0.1-7.9,0c-5.4,0-11.1-0.2-17-0.4c-5.9-0.2-12-0.4-18.1-0.3
					c-3.1,0-6.1,0.1-9.3,0.2c-3.1,0-6.4,0-9.6-1.1c-0.4-0.1-0.8-0.3-1.2-0.5c-0.2-0.1-0.4-0.2-0.6-0.3c-0.3-0.2-0.7-0.4-1-0.6
					l-0.1-0.1c0,0,0-0.1,0-0.1l0-0.3l0-0.6c0-0.2,0.1-0.4,0.1-0.6c0-0.1,0.1-0.2,0.1-0.4c0.2-0.5,0.4-0.9,0.7-1.3
					c1.1-1.5,2.7-2.3,4.1-3C7.9,11,10,8.8,12.5,6.9c1.2-1,2.6-1.9,4-2.6s3-1.1,4.5-1.5c3-0.7,5.9-1.2,8.8-1.7
					c2.9-0.5,5.8-0.8,8.7-0.9c2.9-0.1,5.7,0.2,8.4,0.7c2.7,0.5,5.2,1.2,7.7,2c2.4,0.8,4.8,1.6,6.9,2.6c2.2,1,4.2,2.2,5.9,3.6
					c0.9,0.7,1.7,1.4,2.4,2.2c0.4,0.4,0.7,0.8,1,1.2l0.2,0.2c0.2,0.3,0.4,0.5,0.6,0.7c0.3,0.4,0.5,0.6,0.5,0.6s0.4,0.6,0.8,1.5
					c0.4,0.9,0.9,2.1,1.2,3c0.1,0.4,0.3,0.8,0.1,1.2c-0.1,0.4-0.5,0.6-0.7,0.5c-0.2,0-0.3-0.1-0.3-0.2c0-0.1,0-0.1,0.1-0.1
					c0.1,0,0.2-0.1,0.2-0.3c0-0.1-0.1-0.4-0.4-0.8c0,0.1-0.5-1-1.2-2c-0.7-1-1.5-2-1.5-2s-0.2-0.2-0.4-0.6c-0.1-0.1-0.2-0.2-0.2-0.3
					c0-0.1-0.1-0.1-0.1-0.2l-0.1-0.1l-0.3-0.4L68.7,13c-2.4-2.7-5.9-4.9-10.1-6.6c-2.1-0.8-4.3-1.6-6.7-2.2s-4.8-1.3-7.4-1.6
					C39.5,1.7,34,2.3,28.3,3.3c-2.8,0.5-5.8,1-8.5,1.8c-1.4,0.4-2.7,1-3.9,1.7c-1.2,0.7-2.4,1.6-3.5,2.6c-1.2,0.9-2.3,1.9-3.6,2.9
					c-0.6,0.5-1.3,0.9-2,1.3l-2,1.1c-0.6,0.4-1.2,0.8-1.6,1.2c-0.5,0.5-0.8,1-1,1.5c0,0,0,0,0,0l0,0l0.2,0.1l0.5,0.2
					c0.7,0.3,1.4,0.5,2.1,0.7c2.8,0.7,5.9,0.7,8.9,0.6c3.1-0.1,6.2-0.2,9.2-0.2c6.1,0,12.1,0.2,17.9,0.4s11.4,0.4,16.8,0.4
					c2.7,0,5.3,0,7.8,0c1.5,0,3-0.1,4.5-0.1C71.6,19.4,72.7,19.3,72.8,19.3z"/>
			</g>
		</g>
	</g>
	<g>
		<g>
			<g>
				<path class="st1" d="M28.3,20.3c0,0,0-0.1,0-0.1c0.2-0.4,0.8-1.1,1.7-0.2c0,0,0.1,0.1,0.1,0.1c0.1,1,0.2,2.1,0.3,3.1
					c0.3,4.1,0.4,8.3,0.3,12.4c0,2.2-0.5,4.2-0.7,6.2c-0.2,1.9,0,3.9,0.1,6c0.2,2,0.2,4.2,0.1,6.3c-0.1,2.1-0.3,4.1-0.5,6.2
					l-0.7,8.2c0,0-0.4,2.8-0.9,4.8c-0.7,3.3-1,1.9-1-0.2c-0.1,0.2,0.1-5,0.1-5l0.7-8.5c0.2-2,0.4-4,0.4-6c0.1-2,0-3.9-0.2-5.9
					c-0.2-2-0.3-4.1-0.1-6.2c0.2-2.1,0.6-4,0.7-5.9c0.1-4,0-8-0.3-12C28.5,22.4,28.4,21.3,28.3,20.3z"/>
			</g>
		</g>
	</g>
	<g>
		<g>
			<path class="st1" d="M42.3,30.5c0.1,0.1,0.2,0.1,0.3,0.2c0.1,0.1,0.2,0.2,0.3,0.2c0.2,0.2,0.3,0.3,0.5,0.5
				c0.3,0.4,0.5,0.8,0.7,1.3c0,0.1,0.2,0.1,0.2,0.1c0.1,0,0.3,0.1,0.4,0.1c0.1,0,0.4,0,0.4-0.2c-0.3-1-1-1.9-1.9-2.4
				c-0.2-0.1-0.5-0.1-0.7-0.1c-0.1,0-0.2,0.1-0.2,0.1C42.2,30.4,42.3,30.5,42.3,30.5L42.3,30.5z"/>
		</g>
	</g>
	<g>
		<g>
			<path class="st1" d="M41.3,31.1c0.6,0.2,0.8,0.8,0.9,1.4c0.2,0.8,0.5,1.5,0.7,2.3c0.1,0.3,1.1,0.1,1-0.1
				c-0.3-0.8-0.5-1.6-0.8-2.4c-0.2-0.6-0.5-1.2-1.1-1.5c-0.2-0.1-0.5-0.1-0.7,0C41.4,30.8,41.1,31,41.3,31.1L41.3,31.1z"/>
		</g>
	</g>
	<g>
		<g>
			<path class="st1" d="M40,31.4c-0.1,0.8-0.1,1.6-0.1,2.4c0,0.2,0.3,0.2,0.5,0.3c0.1,0,0.5,0,0.5-0.1c0-0.8,0-1.6,0.1-2.4
				c0-0.2-0.4-0.2-0.5-0.3C40.4,31.3,40,31.3,40,31.4L40,31.4z"/>
		</g>
	</g>
	<g>
		<g>
			<path class="st1" d="M38.2,31.7c-0.2,0.6-0.4,1.2-0.6,1.8c0,0.1,0.1,0.1,0.1,0.2c0.1,0.1,0.2,0.1,0.3,0.1c0.1,0,0.2,0,0.4,0
				c0.1,0,0.2,0,0.2-0.1c0.1-0.6,0.3-1.2,0.6-1.8c0-0.1-0.1-0.1-0.1-0.2c-0.1-0.1-0.2-0.1-0.3-0.1c-0.1,0-0.2,0-0.4,0
				C38.3,31.6,38.3,31.6,38.2,31.7L38.2,31.7z"/>
		</g>
	</g>
	<g>
		<g>
			<path class="st1" d="M36,31c0,1,0,1.9,0,2.9c0,0.2,0.4,0.2,0.5,0.2c0.1,0,0.5,0,0.5-0.2c0-1,0-1.9,0-2.9c0-0.2-0.4-0.2-0.5-0.2
				C36.4,30.8,36,30.8,36,31L36,31z"/>
		</g>
	</g>
	<g>
		<g>
			<path class="st1" d="M34.8,31.6c-0.3,1.6-0.6,3.2-0.9,4.8c-0.1,0.3,0.9,0.5,1,0.3c0.3-1.6,0.6-3.2,0.9-4.8
				C35.8,31.6,34.8,31.4,34.8,31.6L34.8,31.6z"/>
		</g>
	</g>
	<g>
		<g>
			<path class="st1" d="M33,32.1c-0.4,1.2-0.9,2.4-1.3,3.5c-0.1,0.3,0.9,0.6,1,0.3c0.4-1.2,0.9-2.4,1.3-3.5
				C34.1,32.1,33.1,31.8,33,32.1L33,32.1z"/>
		</g>
	</g>
	<g>
		<g>
			<path class="st1" d="M31.4,32.4c-0.3,0.6-0.6,1.2-0.8,1.8c0,0.1,0.1,0.1,0.1,0.2c0.1,0.1,0.2,0.1,0.3,0.1c0.1,0,0.5,0,0.5-0.2
				c0.1-0.3,0.2-0.5,0.3-0.8c0,0,0,0,0,0.1c0.1-0.3,0.3-0.7,0.5-1c0.1-0.2-0.2-0.3-0.3-0.3c-0.1,0-0.3,0-0.4,0
				C31.6,32.3,31.5,32.3,31.4,32.4L31.4,32.4z"/>
		</g>
	</g>
	<g>
		<g>
			<path class="st1" d="M30,30.4c-0.2,1.2-0.4,2.4-0.8,3.6c-0.1,0.3,0.9,0.6,0.9,0.3c0.3-1.2,0.6-2.4,0.8-3.6
				C31,30.4,30.1,30.2,30,30.4L30,30.4z"/>
		</g>
	</g>
	<g>
		<g>
			<path class="st1" d="M29,29.9c0,0.7-0.1,1.4-0.4,2.1c-0.1,0.3-0.2,0.6-0.4,0.9c-0.1,0.1-0.2,0.2-0.3,0.3c0,0-0.1,0.1-0.1,0.1
				c0,0-0.1,0,0,0c-0.1,0-0.5,0.1-0.5,0.2c0,0.2,0.4,0.2,0.5,0.2c0.4,0,0.8-0.2,1.1-0.5c0.3-0.3,0.4-0.6,0.6-1
				c0.3-0.8,0.5-1.6,0.5-2.4C30,29.6,29,29.6,29,29.9L29,29.9z"/>
		</g>
	</g>
	<g>
		<g>
			<path class="st1" d="M28.1,29.4c-0.1,1-0.5,1.9-1.2,2.6c-0.1,0.1,0.2,0.3,0.3,0.3c0.1,0,0.3,0.1,0.4,0.1c0.1,0,0.2,0,0.2-0.1
				c0.7-0.7,1.1-1.7,1.2-2.7c0-0.2-0.3-0.3-0.5-0.3C28.5,29.3,28.1,29.3,28.1,29.4L28.1,29.4z"/>
		</g>
	</g>
	<g>
		<g>
			<path class="st1" d="M43,29.4c0.2,0.8,1.2,1.3,1.9,1.6c0.5,0.2,0.9,0.5,1.4,0.7c0.3,0.1,0.7,0.3,1,0.6c0.1,0.2,0.4,0.2,0.6,0.2
				c0.1,0,0.4,0,0.2-0.2c-0.3-0.3-0.7-0.5-1-0.7c-0.4-0.2-0.9-0.4-1.3-0.6c-0.4-0.2-0.8-0.4-1.2-0.7c-0.3-0.2-0.6-0.4-0.7-0.8
				C43.9,29.2,42.9,29.1,43,29.4L43,29.4z"/>
		</g>
	</g>
	<g>
		<g>
			<path class="st1" d="M40.9,31.9c0.3,1.5,1.1,2.8,2.3,3.8c0.2,0.1,0.4,0.1,0.6,0c0.1,0,0.5-0.2,0.3-0.3c-1.2-0.9-1.9-2.2-2.2-3.7
				C41.8,31.4,40.8,31.6,40.9,31.9L40.9,31.9z"/>
		</g>
	</g>
	<g>
		<g>
			<path class="st1" d="M36.5,32c0.6,1.7,1,3.5,1.2,5.3c0,0.3,1,0.4,1,0.2c-0.2-1.8-0.6-3.7-1.2-5.4C37.3,31.8,36.4,31.8,36.5,32
				L36.5,32z"/>
		</g>
	</g>
	<g>
		<g>
			<path class="st1" d="M39.2,32.5c0.8,1.1,1.4,2.4,1.9,3.7c0.1,0.2,0.4,0.3,0.6,0.3c0.1,0,0.5,0,0.4-0.1c-0.5-1.4-1.2-2.6-2-3.8
				c-0.1-0.2-0.4-0.2-0.6-0.3C39.4,32.3,39.1,32.3,39.2,32.5L39.2,32.5z"/>
		</g>
	</g>
	<g>
		<g>
			<path class="st1" d="M44.2,33.3c1.3,1.1,2.5,2.1,3.8,3.2c0.2,0.1,0.4,0.2,0.7,0.2c0.1,0,0.4-0.1,0.2-0.2
				c-1.3-1.1-2.5-2.1-3.8-3.2c-0.2-0.1-0.4-0.2-0.7-0.2C44.3,33.1,44,33.2,44.2,33.3L44.2,33.3z"/>
		</g>
	</g>
	<g>
		<g>
			<path class="st1" d="M32.1,30.3c-0.1,1-0.1,2-0.6,2.9c-0.1,0.2,0.2,0.3,0.3,0.3c0.1,0,0.3,0.1,0.4,0c0.1,0,0.2,0,0.2-0.1
				c0.5-0.9,0.6-2,0.7-3c0-0.2-0.3-0.3-0.5-0.3C32.5,30.2,32.1,30.1,32.1,30.3L32.1,30.3z"/>
		</g>
	</g>
	<g>
		<g>
			<path class="st1" d="M30.3,31.2c-1.8,0.6-3.1,2.2-3.2,4.1c0,0.3,1,0.2,1-0.1c0.1-1.6,1.2-3.2,2.7-3.7c0.1,0,0.3-0.2,0.2-0.3
				C30.8,31.1,30.5,31.2,30.3,31.2L30.3,31.2z"/>
		</g>
	</g>
	<g>
		<g>
			<path class="st1" d="M30.3,32.6c-0.6,0.4-1.2,0.9-1.4,1.7c-0.2,0.7-0.2,1.5-0.6,2.1c-0.1,0.2,0.3,0.2,0.4,0.2
				c0.2,0,0.5,0,0.6-0.2c0.4-0.6,0.4-1.3,0.6-2c0.2-0.6,0.6-1.2,1.2-1.6c0.2-0.1,0.2-0.2,0-0.3C30.8,32.5,30.5,32.5,30.3,32.6
				L30.3,32.6z"/>
		</g>
	</g>
	<g>
		<g>
			<path class="st1" d="M28.8,30c-1.6,0.8-3,1.9-4.1,3.2c-0.1,0.2,0.1,0.2,0.2,0.2c0.2,0,0.5,0,0.7-0.2c1.1-1.3,2.5-2.3,4-3.1
				c0.2-0.1,0.1-0.2,0-0.3C29.2,29.8,29,29.9,28.8,30L28.8,30z"/>
		</g>
	</g>
</g>
</svg>
