<?xml version="1.0" encoding="utf-8"?>
<!-- Generator: Adobe Illustrator 25.2.3, SVG Export Plug-In . SVG Version: 6.00 Build 0)  -->
<svg version="1.1" id="Layer_1" xmlns="http://www.w3.org/2000/svg" xmlns:xlink="http://www.w3.org/1999/xlink" x="0px" y="0px"
	 viewBox="0 0 75 75" style="enable-background:new 0 0 75 75;" xml:space="preserve">
<style type="text/css">
	.st0{fill:#E8E288;}
	.st1{fill:#D7D7D7;}
</style>
<polygon class="st0" points="63.79,26.25 52.34,14.8 36.26,5.04 31.5,6.54 25.12,13.11 14.98,22.31 8.42,29.25 3.53,37.5 
	1.66,42.39 1.09,46.8 2.5,49.99 20.99,54.4 49.8,53.84 68.58,50.65 73.36,45.02 72.05,38.73 67.17,30.56 "/>
<path class="st1" d="M32.75,72.25c-0.1-4.46-0.19-8.91-0.29-13.37c-0.01-0.55-0.02-1.1,0.11-1.63c0.32-1.28,1.45-2.24,2.69-2.7
	c1.24-0.46,2.59-0.51,3.91-0.55c0.9-0.03,1.91-0.02,2.54,0.63c0.9,0.92,0.45,2.43,0.27,3.7c-0.11,0.81-0.08,1.62-0.04,2.44
	c0.07,1.87,0.15,3.74,0.22,5.61c0.04,0.9,0.07,1.79,0.11,2.69c0.02,0.61,0.39,2.22,0.11,2.75C41.83,72.88,32.75,72.83,32.75,72.25z"
	/>
<g>
	<g>
		<path d="M31.83,72.77c-0.03-4.76,0.62-10.04-0.27-14.15c-1.2-5.53-4.48-1.92-6.79-2.53c-6.52-1.71-13.08-2.8-19.62-4.2
			c-1.86-0.4-4.2-0.74-4.2-5.13c0-3.19,0.78-7.17,1.97-9.44c5.13-9.81,11.49-16.4,18.12-22.09c4.01-3.44,7.89-7.48,12.03-10.24
			c2.06-1.37,4.84-1.78,6.8-0.34c7.38,5.41,14.73,11.18,21.76,18c3.91,3.79,7.37,9.51,10.66,15.12c2.89,4.93,1.97,11.41-1.85,12.68
			c-5.79,1.93-11.69,2.75-17.55,3.9c-2.64,0.52-5.32,0.4-7.93,1.15c-0.84,0.24-2.13,2.27-2.18,3.61c-0.16,4.52,0.15,9.09,0.28,13.64
			c-0.39,0-0.79,0-1.18,0c-0.11-2.18-0.26-4.35-0.34-6.53c-0.41-11.49-0.62-11.87-6.92-9.7c-0.7,0.24-1.66,2.33-1.72,3.68
			c-0.17,4.15,0.04,8.36,0.1,12.55C32.62,72.77,32.22,72.77,31.83,72.77z M17.2,22.35c-5.45,2.36-9.44,8.82-13.09,16.21
			c-0.22,0.42-0.45,0.84-0.67,1.26c-2.5,5.58-2.18,8.61,1.45,9.82c4.63,1.54,9.34,3,14.03,3.17c11.8,0.41,23.61,0.5,35.4-0.16
			c5.17-0.29,10.32-2.54,15.44-4.29c0.97-0.33,2.44-2.43,2.47-3.81c0.05-2.2-0.9-4.49-1.49-6.68c-0.08-0.29-0.76-0.42-0.8-0.29
			c-0.91,3.38-1.32,0.42-1.58-0.6c-0.22-0.84,0.23-2.45-0.04-3.05c-0.45-0.99-1.24-1.45-1.89-2.14c-0.3,6.31-1.31,0.82-1.83,0.27
			c-2.29-2.41-4.6-7.35-6.75-7.07c-4.55,0.59-6.34-6.16-9.47-9.1c1.71,0.76,3.17,2.47,4.73,3.75c0.8,0.65,1.78,0.52,2.68,0.74
			c-0.59-1.1-1.08-2.66-1.79-3.22c-3.88-3.03-7.75-6.23-11.76-8.57c-4.49-2.62-9.27-5.93-12.58,4.36c-0.07,0.23-0.37,0.39-0.53,0.31
			c-3.21-1.65-5.38,3.32-8.14,4.49c-0.65,0.28-1.54,1.5-1.67,2.56c-0.44,3.6-3.66,4.14-2.77,9.01c-2.85,4.45-5.7,8.9-8.55,13.35
			c-0.18-0.39-0.37-0.78-0.55-1.18c2.74-4.48,5.47-8.95,8.21-13.43c-0.17-0.36-0.34-0.71-0.5-1.07c-2.71,3.91-5.42,7.82-8.13,11.73
			c-0.24-0.62-0.49-1.23-0.73-1.85c3.66-4.9,7.31-9.8,10.97-14.71c-0.02-0.06-0.03-0.11-0.05-0.17
			C17.21,22.13,17.21,22.24,17.2,22.35z"/>
		<path d="M48.91,23c-1.4-2.27-2.81-4.54-4.4-7.12c3.16,0.77,7.14,7.21,7.79,11.89c0.15,1.05,0.77,1.92,1.22,2.78
			c0.68,1.3,1.5,2.4,2.09,3.83c0.43,1.04,0.58,2.48,0.86,3.73c-0.59-0.62-1.26-1.06-1.75-1.89c-1.89-3.22-3.76-6.47-5.52-9.92
			c-0.34-0.67-0.17-2.25-0.24-3.41c0.17,0.64,0.34,1.28,0.52,1.92c0.18,0.07,0.36,0.16,0.54,0.2c0.17,0.05,0.35,0.06,0.53,0.08
			c-0.34-0.07-0.68-0.14-1.02-0.22C49.31,24.25,49.11,23.63,48.91,23z"/>
		<path d="M26.54,16.85c-2.86,4.97-5.73,9.95-8.59,14.92c-0.18-0.27-0.36-0.53-0.53-0.8c0.69-1.58,1.46-3.05,2.04-4.75
			c0.7-2.04,3.07-2.49,1.82-6.43c1.61-1.45,3.21-2.89,4.82-4.34C26.24,15.91,26.39,16.38,26.54,16.85z"/>
		<path d="M59.84,29.33c3.34,2.88,5.99,7.49,8.4,12.65c0.25,0.53,0.15,1.62,0.21,2.46c-0.32-0.13-0.72-0.07-0.93-0.41
			c-2.36-3.73-4.68-7.55-7.05-11.26c-0.44-0.68-1.05-0.98-1.58-1.46C59.21,30.65,59.52,29.99,59.84,29.33z"/>
		<path d="M33.41,26.44c-1.06,7.15-2.12,14.3-3.18,21.45c-0.34-0.17-0.67-0.34-1.01-0.51c1.08-7.14,2.16-14.27,3.24-21.41
			C32.78,26.13,33.09,26.28,33.41,26.44z"/>
		<path d="M13.79,44.11c2.24-4.88,4.48-9.76,6.72-14.63c0.27,0.42,0.54,0.85,0.81,1.27c-2.24,4.9-4.49,9.79-6.73,14.69
			C14.32,44.99,14.05,44.55,13.79,44.11z"/>
		<path d="M41.44,11.8c1.85,4.34,3.72,8.66,5.53,13.07c0.23,0.57,0.15,1.61,0.21,2.43c-0.4-0.31-0.94-0.42-1.17-0.98
			c-1.76-4.45-3.46-8.99-5.18-13.51C41.03,12.47,41.23,12.13,41.44,11.8z"/>
		<path d="M35.4,31.15c-0.25,5.51-0.5,11.01-0.74,16.52c-0.32-0.04-0.64-0.08-0.96-0.11c0.2-5.48,0.41-10.97,0.61-16.45
			C34.66,31.12,35.03,31.13,35.4,31.15z"/>
		<path d="M37.81,13.53c0,4.58,0.02,9.16-0.02,13.74c-0.01,0.57-0.32,1.13-0.49,1.69c-0.21-0.66-0.6-1.32-0.6-1.99
			c-0.05-4.47-0.03-8.95-0.03-13.42C37.04,13.54,37.43,13.53,37.81,13.53z"/>
		<path d="M62.09,39.99c-2.54-3.86-5.08-7.73-7.62-11.59c0.2-0.46,0.4-0.92,0.6-1.37c2.52,3.91,5.03,7.83,7.55,11.74
			C62.44,39.17,62.27,39.58,62.09,39.99z"/>
		<path d="M52.46,48.53c-1.52-4.06-3.06-8.09-4.54-12.2c-0.17-0.47-0.03-1.33-0.03-2.01c0.25,0.05,0.63-0.07,0.72,0.18
			c1.57,4.33,3.1,8.7,4.64,13.07C52.99,47.89,52.73,48.21,52.46,48.53z"/>
		<path d="M37.74,33.97c0.14,4.27,0.28,8.53,0.42,12.8c-0.35,0.04-0.7,0.09-1.06,0.13c-0.15-4.25-0.29-8.49-0.44-12.74
			C37.02,34.1,37.38,34.03,37.74,33.97z"/>
		<path d="M43.8,31.67c-1.01-4.53-2.02-9.06-3.03-13.59c0.31-0.24,0.62-0.48,0.93-0.71c0.98,4.62,1.97,9.25,2.95,13.87
			C44.37,31.39,44.08,31.53,43.8,31.67z"/>
		<path d="M29.24,33.32c-0.39,3.48-0.75,6.98-1.21,10.43c-0.08,0.61-0.61,1.02-0.93,1.52c-0.09-0.67-0.33-1.42-0.25-2
			c0.53-3.43,1.13-6.81,1.7-10.22C28.78,33.14,29.01,33.23,29.24,33.32z"/>
		<path d="M29.19,16.68c-1.55,3.14-3.1,6.28-4.64,9.41c-0.23-0.4-0.45-0.79-0.68-1.19c1.57-3.12,3.15-6.23,4.72-9.35
			C28.79,15.93,28.99,16.31,29.19,16.68z"/>
		<path d="M29.23,23.57c-0.59,0.47-1.18,0.95-1.77,1.42c0.23-1.03,0.38-2.16,0.71-3.06c1-2.71,2.06-5.34,3.1-7.99
			c0.19,0.25,0.38,0.5,0.57,0.74C30.97,17.65,30.1,20.62,29.23,23.57C29.23,23.58,29.23,23.57,29.23,23.57z"/>
		<path d="M53.65,41.02c-1.43-2.99-2.87-5.97-4.3-8.96c0.29-0.48,0.58-0.95,0.86-1.43c1.42,2.99,2.84,5.99,4.26,8.98
			C54.19,40.08,53.92,40.55,53.65,41.02z"/>
		<path d="M39.85,40.83c-0.35-3.62-0.7-7.23-1.04-10.85c0.32-0.11,0.65-0.22,0.97-0.33c0.32,3.62,0.63,7.25,0.95,10.87
			C40.44,40.63,40.15,40.73,39.85,40.83z"/>
		<path d="M41.26,31.01c0.1-0.29,0.27-0.8,0.45-1.3c0.25,0.48,0.64,0.89,0.74,1.47c0.26,1.54,0.47,3.14,0.57,4.74
			c0.09,1.4,0.01,2.83,0,4.25c-0.4-1.33-0.9-2.59-1.17-4.01C41.56,34.65,41.48,33,41.26,31.01z"/>
		<path d="M45.47,35.01c0.92,3.02,1.83,6.04,2.75,9.07c-0.29,0.3-0.57,0.6-0.86,0.9c-0.91-2.96-1.81-5.93-2.72-8.89
			C44.92,35.73,45.19,35.37,45.47,35.01z"/>
		<path d="M29.23,23.58c-0.72,3.55-1.43,7.1-2.18,10.62c-0.04,0.17-0.45,0.05-0.69,0.06c0-0.66-0.13-1.47,0.02-1.97
			C27.29,29.35,28.27,26.47,29.23,23.58C29.23,23.57,29.23,23.58,29.23,23.58z"/>
		<path d="M40.54,24.85c-0.93-0.76-1.08-0.81-1.09-0.9c-0.22-2.62-0.43-5.25-0.61-7.89c0-0.04,0.33-0.16,0.5-0.24
			C39.7,18.53,40.06,21.24,40.54,24.85z"/>
		<path d="M25.48,30.06c-0.79,2.42-1.58,4.83-2.37,7.25c-0.28-0.32-0.56-0.64-0.84-0.96c0.83-2.36,1.67-4.72,2.5-7.08
			C25.01,29.53,25.25,29.8,25.48,30.06z"/>
		<path d="M34,26.57c0.29-2.91,0.59-5.83,0.88-8.74c0.24,0.07,0.48,0.13,0.72,0.2c-0.21,2.94-0.43,5.88-0.64,8.82
			C34.63,26.75,34.32,26.66,34,26.57z"/>
		<path d="M31.45,23.11c0.67-2.74,1.34-5.49,2.01-8.23c0.23,0.19,0.46,0.38,0.69,0.57c-0.67,2.74-1.34,5.49-2.01,8.23
			C31.92,23.49,31.69,23.3,31.45,23.11z"/>
		<path d="M20.51,39.58c-0.72,2-1.45,4-2.17,6c-0.24-0.3-0.48-0.6-0.72-0.9c0.7-2.07,1.4-4.13,2.1-6.2
			C19.99,38.84,20.25,39.21,20.51,39.58z"/>
		<path d="M59.89,45.61c-0.1-0.04-0.24-0.01-0.28-0.12c-0.62-1.53-1.22-3.07-1.83-4.61c0.21-0.25,0.57-0.75,0.59-0.7
			c0.71,1.51,1.4,3.08,2.08,4.64C60.27,45.08,60.08,45.34,59.89,45.61z"/>
		<path d="M25.16,42.11c-0.3,1.92-0.61,3.84-0.91,5.76c-0.28-0.15-0.56-0.31-0.84-0.46c0.32-1.94,0.64-3.89,0.95-5.83
			C24.63,41.75,24.9,41.93,25.16,42.11z"/>
		<path d="M14.43,37.86c-0.52,1.19-1.04,2.38-1.56,3.57c-0.13-0.12-0.26-0.24-0.39-0.36c0.16-0.79,0.24-1.66,0.49-2.33
			c0.25-0.68,0.66-1.15,1-1.71C14.12,37.31,14.28,37.59,14.43,37.86z"/>
		<path d="M3.41,39.68c0.2-0.39,0.41-0.77,0.61-1.16c0.15,1.03,0.41,2.07,0.39,3.09c-0.01,0.38-0.67,0.72-1.03,1.07
			C3.39,41.68,3.4,40.68,3.41,39.68z"/>
		<path d="M63.74,45.53c-0.31-0.87-0.59-1.69-0.88-2.5c0.27-0.25,0.72-0.81,0.79-0.68c0.37,0.71,0.66,1.59,0.97,2.42
			C64.38,44.96,64.14,45.18,63.74,45.53z"/>
		<path d="M41.36,47c-0.32,0.32-0.56,0.55-0.79,0.79c-0.15-0.77-0.34-1.53-0.41-2.33c-0.03-0.33,0.23-0.73,0.36-1.11
			C40.74,45.08,40.97,45.79,41.36,47z"/>
		<path d="M43.8,47.04c-0.2-1.12-0.4-2.25-0.59-3.37c0.34,0.44,0.75,0.79,1,1.37c0.14,0.31,0.02,1.01,0.02,1.54
			C44.08,46.73,43.94,46.88,43.8,47.04z"/>
		<path d="M32.27,45.33c0.19,0.78,0.39,1.24,0.38,1.7c0,0.47-0.21,0.94-0.33,1.4c-0.15-0.5-0.38-0.98-0.42-1.5
			C31.88,46.54,32.09,46.07,32.27,45.33z"/>
		<path d="M55.29,42.67c0.15,0.94,0.31,1.55,0.3,2.14c0,0.31-0.31,0.61-0.49,0.91c-0.16-0.57-0.4-1.11-0.46-1.71
			C54.63,43.73,54.96,43.34,55.29,42.67z"/>
		<path d="M33.67,11.74c-0.33,0.37-0.61,0.69-0.89,1.02c-0.09-0.45-0.33-1.05-0.25-1.32c0.15-0.52,0.48-0.85,0.74-1.25
			C33.37,10.61,33.48,11.04,33.67,11.74z"/>
		<path d="M20.94,47.05c-0.14-0.24-0.36-0.52-0.34-0.61c0.1-0.45,0.26-0.85,0.41-1.26c0.14,0.22,0.43,0.58,0.41,0.64
			C21.3,46.27,21.11,46.65,20.94,47.05z"/>
		<path d="M10.3,45.89c-0.14-0.39-0.35-0.81-0.31-0.88c0.15-0.36,0.36-0.67,0.58-0.91c0.03-0.03,0.32,0.56,0.3,0.61
			C10.71,45.12,10.51,45.48,10.3,45.89z"/>
	</g>
</g>
</svg>
