<?xml version="1.0" encoding="utf-8"?>
<!-- Generator: Adobe Illustrator 25.2.3, SVG Export Plug-In . SVG Version: 6.00 Build 0)  -->
<svg version="1.1" id="Layer_1" xmlns="http://www.w3.org/2000/svg" xmlns:xlink="http://www.w3.org/1999/xlink" x="0px" y="0px"
	 viewBox="0 0 75 75" style="enable-background:new 0 0 75 75;" xml:space="preserve">
<style type="text/css">
	.st0{fill:#D7D7D7;}
	.st1{fill:#202020;}
	.st2{fill:#62C370;}
	.st3{fill:#FFFFFF;stroke:#000000;stroke-miterlimit:10;}
</style>
<g id="Layer_1_1_">
</g>
<path class="st0" d="M74.64,19.67c0,0-5.69-15.38-25.87-17.54S17.8,4.47,16.39,5.51s-8.92,7.23-10.89,7.88s-4.69,3.75-4.22,4.22
	s6.29,2.36,7.04,2.4c0.75,0.04,19.47,0,19.47,0l32.05,0.7L74.64,19.67z"/>
<path class="st0" d="M44.53,71.64c0,0-1.35-6.35-0.9-17.33c0.45-10.98,0-14.85,0-14.85l-13.72-0.62l-1.31,32.27
	c0,0,3.44,2.06,7.49,1.88S44.53,71.64,44.53,71.64z"/>
<g>
	<g>
		<g>
			<g>
				<path class="st1" d="M42.77,39.98c0-0.05,0-0.06,0.04-0.12c0.24-0.42,0.89-1.05,1.74-0.11c0.02,0.02,0.07,0.1,0.08,0.14
					L44.76,43c0.12,4.22,0.1,8.44-0.07,12.66c-0.08,2.11-0.23,4.22-0.34,6.3c-0.05,1.04-0.08,2.07-0.07,3.09L44.29,66l0.05,0.88
					c0,0-0.01,0.69,0.03,1.63c0.03,0.94,0.1,2.13,0.16,3.13c0.33,3.36-0.37,2.17-1.02,0.14c0,0.11-0.34-1.11-0.6-2.39
					c-0.27-1.28-0.43-2.62-0.43-2.62l-0.04-0.92l-0.02-1.15c0-1.06,0.04-2.1,0.09-3.14c0.12-2.08,0.25-4.12,0.33-6.17
					c0.16-4.1,0.18-8.21,0.06-12.32L42.77,39.98z"/>
			</g>
		</g>
	</g>
	<g>
		<g>
			<g>
				<path class="st1" d="M29.09,39.3c0.01-0.05,0.02-0.06,0.08-0.11c0.38-0.39,1.17-0.68,1.69,0.43c0.01,0.02,0.04,0.11,0.04,0.15
					c-0.24,0.92-0.35,1.88-0.38,2.86c-0.08,2.15,0.21,4.37,0.34,6.67c0.14,2.32,0.01,4.63-0.17,6.88L29.7,68.19
					c0,0-0.42,2.81-0.87,4.77c-0.67,3.33-0.97,1.95-1.02-0.15c-0.06,0.21,0.06-5.02,0.06-5.02l0.99-11.99
					c0.17-2.2,0.28-4.36,0.14-6.52c-0.12-2.17-0.42-4.4-0.33-6.73C28.69,41.48,28.81,40.38,29.09,39.3z"/>
			</g>
		</g>
	</g>
	<g>
		<path class="st2" d="M43.65,20.36c-0.12,3.05-0.25,6.1-0.37,9.15c-0.01,0.25-0.02,0.5,0.08,0.72c0.12,0.26,0.37,0.44,0.6,0.6
			c2.12,1.46,4.26,2.93,6.62,3.96c0.59,0.26,1.2,0.49,1.68,0.91c0.49,0.42,0.83,1.07,0.68,1.7c-0.21,0.89-1.24,1.28-2.14,1.48
			c-6.45,1.39-13.13-0.14-19.73-0.24c-3.82-0.06-7.92,0.28-11.17-1.71c2.72-2.33,5.81-4.23,9.12-5.6c0.64-0.26,1.34-0.57,1.62-1.2
			c0.15-0.35,0.14-0.75,0.13-1.13c-0.1-2.98-0.21-5.97-0.31-8.95"/>
		<g>
			<g>
				<path class="st1" d="M42.69,20.98c0-0.05,0-0.06,0.05-0.12c0.28-0.4,0.98-0.97,1.75,0.05c0.01,0.02,0.06,0.11,0.07,0.15
					l-0.13,3.09l-0.17,4.22l-0.04,1.06c-0.01,0.19-0.01,0.34-0.01,0.4c0.01,0.06,0,0.02,0,0.03c-0.02,0.01,0.31,0.24,0.6,0.44
					l0.87,0.59c1.09,0.74,2.18,1.45,3.31,2.08c0.56,0.31,1.13,0.61,1.71,0.87c0.55,0.27,1.24,0.48,1.95,0.99
					c0.7,0.52,1.35,1.38,1.24,2.56c-0.07,0.57-0.38,1.09-0.75,1.43s-0.77,0.54-1.15,0.69c-0.78,0.3-1.45,0.36-2.13,0.5
					c-0.68,0.1-1.37,0.2-2.05,0.25c-5.5,0.48-10.83-0.52-16.05-0.67c-2.6-0.1-5.31,0.11-8.1-0.35c-1.5-0.31-2.36-0.41-5.03-1.95
					l-0.21-0.12l-0.11-0.06c-0.01-0.01-0.05-0.02-0.04-0.03l0.05-0.04l0.38-0.32l0.76-0.63c0.49-0.41,1.11-0.91,1.28-1.03
					c0.54-0.42,1.09-0.82,1.66-1.2c1.13-0.77,2.31-1.47,3.52-2.1c0.61-0.32,1.22-0.61,1.85-0.89c0.61-0.29,1.32-0.53,1.69-0.77
					c0.38-0.3,0.37-0.26,0.39-0.9l-0.03-0.83l-0.03-0.77l-0.02-0.68c0,0,0.09-2.84,0.31-4.84c0.28-3.39,0.74-2.05,1.03,0.03
					c0.03-0.22,0.53,4.99,0.53,4.99l0.02,0.44l0.03,0.77l0.03,0.85c0,0.36,0.01,0.85-0.23,1.39c-0.24,0.52-0.65,0.89-1.02,1.12
					c-0.77,0.46-1.35,0.61-1.93,0.9c-0.59,0.26-1.17,0.55-1.75,0.84c-1.15,0.6-2.26,1.26-3.33,1.99c-0.54,0.36-1.06,0.74-1.57,1.14
					l-0.27,0.21l0.58,0.22c0.58,0.19,1.18,0.33,1.8,0.44c2.48,0.42,5.13,0.23,7.84,0.32c5.41,0.17,10.67,1.14,15.83,0.68
					c0.64-0.05,1.28-0.14,1.91-0.24c0.63-0.13,1.29-0.21,1.75-0.4c0.24-0.09,0.44-0.21,0.56-0.32c0.12-0.11,0.15-0.2,0.17-0.29
					c0.04-0.17-0.14-0.58-0.5-0.83c-0.37-0.28-0.96-0.5-1.61-0.79c-0.63-0.29-1.25-0.6-1.85-0.94c-1.2-0.67-2.34-1.41-3.45-2.17
					l-0.88-0.6c-0.27-0.22-0.59-0.32-1.05-0.87c-0.21-0.27-0.33-0.65-0.36-0.95c-0.03-0.29-0.01-0.49,0-0.66l0.04-1.06l0.17-4.22
					L42.69,20.98z"/>
			</g>
		</g>
	</g>
	<g>
		<g>
			<g>
				<path class="st1" d="M73.31,19.14c0.05,0,0.06,0,0.12,0.04c0.42,0.24,1.06,0.89,0.13,1.74c-0.02,0.02-0.1,0.07-0.14,0.08
					c-0.06,0-1.2,0.06-2.87,0.15c-0.4,0.01-0.8,0.03-1.21,0.04c-1.24,0.04-2.5,0.1-3.79,0.11c-2.57,0.05-5.22,0.07-7.94,0.04
					c-5.44-0.05-11.15-0.23-17.04-0.42c-5.89-0.18-11.96-0.36-18.11-0.32c-3.08,0-6.15,0.13-9.3,0.2c-3.14,0.05-6.43-0.05-9.59-1.15
					c-0.39-0.13-0.78-0.29-1.16-0.46c-0.19-0.08-0.38-0.17-0.57-0.26c-0.34-0.17-0.71-0.36-1.01-0.56L0.71,18.3
					c-0.03-0.03,0-0.09-0.01-0.13l0.02-0.29l0.04-0.57c0.04-0.18,0.06-0.4,0.11-0.56c0.03-0.12,0.07-0.24,0.11-0.35
					c0.17-0.46,0.4-0.88,0.67-1.26c1.09-1.54,2.72-2.31,4.05-3.03c2.67-1.35,4.86-3.46,7.35-5.39c1.24-0.96,2.57-1.88,4.03-2.57
					S20.06,3,21.56,2.64c3.01-0.67,5.9-1.19,8.82-1.69c2.91-0.48,5.82-0.83,8.69-0.9c2.88-0.07,5.72,0.21,8.39,0.73
					C50.14,1.3,52.68,2,55.11,2.76c2.43,0.75,4.76,1.62,6.93,2.64c2.16,1.03,4.16,2.23,5.88,3.61c0.86,0.69,1.67,1.42,2.39,2.18
					c0.36,0.38,0.7,0.77,1.03,1.16l0.16,0.19c0.22,0.27,0.4,0.51,0.55,0.7c0.29,0.4,0.46,0.63,0.46,0.63s0.39,0.63,0.83,1.52
					c0.44,0.89,0.9,2.06,1.16,3.05c0.11,0.39,0.26,0.83,0.14,1.23c-0.13,0.44-0.49,0.56-0.69,0.55c-0.23-0.01-0.32-0.15-0.32-0.21
					c-0.01-0.07,0.03-0.1,0.09-0.11c0.1-0.02,0.19-0.11,0.23-0.27c0-0.08-0.12-0.36-0.41-0.84c0.02,0.11-0.52-0.99-1.21-2.02
					c-0.67-1.04-1.47-2.01-1.47-2.01s-0.15-0.21-0.42-0.57c-0.07-0.09-0.15-0.19-0.23-0.29c-0.04-0.05-0.09-0.11-0.13-0.16
					l-0.07-0.09l-0.33-0.39l-0.44-0.5c-2.41-2.66-5.9-4.92-10.08-6.6c-2.09-0.85-4.35-1.58-6.71-2.25s-4.83-1.27-7.38-1.64
					c-5.1-0.78-10.6-0.19-16.23,0.84c-2.81,0.55-5.76,0.99-8.49,1.79c-1.37,0.41-2.66,0.96-3.88,1.71c-1.22,0.74-2.38,1.65-3.54,2.6
					c-1.17,0.95-2.34,1.95-3.63,2.87C8.67,12.57,7.99,13,7.29,13.4l-2.01,1.09c-0.63,0.36-1.2,0.75-1.65,1.21s-0.8,1-0.95,1.55
					c-0.01,0.05,0,0.01-0.01,0.02l-0.01-0.01l0.22,0.11l0.5,0.21c0.66,0.29,1.36,0.5,2.06,0.69c2.84,0.72,5.89,0.72,8.93,0.64
					c3.06-0.11,6.16-0.17,9.21-0.18c6.11,0,12.11,0.17,17.92,0.35s11.43,0.36,16.76,0.39c2.67,0.02,5.26,0,7.77-0.05
					c1.54-0.05,3.03-0.1,4.47-0.14C72.14,19.2,73.25,19.14,73.31,19.14z"/>
			</g>
		</g>
	</g>
</g>
<path class="st3" d="M27.79,3.31"/>
</svg>
