<?xml version="1.0" encoding="utf-8"?>
<!-- Generator: Adobe Illustrator 25.2.3, SVG Export Plug-In . SVG Version: 6.00 Build 0)  -->
<svg version="1.1" id="Layer_1" xmlns="http://www.w3.org/2000/svg" xmlns:xlink="http://www.w3.org/1999/xlink" x="0px" y="0px"
	 viewBox="0 0 75 75" style="enable-background:new 0 0 75 75;" xml:space="preserve">
<style type="text/css">
	.st0{fill:#D7D7D7;}
	.st1{fill:#CC3363;}
	.st2{fill:#202020;}
</style>
<path class="st0" d="M71.69,61.25c-0.02,2.11-0.06,4.28-0.83,6.25s-2.43,3.71-4.49,3.94c-1.15-9.07-0.1-18.34-1.48-27.39
	c-0.52-3.44-1.86-10.71-4.46-12.97c-1.25-1.09-1.35-2.63-2.89-3.21c-8.18-3.09-18.23,1.12-26.94,1.6s-17.41,3.68-26.14,3.41
	c0.21-2.52,0.42-7.09,1.31-9.45s2.56-4.55,4.89-5.44c0.6-0.23,1.24-0.37,1.8-0.69c0.75-0.43,1.3-1.13,1.92-1.73
	c1.92-1.87,4.53-2.78,7.05-3.65c3-1.03,5.99-2.05,8.99-3.08c5.99-2.05,12.01-4.09,18.18-5.5c3.06-0.7,6.15-0.22,9.27-0.52
	c2.87-0.27,6.62-0.81,9.45-0.05c2.43,0.66,1.88,3.46,2.08,5.56c0.32,3.3,0.6,6.61,0.85,9.92C70.78,25,71.16,31.75,71.4,38.5
	C71.67,46.08,71.77,53.66,71.69,61.25z"/>
<path class="st1" d="M2.83,34.46C2.83,34.46,8,43,30,42s25-7,27-9s2.33-3.24,2.33-3.24s-2.94-2.49-11.64-1.63s-26.44,2.7-35.07,4.28
	C4,34,2.83,34.46,2.83,34.46z"/>
<g>
	<g>
		<g>
			<path class="st2" d="M66.2,72.87c0,0.08,0,0.1-0.08,0.2c-0.46,0.68-1.61,1.63-2.91-0.03c-0.02-0.03-0.11-0.17-0.12-0.25l0.1-5.14
				c0.07-5.45,0.03-10.9-0.09-16.34c-0.06-2.72-0.15-5.45-0.25-8.17c-0.14-2.73-0.09-5.49-0.77-7.75c-0.64-2.27-2.24-3.88-4.5-4.73
				c-2.24-0.85-4.87-1.06-7.5-1.03c-5.38,0.1-10.81,0.49-16.19,1.11c-5.39,0.61-10.77,1.44-16.14,2.35L9.7,34.53l-4.03,0.75
				l-1.7,0.32c-0.7,0.14-1.2-0.01-1.59-0.23c-0.46-0.24-0.86-0.78-0.98-1.21l0.25-1.8c0.05-0.3,0.07-0.6,0.14-0.9l0.16-0.53l0.31-1
				c0.23-0.66,0.44-1.33,0.7-1.99C3.44,26.61,4,25.3,4.62,24.02c1.24-2.56,2.79-5.03,4.79-7.18c1.01-1.06,2.09-2.07,3.32-2.91
				c0.58-0.45,1.25-0.8,1.88-1.19c0.61-0.34,1.23-0.67,1.86-0.99c2.54-1.27,5.15-2.28,7.77-3.19c4.44-1.54,8.92-2.83,13.42-4.04
				c4.51-1.29,9.23-2.1,13.9-2.56c1.17-0.12,2.34-0.21,3.52-0.29l2.4-0.13l0.91-0.03l1.83-0.06c0,0,1.2,0.05,2.81,0.18
				c1.61,0.13,3.63,0.35,5.29,0.62c5.62,0.82,3.33,1.44-0.15,1.72c0.18,0.04-1.9,0.13-4.02,0.27c-2.12,0.13-4.27,0.32-4.27,0.32
				L58.2,4.62l-1.43,0.07c-2.16,0.11-4.3,0.28-6.44,0.53c-2.13,0.25-4.26,0.56-6.36,0.99c-2.1,0.42-4.15,0.94-6.27,1.52
				c-4.2,1.14-8.37,2.36-12.45,3.77c-2.54,0.89-5.04,1.85-7.39,3.03c-0.59,0.3-1.17,0.61-1.76,0.93c-0.53,0.34-1.09,0.62-1.59,1
				c-1.04,0.7-1.96,1.57-2.83,2.48c-1.73,1.86-3.12,4.07-4.27,6.42C6.85,26.54,6.32,27.75,5.87,29c-0.24,0.62-0.44,1.25-0.66,1.88
				l-0.44,1.4l4.35-0.81l8.09-1.45c5.41-0.92,10.84-1.76,16.31-2.38c5.48-0.63,10.97-1.03,16.52-1.13c2.81-0.02,5.75,0.16,8.65,1.24
				c1.44,0.54,2.84,1.39,3.98,2.57c1.14,1.17,1.95,2.67,2.38,4.16c0.45,1.49,0.61,2.97,0.71,4.38c0.09,1.42,0.13,2.76,0.19,4.14
				c0.11,2.74,0.19,5.48,0.26,8.22c0.13,5.48,0.16,10.97,0.09,16.45L66.2,72.87z"/>
		</g>
	</g>
</g>
</svg>
