<?xml version="1.0" encoding="utf-8"?>
<!-- Generator: Adobe Illustrator 25.2.3, SVG Export Plug-In . SVG Version: 6.00 Build 0)  -->
<svg version="1.1" id="Layer_2" xmlns="http://www.w3.org/2000/svg" xmlns:xlink="http://www.w3.org/1999/xlink" x="0px" y="0px"
	 viewBox="0 0 75 75" style="enable-background:new 0 0 75 75;" xml:space="preserve">
<style type="text/css">
	.st0{fill:#D7D7D7;}
	.st1{fill:#202020;}
	.st2{fill:#76CB82;}
</style>
<g id="Layer_1_1_">
	<path class="st0" d="M42.5,1.1c-7-0.7-14.1,0.7-21,2.2c-1.8,0.4-3.6,0.8-5.3,1.5c-1.8,0.8-3.3,2-4.8,3.2c-3.1,2.4-6.1,4.9-9.2,7.3
		c-0.8,0.7-1.8,1.9-1,2.7c0.2,0.2,0.6,0.3,0.9,0.4c2.3,0.5,4.7,1,7.1,1.2c3.1,0.2,6.3-0.1,9.4-0.1c4,0,7.9,0.5,11.9,0.6
		c6.7,0.2,13.4-0.6,20.1-0.3c3.8,0.2,7.6,0.7,11.4,0.8c3.2,0.1,6.3-0.1,9.5-0.4c0.4,0,0.9-0.1,1.3-0.3c1.1-0.8,0.4-2.4-0.5-3.5
		C69.5,13,66.1,10,62.3,7.6C58.6,5.3,54.9,4,50.8,2.8C48.1,2,45.3,1.4,42.5,1.1z"/>
	<path class="st0" d="M42.4,44.8c0-1.8-0.1-3.5-0.2-5.3c-0.1-2.7-0.3-5.3-0.5-8c-0.3-3.6-0.5-7.3-0.8-10.9C36.6,20,32.3,20,28,20.6
		c0.7,0.5,0.9,1.5,0.9,2.3s-0.2,1.7-0.2,2.6c0,1.6,0.7,3.1,0.8,4.8c0.1,1.1-0.2,2.1-0.3,3.2c-1.1,6.3-0.7,12.7-0.6,19.1
		c0,1.5,0.1,2.9,0,4.4c-0.1,1.6-0.4,3.2-0.6,4.8c-0.5,3.7-0.6,7.4-0.6,11.1c0,0.4,0,0.8,0.3,1.1c0.2,0.2,0.5,0.3,0.7,0.3
		c3.5,0.9,7.1-0.9,10.6-2c1.2-0.4,3.6-0.6,4-2c0.4-1.7-0.1-4.1-0.2-5.8c-0.1-4.2-0.2-8.4-0.3-12.6C42.5,49.4,42.5,47.1,42.4,44.8z"
		/>
</g>
<g id="Layer_2_2_">
	<g>
		<g>
			<g>
				<path class="st1" d="M40.7,21c0,0,0-0.1,0-0.1c0.2-0.4,0.9-1,1.7-0.1c0,0,0.1,0.1,0.1,0.1c0,1,0.1,2,0.2,3
					c0.4,3.9,1.1,7.7,1.3,11.7c0.2,2,0,4,0,6c0,1.9,0,3.9,0,5.8c0,3.9,0.1,7.9-0.1,11.8c-0.1,2-0.2,3.9-0.2,5.8l0,1.1l0,0.9
					c0,0,0,0.7,0,1.6c0,0.9,0.1,2.1,0.2,3.1c0.3,3.4-0.4,2.2-1,0.1c0,0.1-0.3-1.1-0.6-2.4C42.1,68.3,42,67,42,67l0-0.9l0-0.5v-1.2
					c0-2,0.2-3.9,0.3-5.8c0.2-3.8,0.1-7.6,0.1-11.5c0-1.9,0-3.9,0-5.8c0-2,0.1-3.8,0-5.7c-0.2-3.8-0.9-7.6-1.3-11.5
					C40.8,23.1,40.8,22,40.7,21z"/>
			</g>
		</g>
	</g>
	<g>
		<g>
			<g>
				<path class="st1" d="M72.8,19.3c0.1,0,0.1,0,0.1,0c0.4,0.2,1.1,0.9,0.1,1.7c0,0-0.1,0.1-0.1,0.1c-0.1,0-1.2,0.1-2.9,0.1
					c-0.4,0-0.8,0-1.2,0c-1.2,0-2.5,0.1-3.8,0.1c-2.6,0-5.2,0.1-7.9,0c-5.4,0-11.1-0.2-17-0.4c-5.9-0.2-12-0.4-18.1-0.3
					c-3.1,0-6.1,0.1-9.3,0.2c-3.1,0-6.4,0-9.6-1.1c-0.4-0.1-0.8-0.3-1.2-0.5c-0.2-0.1-0.4-0.2-0.6-0.3c-0.3-0.2-0.7-0.4-1-0.6
					l-0.1-0.1c0,0,0-0.1,0-0.1l0-0.3l0-0.6c0-0.2,0.1-0.4,0.1-0.6c0-0.1,0.1-0.2,0.1-0.4c0.2-0.5,0.4-0.9,0.7-1.3
					c1.1-1.5,2.7-2.3,4.1-3C7.9,11,10,8.8,12.5,6.9c1.2-1,2.6-1.9,4-2.6s3-1.1,4.5-1.5c3-0.7,5.9-1.2,8.8-1.7
					c2.9-0.5,5.8-0.8,8.7-0.9c2.9-0.1,5.7,0.2,8.4,0.7c2.7,0.5,5.2,1.2,7.7,2c2.4,0.8,4.8,1.6,6.9,2.6c2.2,1,4.2,2.2,5.9,3.6
					c0.9,0.7,1.7,1.4,2.4,2.2c0.4,0.4,0.7,0.8,1,1.2l0.2,0.2c0.2,0.3,0.4,0.5,0.6,0.7c0.3,0.4,0.5,0.6,0.5,0.6s0.4,0.6,0.8,1.5
					c0.4,0.9,0.9,2.1,1.2,3c0.1,0.4,0.3,0.8,0.1,1.2c-0.1,0.4-0.5,0.6-0.7,0.5c-0.2,0-0.3-0.1-0.3-0.2c0-0.1,0-0.1,0.1-0.1
					c0.1,0,0.2-0.1,0.2-0.3c0-0.1-0.1-0.4-0.4-0.8c0,0.1-0.5-1-1.2-2c-0.7-1-1.5-2-1.5-2s-0.2-0.2-0.4-0.6c-0.1-0.1-0.2-0.2-0.2-0.3
					c0-0.1-0.1-0.1-0.1-0.2l-0.1-0.1l-0.3-0.4L68.7,13c-2.4-2.7-5.9-4.9-10.1-6.6c-2.1-0.8-4.3-1.6-6.7-2.2s-4.8-1.3-7.4-1.6
					C39.5,1.7,34,2.3,28.3,3.3c-2.8,0.5-5.8,1-8.5,1.8c-1.4,0.4-2.7,1-3.9,1.7c-1.2,0.7-2.4,1.6-3.5,2.6c-1.2,0.9-2.3,1.9-3.6,2.9
					c-0.6,0.5-1.3,0.9-2,1.3l-2,1.1c-0.6,0.4-1.2,0.8-1.6,1.2c-0.5,0.5-0.8,1-1,1.5c0,0,0,0,0,0l0,0l0.2,0.1l0.5,0.2
					c0.7,0.3,1.4,0.5,2.1,0.7c2.8,0.7,5.9,0.7,8.9,0.6c3.1-0.1,6.2-0.2,9.2-0.2c6.1,0,12.1,0.2,17.9,0.4s11.4,0.4,16.8,0.4
					c2.7,0,5.3,0,7.8,0c1.5,0,3-0.1,4.5-0.1C71.6,19.4,72.7,19.3,72.8,19.3z"/>
			</g>
		</g>
	</g>
	<g>
		<g>
			<g>
				<path class="st1" d="M28.3,20.3c0,0,0-0.1,0-0.1c0.2-0.4,0.8-1.1,1.7-0.2c0,0,0.1,0.1,0.1,0.1c0.1,1,0.2,2.1,0.3,3.1
					c0.3,4.1,0.4,8.3,0.3,12.4c0,2.2-0.5,4.2-0.7,6.2c-0.2,1.9,0,3.9,0.1,6c0.2,2,0.2,4.2,0.1,6.3c-0.1,2.1-0.3,4.1-0.5,6.2
					l-0.7,8.2c0,0-0.4,2.8-0.9,4.8c-0.7,3.3-1,1.9-1-0.2c-0.1,0.2,0.1-5,0.1-5l0.7-8.5c0.2-2,0.4-4,0.4-6c0.1-2,0-3.9-0.2-5.9
					c-0.2-2-0.3-4.1-0.1-6.2c0.2-2.1,0.6-4,0.7-5.9c0.1-4,0-8-0.3-12C28.5,22.4,28.4,21.3,28.3,20.3z"/>
			</g>
		</g>
	</g>
	<g>
		<g>
			<g>
				<path class="st2" d="M-17.3,29.4c0,0,0-0.1,0-0.1c0.3-0.4,0.9-1,1.7,0c0,0,0.1,0.1,0.1,0.1l0.1,3.1l0.1,2.3l0.1,1.7
					c0,0,0,2.8-0.2,4.8c-0.1,3.4-0.7,2.1-1,0c0,0.1-0.2-1.1-0.3-2.4c-0.2-1.3-0.3-2.6-0.3-2.6l-0.1-1.5l-0.1-2.3L-17.3,29.4z"/>
			</g>
		</g>
	</g>
	<g>
		<path class="st2" d="M44.6,33.7c0.3-0.4-0.1-1-0.5-1.3c-1-0.7-2.2-0.9-3.4-1c-3.3-0.3-6.6-0.2-9.9,0.2c-0.6,0.1-1.3,0.2-1.7,0.6
			c-0.5,0.4-0.6,1.2-0.2,1.6"/>
		<g>
			<path class="st1" d="M45.1,33.7c0.6-1.5-2.2-2.2-3.2-2.3C40,31,38,31,36,31c-1.9,0-4,0.1-5.9,0.5c-0.6,0.1-1.3,0.3-1.7,0.8
				c-0.4,0.5-0.5,1.1-0.1,1.6c0.2,0.2,1.1,0,0.9-0.2c-0.4-0.5-0.2-1.2,0.3-1.6c0.6-0.4,1.4-0.4,2-0.5c1.6-0.2,3.1-0.3,4.7-0.3
				c1.5,0,3,0.1,4.5,0.2c0.7,0.1,1.4,0.2,2.1,0.5c0.6,0.2,1.5,0.8,1.2,1.5C44,34,44.9,33.9,45.1,33.7L45.1,33.7z"/>
		</g>
	</g>
	<g>
		<path class="st2" d="M29.1,41.6c-0.2,0.5,0.1,1.2,0.6,1.4c0.5,0.3,1.1,0.3,1.7,0.3c3.1,0,6.2,0,9.3,0c0.7,0,1.4,0,2-0.3
			c0.6-0.3,1.2-0.8,1.2-1.5"/>
		<g>
			<path class="st1" d="M28.6,41.6c-0.5,1.4,1.4,1.9,2.4,2c1.7,0.1,3.5,0,5.2,0c1.8,0,3.6,0.1,5.3,0c1.2-0.1,2.7-0.5,2.9-1.9
				c0-0.3-1-0.4-1-0.1c-0.2,1.5-1.9,1.6-3,1.6c-1.3,0-2.6,0-3.9,0c-1.3,0-2.6,0-3.9,0c-1,0-3.5,0.2-2.9-1.5
				C29.7,41.5,28.7,41.3,28.6,41.6L28.6,41.6z"/>
		</g>
	</g>
	<g>
		<path class="st2" d="M43.7,33.9c1.3,0.2,1.9,1.6,2.2,2.9c0.2,0.8,0.2,1.7,0.1,2.5s-0.6,1.6-1.4,2c-0.6,0.3-1.4,0.4-2.1,0.4
			c-3.9,0-7.7,0.1-11.6,0.1c-0.5,0-1.1,0-1.6-0.2c-0.5-0.2-0.9-0.5-1.3-0.9c-0.7-0.7-1.3-1.4-1.5-2.3c-0.3-1.4,0.5-2.9,1.7-3.8
			c1.2-0.9,2.7-1.2,4.1-1.4c3.9-0.5,7.8,0.1,11.6,0.6"/>
		<g>
			<path class="st1" d="M43.8,34.1c1.2,0.2,1.6,2.2,1.7,3.1c0.2,1.4,0.1,3.2-1.3,3.9c-0.7,0.4-1.4,0.3-2.2,0.3c-0.9,0-1.7,0-2.6,0
				c-1.6,0-3.2,0-4.8,0.1c-0.8,0-1.6,0-2.5,0c-0.8,0-1.9,0.2-2.6-0.1c-0.7-0.2-1.2-0.9-1.7-1.4c-0.5-0.6-0.9-1.3-0.9-2.1
				c-0.1-3.1,3.4-4.3,5.9-4.6c3.7-0.4,7.5,0.1,11.2,0.6c0.1,0,0.4,0,0.4-0.2c0-0.2-0.5-0.3-0.6-0.3c-3.8-0.5-7.7-1.1-11.6-0.6
				c-1.6,0.2-3.3,0.5-4.6,1.6c-1.1,0.9-1.8,2.4-1.5,3.8c0.3,1.4,1.6,2.9,2.9,3.4c0.7,0.3,1.4,0.3,2.1,0.3c1.1,0,2.1,0,3.2,0
				c2,0,3.9-0.1,5.9-0.1c1,0,1.9,0,2.9,0c0.8,0,1.6-0.1,2.2-0.6c1.4-1.1,1.3-3.2,1-4.7c-0.4-1.4-1.2-2.6-2.7-2.8
				c-0.1,0-0.4,0-0.4,0.2C43.2,34,43.7,34.1,43.8,34.1L43.8,34.1z"/>
		</g>
	</g>
	<g>
		<g>
			<path class="st1" d="M28.5,31.4c0.3,0.5,0.6,1,1,1.4c0.1,0.2,0.4,0.2,0.6,0.2c0.1,0,0.2,0,0.3-0.1c0,0,0.1-0.1,0.1-0.2
				c-0.4-0.4-0.8-0.9-1-1.4c0-0.1-0.2-0.1-0.2-0.1c-0.1,0-0.3,0-0.4,0C28.7,31.1,28.4,31.2,28.5,31.4L28.5,31.4z"/>
		</g>
	</g>
	<g>
		<g>
			<path class="st1" d="M31.3,30.7c0.5,0.8,0.8,1.7,1,2.6c0,0.2,0.4,0.2,0.5,0.2c0.1,0,0.5,0,0.5-0.2c-0.2-0.9-0.5-1.9-1.1-2.7
				C32.1,30.3,31.2,30.5,31.3,30.7L31.3,30.7z"/>
		</g>
	</g>
	<g>
		<g>
			<path class="st1" d="M33.6,29.7c-0.2,0.8-0.1,1.7,0.2,2.5c0.1,0.2,0.4,0.3,0.5,0.3c0.1,0,0.5,0.1,0.4-0.1
				c-0.3-0.8-0.4-1.6-0.2-2.4c0-0.2-0.3-0.3-0.4-0.3C34,29.6,33.6,29.5,33.6,29.7L33.6,29.7z"/>
		</g>
	</g>
	<g>
		<g>
			<path class="st1" d="M35.7,30.3c0,0.1,0,0.2,0,0.3c0,0,0,0,0-0.1c0.1,0.5,0,0.9-0.1,1.4c0,0.1,0.1,0.1,0.1,0.2
				c0.1,0.1,0.2,0.1,0.3,0.1c0.1,0,0.2,0,0.4,0c0.1,0,0.2,0,0.2-0.1c0.2-0.6,0.2-1.2,0-1.7c0-0.1-0.2-0.1-0.2-0.2
				c-0.1-0.1-0.3-0.1-0.4-0.1C36,30.1,35.7,30.1,35.7,30.3L35.7,30.3z"/>
		</g>
	</g>
	<g>
		<g>
			<path class="st1" d="M38.4,30.5c-0.3,0.4-0.6,0.9-0.8,1.4c0,0.1,0.1,0.1,0.1,0.2c0.1,0.1,0.2,0.1,0.3,0.1c0.1,0,0.2,0,0.4,0
				c0,0,0.1,0,0.1,0c0,0,0.1-0.1,0.1-0.1c0,0,0-0.1,0-0.1c0,0,0,0,0,0.1c0.2-0.4,0.4-0.8,0.7-1.2c0.1-0.2-0.2-0.3-0.3-0.3
				c-0.1,0-0.3,0-0.4,0C38.6,30.4,38.5,30.4,38.4,30.5L38.4,30.5z"/>
		</g>
	</g>
	<g>
		<g>
			<path class="st1" d="M42,29.6c-0.3,0.9-0.8,1.8-1.3,2.6c-0.1,0.2,0.3,0.2,0.4,0.2c0.2,0,0.5,0,0.6-0.2c0.6-0.8,1-1.7,1.3-2.6
				c0.1-0.2-0.2-0.2-0.4-0.2c-0.1,0-0.3,0-0.4,0C42.2,29.5,42,29.5,42,29.6L42,29.6z"/>
		</g>
	</g>
	<g>
		<g>
			<path class="st1" d="M39.9,30.2c-0.2,0.8-0.2,1.5-0.2,2.3c0,0.1,0.1,0.2,0.2,0.2c0.1,0.1,0.2,0.1,0.4,0.1c0.1,0,0.4,0,0.4-0.1
				c-0.1-0.7,0-1.5,0.2-2.2c0-0.2-0.3-0.3-0.4-0.3c-0.1,0-0.2,0-0.4,0C40,30.2,40,30.2,39.9,30.2L39.9,30.2z"/>
		</g>
	</g>
	<g>
		<g>
			<path class="st1" d="M44,31.3c-0.2,0.8-0.7,1.6-1.4,2c-0.2,0.1,0,0.2,0.1,0.3c0.1,0,0.3,0.1,0.4,0.1c0.1,0,0.2,0,0.3-0.1
				c0.8-0.5,1.3-1.3,1.5-2.2c0-0.1-0.1-0.1-0.1-0.2c-0.1-0.1-0.2-0.1-0.3-0.1c-0.1,0-0.2,0-0.4,0C44.1,31.1,44,31.2,44,31.3L44,31.3
				z"/>
		</g>
	</g>
	<g>
		<g>
			<path class="st1" d="M30.6,42.8c-0.4,0.4-0.6,0.9-0.8,1.4c-0.1,0.2,0.3,0.2,0.4,0.2c0.1,0,0.3,0,0.4-0.1c0.1,0,0.2-0.1,0.2-0.1
				c0.2-0.5,0.5-1,0.8-1.4c0-0.1,0-0.1-0.1-0.1c-0.1-0.1-0.2-0.1-0.3-0.1C30.9,42.6,30.7,42.6,30.6,42.8L30.6,42.8z"/>
		</g>
	</g>
	<g>
		<g>
			<path class="st1" d="M33,42.8c0.3,0.8,0.8,1.5,1.4,2c0.2,0.1,0.5,0.2,0.7,0.1c0.1,0,0.4-0.1,0.2-0.3c-0.6-0.5-1-1.2-1.3-1.9
				c0-0.1-0.2-0.1-0.2-0.1c-0.1,0-0.3-0.1-0.4-0.1C33.2,42.6,32.9,42.6,33,42.8L33,42.8z"/>
		</g>
	</g>
	<g>
		<g>
			<path class="st1" d="M35,42.5c0,0,0.1,0.1,0.1,0.2c0.1,0.1,0.1,0.2,0.1,0.3c0.1,0.3,0.2,0.5,0.3,0.8c0.2,0.5,0.4,1,0.6,1.6
				c0.1,0.3,1.1,0.1,1-0.1c-0.2-0.6-0.5-1.1-0.7-1.7c-0.1-0.3-0.2-0.6-0.3-0.8c-0.1-0.3-0.2-0.4-0.5-0.5c-0.2-0.1-0.5,0-0.7,0.1
				C34.8,42.3,34.8,42.4,35,42.5L35,42.5z"/>
		</g>
	</g>
	<g>
		<g>
			<path class="st1" d="M37.5,42.7c0.4,0.8,0.7,1.6,1,2.4c0,0.2,0.4,0.2,0.5,0.2c0.1,0,0.2,0,0.3-0.1c0,0,0.2-0.1,0.1-0.2
				c-0.2-0.9-0.6-1.7-1-2.5c0-0.1-0.2-0.1-0.2-0.1c-0.1,0-0.3,0-0.4,0C37.8,42.5,37.4,42.6,37.5,42.7L37.5,42.7z"/>
		</g>
	</g>
	<g>
		<g>
			<path class="st1" d="M40,42.3c0.1,0.1,0.2,0.2,0.2,0.3c0,0,0,0,0-0.1c0.2,0.3,0.3,0.6,0.4,1c0,0.1,0.1,0.1,0.2,0.2
				c0.1,0.1,0.2,0.1,0.4,0.1c0.1,0,0.4,0,0.4-0.2c-0.1-0.5-0.3-1-0.7-1.4c-0.1-0.1-0.2-0.1-0.3-0.2c-0.1,0-0.3-0.1-0.4-0.1
				c-0.1,0-0.2,0-0.3,0.1C39.9,42.2,39.9,42.2,40,42.3L40,42.3z"/>
		</g>
	</g>
	<g>
		<g>
			<path class="st1" d="M42.2,42.4C42.2,42.4,42.3,42.4,42.2,42.4C42.2,42.4,42.3,42.4,42.2,42.4c0.1,0.1,0.2,0.1,0.2,0.1
				c0.1,0,0.2,0.1,0.3,0.1c0.1,0.1,0.1,0.1,0.2,0.1c0.1,0.1,0.2,0.1,0.3,0.2c0.3,0.3,0.6,0.6,0.9,0.9c0.1,0.2,0.4,0.2,0.6,0.2
				c0.1,0,0.5-0.1,0.4-0.2c-0.6-0.8-1.4-1.4-2.3-1.8c-0.2-0.1-0.5-0.1-0.7,0C41.9,42.2,42.1,42.3,42.2,42.4L42.2,42.4z"/>
		</g>
	</g>
</g>
</svg>
