<?xml version="1.0" encoding="utf-8"?>
<!-- Generator: Adobe Illustrator 25.2.3, SVG Export Plug-In . SVG Version: 6.00 Build 0)  -->
<svg version="1.1" id="Layer_1" xmlns="http://www.w3.org/2000/svg" xmlns:xlink="http://www.w3.org/1999/xlink" x="0px" y="0px"
	 viewBox="0 0 75 75" style="enable-background:new 0 0 75 75;" xml:space="preserve">
<style type="text/css">
	.st0{fill:#CC3363;}
	.st1{fill:#D7D7D7;}
	.st2{opacity:0.1797;}
	.st3{fill:#202020;}
</style>
<path class="st0" d="M3,35c0,0,7,8,28,7s34.5-2.7,34.5-2.7s-0.1-13.6-16.8-11.9C32,29,3.4,34.7,3.4,34.7"/>
<path class="st1" d="M68.9,31.8c-0.4,9.5,0,19.1,1.2,28.6c0.3,2.5,0.5,5.5-1.4,7.1c-0.4,0.4-1,0.7-1.3,1.2c-0.3,0.5-0.2,1.1-0.5,1.6
	s-1,0.8-1.3,0.4c-0.1-0.2-0.1-0.4-0.1-0.6c0-3-0.1-6-0.1-9c-0.1-3.5-0.1-6.9,0.2-10.3c0.5-5.4,1.8-11.2-0.7-15.9
	c-2.6-4.9-8.5-7.2-14-7.5s-11,1.2-16.5,1.7c-4,0.4-8.1,0.4-12.1,1.1c-2.6,0.5-5.2,1.3-7.8,1.8c-2.9,0.5-5.8,0.7-8.8,0.5
	c-0.5,0-1.1-0.1-1.4-0.5c-0.2-0.3-0.3-0.6-0.3-1c-0.5-3.9,0.2-8.3,3.1-10.9c1.5-1.3,3.3-2,5.1-2.8c4.9-2.1,9.6-4.5,14.3-7
	C28.7,9.2,30.8,8,33,7.2c2-0.7,4.1-1,6.2-1.3C47.6,4.8,56.1,4,64.6,3.8c0.8,0,2.7-0.6,3.3-0.1c0.7,0.5,0.7,2.6,0.8,3.3
	c0.5,2.7,0.7,5.5,0.7,8.3C69.6,20.8,69.1,26.3,68.9,31.8z"/>
<g>
	<g>
		<g>
			<path class="st2" d="M9,36.7c0.7,0-0.1-1.3-0.5-1.3C7.9,35.4,8.6,36.7,9,36.7z"/>
			<path class="st2" d="M9.1,36.3c0.6,0,0.1-0.8-0.4-0.8C8.2,35.5,8.7,36.3,9.1,36.3z"/>
			<path class="st2" d="M10.5,37.8c0.6,0-0.9-1.9-1.5-1.9C8.5,35.9,10,37.8,10.5,37.8z"/>
			<path class="st2" d="M10.1,36.9c1,0-0.7-1.3-1.1-1.3C8,35.6,9.7,36.9,10.1,36.9z"/>
			<path class="st2" d="M8.9,36.4c0.2,0,0.4-0.5,0.4-0.5C9.1,35.8,8.9,36.4,8.9,36.4z"/>
			<path class="st2" d="M9.3,37.7c0.7,0,0-1.6-0.4-1.6C8.2,36.1,8.9,37.7,9.3,37.7z"/>
			<path class="st2" d="M8.6,36.9c0.4,0,0.6-0.5,0.2-0.5C8.5,36.4,8.2,36.9,8.6,36.9z"/>
		</g>
	</g>
</g>
<g>
	<g>
		<g>
			<path class="st2" d="M15.9,38.3c0.7,0-0.1-1.3-0.5-1.3C14.7,37,15.5,38.3,15.9,38.3z"/>
			<path class="st2" d="M16,37.8c0.6,0,0.1-0.8-0.4-0.8C15,37.1,15.5,37.8,16,37.8z"/>
			<path class="st2" d="M17.4,39.4c0.6,0-0.9-1.9-1.5-1.9C15.3,37.5,16.8,39.4,17.4,39.4z"/>
			<path class="st2" d="M17,38.5c1,0-0.7-1.3-1.1-1.3C14.9,37.2,16.5,38.5,17,38.5z"/>
			<path class="st2" d="M15.7,37.9c0.2,0,0.4-0.5,0.4-0.5C16,37.4,15.8,37.9,15.7,37.9z"/>
			<path class="st2" d="M16.2,39.3c0.7,0,0-1.6-0.4-1.6C15,37.7,15.8,39.3,16.2,39.3z"/>
			<path class="st2" d="M15.5,38.5c0.4,0,0.6-0.5,0.2-0.5C15.3,38,15.1,38.5,15.5,38.5z"/>
		</g>
	</g>
</g>
<g>
	<g>
		<g>
			<path class="st2" d="M24.4,36.2c0.7,0-0.1-1.3-0.5-1.3C23.3,35,24,36.2,24.4,36.2z"/>
			<path class="st2" d="M24.5,35.8c0.6,0,0.1-0.8-0.4-0.8C23.6,35,24.1,35.8,24.5,35.8z"/>
			<path class="st2" d="M25.9,37.3c0.6,0-0.9-1.9-1.5-1.9C23.8,35.5,25.4,37.3,25.9,37.3z"/>
			<path class="st2" d="M25.5,36.4c1,0-0.7-1.3-1.1-1.3C23.4,35.2,25.1,36.4,25.5,36.4z"/>
			<path class="st2" d="M24.3,35.9c0.2,0,0.4-0.5,0.4-0.5C24.5,35.4,24.3,35.9,24.3,35.9z"/>
			<path class="st2" d="M24.7,37.2c0.7,0,0-1.6-0.4-1.6C23.5,35.6,24.3,37.2,24.7,37.2z"/>
			<path class="st2" d="M24,36.4c0.4,0,0.6-0.5,0.2-0.5C23.9,35.9,23.6,36.4,24,36.4z"/>
		</g>
	</g>
</g>
<g>
	<g>
		<g>
			<path class="st2" d="M16.5,36.6c0.7,0-0.1-1.3-0.5-1.3C15.3,35.3,16.1,36.6,16.5,36.6z"/>
			<path class="st2" d="M16.5,36.2c0.6,0,0.1-0.8-0.4-0.8C15.6,35.4,16.1,36.2,16.5,36.2z"/>
			<path class="st2" d="M17.9,37.7c0.6,0-0.9-1.9-1.5-1.9C15.9,35.8,17.4,37.7,17.9,37.7z"/>
			<path class="st2" d="M17.5,36.8c1,0-0.7-1.3-1.1-1.3C15.5,35.5,17.1,36.8,17.5,36.8z"/>
			<path class="st2" d="M16.3,36.3c0.2,0,0.4-0.5,0.4-0.5C16.5,35.7,16.3,36.3,16.3,36.3z"/>
			<path class="st2" d="M16.7,37.6c0.7,0,0-1.6-0.4-1.6C15.6,36,16.3,37.6,16.7,37.6z"/>
			<path class="st2" d="M16.1,36.8c0.4,0,0.6-0.5,0.2-0.5C15.9,36.3,15.6,36.8,16.1,36.8z"/>
		</g>
	</g>
</g>
<g>
	<g>
		<g>
			<path class="st2" d="M12.6,36.5c0.7,0-0.1-1.3-0.5-1.3C11.5,35.2,12.2,36.5,12.6,36.5z"/>
			<path class="st2" d="M12.7,36.1c0.6,0,0.1-0.8-0.4-0.8C11.8,35.3,12.2,36.1,12.7,36.1z"/>
			<path class="st2" d="M14.1,37.6c0.6,0-0.9-1.9-1.5-1.9C12,35.7,13.5,37.6,14.1,37.6z"/>
			<path class="st2" d="M13.7,36.7c1,0-0.7-1.3-1.1-1.3C11.6,35.4,13.2,36.7,13.7,36.7z"/>
			<path class="st2" d="M12.4,36.2c0.2,0,0.4-0.5,0.4-0.5C12.7,35.7,12.5,36.2,12.4,36.2z"/>
			<path class="st2" d="M12.9,37.5c0.7,0,0-1.6-0.4-1.6C11.7,35.9,12.5,37.5,12.9,37.5z"/>
			<path class="st2" d="M12.2,36.7c0.4,0,0.6-0.5,0.2-0.5C12,36.2,11.8,36.7,12.2,36.7z"/>
		</g>
	</g>
</g>
<g>
	<g>
		<g>
			<path class="st2" d="M13.1,34.9c0.7,0-0.1-1.3-0.5-1.3C11.9,33.7,12.7,34.9,13.1,34.9z"/>
			<path class="st2" d="M13.2,34.5c0.6,0,0.1-0.8-0.4-0.8C12.2,33.7,12.7,34.5,13.2,34.5z"/>
			<path class="st2" d="M14.6,36c0.6,0-0.9-1.9-1.5-1.9C12.5,34.2,14,36,14.6,36z"/>
			<path class="st2" d="M14.1,35.1c1,0-0.7-1.3-1.1-1.3C12.1,33.9,13.7,35.1,14.1,35.1z"/>
			<path class="st2" d="M12.9,34.6c0.2,0,0.4-0.5,0.4-0.5C13.1,34.1,13,34.6,12.9,34.6z"/>
			<path class="st2" d="M13.3,35.9c0.7,0,0-1.6-0.4-1.6C12.2,34.3,13,35.9,13.3,35.9z"/>
			<path class="st2" d="M12.7,35.1c0.4,0,0.6-0.5,0.2-0.5C12.5,34.6,12.3,35.1,12.7,35.1z"/>
		</g>
	</g>
</g>
<g>
	<g>
		<g>
			<path class="st2" d="M22.2,34.4c0.7,0-0.1-1.3-0.5-1.3C21,33.1,21.8,34.4,22.2,34.4z"/>
			<path class="st2" d="M22.3,33.9c0.6,0,0.1-0.8-0.4-0.8C21.3,33.1,21.8,33.9,22.3,33.9z"/>
			<path class="st2" d="M23.7,35.5c0.6,0-0.9-1.9-1.5-1.9C21.6,33.6,23.1,35.5,23.7,35.5z"/>
			<path class="st2" d="M23.2,34.6c1,0-0.7-1.3-1.1-1.3C21.2,33.3,22.8,34.6,23.2,34.6z"/>
			<path class="st2" d="M22,34c0.2,0,0.4-0.5,0.4-0.5C22.2,33.5,22.1,34,22,34z"/>
			<path class="st2" d="M22.4,35.3c0.7,0,0-1.6-0.4-1.6C21.3,33.7,22.1,35.3,22.4,35.3z"/>
			<path class="st2" d="M21.8,34.5c0.4,0,0.6-0.5,0.2-0.5C21.6,34,21.4,34.5,21.8,34.5z"/>
		</g>
	</g>
</g>
<g>
	<g>
		<g>
			<path class="st2" d="M19,34.5c0.7,0-0.1-1.3-0.5-1.3C17.8,33.2,18.6,34.5,19,34.5z"/>
			<path class="st2" d="M19.1,34c0.6,0,0.1-0.8-0.4-0.8C18.1,33.2,18.6,34,19.1,34z"/>
			<path class="st2" d="M20.5,35.6c0.6,0-0.9-1.9-1.5-1.9C18.4,33.7,19.9,35.6,20.5,35.6z"/>
			<path class="st2" d="M20,34.6c1,0-0.7-1.3-1.1-1.3C18,33.4,19.6,34.6,20,34.6z"/>
			<path class="st2" d="M18.8,34.1c0.2,0,0.4-0.5,0.4-0.5C19.1,33.6,18.9,34.1,18.8,34.1z"/>
			<path class="st2" d="M19.3,35.4c0.7,0,0-1.6-0.4-1.6C18.1,33.8,18.9,35.4,19.3,35.4z"/>
			<path class="st2" d="M18.6,34.6c0.4,0,0.6-0.5,0.2-0.5C18.4,34.1,18.2,34.6,18.6,34.6z"/>
		</g>
	</g>
</g>
<g>
	<g>
		<g>
			<path class="st2" d="M17.1,34.8c0.7,0-0.1-1.3-0.5-1.3C16,33.6,16.7,34.8,17.1,34.8z"/>
			<path class="st2" d="M17.2,34.4c0.6,0,0.1-0.8-0.4-0.8C16.3,33.6,16.7,34.4,17.2,34.4z"/>
			<path class="st2" d="M18.6,35.9c0.6,0-0.9-1.9-1.5-1.9C16.5,34.1,18.1,35.9,18.6,35.9z"/>
			<path class="st2" d="M18.2,35c1,0-0.7-1.3-1.1-1.3C16.1,33.8,17.7,35,18.2,35z"/>
			<path class="st2" d="M16.9,34.5c0.2,0,0.4-0.5,0.4-0.5C17.2,34,17,34.5,16.9,34.5z"/>
			<path class="st2" d="M17.4,35.8c0.7,0,0-1.6-0.4-1.6C16.2,34.2,17,35.8,17.4,35.8z"/>
			<path class="st2" d="M16.7,35c0.4,0,0.6-0.5,0.2-0.5C16.5,34.5,16.3,35,16.7,35z"/>
		</g>
	</g>
</g>
<g>
	<g>
		<g>
			<path class="st2" d="M6.1,36.3c0.7,0-0.1-1.3-0.5-1.3C5,35.1,5.7,36.3,6.1,36.3z"/>
			<path class="st2" d="M6.2,35.9c0.6,0,0.1-0.8-0.4-0.8C5.3,35.1,5.8,35.9,6.2,35.9z"/>
			<path class="st2" d="M7.6,37.4c0.6,0-0.9-1.9-1.5-1.9C5.5,35.6,7.1,37.4,7.6,37.4z"/>
			<path class="st2" d="M7.2,36.5c1,0-0.7-1.3-1.1-1.3C5.1,35.3,6.8,36.5,7.2,36.5z"/>
			<path class="st2" d="M6,36c0.2,0,0.4-0.5,0.4-0.5C6.2,35.5,6,36,6,36z"/>
			<path class="st2" d="M6.4,37.3c0.7,0,0-1.6-0.4-1.6C5.2,35.7,6,37.3,6.4,37.3z"/>
			<path class="st2" d="M5.7,36.5c0.4,0,0.6-0.5,0.2-0.5C5.6,36,5.3,36.5,5.7,36.5z"/>
		</g>
	</g>
</g>
<g>
	<g>
		<g>
			<path class="st2" d="M5.4,36.2c0.7,0-0.1-1.3-0.5-1.3C4.2,34.9,5,36.2,5.4,36.2z"/>
			<path class="st2" d="M5.5,35.7c0.6,0,0.1-0.8-0.4-0.8C4.5,34.9,5,35.7,5.5,35.7z"/>
			<path class="st2" d="M6.9,37.2c0.6,0-0.9-1.9-1.5-1.9C4.8,35.4,6.3,37.2,6.9,37.2z"/>
			<path class="st2" d="M6.4,36.3c1,0-0.7-1.3-1.1-1.3C4.4,35.1,6,36.3,6.4,36.3z"/>
			<path class="st2" d="M5.2,35.8c0.2,0,0.4-0.5,0.4-0.5C5.4,35.3,5.3,35.8,5.2,35.8z"/>
			<path class="st2" d="M5.6,37.1c0.7,0,0-1.6-0.4-1.6C4.5,35.5,5.3,37.1,5.6,37.1z"/>
			<path class="st2" d="M5,36.3c0.4,0,0.6-0.5,0.2-0.5C4.8,35.8,4.6,36.3,5,36.3z"/>
		</g>
	</g>
</g>
<g>
	<g>
		<g>
			<path class="st2" d="M11.5,35.7c0.7,0-0.1-1.3-0.5-1.3C10.3,34.4,11.1,35.7,11.5,35.7z"/>
			<path class="st2" d="M11.6,35.2c0.6,0,0.1-0.8-0.4-0.8C10.6,34.4,11.1,35.2,11.6,35.2z"/>
			<path class="st2" d="M13,36.8c0.6,0-0.9-1.9-1.5-1.9C10.9,34.9,12.4,36.8,13,36.8z"/>
			<path class="st2" d="M12.5,35.9c1,0-0.7-1.3-1.1-1.3C10.5,34.6,12.1,35.9,12.5,35.9z"/>
			<path class="st2" d="M11.3,35.3c0.2,0,0.4-0.5,0.4-0.5C11.5,34.8,11.4,35.3,11.3,35.3z"/>
			<path class="st2" d="M11.7,36.6c0.7,0,0-1.6-0.4-1.6C10.6,35,11.4,36.6,11.7,36.6z"/>
			<path class="st2" d="M11.1,35.8c0.4,0,0.6-0.5,0.2-0.5C10.9,35.3,10.7,35.8,11.1,35.8z"/>
		</g>
	</g>
</g>
<g>
	<g>
		<g>
			<path class="st2" d="M8.5,35.4c0.7,0-0.1-1.3-0.5-1.3C7.3,34.1,8.1,35.4,8.5,35.4z"/>
			<path class="st2" d="M8.6,34.9c0.6,0,0.1-0.8-0.4-0.8C7.6,34.1,8.1,34.9,8.6,34.9z"/>
			<path class="st2" d="M10,36.5c0.6,0-0.9-1.9-1.5-1.9C7.9,34.6,9.4,36.5,10,36.5z"/>
			<path class="st2" d="M9.5,35.6c1,0-0.7-1.3-1.1-1.3C7.5,34.3,9.1,35.6,9.5,35.6z"/>
			<path class="st2" d="M8.3,35c0.2,0,0.4-0.5,0.4-0.5C8.5,34.5,8.4,35,8.3,35z"/>
			<path class="st2" d="M8.7,36.4c0.7,0,0-1.6-0.4-1.6C7.6,34.7,8.4,36.4,8.7,36.4z"/>
			<path class="st2" d="M8.1,35.5c0.4,0,0.6-0.5,0.2-0.5C7.9,35.1,7.7,35.5,8.1,35.5z"/>
		</g>
	</g>
</g>
<g>
	<g>
		<g>
			<path class="st2" d="M12.4,38.8c0.7,0-0.1-1.3-0.5-1.3C11.3,37.5,12,38.8,12.4,38.8z"/>
			<path class="st2" d="M12.5,38.3c0.6,0,0.1-0.8-0.4-0.8C11.6,37.5,12.1,38.3,12.5,38.3z"/>
			<path class="st2" d="M13.9,39.9c0.6,0-0.9-1.9-1.5-1.9C11.8,38,13.4,39.9,13.9,39.9z"/>
			<path class="st2" d="M13.5,39c1,0-0.7-1.3-1.1-1.3C11.4,37.7,13.1,39,13.5,39z"/>
			<path class="st2" d="M12.2,38.4c0.2,0,0.4-0.5,0.4-0.5C12.5,37.9,12.3,38.4,12.2,38.4z"/>
			<path class="st2" d="M12.7,39.7c0.7,0,0-1.6-0.4-1.6C11.5,38.1,12.3,39.7,12.7,39.7z"/>
			<path class="st2" d="M12,38.9c0.4,0,0.6-0.5,0.2-0.5C11.9,38.4,11.6,38.9,12,38.9z"/>
		</g>
	</g>
</g>
<g>
	<g>
		<g>
			<path class="st2" d="M17.1,40.6c0.7,0-0.1-1.3-0.5-1.3C15.9,39.3,16.7,40.6,17.1,40.6z"/>
			<path class="st2" d="M17.2,40.1c0.6,0,0.1-0.8-0.4-0.8C16.2,39.3,16.7,40.1,17.2,40.1z"/>
			<path class="st2" d="M18.6,41.7c0.6,0-0.9-1.9-1.5-1.9C16.5,39.8,18,41.7,18.6,41.7z"/>
			<path class="st2" d="M18.1,40.7c1,0-0.7-1.3-1.1-1.3C16.1,39.5,17.7,40.7,18.1,40.7z"/>
			<path class="st2" d="M16.9,40.2c0.2,0,0.4-0.5,0.4-0.5C17.1,39.7,17,40.2,16.9,40.2z"/>
			<path class="st2" d="M17.3,41.5c0.7,0,0-1.6-0.4-1.6C16.2,39.9,17,41.5,17.3,41.5z"/>
			<path class="st2" d="M16.7,40.7c0.4,0,0.6-0.5,0.2-0.5C16.5,40.2,16.3,40.7,16.7,40.7z"/>
		</g>
	</g>
</g>
<g>
	<g>
		<g>
			<path class="st2" d="M19.9,41c0.7,0-0.1-1.3-0.5-1.3C18.8,39.8,19.5,41,19.9,41z"/>
			<path class="st2" d="M20,40.6c0.6,0,0.1-0.8-0.4-0.8C19.1,39.8,19.6,40.6,20,40.6z"/>
			<path class="st2" d="M21.4,42.1c0.6,0-0.9-1.9-1.5-1.9C19.3,40.3,20.9,42.1,21.4,42.1z"/>
			<path class="st2" d="M21,41.2c1,0-0.7-1.3-1.1-1.3C18.9,40,20.6,41.2,21,41.2z"/>
			<path class="st2" d="M19.7,40.7c0.2,0,0.4-0.5,0.4-0.5C20,40.2,19.8,40.7,19.7,40.7z"/>
			<path class="st2" d="M20.2,42c0.7,0,0-1.6-0.4-1.6C19,40.4,19.8,42,20.2,42z"/>
			<path class="st2" d="M19.5,41.2c0.4,0,0.6-0.5,0.2-0.5C19.4,40.7,19.1,41.2,19.5,41.2z"/>
		</g>
	</g>
</g>
<g>
	<g>
		<g>
			<path class="st2" d="M19.4,38.8c0.7,0-0.1-1.3-0.5-1.3C18.2,37.5,19,38.8,19.4,38.8z"/>
			<path class="st2" d="M19.4,38.3c0.6,0,0.1-0.8-0.4-0.8C18.5,37.5,19,38.3,19.4,38.3z"/>
			<path class="st2" d="M20.9,39.9c0.6,0-0.9-1.9-1.5-1.9C18.8,38,20.3,39.9,20.9,39.9z"/>
			<path class="st2" d="M20.4,39c1,0-0.7-1.3-1.1-1.3C18.4,37.7,20,39,20.4,39z"/>
			<path class="st2" d="M19.2,38.4c0.2,0,0.4-0.5,0.4-0.5C19.4,37.9,19.2,38.4,19.2,38.4z"/>
			<path class="st2" d="M19.6,39.7c0.7,0,0-1.6-0.4-1.6C18.5,38.1,19.2,39.7,19.6,39.7z"/>
			<path class="st2" d="M19,38.9c0.4,0,0.6-0.5,0.2-0.5C18.8,38.4,18.5,38.9,19,38.9z"/>
		</g>
	</g>
</g>
<g>
	<g>
		<g>
			<path class="st2" d="M20.8,37.7c0.7,0-0.1-1.3-0.5-1.3C19.6,36.5,20.4,37.7,20.8,37.7z"/>
			<path class="st2" d="M20.9,37.3c0.6,0,0.1-0.8-0.4-0.8C19.9,36.5,20.4,37.3,20.9,37.3z"/>
			<path class="st2" d="M22.3,38.8c0.6,0-0.9-1.9-1.5-1.9C20.2,37,21.7,38.8,22.3,38.8z"/>
			<path class="st2" d="M21.8,37.9c1,0-0.7-1.3-1.1-1.3C19.8,36.7,21.4,37.9,21.8,37.9z"/>
			<path class="st2" d="M20.6,37.4c0.2,0,0.4-0.5,0.4-0.5C20.8,36.9,20.7,37.4,20.6,37.4z"/>
			<path class="st2" d="M21,38.7c0.7,0,0-1.6-0.4-1.6C19.9,37.1,20.7,38.7,21,38.7z"/>
			<path class="st2" d="M20.4,37.9c0.4,0,0.6-0.5,0.2-0.5C20.2,37.4,19.9,37.9,20.4,37.9z"/>
		</g>
	</g>
</g>
<g>
	<g>
		<g>
			<path class="st2" d="M23.3,37.7c0.7,0-0.1-1.3-0.5-1.3C22.2,36.5,22.9,37.7,23.3,37.7z"/>
			<path class="st2" d="M23.4,37.3c0.6,0,0.1-0.8-0.4-0.8C22.5,36.5,22.9,37.3,23.4,37.3z"/>
			<path class="st2" d="M24.8,38.8c0.6,0-0.9-1.9-1.5-1.9C22.7,37,24.2,38.8,24.8,38.8z"/>
			<path class="st2" d="M24.4,37.9c1,0-0.7-1.3-1.1-1.3C22.3,36.7,23.9,37.9,24.4,37.9z"/>
			<path class="st2" d="M23.1,37.4c0.2,0,0.4-0.5,0.4-0.5C23.4,36.9,23.2,37.4,23.1,37.4z"/>
			<path class="st2" d="M23.6,38.7c0.7,0,0-1.6-0.4-1.6C22.4,37.1,23.2,38.7,23.6,38.7z"/>
			<path class="st2" d="M22.9,37.9c0.4,0,0.6-0.5,0.2-0.5C22.7,37.4,22.5,37.9,22.9,37.9z"/>
		</g>
	</g>
</g>
<g>
	<g>
		<g>
			<path class="st2" d="M24.6,40.8c0.7,0-0.1-1.3-0.5-1.3C23.5,39.6,24.2,40.8,24.6,40.8z"/>
			<path class="st2" d="M24.7,40.4c0.6,0,0.1-0.8-0.4-0.8C23.8,39.6,24.3,40.4,24.7,40.4z"/>
			<path class="st2" d="M26.1,41.9c0.6,0-0.9-1.9-1.5-1.9C24,40.1,25.6,41.9,26.1,41.9z"/>
			<path class="st2" d="M25.7,41c1,0-0.7-1.3-1.1-1.3C23.6,39.8,25.3,41,25.7,41z"/>
			<path class="st2" d="M24.4,40.5c0.2,0,0.4-0.5,0.4-0.5C24.7,40,24.5,40.5,24.4,40.5z"/>
			<path class="st2" d="M24.9,41.8c0.7,0,0-1.6-0.4-1.6C23.7,40.2,24.5,41.8,24.9,41.8z"/>
			<path class="st2" d="M24.2,41c0.4,0,0.6-0.5,0.2-0.5C24.1,40.5,23.8,41,24.2,41z"/>
		</g>
	</g>
</g>
<g>
	<g>
		<g>
			<path class="st2" d="M21.9,40.2c0.7,0-0.1-1.3-0.5-1.3C20.8,38.9,21.5,40.2,21.9,40.2z"/>
			<path class="st2" d="M22,39.8c0.6,0,0.1-0.8-0.4-0.8C21.1,39,21.6,39.8,22,39.8z"/>
			<path class="st2" d="M23.4,41.3c0.6,0-0.9-1.9-1.5-1.9C21.3,39.4,22.9,41.3,23.4,41.3z"/>
			<path class="st2" d="M23,40.4c1,0-0.7-1.3-1.1-1.3C20.9,39.1,22.6,40.4,23,40.4z"/>
			<path class="st2" d="M21.8,39.9c0.2,0,0.4-0.5,0.4-0.5C22,39.3,21.8,39.9,21.8,39.9z"/>
			<path class="st2" d="M22.2,41.2c0.7,0,0-1.6-0.4-1.6C21,39.6,21.8,41.2,22.2,41.2z"/>
			<path class="st2" d="M21.5,40.4c0.4,0,0.6-0.5,0.2-0.5C21.4,39.9,21.1,40.4,21.5,40.4z"/>
		</g>
	</g>
</g>
<g>
	<g>
		<g>
			<path class="st2" d="M26.9,39c0.7,0-0.1-1.3-0.5-1.3C25.7,37.7,26.5,39,26.9,39z"/>
			<path class="st2" d="M27,38.5c0.6,0,0.1-0.8-0.4-0.8C26,37.7,26.5,38.5,27,38.5z"/>
			<path class="st2" d="M28.4,40.1c0.6,0-0.9-1.9-1.5-1.9C26.3,38.2,27.8,40.1,28.4,40.1z"/>
			<path class="st2" d="M27.9,39.1c1,0-0.7-1.3-1.1-1.3C25.9,37.9,27.5,39.1,27.9,39.1z"/>
			<path class="st2" d="M26.7,38.6c0.2,0,0.4-0.5,0.4-0.5C26.9,38.1,26.8,38.6,26.7,38.6z"/>
			<path class="st2" d="M27.1,39.9c0.7,0,0-1.6-0.4-1.6C26,38.3,26.8,39.9,27.1,39.9z"/>
			<path class="st2" d="M26.5,39.1c0.4,0,0.6-0.5,0.2-0.5C26.3,38.6,26,39.1,26.5,39.1z"/>
		</g>
	</g>
</g>
<g>
	<g>
		<g>
			<path class="st2" d="M27.3,37.4c0.7,0-0.1-1.3-0.5-1.3C26.2,36.1,26.9,37.4,27.3,37.4z"/>
			<path class="st2" d="M27.4,36.9c0.6,0,0.1-0.8-0.4-0.8C26.5,36.1,27,36.9,27.4,36.9z"/>
			<path class="st2" d="M28.8,38.5c0.6,0-0.9-1.9-1.5-1.9C26.8,36.6,28.3,38.5,28.8,38.5z"/>
			<path class="st2" d="M28.4,37.6c1,0-0.7-1.3-1.1-1.3C26.3,36.3,28,37.6,28.4,37.6z"/>
			<path class="st2" d="M27.2,37c0.2,0,0.4-0.5,0.4-0.5C27.4,36.5,27.2,37,27.2,37z"/>
			<path class="st2" d="M27.6,38.3c0.7,0,0-1.6-0.4-1.6C26.5,36.7,27.2,38.3,27.6,38.3z"/>
			<path class="st2" d="M27,37.5c0.4,0,0.6-0.5,0.2-0.5C26.8,37,26.5,37.5,27,37.5z"/>
		</g>
	</g>
</g>
<g>
	<g>
		<g>
			<path class="st2" d="M25.7,34.3c0.7,0-0.1-1.3-0.5-1.3C24.5,33,25.2,34.3,25.7,34.3z"/>
			<path class="st2" d="M25.7,33.8c0.6,0,0.1-0.8-0.4-0.8C24.8,33,25.3,33.8,25.7,33.8z"/>
			<path class="st2" d="M27.1,35.4c0.6,0-0.9-1.9-1.5-1.9C25.1,33.5,26.6,35.4,27.1,35.4z"/>
			<path class="st2" d="M26.7,34.5c1,0-0.7-1.3-1.1-1.3C24.7,33.2,26.3,34.5,26.7,34.5z"/>
			<path class="st2" d="M25.5,33.9c0.2,0,0.4-0.5,0.4-0.5C25.7,33.4,25.5,33.9,25.5,33.9z"/>
			<path class="st2" d="M25.9,35.2c0.7,0,0-1.6-0.4-1.6C24.8,33.6,25.5,35.2,25.9,35.2z"/>
			<path class="st2" d="M25.3,34.4c0.4,0,0.6-0.5,0.2-0.5C25.1,33.9,24.8,34.4,25.3,34.4z"/>
		</g>
	</g>
</g>
<g>
	<g>
		<g>
			<path class="st2" d="M23.5,33.8c0.7,0-0.1-1.3-0.5-1.3C22.4,32.5,23.1,33.8,23.5,33.8z"/>
			<path class="st2" d="M23.6,33.3c0.6,0,0.1-0.8-0.4-0.8C22.6,32.5,23.1,33.3,23.6,33.3z"/>
			<path class="st2" d="M25,34.9c0.6,0-0.9-1.9-1.5-1.9C22.9,33,24.4,34.9,25,34.9z"/>
			<path class="st2" d="M24.6,34c1,0-0.7-1.3-1.1-1.3C22.5,32.7,24.1,34,24.6,34z"/>
			<path class="st2" d="M23.3,33.4c0.2,0,0.4-0.5,0.4-0.5C23.6,32.9,23.4,33.4,23.3,33.4z"/>
			<path class="st2" d="M23.8,34.8c0.7,0,0-1.6-0.4-1.6C22.6,33.1,23.4,34.8,23.8,34.8z"/>
			<path class="st2" d="M23.1,34c0.4,0,0.6-0.5,0.2-0.5C22.9,33.5,22.7,34,23.1,34z"/>
		</g>
	</g>
</g>
<g>
	<g>
		<g>
			<path class="st2" d="M30.1,33.8c0.7,0-0.1-1.3-0.5-1.3C28.9,32.5,29.7,33.8,30.1,33.8z"/>
			<path class="st2" d="M30.1,33.3c0.6,0,0.1-0.8-0.4-0.8C29.2,32.5,29.7,33.3,30.1,33.3z"/>
			<path class="st2" d="M31.6,34.9c0.6,0-0.9-1.9-1.5-1.9C29.5,33,31,34.9,31.6,34.9z"/>
			<path class="st2" d="M31.1,34c1,0-0.7-1.3-1.1-1.3C29.1,32.7,30.7,34,31.1,34z"/>
			<path class="st2" d="M29.9,33.4c0.2,0,0.4-0.5,0.4-0.5C30.1,32.9,29.9,33.4,29.9,33.4z"/>
			<path class="st2" d="M30.3,34.8c0.7,0,0-1.6-0.4-1.6C29.2,33.1,29.9,34.8,30.3,34.8z"/>
			<path class="st2" d="M29.7,34c0.4,0,0.6-0.5,0.2-0.5C29.5,33.5,29.2,34,29.7,34z"/>
		</g>
	</g>
</g>
<g>
	<g>
		<g>
			<path class="st2" d="M27.3,32.7c0.7,0-0.1-1.3-0.5-1.3C26.2,31.4,26.9,32.7,27.3,32.7z"/>
			<path class="st2" d="M27.4,32.2c0.6,0,0.1-0.8-0.4-0.8C26.5,31.4,27,32.2,27.4,32.2z"/>
			<path class="st2" d="M28.8,33.8c0.6,0-0.9-1.9-1.5-1.9C26.8,31.9,28.3,33.8,28.8,33.8z"/>
			<path class="st2" d="M28.4,32.9c1,0-0.7-1.3-1.1-1.3C26.3,31.6,28,32.9,28.4,32.9z"/>
			<path class="st2" d="M27.2,32.3c0.2,0,0.4-0.5,0.4-0.5C27.4,31.8,27.2,32.3,27.2,32.3z"/>
			<path class="st2" d="M27.6,33.6c0.7,0,0-1.6-0.4-1.6C26.5,32,27.2,33.6,27.6,33.6z"/>
			<path class="st2" d="M27,32.8c0.4,0,0.6-0.5,0.2-0.5C26.8,32.3,26.5,32.8,27,32.8z"/>
		</g>
	</g>
</g>
<g>
	<g>
		<g>
			<path class="st2" d="M25.7,32.5c0.7,0-0.1-1.3-0.5-1.3C24.6,31.2,25.3,32.5,25.7,32.5z"/>
			<path class="st2" d="M25.8,32c0.6,0,0.1-0.8-0.4-0.8C24.9,31.2,25.4,32,25.8,32z"/>
			<path class="st2" d="M27.2,33.6c0.6,0-0.9-1.9-1.5-1.9C25.2,31.7,26.7,33.6,27.2,33.6z"/>
			<path class="st2" d="M26.8,32.7c1,0-0.7-1.3-1.1-1.3C24.7,31.4,26.4,32.7,26.8,32.7z"/>
			<path class="st2" d="M25.6,32.1c0.2,0,0.4-0.5,0.4-0.5C25.8,31.6,25.6,32.1,25.6,32.1z"/>
			<path class="st2" d="M26,33.4c0.7,0,0-1.6-0.4-1.6C24.9,31.8,25.6,33.4,26,33.4z"/>
			<path class="st2" d="M25.4,32.6c0.4,0,0.6-0.5,0.2-0.5C25.2,32.1,24.9,32.6,25.4,32.6z"/>
		</g>
	</g>
</g>
<g>
	<g>
		<g>
			<path class="st2" d="M15.2,34.6c0.1,0,0.1,0,0.2,0c0.7,0-0.2-1.2-0.6-1.3c0,0-0.1,0-0.1,0C14.1,33.2,14.8,34.6,15.2,34.6z"/>
			<path class="st2" d="M15.3,34.1c0.1,0,0.1,0,0.2,0c0.6,0,0-0.8-0.4-0.8c0,0-0.1,0-0.1,0C14.4,33.3,14.9,34.1,15.3,34.1z"/>
			<path class="st2" d="M16.7,35.7c0.1,0,0.1,0,0.2,0c0.6,0-1-1.8-1.5-1.9c-0.1,0-0.1,0-0.2,0c-0.5,0,0.1,0.7,0.1,0.8
				C15.6,34.9,16.3,35.7,16.7,35.7z"/>
			<path class="st2" d="M16.3,34.7c0.1,0,0.1,0,0.2,0c1,0-0.7-1.2-1.1-1.3c-0.1,0-0.1,0-0.2,0C14.3,33.4,15.8,34.7,16.3,34.7z"/>
			<path class="st2" d="M15.1,34.2c0.1,0,0.1,0,0.2,0c0.2,0,0.4-0.5,0.4-0.5c-0.1,0-0.1,0-0.2,0C15.3,33.7,15.1,34.2,15.1,34.2z"/>
			<path class="st2" d="M15.5,35.5c0.1,0,0.1,0,0.2,0c0.7,0-0.1-1.6-0.5-1.6c0,0-0.1,0-0.1,0C14.4,33.9,15.1,35.5,15.5,35.5z"/>
			<path class="st2" d="M14.7,34.7c0.1,0,0.1,0,0.2,0c0.4,0,0.8-0.5,0.3-0.5c-0.1,0-0.1,0-0.2,0C14.8,34.2,14.4,34.7,14.7,34.7z"/>
		</g>
	</g>
</g>
<g>
	<g>
		<g>
			<path class="st2" d="M20.4,33.3c0.7,0-0.1-1.3-0.5-1.3C19.3,32.1,20,33.3,20.4,33.3z"/>
			<path class="st2" d="M20.5,32.9c0.6,0,0.1-0.8-0.4-0.8C19.5,32.1,20,32.9,20.5,32.9z"/>
			<path class="st2" d="M21.9,34.4c0.6,0-0.9-1.9-1.5-1.9C19.8,32.6,21.3,34.4,21.9,34.4z"/>
			<path class="st2" d="M21.5,33.5c1,0-0.7-1.3-1.1-1.3C19.4,32.3,21,33.5,21.5,33.5z"/>
			<path class="st2" d="M20.2,33c0.2,0,0.4-0.5,0.4-0.5C20.5,32.5,20.3,33,20.2,33z"/>
			<path class="st2" d="M20.7,34.3c0.7,0,0-1.6-0.4-1.6C19.5,32.7,20.3,34.3,20.7,34.3z"/>
			<path class="st2" d="M20,33.5c0.4,0,0.6-0.5,0.2-0.5C19.8,33,19.6,33.5,20,33.5z"/>
		</g>
	</g>
</g>
<g>
	<g>
		<g>
			<path class="st2" d="M21.7,36.5c0.7,0-0.1-1.3-0.5-1.3C20.6,35.2,21.3,36.5,21.7,36.5z"/>
			<path class="st2" d="M21.8,36.1c0.6,0,0.1-0.8-0.4-0.8C20.9,35.3,21.3,36.1,21.8,36.1z"/>
			<path class="st2" d="M23.2,37.6c0.6,0-0.9-1.9-1.5-1.9C21.1,35.7,22.7,37.6,23.2,37.6z"/>
			<path class="st2" d="M22.8,36.7c1,0-0.7-1.3-1.1-1.3C20.7,35.4,22.3,36.7,22.8,36.7z"/>
			<path class="st2" d="M21.5,36.2c0.2,0,0.4-0.5,0.4-0.5C21.8,35.7,21.6,36.2,21.5,36.2z"/>
			<path class="st2" d="M22,37.5c0.7,0,0-1.6-0.4-1.6C20.8,35.9,21.6,37.5,22,37.5z"/>
			<path class="st2" d="M21.3,36.7c0.4,0,0.6-0.5,0.2-0.5C21.1,36.2,20.9,36.7,21.3,36.7z"/>
		</g>
	</g>
</g>
<g>
	<g>
		<g>
			<path class="st2" d="M30.3,32.2c0.7,0-0.1-1.3-0.5-1.3C29.2,30.9,29.9,32.2,30.3,32.2z"/>
			<path class="st2" d="M30.4,31.7c0.6,0,0.1-0.8-0.4-0.8C29.5,31,30,31.7,30.4,31.7z"/>
			<path class="st2" d="M31.8,33.3c0.6,0-0.9-1.9-1.5-1.9C29.8,31.4,31.3,33.3,31.8,33.3z"/>
			<path class="st2" d="M31.4,32.4c1,0-0.7-1.3-1.1-1.3C29.3,31.1,31,32.4,31.4,32.4z"/>
			<path class="st2" d="M30.2,31.8c0.2,0,0.4-0.5,0.4-0.5C30.4,31.3,30.2,31.8,30.2,31.8z"/>
			<path class="st2" d="M30.6,33.2c0.7,0,0-1.6-0.4-1.6C29.5,31.6,30.2,33.2,30.6,33.2z"/>
			<path class="st2" d="M30,32.4c0.4,0,0.6-0.5,0.2-0.5C29.8,31.9,29.5,32.4,30,32.4z"/>
		</g>
	</g>
</g>
<g>
	<g>
		<g>
			<path class="st2" d="M33.3,32.7c0.7,0-0.1-1.3-0.5-1.3C32.1,31.4,32.9,32.7,33.3,32.7z"/>
			<path class="st2" d="M33.3,32.2c0.6,0,0.1-0.8-0.4-0.8C32.4,31.4,32.9,32.2,33.3,32.2z"/>
			<path class="st2" d="M34.7,33.8c0.6,0-0.9-1.9-1.5-1.9C32.7,31.9,34.2,33.8,34.7,33.8z"/>
			<path class="st2" d="M34.3,32.9c1,0-0.7-1.3-1.1-1.3C32.3,31.6,33.9,32.9,34.3,32.9z"/>
			<path class="st2" d="M33.1,32.3c0.2,0,0.4-0.5,0.4-0.5C33.3,31.8,33.1,32.3,33.1,32.3z"/>
			<path class="st2" d="M33.5,33.6c0.7,0,0-1.6-0.4-1.6C32.4,32,33.1,33.6,33.5,33.6z"/>
			<path class="st2" d="M32.9,32.8c0.4,0,0.6-0.5,0.2-0.5C32.7,32.3,32.4,32.8,32.9,32.8z"/>
		</g>
	</g>
</g>
<g>
	<g>
		<g>
			<path class="st2" d="M34.7,32c0.7,0-0.1-1.3-0.5-1.3C33.5,30.7,34.3,32,34.7,32z"/>
			<path class="st2" d="M34.7,31.6c0.6,0,0.1-0.8-0.4-0.8C33.8,30.8,34.3,31.6,34.7,31.6z"/>
			<path class="st2" d="M36.1,33.1c0.6,0-0.9-1.9-1.5-1.9C34.1,31.2,35.6,33.1,36.1,33.1z"/>
			<path class="st2" d="M35.7,32.2c1,0-0.7-1.3-1.1-1.3C33.7,30.9,35.3,32.2,35.7,32.2z"/>
			<path class="st2" d="M34.5,31.7c0.2,0,0.4-0.5,0.4-0.5C34.7,31.1,34.5,31.7,34.5,31.7z"/>
			<path class="st2" d="M34.9,33c0.7,0,0-1.6-0.4-1.6C33.8,31.4,34.5,33,34.9,33z"/>
			<path class="st2" d="M34.3,32.2c0.4,0,0.6-0.5,0.2-0.5C34.1,31.7,33.8,32.2,34.3,32.2z"/>
		</g>
	</g>
</g>
<g>
	<g>
		<g>
			<path class="st2" d="M36.6,32.7c0.7,0-0.1-1.3-0.5-1.3C35.5,31.4,36.2,32.7,36.6,32.7z"/>
			<path class="st2" d="M36.7,32.2c0.6,0,0.1-0.8-0.4-0.8C35.8,31.4,36.3,32.2,36.7,32.2z"/>
			<path class="st2" d="M38.1,33.8c0.6,0-0.9-1.9-1.5-1.9C36,31.9,37.6,33.8,38.1,33.8z"/>
			<path class="st2" d="M37.7,32.9c1,0-0.7-1.3-1.1-1.3C35.6,31.6,37.3,32.9,37.7,32.9z"/>
			<path class="st2" d="M36.5,32.3c0.2,0,0.4-0.5,0.4-0.5C36.7,31.8,36.5,32.3,36.5,32.3z"/>
			<path class="st2" d="M36.9,33.6c0.7,0,0-1.6-0.4-1.6C35.7,32,36.5,33.6,36.9,33.6z"/>
			<path class="st2" d="M36.2,32.8c0.4,0,0.6-0.5,0.2-0.5C36.1,32.3,35.8,32.8,36.2,32.8z"/>
		</g>
	</g>
</g>
<g>
	<g>
		<g>
			<path class="st2" d="M39.3,31.9c0.7,0-0.1-1.3-0.5-1.3C38.1,30.7,38.9,31.9,39.3,31.9z"/>
			<path class="st2" d="M39.3,31.5c0.6,0,0.1-0.8-0.4-0.8C38.4,30.7,38.9,31.5,39.3,31.5z"/>
			<path class="st2" d="M40.7,33c0.6,0-0.9-1.9-1.5-1.9C38.7,31.1,40.2,33,40.7,33z"/>
			<path class="st2" d="M40.3,32.1c1,0-0.7-1.3-1.1-1.3C38.3,30.8,39.9,32.1,40.3,32.1z"/>
			<path class="st2" d="M39.1,31.6c0.2,0,0.4-0.5,0.4-0.5C39.3,31.1,39.1,31.6,39.1,31.6z"/>
			<path class="st2" d="M39.5,32.9c0.7,0,0-1.6-0.4-1.6C38.4,31.3,39.1,32.9,39.5,32.9z"/>
			<path class="st2" d="M38.9,32.1c0.4,0,0.6-0.5,0.2-0.5C38.7,31.6,38.4,32.1,38.9,32.1z"/>
		</g>
	</g>
</g>
<g>
	<g>
		<g>
			<path class="st2" d="M42.3,31.7c0.7,0-0.1-1.3-0.5-1.3C41.1,30.5,41.9,31.7,42.3,31.7z"/>
			<path class="st2" d="M42.3,31.3c0.6,0,0.1-0.8-0.4-0.8C41.4,30.5,41.9,31.3,42.3,31.3z"/>
			<path class="st2" d="M43.8,32.8c0.6,0-0.9-1.9-1.5-1.9C41.7,31,43.2,32.8,43.8,32.8z"/>
			<path class="st2" d="M43.3,31.9c1,0-0.7-1.3-1.1-1.3C41.3,30.7,42.9,31.9,43.3,31.9z"/>
			<path class="st2" d="M42.1,31.4c0.2,0,0.4-0.5,0.4-0.5C42.3,30.9,42.1,31.4,42.1,31.4z"/>
			<path class="st2" d="M42.5,32.7c0.7,0,0-1.6-0.4-1.6C41.4,31.1,42.1,32.7,42.5,32.7z"/>
			<path class="st2" d="M41.9,31.9c0.4,0,0.6-0.5,0.2-0.5C41.7,31.4,41.4,31.9,41.9,31.9z"/>
		</g>
	</g>
</g>
<g>
	<g>
		<g>
			<path class="st2" d="M44.1,31.1c0.7,0-0.1-1.3-0.5-1.3C43,29.8,43.7,31.1,44.1,31.1z"/>
			<path class="st2" d="M44.2,30.6c0.6,0,0.1-0.8-0.4-0.8C43.3,29.8,43.8,30.6,44.2,30.6z"/>
			<path class="st2" d="M45.6,32.2c0.6,0-0.9-1.9-1.5-1.9C43.6,30.3,45.1,32.2,45.6,32.2z"/>
			<path class="st2" d="M45.2,31.3c1,0-0.7-1.3-1.1-1.3C43.1,30,44.8,31.3,45.2,31.3z"/>
			<path class="st2" d="M44,30.7c0.2,0,0.4-0.5,0.4-0.5C44.2,30.2,44,30.7,44,30.7z"/>
			<path class="st2" d="M44.4,32c0.7,0,0-1.6-0.4-1.6C43.3,30.4,44,32,44.4,32z"/>
			<path class="st2" d="M43.8,31.2c0.4,0,0.6-0.5,0.2-0.5C43.6,30.7,43.3,31.2,43.8,31.2z"/>
		</g>
	</g>
</g>
<g>
	<g>
		<g>
			<path class="st2" d="M39.9,34.7c0.7,0-0.1-1.3-0.5-1.3C38.8,33.5,39.5,34.7,39.9,34.7z"/>
			<path class="st2" d="M40,34.3c0.6,0,0.1-0.8-0.4-0.8C39.1,33.5,39.6,34.3,40,34.3z"/>
			<path class="st2" d="M41.4,35.8c0.6,0-0.9-1.9-1.5-1.9C39.3,34,40.9,35.8,41.4,35.8z"/>
			<path class="st2" d="M41,34.9c1,0-0.7-1.3-1.1-1.3C38.9,33.7,40.6,34.9,41,34.9z"/>
			<path class="st2" d="M39.7,34.4c0.2,0,0.4-0.5,0.4-0.5C40,33.9,39.8,34.4,39.7,34.4z"/>
			<path class="st2" d="M40.2,35.7c0.7,0,0-1.6-0.4-1.6C39,34.1,39.8,35.7,40.2,35.7z"/>
			<path class="st2" d="M39.5,34.9c0.4,0,0.6-0.5,0.2-0.5C39.4,34.4,39.1,34.9,39.5,34.9z"/>
		</g>
	</g>
</g>
<g>
	<g>
		<g>
			<path class="st2" d="M34.9,35.5c0.7,0-0.1-1.3-0.5-1.3C33.8,34.2,34.5,35.5,34.9,35.5z"/>
			<path class="st2" d="M35,35c0.6,0,0.1-0.8-0.4-0.8C34.1,34.2,34.6,35,35,35z"/>
			<path class="st2" d="M36.4,36.6c0.6,0-0.9-1.9-1.5-1.9C34.4,34.7,35.9,36.6,36.4,36.6z"/>
			<path class="st2" d="M36,35.7c1,0-0.7-1.3-1.1-1.3C33.9,34.4,35.6,35.7,36,35.7z"/>
			<path class="st2" d="M34.8,35.1c0.2,0,0.4-0.5,0.4-0.5C35,34.6,34.8,35.1,34.8,35.1z"/>
			<path class="st2" d="M35.2,36.4c0.7,0,0-1.6-0.4-1.6C34.1,34.8,34.8,36.4,35.2,36.4z"/>
			<path class="st2" d="M34.6,35.6c0.4,0,0.6-0.5,0.2-0.5C34.4,35.1,34.1,35.6,34.6,35.6z"/>
		</g>
	</g>
</g>
<g>
	<g>
		<g>
			<path class="st2" d="M37.3,36c0.7,0-0.1-1.3-0.5-1.3C36.1,34.7,36.9,36,37.3,36z"/>
			<path class="st2" d="M37.4,35.5c0.6,0,0.1-0.8-0.4-0.8C36.4,34.7,36.9,35.5,37.4,35.5z"/>
			<path class="st2" d="M38.8,37.1c0.6,0-0.9-1.9-1.5-1.9C36.7,35.2,38.2,37.1,38.8,37.1z"/>
			<path class="st2" d="M38.3,36.1c1,0-0.7-1.3-1.1-1.3C36.3,34.9,37.9,36.1,38.3,36.1z"/>
			<path class="st2" d="M37.1,35.6c0.2,0,0.4-0.5,0.4-0.5C37.4,35.1,37.2,35.6,37.1,35.6z"/>
			<path class="st2" d="M37.6,36.9c0.7,0,0-1.6-0.4-1.6C36.4,35.3,37.2,36.9,37.6,36.9z"/>
			<path class="st2" d="M36.9,36.1c0.4,0,0.6-0.5,0.2-0.5C36.7,35.6,36.5,36.1,36.9,36.1z"/>
		</g>
	</g>
</g>
<g>
	<g>
		<g>
			<path class="st2" d="M33.2,36.4c0.7,0-0.1-1.3-0.5-1.3C32,35.2,32.8,36.4,33.2,36.4z"/>
			<path class="st2" d="M33.2,36c0.6,0,0.1-0.8-0.4-0.8C32.3,35.2,32.8,36,33.2,36z"/>
			<path class="st2" d="M34.6,37.5c0.6,0-0.9-1.9-1.5-1.9C32.6,35.7,34.1,37.5,34.6,37.5z"/>
			<path class="st2" d="M34.2,36.6c1,0-0.7-1.3-1.1-1.3C32.2,35.4,33.8,36.6,34.2,36.6z"/>
			<path class="st2" d="M33,36.1c0.2,0,0.4-0.5,0.4-0.5C33.2,35.6,33,36.1,33,36.1z"/>
			<path class="st2" d="M33.4,37.4c0.7,0,0-1.6-0.4-1.6C32.3,35.8,33,37.4,33.4,37.4z"/>
			<path class="st2" d="M32.8,36.6c0.4,0,0.6-0.5,0.2-0.5C32.6,36.1,32.3,36.6,32.8,36.6z"/>
		</g>
	</g>
</g>
<g>
	<g>
		<g>
			<path class="st2" d="M30.5,36.2c0.7,0-0.1-1.3-0.5-1.3C29.4,34.9,30.1,36.2,30.5,36.2z"/>
			<path class="st2" d="M30.6,35.7c0.6,0,0.1-0.8-0.4-0.8C29.7,34.9,30.2,35.7,30.6,35.7z"/>
			<path class="st2" d="M32,37.2c0.6,0-0.9-1.9-1.5-1.9C29.9,35.4,31.5,37.2,32,37.2z"/>
			<path class="st2" d="M31.6,36.3c1,0-0.7-1.3-1.1-1.3C29.5,35.1,31.2,36.3,31.6,36.3z"/>
			<path class="st2" d="M30.4,35.8c0.2,0,0.4-0.5,0.4-0.5C30.6,35.3,30.4,35.8,30.4,35.8z"/>
			<path class="st2" d="M30.8,37.1c0.7,0,0-1.6-0.4-1.6C29.6,35.5,30.4,37.1,30.8,37.1z"/>
			<path class="st2" d="M30.1,36.3c0.4,0,0.6-0.5,0.2-0.5C30,35.8,29.7,36.3,30.1,36.3z"/>
		</g>
	</g>
</g>
<g>
	<g>
		<g>
			<path class="st2" d="M28.7,35.5c0.7,0-0.1-1.3-0.5-1.3C27.5,34.2,28.3,35.5,28.7,35.5z"/>
			<path class="st2" d="M28.7,35c0.6,0,0.1-0.8-0.4-0.8C27.8,34.2,28.3,35,28.7,35z"/>
			<path class="st2" d="M30.1,36.6c0.6,0-0.9-1.9-1.5-1.9C28.1,34.7,29.6,36.6,30.1,36.6z"/>
			<path class="st2" d="M29.7,35.7c1,0-0.7-1.3-1.1-1.3C27.7,34.4,29.3,35.7,29.7,35.7z"/>
			<path class="st2" d="M28.5,35.1c0.2,0,0.4-0.5,0.4-0.5C28.7,34.6,28.5,35.1,28.5,35.1z"/>
			<path class="st2" d="M28.9,36.4c0.7,0,0-1.6-0.4-1.6C27.8,34.8,28.5,36.4,28.9,36.4z"/>
			<path class="st2" d="M28.3,35.6c0.4,0,0.6-0.5,0.2-0.5C28.1,35.1,27.8,35.6,28.3,35.6z"/>
		</g>
	</g>
</g>
<g>
	<g>
		<g>
			<path class="st2" d="M33.3,35.3c0.7,0-0.1-1.3-0.5-1.3C32.2,34,32.9,35.3,33.3,35.3z"/>
			<path class="st2" d="M33.4,34.8c0.6,0,0.1-0.8-0.4-0.8C32.5,34,33,34.8,33.4,34.8z"/>
			<path class="st2" d="M34.8,36.4c0.6,0-0.9-1.9-1.5-1.9C32.8,34.5,34.3,36.4,34.8,36.4z"/>
			<path class="st2" d="M34.4,35.5c1,0-0.7-1.3-1.1-1.3C32.3,34.2,34,35.5,34.4,35.5z"/>
			<path class="st2" d="M33.2,34.9c0.2,0,0.4-0.5,0.4-0.5C33.4,34.4,33.2,34.9,33.2,34.9z"/>
			<path class="st2" d="M33.6,36.3c0.7,0,0-1.6-0.4-1.6C32.5,34.6,33.2,36.3,33.6,36.3z"/>
			<path class="st2" d="M33,35.5c0.4,0,0.6-0.5,0.2-0.5C32.8,35,32.5,35.5,33,35.5z"/>
		</g>
	</g>
</g>
<g>
	<g>
		<g>
			<path class="st2" d="M32.3,34.5c0.7,0-0.1-1.3-0.5-1.3C31.2,33.2,31.9,34.5,32.3,34.5z"/>
			<path class="st2" d="M32.4,34c0.6,0,0.1-0.8-0.4-0.8C31.5,33.2,32,34,32.4,34z"/>
			<path class="st2" d="M33.8,35.6c0.6,0-0.9-1.9-1.5-1.9C31.7,33.7,33.3,35.6,33.8,35.6z"/>
			<path class="st2" d="M33.4,34.6c1,0-0.7-1.3-1.1-1.3C31.3,33.4,33,34.6,33.4,34.6z"/>
			<path class="st2" d="M32.1,34.1c0.2,0,0.4-0.5,0.4-0.5C32.4,33.6,32.2,34.1,32.1,34.1z"/>
			<path class="st2" d="M32.6,35.4c0.7,0,0-1.6-0.4-1.6C31.4,33.8,32.2,35.4,32.6,35.4z"/>
			<path class="st2" d="M31.9,34.6c0.4,0,0.6-0.5,0.2-0.5C31.8,34.1,31.5,34.6,31.9,34.6z"/>
		</g>
	</g>
</g>
<g>
	<g>
		<g>
			<path class="st2" d="M30.8,38.7c0.7,0-0.1-1.3-0.5-1.3C29.7,37.4,30.4,38.7,30.8,38.7z"/>
			<path class="st2" d="M30.9,38.2c0.6,0,0.1-0.8-0.4-0.8C30,37.4,30.5,38.2,30.9,38.2z"/>
			<path class="st2" d="M32.3,39.8c0.6,0-0.9-1.9-1.5-1.9C30.2,37.9,31.8,39.8,32.3,39.8z"/>
			<path class="st2" d="M31.9,38.9c1,0-0.7-1.3-1.1-1.3C29.8,37.6,31.5,38.9,31.9,38.9z"/>
			<path class="st2" d="M30.6,38.3c0.2,0,0.4-0.5,0.4-0.5C30.9,37.8,30.7,38.3,30.6,38.3z"/>
			<path class="st2" d="M31.1,39.6c0.7,0,0-1.6-0.4-1.6C29.9,38,30.7,39.6,31.1,39.6z"/>
			<path class="st2" d="M30.4,38.8c0.4,0,0.6-0.5,0.2-0.5C30.3,38.3,30,38.8,30.4,38.8z"/>
		</g>
	</g>
</g>
<g>
	<g>
		<g>
			<path class="st2" d="M29.5,39.5c0.7,0-0.1-1.3-0.5-1.3C28.4,38.3,29.1,39.5,29.5,39.5z"/>
			<path class="st2" d="M29.6,39.1c0.6,0,0.1-0.8-0.4-0.8C28.6,38.3,29.1,39.1,29.6,39.1z"/>
			<path class="st2" d="M31,40.6c0.6,0-0.9-1.9-1.5-1.9C28.9,38.8,30.4,40.6,31,40.6z"/>
			<path class="st2" d="M30.6,39.7c1,0-0.7-1.3-1.1-1.3C28.5,38.4,30.1,39.7,30.6,39.7z"/>
			<path class="st2" d="M29.3,39.2c0.2,0,0.4-0.5,0.4-0.5C29.6,38.7,29.4,39.2,29.3,39.2z"/>
			<path class="st2" d="M29.8,40.5c0.7,0,0-1.6-0.4-1.6C28.6,38.9,29.4,40.5,29.8,40.5z"/>
			<path class="st2" d="M29.1,39.7c0.4,0,0.6-0.5,0.2-0.5C28.9,39.2,28.7,39.7,29.1,39.7z"/>
		</g>
	</g>
</g>
<g>
	<g>
		<g>
			<path class="st2" d="M28,40.5c0.7,0-0.1-1.3-0.5-1.3C26.9,39.2,27.6,40.5,28,40.5z"/>
			<path class="st2" d="M28.1,40c0.6,0,0.1-0.8-0.4-0.8C27.1,39.2,27.6,40,28.1,40z"/>
			<path class="st2" d="M29.5,41.6c0.6,0-0.9-1.9-1.5-1.9C27.4,39.7,28.9,41.6,29.5,41.6z"/>
			<path class="st2" d="M29.1,40.7c1,0-0.7-1.3-1.1-1.3C27,39.4,28.6,40.7,29.1,40.7z"/>
			<path class="st2" d="M27.8,40.1c0.2,0,0.4-0.5,0.4-0.5C28.1,39.6,27.9,40.1,27.8,40.1z"/>
			<path class="st2" d="M28.3,41.5c0.7,0,0-1.6-0.4-1.6C27.1,39.8,27.9,41.5,28.3,41.5z"/>
			<path class="st2" d="M27.6,40.7c0.4,0,0.6-0.5,0.2-0.5C27.4,40.2,27.2,40.7,27.6,40.7z"/>
		</g>
	</g>
</g>
<g>
	<g>
		<g>
			<path class="st2" d="M31.8,40.6c0.7,0-0.1-1.3-0.5-1.3C30.6,39.3,31.3,40.6,31.8,40.6z"/>
			<path class="st2" d="M31.8,40.1c0.6,0,0.1-0.8-0.4-0.8C30.9,39.3,31.4,40.1,31.8,40.1z"/>
			<path class="st2" d="M33.2,41.7c0.6,0-0.9-1.9-1.5-1.9C31.2,39.8,32.7,41.7,33.2,41.7z"/>
			<path class="st2" d="M32.8,40.8c1,0-0.7-1.3-1.1-1.3C30.8,39.5,32.4,40.8,32.8,40.8z"/>
			<path class="st2" d="M31.6,40.2c0.2,0,0.4-0.5,0.4-0.5C31.8,39.7,31.6,40.2,31.6,40.2z"/>
			<path class="st2" d="M32,41.5c0.7,0,0-1.6-0.4-1.6C30.9,39.9,31.6,41.5,32,41.5z"/>
			<path class="st2" d="M31.4,40.7c0.4,0,0.6-0.5,0.2-0.5C31.2,40.2,30.9,40.7,31.4,40.7z"/>
		</g>
	</g>
</g>
<g>
	<g>
		<g>
			<path class="st2" d="M33.6,41c0.7,0-0.1-1.3-0.5-1.3C32.5,39.8,33.2,41,33.6,41z"/>
			<path class="st2" d="M33.7,40.6c0.6,0,0.1-0.8-0.4-0.8C32.8,39.8,33.3,40.6,33.7,40.6z"/>
			<path class="st2" d="M35.1,42.1c0.6,0-0.9-1.9-1.5-1.9C33,40.3,34.6,42.1,35.1,42.1z"/>
			<path class="st2" d="M34.7,41.2c1,0-0.7-1.3-1.1-1.3C32.6,40,34.3,41.2,34.7,41.2z"/>
			<path class="st2" d="M33.5,40.7c0.2,0,0.4-0.5,0.4-0.5C33.7,40.2,33.5,40.7,33.5,40.7z"/>
			<path class="st2" d="M33.9,42c0.7,0,0-1.6-0.4-1.6C32.7,40.4,33.5,42,33.9,42z"/>
			<path class="st2" d="M33.2,41.2c0.4,0,0.6-0.5,0.2-0.5C33.1,40.7,32.8,41.2,33.2,41.2z"/>
		</g>
	</g>
</g>
<g>
	<g>
		<g>
			<path class="st2" d="M34,39.5c0.7,0-0.1-1.3-0.5-1.3C32.9,38.3,33.6,39.5,34,39.5z"/>
			<path class="st2" d="M34.1,39.1c0.6,0,0.1-0.8-0.4-0.8C33.2,38.3,33.6,39.1,34.1,39.1z"/>
			<path class="st2" d="M35.5,40.6c0.6,0-0.9-1.9-1.5-1.9C33.4,38.8,34.9,40.6,35.5,40.6z"/>
			<path class="st2" d="M35.1,39.7c1,0-0.7-1.3-1.1-1.3C33,38.4,34.6,39.7,35.1,39.7z"/>
			<path class="st2" d="M33.8,39.2c0.2,0,0.4-0.5,0.4-0.5C34.1,38.7,33.9,39.2,33.8,39.2z"/>
			<path class="st2" d="M34.3,40.5c0.7,0,0-1.6-0.4-1.6C33.1,38.9,33.9,40.5,34.3,40.5z"/>
			<path class="st2" d="M33.6,39.7c0.4,0,0.6-0.5,0.2-0.5C33.4,39.2,33.2,39.7,33.6,39.7z"/>
		</g>
	</g>
</g>
<g>
	<g>
		<g>
			<path class="st2" d="M37,40.6c0.7,0-0.1-1.3-0.5-1.3C35.9,39.3,36.6,40.6,37,40.6z"/>
			<path class="st2" d="M37.1,40.1c0.6,0,0.1-0.8-0.4-0.8C36.2,39.3,36.6,40.1,37.1,40.1z"/>
			<path class="st2" d="M38.5,41.7c0.6,0-0.9-1.9-1.5-1.9C36.4,39.8,38,41.7,38.5,41.7z"/>
			<path class="st2" d="M38.1,40.7c1,0-0.7-1.3-1.1-1.3C36,39.5,37.6,40.7,38.1,40.7z"/>
			<path class="st2" d="M36.8,40.2c0.2,0,0.4-0.5,0.4-0.5C37.1,39.7,36.9,40.2,36.8,40.2z"/>
			<path class="st2" d="M37.3,41.5c0.7,0,0-1.6-0.4-1.6C36.1,39.9,36.9,41.5,37.3,41.5z"/>
			<path class="st2" d="M36.6,40.7c0.4,0,0.6-0.5,0.2-0.5C36.4,40.2,36.2,40.7,36.6,40.7z"/>
		</g>
	</g>
</g>
<g>
	<g>
		<g>
			<path class="st2" d="M34.9,37.9c0.7,0-0.1-1.3-0.5-1.3C33.7,36.7,34.4,37.9,34.9,37.9z"/>
			<path class="st2" d="M34.9,37.5c0.6,0,0.1-0.8-0.4-0.8C34,36.7,34.5,37.5,34.9,37.5z"/>
			<path class="st2" d="M36.3,39c0.6,0-0.9-1.9-1.5-1.9C34.3,37.2,35.8,39,36.3,39z"/>
			<path class="st2" d="M35.9,38.1c1,0-0.7-1.3-1.1-1.3C33.8,36.9,35.5,38.1,35.9,38.1z"/>
			<path class="st2" d="M34.7,37.6c0.2,0,0.4-0.5,0.4-0.5C34.9,37.1,34.7,37.6,34.7,37.6z"/>
			<path class="st2" d="M35.1,38.9c0.7,0,0-1.6-0.4-1.6C34,37.3,34.7,38.9,35.1,38.9z"/>
			<path class="st2" d="M34.5,38.1c0.4,0,0.6-0.5,0.2-0.5C34.3,37.6,34,38.1,34.5,38.1z"/>
		</g>
	</g>
</g>
<g>
	<g>
		<g>
			<path class="st2" d="M37.7,38.7c0.7,0-0.1-1.3-0.5-1.3C36.5,37.4,37.3,38.7,37.7,38.7z"/>
			<path class="st2" d="M37.7,38.2c0.6,0,0.1-0.8-0.4-0.8C36.8,37.4,37.3,38.2,37.7,38.2z"/>
			<path class="st2" d="M39.2,39.8c0.6,0-0.9-1.9-1.5-1.9C37.1,37.9,38.6,39.8,39.2,39.8z"/>
			<path class="st2" d="M38.7,38.9c1,0-0.7-1.3-1.1-1.3C36.7,37.6,38.3,38.9,38.7,38.9z"/>
			<path class="st2" d="M37.5,38.3c0.2,0,0.4-0.5,0.4-0.5C37.7,37.8,37.5,38.3,37.5,38.3z"/>
			<path class="st2" d="M37.9,39.6c0.7,0,0-1.6-0.4-1.6C36.8,38,37.5,39.6,37.9,39.6z"/>
			<path class="st2" d="M37.3,38.8c0.4,0,0.6-0.5,0.2-0.5C37.1,38.3,36.8,38.8,37.3,38.8z"/>
		</g>
	</g>
</g>
<g>
	<g>
		<g>
			<path class="st2" d="M39.6,40.7c0.7,0-0.1-1.3-0.5-1.3C38.5,39.4,39.2,40.7,39.6,40.7z"/>
			<path class="st2" d="M39.7,40.2c0.6,0,0.1-0.8-0.4-0.8C38.8,39.4,39.3,40.2,39.7,40.2z"/>
			<path class="st2" d="M41.1,41.8c0.6,0-0.9-1.9-1.5-1.9C39,39.9,40.6,41.8,41.1,41.8z"/>
			<path class="st2" d="M40.7,40.8c1,0-0.7-1.3-1.1-1.3C38.6,39.6,40.3,40.8,40.7,40.8z"/>
			<path class="st2" d="M39.5,40.3c0.2,0,0.4-0.5,0.4-0.5C39.7,39.8,39.5,40.3,39.5,40.3z"/>
			<path class="st2" d="M39.9,41.6c0.7,0,0-1.6-0.4-1.6C38.7,40,39.5,41.6,39.9,41.6z"/>
			<path class="st2" d="M39.2,40.8c0.4,0,0.6-0.5,0.2-0.5C39.1,40.3,38.8,40.8,39.2,40.8z"/>
		</g>
	</g>
</g>
<g>
	<g>
		<g>
			<path class="st2" d="M41,38.5c0.7,0-0.1-1.3-0.5-1.3C39.8,37.2,40.5,38.5,41,38.5z"/>
			<path class="st2" d="M41,38c0.6,0,0.1-0.8-0.4-0.8C40.1,37.2,40.6,38,41,38z"/>
			<path class="st2" d="M42.4,39.6c0.6,0-0.9-1.9-1.5-1.9C40.4,37.7,41.9,39.6,42.4,39.6z"/>
			<path class="st2" d="M42,38.7c1,0-0.7-1.3-1.1-1.3C39.9,37.4,41.6,38.7,42,38.7z"/>
			<path class="st2" d="M40.8,38.1c0.2,0,0.4-0.5,0.4-0.5C41,37.6,40.8,38.1,40.8,38.1z"/>
			<path class="st2" d="M41.2,39.4c0.7,0,0-1.6-0.4-1.6C40.1,37.8,40.8,39.4,41.2,39.4z"/>
			<path class="st2" d="M40.6,38.6c0.4,0,0.6-0.5,0.2-0.5C40.4,38.1,40.1,38.6,40.6,38.6z"/>
		</g>
	</g>
</g>
<g>
	<g>
		<g>
			<path class="st2" d="M40.5,37.6c0.7,0-0.1-1.3-0.5-1.3C39.3,36.3,40.1,37.6,40.5,37.6z"/>
			<path class="st2" d="M40.6,37.1c0.6,0,0.1-0.8-0.4-0.8C39.6,36.3,40.1,37.1,40.6,37.1z"/>
			<path class="st2" d="M42,38.7c0.6,0-0.9-1.9-1.5-1.9C39.9,36.8,41.4,38.7,42,38.7z"/>
			<path class="st2" d="M41.5,37.7c1,0-0.7-1.3-1.1-1.3C39.5,36.5,41.1,37.7,41.5,37.7z"/>
			<path class="st2" d="M40.3,37.2c0.2,0,0.4-0.5,0.4-0.5C40.5,36.7,40.4,37.2,40.3,37.2z"/>
			<path class="st2" d="M40.7,38.5c0.7,0,0-1.6-0.4-1.6C39.6,36.9,40.4,38.5,40.7,38.5z"/>
			<path class="st2" d="M40.1,37.7c0.4,0,0.6-0.5,0.2-0.5C39.9,37.2,39.7,37.7,40.1,37.7z"/>
		</g>
	</g>
</g>
<g>
	<g>
		<g>
			<path class="st2" d="M42.7,40.2c0.7,0-0.1-1.3-0.5-1.3C41.6,38.9,42.3,40.2,42.7,40.2z"/>
			<path class="st2" d="M42.8,39.8c0.6,0,0.1-0.8-0.4-0.8C41.9,39,42.4,39.8,42.8,39.8z"/>
			<path class="st2" d="M44.2,41.3c0.6,0-0.9-1.9-1.5-1.9C42.1,39.4,43.7,41.3,44.2,41.3z"/>
			<path class="st2" d="M43.8,40.4c1,0-0.7-1.3-1.1-1.3C41.7,39.1,43.4,40.4,43.8,40.4z"/>
			<path class="st2" d="M42.6,39.9c0.2,0,0.4-0.5,0.4-0.5C42.8,39.3,42.6,39.9,42.6,39.9z"/>
			<path class="st2" d="M43,41.2c0.7,0,0-1.6-0.4-1.6C41.8,39.6,42.6,41.2,43,41.2z"/>
			<path class="st2" d="M42.3,40.4c0.4,0,0.6-0.5,0.2-0.5C42.2,39.9,41.9,40.4,42.3,40.4z"/>
		</g>
	</g>
</g>
<g>
	<g>
		<g>
			<path class="st2" d="M44,39.3c0.7,0-0.1-1.3-0.5-1.3C42.8,38.1,43.5,39.3,44,39.3z"/>
			<path class="st2" d="M44,38.9c0.6,0,0.1-0.8-0.4-0.8C43.1,38.1,43.6,38.9,44,38.9z"/>
			<path class="st2" d="M45.4,40.4c0.6,0-0.9-1.9-1.5-1.9C43.4,38.6,44.9,40.4,45.4,40.4z"/>
			<path class="st2" d="M45,39.5c1,0-0.7-1.3-1.1-1.3C43,38.3,44.6,39.5,45,39.5z"/>
			<path class="st2" d="M43.8,39c0.2,0,0.4-0.5,0.4-0.5C44,38.5,43.8,39,43.8,39z"/>
			<path class="st2" d="M44.2,40.3c0.7,0,0-1.6-0.4-1.6C43.1,38.7,43.8,40.3,44.2,40.3z"/>
			<path class="st2" d="M43.6,39.5c0.4,0,0.6-0.5,0.2-0.5C43.4,39,43.1,39.5,43.6,39.5z"/>
		</g>
	</g>
</g>
<g>
	<g>
		<g>
			<path class="st2" d="M43.5,37.1c0.7,0-0.1-1.3-0.5-1.3C42.3,35.8,43.1,37.1,43.5,37.1z"/>
			<path class="st2" d="M43.6,36.6c0.6,0,0.1-0.8-0.4-0.8C42.6,35.8,43.1,36.6,43.6,36.6z"/>
			<path class="st2" d="M45,38.2c0.6,0-0.9-1.9-1.5-1.9C42.9,36.3,44.4,38.2,45,38.2z"/>
			<path class="st2" d="M44.5,37.3c1,0-0.7-1.3-1.1-1.3C42.5,36,44.1,37.3,44.5,37.3z"/>
			<path class="st2" d="M43.3,36.7c0.2,0,0.4-0.5,0.4-0.5C43.5,36.2,43.4,36.7,43.3,36.7z"/>
			<path class="st2" d="M43.7,38c0.7,0,0-1.6-0.4-1.6C42.6,36.4,43.4,38,43.7,38z"/>
			<path class="st2" d="M43.1,37.2c0.4,0,0.6-0.5,0.2-0.5C42.9,36.7,42.7,37.2,43.1,37.2z"/>
		</g>
	</g>
</g>
<g>
	<g>
		<g>
			<path class="st2" d="M43.2,35.8c0.7,0-0.1-1.3-0.5-1.3C42.1,34.5,42.8,35.8,43.2,35.8z"/>
			<path class="st2" d="M43.3,35.3c0.6,0,0.1-0.8-0.4-0.8C42.4,34.5,42.8,35.3,43.3,35.3z"/>
			<path class="st2" d="M44.7,36.9c0.6,0-0.9-1.9-1.5-1.9C42.6,35,44.1,36.9,44.7,36.9z"/>
			<path class="st2" d="M44.3,36c1,0-0.7-1.3-1.1-1.3C42.2,34.7,43.8,36,44.3,36z"/>
			<path class="st2" d="M43,35.4c0.2,0,0.4-0.5,0.4-0.5C43.3,34.9,43.1,35.4,43,35.4z"/>
			<path class="st2" d="M43.5,36.7c0.7,0,0-1.6-0.4-1.6C42.3,35.1,43.1,36.7,43.5,36.7z"/>
			<path class="st2" d="M42.8,35.9c0.4,0,0.6-0.5,0.2-0.5C42.6,35.4,42.4,35.9,42.8,35.9z"/>
		</g>
	</g>
</g>
<g>
	<g>
		<g>
			<path class="st2" d="M42.9,34.9c0.7,0-0.1-1.3-0.5-1.3C41.8,33.7,42.5,34.9,42.9,34.9z"/>
			<path class="st2" d="M43,34.5c0.6,0,0.1-0.8-0.4-0.8C42.1,33.7,42.6,34.5,43,34.5z"/>
			<path class="st2" d="M44.4,36c0.6,0-0.9-1.9-1.5-1.9C42.3,34.2,43.9,36,44.4,36z"/>
			<path class="st2" d="M44,35.1c1,0-0.7-1.3-1.1-1.3C41.9,33.9,43.6,35.1,44,35.1z"/>
			<path class="st2" d="M42.7,34.6c0.2,0,0.4-0.5,0.4-0.5C43,34.1,42.8,34.6,42.7,34.6z"/>
			<path class="st2" d="M43.2,35.9c0.7,0,0-1.6-0.4-1.6C42,34.3,42.8,35.9,43.2,35.9z"/>
			<path class="st2" d="M42.5,35.1c0.4,0,0.6-0.5,0.2-0.5C42.4,34.6,42.1,35.1,42.5,35.1z"/>
		</g>
	</g>
</g>
<g>
	<g>
		<g>
			<path class="st2" d="M46.1,35.2c0.7,0-0.1-1.3-0.5-1.3C45,33.9,45.7,35.2,46.1,35.2z"/>
			<path class="st2" d="M46.2,34.7c0.6,0,0.1-0.8-0.4-0.8C45.3,34,45.7,34.7,46.2,34.7z"/>
			<path class="st2" d="M47.6,36.3c0.6,0-0.9-1.9-1.5-1.9C45.5,34.4,47.1,36.3,47.6,36.3z"/>
			<path class="st2" d="M47.2,35.4c1,0-0.7-1.3-1.1-1.3C45.1,34.1,46.7,35.4,47.2,35.4z"/>
			<path class="st2" d="M45.9,34.8c0.2,0,0.4-0.5,0.4-0.5C46.2,34.3,46,34.8,45.9,34.8z"/>
			<path class="st2" d="M46.4,36.2c0.7,0,0-1.6-0.4-1.6C45.2,34.6,46,36.2,46.4,36.2z"/>
			<path class="st2" d="M45.7,35.4c0.4,0,0.6-0.5,0.2-0.5C45.5,34.9,45.3,35.4,45.7,35.4z"/>
		</g>
	</g>
</g>
<g>
	<g>
		<g>
			<path class="st2" d="M44.9,34.3c0.7,0-0.1-1.3-0.5-1.3C43.7,33,44.5,34.3,44.9,34.3z"/>
			<path class="st2" d="M45,33.8c0.6,0,0.1-0.8-0.4-0.8C44,33,44.5,33.8,45,33.8z"/>
			<path class="st2" d="M46.4,35.4c0.6,0-0.9-1.9-1.5-1.9C44.3,33.5,45.8,35.4,46.4,35.4z"/>
			<path class="st2" d="M46,34.5c1,0-0.7-1.3-1.1-1.3C43.9,33.2,45.5,34.5,46,34.5z"/>
			<path class="st2" d="M44.7,33.9c0.2,0,0.4-0.5,0.4-0.5C45,33.4,44.8,33.9,44.7,33.9z"/>
			<path class="st2" d="M45.2,35.2c0.7,0,0-1.6-0.4-1.6C44,33.6,44.8,35.2,45.2,35.2z"/>
			<path class="st2" d="M44.5,34.4c0.4,0,0.6-0.5,0.2-0.5C44.3,33.9,44.1,34.4,44.5,34.4z"/>
		</g>
	</g>
</g>
<g>
	<g>
		<g>
			<path class="st2" d="M41.2,34.2c0.7,0-0.1-1.3-0.5-1.3C40.1,32.9,40.8,34.2,41.2,34.2z"/>
			<path class="st2" d="M41.3,33.7c0.6,0,0.1-0.8-0.4-0.8C40.4,32.9,40.9,33.7,41.3,33.7z"/>
			<path class="st2" d="M42.7,35.3c0.6,0-0.9-1.9-1.5-1.9C40.6,33.4,42.2,35.3,42.7,35.3z"/>
			<path class="st2" d="M42.3,34.4c1,0-0.7-1.3-1.1-1.3C40.2,33.1,41.9,34.4,42.3,34.4z"/>
			<path class="st2" d="M41.1,33.8c0.2,0,0.4-0.5,0.4-0.5C41.3,33.3,41.1,33.8,41.1,33.8z"/>
			<path class="st2" d="M41.5,35.1c0.7,0,0-1.6-0.4-1.6C40.3,33.5,41.1,35.1,41.5,35.1z"/>
			<path class="st2" d="M40.8,34.3c0.4,0,0.6-0.5,0.2-0.5C40.7,33.8,40.4,34.3,40.8,34.3z"/>
		</g>
	</g>
</g>
<g>
	<g>
		<g>
			<path class="st2" d="M38.4,34.8c0.7,0-0.1-1.3-0.5-1.3C37.3,33.6,38,34.8,38.4,34.8z"/>
			<path class="st2" d="M38.5,34.4c0.6,0,0.1-0.8-0.4-0.8C37.6,33.6,38.1,34.4,38.5,34.4z"/>
			<path class="st2" d="M39.9,35.9c0.6,0-0.9-1.9-1.5-1.9C37.8,34.1,39.4,35.9,39.9,35.9z"/>
			<path class="st2" d="M39.5,35c1,0-0.7-1.3-1.1-1.3C37.4,33.8,39.1,35,39.5,35z"/>
			<path class="st2" d="M38.2,34.5c0.2,0,0.4-0.5,0.4-0.5C38.5,34,38.3,34.5,38.2,34.5z"/>
			<path class="st2" d="M38.7,35.8c0.7,0,0-1.6-0.4-1.6C37.5,34.2,38.3,35.8,38.7,35.8z"/>
			<path class="st2" d="M38,35c0.4,0,0.6-0.5,0.2-0.5C37.9,34.5,37.6,35,38,35z"/>
		</g>
	</g>
</g>
<g>
	<g>
		<g>
			<path class="st2" d="M42.1,36.9c0.7,0-0.1-1.3-0.5-1.3C40.9,35.6,41.7,36.9,42.1,36.9z"/>
			<path class="st2" d="M42.2,36.4c0.6,0,0.1-0.8-0.4-0.8C41.2,35.6,41.7,36.4,42.2,36.4z"/>
			<path class="st2" d="M43.6,38c0.6,0-0.9-1.9-1.5-1.9C41.5,36.1,43,38,43.6,38z"/>
			<path class="st2" d="M43.1,37.1c1,0-0.7-1.3-1.1-1.3C41.1,35.8,42.7,37.1,43.1,37.1z"/>
			<path class="st2" d="M41.9,36.5c0.2,0,0.4-0.5,0.4-0.5C42.1,36,42,36.5,41.9,36.5z"/>
			<path class="st2" d="M42.3,37.9c0.7,0,0-1.6-0.4-1.6C41.2,36.2,42,37.9,42.3,37.9z"/>
			<path class="st2" d="M41.7,37.1c0.4,0,0.6-0.5,0.2-0.5C41.5,36.6,41.3,37.1,41.7,37.1z"/>
		</g>
	</g>
</g>
<g>
	<g>
		<g>
			<path class="st2" d="M45.6,33.2c0.7,0-0.1-1.3-0.5-1.3C44.5,32,45.2,33.2,45.6,33.2z"/>
			<path class="st2" d="M45.7,32.8c0.6,0,0.1-0.8-0.4-0.8C44.8,32,45.3,32.8,45.7,32.8z"/>
			<path class="st2" d="M47.1,34.3c0.6,0-0.9-1.9-1.5-1.9C45.1,32.5,46.6,34.3,47.1,34.3z"/>
			<path class="st2" d="M46.7,33.4c1,0-0.7-1.3-1.1-1.3C44.6,32.2,46.3,33.4,46.7,33.4z"/>
			<path class="st2" d="M45.5,32.9c0.2,0,0.4-0.5,0.4-0.5C45.7,32.4,45.5,32.9,45.5,32.9z"/>
			<path class="st2" d="M45.9,34.2c0.7,0,0-1.6-0.4-1.6C44.8,32.6,45.5,34.2,45.9,34.2z"/>
			<path class="st2" d="M45.3,33.4c0.4,0,0.6-0.5,0.2-0.5C45.1,32.9,44.8,33.4,45.3,33.4z"/>
		</g>
	</g>
</g>
<g>
	<g>
		<g>
			<path class="st2" d="M47.7,32.1c0.7,0-0.1-1.3-0.5-1.3C46.6,30.8,47.3,32.1,47.7,32.1z"/>
			<path class="st2" d="M47.8,31.7c0.6,0,0.1-0.8-0.4-0.8C46.9,30.9,47.3,31.7,47.8,31.7z"/>
			<path class="st2" d="M49.2,33.2c0.6,0-0.9-1.9-1.5-1.9C47.1,31.3,48.7,33.2,49.2,33.2z"/>
			<path class="st2" d="M48.8,32.3c1,0-0.7-1.3-1.1-1.3C46.7,31,48.3,32.3,48.8,32.3z"/>
			<path class="st2" d="M47.5,31.8c0.2,0,0.4-0.5,0.4-0.5C47.8,31.2,47.6,31.8,47.5,31.8z"/>
			<path class="st2" d="M48,33.1c0.7,0,0-1.6-0.4-1.6C46.8,31.5,47.6,33.1,48,33.1z"/>
			<path class="st2" d="M47.3,32.3c0.4,0,0.6-0.5,0.2-0.5C47.1,31.8,46.9,32.3,47.3,32.3z"/>
		</g>
	</g>
</g>
<g>
	<g>
		<g>
			<path class="st2" d="M47,31.1c0.7,0-0.1-1.3-0.5-1.3C45.8,29.8,46.6,31.1,47,31.1z"/>
			<path class="st2" d="M47,30.6c0.6,0,0.1-0.8-0.4-0.8C46.1,29.8,46.6,30.6,47,30.6z"/>
			<path class="st2" d="M48.4,32.2c0.6,0-0.9-1.9-1.5-1.9C46.4,30.3,47.9,32.2,48.4,32.2z"/>
			<path class="st2" d="M48,31.3c1,0-0.7-1.3-1.1-1.3C46,30,47.6,31.3,48,31.3z"/>
			<path class="st2" d="M46.8,30.7c0.2,0,0.4-0.5,0.4-0.5C47,30.2,46.8,30.7,46.8,30.7z"/>
			<path class="st2" d="M47.2,32c0.7,0,0-1.6-0.4-1.6C46.1,30.4,46.8,32,47.2,32z"/>
			<path class="st2" d="M46.6,31.2c0.4,0,0.6-0.5,0.2-0.5C46.4,30.7,46.1,31.2,46.6,31.2z"/>
		</g>
	</g>
</g>
<g>
	<g>
		<g>
			<path class="st2" d="M52.2,32.9c0.7,0-0.1-1.3-0.5-1.3C51.1,31.6,51.8,32.9,52.2,32.9z"/>
			<path class="st2" d="M52.3,32.4c0.6,0,0.1-0.8-0.4-0.8C51.4,31.6,51.9,32.4,52.3,32.4z"/>
			<path class="st2" d="M53.7,34c0.6,0-0.9-1.9-1.5-1.9C51.6,32.1,53.2,34,53.7,34z"/>
			<path class="st2" d="M53.3,33c1,0-0.7-1.3-1.1-1.3C51.2,31.8,52.9,33,53.3,33z"/>
			<path class="st2" d="M52,32.5c0.2,0,0.4-0.5,0.4-0.5C52.3,32,52.1,32.5,52,32.5z"/>
			<path class="st2" d="M52.5,33.8c0.7,0,0-1.6-0.4-1.6C51.3,32.2,52.1,33.8,52.5,33.8z"/>
			<path class="st2" d="M51.8,33c0.4,0,0.6-0.5,0.2-0.5C51.6,32.5,51.4,33,51.8,33z"/>
		</g>
	</g>
</g>
<g>
	<g>
		<g>
			<path class="st2" d="M49.6,31.1c0.7,0-0.1-1.3-0.5-1.3C48.4,29.8,49.2,31.1,49.6,31.1z"/>
			<path class="st2" d="M49.7,30.6c0.6,0,0.1-0.8-0.4-0.8C48.7,29.8,49.2,30.6,49.7,30.6z"/>
			<path class="st2" d="M51.1,32.2c0.6,0-0.9-1.9-1.5-1.9C49,30.3,50.5,32.2,51.1,32.2z"/>
			<path class="st2" d="M50.6,31.3c1,0-0.7-1.3-1.1-1.3C48.6,30,50.2,31.3,50.6,31.3z"/>
			<path class="st2" d="M49.4,30.7c0.2,0,0.4-0.5,0.4-0.5C49.6,30.2,49.5,30.7,49.4,30.7z"/>
			<path class="st2" d="M49.8,32c0.7,0,0-1.6-0.4-1.6C48.7,30.4,49.5,32,49.8,32z"/>
			<path class="st2" d="M49.2,31.2c0.4,0,0.6-0.5,0.2-0.5C49,30.7,48.8,31.2,49.2,31.2z"/>
		</g>
	</g>
</g>
<g>
	<g>
		<g>
			<path class="st2" d="M50.8,30.9c0.7,0-0.1-1.3-0.5-1.3C49.7,29.6,50.4,30.9,50.8,30.9z"/>
			<path class="st2" d="M50.9,30.4c0.6,0,0.1-0.8-0.4-0.8C50,29.6,50.4,30.4,50.9,30.4z"/>
			<path class="st2" d="M52.3,32c0.6,0-0.9-1.9-1.5-1.9C50.2,30.1,51.7,32,52.3,32z"/>
			<path class="st2" d="M51.9,31.1c1,0-0.7-1.3-1.1-1.3C49.8,29.8,51.4,31.1,51.9,31.1z"/>
			<path class="st2" d="M50.6,30.5c0.2,0,0.4-0.5,0.4-0.5C50.9,30,50.7,30.5,50.6,30.5z"/>
			<path class="st2" d="M51.1,31.8c0.7,0,0-1.6-0.4-1.6C49.9,30.2,50.7,31.8,51.1,31.8z"/>
			<path class="st2" d="M50.4,31c0.4,0,0.6-0.5,0.2-0.5C50.2,30.5,50,31,50.4,31z"/>
		</g>
	</g>
</g>
<g>
	<g>
		<g>
			<path class="st2" d="M53.5,31.5c0.7,0-0.1-1.3-0.5-1.3C52.4,30.2,53.1,31.5,53.5,31.5z"/>
			<path class="st2" d="M53.6,31c0.6,0,0.1-0.8-0.4-0.8C52.7,30.2,53.2,31,53.6,31z"/>
			<path class="st2" d="M55,32.6c0.6,0-0.9-1.9-1.5-1.9C52.9,30.7,54.5,32.6,55,32.6z"/>
			<path class="st2" d="M54.6,31.6c1,0-0.7-1.3-1.1-1.3C52.5,30.4,54.2,31.6,54.6,31.6z"/>
			<path class="st2" d="M53.3,31.1c0.2,0,0.4-0.5,0.4-0.5C53.6,30.6,53.4,31.1,53.3,31.1z"/>
			<path class="st2" d="M53.8,32.4c0.7,0,0-1.6-0.4-1.6C52.6,30.8,53.4,32.4,53.8,32.4z"/>
			<path class="st2" d="M53.1,31.6c0.4,0,0.6-0.5,0.2-0.5C53,31.1,52.7,31.6,53.1,31.6z"/>
		</g>
	</g>
</g>
<g>
	<g>
		<g>
			<path class="st2" d="M52.9,30.5c0.7,0-0.1-1.3-0.5-1.3C51.7,29.2,52.5,30.5,52.9,30.5z"/>
			<path class="st2" d="M52.9,30.1c0.6,0,0.1-0.8-0.4-0.8C52,29.3,52.5,30.1,52.9,30.1z"/>
			<path class="st2" d="M54.4,31.6c0.6,0-0.9-1.9-1.5-1.9C52.3,29.7,53.8,31.6,54.4,31.6z"/>
			<path class="st2" d="M53.9,30.7c1,0-0.7-1.3-1.1-1.3C51.9,29.4,53.5,30.7,53.9,30.7z"/>
			<path class="st2" d="M52.7,30.2c0.2,0,0.4-0.5,0.4-0.5C52.9,29.6,52.8,30.2,52.7,30.2z"/>
			<path class="st2" d="M53.1,31.5c0.7,0,0-1.6-0.4-1.6C52,29.9,52.8,31.5,53.1,31.5z"/>
			<path class="st2" d="M52.5,30.7c0.4,0,0.6-0.5,0.2-0.5C52.3,30.2,52,30.7,52.5,30.7z"/>
		</g>
	</g>
</g>
<g>
	<g>
		<g>
			<path class="st2" d="M54.7,31c0.7,0-0.1-1.3-0.5-1.3C53.5,29.7,54.2,31,54.7,31z"/>
			<path class="st2" d="M54.7,30.5c0.6,0,0.1-0.8-0.4-0.8C53.8,29.7,54.3,30.5,54.7,30.5z"/>
			<path class="st2" d="M56.1,32.1c0.6,0-0.9-1.9-1.5-1.9C54.1,30.2,55.6,32.1,56.1,32.1z"/>
			<path class="st2" d="M55.7,31.2c1,0-0.7-1.3-1.1-1.3C53.7,29.9,55.3,31.2,55.7,31.2z"/>
			<path class="st2" d="M54.5,30.6c0.2,0,0.4-0.5,0.4-0.5C54.7,30.1,54.5,30.6,54.5,30.6z"/>
			<path class="st2" d="M54.9,31.9c0.7,0,0-1.6-0.4-1.6C53.8,30.3,54.5,31.9,54.9,31.9z"/>
			<path class="st2" d="M54.3,31.1c0.4,0,0.6-0.5,0.2-0.5C54.1,30.6,53.8,31.1,54.3,31.1z"/>
		</g>
	</g>
</g>
<g>
	<g>
		<g>
			<path class="st2" d="M56.4,31.6c0.7,0-0.1-1.3-0.5-1.3C55.3,30.3,56,31.6,56.4,31.6z"/>
			<path class="st2" d="M56.5,31.1c0.6,0,0.1-0.8-0.4-0.8C55.6,30.3,56.1,31.1,56.5,31.1z"/>
			<path class="st2" d="M57.9,32.6c0.6,0-0.9-1.9-1.5-1.9C55.8,30.8,57.4,32.6,57.9,32.6z"/>
			<path class="st2" d="M57.5,31.7c1,0-0.7-1.3-1.1-1.3C55.4,30.5,57.1,31.7,57.5,31.7z"/>
			<path class="st2" d="M56.3,31.2c0.2,0,0.4-0.5,0.4-0.5C56.5,30.7,56.3,31.2,56.3,31.2z"/>
			<path class="st2" d="M56.7,32.5c0.7,0,0-1.6-0.4-1.6C55.5,30.9,56.3,32.5,56.7,32.5z"/>
			<path class="st2" d="M56,31.7c0.4,0,0.6-0.5,0.2-0.5C55.9,31.2,55.6,31.7,56,31.7z"/>
		</g>
	</g>
</g>
<g>
	<g>
		<g>
			<path class="st2" d="M56,30.9c0.7,0-0.1-1.3-0.5-1.3C54.8,29.6,55.6,30.9,56,30.9z"/>
			<path class="st2" d="M56,30.4c0.6,0,0.1-0.8-0.4-0.8C55.1,29.6,55.6,30.4,56,30.4z"/>
			<path class="st2" d="M57.5,32c0.6,0-0.9-1.9-1.5-1.9C55.4,30.1,56.9,32,57.5,32z"/>
			<path class="st2" d="M57,31.1c1,0-0.7-1.3-1.1-1.3C55,29.8,56.6,31.1,57,31.1z"/>
			<path class="st2" d="M55.8,30.5c0.2,0,0.4-0.5,0.4-0.5C56,30,55.9,30.5,55.8,30.5z"/>
			<path class="st2" d="M56.2,31.8c0.7,0,0-1.6-0.4-1.6C55.1,30.2,55.8,31.8,56.2,31.8z"/>
			<path class="st2" d="M55.6,31c0.4,0,0.6-0.5,0.2-0.5C55.4,30.5,55.1,31,55.6,31z"/>
		</g>
	</g>
</g>
<g>
	<g>
		<g>
			<path class="st2" d="M59.2,33c0.7,0-0.1-1.3-0.5-1.3C58,31.7,58.8,33,59.2,33z"/>
			<path class="st2" d="M59.2,32.5c0.6,0,0.1-0.8-0.4-0.8C58.3,31.7,58.8,32.5,59.2,32.5z"/>
			<path class="st2" d="M60.6,34.1c0.6,0-0.9-1.9-1.5-1.9C58.6,32.2,60.1,34.1,60.6,34.1z"/>
			<path class="st2" d="M60.2,33.1c1,0-0.7-1.3-1.1-1.3C58.2,31.9,59.8,33.1,60.2,33.1z"/>
			<path class="st2" d="M59,32.6c0.2,0,0.4-0.5,0.4-0.5C59.2,32.1,59,32.6,59,32.6z"/>
			<path class="st2" d="M59.4,33.9c0.7,0,0-1.6-0.4-1.6C58.3,32.3,59,33.9,59.4,33.9z"/>
			<path class="st2" d="M58.8,33.1c0.4,0,0.6-0.5,0.2-0.5C58.6,32.6,58.3,33.1,58.8,33.1z"/>
		</g>
	</g>
</g>
<g>
	<g>
		<g>
			<path class="st2" d="M60.6,33.7c0.7,0-0.1-1.3-0.5-1.3C59.4,32.4,60.2,33.7,60.6,33.7z"/>
			<path class="st2" d="M60.6,33.2c0.6,0,0.1-0.8-0.4-0.8C59.7,32.5,60.2,33.2,60.6,33.2z"/>
			<path class="st2" d="M62.1,34.8c0.6,0-0.9-1.9-1.5-1.9C60,32.9,61.5,34.8,62.1,34.8z"/>
			<path class="st2" d="M61.6,33.9c1,0-0.7-1.3-1.1-1.3C59.6,32.6,61.2,33.9,61.6,33.9z"/>
			<path class="st2" d="M60.4,33.3c0.2,0,0.4-0.5,0.4-0.5C60.6,32.8,60.4,33.3,60.4,33.3z"/>
			<path class="st2" d="M60.8,34.7c0.7,0,0-1.6-0.4-1.6C59.7,33.1,60.4,34.7,60.8,34.7z"/>
			<path class="st2" d="M60.2,33.9c0.4,0,0.6-0.5,0.2-0.5C60,33.4,59.7,33.9,60.2,33.9z"/>
		</g>
	</g>
</g>
<g>
	<g>
		<g>
			<path class="st2" d="M58.3,31.8c0.7,0-0.1-1.3-0.5-1.3C57.2,30.6,57.9,31.8,58.3,31.8z"/>
			<path class="st2" d="M58.4,31.4c0.6,0,0.1-0.8-0.4-0.8C57.5,30.6,58,31.4,58.4,31.4z"/>
			<path class="st2" d="M59.8,32.9c0.6,0-0.9-1.9-1.5-1.9C57.7,31.1,59.3,32.9,59.8,32.9z"/>
			<path class="st2" d="M59.4,32c1,0-0.7-1.3-1.1-1.3C57.3,30.8,59,32,59.4,32z"/>
			<path class="st2" d="M58.1,31.5c0.2,0,0.4-0.5,0.4-0.5C58.4,31,58.2,31.5,58.1,31.5z"/>
			<path class="st2" d="M58.6,32.8c0.7,0,0-1.6-0.4-1.6C57.4,31.2,58.2,32.8,58.6,32.8z"/>
			<path class="st2" d="M57.9,32c0.4,0,0.6-0.5,0.2-0.5C57.7,31.5,57.5,32,57.9,32z"/>
		</g>
	</g>
</g>
<g>
	<g>
		<g>
			<path class="st2" d="M63.3,36.7c0.7,0-0.1-1.3-0.5-1.3C62.1,35.4,62.9,36.7,63.3,36.7z"/>
			<path class="st2" d="M63.4,36.3c0.6,0,0.1-0.8-0.4-0.8C62.4,35.5,62.9,36.3,63.4,36.3z"/>
			<path class="st2" d="M64.8,37.8c0.6,0-0.9-1.9-1.5-1.9C62.7,35.9,64.2,37.8,64.8,37.8z"/>
			<path class="st2" d="M64.3,36.9c1,0-0.7-1.3-1.1-1.3C62.3,35.6,63.9,36.9,64.3,36.9z"/>
			<path class="st2" d="M63.1,36.4c0.2,0,0.4-0.5,0.4-0.5C63.4,35.8,63.2,36.4,63.1,36.4z"/>
			<path class="st2" d="M63.6,37.7c0.7,0,0-1.6-0.4-1.6C62.4,36.1,63.2,37.7,63.6,37.7z"/>
			<path class="st2" d="M62.9,36.9c0.4,0,0.6-0.5,0.2-0.5C62.7,36.4,62.5,36.9,62.9,36.9z"/>
		</g>
	</g>
</g>
<g>
	<g>
		<g>
			<path class="st2" d="M62.7,38.8c0.7,0-0.1-1.3-0.5-1.3C61.6,37.5,62.3,38.8,62.7,38.8z"/>
			<path class="st2" d="M62.8,38.3c0.6,0,0.1-0.8-0.4-0.8C61.9,37.5,62.4,38.3,62.8,38.3z"/>
			<path class="st2" d="M64.2,39.9c0.6,0-0.9-1.9-1.5-1.9C62.1,38,63.7,39.9,64.2,39.9z"/>
			<path class="st2" d="M63.8,39c1,0-0.7-1.3-1.1-1.3C61.7,37.7,63.4,39,63.8,39z"/>
			<path class="st2" d="M62.5,38.4c0.2,0,0.4-0.5,0.4-0.5C62.8,37.9,62.6,38.4,62.5,38.4z"/>
			<path class="st2" d="M63,39.7c0.7,0,0-1.6-0.4-1.6C61.8,38.1,62.6,39.7,63,39.7z"/>
			<path class="st2" d="M62.3,38.9c0.4,0,0.6-0.5,0.2-0.5C62.2,38.4,61.9,38.9,62.3,38.9z"/>
		</g>
	</g>
</g>
<g>
	<g>
		<g>
			<path class="st2" d="M60.8,38.5c0.7,0-0.1-1.3-0.5-1.3C59.6,37.2,60.3,38.5,60.8,38.5z"/>
			<path class="st2" d="M60.8,38c0.6,0,0.1-0.8-0.4-0.8C59.9,37.2,60.4,38,60.8,38z"/>
			<path class="st2" d="M62.2,39.6c0.6,0-0.9-1.9-1.5-1.9C60.2,37.7,61.7,39.6,62.2,39.6z"/>
			<path class="st2" d="M61.8,38.7c1,0-0.7-1.3-1.1-1.3C59.8,37.4,61.4,38.7,61.8,38.7z"/>
			<path class="st2" d="M60.6,38.1c0.2,0,0.4-0.5,0.4-0.5C60.8,37.6,60.6,38.1,60.6,38.1z"/>
			<path class="st2" d="M61,39.4c0.7,0,0-1.6-0.4-1.6C59.9,37.8,60.6,39.4,61,39.4z"/>
			<path class="st2" d="M60.4,38.6c0.4,0,0.6-0.5,0.2-0.5C60.2,38.1,59.9,38.6,60.4,38.6z"/>
		</g>
	</g>
</g>
<g>
	<g>
		<g>
			<path class="st2" d="M58.3,38.9c0.7,0-0.1-1.3-0.5-1.3C57.2,37.6,57.9,38.9,58.3,38.9z"/>
			<path class="st2" d="M58.4,38.4c0.6,0,0.1-0.8-0.4-0.8C57.5,37.6,58,38.4,58.4,38.4z"/>
			<path class="st2" d="M59.8,40c0.6,0-0.9-1.9-1.5-1.9C57.7,38.1,59.3,40,59.8,40z"/>
			<path class="st2" d="M59.4,39.1c1,0-0.7-1.3-1.1-1.3C57.3,37.8,59,39.1,59.4,39.1z"/>
			<path class="st2" d="M58.1,38.5c0.2,0,0.4-0.5,0.4-0.5C58.4,38,58.2,38.5,58.1,38.5z"/>
			<path class="st2" d="M58.6,39.8c0.7,0,0-1.6-0.4-1.6C57.4,38.2,58.2,39.8,58.6,39.8z"/>
			<path class="st2" d="M57.9,39c0.4,0,0.6-0.5,0.2-0.5C57.7,38.5,57.5,39,57.9,39z"/>
		</g>
	</g>
</g>
<g>
	<g>
		<g>
			<path class="st2" d="M56.1,39.2c0.7,0-0.1-1.3-0.5-1.3C54.9,38,55.7,39.2,56.1,39.2z"/>
			<path class="st2" d="M56.1,38.8c0.6,0,0.1-0.8-0.4-0.8C55.2,38,55.7,38.8,56.1,38.8z"/>
			<path class="st2" d="M57.5,40.3c0.6,0-0.9-1.9-1.5-1.9C55.5,38.5,57,40.3,57.5,40.3z"/>
			<path class="st2" d="M57.1,39.4c1,0-0.7-1.3-1.1-1.3C55.1,38.2,56.7,39.4,57.1,39.4z"/>
			<path class="st2" d="M55.9,38.9c0.2,0,0.4-0.5,0.4-0.5C56.1,38.4,55.9,38.9,55.9,38.9z"/>
			<path class="st2" d="M56.3,40.2c0.7,0,0-1.6-0.4-1.6C55.2,38.6,55.9,40.2,56.3,40.2z"/>
			<path class="st2" d="M55.7,39.4c0.4,0,0.6-0.5,0.2-0.5C55.5,38.9,55.2,39.4,55.7,39.4z"/>
		</g>
	</g>
</g>
<g>
	<g>
		<g>
			<path class="st2" d="M53.3,39.4c0.7,0-0.1-1.3-0.5-1.3C52.2,38.2,52.9,39.4,53.3,39.4z"/>
			<path class="st2" d="M53.4,39c0.6,0,0.1-0.8-0.4-0.8C52.5,38.2,53,39,53.4,39z"/>
			<path class="st2" d="M54.8,40.5c0.6,0-0.9-1.9-1.5-1.9C52.8,38.7,54.3,40.5,54.8,40.5z"/>
			<path class="st2" d="M54.4,39.6c1,0-0.7-1.3-1.1-1.3C52.3,38.4,54,39.6,54.4,39.6z"/>
			<path class="st2" d="M53.2,39.1c0.2,0,0.4-0.5,0.4-0.5C53.4,38.6,53.2,39.1,53.2,39.1z"/>
			<path class="st2" d="M53.6,40.4c0.7,0,0-1.6-0.4-1.6C52.5,38.8,53.2,40.4,53.6,40.4z"/>
			<path class="st2" d="M52.9,39.6c0.4,0,0.6-0.5,0.2-0.5C52.8,39.1,52.5,39.6,52.9,39.6z"/>
		</g>
	</g>
</g>
<g>
	<g>
		<g>
			<path class="st2" d="M51,39.4c0.7,0-0.1-1.3-0.5-1.3C49.8,38.2,50.6,39.4,51,39.4z"/>
			<path class="st2" d="M51.1,39c0.6,0,0.1-0.8-0.4-0.8C50.1,38.2,50.6,39,51.1,39z"/>
			<path class="st2" d="M52.5,40.5c0.6,0-0.9-1.9-1.5-1.9C50.4,38.7,51.9,40.5,52.5,40.5z"/>
			<path class="st2" d="M52.1,39.6c1,0-0.7-1.3-1.1-1.3C50,38.4,51.6,39.6,52.1,39.6z"/>
			<path class="st2" d="M50.8,39.1c0.2,0,0.4-0.5,0.4-0.5C51.1,38.6,50.9,39.1,50.8,39.1z"/>
			<path class="st2" d="M51.3,40.4c0.7,0,0-1.6-0.4-1.6C50.1,38.8,50.9,40.4,51.3,40.4z"/>
			<path class="st2" d="M50.6,39.6c0.4,0,0.6-0.5,0.2-0.5C50.4,39.1,50.2,39.6,50.6,39.6z"/>
		</g>
	</g>
</g>
<g>
	<g>
		<g>
			<path class="st2" d="M48.4,40.1c0.7,0-0.1-1.3-0.5-1.3C47.2,38.8,48,40.1,48.4,40.1z"/>
			<path class="st2" d="M48.4,39.6c0.6,0,0.1-0.8-0.4-0.8C47.5,38.8,48,39.6,48.4,39.6z"/>
			<path class="st2" d="M49.9,41.2c0.6,0-0.9-1.9-1.5-1.9C47.8,39.3,49.3,41.2,49.9,41.2z"/>
			<path class="st2" d="M49.4,40.3c1,0-0.7-1.3-1.1-1.3C47.4,39,49,40.3,49.4,40.3z"/>
			<path class="st2" d="M48.2,39.7c0.2,0,0.4-0.5,0.4-0.5C48.4,39.2,48.2,39.7,48.2,39.7z"/>
			<path class="st2" d="M48.6,41c0.7,0,0-1.6-0.4-1.6C47.5,39.4,48.2,41,48.6,41z"/>
			<path class="st2" d="M48,40.2c0.4,0,0.6-0.5,0.2-0.5C47.8,39.7,47.5,40.2,48,40.2z"/>
		</g>
	</g>
</g>
<g>
	<g>
		<g>
			<path class="st2" d="M46.2,39.7c0.7,0-0.1-1.3-0.5-1.3C45.1,38.4,45.8,39.7,46.2,39.7z"/>
			<path class="st2" d="M46.3,39.3c0.6,0,0.1-0.8-0.4-0.8C45.4,38.5,45.8,39.3,46.3,39.3z"/>
			<path class="st2" d="M47.7,40.8c0.6,0-0.9-1.9-1.5-1.9C45.6,38.9,47.1,40.8,47.7,40.8z"/>
			<path class="st2" d="M47.3,39.9c1,0-0.7-1.3-1.1-1.3C45.2,38.6,46.8,39.9,47.3,39.9z"/>
			<path class="st2" d="M46,39.4c0.2,0,0.4-0.5,0.4-0.5C46.3,38.8,46.1,39.4,46,39.4z"/>
			<path class="st2" d="M46.5,40.7c0.7,0,0-1.6-0.4-1.6C45.3,39.1,46.1,40.7,46.5,40.7z"/>
			<path class="st2" d="M45.8,39.9c0.4,0,0.6-0.5,0.2-0.5C45.6,39.4,45.4,39.9,45.8,39.9z"/>
		</g>
	</g>
</g>
<g>
	<g>
		<g>
			<path class="st2" d="M46.3,37.7C46.3,37.7,46.4,37.7,46.3,37.7c0.8,0,0-1.3-0.4-1.3c0,0-0.1,0-0.1,0
				C45.2,36.5,45.9,37.7,46.3,37.7z"/>
			<path class="st2" d="M46.4,37.3C46.4,37.3,46.4,37.3,46.4,37.3c0.7,0,0.1-0.8-0.3-0.8c0,0-0.1,0-0.1,0
				C45.4,36.5,45.9,37.3,46.4,37.3z"/>
			<path class="st2" d="M47.8,38.8C47.8,38.8,47.9,38.8,47.8,38.8c0.7,0-0.9-1.8-1.4-1.9c0,0-0.1,0-0.1,0
				C45.8,36.9,47.2,38.8,47.8,38.8z"/>
			<path class="st2" d="M47.4,37.9C47.4,37.9,47.4,37.9,47.4,37.9c1.1,0-0.6-1.2-1-1.3c0,0-0.1,0-0.1,0
				C45.3,36.6,46.9,37.9,47.4,37.9z"/>
			<path class="st2" d="M46.1,37.4C46.2,37.4,46.2,37.4,46.1,37.4c0.3,0,0.5-0.5,0.5-0.5c0,0-0.1,0-0.1,0
				C46.4,36.9,46.2,37.4,46.1,37.4z"/>
			<path class="st2" d="M46.6,38.7C46.6,38.7,46.6,38.7,46.6,38.7c0.8,0,0-1.6-0.3-1.6c0,0-0.1,0-0.1,0
				C45.4,37.1,46.2,38.7,46.6,38.7z"/>
			<path class="st2" d="M45.9,37.9c0.4,0,0.6-0.5,0.2-0.5C45.7,37.4,45.5,37.9,45.9,37.9z"/>
		</g>
	</g>
</g>
<g>
	<g>
		<g>
			<path class="st2" d="M49.4,38.5c0.7,0-0.1-1.3-0.5-1.3C48.3,37.2,49,38.5,49.4,38.5z"/>
			<path class="st2" d="M49.5,38c0.6,0,0.1-0.8-0.4-0.8C48.5,37.2,49,38,49.5,38z"/>
			<path class="st2" d="M50.9,39.6c0.6,0-0.9-1.9-1.5-1.9C48.8,37.7,50.3,39.6,50.9,39.6z"/>
			<path class="st2" d="M50.5,38.7c1,0-0.7-1.3-1.1-1.3C48.4,37.4,50,38.7,50.5,38.7z"/>
			<path class="st2" d="M49.2,38.1c0.2,0,0.4-0.5,0.4-0.5C49.5,37.6,49.3,38.1,49.2,38.1z"/>
			<path class="st2" d="M49.7,39.4c0.7,0,0-1.6-0.4-1.6C48.5,37.8,49.3,39.4,49.7,39.4z"/>
			<path class="st2" d="M49,38.6c0.4,0,0.6-0.5,0.2-0.5C48.8,38.1,48.6,38.6,49,38.6z"/>
		</g>
	</g>
</g>
<g>
	<g>
		<g>
			<path class="st2" d="M48.8,36c0.7,0-0.1-1.3-0.5-1.3C47.7,34.7,48.4,36,48.8,36z"/>
			<path class="st2" d="M48.9,35.5c0.6,0,0.1-0.8-0.4-0.8C48,34.7,48.5,35.5,48.9,35.5z"/>
			<path class="st2" d="M50.3,37.1c0.6,0-0.9-1.9-1.5-1.9C48.2,35.2,49.8,37.1,50.3,37.1z"/>
			<path class="st2" d="M49.9,36.1c1,0-0.7-1.3-1.1-1.3C47.8,34.9,49.5,36.1,49.9,36.1z"/>
			<path class="st2" d="M48.7,35.6c0.2,0,0.4-0.5,0.4-0.5C48.9,35.1,48.7,35.6,48.7,35.6z"/>
			<path class="st2" d="M49.1,36.9c0.7,0,0-1.6-0.4-1.6C47.9,35.3,48.7,36.9,49.1,36.9z"/>
			<path class="st2" d="M48.4,36.1c0.4,0,0.6-0.5,0.2-0.5C48.3,35.6,48,36.1,48.4,36.1z"/>
		</g>
	</g>
</g>
<g>
	<g>
		<g>
			<path class="st2" d="M48.8,34.2c0.7,0-0.1-1.3-0.5-1.3C47.7,32.9,48.4,34.2,48.8,34.2z"/>
			<path class="st2" d="M48.9,33.7c0.6,0,0.1-0.8-0.4-0.8C48,32.9,48.5,33.7,48.9,33.7z"/>
			<path class="st2" d="M50.3,35.3c0.6,0-0.9-1.9-1.5-1.9C48.2,33.4,49.8,35.3,50.3,35.3z"/>
			<path class="st2" d="M49.9,34.4c1,0-0.7-1.3-1.1-1.3C47.8,33.1,49.5,34.4,49.9,34.4z"/>
			<path class="st2" d="M48.7,33.8c0.2,0,0.4-0.5,0.4-0.5C48.9,33.3,48.7,33.8,48.7,33.8z"/>
			<path class="st2" d="M49.1,35.1c0.7,0,0-1.6-0.4-1.6C47.9,33.5,48.7,35.1,49.1,35.1z"/>
			<path class="st2" d="M48.4,34.3c0.4,0,0.6-0.5,0.2-0.5C48.3,33.8,48,34.3,48.4,34.3z"/>
		</g>
	</g>
</g>
<g>
	<g>
		<g>
			<path class="st2" d="M51.4,34.4c0.7,0-0.1-1.3-0.5-1.3C50.2,33.1,51,34.4,51.4,34.4z"/>
			<path class="st2" d="M51.4,33.9c0.6,0,0.1-0.8-0.4-0.8C50.5,33.1,51,33.9,51.4,33.9z"/>
			<path class="st2" d="M52.9,35.5c0.6,0-0.9-1.9-1.5-1.9C50.8,33.6,52.3,35.5,52.9,35.5z"/>
			<path class="st2" d="M52.4,34.6c1,0-0.7-1.3-1.1-1.3C50.4,33.3,52,34.6,52.4,34.6z"/>
			<path class="st2" d="M51.2,34c0.2,0,0.4-0.5,0.4-0.5C51.4,33.5,51.3,34,51.2,34z"/>
			<path class="st2" d="M51.6,35.3c0.7,0,0-1.6-0.4-1.6C50.5,33.7,51.2,35.3,51.6,35.3z"/>
			<path class="st2" d="M51,34.5c0.4,0,0.6-0.5,0.2-0.5C50.8,34,50.5,34.5,51,34.5z"/>
		</g>
	</g>
</g>
<g>
	<g>
		<g>
			<path class="st2" d="M51.8,36.6c0.7,0-0.1-1.3-0.5-1.3C50.7,35.3,51.4,36.6,51.8,36.6z"/>
			<path class="st2" d="M51.9,36.2c0.6,0,0.1-0.8-0.4-0.8C51,35.4,51.5,36.2,51.9,36.2z"/>
			<path class="st2" d="M53.3,37.7c0.6,0-0.9-1.9-1.5-1.9C51.2,35.8,52.8,37.7,53.3,37.7z"/>
			<path class="st2" d="M52.9,36.8c1,0-0.7-1.3-1.1-1.3C50.8,35.5,52.5,36.8,52.9,36.8z"/>
			<path class="st2" d="M51.7,36.3c0.2,0,0.4-0.5,0.4-0.5C51.9,35.7,51.7,36.3,51.7,36.3z"/>
			<path class="st2" d="M52.1,37.6c0.7,0,0-1.6-0.4-1.6C50.9,36,51.7,37.6,52.1,37.6z"/>
			<path class="st2" d="M51.4,36.8c0.4,0,0.6-0.5,0.2-0.5C51.3,36.3,51,36.8,51.4,36.8z"/>
		</g>
	</g>
</g>
<g>
	<g>
		<g>
			<path class="st2" d="M51.8,37.9c0.7,0-0.1-1.3-0.5-1.3C50.7,36.7,51.4,37.9,51.8,37.9z"/>
			<path class="st2" d="M51.9,37.5c0.6,0,0.1-0.8-0.4-0.8C51,36.7,51.5,37.5,51.9,37.5z"/>
			<path class="st2" d="M53.3,39c0.6,0-0.9-1.9-1.5-1.9C51.2,37.2,52.8,39,53.3,39z"/>
			<path class="st2" d="M52.9,38.1c1,0-0.7-1.3-1.1-1.3C50.8,36.9,52.5,38.1,52.9,38.1z"/>
			<path class="st2" d="M51.7,37.6c0.2,0,0.4-0.5,0.4-0.5C51.9,37.1,51.7,37.6,51.7,37.6z"/>
			<path class="st2" d="M52.1,38.9c0.7,0,0-1.6-0.4-1.6C50.9,37.3,51.7,38.9,52.1,38.9z"/>
			<path class="st2" d="M51.4,38.1c0.4,0,0.6-0.5,0.2-0.5C51.3,37.6,51,38.1,51.4,38.1z"/>
		</g>
	</g>
</g>
<g>
	<g>
		<g>
			<path class="st2" d="M55.3,38.3c0.7,0-0.1-1.3-0.5-1.3C54.2,37,54.9,38.3,55.3,38.3z"/>
			<path class="st2" d="M55.4,37.8c0.6,0,0.1-0.8-0.4-0.8C54.5,37.1,54.9,37.8,55.4,37.8z"/>
			<path class="st2" d="M56.8,39.4c0.6,0-0.9-1.9-1.5-1.9C54.7,37.5,56.3,39.4,56.8,39.4z"/>
			<path class="st2" d="M56.4,38.5c1,0-0.7-1.3-1.1-1.3C54.3,37.2,55.9,38.5,56.4,38.5z"/>
			<path class="st2" d="M55.1,37.9c0.2,0,0.4-0.5,0.4-0.5C55.4,37.4,55.2,37.9,55.1,37.9z"/>
			<path class="st2" d="M55.6,39.3c0.7,0,0-1.6-0.4-1.6C54.4,37.7,55.2,39.3,55.6,39.3z"/>
			<path class="st2" d="M54.9,38.5c0.4,0,0.6-0.5,0.2-0.5C54.7,38,54.5,38.5,54.9,38.5z"/>
		</g>
	</g>
</g>
<g>
	<g>
		<g>
			<path class="st2" d="M54.8,36.7c0.7,0-0.1-1.3-0.5-1.3C53.7,35.4,54.4,36.7,54.8,36.7z"/>
			<path class="st2" d="M54.9,36.3c0.6,0,0.1-0.8-0.4-0.8C54,35.5,54.5,36.3,54.9,36.3z"/>
			<path class="st2" d="M56.3,37.8c0.6,0-0.9-1.9-1.5-1.9C54.3,35.9,55.8,37.8,56.3,37.8z"/>
			<path class="st2" d="M55.9,36.9c1,0-0.7-1.3-1.1-1.3C53.8,35.6,55.5,36.9,55.9,36.9z"/>
			<path class="st2" d="M54.7,36.4c0.2,0,0.4-0.5,0.4-0.5C54.9,35.8,54.7,36.4,54.7,36.4z"/>
			<path class="st2" d="M55.1,37.7c0.7,0,0-1.6-0.4-1.6C54,36.1,54.7,37.7,55.1,37.7z"/>
			<path class="st2" d="M54.4,36.9c0.4,0,0.6-0.5,0.2-0.5C54.3,36.4,54,36.9,54.4,36.9z"/>
		</g>
	</g>
</g>
<g>
	<g>
		<g>
			<path class="st2" d="M54.6,35.3c0.7,0-0.1-1.3-0.5-1.3C53.4,34,54.2,35.3,54.6,35.3z"/>
			<path class="st2" d="M54.6,34.8c0.6,0,0.1-0.8-0.4-0.8C53.7,34,54.2,34.8,54.6,34.8z"/>
			<path class="st2" d="M56,36.4c0.6,0-0.9-1.9-1.5-1.9C54,34.5,55.5,36.4,56,36.4z"/>
			<path class="st2" d="M55.6,35.5c1,0-0.7-1.3-1.1-1.3C53.6,34.2,55.2,35.5,55.6,35.5z"/>
			<path class="st2" d="M54.4,34.9c0.2,0,0.4-0.5,0.4-0.5C54.6,34.4,54.4,34.9,54.4,34.9z"/>
			<path class="st2" d="M54.8,36.3c0.7,0,0-1.6-0.4-1.6C53.7,34.6,54.4,36.3,54.8,36.3z"/>
			<path class="st2" d="M54.2,35.5c0.4,0,0.6-0.5,0.2-0.5C54,35,53.7,35.5,54.2,35.5z"/>
		</g>
	</g>
</g>
<g>
	<g>
		<g>
			<path class="st2" d="M55.4,34.3c0.7,0-0.1-1.3-0.5-1.3C54.3,33,55,34.3,55.4,34.3z"/>
			<path class="st2" d="M55.5,33.8c0.6,0,0.1-0.8-0.4-0.8C54.6,33,55,33.8,55.5,33.8z"/>
			<path class="st2" d="M56.9,35.4c0.6,0-0.9-1.9-1.5-1.9C54.8,33.5,56.3,35.4,56.9,35.4z"/>
			<path class="st2" d="M56.5,34.5c1,0-0.7-1.3-1.1-1.3C54.4,33.2,56,34.5,56.5,34.5z"/>
			<path class="st2" d="M55.2,33.9c0.2,0,0.4-0.5,0.4-0.5C55.5,33.4,55.3,33.9,55.2,33.9z"/>
			<path class="st2" d="M55.7,35.2c0.7,0,0-1.6-0.4-1.6C54.5,33.6,55.3,35.2,55.7,35.2z"/>
			<path class="st2" d="M55,34.4c0.4,0,0.6-0.5,0.2-0.5C54.8,33.9,54.6,34.4,55,34.4z"/>
		</g>
	</g>
</g>
<g>
	<g>
		<g>
			<path class="st2" d="M57.7,34.2c0.7,0-0.1-1.3-0.5-1.3C56.5,32.9,57.3,34.2,57.7,34.2z"/>
			<path class="st2" d="M57.7,33.7c0.6,0,0.1-0.8-0.4-0.8C56.8,32.9,57.3,33.7,57.7,33.7z"/>
			<path class="st2" d="M59.1,35.3c0.6,0-0.9-1.9-1.5-1.9C57.1,33.4,58.6,35.3,59.1,35.3z"/>
			<path class="st2" d="M58.7,34.4c1,0-0.7-1.3-1.1-1.3C56.7,33.1,58.3,34.4,58.7,34.4z"/>
			<path class="st2" d="M57.5,33.8c0.2,0,0.4-0.5,0.4-0.5C57.7,33.3,57.5,33.8,57.5,33.8z"/>
			<path class="st2" d="M57.9,35.1c0.7,0,0-1.6-0.4-1.6C56.8,33.5,57.5,35.1,57.9,35.1z"/>
			<path class="st2" d="M57.3,34.3c0.4,0,0.6-0.5,0.2-0.5C57.1,33.8,56.8,34.3,57.3,34.3z"/>
		</g>
	</g>
</g>
<g>
	<g>
		<g>
			<path class="st2" d="M55.8,33.1c0.7,0-0.1-1.3-0.5-1.3C54.6,31.9,55.4,33.1,55.8,33.1z"/>
			<path class="st2" d="M55.9,32.7c0.6,0,0.1-0.8-0.4-0.8C54.9,31.9,55.4,32.7,55.9,32.7z"/>
			<path class="st2" d="M57.3,34.2c0.6,0-0.9-1.9-1.5-1.9C55.2,32.4,56.7,34.2,57.3,34.2z"/>
			<path class="st2" d="M56.8,33.3c1,0-0.7-1.3-1.1-1.3C54.8,32.1,56.4,33.3,56.8,33.3z"/>
			<path class="st2" d="M55.6,32.8c0.2,0,0.4-0.5,0.4-0.5C55.8,32.3,55.7,32.8,55.6,32.8z"/>
			<path class="st2" d="M56,34.1c0.7,0,0-1.6-0.4-1.6C54.9,32.5,55.7,34.1,56,34.1z"/>
			<path class="st2" d="M55.4,33.3c0.4,0,0.6-0.5,0.2-0.5C55.2,32.8,55,33.3,55.4,33.3z"/>
		</g>
	</g>
</g>
<g>
	<g>
		<g>
			<path class="st2" d="M57.8,36.7c0.1,0,0.1,0,0.2,0c0.7,0-0.2-1.2-0.6-1.3c0,0-0.1,0-0.1,0C56.7,35.4,57.4,36.7,57.8,36.7z"/>
			<path class="st2" d="M57.9,36.3c0.1,0,0.1,0,0.2,0c0.6,0,0-0.8-0.4-0.8c0,0-0.1,0-0.1,0C57,35.4,57.5,36.2,57.9,36.3z"/>
			<path class="st2" d="M59.3,37.8c0.1,0,0.1,0,0.2,0c0.6,0-1-1.8-1.5-1.9c-0.1,0-0.1,0-0.2,0c-0.5,0,0.1,0.7,0.1,0.8
				C58.2,37,58.9,37.8,59.3,37.8z"/>
			<path class="st2" d="M58.9,36.9c0.1,0,0.1,0,0.2,0c1,0-0.7-1.2-1.1-1.3c-0.1,0-0.1,0-0.2,0C56.9,35.6,58.5,36.9,58.9,36.9z"/>
			<path class="st2" d="M57.7,36.4c0.1,0,0.1,0,0.2,0c0.2,0,0.4-0.5,0.4-0.5c-0.1,0-0.1,0-0.2,0C57.9,35.8,57.7,36.4,57.7,36.4z"/>
			<path class="st2" d="M58.1,37.7c0.1,0,0.1,0,0.2,0c0.7,0-0.1-1.6-0.5-1.6c0,0-0.1,0-0.1,0C57,36,57.7,37.7,58.1,37.7z"/>
			<path class="st2" d="M57.3,36.9c0.1,0,0.1,0,0.2,0c0.4,0,0.8-0.5,0.3-0.5c-0.1,0-0.1,0-0.2,0C57.4,36.4,57,36.8,57.3,36.9z"/>
		</g>
	</g>
</g>
<g>
	<g>
		<g>
			<path class="st2" d="M57.2,37.6c0.7,0-0.1-1.3-0.5-1.3C56,36.3,56.8,37.6,57.2,37.6z"/>
			<path class="st2" d="M57.3,37.1c0.6,0,0.1-0.8-0.4-0.8C56.3,36.3,56.8,37.1,57.3,37.1z"/>
			<path class="st2" d="M58.7,38.7c0.6,0-0.9-1.9-1.5-1.9C56.6,36.8,58.1,38.7,58.7,38.7z"/>
			<path class="st2" d="M58.2,37.7c1,0-0.7-1.3-1.1-1.3C56.2,36.5,57.8,37.7,58.2,37.7z"/>
			<path class="st2" d="M57,37.2c0.2,0,0.4-0.5,0.4-0.5C57.3,36.7,57.1,37.2,57,37.2z"/>
			<path class="st2" d="M57.5,38.5c0.7,0,0-1.6-0.4-1.6C56.3,36.9,57.1,38.5,57.5,38.5z"/>
			<path class="st2" d="M56.8,37.7c0.4,0,0.6-0.5,0.2-0.5C56.6,37.2,56.4,37.7,56.8,37.7z"/>
		</g>
	</g>
</g>
<g>
	<g>
		<g>
			<path class="st2" d="M60,36.4c0.7,0-0.1-1.3-0.5-1.3C58.9,35.2,59.6,36.4,60,36.4z"/>
			<path class="st2" d="M60.1,36c0.6,0,0.1-0.8-0.4-0.8C59.2,35.2,59.6,36,60.1,36z"/>
			<path class="st2" d="M61.5,37.5c0.6,0-0.9-1.9-1.5-1.9C59.4,35.7,60.9,37.5,61.5,37.5z"/>
			<path class="st2" d="M61.1,36.6c1,0-0.7-1.3-1.1-1.3C59,35.4,60.6,36.6,61.1,36.6z"/>
			<path class="st2" d="M59.8,36.1c0.2,0,0.4-0.5,0.4-0.5C60.1,35.6,59.9,36.1,59.8,36.1z"/>
			<path class="st2" d="M60.3,37.4c0.7,0,0-1.6-0.4-1.6C59.1,35.8,59.9,37.4,60.3,37.4z"/>
			<path class="st2" d="M59.6,36.6c0.4,0,0.6-0.5,0.2-0.5C59.4,36.1,59.2,36.6,59.6,36.6z"/>
		</g>
	</g>
</g>
<g>
	<g>
		<g>
			<path class="st2" d="M61.4,36.2c0.7,0-0.1-1.3-0.5-1.3C60.3,34.9,61,36.2,61.4,36.2z"/>
			<path class="st2" d="M61.5,35.7c0.6,0,0.1-0.8-0.4-0.8C60.6,34.9,61,35.7,61.5,35.7z"/>
			<path class="st2" d="M62.9,37.2c0.6,0-0.9-1.9-1.5-1.9C60.8,35.4,62.4,37.2,62.9,37.2z"/>
			<path class="st2" d="M62.5,36.3c1,0-0.7-1.3-1.1-1.3C60.4,35.1,62,36.3,62.5,36.3z"/>
			<path class="st2" d="M61.2,35.8c0.2,0,0.4-0.5,0.4-0.5C61.5,35.3,61.3,35.8,61.2,35.8z"/>
			<path class="st2" d="M61.7,37.1c0.7,0,0-1.6-0.4-1.6C60.5,35.5,61.3,37.1,61.7,37.1z"/>
			<path class="st2" d="M61,36.3c0.4,0,0.6-0.5,0.2-0.5C60.8,35.8,60.6,36.3,61,36.3z"/>
		</g>
	</g>
</g>
<g>
	<g>
		<g>
			<path class="st2" d="M59.9,35.3c0.7,0-0.1-1.3-0.5-1.3C58.8,34,59.5,35.3,59.9,35.3z"/>
			<path class="st2" d="M60,34.8c0.6,0,0.1-0.8-0.4-0.8C59.1,34,59.5,34.8,60,34.8z"/>
			<path class="st2" d="M61.4,36.4c0.6,0-0.9-1.9-1.5-1.9C59.3,34.5,60.9,36.4,61.4,36.4z"/>
			<path class="st2" d="M61,35.5c1,0-0.7-1.3-1.1-1.3C58.9,34.2,60.5,35.5,61,35.5z"/>
			<path class="st2" d="M59.7,34.9c0.2,0,0.4-0.5,0.4-0.5C60,34.4,59.8,34.9,59.7,34.9z"/>
			<path class="st2" d="M60.2,36.3c0.7,0,0-1.6-0.4-1.6C59,34.6,59.8,36.3,60.2,36.3z"/>
			<path class="st2" d="M59.5,35.5c0.4,0,0.6-0.5,0.2-0.5C59.3,35,59.1,35.5,59.5,35.5z"/>
		</g>
	</g>
</g>
<g>
	<g>
		<g>
			<path class="st2" d="M42.1,33.2c0.7,0-0.1-1.3-0.5-1.3C40.9,32,41.7,33.2,42.1,33.2z"/>
			<path class="st2" d="M42.2,32.8c0.6,0,0.1-0.8-0.4-0.8C41.2,32,41.7,32.8,42.2,32.8z"/>
			<path class="st2" d="M43.6,34.3c0.6,0-0.9-1.9-1.5-1.9C41.5,32.5,43,34.3,43.6,34.3z"/>
			<path class="st2" d="M43.1,33.4c1,0-0.7-1.3-1.1-1.3C41.1,32.2,42.7,33.4,43.1,33.4z"/>
			<path class="st2" d="M41.9,32.9c0.2,0,0.4-0.5,0.4-0.5C42.1,32.4,42,32.9,41.9,32.9z"/>
			<path class="st2" d="M42.3,34.2c0.7,0,0-1.6-0.4-1.6C41.2,32.6,42,34.2,42.3,34.2z"/>
			<path class="st2" d="M41.7,33.4c0.4,0,0.6-0.5,0.2-0.5C41.5,32.9,41.3,33.4,41.7,33.4z"/>
		</g>
	</g>
</g>
<g>
	<g>
		<g>
			<path class="st2" d="M37.6,31.4c0.7,0-0.1-1.3-0.5-1.3C36.4,30.1,37.2,31.4,37.6,31.4z"/>
			<path class="st2" d="M37.7,30.9c0.6,0,0.1-0.8-0.4-0.8C36.7,30.1,37.2,30.9,37.7,30.9z"/>
			<path class="st2" d="M39.1,32.5c0.6,0-0.9-1.9-1.5-1.9C37,30.6,38.5,32.5,39.1,32.5z"/>
			<path class="st2" d="M38.6,31.5c1,0-0.7-1.3-1.1-1.3C36.6,30.3,38.2,31.5,38.6,31.5z"/>
			<path class="st2" d="M37.4,31c0.2,0,0.4-0.5,0.4-0.5C37.6,30.5,37.5,31,37.4,31z"/>
			<path class="st2" d="M37.8,32.3c0.7,0,0-1.6-0.4-1.6C36.7,30.7,37.5,32.3,37.8,32.3z"/>
			<path class="st2" d="M37.2,31.5c0.4,0,0.6-0.5,0.2-0.5C37,31,36.7,31.5,37.2,31.5z"/>
		</g>
	</g>
</g>
<g>
	<g>
		<g>
			<path class="st2" d="M41,30.6c0.7,0-0.1-1.3-0.5-1.3C39.9,29.3,40.6,30.6,41,30.6z"/>
			<path class="st2" d="M41.1,30.2c0.6,0,0.1-0.8-0.4-0.8C40.2,29.4,40.7,30.2,41.1,30.2z"/>
			<path class="st2" d="M42.5,31.7c0.6,0-0.9-1.9-1.5-1.9C40.5,29.8,42,31.7,42.5,31.7z"/>
			<path class="st2" d="M42.1,30.8c1,0-0.7-1.3-1.1-1.3C40,29.5,41.7,30.8,42.1,30.8z"/>
			<path class="st2" d="M40.9,30.2c0.2,0,0.4-0.5,0.4-0.5C41.1,29.7,40.9,30.2,40.9,30.2z"/>
			<path class="st2" d="M41.3,31.6c0.7,0,0-1.6-0.4-1.6C40.2,30,40.9,31.6,41.3,31.6z"/>
			<path class="st2" d="M40.7,30.8c0.4,0,0.6-0.5,0.2-0.5C40.5,30.3,40.2,30.8,40.7,30.8z"/>
		</g>
	</g>
</g>
<g>
	<g>
		<g>
			<path class="st2" d="M36.5,34.5c0.7,0-0.1-1.3-0.5-1.3C35.3,33.2,36.1,34.5,36.5,34.5z"/>
			<path class="st2" d="M36.5,34c0.6,0,0.1-0.8-0.4-0.8C35.6,33.2,36.1,34,36.5,34z"/>
			<path class="st2" d="M38,35.6c0.6,0-0.9-1.9-1.5-1.9C35.9,33.7,37.4,35.6,38,35.6z"/>
			<path class="st2" d="M37.5,34.7c1,0-0.7-1.3-1.1-1.3C35.5,33.4,37.1,34.7,37.5,34.7z"/>
			<path class="st2" d="M36.3,34.1c0.2,0,0.4-0.5,0.4-0.5C36.5,33.6,36.4,34.1,36.3,34.1z"/>
			<path class="st2" d="M36.7,35.4c0.7,0,0-1.6-0.4-1.6C35.6,33.8,36.3,35.4,36.7,35.4z"/>
			<path class="st2" d="M36.1,34.6c0.4,0,0.6-0.5,0.2-0.5C35.9,34.1,35.6,34.6,36.1,34.6z"/>
		</g>
	</g>
</g>
<g>
	<g>
		<g>
			<path class="st2" d="M39.5,38.4c0.7,0-0.1-1.3-0.5-1.3C38.4,37.1,39.1,38.4,39.5,38.4z"/>
			<path class="st2" d="M39.6,37.9c0.6,0,0.1-0.8-0.4-0.8C38.6,37.1,39.1,37.9,39.6,37.9z"/>
			<path class="st2" d="M41,39.5c0.6,0-0.9-1.9-1.5-1.9C38.9,37.6,40.4,39.5,41,39.5z"/>
			<path class="st2" d="M40.6,38.5c1,0-0.7-1.3-1.1-1.3C38.5,37.3,40.1,38.5,40.6,38.5z"/>
			<path class="st2" d="M39.3,38c0.2,0,0.4-0.5,0.4-0.5C39.6,37.5,39.4,38,39.3,38z"/>
			<path class="st2" d="M39.8,39.3c0.7,0,0-1.6-0.4-1.6C38.6,37.7,39.4,39.3,39.8,39.3z"/>
			<path class="st2" d="M39.1,38.5c0.4,0,0.6-0.5,0.2-0.5C38.9,38,38.7,38.5,39.1,38.5z"/>
		</g>
	</g>
</g>
<g>
	<g>
		<g>
			<path class="st2" d="M32.9,38.1c0.7,0-0.1-1.3-0.5-1.3C31.7,36.9,32.5,38.1,32.9,38.1z"/>
			<path class="st2" d="M33,37.7c0.6,0,0.1-0.8-0.4-0.8C32,36.9,32.5,37.7,33,37.7z"/>
			<path class="st2" d="M34.4,39.2c0.6,0-0.9-1.9-1.5-1.9C32.3,37.4,33.8,39.2,34.4,39.2z"/>
			<path class="st2" d="M33.9,38.3c1,0-0.7-1.3-1.1-1.3C31.9,37.1,33.5,38.3,33.9,38.3z"/>
			<path class="st2" d="M32.7,37.8c0.2,0,0.4-0.5,0.4-0.5C32.9,37.3,32.8,37.8,32.7,37.8z"/>
			<path class="st2" d="M33.1,39.1c0.7,0,0-1.6-0.4-1.6C32,37.5,32.8,39.1,33.1,39.1z"/>
			<path class="st2" d="M32.5,38.3c0.4,0,0.6-0.5,0.2-0.5C32.3,37.8,32.1,38.3,32.5,38.3z"/>
		</g>
	</g>
</g>
<g>
	<g>
		<g>
			<path class="st2" d="M19,37.3c0.7,0-0.1-1.3-0.5-1.3C17.9,36,18.6,37.3,19,37.3z"/>
			<path class="st2" d="M19.1,36.8c0.6,0,0.1-0.8-0.4-0.8C18.2,36,18.6,36.8,19.1,36.8z"/>
			<path class="st2" d="M20.5,38.4c0.6,0-0.9-1.9-1.5-1.9C18.4,36.5,20,38.4,20.5,38.4z"/>
			<path class="st2" d="M20.1,37.5c1,0-0.7-1.3-1.1-1.3C18,36.2,19.6,37.5,20.1,37.5z"/>
			<path class="st2" d="M18.8,36.9c0.2,0,0.4-0.5,0.4-0.5C19.1,36.4,18.9,36.9,18.8,36.9z"/>
			<path class="st2" d="M19.3,38.3c0.7,0,0-1.6-0.4-1.6C18.1,36.6,18.9,38.3,19.3,38.3z"/>
			<path class="st2" d="M18.6,37.5c0.4,0,0.6-0.5,0.2-0.5C18.4,37,18.2,37.5,18.6,37.5z"/>
		</g>
	</g>
</g>
<g>
	<g>
		<g>
			<path class="st2" d="M26.1,39.8c0.7,0-0.1-1.3-0.5-1.3C24.9,38.5,25.6,39.8,26.1,39.8z"/>
			<path class="st2" d="M26.1,39.3c0.6,0,0.1-0.8-0.4-0.8C25.2,38.5,25.7,39.3,26.1,39.3z"/>
			<path class="st2" d="M27.5,40.9c0.6,0-0.9-1.9-1.5-1.9C25.5,39,27,40.9,27.5,40.9z"/>
			<path class="st2" d="M27.1,39.9c1,0-0.7-1.3-1.1-1.3C25,38.7,26.7,39.9,27.1,39.9z"/>
			<path class="st2" d="M25.9,39.4c0.2,0,0.4-0.5,0.4-0.5C26.1,38.9,25.9,39.4,25.9,39.4z"/>
			<path class="st2" d="M26.3,40.7c0.7,0,0-1.6-0.4-1.6C25.2,39.1,25.9,40.7,26.3,40.7z"/>
			<path class="st2" d="M25.7,39.9c0.4,0,0.6-0.5,0.2-0.5C25.5,39.4,25.2,39.9,25.7,39.9z"/>
		</g>
	</g>
</g>
<g>
	<g>
		<g>
			<path class="st2" d="M23.7,39.9c0.7,0-0.1-1.3-0.5-1.3C22.6,38.6,23.3,39.9,23.7,39.9z"/>
			<path class="st2" d="M23.8,39.4c0.6,0,0.1-0.8-0.4-0.8C22.9,38.6,23.4,39.4,23.8,39.4z"/>
			<path class="st2" d="M25.2,41c0.6,0-0.9-1.9-1.5-1.9C23.1,39.1,24.7,41,25.2,41z"/>
			<path class="st2" d="M24.8,40.1c1,0-0.7-1.3-1.1-1.3C22.7,38.8,24.4,40.1,24.8,40.1z"/>
			<path class="st2" d="M23.6,39.5c0.2,0,0.4-0.5,0.4-0.5C23.8,39,23.6,39.5,23.6,39.5z"/>
			<path class="st2" d="M24,40.9c0.7,0,0-1.6-0.4-1.6C22.8,39.2,23.6,40.9,24,40.9z"/>
			<path class="st2" d="M23.3,40.1c0.4,0,0.6-0.5,0.2-0.5C23.2,39.6,22.9,40.1,23.3,40.1z"/>
		</g>
	</g>
</g>
<g>
	<g>
		<g>
			<path class="st2" d="M14.5,39c0.7,0-0.1-1.3-0.5-1.3C13.4,37.7,14.1,39,14.5,39z"/>
			<path class="st2" d="M14.6,38.5c0.6,0,0.1-0.8-0.4-0.8C13.7,37.7,14.1,38.5,14.6,38.5z"/>
			<path class="st2" d="M16,40.1c0.6,0-0.9-1.9-1.5-1.9C13.9,38.2,15.5,40.1,16,40.1z"/>
			<path class="st2" d="M15.6,39.2c1,0-0.7-1.3-1.1-1.3C13.5,37.9,15.1,39.2,15.6,39.2z"/>
			<path class="st2" d="M14.3,38.6c0.2,0,0.4-0.5,0.4-0.5C14.6,38.1,14.4,38.6,14.3,38.6z"/>
			<path class="st2" d="M14.8,39.9c0.7,0,0-1.6-0.4-1.6C13.6,38.3,14.4,39.9,14.8,39.9z"/>
			<path class="st2" d="M14.1,39.1c0.4,0,0.6-0.5,0.2-0.5C13.9,38.6,13.7,39.1,14.1,39.1z"/>
		</g>
	</g>
</g>
<g>
	<g>
		<g>
			<path class="st2" d="M18.4,39.8c0.7,0-0.1-1.3-0.5-1.3C17.2,38.5,18,39.8,18.4,39.8z"/>
			<path class="st2" d="M18.5,39.3c0.6,0,0.1-0.8-0.4-0.8C17.5,38.5,18,39.3,18.5,39.3z"/>
			<path class="st2" d="M19.9,40.9c0.6,0-0.9-1.9-1.5-1.9C17.8,39,19.3,40.9,19.9,40.9z"/>
			<path class="st2" d="M19.4,39.9c1,0-0.7-1.3-1.1-1.3C17.4,38.7,19,39.9,19.4,39.9z"/>
			<path class="st2" d="M18.2,39.4c0.2,0,0.4-0.5,0.4-0.5C18.4,38.9,18.3,39.4,18.2,39.4z"/>
			<path class="st2" d="M18.6,40.7c0.7,0,0-1.6-0.4-1.6C17.5,39.1,18.3,40.7,18.6,40.7z"/>
			<path class="st2" d="M18,39.9c0.4,0,0.6-0.5,0.2-0.5C17.8,39.4,17.6,39.9,18,39.9z"/>
		</g>
	</g>
</g>
<g>
	<g>
		<g>
			<path class="st2" d="M10.1,38.8c0.7,0-0.1-1.3-0.5-1.3C9,37.5,9.7,38.8,10.1,38.8z"/>
			<path class="st2" d="M10.2,38.3c0.6,0,0.1-0.8-0.4-0.8C9.3,37.5,9.8,38.3,10.2,38.3z"/>
			<path class="st2" d="M11.6,39.9c0.6,0-0.9-1.9-1.5-1.9C9.6,38,11.1,39.9,11.6,39.9z"/>
			<path class="st2" d="M11.2,39c1,0-0.7-1.3-1.1-1.3C9.1,37.7,10.8,39,11.2,39z"/>
			<path class="st2" d="M10,38.4c0.2,0,0.4-0.5,0.4-0.5C10.2,37.9,10,38.4,10,38.4z"/>
			<path class="st2" d="M10.4,39.7c0.7,0,0-1.6-0.4-1.6C9.3,38.1,10,39.7,10.4,39.7z"/>
			<path class="st2" d="M9.8,38.9c0.4,0,0.6-0.5,0.2-0.5C9.6,38.4,9.3,38.9,9.8,38.9z"/>
		</g>
	</g>
</g>
<g>
	<g>
		<g>
			<path class="st2" d="M14.9,36.8c0.7,0-0.1-1.3-0.5-1.3C13.7,35.5,14.5,36.8,14.9,36.8z"/>
			<path class="st2" d="M14.9,36.3c0.6,0,0.1-0.8-0.4-0.8C14,35.5,14.5,36.3,14.9,36.3z"/>
			<path class="st2" d="M16.3,37.9c0.6,0-0.9-1.9-1.5-1.9C14.3,36,15.8,37.9,16.3,37.9z"/>
			<path class="st2" d="M15.9,37c1,0-0.7-1.3-1.1-1.3C13.9,35.7,15.5,37,15.9,37z"/>
			<path class="st2" d="M14.7,36.4c0.2,0,0.4-0.5,0.4-0.5C14.9,35.9,14.7,36.4,14.7,36.4z"/>
			<path class="st2" d="M15.1,37.8c0.7,0,0-1.6-0.4-1.6C14,36.2,14.7,37.8,15.1,37.8z"/>
			<path class="st2" d="M14.5,37c0.4,0,0.6-0.5,0.2-0.5C14.3,36.5,14,37,14.5,37z"/>
		</g>
	</g>
</g>
<g>
	<g>
		<g>
			<path class="st3" d="M66.7,71.3c0,0.1,0,0.1-0.1,0.2c-0.4,0.7-1.6,1.7-2.9,0c0,0-0.1-0.2-0.1-0.2l0.1-5.2L64,43.5
				c0-1.9,0-3.7-0.2-5.4c-0.3-1.7-0.8-3.2-1.8-4.5c-1-1.3-2.3-2.3-3.8-3.1c-1.5-0.8-3.2-1.2-4.9-1.4c-3.5-0.5-7.2,0-10.9,0.3
				c-3.7,0.3-7.5,0.7-11.2,1.2c-7.5,0.9-14.9,2-22.3,3.2l-3.4,0.6l-2.4,0.4l-0.3,0c-0.1,0,0,0,0-0.1v-0.2l0-0.7l0-1.4l0-1.4l0-0.8
				c0-0.5,0.1-1,0.1-1.5c0.1-1,0.2-2,0.5-3c0.5-2,1.4-4,2.7-5.7c1.3-1.7,2.8-3,4.5-4.2c3.3-2.3,6.9-3.7,10.4-5.1
				C24.5,9.5,28,8.2,31.7,7C39,4.7,46.6,3.4,54.1,2.7l2.6-0.2l1.5-0.1c0,0,4.8,0,8.1,0.2c5.7,0.3,3.4,1.1,0,1.7c0.2,0-1.9,0.3-4,0.6
				s-4.3,0.6-4.3,0.6l-1.5,0.1l-0.7,0.1l-4,0.4c-7.3,0.8-14.5,2.2-21.3,4.6c-3.4,1.2-6.9,2.6-10.3,3.9c-3.4,1.4-6.7,2.9-9.3,5
				c-1.3,1.1-2.4,2.3-3.2,3.8c-0.8,1.4-1.3,3-1.5,4.7C6.1,29,6,29.8,5.9,30.7l0,0.4l0.1,0l3.9-0.7c7.3-1.2,14.7-2.3,22.1-3.1
				c3.7-0.4,7.4-0.8,11.1-1.1c3.7-0.3,7.5-0.7,11.5-0.1c2,0.3,3.9,1,5.7,2c1.8,1,3.4,2.4,4.6,4.2c1.2,1.8,1.8,3.9,2,5.9
				c0.2,2,0.2,3.9,0.2,5.8l-0.3,22.2L66.7,71.3z"/>
		</g>
	</g>
</g>
</svg>
