<?xml version="1.0" encoding="utf-8"?>
<!-- Generator: Adobe Illustrator 25.2.3, SVG Export Plug-In . SVG Version: 6.00 Build 0)  -->
<svg version="1.1" id="Layer_1" xmlns="http://www.w3.org/2000/svg" xmlns:xlink="http://www.w3.org/1999/xlink" x="0px" y="0px"
	 viewBox="0 0 75 75" style="enable-background:new 0 0 75 75;" xml:space="preserve">
<style type="text/css">
	.st0{fill:#D7D7D7;}
	.st1{fill:#D7D7D7;stroke:#000000;stroke-miterlimit:10;}
	.st2{fill:#E8E288;stroke:#000000;stroke-miterlimit:10;}
	.st3{fill:#202020;}
</style>
<path class="st0" d="M-81.09-25.51c0,0-38.03,1.83-53.79,22.38s-16.18,29.28-16.18,29.28s-1.13,5.35-1.27,7.88
	c-0.14,2.53,0,6.76,0,6.76h67.72l1.27-1.27L-81.09-25.51z"/>
<path class="st1" d="M32.75,72.25c-0.1-4.46-0.19-8.91-0.29-13.37c-0.01-0.55-0.02-1.1,0.11-1.63c0.32-1.28,1.45-2.24,2.69-2.7
	c1.24-0.46,2.59-0.51,3.91-0.55c0.9-0.03,1.91-0.02,2.54,0.63c0.9,0.92,0.45,2.43,0.27,3.7c-0.11,0.81-0.08,1.62-0.04,2.44
	c0.07,1.87,0.15,3.74,0.22,5.61c0.04,0.9,0.07,1.79,0.11,2.69c0.02,0.61,0.39,2.22,0.11,2.75C41.83,72.88,32.75,72.83,32.75,72.25z"
	/>
<g>
	<g>
		<path d="M31.83,72.77c-0.03-4.76,0.62-10.04-0.27-14.15c-1.2-5.53-4.48-1.92-6.79-2.53c-6.52-1.71-13.08-2.8-19.62-4.2
			c-1.86-0.4-4.2-0.74-4.2-5.13c0-3.19,0.78-7.17,1.97-9.44c5.13-9.81,11.49-16.4,18.12-22.09c4.01-3.44,7.89-7.48,12.03-10.24
			c2.06-1.37,4.84-1.78,6.8-0.34c7.38,5.41,14.73,11.18,21.76,18c3.91,3.79,7.37,9.51,10.66,15.12c2.89,4.93,1.97,11.41-1.85,12.68
			c-5.79,1.93-11.69,2.75-17.55,3.9c-2.64,0.52-5.32,0.4-7.93,1.15c-0.84,0.24-2.13,2.27-2.18,3.61c-0.16,4.52,0.15,9.09,0.28,13.64
			c-0.39,0-0.79,0-1.18,0c-0.11-2.18-0.26-4.35-0.34-6.53c-0.41-11.49-0.62-11.87-6.92-9.7c-0.7,0.24-1.66,2.33-1.72,3.68
			c-0.17,4.15,0.04,8.36,0.1,12.55C32.62,72.77,32.22,72.77,31.83,72.77z M17.2,22.35c-5.45,2.36-9.44,8.82-13.09,16.21
			c-0.22,0.42-0.45,0.84-0.67,1.26c-2.5,5.58-2.18,8.61,1.45,9.82c4.63,1.54,9.34,3,14.03,3.17c11.8,0.41,23.61,0.5,35.4-0.16
			c5.17-0.29,10.32-2.54,15.44-4.29c0.97-0.33,2.44-2.43,2.47-3.81c0.05-2.2-0.9-4.49-1.49-6.68c-0.08-0.29-0.76-0.42-0.8-0.29
			c-0.91,3.38-1.32,0.42-1.58-0.6c-0.22-0.84,0.23-2.45-0.04-3.05c-0.45-0.99-1.24-1.45-1.89-2.14c-0.3,6.31-1.31,0.82-1.83,0.27
			c-2.29-2.41-4.6-7.35-6.75-7.07c-4.55,0.59-6.34-6.16-9.47-9.1c1.71,0.76,3.17,2.47,4.73,3.75c0.8,0.65,1.78,0.52,2.68,0.74
			c-0.59-1.1-1.08-2.66-1.79-3.22c-3.88-3.03-7.75-6.23-11.76-8.57c-4.49-2.62-9.27-5.93-12.58,4.36c-0.07,0.23-0.37,0.39-0.53,0.31
			c-3.21-1.65-5.38,3.32-8.14,4.49c-0.65,0.28-1.54,1.5-1.67,2.56c-0.44,3.6-3.66,4.14-2.77,9.01c-2.85,4.45-5.7,8.9-8.55,13.35
			c-0.18-0.39-0.37-0.78-0.55-1.18c2.74-4.48,5.47-8.95,8.21-13.43c-0.17-0.36-0.34-0.71-0.5-1.07c-2.71,3.91-5.42,7.82-8.13,11.73
			c-0.24-0.62-0.49-1.23-0.73-1.85c3.66-4.9,7.31-9.8,10.97-14.71c-0.02-0.06-0.03-0.11-0.05-0.17
			C17.21,22.13,17.21,22.24,17.2,22.35z"/>
		<path d="M48.91,23c-1.4-2.27-2.81-4.54-4.4-7.12c3.16,0.77,7.14,7.21,7.79,11.89c0.15,1.05,0.77,1.92,1.22,2.78
			c0.68,1.3,1.5,2.4,2.09,3.83c0.43,1.04,0.58,2.48,0.86,3.73c-0.59-0.62-1.26-1.06-1.75-1.89c-1.89-3.22-3.76-6.47-5.52-9.92
			c-0.34-0.67-0.17-2.25-0.24-3.41c0.17,0.64,0.34,1.28,0.52,1.92c0.18,0.07,0.36,0.16,0.54,0.2c0.17,0.05,0.35,0.06,0.53,0.08
			c-0.34-0.07-0.68-0.14-1.02-0.22C49.31,24.25,49.11,23.63,48.91,23z"/>
		<path d="M26.54,16.85c-2.86,4.97-5.73,9.95-8.59,14.92c-0.18-0.27-0.36-0.53-0.53-0.8c0.69-1.58,1.46-3.05,2.04-4.75
			c0.7-2.04,3.07-2.49,1.82-6.43c1.61-1.45,3.21-2.89,4.82-4.34C26.24,15.91,26.39,16.38,26.54,16.85z"/>
		<path d="M59.84,29.33c3.34,2.88,5.99,7.49,8.4,12.65c0.25,0.53,0.15,1.62,0.21,2.46c-0.32-0.13-0.72-0.07-0.93-0.41
			c-2.36-3.73-4.68-7.55-7.05-11.26c-0.44-0.68-1.05-0.98-1.58-1.46C59.21,30.65,59.52,29.99,59.84,29.33z"/>
		<path d="M33.41,26.44c-1.06,7.15-2.12,14.3-3.18,21.45c-0.34-0.17-0.67-0.34-1.01-0.51c1.08-7.14,2.16-14.27,3.24-21.41
			C32.78,26.13,33.09,26.28,33.41,26.44z"/>
		<path d="M13.79,44.11c2.24-4.88,4.48-9.76,6.72-14.63c0.27,0.42,0.54,0.85,0.81,1.27c-2.24,4.9-4.49,9.79-6.73,14.69
			C14.32,44.99,14.05,44.55,13.79,44.11z"/>
		<path d="M41.44,11.8c1.85,4.34,3.72,8.66,5.53,13.07c0.23,0.57,0.15,1.61,0.21,2.43c-0.4-0.31-0.94-0.42-1.17-0.98
			c-1.76-4.45-3.46-8.99-5.18-13.51C41.03,12.47,41.23,12.13,41.44,11.8z"/>
		<path d="M35.4,31.15c-0.25,5.51-0.5,11.01-0.74,16.52c-0.32-0.04-0.64-0.08-0.96-0.11c0.2-5.48,0.41-10.97,0.61-16.45
			C34.66,31.12,35.03,31.13,35.4,31.15z"/>
		<path d="M37.81,13.53c0,4.58,0.02,9.16-0.02,13.74c-0.01,0.57-0.32,1.13-0.49,1.69c-0.21-0.66-0.6-1.32-0.6-1.99
			c-0.05-4.47-0.03-8.95-0.03-13.42C37.04,13.54,37.43,13.53,37.81,13.53z"/>
		<path d="M62.09,39.99c-2.54-3.86-5.08-7.73-7.62-11.59c0.2-0.46,0.4-0.92,0.6-1.37c2.52,3.91,5.03,7.83,7.55,11.74
			C62.44,39.17,62.27,39.58,62.09,39.99z"/>
		<path d="M52.46,48.53c-1.52-4.06-3.06-8.09-4.54-12.2c-0.17-0.47-0.03-1.33-0.03-2.01c0.25,0.05,0.63-0.07,0.72,0.18
			c1.57,4.33,3.1,8.7,4.64,13.07C52.99,47.89,52.73,48.21,52.46,48.53z"/>
		<path d="M37.74,33.97c0.14,4.27,0.28,8.53,0.42,12.8c-0.35,0.04-0.7,0.09-1.06,0.13c-0.15-4.25-0.29-8.49-0.44-12.74
			C37.02,34.1,37.38,34.03,37.74,33.97z"/>
		<path d="M43.8,31.67c-1.01-4.53-2.02-9.06-3.03-13.59c0.31-0.24,0.62-0.48,0.93-0.71c0.98,4.62,1.97,9.25,2.95,13.87
			C44.37,31.39,44.08,31.53,43.8,31.67z"/>
		<path d="M29.24,33.32c-0.39,3.48-0.75,6.98-1.21,10.43c-0.08,0.61-0.61,1.02-0.93,1.52c-0.09-0.67-0.33-1.42-0.25-2
			c0.53-3.43,1.13-6.81,1.7-10.22C28.78,33.14,29.01,33.23,29.24,33.32z"/>
		<path d="M29.19,16.68c-1.55,3.14-3.1,6.28-4.64,9.41c-0.23-0.4-0.45-0.79-0.68-1.19c1.57-3.12,3.15-6.23,4.72-9.35
			C28.79,15.93,28.99,16.31,29.19,16.68z"/>
		<path d="M29.23,23.57c-0.59,0.47-1.18,0.95-1.77,1.42c0.23-1.03,0.38-2.16,0.71-3.06c1-2.71,2.06-5.34,3.1-7.99
			c0.19,0.25,0.38,0.5,0.57,0.74C30.97,17.65,30.1,20.62,29.23,23.57C29.23,23.58,29.23,23.57,29.23,23.57z"/>
		<path d="M53.65,41.02c-1.43-2.99-2.87-5.97-4.3-8.96c0.29-0.48,0.58-0.95,0.86-1.43c1.42,2.99,2.84,5.99,4.26,8.98
			C54.19,40.08,53.92,40.55,53.65,41.02z"/>
		<path d="M39.85,40.83c-0.35-3.62-0.7-7.23-1.04-10.85c0.32-0.11,0.65-0.22,0.97-0.33c0.32,3.62,0.63,7.25,0.95,10.87
			C40.44,40.63,40.15,40.73,39.85,40.83z"/>
		<path d="M41.26,31.01c0.1-0.29,0.27-0.8,0.45-1.3c0.25,0.48,0.64,0.89,0.74,1.47c0.26,1.54,0.47,3.14,0.57,4.74
			c0.09,1.4,0.01,2.83,0,4.25c-0.4-1.33-0.9-2.59-1.17-4.01C41.56,34.65,41.48,33,41.26,31.01z"/>
		<path d="M45.47,35.01c0.92,3.02,1.83,6.04,2.75,9.07c-0.29,0.3-0.57,0.6-0.86,0.9c-0.91-2.96-1.81-5.93-2.72-8.89
			C44.92,35.73,45.19,35.37,45.47,35.01z"/>
		<path d="M29.23,23.58c-0.72,3.55-1.43,7.1-2.18,10.62c-0.04,0.17-0.45,0.05-0.69,0.06c0-0.66-0.13-1.47,0.02-1.97
			C27.29,29.35,28.27,26.47,29.23,23.58C29.23,23.57,29.23,23.58,29.23,23.58z"/>
		<path d="M40.54,24.85c-0.93-0.76-1.08-0.81-1.09-0.9c-0.22-2.62-0.43-5.25-0.61-7.89c0-0.04,0.33-0.16,0.5-0.24
			C39.7,18.53,40.06,21.24,40.54,24.85z"/>
		<path d="M25.48,30.06c-0.79,2.42-1.58,4.83-2.37,7.25c-0.28-0.32-0.56-0.64-0.84-0.96c0.83-2.36,1.67-4.72,2.5-7.08
			C25.01,29.53,25.25,29.8,25.48,30.06z"/>
		<path d="M34,26.57c0.29-2.91,0.59-5.83,0.88-8.74c0.24,0.07,0.48,0.13,0.72,0.2c-0.21,2.94-0.43,5.88-0.64,8.82
			C34.63,26.75,34.32,26.66,34,26.57z"/>
		<path d="M31.45,23.11c0.67-2.74,1.34-5.49,2.01-8.23c0.23,0.19,0.46,0.38,0.69,0.57c-0.67,2.74-1.34,5.49-2.01,8.23
			C31.92,23.49,31.69,23.3,31.45,23.11z"/>
		<path d="M20.51,39.58c-0.72,2-1.45,4-2.17,6c-0.24-0.3-0.48-0.6-0.72-0.9c0.7-2.07,1.4-4.13,2.1-6.2
			C19.99,38.84,20.25,39.21,20.51,39.58z"/>
		<path d="M59.89,45.61c-0.1-0.04-0.24-0.01-0.28-0.12c-0.62-1.53-1.22-3.07-1.83-4.61c0.21-0.25,0.57-0.75,0.59-0.7
			c0.71,1.51,1.4,3.08,2.08,4.64C60.27,45.08,60.08,45.34,59.89,45.61z"/>
		<path d="M25.16,42.11c-0.3,1.92-0.61,3.84-0.91,5.76c-0.28-0.15-0.56-0.31-0.84-0.46c0.32-1.94,0.64-3.89,0.95-5.83
			C24.63,41.75,24.9,41.93,25.16,42.11z"/>
		<path d="M14.43,37.86c-0.52,1.19-1.04,2.38-1.56,3.57c-0.13-0.12-0.26-0.24-0.39-0.36c0.16-0.79,0.24-1.66,0.49-2.33
			c0.25-0.68,0.66-1.15,1-1.71C14.12,37.31,14.28,37.59,14.43,37.86z"/>
		<path d="M3.41,39.68c0.2-0.39,0.41-0.77,0.61-1.16c0.15,1.03,0.41,2.07,0.39,3.09c-0.01,0.38-0.67,0.72-1.03,1.07
			C3.39,41.68,3.4,40.68,3.41,39.68z"/>
		<path d="M63.74,45.53c-0.31-0.87-0.59-1.69-0.88-2.5c0.27-0.25,0.72-0.81,0.79-0.68c0.37,0.71,0.66,1.59,0.97,2.42
			C64.38,44.96,64.14,45.18,63.74,45.53z"/>
		<path d="M41.36,47c-0.32,0.32-0.56,0.55-0.79,0.79c-0.15-0.77-0.34-1.53-0.41-2.33c-0.03-0.33,0.23-0.73,0.36-1.11
			C40.74,45.08,40.97,45.79,41.36,47z"/>
		<path d="M43.8,47.04c-0.2-1.12-0.4-2.25-0.59-3.37c0.34,0.44,0.75,0.79,1,1.37c0.14,0.31,0.02,1.01,0.02,1.54
			C44.08,46.73,43.94,46.88,43.8,47.04z"/>
		<path d="M32.27,45.33c0.19,0.78,0.39,1.24,0.38,1.7c0,0.47-0.21,0.94-0.33,1.4c-0.15-0.5-0.38-0.98-0.42-1.5
			C31.88,46.54,32.09,46.07,32.27,45.33z"/>
		<path d="M55.29,42.67c0.15,0.94,0.31,1.55,0.3,2.14c0,0.31-0.31,0.61-0.49,0.91c-0.16-0.57-0.4-1.11-0.46-1.71
			C54.63,43.73,54.96,43.34,55.29,42.67z"/>
		<path d="M33.67,11.74c-0.33,0.37-0.61,0.69-0.89,1.02c-0.09-0.45-0.33-1.05-0.25-1.32c0.15-0.52,0.48-0.85,0.74-1.25
			C33.37,10.61,33.48,11.04,33.67,11.74z"/>
		<path d="M20.94,47.05c-0.14-0.24-0.36-0.52-0.34-0.61c0.1-0.45,0.26-0.85,0.41-1.26c0.14,0.22,0.43,0.58,0.41,0.64
			C21.3,46.27,21.11,46.65,20.94,47.05z"/>
		<path d="M10.3,45.89c-0.14-0.39-0.35-0.81-0.31-0.88c0.15-0.36,0.36-0.67,0.58-0.91c0.03-0.03,0.32,0.56,0.3,0.61
			C10.71,45.12,10.51,45.48,10.3,45.89z"/>
	</g>
</g>
<path class="st2" d="M60.22,24.75l-5.26-6.57c-0.21-0.21-2.92-3.3-3.17-3.46L42.35,8.5c-1.51-0.99-1.91-2.3-3.72-2.34l-4.88-0.75
	c-1.23-0.02-4.12,5.41-4.97,6.29l-3.34,1.5c-0.06,0.07-0.13,0.13-0.2,0.19l-9.76,8.86c-0.08,0.08-0.16,0.15-0.24,0.24l-6.02,6.36
	c-0.23,0.24-0.43,0.51-0.6,0.79l-4.37,7.38c-0.13,0.21-0.23,0.44-0.32,0.67L2.4,41.66c-0.13,0.33-0.21,0.68-0.26,1.03l-0.33,2.59
	c-0.1,0.8,0.02,1.62,0.34,2.35l0,0c0.56,1.27,1.68,2.2,3.03,2.53l12.66,3.02c0.37,0.09,12.72,0.48,13.09,0.47l18.4-0.2
	c0.22,0,0.44-0.03,0.66-0.06l16.58-2.82c1.03-0.17,1.96-0.71,2.64-1.5l2-1.61c0.89-1.04,1.51-3.5,1.23-4.84l-0.7-3.34
	c-0.1-0.48-0.28-0.95-0.54-1.37l-4.29-7.17c-0.1-0.16-0.2-0.31-0.31-0.46l-3.01-3.1C63.49,27.04,60.35,24.87,60.22,24.75z"/>
<g>
	<g>
		<g>
			<path class="st3" d="M43.89,18.91c0.54,0.38,0.81,0.63,1.34,0.82c0.04,0.01,0.08,0.03,0.13,0.05c0.01,0,0,0,0,0l0,0
				c0,0,0.01-0.01,0,0l-0.17,0.07c-0.1,0.04-0.2,0.08-0.3,0.11c-0.82,0.26-1.68,0.26-1.68,0.26s-0.21,0-0.55,0.01
				c-0.17,0-0.37,0-0.59-0.01c-0.3-0.01-0.16-0.01-0.19-0.01l0,0c0-0.01-0.01,0.04,0.02-0.06c0.05-0.13,0.17-0.33,0.27-0.46
				c0.1-0.13,0.15-0.15,0.17-0.16c0.03-0.01,0.09-0.02,0.14-0.02c0.2,0.01,0.48,0.04,0.77,0c0.28-0.04,0.68-0.2,0.79-0.53
				c-0.34,0-0.45-0.2-0.64-0.32c-0.19-0.13-0.39-0.27-0.85-0.32c-0.12-0.01-0.34-0.02-0.62,0.08c-0.29,0.09-0.55,0.34-0.71,0.56
				c-0.15,0.22-0.29,0.42-0.43,0.74c-0.05,0.13-0.13,0.42-0.12,0.65c0.02,0.24,0.1,0.47,0.27,0.64c0.28,0.38,0.97,0.38,1.09,0.37
				c0.22,0,0.43,0,0.61,0c0.36-0.01,0.59-0.01,0.59-0.01s0.23-0.01,0.6-0.04c0.37-0.03,0.87-0.1,1.4-0.27
				c0.13-0.04,0.26-0.09,0.39-0.14l0.19-0.08l0.3-0.16c0.43-0.22,0.65-0.6,0.62-0.99c-0.03-0.38-0.28-0.66-0.55-0.83
				c-0.13-0.09-0.28-0.14-0.39-0.19c-0.07-0.03-0.13-0.05-0.18-0.07C44.93,18.4,44.44,18.55,43.89,18.91z"/>
		</g>
	</g>
</g>
<g>
	<g>
		<g>
			<path class="st3" d="M55.45,28.29c-0.41-0.65-0.82-1.19-1.45-1.61c-0.32-0.2-0.7-0.37-1.16-0.42c-0.46-0.06-0.96,0.04-1.41,0.18
				c-0.29,0.1-0.76,0.25-1.75,0.58c-0.14,0.05-0.36,0.11-0.64,0.3c-0.27,0.17-0.57,0.59-0.55,0.99c-0.01,0.21,0.06,0.45,0.2,0.63
				c0.14,0.19,0.32,0.28,0.43,0.33c0.23,0.09,0.3,0.08,0.31,0.09c0,0,1.13,0.25,1.76,0.33c1.4,0.2,2.27,0.21,2.73,0.22
				c0.46,0.01,0.87-0.01,1.26-0.05c0.4-0.04,0.82-0.12,1.2-0.38c0.19-0.15,0.34-0.26,0.47-0.57c0.08-0.14,0.02-0.49-0.15-0.59
				c-0.15-0.1-0.24-0.1-0.33-0.13c-0.36-0.07-0.75-0.07-1.12,0.02c0.37,0.1,0.68,0.26,0.93,0.44c0.08,0.03,0.11,0.13,0.14,0.08
				c0.12-0.12,0.08-0.01-0.08-0.09c-0.07-0.04-0.17,0.08-0.27,0.09c-0.4,0.11-1.15,0.01-2.02,0.01c-0.43-0.02-1.26-0.03-2.59-0.22
				c-0.6-0.08-1.67-0.3-1.67-0.3c0,0-0.09-0.02-0.11-0.03c0,0.03-0.16,0.24-0.12,0.18c0-0.01,0.09-0.04,0.17-0.04
				c0.1-0.01,0,0,0.1-0.05c0.07-0.05,0.21-0.11,0.34-0.15c0.97-0.33,1.44-0.48,1.72-0.58c0.8-0.28,1.25-0.26,1.85-0.1
				C54.21,27.63,54.78,27.91,55.45,28.29z"/>
		</g>
	</g>
</g>
<g>
	<g>
		<g>
			<path class="st3" d="M47.19,14.97c0.16,0.11,0.32,0.21,0.54,0.24c0.21,0.05,0.54-0.13,0.58-0.44c0.04-0.28-0.09-0.54-0.29-0.71
				c-0.19-0.16-0.4-0.24-0.56-0.3c-0.64-0.24-1.33-0.44-2.22-0.6c-0.3-0.05-0.8-0.14-1.83-0.28c-0.22-0.03-0.74-0.09-0.74-0.09
				s-0.5-0.05-0.77-0.08c-0.47-0.05-0.79,0.17-0.79,0.17c-0.46,0.3-0.54,0.86-0.4,1.26c0.12,0.42,0.48,0.7,0.8,0.83
				c0.47,0.19,0.71,0.19,0.9,0.24c1.83,0.32,2.92,0.16,4.41-0.25c-1.51-0.34-2.48-0.58-4.19-0.9c-0.17-0.04-0.45-0.08-0.65-0.16
				c-0.01,0,0,0,0,0l0,0c0.2,0.02,0.57,0.06,0.57,0.06s0.51,0.06,0.72,0.09c1.01,0.13,1.49,0.22,1.79,0.27
				c0.87,0.15,1.57,0.24,2.23,0.29c0.33,0.02,0.46,0.02,0.54,0.16c0.04,0.04,0.04,0.14-0.1,0.2C47.57,14.99,47.38,14.99,47.19,14.97
				z"/>
		</g>
	</g>
</g>
<g>
	<g>
		<g>
			<path class="st3" d="M52.99,19.6c0.29,0.16,0.52,0.32,0.71,0.44c0.05,0.11-0.01,0.15-0.02,0.15c-0.01,0-0.02-0.01,0,0
				c0.11-0.01-0.25,0.02-0.45,0.03c-0.22,0.01-0.42,0.02-0.59,0.02c-0.34,0-0.56,0-0.56,0s-0.22-0.01-0.6-0.03
				c-0.14-0.01-0.07,0-0.09-0.01l0,0l0.01,0c0.02,0,0,0.01-0.01,0c0.01-0.01-0.12-0.03,0.03-0.17c0.22-0.15,0.42-0.35,0.65-0.6
				c-0.32-0.12-0.58-0.2-0.85-0.24c-0.34-0.02-1,0.07-1.62,0.23c-0.16,0.05-0.36,0.14-0.5,0.24c-0.14,0.1-0.24,0.2-0.32,0.34
				c-0.09,0.12-0.14,0.39-0.16,0.59c-0.02,0.13-0.04,0.25-0.05,0.36c0.55,0.11,1.05,0.21,1.57,0.28c0.26,0.03,0.49,0.07,0.73,0.08
				c0.2,0.02,0.39,0.03,0.56,0.04c0.41,0.02,0.65,0.02,0.65,0.02s0.24,0,0.61,0c0.18-0.01,0.4-0.01,0.64-0.02
				c0.25-0.02,0.4-0.01,1-0.09c0.25-0.03,0.5-0.06,0.71-0.11l0.33-0.07c0.07-0.04,0.12-0.08,0.18-0.11c0.27-0.15,0.35-0.29,0.42-0.6
				c0.02-0.33-0.07-0.44-0.17-0.6c-0.11-0.15-0.3-0.25-0.43-0.32c-0.48-0.25-1.07-0.35-1.51-0.3C53.52,19.25,53.27,19.39,52.99,19.6
				z"/>
		</g>
	</g>
</g>
<g>
	<g>
		<g>
			<path class="st3" d="M33,15.94c-0.52-0.43-0.9-0.66-1.59-0.69c-0.14,0-0.4-0.01-0.71-0.01c-0.27,0.01-0.57,0.01-0.87,0.02
				c-0.33,0.02-0.67,0.03-1.01,0.05c0.15,0.48,0.19,0.99,0.54,1.47c0.15,0.23,0.42,0.48,0.58,0.6c0.14,0.11,0.29,0.2,0.43,0.27
				c0.55,0.28,0.94,0.33,0.94,0.33s0.25,0.06,0.64,0.1c0.38,0.04,0.9,0.08,1.49-0.02c0.29-0.05,0.6-0.14,0.88-0.28
				c0.11-0.05,0.37-0.21,0.53-0.36c0.19-0.15,0.29-0.32,0.33-0.52c0.08-0.41-0.15-0.74-0.4-0.97c-0.15-0.14-0.18-0.17-0.25-0.23
				c-0.06-0.05-0.12-0.09-0.16-0.12c-0.66-0.45-1.23-0.41-1.83-0.11c0.5,0.45,0.69,0.75,1.14,1.06c0.03,0.02,0.06,0.05,0.11,0.09
				c0.03,0.03,0.11,0.1,0.09,0.08l0,0l0,0c-0.01,0,0.04-0.02-0.08,0.04c-0.16,0.08-0.35,0.14-0.55,0.17
				c-0.4,0.07-0.84,0.05-1.16,0.02c-0.32-0.03-0.51-0.08-0.51-0.08s-0.3-0.05-0.65-0.23c-0.09-0.05-0.17-0.1-0.26-0.16
				c-0.07-0.05-0.03-0.02-0.04-0.03l0,0.01l0,0c0.01,0-0.03,0,0.09,0c0.29,0,0.53,0,0.67,0.01C32.03,16.43,32.41,16.26,33,15.94z"/>
		</g>
	</g>
</g>
<g>
	<g>
		<g>
			<path class="st3" d="M39.78,26.76c-0.77,0.03-1.4-0.03-2.06-0.07c-0.65-0.05-1.42,0.02-1.9-0.25c-0.06-0.04-0.16-0.11-0.24-0.24
				c-0.09-0.14-0.1-0.32-0.04-0.37l0,0c-0.05,0,0.16-0.01,0.33,0c0.16,0.01,0.27,0.01,0.27,0.01s0.63,0.04,0.97,0.06
				c1.35,0.1,2.18,0.23,2.61,0.29c0.39,0.05,0.75,0.1,1.19,0.16c0.09,0.01,0.17,0.02,0.27,0.03l0.13,0.01l0.03,0l0.02,0l0.01,0l0,0
				c-0.22-1.9-0.06-0.53-0.11-0.95l0,0l0,0l-0.05,0.03c-0.13,0.07-0.26,0.15-0.42,0.23c-0.56,0.29-1.12,0.56-1.87,0.77
				c0.76,0.17,1.45,0.18,2.15,0.05c0.18-0.03,0.35-0.08,0.53-0.14l0.07-0.02l0,0l0,0c-0.05-0.42,0.11,0.95-0.11-0.95l0,0l-0.01,0
				l-0.02,0l-0.03-0.01l-0.13-0.04c-0.09-0.03-0.18-0.05-0.27-0.07c-0.37-0.09-0.77-0.18-1.22-0.25c-0.45-0.07-1.3-0.2-2.7-0.3
				c-0.36-0.02-1.01-0.06-1.01-0.06s-0.11-0.01-0.28-0.01c-0.15,0.01-0.36-0.06-0.78,0.07c-0.15,0.05-0.31,0.16-0.42,0.27
				c-0.34,0.35-0.41,0.77-0.38,1.09c0.03,0.32,0.14,0.55,0.25,0.73c0.23,0.36,0.47,0.53,0.67,0.64c0.56,0.3,1.07,0.29,1.48,0.27
				c0.41-0.04,0.74-0.11,1.08-0.19C38.48,27.38,39.11,27.14,39.78,26.76z"/>
		</g>
	</g>
</g>
<g>
	<g>
		<g>
			<path class="st3" d="M29.21,21.31c-0.33-0.36-1.05-0.16-1.19,0.5c-0.04,0.22-0.01,0.46,0.09,0.67c0.09,0.23,0.42,0.64,0.89,0.82
				c0.47,0.2,0.9,0.24,1.32,0.32c0.21,0.04,0.42,0.07,0.61,0.1c0.2,0.02,0.31,0.08,0.67,0.06c0.29-0.03,0.52-0.2,0.6-0.26
				c0.09-0.07,0.14-0.11,0.14-0.11s0.37-0.3,1.57-1.29c-0.65-0.23-2.88-1.02-3.46-1.22c-0.54-0.18-0.91-0.1-1.45,0.11
				c0.34,0.51,0.57,0.81,1.08,1c0.2,0.07,0.7,0.25,1.2,0.43c0.09,0.03,0.19,0.07,0.28,0.1l0.01,0l0,0c0,0,0,0.01,0,0.01
				s-0.02,0.02-0.07,0.05c-0.06,0.04-0.03,0.02-0.04,0.02c0.06,0.01-0.17-0.02-0.34-0.05c-0.18-0.03-0.38-0.07-0.58-0.1
				c-0.4-0.07-0.85-0.14-1.06-0.24c-0.23-0.1-0.28-0.21-0.31-0.25c-0.02-0.04-0.04-0.07-0.07-0.08
				C29.04,21.9,28.85,21.55,29.21,21.31z"/>
		</g>
	</g>
</g>
<g>
	<g>
		<g>
			<path class="st3" d="M24.28,17.92c-0.56-0.36-0.93-0.55-1.58-0.54c-0.18,0.01-0.55,0.02-0.99,0.03
				c-0.13,0.01-0.34,0.03-0.56,0.15c-0.21,0.11-0.38,0.29-0.49,0.5c-0.1,0.2-0.13,0.39-0.15,0.55c-0.02,0.18-0.02,0.27,0,0.56
				c0,0.49,0.38,0.86,0.79,0.87c0.1,0.02,0.19,0.03,0.28,0.04l0.16,0.02c0.1,0.01,0.2,0.02,0.29,0.03c0.36,0.02,0.59,0.04,0.59,0.04
				s0.58,0.04,1.32,0.01c0.18-0.01,0.37-0.02,0.57-0.03l0.29-0.03l0.42-0.05c0.37-0.04,0.7-0.13,0.91-0.25
				c0.19-0.13,0.31-0.3,0.37-0.51c0.1-0.7-0.31-0.9-0.52-1.07c-0.13-0.08-0.28-0.15-0.41-0.21c-0.06-0.03-0.13-0.06-0.19-0.09
				c-0.05-0.02-0.07-0.03-0.11-0.04c-0.13-0.04-0.26-0.07-0.39-0.08c-0.26-0.03-0.53-0.01-0.86,0.03c0.15,0.29,0.29,0.53,0.45,0.73
				c0.08,0.1,0.18,0.19,0.28,0.28l0.07,0.06l0,0.01c0,0.01-0.01,0.01-0.01,0.01l-0.01,0l0.01,0l-0.4,0.04
				c-0.18,0.01-0.36,0.02-0.52,0.03c-0.67,0.03-1.21,0-1.21,0s-0.21-0.02-0.54-0.04c-0.13-0.01-0.28-0.03-0.45-0.05
				c-0.04-0.01-0.01,0-0.02,0c0,0.05,0-0.11,0.01-0.18c0.01-0.08,0.03-0.13,0.04-0.15c0.03,0-0.08,0.01,0.09-0.01
				c0.42-0.02,0.76-0.03,0.93-0.03C23.38,18.53,23.74,18.31,24.28,17.92z"/>
		</g>
	</g>
</g>
<g>
	<g>
		<g>
			<path class="st3" d="M18.93,24.93c-0.77-0.1-1.33-0.36-2.05-0.45c-0.36-0.04-0.77-0.04-1.22,0.09c-0.22,0.07-0.43,0.17-0.64,0.3
				c-0.1,0.06-0.2,0.13-0.29,0.2c-0.12,0.09-0.32,0.26-0.48,0.39c-0.16,0.17-0.53,0.36-0.47,0.98c0.03,0.18,0.13,0.37,0.31,0.51
				c0.17,0.14,0.48,0.26,1.07,0.24c0.4,0,1.35,0.01,1.35,0.01s0.73,0.01,1.13,0.02c0.34,0,0.65,0.01,0.93,0.01
				c0.27,0.01,0.61-0.03,0.86-0.05c0.57-0.06,0.9-0.31,1.09-0.39c0.23-0.12,0.44-0.24,0.67-0.36c0.34-0.18,0.73-0.37,0.82-0.57
				c0.05-0.1,0.08-0.17,0.1-0.28c0.02-0.11,0-0.25-0.05-0.36c-0.1-0.21-0.28-0.35-0.5-0.44c-0.22-0.1-0.53-0.13-0.8-0.15
				c-0.26-0.02-0.36-0.01-0.55-0.02c-0.32,0.01-0.68,0.01-1.08,0.02c0.37,0.17,0.69,0.33,0.98,0.46c0.14,0.07,0.36,0.15,0.42,0.19
				c0.06,0.04,0.09,0.08,0.1,0.11c0.04,0.05-0.03,0.14-0.12,0.13c-0.03,0-0.05,0-0.06,0c-0.01,0.01,0.02-0.02-0.03,0.01l-0.14,0.07
				l-0.29,0.15c-0.21,0.09-0.43,0.26-0.75,0.27c-0.19,0-0.35,0.03-0.64,0.03c-0.28,0-0.59-0.01-0.93-0.01
				c-0.4,0-1.13-0.01-1.13-0.01s-0.78-0.01-1.11-0.02l0,0l0,0c0.01-0.01-0.03,0.02,0.02-0.02l0.21-0.16
				c0.14-0.1,0.27-0.18,0.39-0.24c0.25-0.12,0.54-0.2,0.84-0.25C17.49,25.22,18.2,25.21,18.93,24.93z"/>
		</g>
	</g>
</g>
<g>
	<g>
		<g>
			<path class="st3" d="M36.2,12.45c-0.29-0.37-0.48-0.58-0.82-0.58c-0.19,0-0.74,0-1.25,0l-0.08,0l-0.02,0c0,0,0-0.01,0,0.01
				l-0.01,0.1c-0.04,0.22-0.08,0.25-0.09,0.27c-0.02-0.01,0.16-0.02,0.14,0c0,0-0.02-0.01-0.04-0.03l-0.01-0.01l0.09,0.1
				c0,0,0.01,0.01,0.01,0.01l0.02,0.03c0.03,0.06,0.06,0.12,0.05,0.1c-0.34,0,1.86-0.14,1.67,0c0.01,0,0.07-0.02,0.17-0.02
				c0.1,0,0.28,0.02,0.39,0.23c0.24-0.04,0.41-0.29,0.42-0.52c0.02-0.24-0.08-0.49-0.36-0.68c-0.13-0.09-0.43-0.22-0.72-0.24
				c-0.3-0.04-0.56-0.01-0.83,0c-0.27,0.01-0.53,0.03-0.72,0.04c-0.2,0.01-0.44,0.1-0.44,0.1c0.02,0.02-0.26,0-0.54,0.48
				c-0.09,0.19-0.2,0.57,0.12,0.95c0.36,0.34,0.68,0.25,0.77,0.27c0.51,0,1.06,0,1.25,0C35.72,13.03,35.91,12.82,36.2,12.45z"/>
		</g>
	</g>
</g>
<g>
	<g>
		<g>
			<path class="st3" d="M44.63,31.64c-0.29-0.36-0.46-0.56-0.66-0.61c-0.06-0.02-0.16-0.04-0.22-0.09
				c-0.08-0.05-0.13-0.14-0.12-0.14c-0.05,0.01,0.14-0.15,0.14-0.13c0,0,0.13-0.09,0.53,0c0.59,0.17,0.35,0.11,0.41,0.12
				c0.01,0.21,0.21,0.48,0.59,0.72c0.37-0.3,0.57-0.4,0.58-0.84c0-0.17-0.03-0.55-0.39-0.8c-0.15-0.12-0.46-0.21-0.53-0.23
				c-0.12-0.04-0.25-0.08-0.4-0.11c-0.28-0.07-0.61-0.09-0.86-0.05c-0.27,0.04-0.42,0.13-0.42,0.13s-0.16,0.06-0.38,0.24
				c-0.21,0.16-0.5,0.56-0.45,1.06c0.13,1.01,1.1,1.26,1.28,1.28C44.18,32.24,44.38,32.01,44.63,31.64z"/>
		</g>
	</g>
</g>
<g>
	<g>
		<g>
			<path class="st3" d="M24,27.48c0.49,0.38,0.2,0.58,0.3,0.59c0.05,0,0.17,0.01,0.29,0.01c0.12,0,0.27,0,0.24,0l0.01,0l-0.01,0
				c-0.01-0.01,0.05,0.02-0.02-0.01c-0.19-0.09-0.33-0.15-0.49-0.2c-0.15-0.06-0.36-0.11-0.5-0.4c-0.24,0.21-0.3,0.59-0.2,0.89
				c0.1,0.31,0.32,0.57,0.66,0.75c0.2,0.13,0.92,0.34,1.56,0.33c0.65,0,1.34-0.1,1.91-0.24c0.55-0.15,0.8-0.33,1-0.51
				c0.19-0.17,0.28-0.34,0.28-0.34s0.02-0.02,0.06-0.12c0.04-0.09,0.16-0.29,0.08-0.64c-0.07-0.1,0.07-0.19-0.36-0.2
				c-0.33-0.03-0.72-0.07-1.13-0.12c-0.8-0.08-1.62-0.16-1.94-0.19C24.98,27,24.49,27.12,24,27.48z"/>
		</g>
	</g>
</g>
<g>
	<g>
		<g>
			<path class="st3" d="M10.47,32.51c1.43,0.59,2.47,0.9,4.31,0.91c0.16,0,0.36-0.01,0.66-0.01c0.15-0.01,0.33-0.01,0.53-0.02
				c0.4,0,0.85-0.07,1.09-0.45c0.1-0.14,0.15-0.4,0.1-0.66c-0.06-0.25-0.16-0.46-0.16-0.46c0.01,0.02-0.1-0.21-0.18-0.32
				c-0.09-0.13-0.22-0.28-0.31-0.37c-0.64-0.61-1.34-0.78-1.83-0.85c-0.5-0.07-0.85-0.06-1.08-0.06c-0.92,0.03-1.68,0.14-2.36,0.43
				c-0.33,0.15-0.66,0.31-0.94,0.6c-0.26,0.26-0.51,0.73-0.27,1.09c-0.03-0.4,0.3-0.58,0.56-0.69c0.26-0.1,0.57-0.14,0.88-0.18
				c0.61-0.07,1.27-0.07,2.14-0.09c0.21,0,0.51,0,0.89,0.05c0.37,0.06,0.81,0.18,1.18,0.53c0.06,0.05,0.12,0.13,0.17,0.2
				c0.06,0.09,0.03,0.04,0.04,0.05l0,0l0,0c-0.19,0.01-0.35,0.01-0.48,0.02c-0.28,0.01-0.48,0.01-0.63,0.01
				C13.01,32.26,12.01,32.37,10.47,32.51z"/>
		</g>
	</g>
</g>
<g>
	<g>
		<g>
			<path class="st3" d="M29.91,33.18c0.25,0.44,0.63,0.7,1.19,0.61l0.36-0.06l0.08-0.4c0.01-0.04,0.02-0.1,0.02-0.16
				c0.03-0.26-0.1-0.76-0.47-1.08c-0.39-0.36-0.93-0.46-1.32-0.49c-0.38-0.03-0.72-0.04-1-0.04c-0.28,0-0.46,0.02-0.46,0.02
				c0.02,0.03-0.79-0.03-1.58,0.59c-0.07,0.08-0.29,0.19-0.36,0.61c-0.02,0.19,0.06,0.42,0.17,0.55c0.11,0.13,0.22,0.2,0.31,0.24
				c0.38,0.16,0.51,0.1,0.68,0.13c0.33,0.03,0.59,0.05,0.73,0.06c0.49,0.03,0.79-0.15,1.2-0.49c-0.39-0.41-0.64-0.63-1.1-0.68
				c-0.13-0.01-0.37-0.03-0.68-0.06c-0.08-0.01-0.16-0.01-0.24-0.02c-0.05,0-0.07-0.01-0.08-0.01c-0.02,0.01,0.01-0.05-0.06,0.11
				c-0.1,0.23-0.23,0.26-0.18,0.24c0.01,0,0.08,0.02,0.18,0.1l0.09,0.08c0.04,0.03,0.08,0.08,0.07,0.06l0.02-0.02
				c0.34-0.3,0.93-0.33,0.93-0.33s0.14-0.01,0.36-0.02c0.22,0,0.56,0.01,0.89,0.04c0.68,0.02,0.74,0.37,0.72,0.34l0,0l0.43-0.45
				C30.54,32.75,30.37,32.95,29.91,33.18z"/>
		</g>
	</g>
</g>
<g>
	<g>
		<g>
			<path class="st3" d="M62.66,30.61c-0.51-0.31-0.85-0.46-1.39-0.39c-0.19,0.03-0.64,0.09-1.11,0.15c-0.23,0.03-0.47,0.07-0.68,0.1
				c-0.1,0.01-0.23,0.03-0.36,0.07c-0.16,0.04-0.32,0.12-0.43,0.2c-0.36,0.26-0.46,0.7-0.45,0.97c0.01,0.27,0.08,0.46,0.15,0.61
				c0.16,0.3,0.25,0.36,0.25,0.37c0,0,0.18,0.23,0.54,0.42c0.36,0.2,0.87,0.32,1.41,0.25c0.53-0.06,1-0.28,1.35-0.48
				c0.18-0.1,0.33-0.2,0.45-0.28c0.08-0.05,0.34-0.23,0.42-0.32c0.1-0.1,0.16-0.2,0.2-0.3c0.15-0.39-0.03-0.75-0.29-0.92
				c-0.13-0.09-0.28-0.14-0.42-0.16c-0.13-0.01-0.25,0.01-0.38,0.04c0.3,0.51-0.02,0.65-0.07,0.62c-0.01,0-0.01-0.01-0.01-0.01
				c0.09-0.06-0.2,0.14-0.48,0.3c-0.28,0.16-0.61,0.3-0.9,0.33c-0.29,0.04-0.57-0.03-0.72-0.12c-0.16-0.08-0.21-0.16-0.21-0.16
				c0.01,0.01-0.05-0.05-0.07-0.1c-0.02-0.03-0.03-0.09-0.03-0.13c0-0.03,0-0.01,0-0.01c0.47-0.07,1.68-0.25,2.02-0.3
				C61.97,31.29,62.25,31.05,62.66,30.61z"/>
		</g>
	</g>
</g>
<g>
	<g>
		<g>
			<path class="st3" d="M66.89,39.09c-0.36-0.41-0.62-0.64-1.1-0.7c-0.11-0.01-0.32-0.03-0.57-0.06c-0.26-0.02-0.72-0.03-1.13,0.21
				c-0.17,0.09-0.41,0.3-0.56,0.51c-0.16,0.21-0.27,0.41-0.37,0.6c-0.19,0.37-0.33,0.65-0.39,0.76c0.82,0.19,0.95,0.22,0.95,0.22
				s0.08,0.02,0.22,0.04c0.13,0.03,0.37,0.06,0.57,0.09c0.27,0.03,0.64,0.06,1.03,0.05c0.19,0,0.39-0.01,0.59-0.03
				c0.1-0.01,0.19-0.02,0.28-0.03c0.1-0.01,0.31-0.05,0.45-0.08c0.62-0.15,0.74-0.73,0.69-0.94c-0.03-0.22-0.14-0.46-0.2-0.57
				c-0.06-0.1-0.14-0.18-0.22-0.25c-0.17-0.14-0.38-0.24-0.65-0.32c-0.06,0.27-0.12,0.47-0.14,0.66c-0.01,0.09-0.02,0.18-0.01,0.28
				c0,0.08-0.03,0.04-0.03,0.05l0,0c-0.02,0,0.04-0.01-0.04,0c-0.08,0.01-0.16,0.02-0.24,0.03c-0.16,0.01-0.33,0.03-0.5,0.03
				c-0.33,0.01-0.65-0.01-0.88-0.04c-0.05,0-0.02,0-0.03,0l0,0l0,0l0,0c0,0-0.02,0.01,0.06-0.04c0.12-0.13,0.78-0.02,1-0.01
				C66.15,39.6,66.45,39.42,66.89,39.09z"/>
		</g>
	</g>
</g>
<g>
	<g>
		<g>
			<path class="st3" d="M51.49,35.16c-0.38-0.05-0.68-0.21-1.08-0.25c-0.19-0.02-0.44,0.01-0.63,0.1c-0.22,0.1-0.45,0.31-0.56,0.57
				c-0.11,0.26-0.09,0.58,0.08,0.84c0.14,0.26,0.52,0.45,0.78,0.51c0.5,0.12,0.84,0.08,1.31,0.1c0.31,0,0.81,0,1.86,0
				c0.17,0,0.58-0.01,0.58-0.01s0.34,0,0.53,0c0.17,0,0.34,0,0.5,0c0.17,0,0.28,0,0.59-0.07c0.56-0.13,0.87-0.59,0.87-1.01
				c0.01-0.42-0.21-0.78-0.45-0.99c-0.23-0.19-0.4-0.25-0.55-0.31c-1-0.29-1.69-0.3-2.4-0.27c-0.7,0.05-1.35,0.2-2.08,0.45
				c0.77,0.12,1.38,0.26,2.01,0.41c0.61,0.15,1.34,0.3,2.06,0.51c0.07,0.02,0.15,0.07,0.17,0.09l0,0l0,0
				c0.03-0.01-0.15,0.03-0.29,0.02c-0.15,0-0.31,0-0.48,0c-0.18,0-0.51,0.01-0.51,0.01s-0.4,0-0.56,0c-1.01,0.01-1.5,0.01-1.8,0.01
				c-0.42-0.01-0.89,0.04-1.12,0.01c-0.11,0-0.16,0.02-0.21-0.09c-0.01-0.05-0.01-0.1,0.05-0.17c0.08-0.09,0.16-0.15,0.3-0.19
				C50.74,35.3,51.13,35.3,51.49,35.16z"/>
		</g>
	</g>
</g>
<g>
	<g>
		<g>
			<path class="st3" d="M38.26,34.13c-0.47-0.38-0.79-0.58-1.35-0.59c-0.04,0-0.08-0.01-0.21,0.01c-0.11,0.01-0.38,0.05-0.59,0.33
				c-0.19,0.28-0.16,0.57-0.07,0.79c0.05,0.11,0.12,0.22,0.24,0.32c0.1,0.08,0.2,0.13,0.29,0.17c0.4,0.12,0.54,0.08,0.76,0.11
				c0.21,0.01,0.42,0.03,0.63,0.04c0.42,0.03,0.83,0.06,1.12,0.08c0.32,0.02,0.58-0.01,0.58-0.01s0.1,0,0.36-0.07
				c0.13-0.04,0.3-0.1,0.5-0.24c0.19-0.13,0.43-0.35,0.55-0.75l0.14-0.46l-0.45-0.22c-0.26-0.13-0.8-0.36-1.35-0.47
				c-0.56-0.12-1.08-0.13-1.35-0.12c-0.37,0.03-0.65,0.16-0.87,0.39c-0.21,0.21-0.34,0.63-0.13,0.88c0.21-0.24,0.41-0.15,0.55-0.13
				c0.15,0.03,0.3,0.04,0.5,0.03c0.15,0,0.61,0.01,1.05,0.1c0.44,0.09,0.87,0.27,1.08,0.37L39.95,34c0,0.05-0.16,0.17-0.24,0.18
				c-0.1,0.03-0.16,0.03-0.16,0.03s-0.12,0.02-0.39,0c-0.29-0.02-0.69-0.05-1.1-0.08c-0.21-0.01-0.42-0.03-0.63-0.05
				c-0.1-0.01-0.21-0.01-0.31-0.02l-0.1-0.01l-0.02,0c0,0,0,0,0,0l-0.03,0.08c-0.01,0.04-0.03,0.07-0.04,0.09l-0.02,0.02l-0.08,0.1
				c0.02-0.02,0.04-0.04,0.04-0.04c0,0.01-0.13,0.01-0.13-0.01c0,0.01,0.05,0.01,0.08,0.29l0.01,0.12l0,0l0.02,0
				c0.02,0,0.04,0,0.06,0C37.47,34.71,37.79,34.5,38.26,34.13z"/>
		</g>
	</g>
</g>
<g>
	<g>
		<g>
			<path class="st3" d="M20.17,36.22c-0.26-0.45-0.5-0.72-0.98-0.78c-0.26-0.04-1.04-0.07-1.55,0.01l-0.67,0.1l0.17,0.63
				c0.12,0.45,0.47,0.69,0.68,0.79c0.23,0.12,0.42,0.16,0.57,0.2c0.27,0.04,0.43,0.07,0.43,0.07s0.15,0.02,0.38,0.06
				c0.23,0.04,0.54,0.09,0.96,0.05c0.21-0.02,0.44-0.07,0.66-0.19c0.24-0.12,0.44-0.31,0.56-0.51c0.28-0.4,0.23-0.97,0.07-1.22
				l-0.16-0.24l-0.21-0.05c-0.07-0.02-0.09-0.02-0.11-0.02c-0.51-0.1-0.86,0.11-1.18,0.53c0.41,0.33,0.58,0.54,0.93,0.62
				c0.01,0,0.03,0.01,0.07,0.02l-0.31-0.32c-0.17-0.05,0.04,0.16-0.45,0.22c-0.21,0.03-0.49-0.01-0.69-0.04
				c-0.2-0.03-0.33-0.05-0.33-0.05s-0.14-0.02-0.37-0.06c-0.1-0.02-0.21-0.06-0.29-0.1c-0.04-0.02-0.07-0.04-0.08-0.05
				c0.01-0.01-0.01,0-0.04,0.02c-0.03,0.01-0.02,0.01-0.01,0.01l-0.45,0.71c0.43-0.06,1.08-0.04,1.29-0.01
				C19.47,36.64,19.71,36.49,20.17,36.22z"/>
		</g>
	</g>
</g>
<g>
	<g>
		<g>
			<path class="st3" d="M20.43,32.16c-0.28-0.37-0.47-0.57-0.81-0.58c-0.09,0-0.27,0-0.5,0c-0.06-0.17-0.05,0.44-0.1,0.42
				c0,0.01-0.03,0.04,0.01,0c-0.02,0.02-0.03,0.03-0.03,0.03c-0.01,0,0.01-0.01,0.06,0.01c0.1,0.02,0.25,0.14,0.31,0.21
				c0.05,0.06,0.02,0.05-0.05-0.11l0,0c0.12,0.29,0.03,0.08,0.06,0.14l0,0l0,0l0.01,0l0.01,0l0.02-0.01l0.04-0.02l0.08-0.03
				c0.05-0.02,0.1-0.04,0.15-0.06c0.1-0.03,0.19-0.07,0.26-0.09c0.15-0.04,0.24-0.07,0.24-0.07s0.4-0.11,0.71-0.05
				c0.08,0.02,0.15,0.03,0.21,0.07c0.03,0.01,0.06,0.03,0.09,0.05l0.02,0.01l0.01,0l0,0l0,0l0,0l0,0c0.02-0.03-0.04,0.06,0.04-0.06
				l-0.01,0.02c-0.01,0.01-0.01,0.01,0.02-0.02c0.05-0.05,0.15-0.11,0.22-0.14c0.07-0.03,0.11-0.01,0.08-0.02
				c0.01,0.03-0.12-0.13-0.19-0.37c-0.25,0.08-0.44,0.33-0.6,0.76c0.38,0.29,0.57,0.45,0.97,0.35c0.06-0.03,0.3-0.05,0.5-0.42
				c0.09-0.18,0.09-0.42,0.03-0.57c-0.05-0.16-0.13-0.26-0.21-0.35c-0.19-0.19-0.31-0.24-0.48-0.33c-0.16-0.08-0.34-0.13-0.51-0.16
				c-0.34-0.05-0.64-0.02-0.85,0.01c-0.21,0.03-0.34,0.07-0.34,0.07s-0.51,0.13-0.99,0.34c-0.25,0.15-0.42,0.19-0.61,0.65
				c-0.04,0.13-0.04,0.34,0.05,0.51c0.09,0.17,0.2,0.25,0.33,0.33c0.26,0.11,0.38,0.07,0.43,0.08c0.22,0,0.4,0,0.5-0.01
				C19.96,32.74,20.15,32.53,20.43,32.16z"/>
		</g>
	</g>
</g>
<g>
	<g>
		<g>
			<path class="st3" d="M44.91,36.64c-0.61-0.16-0.76-0.45-1.5-0.4c-0.2,0.04-0.76,0.03-1.29,0.57c-0.28,0.33-0.38,0.67-0.32,1.11
				c0.06,0.42,0.36,0.74,0.65,0.85c0.24,0.11,0.56,0.09,0.65,0.09c0.11,0,0.19,0,0.29,0c0.2,0.02,0.38,0.03,0.52,0.05
				c0.31,0.03,0.51,0.02,0.51,0.02s0.08,0,0.24-0.01c0.16-0.01,0.4-0.06,0.66-0.16c0.13-0.05,0.26-0.12,0.39-0.19
				c0.14-0.09,0.22-0.13,0.45-0.31c0.42-0.34,0.8-0.74,1.22-1.13c-0.55-0.28-1.13-0.6-1.66-0.79c-0.32-0.12-0.57-0.19-0.72-0.22
				c-0.64-0.15-1.06,0-1.59,0.33c0.48,0.41,0.75,0.65,1.29,0.8c0.12,0.03,0.35,0.1,0.59,0.19c0.03,0.01,0.01,0,0.01,0l0.01,0
				c0.02-0.01-0.12,0.09-0.19,0.13c-0.08,0.05-0.16,0.08-0.23,0.12c-0.27,0.11-0.48,0.09-0.48,0.09s-0.11,0.01-0.38-0.02
				c-0.15-0.01-0.34-0.03-0.55-0.05c-0.11-0.01-0.26-0.01-0.4-0.01c-0.16,0-0.1,0-0.11,0l0,0c-0.01,0.03,0.02-0.11,0.03-0.09
				c0.08-0.11,0.39-0.18,0.53-0.2C44,37.36,44.57,37.2,44.91,36.64z"/>
		</g>
	</g>
</g>
<g>
	<g>
		<g>
			<path class="st3" d="M31.97,37.43c-0.36-0.37-0.62-0.57-1.08-0.57c-0.35,0-1.65,0.02-2.07,0.03l-2.9,0.04l2.71,1.09
				c0.66,0.26,0.9,0.31,0.9,0.31s0.62,0.19,1.34,0.28c0.71,0.1,1.5,0.07,1.76,0.04c0.13-0.01,0.24-0.04,0.34-0.08l0.68-0.27
				l-0.23-0.43c-0.25-0.47-0.78-0.52-1.07-0.26c0.25,0.3,0.12,0.56,0.06,0.59l0.44-0.7c-0.09-0.02-0.19-0.03-0.31-0.02
				c-0.22,0.02-0.9,0.04-1.52-0.04c-0.62-0.07-1.16-0.24-1.16-0.24s-0.21-0.05-0.77-0.27l-0.19,1.13c0.4-0.01,1.65-0.03,1.99-0.03
				C31.33,38.01,31.58,37.8,31.97,37.43z"/>
		</g>
	</g>
</g>
<g>
	<g>
		<g>
			<path class="st3" d="M7.08,40.03c0.49,0.52,0.88,0.81,1.62,0.95c0.4,0.08,1.63,0.24,2.76,0.23c0.28,0,0.56-0.01,0.81-0.02
				c0.1-0.01,0.2-0.01,0.3-0.02c0.12-0.01,0.23-0.02,0.33-0.04c0.2-0.05,0.35-0.13,0.47-0.23c0.24-0.21,0.31-0.5,0.31-0.68
				c0-0.18-0.03-0.29-0.03-0.29s-0.02-0.11-0.11-0.28c-0.09-0.17-0.28-0.41-0.61-0.62c-0.54-0.32-1.16-0.36-1.74-0.35
				c-1.12,0.02-2.33,0.16-2.73,0.23c-0.74,0.11-1.13,0.39-1.65,0.88c0.67,0.24,1.1,0.37,1.81,0.28c0.38-0.05,1.54-0.19,2.6-0.21
				c0.5-0.03,0.95,0.07,1.07,0.16l0,0l0,0l0,0l0,0c0,0,0.02,0-0.06,0c-0.24,0.01-0.49,0.02-0.76,0.01c-1.05,0-2.2-0.15-2.57-0.21
				C8.2,39.72,7.77,39.83,7.08,40.03z"/>
		</g>
	</g>
</g>
<g>
	<g>
		<g>
			<path class="st3" d="M65.57,28.96c-0.31-0.38-0.65-0.54-1.03-0.48c-0.21,0.03-0.83,0.17-1.13,0.07c-0.3-0.07-0.48-0.42-0.48-0.42
				s-0.19-0.34-0.3-0.89l-0.02-0.09l0,0l0,0l0,0c0,0-0.01,0,0.01,0l0.09-0.04c0.07-0.04,0.13-0.07,0.18-0.1
				c0.11-0.06,0.19-0.12,0.24-0.17c0.39-0.31,0.42-0.71,0.24-1.17c-0.49,0.11-0.73,0.07-0.95,0.24c-0.03,0.02-0.08,0.05-0.14,0.09
				c-0.1,0.05-0.21,0.1-0.33,0.17c-0.23,0.12-0.43,0.32-0.5,0.59c-0.04,0.13-0.05,0.28-0.03,0.42c0.01,0.07,0.02,0.14,0.04,0.22
				l0.03,0.12c0.07,0.29,0.16,0.59,0.25,0.82c0.09,0.22,0.18,0.37,0.18,0.37s0.07,0.15,0.25,0.37c0.17,0.22,0.51,0.49,0.91,0.61
				c0.84,0.22,1.49-0.03,1.68-0.04C65.13,29.55,65.24,29.33,65.57,28.96z"/>
		</g>
	</g>
</g>
<g>
	<g>
		<g>
			<path class="st3" d="M62.47,46.61c-0.57-0.37-0.96-0.58-1.64-0.59c-0.37,0-1.48,0-2.5-0.01c-0.25,0-0.5,0-0.73,0
				c-0.12,0-0.23,0-0.34,0c-0.13,0-0.44,0.01-0.69,0.27c-0.25,0.24-0.24,0.67-0.16,0.82c0.07,0.18,0.15,0.28,0.21,0.35
				c0.13,0.14,0.22,0.2,0.22,0.2c-0.01-0.01,0.11,0.08,0.25,0.14c0.12,0.05,0.3,0.12,0.52,0.16c0.43,0.1,0.97,0.09,1.47,0.1
				c1.01,0,2.11,0.05,2.6-0.06c0.56-0.09,1.03-0.47,1.13-0.96l0.06-0.28l-0.05-0.04c-0.19-0.16-0.44-0.19-0.63-0.11
				c0.15,0.14,0.17,0.31,0.13,0.41l0.01-0.31c-0.31,0.09-0.48,0.06-0.86,0.13c-0.24,0.07-1.37,0.03-2.39,0.03
				c-0.52,0-0.96,0-1.23-0.07c-0.14-0.03-0.24-0.06-0.3-0.09c-0.05-0.02-0.02-0.01-0.03-0.01c0,0-0.01-0.01-0.02-0.02
				c0.04-0.03-0.11,0.09-0.21,0.12c-0.12,0.05-0.2-0.01-0.11,0.05c-0.03-0.03,0.02,0.01,0.04,0.12c0.01,0.04,0.03,0.17,0.04,0.22
				l0.03,0c0.1,0,0.21,0,0.32,0c0.23,0,0.48,0,0.73,0c1.02,0,2.13,0,2.5,0C61.52,47.19,61.9,46.99,62.47,46.61z"/>
		</g>
	</g>
</g>
<g>
	<g>
		<g>
			<path class="st3" d="M70.55,44.62c-0.27-0.4-0.47-0.62-0.83-0.65c-0.1-0.01-0.3-0.03-0.54-0.05c-0.12-0.01-0.25-0.02-0.39-0.03
				c-0.13-0.01-0.28-0.04-0.54-0.01c-0.24,0.01-0.7,0.25-0.78,0.65c-0.09,0.37,0.03,0.62,0.15,0.8c0.3,0.39,0.51,0.38,0.51,0.4
				c0,0,0.21,0.09,0.44,0.12c0.19,0.03,0.45,0.07,0.73,0.11c0.54,0.08,1.13,0.17,1.33,0.2c0.36,0.05,0.6-0.12,0.96-0.45
				c-0.25-0.42-0.42-0.65-0.78-0.71c-0.2-0.03-0.78-0.12-1.32-0.2c-0.27-0.04-0.52-0.08-0.71-0.11c-0.16-0.03-0.18-0.04-0.18-0.04
				s-0.01,0-0.01-0.01l0,0c0,0,0,0,0,0c-0.04,0.05-0.07,0.09-0.11,0.14c0.02-0.02,0.04-0.04,0.05-0.05
				c0.03-0.01-0.09,0.04-0.17,0.02c-0.07-0.03,0.06,0,0.1,0.29c0.49,0.04,1.03,0.07,1.21,0.09C69.99,45.15,70.21,44.97,70.55,44.62z
				"/>
		</g>
	</g>
</g>
<g>
	<g>
		<g>
			<path class="st3" d="M71.01,36.96c-0.18-0.42-0.31-0.65-0.61-0.72c-0.17-0.03-0.66-0.14-1.11-0.23l-0.14-0.03l0,0l0,0l0,0l0,0
				c0,0,0,0,0,0c0.08-0.02,0.16-0.04,0.23-0.06c0.18-0.04,0.32-0.06,0.39-0.07c0.27-0.04,0.4-0.24,0.68-0.61
				c-0.25-0.38-0.46-0.58-0.81-0.55c-0.09,0.01-0.28,0.03-0.51,0.08c-0.14,0.03-0.18,0.04-0.41,0.11c-0.21,0.06-0.43,0.18-0.59,0.31
				c-0.34,0.26-0.47,0.61-0.45,0.89c0.02,0.27,0.12,0.42,0.12,0.42s0.07,0.16,0.29,0.33c0.11,0.08,0.27,0.16,0.46,0.22
				c0.1,0.03,0.2,0.05,0.31,0.07l0.2,0.04c0.45,0.09,0.95,0.19,1.11,0.22C70.47,37.44,70.69,37.28,71.01,36.96z"/>
		</g>
	</g>
</g>
<g>
	<g>
		<g>
			<path class="st3" d="M18.35,21.13c-0.33-0.47,0-0.59-0.07-0.62c-0.09-0.03-0.02-0.01-0.05-0.01l0,0l0,0c0.07,0,0.13,0,0.19,0
				c0.24,0,0.39,0.03,0.39,0.03s0.15,0.02,0.36,0.08c0.21,0.07,0.48,0.2,0.66,0.4c0.04,0.05,0.09,0.1,0.12,0.16
				c0.04,0.03-0.05,0.06,0.18-0.04c0.14-0.06,0.22-0.05,0.24-0.05c0,0,0,0.01-0.05-0.06c-0.04-0.05-0.09-0.24-0.1-0.32
				c-0.06,0-0.12,0-0.18,0.01c-0.3,0-0.55-0.04-0.67-0.06c-0.45-0.1-0.74,0-1.32,0.1c0.2,0.55,0.48,0.9,1.09,1.04
				c0.16,0.04,0.5,0.1,0.91,0.1c0.11,0,0.18,0,0.37-0.02c0.09-0.02,0.2-0.04,0.34-0.12c0.14-0.08,0.31-0.27,0.36-0.48
				c0.08-0.46-0.12-0.64-0.17-0.75c-0.07-0.12-0.16-0.22-0.26-0.32c-0.38-0.39-0.83-0.6-1.15-0.7c-0.33-0.1-0.55-0.13-0.55-0.13
				s-0.22-0.04-0.54-0.04c-0.08,0-0.17,0-0.27,0c-0.16,0.01-0.34,0.02-0.52,0.04c-0.35,0.05-0.73,0.1-1.07,0.19
				c-0.33,0.1-0.47,0.24-0.58,0.36c-0.1,0.12-0.2,0.32-0.18,0.57c0.04,0.23,0.05,0.31,0.16,0.39c0.19,0.07,0.34,0.12,0.44,0.16
				C17.17,21.3,17.81,21.37,18.35,21.13z"/>
		</g>
	</g>
</g>
<g>
	<g>
		<g>
			<path class="st3" d="M2.13,47.34c0.43,0.42,0.77,0.64,1.35,0.64c0.27,0,1-0.03,1.69-0.16c0.69-0.11,1.34-0.31,1.5-0.36
				l-0.69-0.83c-0.19,0.33-0.24,0.36-0.24,0.36s-0.09,0.12-0.27,0.26c-0.18,0.15-0.45,0.31-0.76,0.39c-0.36,0.03-0.71,0.11-1.06,0.1
				c-0.33,0-0.55-0.05-0.65-0.08c-0.18-0.05-0.32-0.08-0.49-0.1c-0.17-0.03-0.38-0.04-0.62-0.22c-0.23,0.57,0.07,1.21,0.77,1.44
				c0.19,0.06,0.57,0.14,0.98,0.14c0.39,0.01,0.91-0.08,1.37-0.14c0.5-0.13,0.92-0.39,1.2-0.62c0.28-0.23,0.42-0.42,0.42-0.42
				s0.01-0.02,0.07-0.09c0.06-0.08,0.17-0.21,0.31-0.48l0.67-1.25l-1.36,0.42c-0.14,0.04-0.73,0.22-1.35,0.32
				c-0.62,0.11-1.27,0.14-1.52,0.15C2.93,46.83,2.63,47.01,2.13,47.34z"/>
		</g>
	</g>
</g>
<g>
	<g>
		<g>
			<path class="st3" d="M23.32,49.5c0.13-0.04,0.15,0.13,0.09,0.17c-0.05,0.07-0.13,0.06-0.13,0.05c-0.01,0,0.03,0.01-0.15,0.06
				c-0.17,0.04-0.54,0.09-0.82,0.12c-0.83,0.07-0.5,0.04-0.57,0.05c0-0.01,0.02,0.01,0,0c0,0-0.01-0.02-0.01-0.04
				c-0.02-0.02,0.13-0.09,0.17-0.14c0.14-0.12,0.26-0.29,0.41-0.5c-0.21-0.16-0.38-0.27-0.55-0.34c-0.11-0.03-0.12-0.07-0.31-0.06
				c-0.17,0-0.37,0.02-0.58,0.05c-0.23,0.03-0.68,0.14-0.91,0.35c-0.24,0.19-0.46,0.55-0.41,1.01c0.09,0.47,0.32,0.62,0.54,0.73
				c0.24,0.11,0.53,0.12,0.53,0.12c-0.09,0.02,1.38,0.02,1.81-0.05c0.34-0.04,0.63-0.06,1.01-0.16c0.38-0.07,0.77-0.42,0.85-0.62
				c0.21-0.38,0.11-0.78-0.14-0.96C23.93,49.16,23.5,49.15,23.32,49.5z"/>
		</g>
	</g>
</g>
<g>
	<g>
		<g>
			<path class="st3" d="M18.56,41.15c0.35,0.43,0.5,0.68,0.74,0.86c0.14,0.06,0.37,0.54,0.14,0.65c-0.24,0.22-1.03,0.25-0.99,0.26
				c0,0-0.67,0.09-0.89-0.14c-0.1-0.1-0.1-0.14-0.05-0.31c0.07-0.16,0.17-0.25,0.25-0.3c0.26-0.18,0.46-0.44,0.76-0.91
				c-0.48-0.25-0.86-0.41-1.43-0.06c-0.14,0.09-0.48,0.35-0.67,0.8c-0.1,0.22-0.16,0.52-0.11,0.84c0.05,0.32,0.24,0.63,0.46,0.82
				c0.45,0.39,0.98,0.44,1.29,0.45c0.32,0,0.49-0.02,0.49-0.02s0.17-0.01,0.46-0.05c0.28-0.05,0.73-0.1,1.19-0.48
				c0.23-0.19,0.41-0.48,0.47-0.79c0.06-0.31,0.02-0.59-0.05-0.82c-0.15-0.47-0.47-0.75-0.61-0.86C19.44,40.7,19,40.85,18.56,41.15z
				"/>
		</g>
	</g>
</g>
<g>
	<g>
		<g>
			<path class="st3" d="M10.67,46.61c0.32,0.38,0.54,0.58,0.93,0.59c0.08,0,0.22,0,0.38,0.01c0.08,0,0.15,0,0.18,0.01
				c0.03-0.02,0,0.06,0.04-0.05c0.03-0.08,0.05-0.11,0.06-0.12c0.06-0.07,0.01,0-0.06,0c-0.09,0.01-0.16-0.02-0.13,0
				c-0.01,0.02,0,0.01,0,0.01c-0.1,0.05-0.3,0.04-0.27,0.04c0,0-0.09,0-0.27-0.03c-0.18-0.05-0.43-0.11-0.69-0.17
				c-0.25-0.06-0.57-0.13-0.68-0.2c-0.13-0.07-0.04-0.07-0.12-0.05c-0.07,0.02-0.15,0.02-0.17,0.01c-0.03-0.01-0.06-0.03-0.09-0.05
				l0.02,0.01c0.01,0.01,0.03,0.03,0.04,0.04c0.01,0.07-0.07-0.27,0.21-0.27c0.04-0.28-0.34-0.49-0.64-0.39
				c-0.36,0.08-0.59,0.59-0.46,0.96c0.03,0.2,0.31,0.61,0.66,0.77c0.34,0.18,0.62,0.21,0.93,0.3c0.3,0.07,0.59,0.14,0.8,0.19
				c0.22,0.04,0.4,0.04,0.4,0.04s0.04,0,0.17,0c0.13-0.02,0.37,0.02,0.78-0.21c0.13-0.08,0.36-0.28,0.48-0.57
				c0.06-0.15,0.1-0.33,0.08-0.55c-0.02-0.21-0.14-0.48-0.34-0.64c-0.42-0.31-0.75-0.24-0.91-0.26c-0.17,0-0.3,0-0.38,0
				C11.22,46.04,10.99,46.24,10.67,46.61z"/>
		</g>
	</g>
</g>
<g>
	<g>
		<g>
			<path class="st3" d="M28.69,49.79c0.39,0.39,0.67,0.6,1.17,0.61c0.18,0,0.58,0,1-0.01c0.79-0.02,1.65-0.1,2.1-0.14
				c0-0.17,0-0.32,0-0.44c0.01-0.19-0.01-0.33-0.04-0.44c-0.06-0.22-0.12-0.3-0.12-0.3s-0.08-0.19-0.37-0.44
				c-0.14-0.12-0.36-0.25-0.64-0.37c-0.15-0.05-0.29-0.12-0.47-0.14c-0.18-0.04-0.36-0.08-0.44-0.08c-0.88-0.12-1.79,0.21-2.06,0.37
				c-0.51,0.27-0.68,0.68-0.68,1.23c0.56-0.05,0.83,0,1.19-0.18c0.19-0.1,0.83-0.33,1.42-0.25c0.1,0.01,0.09,0.01,0.09,0.01l0,0l0,0
				l0,0l0,0c-0.01,0,0.03,0-0.02,0c-0.41,0.01-0.79,0.02-0.96,0.02C29.39,49.24,29.11,49.44,28.69,49.79z"/>
		</g>
	</g>
</g>
<g>
	<g>
		<g>
			<path class="st3" d="M45.77,48.66c0.53,0.42,1.1,0.58,1.85,0.26c0.18-0.09,0.56-0.29,0.87-0.59c0.32-0.29,0.58-0.66,0.95-1.08
				c-0.62-0.18-1.23-0.37-1.91-0.51l-0.35-0.07l-0.26-0.04c-0.17-0.03-0.34-0.05-0.49-0.06c-0.62-0.06-1.07-0.06-1.07-0.06
				s-0.98-0.03-2.04,0.15c-0.09,0.01-0.37,0.07-0.58,0.11c-0.23,0.03-0.42,0.14-0.63,0.22c-0.24,0.07-0.29,0.19-0.38,0.33
				c-0.08,0.14-0.12,0.34-0.1,0.5c0.08,0.65,0.8,0.96,1.15,1.08c0.19,0.07,0.23,0.08,0.33,0.1c0.08,0.02,0.16,0.03,0.24,0.04
				c0.16,0.01,0.31,0.01,0.45-0.01c0.29-0.05,0.56-0.16,0.85-0.33c-0.28-0.2-0.48-0.37-0.69-0.51c-0.11-0.07-0.21-0.13-0.33-0.19
				c-0.07-0.03-0.13-0.06-0.18-0.08c-0.05-0.02-0.17-0.07-0.13-0.06l0.01,0l0,0c0.01,0-0.02,0,0.02,0l0.17-0.03
				c0.95-0.16,1.83-0.14,1.83-0.14s0.41,0,0.96,0.06c0.14,0.01,0.29,0.03,0.44,0.06c0.13,0.02,0.26,0.04,0.39,0.07l-0.01,0
				c-0.01,0,0.02-0.01-0.01,0C46.61,48.08,46.37,48.33,45.77,48.66z"/>
		</g>
	</g>
</g>
<g>
	<g>
		<g>
			<path class="st3" d="M31.22,42.94c0.26,0.2,0.5,0.35,0.75,0.45c0.13,0.05,0.26,0.09,0.4,0.11c0.17,0.02,0.52,0.02,0.83-0.01
				c0.17-0.02,0.45-0.03,0.7-0.11c0.25-0.09,0.36-0.21,0.46-0.38c0.06-0.11,0.09-0.3,0.08-0.42c-0.02-0.13-0.05-0.23-0.12-0.34
				c-0.11-0.23-0.57-0.5-1-0.72c-0.18-0.09-0.36-0.18-0.53-0.26c-0.11-0.05-0.22-0.1-0.33-0.15c-0.21-0.09-0.41-0.17-0.58-0.24
				c-0.34-0.13-0.56-0.21-0.56-0.21s-0.1-0.05-0.41-0.13c-0.15-0.04-0.4-0.06-0.65,0.01c-0.26,0.06-0.49,0.22-0.65,0.37
				c-0.17,0.15-0.3,0.31-0.41,0.45l-0.16,0.18c0,0.01-0.12,0.12-0.2,0.15c-0.08,0.05-0.18,0.11-0.29,0.16
				c-0.44,0.23-0.51,0.42-0.55,0.54c-0.04,0.11-0.07,0.3,0,0.52c0.13,0.31,0.27,0.38,0.52,0.49c0.26,0.08,0.52,0.08,0.68,0.1
				c0.76,0.06,0.88-0.01,1.16-0.1c0.25-0.1,0.49-0.25,0.76-0.45c-0.29-0.17-0.52-0.31-0.75-0.41c-0.2-0.1-0.61-0.17-0.51-0.17
				l0.01,0l0,0c0.01-0.01-0.03,0.03,0.03-0.03l0.2-0.23c0.12-0.14,0.22-0.26,0.31-0.34c0.18-0.14,0.15-0.11,0.27-0.1
				c0.12,0.03,0.26,0.08,0.26,0.08c0,0,0.2,0.08,0.51,0.2c0.15,0.07,0.34,0.14,0.53,0.23c0.1,0.05,0.2,0.09,0.3,0.14
				c0.15,0.07,0.13,0.06,0.12,0.06c-0.01,0,0-0.01,0,0c-0.01,0,0.05,0.02-0.06,0.04c-0.13,0.03-0.25,0.07-0.37,0.12
				C31.74,42.64,31.51,42.77,31.22,42.94z"/>
		</g>
	</g>
</g>
<g>
	<g>
		<g>
			<path class="st3" d="M52.15,40.89c-0.51-0.37-0.86-0.58-1.47-0.58c-0.4,0-1.73,0-2.37,0l-0.68,0l0.11,0.68
				c0.05,0.34,0.3,0.59,0.48,0.7c0.19,0.11,0.34,0.16,0.47,0.19c0.28,0.07,0.43,0.07,0.56,0.09c0.27,0.04,0.4,0.06,0.4,0.06
				s0.21,0.03,0.53,0.07c0.32,0.04,0.76,0.12,1.29,0.12c0.26,0,0.54-0.03,0.82-0.09c0.1-0.02,0.39-0.12,0.56-0.21
				c0.19-0.1,0.35-0.21,0.49-0.32c0.54-0.47,0.59-0.91,0.71-1.15l0.03-0.08L54,40.35c-0.05-0.01-0.11-0.03-0.16-0.04
				c-0.09-0.02-0.19-0.04-0.31-0.07c-0.2-0.04-0.4-0.06-0.58-0.06c-0.37-0.01-0.7,0.04-0.99,0.18c0.42,0.45,0.06,0.59,0.11,0.61
				c-0.01,0,0,0,0,0l0,0c-0.02,0.01,0.06-0.02-0.06,0.02c-0.16,0.04-0.35,0.06-0.54,0.06c-0.39,0-0.81-0.06-1.13-0.11
				c-0.32-0.04-0.53-0.07-0.53-0.07s-0.14-0.02-0.4-0.06c-0.13-0.02-0.32-0.04-0.44-0.07c-0.06-0.02-0.12-0.04-0.13-0.05
				c0.02-0.04-0.08,0.11-0.11,0.12c-0.04,0.03-0.05,0.02-0.01,0.02l-0.41,0.66c0.64,0,1.98,0,2.37-0.01
				C51.29,41.46,51.64,41.26,52.15,40.89z"/>
		</g>
	</g>
</g>
<g>
	<g>
		<g>
			<path class="st3" d="M39.3,45.27c0.24,0.23,0.46,0.42,0.81,0.48c0.17,0.03,0.38,0.01,0.59-0.09c0.2-0.1,0.35-0.23,0.47-0.35
				c0.08-0.12,0.31-0.21,0.15-0.32l0.07-1.03c-1.13,0.07-3.52,0.22-3.52,0.22s-0.22,0.01-0.62,0.06c-0.2,0.03-0.44,0.07-0.72,0.18
				c-0.14,0.05-0.28,0.12-0.42,0.22c-0.07,0.05-0.13,0.09-0.21,0.16c-0.08,0.07-0.24,0.22-0.29,0.52c-0.03,0.29,0.08,0.46,0.15,0.57
				c0.07,0.1,0.13,0.17,0.21,0.25c0.15,0.15,0.34,0.26,0.52,0.32c0.37,0.13,0.71,0.12,0.99,0.08c0.58-0.09,0.97-0.37,1.12-0.47
				c0.61-0.42,0.66-0.77,1.05-1.31c-0.67-0.17-1.19,0.02-1.68,0.33c-0.15,0.09-0.37,0.24-0.67,0.28c-0.15,0.03-0.3,0.02-0.4-0.02
				c-0.05-0.02-0.09-0.04-0.11-0.07c-0.03,0.01,0.02-0.07-0.08-0.01c-0.19,0.13-0.31,0.14-0.33,0.14c0,0,0.11,0.03,0.32,0.26
				c0.01-0.01,0.05-0.04,0.08-0.06c0.06-0.04,0.13-0.07,0.2-0.1c0.14-0.06,0.31-0.09,0.46-0.11c0.3-0.04,0.53-0.05,0.53-0.05
				s2.38-0.14,3.51-0.21l3.66-0.22l-3.55-0.94c-0.25-0.07-0.52-0.01-0.67,0.07c-0.16,0.08-0.25,0.15-0.32,0.21
				c-0.14,0.12-0.2,0.19-0.24,0.24c-0.25,0.25-0.18,0.27-0.34,0.41C39.86,45.01,39.61,45.13,39.3,45.27z"/>
		</g>
	</g>
</g>
<g>
	<g>
		<g>
			<path class="st3" d="M62.37,43c-0.42-0.33-0.37-0.59-0.77-0.78c-0.07-0.03-0.17-0.09-0.3-0.15c-0.16-0.08-0.35-0.15-0.58-0.2
				c-0.22-0.04-0.48-0.06-0.75,0c-0.27,0.06-0.54,0.24-0.68,0.42c-0.26,0.32-0.28,0.7-0.25,0.94c0.04,0.26,0.12,0.44,0.21,0.58
				c0.17,0.28,0.32,0.38,0.32,0.38s0.18,0.16,0.47,0.3c0.29,0.14,0.68,0.22,1.01,0.27c0.17,0.03,0.34,0.06,0.5,0.09
				c0.18,0.03,0.29,0.06,0.54,0.08c0.23,0.03,0.6-0.07,0.77-0.23c0.19-0.15,0.28-0.32,0.33-0.43c0.21-0.43-0.02-0.93-0.3-1.06
				c-0.27-0.16-0.61-0.11-0.78,0.11c0.21,0.17,0.19,0.38,0.14,0.46c-0.01,0.02-0.03,0.04-0.04,0.05c0.01-0.01,0.03-0.01,0.04-0.02
				c-0.01,0.01-0.08,0-0.1-0.01c-0.02-0.01-0.01-0.01,0.02,0.02c0.01,0.02,0.03,0.04,0.03,0.06c-0.04-0.16-0.02-0.13-0.05-0.13
				c-0.28-0.05-0.6-0.1-0.91-0.15c-0.33-0.05-0.58-0.11-0.72-0.18c-0.14-0.06-0.19-0.12-0.19-0.12c0,0-0.03-0.02-0.08-0.1
				c-0.06-0.07-0.05-0.23-0.05-0.19c-0.01,0.01,0.04-0.05,0.28-0.01c0.11,0.02,0.22,0.06,0.3,0.1c0.12,0.06,0.22,0.11,0.28,0.14
				C61.48,43.48,62.04,43.45,62.37,43z"/>
		</g>
	</g>
</g>
<g>
	<g>
		<g>
			<path class="st3" d="M39.76,8.66c-0.38-0.35-0.64-0.53-1.07-0.51c-0.11,0.01-0.34,0.02-0.62,0.04c-0.05,0-0.09,0-0.09,0
				c-0.04,0.2-0.07,0.23-0.09,0.26c-0.03-0.02,0.24-0.05,0.22-0.03c0,0-0.02-0.01-0.03-0.02l-0.03-0.02l-0.01-0.01l0,0l0,0l0.1,0.11
				l0,0l0,0l0,0c0,0,0.02-0.01,0.04-0.02c0.04-0.02,0.13-0.04,0.22-0.06c0.2-0.02,0.33-0.04,0.33-0.04s0.13-0.01,0.34-0.02
				c0.2-0.01,0.5,0,0.76,0.02c0,0-0.01,0,0,0c0,0,0.02,0.01,0.04,0.03c0.02,0.02,0.05,0.04,0,0.15c-0.06,0.18-0.08,0.38-0.1,0.64
				c0.26,0.03,0.46,0.04,0.65,0.02c0.14-0.01,0.6-0.25,0.79-0.53c0.1-0.16,0.3-0.47,0.12-0.9c-0.1-0.2-0.22-0.32-0.47-0.42
				c-0.25-0.09-0.61-0.12-0.91-0.15c-0.73-0.06-1.33,0.01-1.33,0.01s-0.16,0.02-0.4,0.05c-0.13,0.02-0.31,0.05-0.53,0.15
				c-0.11,0.05-0.23,0.12-0.34,0.22c-0.12,0.11-0.23,0.26-0.29,0.41c-0.12,0.29-0.15,0.74,0.21,1.09c0.37,0.32,0.71,0.26,0.87,0.26
				c0.29-0.02,0.52-0.04,0.64-0.05C39.21,9.28,39.43,9.06,39.76,8.66z"/>
		</g>
	</g>
</g>
<g>
	<g>
		<g>
			<path class="st3" d="M52.43,49.71c-0.16-0.11-0.52-0.38-0.84-0.42c-0.31-0.05-0.63,0.04-0.79,0.4l0,0.01
				c-0.09,0.19-0.14,0.62,0.18,1.07c0.16,0.22,0.42,0.44,0.75,0.59c0.4,0.16,0.56,0.15,0.81,0.17c0.23,0.01,0.43,0,0.61-0.02
				c0.1-0.01,0.15-0.01,0.26-0.03c0.12-0.02,0.23-0.04,0.33-0.06c0.41-0.08,0.68-0.13,0.68-0.13s0.13-0.02,0.9-0.17
				c0.06-0.06,0.15-0.1,0.26-0.36c0.13-0.27,0.06-0.72-0.13-0.96c-0.17-0.24-0.44-0.44-0.92-0.53c-0.44-0.09-0.88-0.13-1.06-0.14
				c-0.53-0.02-0.84,0.19-1.23,0.58c0.44,0.35,0.69,0.55,1.15,0.58c0.04,0.01,0,0,0.02,0c-0.07,0.01-0.08,0.01-0.08,0.01
				s-0.02,0-0.06,0c-0.07,0.01-0.14,0.01-0.23,0.02c-0.16,0.01-0.31,0.02-0.45,0.01c-0.39-0.04-0.25-0.04-0.27-0.04l-0.01,0l0,0
				c-0.01,0-0.09-0.07-0.12-0.17C52.17,50.04,52.2,49.95,52.43,49.71z"/>
		</g>
	</g>
</g>
<g>
	<g>
		<g>
			<path class="st3" d="M3.53,36.85c0.21,0.38,0.36,0.58,0.61,0.59c0.16,0,0.62,0.01,1.05,0.01c0.38,0.01,0.75,0,0.91-0.09
				c0.17-0.07,0.24-0.14,0.25-0.15c0.02-0.01,0.02-0.01,0.02-0.01s0.09-0.06,0.19-0.22c0.11-0.16,0.19-0.44,0.13-0.72
				c-0.08-0.59-0.65-0.96-0.94-1.01c-0.23-0.07-0.49-0.05-0.63,0.02c-0.1,0.08-0.21,0.21-0.37,0.35c0.04,0.21,0.12,0.38,0.2,0.49
				c0.04,0.11-0.01,0.15-0.01,0.16c-0.01,0.01,0-0.01,0,0l0,0l0,0c-0.32,0-0.67,0-0.8,0C3.9,36.27,3.75,36.48,3.53,36.85z"/>
		</g>
	</g>
</g>
<g>
	<g>
		<g>
			<path class="st3" d="M1.75,42.93c0.29,0.38,0.49,0.59,0.85,0.6c0.19,0,0.71,0.02,1.21,0.03c0.14,0.01,0.47-0.01,0.65-0.06
				c0.21-0.06,0.37-0.14,0.49-0.24c0.24-0.2,0.29-0.41,0.31-0.44c0.06-0.2,0.05-0.21,0.05-0.21s0.05-0.21-0.06-0.51
				c-0.1-0.3-0.43-0.66-0.96-0.82C3.65,41.1,3.09,41.03,2.86,41c-0.38-0.03-0.62,0.16-0.93,0.53c0.29,0.38,0.46,0.59,0.79,0.64
				c0.16,0.02,0.76,0.11,1.15,0.23l0,0l0,0c-0.02,0,0.05,0-0.05,0c-0.49-0.01-1.02-0.02-1.21-0.02C2.27,42.36,2.06,42.56,1.75,42.93
				z"/>
		</g>
	</g>
</g>
<g>
	<g>
		<g>
			<path class="st3" d="M24,14.06c0.29,0.42,0.52,0.65,0.95,0.7c0.23,0.03,0.94,0.08,1.6,0.08c0.16,0,0.32,0,0.47-0.01
				c0.26,0,0.54-0.04,0.71-0.13c0.18-0.09,0.3-0.21,0.36-0.3c0.07-0.09,0.09-0.15,0.09-0.15s0.15-0.23,0.05-0.65
				c-0.06-0.18-0.19-0.5-0.27-0.62c-0.09-0.16-0.21-0.31-0.34-0.46c-0.53-0.6-1.36-0.89-1.64-0.92c-0.52-0.09-0.87,0.15-1.12,0.59
				c0.43,0.29,0.57,0.5,0.89,0.56c0.17,0.02,0.69,0.21,1.01,0.57c0.08,0.09,0.15,0.18,0.2,0.27c0.07,0.12,0.03,0.05,0.04,0.07l0,0
				l0,0c0,0,0.01,0-0.01,0c-0.14,0-0.29,0-0.44,0c-0.61,0-1.27-0.05-1.49-0.07C24.65,13.57,24.4,13.74,24,14.06z"/>
		</g>
	</g>
</g>
</svg>
