<?xml version="1.0" encoding="utf-8"?>
<!-- Generator: Adobe Illustrator 25.2.3, SVG Export Plug-In . SVG Version: 6.00 Build 0)  -->
<svg version="1.1" id="Layer_1_xA0_Image_1_" xmlns="http://www.w3.org/2000/svg" xmlns:xlink="http://www.w3.org/1999/xlink"
	 x="0px" y="0px" viewBox="0 0 75 75" style="enable-background:new 0 0 75 75;" xml:space="preserve">
<style type="text/css">
	.st0{fill:#C3B09C;}
	.st1{fill:#FFFFFF;}
	.st2{fill:#E2D5C6;}
	.st3{fill:#CABBAC;}
	.st4{fill:#6D503C;}
	.st5{fill:#756053;}
	.st6{fill:#BB9258;}
	.st7{fill:#5F3D29;}
	.st8{fill:#E3D0AA;}
	.st9{fill:#492B18;}
	.st10{fill:#A06F3B;}
	.st11{fill:#A87D45;}
	.st12{fill:#A7A09A;}
	.st13{fill:#DFD0BC;}
	.st14{fill:#F5EABC;}
	.st15{fill:#E1C78D;}
	.st16{fill:#948D89;}
	.st17{fill:#C9AB7C;}
	.st18{fill:#C7B5A4;}
	.st19{fill:#A4978C;}
	.st20{fill:#D7C7AC;}
	.st21{fill:#F7F0E1;}
	.st22{fill:#857F7B;}
	.st23{fill:#ECE1D5;}
	.st24{fill:#7B6F69;}
	.st25{fill:#5D3418;}
	.st26{fill:#76451F;}
	.st27{fill:#979DA2;}
	.st28{fill:#8D8E91;}
	.st29{fill:#FBF9EC;}
</style>
<path d="M38.6,50.3c0.1-0.6,0.1-1.2,0.5-1.6c0.3-0.4,0.9-0.6,1.4-0.8c3.7-1.2,7.4-2.5,11.3-2.9c3.5-0.4,7.2-0.2,10.5-1.5
	c4.2-1.7,7.2-5.6,8.7-9.9s1.5-8.9,1.3-13.4c0-0.8-0.1-1.6-0.4-2.3c-0.4-0.9-1.2-1.6-1.9-2.3C65.9,12,61.7,8.3,56.8,6
	c-4.2-2-8.9-2.9-13.5-3.6c-3-0.4-6-0.8-9.1-0.7c-3.8,0.1-7.5,0.8-11.1,1.8c-7.4,2-14.9,5.8-18.8,12.4C2,20,1.3,24.7,0.7,29.3
	c-0.1,0.7-0.2,1.5,0,2.2c0.2,0.8,0.6,1.5,1.1,2.2c1,1.6,2.1,3.2,3.4,4.6c5.2,6,13.4,8.5,21.3,9.4c0.5,0.1,1.1,0.1,1.4,0.5
	c0.4,0.4,0.4,0.9,0.5,1.4c0.5,4.6,0,9.2-1.5,13.6c-0.6,1.7-1.4,3.5-1,5.3c0.6,3.1,4.1,4.6,7.2,5.5c3.4,1,4.1-4.1,4.6-6.5
	c0.7-3.6,0.6-7.3,0.7-10.9C38.4,54.5,38.4,52.4,38.6,50.3z"/>
<g>
	<g>
		<polygon class="st0" points="35.1,69.1 36.8,55.9 37.4,49.5 38,47.3 43.1,45.4 57.2,42.5 62.7,39.4 68.4,35.2 69.1,33.9 
			70.7,28.4 70.7,23.5 65.8,14.7 54.6,6.8 41.6,4 31.5,4.4 23.7,6.2 11.8,11.6 7.1,16.3 5.2,19.8 4.4,27.1 6.6,34.4 10.2,39.5 
			16.5,42.7 19.1,44 25.2,45.8 31,45.7 31.5,47.3 31.3,51 28.8,64.1 27.9,69.6 30.3,71.7 32.7,71.4 34.6,71.2 		"/>
		<polygon class="st1" points="56.3,27.4 66,24.9 68.4,26.1 66,35.1 55.1,37 52.6,32.8 		"/>
		<path class="st2" d="M41.9,3.3c0.8,0.2,1.6,0.5,2.5,0.7c0.7,0.2,1.4,0.2,2.1,0.3c-0.5,0.2-1,0.3-1.5,0.5c-0.8-0.1-1.6-0.2-2.4-0.2
			c-0.6-0.1-1.3-0.2-1.9-0.3c-0.4-0.1-0.8-0.1-1.2-0.2C39.2,4,39,3.9,38.8,3.8c0.6-0.2,1.1-0.3,1.7-0.5C41,3.3,41.4,3.3,41.9,3.3z"
			/>
		<path class="st3" d="M29.7,4.3c0.9-0.1,1.8-0.3,2.7-0.5c0.4-0.1,0.8-0.3,1.2-0.5c1.1,0,2.1,0,3.2,0c0,0.1,0,0.2,0,0.3
			C36.5,3.7,36.2,4,35.9,4c-0.7,0.1-1.5,0-2.3,0c0.2,0.2,0.3,0.3,0.4,0.5c0,0.2,0,0.3,0,0.5c-0.2,0-0.3,0-0.5,0
			c-0.2-0.2-0.3-0.3-0.5-0.5C31.9,4.5,30.8,4.4,29.7,4.3z"/>
		<path class="st4" d="M4.4,23.2c0-0.1,0-0.1,0.1-0.2c0.5,0,1-0.1,1.6-0.2c-0.2,0.5-0.4,0.9-0.6,1.4c1.6,0.3,0.8,2.6,2.6,2.8
			c0,0,0.1,0.1,0.1,0.2c-0.2,1.7,1,1.7,2.2,1.9c0.7,0.1,1.3,0.3,0.9,1.3c-0.1,0.3,0.4,1.1,0.5,1.1c1.3-0.2,1.7,0.7,2.3,1.6
			c0.8-0.5,1.6-1,2.3-1.5c-0.1,0.6-0.1,1.3-0.2,2.1c0.4-0.1,0.7-0.1,1-0.2c0,0.2,0.1,0.4,0.1,0.6c0.3-0.2,0.6-0.3,0.8-0.4
			c0.6,0.5,0.5,2,1.9,1.5c0.2,0.2,0.5,0.3,0.7,0.5l0,0c0,0.2,0.1,0.4,0.2,1c0.4-0.6,0.7-1,0.9-1.4c0.2,0.8,0.4,1.7,0.6,2.6
			c-0.2,0.2-0.7,0.6-0.7,0.6c-0.7-0.5-1.3-1.1-1.9-1.8c-0.3-0.3-0.5-0.7-0.8-1.1c-0.1,0.1-0.2,0.1-0.3,0.2c0,0.3,0,0.6-0.1,0.8
			c-0.1,0.3-0.3,0.5-0.4,0.7c-0.3-0.2-0.5-0.4-0.8-0.6c-0.3-0.3-0.7-0.6-1-0.8c-0.2,0.4-0.5,0.8-0.7,1.2s-0.3,0.8-0.5,1.2
			c-0.7-0.1-0.9-0.4-0.8-1.2c0.1-0.8,0-1.7,0-2.9c-0.5,0.5-0.7,0.8-1.1,1.2c-0.1-0.6-0.1-0.9-0.1-1c-0.7,0.1-1.3,0.1-1.9,0.3
			c-0.4,0.2-0.9,0.5-1.2,0.9c-0.3,0.3-0.4,0.7-0.5,1.1c-0.6-0.8-1.4-1.4-1.8-2.3c-0.8-1.6-1.3-3.4-2-5c-0.1-0.3-0.5-0.5-0.8-0.7
			c0-0.2,0-0.3,0-0.5c0.1-0.3,0.2-0.6,0.2-0.9C5,26.5,4.8,25.7,4.5,25C4.5,24.4,4.5,23.8,4.4,23.2z M18,36.8
			c0.1-0.1,0.1-0.2,0.1-0.2c0-0.1-0.1-0.1-0.2-0.1C17.9,36.5,18,36.6,18,36.8z"/>
		<path class="st5" d="M17.2,33.5c-0.3,0-0.5,0.1-1,0.2c0.1-0.8,0.1-1.5,0.2-2.1c-0.7,0.5-1.5,1-2.3,1.5c-0.6-0.9-1-1.8-2.3-1.6
			c-0.1,0-0.6-0.8-0.5-1.1c0.3-1-0.3-1.2-0.9-1.3C9.2,29,8,28.9,8.2,27.2c0-0.1,0-0.2-0.1-0.2c-1.7-0.2-1-2.6-2.6-2.8
			c0.2-0.5,0.3-0.9,0.6-1.4C5.5,22.9,5,23,4.6,23c0-0.2,0-0.5,0-0.7c0.5-1,0.9-2,1.4-2.9c0.6,0.3,1.2,0.5,1.7,0.8c0,0.2,0,0.3,0,0.5
			c-0.2,0.8-0.4,1.6-0.5,2.4c-0.1,0.9,0.3,1.2,1.2,1.2c0.5,0,1.1,0.3,1.6,0.6c0.6,0.4,1.1,0.9,1.5,1.5c0.2,0.3,0,0.8,0,1.2
			c0,0.2-0.1,0.5-0.3,0.8c0.5-0.2,0.9-0.3,1.4-0.4c-0.2,0.6-0.3,1.1-0.4,1.6c0,0.3,0.2,0.6,0.3,0.9c0.3-0.1,0.5-0.3,0.8-0.4
			c0.4-0.2,0.7-0.3,1.1-0.5c-0.1,0.3-0.1,0.7-0.3,1.2c0.8-0.3,1.5-0.5,2.2-0.7c0.3,0.4,0.7,0.8,1,1.2c0,0,0,0.1-0.1,0.1
			c0,0,0-0.1,0.1-0.1c0.8,0.6,0.5,1.3,0.2,1.9C17.3,33.3,17.2,33.4,17.2,33.5L17.2,33.5z"/>
		<path class="st6" d="M38,47.3c0,0.2,0,0.5,0,0.7c-0.1,0.4-0.1,0.8-0.2,1.2c0,0.3,0,0.7-0.1,1c-0.1,0.1-0.1,0.1-0.2,0.2
			c0,0.1,0,0.2,0,0.2c0,0.2,0,0.5-0.1,0.7c-0.9,0.7-1.7,2.5-1.7,3.5c0,1.6,0.1,3.2,0.1,4.8c0,0.2,0.3,0.3,0.4,0.5
			c-0.3,2-0.6,4.1-0.8,6.1c-0.1,0.8,0,1.5-0.1,2.3c-0.1,0.9-0.1,1.8-0.3,2.6c-0.2,1-0.9,0.5-1.4,0.4c0.1-0.4,0.1-0.9,0.2-1.3
			c0.2-1.2,0.4-2.4,0.5-3.6c0.1-2.5,0.1-5,0-7.5c0-0.4,0.5-1.5-0.7-1.5c0.1-0.6,0.2-1.1,0.3-1.7c0.7-1.8,1.5-3.6,2.2-5.4
			c0.2-0.5,0-1.2,0.3-1.5c0.8-0.7,0.3-1.4,0.2-2.1C37.1,47.2,37.6,47.2,38,47.3z"/>
		<path class="st7" d="M29.4,71.2c-1.4-0.6-1.9-1.8-1.5-3.8c0.2-1,0.4-2,0.6-3.1c0.1-0.1,0.2-0.2,0.3-0.2c0.3-0.2,0.8-0.3,0.9-0.5
			c0.2-1.4,0.1-2.7,0.7-4c0-0.1-0.4-0.4-0.6-0.5c0-0.1,0-0.2,0-0.3c0-0.2,0-0.3,0.1-0.5c0.1-0.3,0.1-0.7,0.2-1c0-0.5,0.1-1,0.1-1.4
			c0.2,0,0.4,0,0.7,0c0,0.3,0.1,0.6,0.1,0.9c-0.2,1.4,0.1,2.6,1.1,3.5c0.1,0.6,0.1,1.1,0.2,1.7c0,0.6,0,1.1,0,1.7
			c-0.4,0.7-1,1.3-1.1,2.1c-0.3,1.2-0.3,2.5-0.6,3.7C30.3,70,29.8,70.6,29.4,71.2z"/>
		<path class="st8" d="M65,14.5c3,1.9,4.3,4.8,5.3,8.1c-1.1,0.6-0.4-0.7-0.7-0.7c-0.3,0.2-0.5,0.3-0.7,0.5c-0.2-0.6-0.2-1.3-0.6-1.8
			c-1.2-1.4-2.5-2.7-3.8-4c-0.2-0.2-0.4-0.3-0.6-0.5c-0.6-0.4-1.1-0.7-1.9-1.2c0.1,0-0.2,0.1-0.4,0.2l0,0c0-0.1,0-0.2,0-0.2
			c0.1-0.9-0.5-1-1.2-1l0,0c-0.4-0.5-1.3-0.7-1-1.7c0.2-0.1,0.5-0.2,0.7-0.3c0.7,0.4,1.5,0.8,2.2,1.2c0.8,0.5,1.5,1.1,2.3,1.7
			C64.6,14.7,64.8,14.6,65,14.5z"/>
		<path class="st9" d="M21.2,44.3c-0.1,0-0.1,0-0.2-0.1c0-0.3,0-0.7,0-1c0.6-0.1,0.5-0.4,0.2-0.8c-0.5-0.7-0.1-1.2,0.6-1.4
			c0.3-0.1,0.6-0.2,0.9-0.3c1.1,0.6,1.4-0.1,1.7-1c0,0.6,0.1,1.2,0.1,2.1c0.4-0.9,0.8-1.4,1.4-0.6c0.4,0.8,0.7,1.6,1.1,2.4
			c1,0.3,2,0.5,3.1,0.8c-0.4,0.3-0.7,0.6-1.1,0.9c-0.3,0.2-0.6,0.4-0.8,0.6c-0.6-0.1-1.1-0.2-1.7-0.3c-0.2-0.1-0.3-0.2-0.5-0.3
			c-0.3-0.1-0.6-0.2-0.9-0.3c0-0.1-0.1-0.2-0.1-0.4c-0.1-0.2-0.1-0.4-0.2-0.6c-0.2,0.1-0.4,0.2-0.5,0.3c-0.2,0-0.5,0-0.7,0
			c-0.3-0.1-0.7-0.1-1-0.2C22.1,44.3,21.6,44.3,21.2,44.3z"/>
		<path class="st10" d="M53,44.1c-0.2,0-0.5,0.1-0.7,0.1c-0.4-0.1-0.8-0.2-1.3-0.3c-0.3-0.1-0.6-0.1-0.9-0.2
			c-0.6-0.2-0.6-1.6-1.5-0.9C47.8,42.4,47,42,46,41.5c0.1,0.6,0.1,1.2,0.2,1.8c-0.3,0-0.6,0.1-0.9,0.1c0-0.6,0-1.1,0-1.7
			c0-0.6,0-1.2,0-1.8c0-0.2,0-0.3,0-0.5c0.7,0.2,1.4,0.5,2.1,0.7c0-0.1,0-0.4,0.1-0.6c0.5,0.3,0.9,0.7,1.4,1
			c0.1,0.2,0.2,0.3,0.3,0.5c0.1-0.1,0.2-0.2,0.3-0.3c0.5,0.2,1.1,0.4,1.7,0.6c0-0.5,0-1,0-1.4c0.1,0.2,0.2,0.3,0.3,0.5
			c0.6,0.9,1.2,1.7,2.1,2.9c0.2-0.9,0.4-1.5,0.6-2.2c0.2,0.1,0.4,0.3,0.6,0.5c0.2-0.4,0.3-0.8,0.4-1.1c0.1,0.7,0.2,1.5,0.3,2.2
			c-0.2,0-0.4,0-0.5,0.1C54,43,53.4,43.3,53,44.1z M51.3,41.9C51.3,41.9,51.2,41.9,51.3,41.9c-0.1,0.1,0,0.2,0,0.2s0.1,0,0.1-0.1
			C51.3,42,51.3,41.9,51.3,41.9z"/>
		<path class="st5" d="M5,28.6c0.3,0.2,0.6,0.4,0.8,0.7c0.7,1.7,1.2,3.4,2,5c0.4,0.9,1.2,1.5,1.8,2.3c0,0.1,0,0.2,0,0.2
			c-0.1,0.8,0.4,0.7,1,0.7c0.2,0.4,0.5,0.8,0.7,1.2c0.3,0.6,0.6,1.2,0.8,1.7c0.4-0.3,0.8-0.5,1.1-0.7c0.2,0.3,0.4,0.7,0.6,1
			c0.1,0.2,0.2,0.5,0.3,0.8c-0.8-0.2-1.6-0.3-2.4-0.5l0,0c-0.2-0.2-0.5-0.3-0.7-0.5c-0.1,0-0.1-0.1-0.2-0.1
			c-0.2-0.3-0.4-0.6-0.6-0.9c-0.2-0.2-0.4-0.4-0.6-0.6c-0.3-0.2-0.5-0.4-0.8-0.6l0,0c-0.2-0.3-0.4-0.7-0.6-1v-0.1
			c-0.3-0.5-0.6-0.9-1-1.4c-0.1,0-0.1-0.1-0.1-0.2c0-0.3,0.1-0.7,0-1C6.1,32.8,4.1,31.2,5,28.6z"/>
		<path class="st11" d="M33.6,57.8c1.2,0,0.7,1,0.7,1.5c0.1,2.5,0.1,5,0,7.5c0,1.2-0.3,2.4-0.5,3.6c-0.1,0.4-0.1,0.9-0.2,1.3
			c-0.3,0-0.6,0-1,0c0-0.1,0-0.2,0-0.2c0.2-2.6,0.3-5.3,0.4-7.9c0-0.5-0.3-1-0.4-1.5c0-0.2,0-0.5,0-0.7c0.1-0.3,0.3-0.5,0.4-0.8
			c0-0.7,0-1.5,0-2.2c0.1-0.2,0.1-0.3,0.2-0.5h0.1L33.6,57.8z"/>
		<path class="st12" d="M6,19.3c-0.5,1-0.9,2-1.4,2.9c0.3-1,0.4-2,0.8-2.9c1.2-2.8,2.7-5.4,5.3-7.2c1-0.7,2-1.5,3-2.3
			c0.2-0.1,0.4-0.3,0.5-0.4c0.1,0,0.1-0.1,0.2-0.1c0.5-0.3,1-0.6,1.5-0.9c0.1,0,0.1-0.1,0.2-0.1c0.3,0,0.7,0,1,0
			C17,9.6,15.6,9.5,14.9,10c-0.3,0.2-0.9,0.3-1,0.6c-0.5,1.5-2.1,1.6-3.1,2.4c-0.2,0.1-0.3,0.2-0.5,0.2c-0.4,0.3-0.8,0.6-1.2,0.9
			c-0.8,1.3-1.6,2.6-2.5,3.9C6.5,18.5,6.2,18.9,6,19.3z"/>
		<path class="st13" d="M45.1,4.8c0.5-0.2,1-0.3,1.5-0.5C51,5.1,55.2,6.8,59,9.2c0.4,0.2,0.6,0.6,0.9,0.9c-0.8-0.2-1.6-0.5-2.5-0.7
			c-0.1-0.1-0.2-0.2-0.2-0.2c-0.3-0.9-1.5-1.3-2.7-1c0-0.9-0.6-0.9-1.2-1C53.2,7.1,53,7,52.9,6.9c-2.6-0.8-5.2-1.9-8.1-1.7
			C44.9,5,45,4.9,45.1,4.8z"/>
		<path class="st14" d="M66.7,36.6c-0.5,1.5-2,1.8-3,2.7c-0.1,0.1-0.4,0-0.4,0.1c-1.5,2.3-4.2,2.4-6.3,3.5c-0.2,0.1-0.5,0.1-0.7,0.2
			c0.2-0.2,0.3-0.5,0.5-0.7c0.6-0.3,1.1-0.5,1.7-0.8c0.3-0.2,0.5-0.3,0.8-0.5c0.1-0.1,0.2-0.1,0.3-0.2c1,0.2,1.8-0.3,2.2-1.2
			c0-0.1,0-0.1,0-0.2c0.2-0.2,0.3-0.6,0.5-0.7c0.1-0.1,0.4,0,0.7,0h-0.1v0.1l0.1-0.1c0.2-0.2,0.3-0.3,0.5-0.5
			c0.1,0.1,0.2,0.1,0.3,0.2c0,0,0-0.1,0.1-0.1c-0.1,0-0.2-0.1-0.3-0.1c0-0.2,0-0.3,0-0.5c0.7-0.4,1.4-0.9,2.2-1.3
			C65.9,36.6,66.3,36.6,66.7,36.6z"/>
		<path class="st15" d="M68.9,22.3c0.2-0.1,0.4-0.3,0.7-0.5c0.3,0-0.4,1.4,0.7,0.7c1.2,2.9,1.5,5.8,0,8.7c-0.2-0.1-0.3-0.1-0.5-0.2
			c0.1-0.3,0.3-0.6,0.4-0.9c0.1-1,1-2.1-0.4-2.8c-0.2-0.8-0.3-1.6-0.5-2.4c-0.1-0.4-0.2-0.8-0.3-1.2C69,23.3,68.9,22.8,68.9,22.3z"
			/>
		<path class="st4" d="M29.4,71.2c0.4-0.6,0.9-1.2,1-1.9c0.3-1.2,0.3-2.5,0.6-3.7c0.2-0.7,0.7-1.4,1.1-2.1c-0.2,2.6-0.5,5.2-0.7,7.8
			c0,0.1,0,0.2-0.1,0.3C30.6,72,30,71.9,29.4,71.2z"/>
		<path class="st16" d="M5,28.6c-0.9,2.6,1.1,4.2,2.2,6.1c0.1,0.2,0,0.6,0,1C6.1,33.8,5,31.8,4,29.8c-0.9-1.8,0-3.6-0.1-5.4
			c0-0.4,0.3-0.9,0.5-1.3c0,0.6,0.1,1.2,0.1,1.8c-0.1,0.4-0.2,0.9-0.1,1.3c0.1,0.6,0.4,1.3,0.6,1.9C5,28.3,5,28.5,5,28.6z"/>
		<path class="st17" d="M36.3,60.2c-0.1-0.2-0.4-0.3-0.4-0.5c-0.1-1.6-0.1-3.2-0.1-4.8c0-1,0.8-2.8,1.7-3.5
			c-0.3,2.1-0.5,4.2-0.8,6.4C36.6,58.6,36.4,59.4,36.3,60.2z"/>
		<path class="st3" d="M50.2,43.7c0.3,0.1,0.6,0.1,0.9,0.2c0.4,0.1,0.8,0.2,1.3,0.3c-0.4,0.2-0.7,0.5-1.1,0.4
			c-3.3-0.3-6.3,1.2-9.5,1.6c-0.4,0-0.7,0.1-1.1,0.1c0-0.1,0-0.2,0-0.3c0.4-0.2,0.8-0.5,1.2-0.7c0.1,0,0.1,0,0.2-0.1
			c0.7-0.1,1.5-0.3,2.2-0.4c0.3-0.1,0.6-0.1,0.9-0.2c1.4-0.2,2.8-0.3,4.2-0.6C49.8,44.1,50,43.9,50.2,43.7z"/>
		<path class="st5" d="M21,43.2c0,0.3,0,0.7,0,1c-0.2,0-0.3,0-0.5,0s-0.3-0.1-0.5-0.1c-0.3,0-0.6-0.1-0.9-0.1
			c-0.6-0.2-1.2-0.5-1.8-0.7c-0.1,0-0.1,0-0.2,0c-0.2-0.2-0.4-0.4-0.6-0.5c-0.4-0.2-0.9-0.5-1.3-0.7c0.2-0.2,0.5-0.3,0.7-0.5
			c0.6,1.1,2.3,0.2,2.8,1.6c0.1-0.1,0.3-0.1,0.4-0.2c0.4,0.2,0.8,0.4,1.3,0.5c0.1,0,0.3-0.2,0.4-0.2C20.9,43.2,21,43.2,21,43.2z"/>
		<path class="st16" d="M25,45c0.3,0.1,0.6,0.2,0.9,0.3c0.2,0.1,0.3,0.2,0.5,0.3c0.6,0.1,1.1,0.2,1.7,0.3c0.9,0,1.8,0.1,2.7,0.1
			c0,0.1,0,0.3,0,0.4c-1.3-0.1-2.7,0-4-0.2c-1.2-0.2-2.4-0.6-3.6-0.9c-0.2,0-0.3-0.3-0.4-0.4c0.2-0.1,0.5-0.1,0.7-0.2
			C24,44.8,24.5,44.9,25,45z"/>
		<path class="st18" d="M57.5,9.4c0.8,0.2,1.6,0.5,2.5,0.7c0.2,0.2,0.3,0.3,0.5,0.5c0.3,1,1,1.4,1.9,1.5l0,0c0,0.3,0,0.6,0,1
			c-0.7-0.4-1.5-0.8-2.2-1.2c-0.2-0.2-0.3-0.3-0.5-0.5C58.9,10.7,58.2,10,57.5,9.4z"/>
		<path class="st13" d="M21.8,5.8c2.5-0.5,5-1,7.5-1.5c-0.5,0.2-1,0.4-1.5,0.5c-1,0.3-1.9,0.5-2.9,0.8c-0.2,0.1-0.3,0.2-0.5,0.2
			C23.9,5.9,23.3,6,22.7,6C22.4,6,22.1,5.9,21.8,5.8z"/>
		<path class="st4" d="M29.8,59c0.2,0.2,0.6,0.5,0.6,0.5c-0.6,1.3-0.5,2.7-0.7,4c0,0.2-0.6,0.3-0.9,0.5c0-0.6,0-1.3,0.1-1.9
			c0-0.2,0-0.3,0.1-0.5c0.1-0.4,0.2-0.8,0.3-1.2c0.1-0.5,0.2-1,0.3-1.4C29.7,59,29.7,59,29.8,59z"/>
		<path class="st6" d="M66.7,36.6c-0.4,0-0.8-0.1-1.2-0.1c-0.2-0.3-0.5-0.6-0.7-0.8c-0.2-0.5,0.3-1.5,0.5-1.3
			c0.6,0.8,0.5-0.3,0.7-0.3c0.3,0.4,0.6,0.8,0.9,1.3c0.1,0.1,0.2,0.1,0.3,0.2c0,0.3,0,0.7,0,1l0,0c-0.1,0-0.2,0-0.3,0
			C66.9,36.7,66.8,36.7,66.7,36.6z"/>
		<path class="st2" d="M24.9,5.6c1-0.3,1.9-0.5,2.9-0.8c0.5-0.1,1-0.3,1.5-0.5c0.1,0,0.3,0,0.4,0c1.1,0.1,2.1,0.2,3.2,0.3
			c-0.7,0.1-1.5,0.2-2.2,0.2c-0.3,0.1-0.6,0.2-1,0.2c-0.1,0-0.2,0-0.2,0c-1.2,0.2-2.4,0.4-3.7,0.6C25.6,5.6,25.3,5.6,24.9,5.6z"/>
		<path class="st13" d="M69.9,31c0.2,0.1,0.3,0.1,0.5,0.2c0.1,0.9-0.1,1.6-0.8,2.3c-0.5,0.5-0.8,1.1-1.1,1.7
			c-0.1-0.2-0.2-0.3-0.2-0.5l0,0c-0.1-0.2-0.1-0.5-0.2-0.7c0.4-0.4,0.8-0.8,1.2-1.2C69.4,32.2,69.6,31.6,69.9,31z"/>
		<path class="st16" d="M15.2,42c0.4,0.2,0.9,0.4,1.3,0.7c0.2,0.1,0.4,0.3,0.6,0.5c-1.8-0.7-3.6-1.5-5.3-2.2
			c0.8,0.2,1.6,0.3,2.4,0.5C14.5,41.7,14.9,41.9,15.2,42z"/>
		<path class="st3" d="M17.1,8.4c-0.3,0-0.7,0-1,0c1.6-0.7,3.1-1.4,4.7-2.1c0,0.1,0,0.2,0,0.2C19.6,7.1,18.4,7.7,17.1,8.4z"/>
		<path class="st7" d="M31.2,46.8c0-0.1,0-0.1,0-0.2c0.2,0,0.3,0,0.5,0c0.2,0.9,0.3,1.7,0.4,2.6c0,0.2-0.4,0.4-0.7,0.6
			c-0.2-0.1-0.3-0.2-0.5-0.2c0-0.8,0.1-1.6,0.1-2.4C31.1,47,31.2,46.9,31.2,46.8z"/>
		<path class="st17" d="M56.8,42.5c-0.2,0.2-0.3,0.5-0.5,0.7c-1.1,0.3-2.1,0.6-3.2,0.9c0.3-0.8,1-1.1,1.8-1.2c0.2,0,0.4-0.1,0.5-0.1
			C55.8,42.7,56.3,42.6,56.8,42.5z"/>
		<path class="st19" d="M38,47.3c-0.5-0.1-0.9-0.2-1.4-0.3c-0.1-0.1-0.2-0.1-0.3-0.2c0.5-0.2,0.7-1.1,1.4-0.5l0,0c0.1,0,0.2,0,0.4,0
			c0.1-0.1,0.3-0.2,0.4-0.4c0.1,0,0.2,0,0.2,0h0.1c0,0.1,0,0.3,0.1,0.4c0,0.2,0,0.5,0,0.7c-0.1,0-0.1,0.1-0.2,0.1
			c-0.2,0-0.4,0.1-0.6,0.1C38.2,47.3,38.1,47.3,38,47.3z"/>
		<path class="st20" d="M62.3,13c0-0.3,0-0.6,0-1c0.9,0.8,1.8,1.6,2.6,2.4c-0.2,0.1-0.3,0.2-0.3,0.2C63.9,14.1,63.1,13.6,62.3,13z"
			/>
		<path class="st4" d="M31,49.5c0.2,0.1,0.3,0.2,0.5,0.2c-0.1,0.7-0.2,1.5-0.3,2.2c-0.3,0.3-0.6,0.7-0.9,1
			C30.6,51.8,30.8,50.7,31,49.5z"/>
		<path class="st12" d="M20.8,6.5c0-0.1,0-0.2,0-0.2c0.3-0.2,0.7-0.3,1-0.5C22.1,5.9,22.4,6,22.7,6c0.6,0,1.2-0.1,1.8-0.2
			C23.6,6,22.8,6.2,22,6.5C21.6,6.5,21.2,6.5,20.8,6.5z"/>
		<path class="st20" d="M62.3,12.1c-1-0.1-1.7-0.5-1.9-1.5C61,11.1,61.7,11.6,62.3,12.1z"/>
		<path class="st7" d="M30.3,52.9c0.3-0.3,0.6-0.7,0.9-1c-0.1,0.7-0.2,1.3-0.2,2c-0.2-0.1-0.5-0.2-0.7-0.3
			C30.3,53.4,30.3,53.2,30.3,52.9z"/>
		<path class="st16" d="M17.3,43.3c0.6,0.2,1.2,0.5,1.8,0.7C18.4,44.2,17.7,44,17.3,43.3z"/>
		<path class="st21" d="M68.2,34.7c0.1,0.2,0.2,0.3,0.2,0.5c-0.1,0.2-0.1,0.3-0.2,0.5c-0.1,0.1-0.2,0.2-0.3,0.2l0,0
			c-0.1,0.2-0.2,0.3-0.2,0.5c-0.1,0.1-0.3,0.2-0.4,0.2c0-0.3,0-0.7,0-1C67.5,35.3,67.8,35,68.2,34.7z"/>
		<path class="st5" d="M28.9,62.2c0,0.6,0,1.3-0.1,1.9c-0.1,0.1-0.2,0.2-0.3,0.2C28.6,63.6,28.8,62.9,28.9,62.2z"/>
		<path class="st22" d="M31.7,46.6c-0.2,0-0.3,0-0.5,0c-0.2-0.1-0.3-0.1-0.5-0.2c0-0.1,0-0.3,0-0.4c0.4,0,0.8-0.1,1.2-0.1
			c0,0.2,0,0.3,0.1,0.5C31.9,46.4,31.8,46.5,31.7,46.6z"/>
		<path class="st16" d="M7.3,35.9c0.3,0.5,0.6,0.9,1,1.4C7.9,36.8,7.6,36.3,7.3,35.9z"/>
		<path class="st3" d="M16,8.5c-0.5,0.3-1,0.6-1.5,0.9C15,9.1,15.5,8.8,16,8.5z"/>
		<path class="st7" d="M23.5,44.7c-0.2,0.1-0.5,0.1-0.7,0.2c-0.1,0-0.1-0.1-0.2-0.1c0-0.2-0.1-0.4-0.1-0.5c0.3,0.1,0.7,0.1,1,0.2
			C23.5,44.5,23.5,44.6,23.5,44.7z"/>
		<path class="st4" d="M30.8,55.8c-0.2,0-0.4,0-0.7,0c0-0.3,0-0.7,0-1c0.2,0,0.4,0,0.7,0C30.8,55.2,30.8,55.5,30.8,55.8z"/>
		<path class="st3" d="M39,47.1c0-0.2,0-0.5,0-0.7c0.1,0,0.2,0,0.2,0c0.3,0,0.6,0,1,0l0.1,0.1C39.9,46.7,39.5,46.9,39,47.1z"/>
		<path class="st16" d="M22.5,44.2c0,0.2,0.1,0.4,0.1,0.5c-0.5-0.2-0.9-0.3-1.4-0.5C21.6,44.3,22.1,44.3,22.5,44.2z"/>
		<path class="st16" d="M8.3,37.3c0.2,0.3,0.4,0.7,0.6,1C8.7,38,8.5,37.7,8.3,37.3z"/>
		<path class="st4" d="M30.3,53.7c0.2,0.1,0.5,0.2,0.7,0.3c0,0.2,0,0.3,0,0.5c-0.3,0-0.6,0-0.9,0C30.1,54.1,30.2,53.9,30.3,53.7z"/>
		<path class="st5" d="M29.3,60.5c-0.1,0.4-0.2,0.8-0.3,1.2C29.1,61.3,29.2,60.9,29.3,60.5z"/>
		<path class="st16" d="M10.2,39.5c0.2,0.3,0.4,0.6,0.6,0.9C10.7,40.1,10.5,39.8,10.2,39.5z"/>
		<path class="st4" d="M30,57.3c-0.1,0.3-0.1,0.7-0.2,1C29.9,58,29.9,57.6,30,57.3z"/>
		<path class="st7" d="M30.1,54.4c0.3,0,0.6,0,0.9,0c-0.1,0.2-0.2,0.3-0.2,0.5c-0.2,0-0.4,0-0.7,0C30.1,54.7,30.1,54.6,30.1,54.4z"
			/>
		<path class="st19" d="M37.8,49.3c0.1-0.4,0.1-0.8,0.2-1.2C37.9,48.5,37.9,48.9,37.8,49.3z"/>
		<path class="st6" d="M31.4,71.7c0-0.1,0-0.2,0.1-0.3c0.4,0,0.8,0,1.2,0c0,0.1,0,0.2,0,0.2C32.3,71.6,31.9,71.7,31.4,71.7z"/>
		<path class="st16" d="M8.9,38.4c0.3,0.2,0.5,0.4,0.8,0.6C9.4,38.7,9.1,38.6,8.9,38.4z"/>
		<path class="st16" d="M11.1,40.5c0.2,0.2,0.5,0.3,0.7,0.5C11.6,40.9,11.3,40.7,11.1,40.5z"/>
		<path class="st3" d="M38.3,47.3c0.2,0,0.4-0.1,0.6-0.1C38.7,47.2,38.5,47.3,38.3,47.3z"/>
		<path class="st3" d="M14.3,9.4c-0.2,0.1-0.4,0.3-0.5,0.4C13.9,9.7,14.1,9.6,14.3,9.4z"/>
		<path class="st16" d="M20.1,44.1c0.2,0,0.3,0.1,0.5,0.1C20.4,44.2,20.3,44.1,20.1,44.1z"/>
		<path class="st23" d="M67.7,36.4c0.1-0.2,0.2-0.3,0.2-0.5C67.8,36.1,67.7,36.2,67.7,36.4z"/>
		<path class="st3" d="M40.4,46.4L40.4,46.4h-0.2c0-0.1,0-0.3,0-0.4c0.1,0,0.1,0,0.2,0c0,0.1,0,0.1,0,0.2
			C40.5,46.2,40.5,46.3,40.4,46.4z"/>
		<path class="st19" d="M40.4,46.4c0-0.1,0-0.2,0.1-0.3c0.1,0,0.1,0,0.2,0c0,0.1,0,0.2,0,0.3C40.6,46.4,40.5,46.4,40.4,46.4z"/>
		<path class="st23" d="M67.9,35.9c0.1-0.1,0.2-0.2,0.3-0.2C68.1,35.7,68,35.8,67.9,35.9z"/>
		<path class="st4" d="M31.2,46.8c0,0.1-0.1,0.2-0.1,0.3C31.1,47,31.2,46.9,31.2,46.8z"/>
		<path class="st23" d="M66.9,36.7c0.1,0,0.2,0,0.3,0C67.1,36.7,67,36.7,66.9,36.7z"/>
		<path class="st19" d="M37.6,50.5c0.1-0.1,0.1-0.1,0.2-0.2c0,0.1,0,0.1,0,0.2C37.7,50.5,37.6,50.5,37.6,50.5z"/>
		<path class="st17" d="M37.6,50.5c0.1,0,0.1,0,0.2,0c-0.1,0.1-0.1,0.2-0.2,0.2C37.6,50.6,37.6,50.6,37.6,50.5z"/>
		<path class="st5" d="M29.8,59c-0.1,0-0.1,0-0.2,0c0.1-0.1,0.1-0.2,0.2-0.3C29.8,58.8,29.8,58.9,29.8,59z"/>
		<path class="st0" d="M39.5,4.1c0.4,0.1,0.8,0.1,1.2,0.2c-0.3,0.2-0.7,0.5-1,0.7c-0.1,0.5-0.2,1-0.2,1.5c0,0.2,0,0.3,0,0.5
			c-1.3,0.4-0.5,1.1-0.2,1.7s0.5,0.9-0.5,0.8c0,0.4,0.1,0.7,0.1,1c0.6-0.1,1.1-0.2,1.6-0.3c0.3,0.4,0.7,0.8,1,1.2
			c-0.3,1.4,0,1.8,1.1,2.3c0.2,0.1,0.4,0.3,0.6,0.4c0,1.5,0.4,2,2,2.3c-0.2,0.4-0.3,0.8-0.6,1.1c-0.3,0.3-0.8,0.5-1.2,0.8
			c0,0.1,0.1,0.3,0.1,0.6c-0.3,0.3-0.7,0.6-1,1c-0.2-0.1-0.3-0.2-0.5-0.3c-0.1-0.6-0.2-1.1-0.2-1.7c0-0.4,0-0.8,0-1.2
			c-0.1-0.8-0.4-1.4-1.2-0.9c0-1.3,0-2.5,0-3.8c-0.2,0-0.3,0-0.5,0c-0.2,2.9-0.5,5.7-0.7,8.6c-0.2,0.5-0.5,0.9-0.6,1.2
			c-0.5,0-1.1,0-1.6,0c-0.1-0.6-0.2-1.3-0.2-1.9c-0.4,0.1-0.8,0.2-1.2,0.3c0.1,0.5,0.2,1,0.3,1.4c-0.1,0.2-0.2,0.3-0.2,0.5
			c-1,0.2-1.1-0.3-0.8-1.1c0.2-0.7,0.5-1.4-0.7-1.3c0.2-1.5,0.3-2.9,0.5-4.4c0-0.1,0-0.2,0-0.2l0,0c0.1-0.1,0.2-0.2,0.2-0.2
			c0-0.2,0-0.5,0-0.7c0.2-0.4,0.5-0.8,0.7-1.2c0.3,0.1,0.8,0.3,0.8,0.2c0.6-0.9,1.4-1.7,1.7-2.7c0.2-0.5,0.2-1.5-0.8-1.6
			c0-0.4,0-0.8-0.1-1.2c0.2-0.3,0.3-0.6,0.5-1C38.3,5.7,38.9,4.9,39.5,4.1z"/>
		<path class="st0" d="M45.1,4.8C45,4.9,44.9,5,44.8,5.3c2.9-0.2,5.5,0.9,8.1,1.7c-0.1,0.2-0.2,0.5-0.3,0.7c-0.3,0-0.6-0.1-0.9-0.1
			c-1.7-0.3-3.4-0.9-5.1-0.8c-1.7,0.1-2.8-0.9-4.2-1.3c0.1-0.3,0.2-0.6,0.2-1C43.5,4.6,44.3,4.7,45.1,4.8z"/>
		<path class="st3" d="M42.7,4.5c-0.1,0.3-0.2,0.6-0.2,1c-0.3,0.1-0.6,0.2-1,0.2c-0.4-0.1-0.8-0.2-1.3-0.3c0,0.4,0,0.7,0,1
			c-0.2,0-0.5,0-0.7,0c0.1-0.5,0.2-1,0.2-1.5c0.3-0.2,0.6-0.5,1-0.7C41.4,4.4,42,4.5,42.7,4.5z"/>
		<path class="st16" d="M39.5,4.1c-0.6,0.8-1.1,1.6-1.7,2.4c-0.2-0.1-0.3-0.2-0.5-0.3c0-0.1,0-0.2,0-0.2c1.2-0.4,0.5-1.1,0.3-1.7
			c0.1-0.1,0.1-0.2,0.2-0.3c0-0.1,0.1-0.2,0.1-0.4c0.3,0,0.6,0.1,0.9,0.1C39,3.9,39.2,4,39.5,4.1z"/>
		<path class="st16" d="M22,6.5c0.8-0.2,1.6-0.5,2.4-0.7c0.2-0.1,0.3-0.2,0.5-0.2c0.3,0,0.6,0,0.9,0C26.1,5.7,26.3,6,26.5,6
			c0.8,0,1.5-0.1,2.3-0.3c0.3-0.1,0.5-0.4,0.7-0.7c0.1,0,0.2,0,0.2,0c0.3-0.1,0.6-0.2,1-0.2c0.7-0.1,1.5-0.2,2.2-0.2
			c0.2,0.2,0.3,0.3,0.5,0.5c-0.1,0.2-0.1,0.6-0.3,0.7c-0.8,0.5-1.6,0.8-2.4,1.2c-1.2,0-2.4-0.1-3.6-0.1c-0.4,0-0.8,0.2-1.3,0.4l0,0
			c-0.2,0-0.5,0-0.7,0c-0.8,0-1.6,0.1-2.4,0C22.5,7.1,22.3,6.7,22,6.5z"/>
		<path class="st22" d="M30.8,7c0.8-0.4,1.6-0.8,2.4-1.2c0.2-0.1,0.2-0.5,0.3-0.7c0.2,0,0.3,0,0.5,0c0.4-0.1,0.8-0.2,1.3-0.3
			c0.1,0,0.3,0,0.4,0c0.1,0.4,0.2,0.8,0.2,1.2c-0.5,0.2-0.9,0.6-1.4,0.7c-1.2,0.4-2.5,0.8-3.7,1.2C30.8,7.6,30.8,7.3,30.8,7z"/>
		<path class="st2" d="M37.9,3.7c0,0.1-0.1,0.2-0.1,0.4c-0.7,0.2-1.4,0.4-2.2,0.5c-0.2,0-0.3-0.1-0.5-0.1c-0.4,0-0.8,0-1.2,0
			c-0.1-0.1-0.2-0.2-0.4-0.5c0.8,0,1.6,0,2.3,0c0.3,0,0.6-0.3,0.9-0.4C37.2,3.6,37.5,3.6,37.9,3.7z"/>
		<path class="st16" d="M33.9,4.5c0.4,0,0.8,0,1.2,0c0,0.1,0,0.2,0,0.3c-0.4,0.1-0.8,0.2-1.3,0.3C33.9,4.8,33.9,4.7,33.9,4.5z"/>
		<path class="st7" d="M15.2,42c-0.3-0.2-0.7-0.3-1-0.5c-0.1-0.3-0.2-0.5-0.3-0.8c-0.2-0.3-0.4-0.7-0.6-1c0.1-1-0.3-1.5-1.3-1.1
			c-0.2,0.1-0.4,0.1-0.6,0.1c-0.2-0.4-0.5-0.8-0.7-1.2c0.1-0.8-0.4-0.8-1-0.7c0-0.1,0-0.2,0-0.2c0.2-0.4,0.3-0.8,0.5-1.1
			c0.3-0.4,0.7-0.7,1.2-0.9c0.6-0.2,1.2-0.2,1.9-0.3c0,0.1,0.1,0.5,0.1,1c0.4-0.4,0.6-0.7,1.1-1.2c0,1.1,0.1,2,0,2.9
			c-0.1,0.8,0.1,1,0.8,1.2C15.1,38.9,15,39.4,15,40c0,0.3,0.2,0.5,0.4,0.8c0.3-0.2,0.7-0.3,0.8-0.6c0.2-0.8,0.3-1.6,0.3-2.4
			c0-0.2-0.4-0.5-0.7-0.7c0.2-0.4,0.5-0.8,0.7-1.2c0.3,0.3,0.7,0.6,1,0.8s0.5,0.4,0.8,0.6c0.1-0.2,0.3-0.5,0.4-0.7
			c0.1-0.3,0.1-0.5,0.1-0.8c0.1-0.1,0.2-0.1,0.3-0.2c0.3,0.4,0.5,0.8,0.8,1.1c0.6,0.6,1.3,1.2,1.9,1.8c0,0,0.5-0.4,0.7-0.6
			c0.2,0,0.3,0,0.5,0c0.2,0.5,0.4,1.1,1.2,1c0,0.2,0,0.3,0,0.5c0.1,0.2,0.1,0.3,0.2,0.5c-0.3,0.8-0.6,1.5-1.7,1
			c-0.5-0.5-1-0.9-1.5-1.3c-0.5,0.3-0.8,0.6-1.3,0.9c-0.5-0.7-0.9-1.3-1.4-1.9c-0.1,0.3-0.3,0.6-0.4,0.9c-0.2-0.4-0.3-0.6-0.5-1
			c-0.2,1.1-0.4,1.9-0.7,2.8c1.7-0.4,2.8,0.2,3.4,1.6c-0.4,0.1-0.8,0.2-1.2,0.2c-0.1,0.1-0.3,0.1-0.4,0.2c-0.4-1.4-2.2-0.4-2.8-1.6
			C15.7,41.7,15.4,41.9,15.2,42z"/>
		<path class="st24" d="M17.2,31.3c-0.3-0.4-0.7-0.8-1-1.2c0.3-0.6,0.5-1.3,0.8-1.9c0.1,0,0.2,0,0.2,0c0.2-0.2,0.3-0.3,0.5-0.5
			c0.3,0,0.7,0,0.6,0c0.5-0.6,0.8-0.9,1-1.3c0.3,0.2,0.7,0.3,1,0.5c0.1,0.3,0.2,0.7,0.2,1c-0.1,1-0.2,2.1-0.2,3.1c0,0.2,0,0.5,0,0.7
			c-0.1,0.3-0.2,0.7-0.2,1c-0.2,0.2-0.5,0.5-0.7,0.7l0,0c-0.4,0.1-0.8,0.2-1.2,0.2c-0.3,0.1-0.5,0.3-0.8,0.4c0-0.2-0.1-0.4-0.1-0.6
			l0,0c0.1-0.1,0.2-0.2,0.2-0.3C17.7,32.5,18,31.8,17.2,31.3L17.2,31.3z"/>
		<path class="st24" d="M23,37.9c-0.2,0-0.3,0-0.5,0c-0.2-0.9-0.4-1.8-0.6-2.6c-0.2,0.3-0.5,0.7-0.9,1.4c-0.1-0.5-0.2-0.7-0.2-1
			c0,0,0-0.1,0.1-0.1c0,0,0,0.1-0.1,0.1c-0.2-0.2-0.5-0.3-0.7-0.5c0.5-0.8,1-1.6,1.5-2.4c0-0.5,0-1,0-1.4c0.1-0.1,0.2-0.2,0.3-0.3
			c0.6-0.1,1.3-0.2,1.9-0.2c0,0.1,0,0.2,0,0.2c-0.1,0.1-0.1,0.2-0.2,0.2c-0.2,0.1-0.3,0.2-0.5,0.2c-0.1,0.8-0.3,1.6-0.4,2.4
			c0.3-0.2,0.6-0.5,0.9-0.7c0.3,0.5,0.5,1,0.8,1.5c0.1-0.1,0.3-0.2,0.4-0.4c0,0.5-0.1,0.9-0.1,1.4c0,0.3,0.2,0.5,0.3,0.8
			c0.1,0.5,0.2,0.9,0.3,1.4c0,0.7,0.1,1.4-0.9,1.2c0-0.2,0-0.3,0-0.5c1-0.6,0.1-1.2,0-1.8c-0.1-0.2-0.6-0.3-1-0.5
			C23.1,37.2,23,37.5,23,37.9z"/>
		<path class="st5" d="M21.5,32.7c-0.5,0.8-1,1.6-1.5,2.4c-1.4,0.5-1.3-0.9-1.9-1.5c0.4-0.1,0.8-0.2,1.2-0.2c0,0.2,0,0.4,0,0.5
			c0.1,0,0.2-0.1,0.3-0.1c-0.1-0.1-0.2-0.3-0.3-0.4c0.2-0.2,0.5-0.5,0.7-0.7c0.2-0.3,0.3-0.5,0.5-0.8c0.2-0.1,0.5-0.2,0.7-0.3
			C21.3,32.1,21.4,32.4,21.5,32.7z"/>
		<path class="st25" d="M15.7,37.1c0.2,0.2,0.7,0.5,0.7,0.7c0,0.8-0.1,1.6-0.3,2.4c-0.1,0.2-0.5,0.4-0.8,0.6
			C15.2,40.5,15,40.2,15,40c0-0.6,0.1-1.1,0.2-1.7C15.4,37.9,15.5,37.5,15.7,37.1z"/>
		<path class="st5" d="M5,28.1c-0.2-0.6-0.5-1.3-0.6-1.9c-0.1-0.4,0.1-0.9,0.1-1.3c0.2,0.8,0.5,1.5,0.6,2.3
			C5.2,27.5,5.1,27.8,5,28.1z"/>
		<path class="st7" d="M18,36.8c0-0.2,0-0.3,0-0.4c0.1,0,0.2,0.1,0.2,0.1C18.1,36.6,18,36.6,18,36.8z"/>
		<path class="st22" d="M16.9,28.2c-0.3,0.6-0.5,1.3-0.8,1.9c-0.7,0.2-1.4,0.4-2.2,0.7c0.1-0.5,0.2-0.8,0.3-1.2l0,0
			c0.2-0.1,0.3-0.2,0.5-0.3c0.2,0,0.4-0.1,1-0.2c-0.9-0.8-1.6-1.4-2.1-1.8c-0.4-1-0.8-1.8-1.2-2.6c0.9-0.6,1.8-1.5,2.9-0.2
			c0.2-0.6,0.5-1.1,0.7-1.8c0.6,0.4,1,1.1,1.3,1c0.6-0.1,1-0.7,1.5-1.1h0.1l0,0c-0.2,1.3-1.4,2.6-2.3,2.5c-0.2,0.6-0.3,1.2-0.5,1.8
			C17.2,26.9,16.5,27.8,16.9,28.2z M14.2,24.5c0,0.1-0.1,0.1-0.1,0.2c0.1,0,0.1,0.1,0.2,0.1l0.1-0.1C14.3,24.6,14.2,24.6,14.2,24.5z
			"/>
		<path class="st24" d="M12.6,24.7c0.4,0.8,0.7,1.6,1.2,2.6c0.5,0.4,1.2,1,2.1,1.8c-0.6,0.1-0.8,0.2-1,0.2c0-0.2,0-0.4-0.1-0.6
			c-0.1,0-0.2,0-0.2,0c-0.1,0.3-0.1,0.6-0.2,0.8l0,0c-0.4,0.2-0.7,0.3-1.1,0.5c-0.3,0.1-0.5,0.3-0.8,0.4c-0.1-0.3-0.3-0.6-0.3-0.9
			c0-0.5,0.2-1,0.4-1.6c-0.5,0.1-0.9,0.3-1.4,0.4c0.1-0.3,0.2-0.6,0.3-0.8c0-0.4,0.2-0.9,0-1.2c-0.4-0.6-0.9-1.1-1.5-1.5
			c-0.4-0.3-1-0.6-1.6-0.6c-0.9,0-1.3-0.4-1.2-1.2c0.1-0.8,0.3-1.6,0.5-2.4c0.1,0.4,0.1,0.7,0.2,1.1c0,0.3,0,0.8,0.2,0.9
			c0.3,0.1,0.8,0.1,1.1,0c0.4-0.1,0.6-0.5,0.8-0.6c0.5,0.9,1,1.7,1.4,2.5C11.6,25.5,12.2,24.6,12.6,24.7z"/>
		<path class="st22" d="M11.3,24.5c-0.5-0.8-0.9-1.6-1.4-2.5c-0.1,0.1-0.4,0.5-0.8,0.6c-0.3,0.1-0.8,0.2-1.1,0
			c-0.2-0.1-0.1-0.6-0.2-0.9c-0.1-0.4-0.1-0.7-0.2-1.1c0-0.2,0-0.3,0-0.5c0.6-0.2,0.6-0.4,0.1-0.8c-0.4-0.4-0.8-0.8-1.1-1.2
			c0.8-1.3,1.6-2.6,2.5-3.9C9,14.6,8.9,15,8.9,15.4c-0.1,0.6-0.3,1.3-0.2,1.9c0.2,1.3,0.5,2.6,0.9,4c0.4-0.4,0.9-0.8,1.3-1.2
			c0.2,0.1,0.4,0.3,0.4,0.4c0.1,0.5,0,1.1,0.1,1.7c0.1,0.7,0.3,1.4,0.4,2.1C11.7,24.4,11.5,24.4,11.3,24.5z"/>
		<path class="st24" d="M6.7,18.1c0.4,0.4,0.7,0.8,1.1,1.2c0.4,0.4,0.5,0.6-0.1,0.8c-0.6-0.3-1.2-0.5-1.7-0.8
			C6.2,18.9,6.5,18.5,6.7,18.1z"/>
		<path class="st24" d="M17.2,31.3c0,0,0,0.1-0.1,0.1C17.1,31.3,17.1,31.3,17.2,31.3L17.2,31.3z"/>
		<path class="st4" d="M17.4,33.2c-0.1,0.1-0.2,0.2-0.2,0.3C17.2,33.4,17.3,33.3,17.4,33.2z"/>
		<path class="st10" d="M36.4,46.9c0.1,0.1,0.2,0.1,0.3,0.2c0.1,0.7,0.6,1.4-0.2,2.1c-0.3,0.3-0.2,1-0.3,1.5
			c-0.7,1.8-1.4,3.6-2.2,5.4c0.2-2.4,0.5-4.7,0.7-7.1c0-0.3-0.1-0.6-0.2-1c0.1-0.3,0.1-0.6,0.2-1c0.1,0,0.2-0.1,0.3-0.1
			c-0.1-0.1-0.2-0.2-0.2-0.2c-0.1,0.1-0.2,0.2-0.3,0.3c-0.2-0.2-0.4-0.3-0.6-0.5c0-0.1,0-0.2,0-0.3c0.3,0,0.7,0,1,0
			c0.4,0,0.8,0.2,1.3,0.2C36.2,46.6,36.3,46.8,36.4,46.9z"/>
		<path class="st26" d="M34.5,48c0.1,0.3,0.2,0.6,0.2,1c-0.2,2.4-0.5,4.7-0.7,7.1c-0.1,0.6-0.2,1.1-0.3,1.7h-0.1h-0.1
			c-0.2-0.7-0.7-1.5-0.6-2.1c0.5-1.6-0.4-3.5,1-4.8c0.1-0.1-0.1-0.6,0-0.9C34,49.3,34.2,48.7,34.5,48z"/>
		<path class="st25" d="M34.5,48c-0.2,0.6-0.5,1.2-0.7,1.9c-0.1,0.3,0.2,0.8,0,0.9c-1.4,1.4-0.5,3.3-1,4.8c-0.2,0.6,0.3,1.4,0.6,2.1
			c-0.1,0.2-0.1,0.3-0.2,0.5c-0.1,0-0.3,0-0.4,0c-0.2,0.1-0.5,0.2-0.7,0.3c0,0.6,0,1.1,0,1.7c-1-1-1.3-2.2-1.1-3.5
			c0-0.3,0-0.6-0.1-0.9c0-0.3,0-0.6,0-1c0.1-0.2,0.2-0.3,0.2-0.5s0-0.3,0-0.5c0.1-0.7,0.2-1.3,0.2-2c0.1-0.7,0.2-1.5,0.3-2.2
			c0.2-0.2,0.7-0.4,0.7-0.6c-0.1-0.9-0.3-1.7-0.4-2.6c0.1-0.1,0.2-0.2,0.3-0.3c1.3-0.1,0.5-1.1,0.7-1.7c0-0.1-0.3-0.3-0.5-0.5
			c-0.1,0.2-0.4,0.5-0.4,0.7c0,0.3,0.1,0.7,0.2,1c-0.4,0-0.8,0.1-1.2,0.1c-0.9,0-1.8-0.1-2.7-0.1c0.3-0.2,0.6-0.4,0.8-0.6
			c0.4-0.3,0.8-0.6,1.1-0.9c0.6-0.5,1.1-1,1.7-1.4c0.6,0.2,1.3,0.5,1.9,0.7c0.8,0.6,1.7,1.3,2.5,1.9c0,0.3,0,0.6,0,0.9
			C35.9,46.1,35.5,46,35,46c-0.3,0-0.7,0-1,0c0,0.1,0,0.2,0,0.3c0.2,0.2,0.4,0.3,0.6,0.5c0.1,0,0.2,0,0.2,0
			C34.6,47.4,34.5,47.7,34.5,48z M33.5,44.5c0-0.1,0-0.1,0.1-0.2h-0.1C33.5,44.4,33.5,44.4,33.5,44.5z"/>
		<path class="st10" d="M32.7,71.4c-0.4,0-0.8,0-1.2,0c0.2-2.6,0.5-5.2,0.7-7.8c0-0.6,0-1.1,0-1.7c0.2,0,0.3,0,0.5,0
			c0.2,0.5,0.5,1,0.4,1.5C33,66.1,32.9,68.7,32.7,71.4z"/>
		<path class="st4" d="M32.7,61.9c-0.2,0-0.3,0-0.5,0c-0.1-0.6-0.1-1.1-0.2-1.7c0-0.6,0-1.1,0-1.7c0.2-0.1,0.5-0.2,0.7-0.3
			c0.1,0,0.3,0,0.4,0c0,0.7,0,1.5,0,2.2c-0.1,0.3-0.3,0.5-0.4,0.8C32.7,61.4,32.7,61.7,32.7,61.9z"/>
		<path class="st20" d="M39.5,6.5c0.2,0,0.5,0,0.7,0c0.5,0.5,1,0.9,1.6,1.4C42.6,7,42,6.4,41.4,5.7c0.3-0.1,0.6-0.2,1-0.2
			c1.4,0.4,2.5,1.4,4.2,1.3s3.4,0.5,5.1,0.8c0.3,0.1,0.6,0.1,0.9,0.1c0.3,0.3,0.6,0.8,0.9,0.9C54.8,8.8,56,9,57.2,9.1
			c0.1,0.1,0.2,0.2,0.2,0.2c0.7,0.6,1.5,1.3,2.2,1.9c0.2,0.2,0.3,0.3,0.5,0.5c-0.2,0.1-0.5,0.2-0.7,0.3c-0.1,0-0.2,0-0.2,0
			c-1.7-1.2-3.6-2-5.6-2.4c-0.1-0.1-0.3-0.2-0.4-0.2c-1-0.3-2.1-0.3-3-0.8c-1.5-0.9-3.1-1.2-4.7-1.1c-0.9,0-1.3,0.7-0.8,1.6
			c0.1,0.1,0.1,0.3,0.2,0.5c-0.4,0-0.8,0-1.1,0c0.5,1.8,0.1,2.4,2.9,2.1c-0.1-1-0.1-1.9-0.2-2.9c0.5,0.2,1.3,0.5,2,0.8
			c0.3,0.3,0.5,0.6,0.8,0.8c1.1,0.5,2.3,0.8,3.5,1.2c-0.3,0.5-0.6,1.1-0.9,1.7c-0.4,0.9-1.7,0.6-1.8,0.6c-0.9-0.9-1.9-0.4-2.8-0.3
			c-0.7-0.3-1.3-0.7-2-0.9c-0.1,0-0.4,0.7-0.7,1.1c-0.2,0-0.3,0-0.5,0c-0.3-0.3-0.9-0.7-0.9-1c0.1-1.4-0.9-1.4-1.8-1.4
			c-0.3-0.4-0.7-0.8-1-1.2c0.4-1.3-0.7-2.1-1-3.2C39.5,6.8,39.5,6.6,39.5,6.5z"/>
		<path class="st13" d="M59.2,12.1c0.1,0,0.2,0,0.2,0c-0.3,0.9,0.6,1.2,1,1.7c0,0,0,0.1-0.1,0.1c0,0,0-0.1,0.1-0.1
			c0.7,0,1.3,0,1.2,1c-0.1,0-0.2,0.1-0.3,0.1c0.1,0.1,0.2,0.1,0.3,0.2l0,0c-0.1,0.2-0.2,0.5-0.4,0.8c1.3,0.2,1,1,0.6,1.8
			c-0.2,0-0.5-0.1-0.7-0.1c-0.7-0.3-1.9,0.3-2.2,1.1c-0.3-0.2-0.6-0.3-1-0.5c-0.2-0.1-0.3-0.2-0.5-0.2l0,0c-0.1-0.3-0.2-0.7-0.1-1
			c0.5-1.7,0.3-2-1.3-2.4c0.2-0.3,0.5-0.6,0.7-0.8c-0.3-0.5-0.6-0.9-1-1.5c0.7-0.1,1.3-0.3,1.8-0.3C58.1,11.9,58.6,12,59.2,12.1z
			 M60.1,14.7c-0.1,0.1-0.3,0.3-0.4,0.4c0.2,0.2,0.4,0.3,0.7,0.5c0.1-0.1,0.2-0.2,0.3-0.3C60.4,15,60.3,14.8,60.1,14.7z"/>
		<path class="st14" d="M61.8,17.7c0.4-0.8,0.7-1.6-0.6-1.8c0.1-0.4,0.3-0.6,0.4-0.8c0.2-0.1,0.5-0.2,0.4-0.2
			c0.7,0.5,1.3,0.8,1.9,1.2c0.2,0.1,0.4,0.3,0.6,0.5c1.3,1.3,2.6,2.6,3.8,4c0.4,0.4,0.4,1.2,0.6,1.8c0.1,0.5,0.2,1,0.2,1.5
			c-0.2-0.3-0.5-0.7-0.7-1c-0.1-0.3-0.2-0.6-0.2-1c-0.9-0.9-1.7-1.8-2.6-2.7c-0.9-0.9-1.9-1.4-3.2-1.4C62.2,17.7,62,17.7,61.8,17.7z
			"/>
		<path class="st14" d="M61.6,15c-0.1-0.1-0.2-0.1-0.3-0.2c0.1,0,0.2-0.1,0.3-0.1C61.6,14.8,61.6,14.9,61.6,15z"/>
		<path class="st25" d="M20.3,42.7c-0.5-1.4-1.7-2-3.4-1.6c0.2-0.9,0.4-1.8,0.7-2.8c0.2,0.4,0.3,0.7,0.5,1c0.2-0.4,0.3-0.6,0.4-0.9
			c0.5,0.7,0.9,1.3,1.4,1.9c0.4-0.3,0.8-0.6,1.3-0.9c0.5,0.4,1,0.9,1.5,1.3c-0.3,0.1-0.6,0.2-0.9,0.3c-0.8,0.2-1.1,0.6-0.6,1.4
			c0.3,0.4,0.4,0.7-0.2,0.8c-0.1,0-0.1,0-0.2,0C20.7,43.1,20.5,42.9,20.3,42.7z"/>
		<path class="st7" d="M31.7,43c-0.6,0.5-1.1,1-1.7,1.4c-1-0.3-2-0.5-3.1-0.8c-0.3-0.8-0.7-1.6-1.1-2.4c0.3-0.1,0.6-0.3,0.9-0.4
			c0.1,0.2,0.2,0.5,0.3,0.7c0.3,0.2,0.7,0.4,1.1,0.7c0-0.3,0.1-0.9,0.1-1.5c0.2,0.5,0.3,1,0.5,1.5c0.1,0,0.2,0,0.3,0
			c0-0.3,0.1-0.6,0.1-0.9c0.1,0.3,0.1,0.7,0.2,1c0.2,0.5,0.4,0.9,0.6,1.6c0.3-0.6,0.4-0.9,0.6-1.1c0.2,0,0.3,0,0.5,0
			C31.4,42.8,31.6,42.9,31.7,43z"/>
		<path class="st5" d="M26.8,40.8c-0.3,0.1-0.6,0.3-0.9,0.4c-0.6-0.8-0.9-0.3-1.4,0.6c0-0.9-0.1-1.5-0.1-2.1
			c-0.1-0.2-0.1-0.3-0.2-0.5c1,0.1,1-0.6,0.9-1.2c0.1-0.2,0.2-0.5,0.3-0.7c0.1,0.5,0.2,1,0.3,1.2c0.4-0.1,0.8-0.1,1.1-0.2
			c0,0.3,0,0.6,0.1,0.9C26.9,39.8,26.9,40.3,26.8,40.8z"/>
		<path class="st5" d="M23.5,44.7c0-0.1,0-0.2,0-0.3c0.2,0,0.5,0,0.7,0c0.2,0.1,0.5,0.2,0.7,0.3c0,0.1,0.1,0.2,0.1,0.4
			C24.5,44.9,24,44.8,23.5,44.7z"/>
		<path class="st7" d="M24.9,44.7c-0.2-0.1-0.5-0.2-0.7-0.3c0.2-0.1,0.4-0.2,0.5-0.3C24.8,44.3,24.9,44.5,24.9,44.7z"/>
		<path class="st5" d="M26.4,45.6c-0.2-0.1-0.3-0.2-0.5-0.3C26.1,45.4,26.2,45.5,26.4,45.6z"/>
		<path class="st6" d="M56.8,42.5c-0.5,0.1-1,0.2-1.4,0.3c-0.1-0.7-0.2-1.5-0.3-2.2c1-1.2,0.8,0.6,1.5,0.5c0-0.6,0-1.2,0-1.8
			c0.3,0.1,0.5,0.1,0.6,0.2c0.2-0.5,0.4-0.8,0.6-1.1c0,0.1,0,0.2,0,0c0.1,0.2,0.1,0.1,0,0c0.7-1.3,0.7,0.3,0.9,0.3
			c0.3-0.5,0.5-0.9,0.8-1.3c0.1,0.2,0.1,0.3,0.2,0.5c0.2-0.2,0.3-0.3,0.5-0.4c0.5,0.1,1.1,0.1,1.5,0.2c0,0.6,0,1.3,0,2.1
			c0,0.1,0,0.1,0,0.2c-0.7,0.2-1.3,0.3-2.1,0.5c0,0.1,0,0.4-0.1,0.7c-0.1,0.1-0.2,0.1-0.3,0.2c-0.3,0.2-0.5,0.3-0.8,0.5
			C57.9,42,57.3,42.2,56.8,42.5z"/>
		<path class="st17" d="M47.5,39.6c0,0.3-0.1,0.5-0.1,0.6c-0.7-0.3-1.4-0.5-2.1-0.7c-0.9-0.9-1.1-0.9-1.5,0.3
			c-0.2,0.7-0.2,1.5-0.3,2.3c-0.3,0-0.7,0.1-1.1,0.2c-0.1-0.8-0.2-1.6-0.2-2.4c0.1-0.2,0.1-0.4,0.2-0.6c-0.1,0-0.1,0-0.2,0
			c0,0.2,0,0.4,0,0.6c-1.1-0.2-0.4-0.9-0.3-1.4c0.1-0.4,0.2-0.9,0.3-1.3l0,0h0.1h0.1c0.5,0,1,0,1.5,0c0,0.1,0,0.2,0,0.2
			c-0.1,0.1-0.2,0.2-0.3,0.3c0.1,0,0.1,0.1,0.2,0.1c0.1-0.1,0.1-0.3,0.2-0.4c0.4,0,0.8,0,1.2,0c0.2-0.1,0.5-0.2,0.7-0.2
			C46.4,37.9,47,38.8,47.5,39.6z"/>
		<path class="st11" d="M56.5,39.3c0,0.6,0,1.2,0,1.8c-0.7,0.1-0.5-1.7-1.5-0.5c-0.1,0.4-0.3,0.7-0.4,1.1c-0.2-0.2-0.4-0.4-0.6-0.5
			c-0.2,0.6-0.3,1.2-0.6,2.2c-0.8-1.1-1.4-2-2.1-2.9c0.2-0.6,0.3-1.3,0.5-1.9c0.3-0.1,0.5-0.2,0.8-0.3c0.1,0,0.1,0.1,0.2,0.1
			c0.2,0.5,0.5,1,0.7,1.4c1.5,0.3,2.1-0.1,2.2-1.4c0.2,0.2,0.5,0.5,0.7,0.7c-0.1,0-0.2,0.1-0.3,0.1C56.3,39.2,56.4,39.2,56.5,39.3
			L56.5,39.3z"/>
		<path class="st15" d="M51.9,38.6c-0.2,0.6-0.3,1.3-0.5,1.9c-0.1-0.2-0.2-0.3-0.3-0.5c0-0.2,0-0.5,0-0.5c-0.7,0.1-1.3,0.2-1.9,0.3
			c-0.1,0.3-0.2,0.5-0.3,0.8c-0.5-0.3-0.9-0.7-1.4-1c-0.6-0.8-1.1-1.6-1.7-2.5c0.6,0.2,1.1,0.5,1.7,0.7c0.3,0.1,0.7,0.1,1,0.3
			c0.3,0.1,0.6,0.3,0.9,0.5c-0.1,0.2-0.3,0.4-0.4,0.5c0.1,0,0.2,0.1,0.3,0.1c0-0.2,0.1-0.4,0.1-0.6c0.1-0.1,0.1-0.2,0.2-0.3
			c0.7-0.2,1.5-0.5,2.2-0.7C52.8,37.9,51.7,38.3,51.9,38.6z"/>
		<path class="st26" d="M50.2,43.7c-0.2,0.2-0.4,0.4-0.7,0.5c-1.4,0.2-2.8,0.4-4.2,0.6c-0.1-0.4-0.1-0.8-0.2-1.3c0.1,0,0.1,0,0.2,0
			c0.3,0,0.6-0.1,0.9-0.1c-0.1-0.6-0.1-1.2-0.2-1.8c1,0.5,1.8,0.8,2.7,1.2C49.6,42.1,49.7,43.5,50.2,43.7z M46.6,43.4L46.6,43.4
			C46.6,43.5,46.7,43.5,46.6,43.4C46.7,43.4,46.7,43.4,46.6,43.4C46.7,43.4,46.7,43.4,46.6,43.4z"/>
		<path class="st6" d="M45.3,43.4c-0.1,0-0.1,0-0.2,0c-0.3-0.1-0.7-0.2-1.1-0.3c0,0.4,0.1,0.7,0.1,1c-0.6,0.1-1.3,0.1-1.9,0.2
			c0-0.4,0-0.8,0-1.2c0.1-0.3,0.1-0.6,0.2-0.9c0.4-0.1,0.8-0.1,1.1-0.2c0.1-0.8,0.2-1.6,0.3-2.3c0.3-1.2,0.6-1.2,1.5-0.3
			c0,0.2,0,0.3,0,0.5c-1.3,0-1.4,0.4-0.9,2c0.3-0.1,0.6-0.1,0.9-0.2C45.3,42.3,45.3,42.9,45.3,43.4z"/>
		<path class="st6" d="M49.2,39.8c0.6-0.1,1.3-0.2,1.9-0.3c0,0,0,0.3,0,0.5c0,0.4,0,0.9,0,1.4c-0.6-0.2-1.2-0.4-1.7-0.6
			c-0.1,0-0.2,0-0.2,0C49.2,40.4,49.2,40.1,49.2,39.8z"/>
		<path class="st11" d="M45.3,41.8c-0.3,0.1-0.6,0.1-0.9,0.2c-0.6-1.6-0.4-2,0.9-2C45.3,40.6,45.3,41.2,45.3,41.8z"/>
		<path class="st8" d="M49.2,39.8c0,0.3,0,0.6,0,1c0,0.1,0,0.2,0,0.3c-0.1-0.2-0.2-0.3-0.3-0.5C49,40.3,49.1,40.1,49.2,39.8z"/>
		<path class="st17" d="M49.2,41.1c0-0.1,0-0.2,0-0.3c0.1,0,0.2,0,0.2,0C49.4,40.9,49.3,41,49.2,41.1z"/>
		<path class="st6" d="M51.3,41.9c0,0.1,0,0.1,0.1,0.2c0,0,0,0-0.1,0.1C51.2,42,51.2,42,51.3,41.9C51.2,41.9,51.3,41.9,51.3,41.9z"
			/>
		<path class="st4" d="M11.3,38.8c0.2,0,0.4,0,0.6-0.1c1.1-0.4,1.4,0,1.3,1.1c-0.4,0.2-0.7,0.4-1.1,0.7C11.9,40,11.6,39.4,11.3,38.8
			z"/>
		<path class="st4" d="M9.6,36.9c0.5,0,1.1-0.1,1,0.7C10.1,37.6,9.6,37.6,9.6,36.9z"/>
		<path class="st10" d="M32.7,61.2c0.1-0.3,0.3-0.5,0.4-0.8C33,60.7,32.9,60.9,32.7,61.2z"/>
		<path class="st27" d="M22,6.5c0.3,0.2,0.5,0.7,0.8,0.7c0.8,0.1,1.6,0,2.4,0c0.2,0.8,0.5,0.4,0.7,0l0,0c0.1,0.1,0.4,0.2,0.4,0.2
			c-0.2,1-0.5,1.8-1.7,2c-0.4,0.1-0.8,0.1-1.2,0.3c-0.9,0.4-2,0.7-1.5,2.2c0.2,0.5,0.1,1.5-0.3,1.8c-1.2,1.1-2.5,1.9-3.8,2.9
			c-0.3,0.3-0.6,0.6-1.1,0.9c0.4,0.2,0.7,0.4,0.8,0.4c0.5-0.4,0.8-0.6,1.2-0.9c0.1,0.5,0.1,0.8-0.1,0.9c-1,0.6-1.4,1.5-1.6,2.5
			c-0.1,0.4-0.8,1.1-0.9,1c-1.1-0.5-1.4,0.4-2,0.9c-0.2,0.1-0.5,0.3-0.6,0.2c-0.2-0.2-0.4-0.5-0.3-0.7c0.3-0.7-0.1-0.9-0.5-1.3
			c-0.9-0.7-1.6-1.7-2.3-2.5c0.1-0.3,0.2-0.6,0.2-1c0.1,0,0.3-0.1,0.3-0.1c0-1.3,0-2.5-0.1-3.8c1-0.8,2.6-0.9,3.1-2.4
			c0.1-0.3,0.7-0.3,1-0.6c0.8-0.5,2.1-0.4,2.2-1.7c1.2-0.6,2.4-1.3,3.7-1.9C21.2,6.5,21.6,6.5,22,6.5z M16,20.7L16,20.7
			c0-0.1-0.1-0.1-0.1-0.1C15.9,20.7,15.9,20.7,16,20.7C16,20.8,16,20.7,16,20.7z M13.9,20c-0.1,0-0.1,0-0.2-0.1V20
			C13.8,20,13.8,20,13.9,20z"/>
		<path class="st16" d="M10.6,16.9c-0.1,0.3-0.2,0.6-0.2,1s0,0.9,0.1,1.3c0.1,0.3,0.3,0.6,0.4,0.9c-0.5,0.4-0.9,0.8-1.3,1.2
			c-0.3-1.4-0.7-2.7-0.9-4c-0.1-0.6,0.1-1.3,0.2-1.9c0-0.4,0.1-0.8,0.3-1.2c0.4-0.3,0.8-0.6,1.2-0.9c-0.4,1-0.7,2.1-1,3.1
			C9.8,16.5,10.2,16.7,10.6,16.9z"/>
		<path class="st28" d="M10.6,16.9c-0.4-0.2-0.9-0.4-1.3-0.6c0.3-1,0.7-2,1-3.1c0.2-0.1,0.3-0.2,0.5-0.2c0,1.3,0.1,2.5,0.1,3.8
			C10.9,16.8,10.7,16.9,10.6,16.9z"/>
		<path class="st3" d="M57.2,9.1C56,9,54.8,8.8,53.6,8.6C53.2,8.5,53,8,52.7,7.7C52.8,7.5,52.9,7.2,53,7c0,0,0.2,0.1,0.3,0.2
			c0.4,0.3,0.8,0.7,1.2,1C55.8,7.8,56.9,8.2,57.2,9.1z"/>
		<path class="st0" d="M54.6,8.2c-0.4-0.3-0.8-0.7-1.2-1C54,7.2,54.6,7.3,54.6,8.2z"/>
		<path class="st17" d="M61.6,39.6c0-0.7,0-1.4,0-2.1c-0.4,0-0.9-0.1-1.5-0.2c0.5-0.6,1-1.3,1.4-1.9c0.1-0.2,0.2-0.3,0.3-0.5
			c0.4-0.5,0.7-1,1.1-1.4c0.2-0.2,0.7-0.3,1.1-0.2c0.7,0.1,1.3,0.4,1.9,0.6c0,0.1,0,0.2,0,0.2c-0.3-0.1-0.1,1-0.7,0.3
			c-0.2-0.2-0.7,0.8-0.5,1.3c-0.5,0.4-1.1,0.7-1.6,1.1c0.1,0.4,0.1,0.7,0.2,1.1c0,0.2,0,0.3,0,0.5l0,0c-0.2,0.2-0.3,0.3-0.5,0.5l0,0
			c-0.2,0-0.5-0.1-0.7,0C61.9,39,61.8,39.3,61.6,39.6z M62.4,36.9C62.4,36.9,62.5,36.9,62.4,36.9c0.1-0.1,0.1-0.3,0.1-0.4h-0.1
			C62.4,36.7,62.4,36.8,62.4,36.9z M62.2,35.8L62.2,35.8C62.1,35.8,62.1,35.9,62.2,35.8C62.2,35.9,62.2,35.9,62.2,35.8
			C62.3,35.9,62.2,35.9,62.2,35.8z"/>
		<path class="st15" d="M63.3,37.9c-0.1-0.4-0.1-0.7-0.2-1.1c0.5-0.4,1.1-0.7,1.6-1.1c0.2,0.3,0.5,0.6,0.7,0.8
			C64.8,37,64.1,37.4,63.3,37.9z"/>
		<path class="st15" d="M59.4,41c0-0.3,0-0.6,0.1-0.7c0.8-0.2,1.5-0.3,2.1-0.5C61.3,40.7,60.4,41.2,59.4,41z"/>
		<path class="st15" d="M58.4,41.7c0.3-0.2,0.5-0.3,0.8-0.5C58.9,41.4,58.7,41.6,58.4,41.7z"/>
		<path class="st15" d="M63.3,38.3c0.1,0,0.2,0.1,0.3,0.1c0,0,0,0.1-0.1,0.1C63.5,38.5,63.4,38.4,63.3,38.3L63.3,38.3z"/>
		<path class="st17" d="M62.8,38.8L62.8,38.8L62.8,38.8L62.8,38.8L62.8,38.8z"/>
		<path class="st14" d="M66,33.9c-0.6-0.2-1.3-0.5-1.9-0.6c-0.3-0.1-0.8,0-1.1,0.2c-0.4,0.4-0.7,0.9-1.1,1.4
			c-0.2,0.2-0.3,0.3-0.5,0.5c-0.3-0.1-0.6-0.2-1-0.2c0.1-0.2,0.1-0.5,0.2-0.6c0.7-0.6,1.4-1,2.1-1.6c0.4-0.4,0.8-0.6,1.5-0.5
			c0.4,0.1,1.2-0.5,1.2-0.7c-0.1-1.5,0.9-2.2,1.8-3.1c0.2-0.2,0.4-0.6,0.7-0.7c1.2-0.5,1.4-0.8,1.2-2c0-0.3,0.2-0.6,0.3-0.9
			c0.2,0.8,0.3,1.6,0.5,2.4c-0.3,0.6-0.7,1.3-1,1.9l0,0c-0.1,0.1-0.2,0.2-0.3,0.3v0.1c-0.1,0-0.3,0.1-0.4,0.1
			c-0.3-0.2-0.5-0.4-1.1-0.9c0.3,1.7,0.2,3.1-1.1,4.1c0-0.1-0.1-0.2-0.1-0.3c0,0-0.1,0-0.1,0.1c0.1,0.1,0.1,0.2,0.2,0.3
			C66,33.3,66,33.6,66,33.9z"/>
		<path class="st21" d="M69.4,25c-0.1,0.3-0.3,0.6-0.3,0.9c0.2,1.2,0,1.6-1.2,2c-0.3,0.1-0.5,0.5-0.7,0.7c0.3-0.8-0.1-1.8,0.9-2.4
			c0.1-0.1,0.1-0.8-0.1-1c-0.4-0.5-1-1-1.5-1.5c-0.2-0.2-0.3-0.5-0.4-0.8c0.3-0.1,0.6-0.4,0.9-0.4c0.5,0,0.9,0.2,1.4,0.3
			c0.2,0.3,0.5,0.7,0.7,1C69.2,24.2,69.3,24.6,69.4,25z"/>
		<path class="st17" d="M68.9,29.3c0.3-0.6,0.7-1.3,1-1.9c1.4,0.8,0.5,1.8,0.4,2.8c0,0.3-0.2,0.6-0.4,0.9c-0.2,0.6-0.5,1.1-0.7,1.7
			c-0.3-1-0.6-1.9-1-2.9c0.1,0,0.3-0.1,0.4-0.1c0.2,0.3,0.3,0.6,0.5,0.9C69.8,30,69.8,29.8,68.9,29.3z"/>
		<path class="st10" d="M42.2,43.1c0,0.4,0,0.8,0,1.2l-0.1,0.1c-0.1,0.3-0.1,0.7-0.2,1c-0.4,0.2-0.8,0.5-1.2,0.7c-0.1,0-0.1,0-0.2,0
			c0-0.1,0-0.1,0-0.2c0.2-0.4,0.4-0.7,0.6-1.1c-0.1,0-0.2,0.1-0.3,0.1c-0.2-0.6-0.5-1.2-0.7-1.8c0.7-0.1,1.4-0.1,2.1-0.2
			C42.2,43,42.2,43.1,42.2,43.1z"/>
		<path class="st11" d="M44.1,44.1c0-0.3-0.1-0.7-0.1-1c0.4,0.1,0.8,0.2,1.1,0.3c0.1,0.4,0.1,0.8,0.2,1.3c-0.3,0.1-0.6,0.1-0.9,0.2
			C44.3,44.7,44.2,44.4,44.1,44.1z"/>
		<path class="st10" d="M44.1,44.1c0.1,0.3,0.2,0.5,0.3,0.8c-0.7,0.1-1.5,0.3-2.2,0.4c0-0.3,0-0.6,0-0.9l0.1-0.1
			C42.9,44.3,43.5,44.2,44.1,44.1z"/>
		<path class="st6" d="M42.1,44.4c0,0.3,0,0.6,0,0.9c-0.1,0-0.1,0-0.2,0.1C42,45.1,42.1,44.8,42.1,44.4z"/>
		<path class="st9" d="M20.3,42.7c0.2,0.2,0.3,0.3,0.5,0.5c-0.1,0.1-0.3,0.3-0.4,0.2c-0.4-0.1-0.9-0.4-1.3-0.5
			C19.5,42.9,19.9,42.8,20.3,42.7z"/>
		<path class="st15" d="M68.2,29.8c0.3,1,0.6,1.9,1,2.9c-0.4,0.4-0.8,0.8-1.2,1.2c-0.1,0-0.1,0-0.2,0c-0.1,0.3-0.2,0.6-0.3,0.9
			c-0.2,0.2-0.4,0.4-0.5,0.5c-0.3-0.4-0.6-0.8-0.9-1.3c0-0.1,0-0.2,0-0.2c0-0.3,0-0.6,0-1l0,0c1.3-0.9,1.4-2.3,1.1-4.1
			C67.7,29.4,67.9,29.6,68.2,29.8z"/>
		<path class="st8" d="M66.9,35.4c0.2-0.2,0.4-0.4,0.5-0.5c0.1,0,0.1,0,0.2,0c0.2-0.1,0.3-0.2,0.5-0.2l0,0c-0.3,0.3-0.6,0.6-0.9,1
			C67.1,35.6,67,35.5,66.9,35.4z"/>
		<path class="st12" d="M29.5,5c-0.2,0.2-0.5,0.6-0.7,0.7c-0.7,0.2-1.5,0.2-2.3,0.3c-0.2,0-0.4-0.2-0.7-0.4
			C27.1,5.4,28.3,5.2,29.5,5z"/>
		<path class="st3" d="M30.8,4.8c-0.3,0.1-0.6,0.2-1,0.2C30.1,4.9,30.4,4.9,30.8,4.8z"/>
		<path class="st14" d="M68.2,34.7c-0.2,0.1-0.3,0.2-0.5,0.2c0-0.3,0-0.7,0.1-1c0.1,0,0.1,0,0.2,0C68,34.2,68.1,34.4,68.2,34.7z"/>
		<path class="st26" d="M36.1,46.5c0-0.3,0-0.6,0-0.9c0.1-0.8,0.2-1.6,0.2-2.5c0.3,0,0.5,0,0.8-0.1c0.1,0,0.2,0,0.3,0
			c0,0.2,0.1,0.4,0.2,0.6c0.1,0.9,0.1,1.8,0.2,2.7c-0.7-0.6-0.9,0.3-1.4,0.5C36.3,46.8,36.2,46.6,36.1,46.5z"/>
		<path class="st26" d="M40.1,43.1c0.2,0.6,0.5,1.2,0.7,1.8c0.1,0,0.2-0.1,0.3-0.1c-0.2,0.4-0.4,0.7-0.6,1.1c-0.1,0-0.1,0-0.2,0
			c-0.4,0-1-0.5-1,0.4c-0.1,0-0.2,0-0.2,0c0-0.1,0-0.3-0.1-0.4c0-0.1,0-0.1,0-0.2c0,0.1-0.1,0.1-0.1,0.2c-0.1,0-0.1,0.1-0.2,0
			c0-0.9,0-1.9,0-2.8c0.3,0.6,0.6,1.2,0.9,1.9c0.2-0.9,0.4-1.8,0.5-2.6C40,42.7,40.1,42.9,40.1,43.1z"/>
		<path class="st4" d="M38.5,43.2c0,0.9,0,1.9,0,2.8c-0.1,0.1-0.3,0.3-0.4,0.4c-0.1,0-0.2,0-0.4,0l0,0c-0.1-0.9-0.1-1.8-0.2-2.7
			c0.7,0,0.8-0.5,0.7-1c0.1,0,0.2,0,0.2,0C38.5,42.9,38.5,43,38.5,43.2z"/>
		<path class="st4" d="M38.8,46c0-0.1,0.1-0.1,0.1-0.2C38.9,45.9,38.9,45.9,38.8,46C38.9,46,38.9,46,38.8,46z"/>
		<path class="st26" d="M37.8,46.4c0.1,0,0.2,0,0.4,0C38,46.4,37.9,46.4,37.8,46.4z"/>
		<path class="st9" d="M31.9,45.9c-0.1-0.3-0.2-0.7-0.2-1c0-0.2,0.3-0.5,0.4-0.7c0.2,0.2,0.5,0.4,0.5,0.5c-0.1,0.6,0.6,1.6-0.7,1.7
			C32,46.2,32,46,31.9,45.9z"/>
		<path class="st19" d="M39.3,46.4c0-0.9,0.6-0.4,1-0.4c0,0.1,0,0.3,0,0.4C39.9,46.4,39.6,46.4,39.3,46.4z"/>
		<path class="st19" d="M34.9,14c0,0.2,0,0.5,0,0.7c-0.1,0.1-0.2,0.2-0.2,0.2l0,0L34.6,15c0,0.1,0.1,0.1,0.1,0.2
			c-0.2,1.5-0.3,2.9-0.5,4.4c-0.7,1.1-1.5,2.3-2.2,3.4c-0.1,0-0.2,0-0.2,0c0.1-0.5,0.2-1,0.2-1.5c0.3-0.7,1.6-1.1,0.8-2.1
			c-0.6,0.4-1.2,0.7-1.7,1.1c0.1-0.4,0.1-0.8,0.2-1.2c0.3-0.6,0.4-1-0.5-1l0,0c0-0.3,0.1-0.5,0.2-0.9c-0.3,0.1-0.5,0.2-0.8,0.3
			c0-0.3,0-0.5-0.1-0.8c-0.4,0.3-0.7,0.6-1,0.8c-1.1,0.6-2.3,1-1.6,2.6c-0.5,0-1-0.1-1.4-0.1c0.2-0.5,0.4-1,0.5-1.6
			c0.1-0.4,0.3-0.8,0.2-1.1c-0.1-0.2-0.6-0.3-0.9-0.5c0.3-0.6,0.7-1.3,1.1-2.1c-0.5-0.1-0.8-0.1-1.1-0.1c0-0.2,0-0.3,0-0.5
			c1-0.6,1.9-1.3,2.9-1.9c0.2,0.5,0.7,0.9,0.7,1.3c-0.3,1.8,0.9,1,1.6,0.9c0.8-0.1,1.1-0.7,0.9-1.6c0.2-0.2,0.5-0.3,0.7-0.5
			c0.1,0.1,0.1,0.2,0.2,0.4c0.1-0.1,0.2-0.3,0.3-0.4c0-0.2,0-0.5,0-0.7c0.3-0.3,0.6-0.7,1-1c-0.1,0.8-0.3,1.7-0.4,2.8
			c0.4-0.5,0.7-0.7,1-1.1C34.8,13.3,34.9,13.7,34.9,14z M32.4,15.9c0.1,0.1,0.4,0.3,0.8,0.7c0.2-0.9,0.3-1.6,0.5-2.4
			c-0.1,0-0.2,0-0.3,0C33.1,14.7,32.8,15.2,32.4,15.9z M29,17.2C29,17.1,29,17.1,29,17.2c-0.1-0.1-0.1,0-0.1,0S28.9,17.2,29,17.2
			L29,17.2z"/>
		<path class="st18" d="M44.1,13.8c0.2,0,0.3,0,0.5,0c0.5,0.1,1,0.2,1.5,0.1c0.4,0,0.8-0.2,1.1-0.4c1-0.1,1.9-0.6,2.8,0.3
			c0.1,0.1,1.4,0.4,1.8-0.6c0.2,0,0.3,0,0.5,0c0.4,0.7,0.9,1.3,1.3,2.1c-0.5,0.9-1.4,0.7-2.3,0.6c-1.4-0.4-2.7-0.1-4.1,0.1
			c0.2,0.6,0.3,1.1,0.5,1.6c-0.1,0.2-0.2,0.5-0.2,0.7c-0.2-0.2-0.3-0.3-0.5-0.5c0,0,0-0.1,0.1-0.1c0,0,0,0.1-0.1,0.1
			c-0.6,0-0.8-1.4-1.6-0.4c0.2,0.6,0.3,1.2,0.6,1.8c0.1,0.3,0.5,0.5,0.7,0.8c-0.1,0.3-0.2,0.6-0.2,1c-0.4,0.1-0.7,0.3-1.1,0.4
			c-0.6-0.9-0.3-2.6-2-2.6c-0.1-0.3-0.1-0.5-0.1-0.6c0.5-0.3,0.9-0.5,1.2-0.8s0.4-0.8,0.6-1.1c-1.6-0.4-2-0.8-2-2.3
			C43.5,13.9,43.8,13.8,44.1,13.8z"/>
		<path class="st3" d="M43.4,18.9c1.8,0,1.4,1.7,2,2.6c0.4-0.2,0.8-0.3,1.1-0.4l0,0c0.2,0.5,0.5,1,0.7,1.5c0.2,0.2,0.3,0.3,0.5,0.5
			s0.3,0.5,0.5,0.7l0,0c0.1,0.3,0.2,0.6,0.3,1c-0.7,0.1-1.8-1.5-2,0.9c-0.6-1.2-0.9-2-1.3-2.8c-0.1,0-0.1,0.1-0.2,0.1
			c0.2,2.4,0.4,4.8,0.7,7.5c-0.4-0.5-0.6-0.6-0.8-0.8c-0.1-0.5-0.1-1-0.2-1.7c-0.4,0.5-0.5,0.7-0.7,0.9c-0.3-0.2-0.5-0.3-0.8-0.4
			c0-0.2,0-0.3,0-0.5c0.1-0.9,0.1-1.9,0.2-3.2c-0.5,0.5-0.8,0.7-1.3,1c0.2-1,0.4-1.7,0.6-2.7c-0.1-0.8-0.2-2-0.4-3.3
			C42.7,19.5,43.1,19.2,43.4,18.9z"/>
		<path class="st24" d="M34.2,11.1c-0.3,0.3-0.6,0.7-1,1c-1,0-1.8,0.1-1.6-1.4c0.1-0.8-0.6-1.6-0.9-2.5c0-0.1,0-0.2,0-0.2
			c1.2-0.4,2.5-0.8,3.7-1.2c0.6-0.3,1-0.6,1.5-0.8c0,0.4,0,0.8,0.1,1.5c0.6-0.5,1-0.9,1.4-1.2c0.2,0.1,0.3,0.2,0.5,0.3
			c-0.2,0.3-0.3,0.6-0.5,1c-0.2,0.1-0.5,0.2-0.6,0.3C35.8,8.9,35,10,34.2,11.1z"/>
		<path class="st20" d="M42.4,19.9c0.1,1.2,0.3,2.4,0.4,3.3c-0.2,1-0.4,1.7-0.6,2.7c0.5-0.4,0.7-0.6,1.3-1c-0.1,1.3-0.2,2.2-0.2,3.2
			l0,0c-0.2-0.2-0.3-0.3-0.5-0.5l0,0c0-0.3,0-0.7,0-1c-0.1,0-0.2,0-0.3,0c0,0.3,0,0.7,0.1,1c0,0.4,0,0.8,0,1.2
			c-0.6-0.7-1.5-1.3-1.9-2.1c-0.3-0.8-0.6-1.3-1.5-1.3c0.2-0.5,0.3-1,0.5-1.5c0.2-0.6,0.3-1.3,0.5-1.9c0.2-0.2,0.5-0.3,0.7-0.5
			c0.4-0.5,0.9-1.1,1.3-1.7C42.1,19.7,42.3,19.8,42.4,19.9z"/>
		<path class="st18" d="M32,23c0.7-1.1,1.5-2.3,2.2-3.4c1.2,0,0.9,0.7,0.7,1.3c-0.3,0.8-0.2,1.3,0.8,1.1c1.5,0.3,0.1,1.1,0.4,1.8
			c-0.5-0.2-0.8-0.3-1.2-0.5c0,0.5,0,1,0,1.4c0,0.1,0,0.2,0,0.2c-0.4-0.2-0.8-0.5-1.1-0.6c-0.4,0.2-0.8,0.4-1.1,0.6
			C32.7,24.2,32.9,23.4,32,23z"/>
		<path class="st18" d="M39.3,20.6c0.2-2.9,0.5-5.7,0.7-8.6c0.2,0,0.3,0,0.5,0c0,1.3,0,2.5,0,3.8c0.9-0.5,1.1,0.1,1.2,0.9
			c0,0.4,0,0.8,0,1.2c-0.3,0.7-0.5,1.7-1.9,0.7C40.2,19.7,40.3,20.4,39.3,20.6L39.3,20.6z"/>
		<path class="st16" d="M34.2,11.1c0.8-1.1,1.7-2.2,2.5-3.3c0.1-0.2,0.4-0.2,0.6-0.3c0,0.4,0,0.8,0.1,1.2c-0.1,0.5-0.2,1.1-0.3,1.6
			c-0.1,0.4,0,0.8-0.2,1.1c-0.4,0.5-0.8,1-1.3,1.5c-0.2,0.4-0.5,0.8-0.7,1.2c-0.1-0.4-0.1-0.7-0.2-1.2c-0.3,0.3-0.5,0.6-1,1.1
			C33.9,12.8,34,11.9,34.2,11.1z"/>
		<path class="st3" d="M34.9,24.7c0-0.4,0-0.9,0-1.4c0.4,0.2,0.7,0.3,1.2,0.5c-0.3-0.7,1.1-1.5-0.4-1.8c0.1-0.2,0.2-0.3,0.2-0.5
			c1-0.2,0.8-1,1-1.7c0.1,0.6,0.2,1.3,0.2,1.9C37,22,37,22.2,36.9,22.6c0.8-0.2,1.3,0.3,0.8,0.8c-0.8,0.7-0.6,1.7-0.9,2.5
			C35.9,25.9,35.4,25.3,34.9,24.7z"/>
		<path class="st18" d="M36.8,25.9c0.3-0.8,0-1.7,0.9-2.5c0.5-0.5,0-1-0.8-0.8c0.1-0.4,0.1-0.6,0.2-0.9c0.5,0,1,0,1.6,0
			c0.1-0.3,0.4-0.7,0.6-1.2l0,0c0.1,0.5-0.3,1.3,0.7,1.2c-0.2,0.6-0.3,1.3-0.5,1.9c-0.1-0.2-0.3-0.5-0.4-0.7c-0.3,0.3-0.8,0.6-1,1.1
			c-0.3,0.7-0.4,1.5-0.5,2.3c-0.3,0.1-0.7,0.2-1,0.2C36.7,26.4,36.7,26.1,36.8,25.9z"/>
		<path class="st3" d="M40,21.8c-1,0-0.7-0.7-0.7-1.2c1.1-0.2,1-0.9,0.5-1.9c1.4,1,1.6,0,1.9-0.7c0.1,0.6,0.2,1.1,0.2,1.7
			c-0.4,0.6-0.8,1.1-1.3,1.7C40.5,21.5,40.2,21.6,40,21.8z"/>
		<path class="st17" d="M35.6,12.8c0.4-0.5,0.9-0.9,1.3-1.5c0.2-0.3,0.1-0.7,0.2-1.1c0.1-0.5,0.2-1.1,0.3-1.6c1.1,0.1,1,1.2,0.8,1.6
			c-0.4,1-1.1,1.9-1.7,2.7C36.4,13.1,35.9,12.9,35.6,12.8z"/>
		<path class="st3" d="M44.1,13.8c-0.3,0.1-0.6,0.2-1,0.2c-0.2-0.1-0.4-0.3-0.6-0.4c-1.2-0.4-1.4-0.9-1.1-2.3c0.9,0,1.9,0,1.8,1.4
			C43.2,13.1,43.8,13.4,44.1,13.8z"/>
		<path class="st18" d="M39.5,7c0.3,1.1,1.4,1.9,1,3.2c-0.5,0.1-1,0.2-1.6,0.3c0-0.3-0.1-0.7-0.1-1c1,0.2,0.8-0.2,0.5-0.8
			C39,8.1,38.2,7.3,39.5,7z"/>
		<path class="st18" d="M36.8,19.8c-0.2,0.7,0,1.5-1,1.7c-0.1-0.5-0.2-0.9-0.3-1.4C36,20,36.4,19.9,36.8,19.8z"/>
		<path class="st16" d="M34.6,15.2c0-0.1-0.1-0.1-0.1-0.2c0,0,0.1,0,0.1-0.1C34.6,15.1,34.6,15.1,34.6,15.2z"/>
		<path class="st16" d="M34.6,15c0.1-0.1,0.2-0.2,0.2-0.2S34.7,14.9,34.6,15z"/>
		<path class="st2" d="M41.4,5.7C42,6.4,42.6,7,41.8,7.9c-0.6-0.5-1.1-0.9-1.6-1.4c0-0.3,0-0.6,0-1C40.7,5.5,41,5.6,41.4,5.7z"/>
		<path class="st5" d="M37.3,6.2c-0.4,0.3-0.8,0.7-1.4,1.2c0-0.7-0.1-1.1-0.1-1.5c-0.1-0.4-0.2-0.8-0.2-1.2c0-0.1,0-0.1,0-0.2
			C36.3,4.3,37,4.1,37.8,4c-0.1,0.1-0.1,0.2-0.2,0.3c-0.9,0.4-0.3,1.1-0.3,1.7C37.3,6.1,37.3,6.2,37.3,6.2z"/>
		<path class="st24" d="M37.3,6c0-0.6-0.7-1.3,0.3-1.7C37.9,4.9,38.5,5.6,37.3,6z"/>
		<path class="st28" d="M30.8,7.9c0,0.1,0,0.2,0,0.2c-1.6,0.3-0.9,2-2,2.7C28.9,10.9,29,11,29,11c0.3-0.2,0.5-0.4,1.1-0.8
			c0.1,0.7,0.3,1.2,0.4,1.8c-0.6,0.2-1.1,0.3-1.7,0.5c-1,0.6-1.9,1.3-2.9,1.9c-1.3-0.5-2.3-0.1-2.6,1.1c0.3,0,0.5,0.1,0.8,0.1
			c-0.3,0.3-0.5,0.5-0.7,0.7c0.1,0.1,0.2,0.2,0.3,0.3c0.4-0.3,0.8-0.6,1.2-1c0.3-0.3,0.7-0.5,1-0.8c0.3,0,0.6,0.1,1.1,0.1
			c-0.4,0.8-0.7,1.4-1.1,2.1c-0.3,0.2-0.5,0.4-0.8,0.6c0.7,0.7,0.7,1.3,0.1,2.1c-0.4,0.5-0.4,1.3,0,1.9C25.1,22,25,22.3,25,22.4
			c0.2,0.4,0.4,0.7,0.6,1.1c-0.3,0-0.6,0-1,0c-0.5,0.6-1,1.1-1.5,1.7c-1.3,0.2-1,1.1-1,2c-0.2,0.1-0.3,0.2-0.5,0.3
			c-0.4,0.2-0.8,0.3-1.2,0.5c-0.1-0.3-0.2-0.7-0.2-1l0,0c0.2-0.2,0.3-0.5,0.5-0.7h0.1c0,0,0,0,0-0.1l-0.1,0.1
			c-0.2-0.1-0.3-0.2-0.5-0.2c-0.5,0-1,0-1.8-0.1c0.5,0.3,0.7,0.4,0.8,0.6c-0.3,0.3-0.6,0.7-1,1.3c0,0-0.3,0-0.6,0
			c-0.2,0.2-0.3,0.3-0.5,0.5c-0.1,0-0.2,0-0.2,0c-0.5-0.3,0.2-1.2-0.7-1.4c0.2-0.6,0.3-1.2,0.5-1.8c0.9,0.1,2.1-1.2,2.3-2.5
			c0-0.1,0.1-0.2,0.1-0.3c0,0.1-0.1,0.2-0.1,0.3h-0.1c-0.5,0.4-0.9,1-1.5,1.1c-0.3,0.1-0.8-0.6-1.3-1c-0.3,0.7-0.5,1.2-0.7,1.8
			c-1.1-1.3-2-0.4-2.9,0.2c-0.4-0.1-1,0.7-1.2-0.2c0.2-0.1,0.4-0.1,0.4-0.1c-0.1-0.8-0.3-1.4-0.4-2.1c-0.1-0.5,0-1.1-0.1-1.7
			c0-0.2-0.3-0.3-0.4-0.4c-0.1-0.3-0.3-0.6-0.4-0.9c-0.1-0.4-0.1-0.8-0.1-1.3c0.8,0.8,1.5,1.8,2.3,2.5c0.5,0.4,0.9,0.6,0.5,1.3
			c-0.1,0.2,0.1,0.5,0.3,0.7c0.1,0.1,0.5,0,0.6-0.2c0.6-0.5,1-1.4,2-0.9c0.1,0.1,0.8-0.6,0.9-1c0.3-1,0.6-2,1.6-2.5
			c0.2-0.1,0.2-0.5,0.1-0.9c-0.4,0.3-0.7,0.6-1.2,0.9c-0.1-0.1-0.4-0.2-0.8-0.4c0.4-0.4,0.7-0.7,1.1-0.9c1.3-0.9,2.6-1.8,3.8-2.9
			c0.4-0.3,0.5-1.3,0.3-1.8c-0.5-1.5,0.6-1.7,1.5-2.2c0.3-0.2,0.8-0.2,1.2-0.3c1.1-0.2,1.5-1,1.7-2c0,0-0.2-0.1-0.4-0.2
			c0.4-0.1,0.8-0.4,1.3-0.4c1.2,0,2.4,0.1,3.6,0.1C30.8,7.3,30.8,7.6,30.8,7.9z M20.1,24.7L20.1,24.7c0,0.1,0,0.3,0,0.5
			c0.5,0,1.2,1.2,1.5-0.3c-0.4-0.1-0.8-0.3-1.2-0.4C20.2,24.6,20.2,24.6,20.1,24.7z M17.6,22.6c0-0.1,0-0.2-0.1-0.2
			c0,0-0.1,0-0.2,0.1c0,0.1,0,0.2,0.1,0.2C17.4,22.7,17.5,22.6,17.6,22.6z"/>
		<path class="st28" d="M25.9,7.2c-0.2,0.4-0.5,0.8-0.7,0C25.4,7.2,25.7,7.2,25.9,7.2z"/>
		<path class="st3" d="M35.6,4.6c0,0.1,0,0.1,0,0.2c-0.1,0-0.3,0-0.4,0c0-0.1,0-0.2,0-0.3C35.3,4.5,35.5,4.5,35.6,4.6z"/>
		<path class="st5" d="M23,37.9c0.1-0.4,0.1-0.7,0.2-1.3c0.4,0.2,0.9,0.3,1,0.5c0.1,0.6,1,1.2,0,1.8C23.4,39,23.2,38.4,23,37.9z"/>
		<path class="st22" d="M23.2,25.2c0.5-0.6,1-1.1,1.5-1.7c0,0.2,0,0.3,0,0.5c0,0.3,0,0.7,0,1c-0.4,0.7-0.8,1.5-1.2,2.2
			c-0.1,0.2-0.2,0.3-0.2,0.5l0,0c-0.3,0.2-0.5,0.5-0.8,0.7C21,29.3,21,29.5,21.8,31c-0.1,0.1-0.2,0.2-0.3,0.3c-0.1,0-0.1,0-0.2,0
			c-0.3-0.1-0.6-0.2-1-0.2c0.1-1,0.2-2.1,0.2-3.1c0.4-0.2,0.8-0.3,1.2-0.5c0.2-0.1,0.3-0.2,0.5-0.3C23.2,26.8,23.3,26,23.2,25.2z"/>
		<path class="st22" d="M19.4,26.4c-0.2-0.1-0.3-0.2-0.8-0.6c0.8,0,1.3,0.1,1.8,0.1c0,0.3,0,0.6,0,1l0,0
			C20,26.7,19.7,26.6,19.4,26.4z"/>
		<path class="st16" d="M20.3,31c0.3,0.1,0.6,0.2,1,0.2c0,0.1,0,0.3-0.1,0.4c-0.2,0.1-0.5,0.2-0.7,0.3c-0.1-0.1-0.2-0.1-0.2-0.2
			C20.3,31.5,20.3,31.3,20.3,31z"/>
		<path class="st22" d="M20.3,31.8c0.1,0.1,0.2,0.1,0.2,0.2c-0.2,0.3-0.3,0.5-0.5,0.8C20.2,32.4,20.2,32.1,20.3,31.8z"/>
		<path class="st22" d="M17.2,28.1c0.2-0.2,0.3-0.3,0.5-0.5C17.5,27.8,17.3,28,17.2,28.1z"/>
		<path class="st16" d="M21.8,31c-0.8-1.6-0.7-1.8,0.7-2.7c0.3-0.2,0.5-0.5,0.8-0.7c0,0.3,0.1,0.6,0.1,0.9c0.4-0.3,0.6-0.4,0.9-0.6
			c0.2,0,0.4,0,0.6,0c-1.8,1,0.2,1.2-0.1,1.9c0.2,0.2,0.3,0.4,0.5,0.6c0.3-0.3,0.5-0.6,0.7-0.9c0.2,0.7,0.3,1.5,0.5,2.2
			c0.3,0.6,0.6,1.1,1,1.7c-0.8,0.6-1.6,2.8-1.1,3.2c0.1-0.1,0.2-0.2,0.3-0.3c0.1,0.3,0.1,0.6,0.2,0.9c0.4-0.2,0.6-0.3,0.9-0.4
			c0.2,0.4,0.5,0.8,0.7,1.2l0,0c-0.1,0-0.2,0-0.3,0c-0.7-1.1-0.8,0.2-1.2,0.3c-0.4,0.1-0.7,0.1-1.1,0.2c0-0.2-0.2-0.7-0.3-1.2
			c0.1-0.8,0.2-1.6,0.2-2.4c-0.2-0.3-0.5-0.6-0.7-1c-0.1,0.2-0.2,0.3-0.2,0.5l0,0c-0.2,0.1-0.3,0.3-0.4,0.4c-0.3-0.6-0.5-1-0.8-1.5
			c-0.3,0.2-0.6,0.5-0.9,0.7c0.1-0.8,0.3-1.6,0.4-2.4c0.2-0.1,0.3-0.2,0.5-0.2c0.1-0.1,0.1-0.2,0.2-0.2c0.3,0.1,0.5,0.2,0.8,0.3
			c0-0.1,0.1-0.3,0.1-0.4c-0.3,0-0.6-0.1-0.9-0.1C23.1,30.9,22.4,31,21.8,31z M26.1,32.5C26.1,32.4,26.1,32.4,26.1,32.5
			c-0.1-0.1-0.1-0.1-0.1,0C26,32.5,26,32.5,26.1,32.5L26.1,32.5z"/>
		<path class="st19" d="M25.7,34.9c-0.1,0.8-0.2,1.6-0.2,2.4c-0.1,0.2-0.2,0.5-0.3,0.7c-0.1-0.5-0.2-0.9-0.3-1.4
			C25.1,36.1,25.4,35.5,25.7,34.9z"/>
		<path class="st22" d="M25.7,34.9c-0.3,0.6-0.5,1.2-0.8,1.7c-0.1-0.3-0.3-0.5-0.3-0.8c0-0.5,0-0.9,0.1-1.4l0,0
			c0.1-0.2,0.2-0.3,0.2-0.5C25.2,34.3,25.4,34.6,25.7,34.9z"/>
		<path class="st19" d="M23.7,30.8c0.3,0,0.6,0.1,0.9,0.1c0,0.1-0.1,0.3-0.1,0.4c-0.3-0.1-0.5-0.2-0.8-0.3
			C23.7,31,23.7,30.9,23.7,30.8z"/>
		<path class="st7" d="M21.2,31.7c0-0.1,0-0.3,0.1-0.4c0.1,0,0.1,0,0.2,0c0,0.5,0,1,0,1.4C21.4,32.4,21.3,32.1,21.2,31.7z"/>
		<path class="st19" d="M23.5,31.3c-0.2,0.1-0.3,0.2-0.5,0.2C23.2,31.4,23.3,31.4,23.5,31.3z"/>
		<path class="st4" d="M20.8,35.7C20.8,35.6,20.8,35.6,20.8,35.7C20.8,35.6,20.8,35.6,20.8,35.7L20.8,35.7z"/>
		<path class="st24" d="M19.3,33.5c0.1,0.1,0.2,0.3,0.3,0.4c-0.1,0-0.2,0.1-0.3,0.1C19.4,33.8,19.4,33.6,19.3,33.5
			C19.4,33.5,19.3,33.5,19.3,33.5z"/>
		<path class="st5" d="M14.3,29.6c0.1-0.3,0.1-0.6,0.2-0.8c0.1,0,0.2,0,0.2,0c0,0.2,0,0.4,0.1,0.6C14.6,29.4,14.4,29.5,14.3,29.6z"
			/>
		<path class="st28" d="M14.2,24.5l0.1,0.1c0,0,0,0.1-0.1,0.1s-0.1,0-0.2-0.1C14.1,24.7,14.2,24.6,14.2,24.5z"/>
		<path class="st26" d="M34.7,47.1c-0.1,0-0.2,0-0.2,0c0.1-0.1,0.2-0.2,0.3-0.3c0,0,0.2,0.1,0.2,0.2C34.9,47,34.8,47.1,34.7,47.1z"
			/>
		<path class="st10" d="M36.3,43.2c-0.1,0.8-0.2,1.6-0.2,2.5c-0.8-0.6-1.7-1.3-2.5-1.9c0.3-0.1,0.5-0.2,0.7-0.3l0.1,0.1h0.1
			c0.3-0.5,0.5-1,0.8-1.5c0.2-0.2,0.3-0.3,0.5-0.5c0.1,0,0.2,0,0.3,0c0.3,0.4,0.7,0.8,1,1.2C36.7,42.7,36.2,42.5,36.3,43.2z"/>
		<path class="st4" d="M34.4,43.4c-0.2,0.1-0.5,0.2-0.7,0.3c-0.6-0.2-1.3-0.5-1.9-0.7c-0.2-0.1-0.3-0.2-0.5-0.2c0-0.1,0-0.3,0-0.4
			c0.6-0.1,1.3-0.1,1-1c0-0.2,0-0.3,0-0.5c0.2,0.3,0.4,0.6,0.6,0.9c0.2,0.3,0.4,0.7,0.6,1c0.2-0.1,0.4-0.1,0.6-0.2
			C34.2,42.8,34.3,43.1,34.4,43.4z"/>
		<path class="st26" d="M32.7,58.3c-0.2,0.1-0.5,0.2-0.7,0.3C32.2,58.4,32.5,58.4,32.7,58.3z"/>
		<path class="st4" d="M33.5,44.5C33.5,44.4,33.5,44.4,33.5,44.5L33.5,44.5C33.6,44.4,33.6,44.4,33.5,44.5z"/>
		<path class="st8" d="M52.4,13.3c-0.2,0-0.3,0-0.5,0c0.3-0.6,0.6-1.1,0.9-1.7c-1.2-0.4-2.3-0.8-3.5-1.2c-0.3-0.1-0.6-0.5-0.8-0.8
			c0.7-1.1,1.4-0.2,2,0c1,0.3,2,1.1,3.1,0c2,0.5,3.9,1.2,5.6,2.4c-0.6-0.1-1.1-0.2-1.7-0.2c-0.5,0-1.1,0.2-1.8,0.3
			c0.4,0.5,0.6,1,1,1.5c-0.2,0.2-0.4,0.5-0.7,0.8c-0.5-0.1-1,0-1.5-0.2C53.8,14,53.1,13.6,52.4,13.3z"/>
		<path class="st13" d="M53.6,9.6c-1,1.1-2,0.2-3.1,0c-0.7-0.2-1.4-1.1-2,0C47.8,9.3,47,9,46.4,8.7c0.1,1,0.1,2,0.2,2.9
			c-2.8,0.2-2.4-0.4-2.9-2.1c0.4,0,0.7,0,1.1,0c-0.1-0.2-0.1-0.3-0.2-0.5c-0.4-0.9-0.1-1.6,0.8-1.6c1.7-0.1,3.2,0.2,4.7,1.1
			c0.8,0.5,2,0.5,3,0.8C53.3,9.4,53.5,9.5,53.6,9.6z"/>
		<path class="st3" d="M47.3,13.5c-0.4,0.1-0.7,0.4-1.1,0.4c-0.5,0-1-0.1-1.5-0.1c0.2-0.4,0.6-1.1,0.7-1.1
			C46,12.8,46.6,13.2,47.3,13.5z"/>
		<path class="st23" d="M61.8,17.7c0.2,0,0.3,0,0.5,0c0,0.4,0,0.7,0,1.1c0.2,0.8,0.3,1.3-0.9,1.3c-0.4,0-0.7,0.8-1.1,1.3l0,0
			c-0.2-0.1-0.4-0.2-0.7-0.3c0,0.4-0.2,0.7-0.1,1.1c0.1,0.6,0.4,1.2,0.6,2c-0.8-0.5-1.3-0.8-1.8-1.1c-0.1-0.1-0.2-0.2-0.2-0.4
			L58,22.8c0.1,0.1,0.2,0.2,0.4,0.2c0.1,0.3,0.1,0.5,0.2,0.8c-0.3,0-0.6,0.1-0.6,0.1c0.1,0.7,0.2,1.4,0.2,2c0,0.2-0.6,0.5-0.7,0.5
			c-0.5-0.2-0.9-0.5-1.2-0.8c0.4-0.6,0.7-1,1-1.4c-0.5,0-0.9,0.1-1,0c-0.7-0.6-1.3-0.3-1.5,0.3c-0.2,0.5-0.1,1.2,0.2,1.7
			s0.9,0.8,0.4,1.5s-1,1.5-2.4,1c0,1.2,0,2.3,0,3.3c-0.4,0.2-1.7-0.2-1.9-0.7c0.3-0.1,0.6-0.2,1-0.4c-0.2-0.2-0.5-0.3-0.6-0.5
			c-0.5-0.9-1.2-1.7-1.5-2.7c-0.3-0.8-0.2-1.7-0.3-2.5c0.2-0.2,0.4-0.4,0.6-0.7c0.8,1.9,0.8,1.9,1.7,1.7c-1-2.5-1-2.5-0.3-4.2
			c0.4,0.2,0.9,0.3,1.3,0.5c0.1-0.2,0.2-0.4,0.3-0.7c0.3,0.2,0.4,0.4,0.6,0.5c0.3,0.2,0.7,0.4,1.1,0.6c0-0.4,0.1-0.8,0-1.1
			c-0.4-1.1,0.4-1.5,1.1-1.9c0.3-0.2,0.7-0.2,1-0.4c0.7-0.6,0.9-0.2,1.1,0.4c-0.3,0-0.6,0.1-0.8,0.1c-0.1,0.8-0.2,1.5-0.4,2.5
			c0.7-0.9,1.6-0.8,1.9-1.7l0,0c0.1,0.1,0.1,0.3,0.2,0.4c0.1-0.1,0.2-0.3,0.3-0.4c0.9-0.9,0.8-1.3-0.2-2.2c0.3-0.8,1.5-1.4,2.2-1.1
			C61.4,17.6,61.6,17.6,61.8,17.7z"/>
		<path class="st2" d="M58,19.8c-0.2-0.6-0.4-1-1.1-0.4c-0.3,0.2-0.7,0.3-1,0.4c-0.8,0.4-1.5,0.8-1.1,1.9c0.1,0.3,0,0.7,0,1.1
			c-0.4-0.2-0.7-0.4-1.1-0.6c-0.2-0.1-0.4-0.3-0.6-0.5c-0.1,0.3-0.2,0.6-0.3,0.7c-0.4-0.2-0.9-0.3-1.3-0.5c-0.7,1.7-0.7,1.7,0.3,4.2
			c-1,0.1-1,0.1-1.7-1.7c-0.2,0.3-0.4,0.5-0.6,0.7c-0.2-0.2-0.5-0.3-0.7-0.5l0,0c-0.2-0.3-0.3-0.6-0.5-1l0,0
			c-0.2-0.2-0.3-0.5-0.5-0.7s-0.3-0.3-0.5-0.5c0.1-0.1,0.2-0.3,0.2-0.3c0.9,0.4,1.7-0.5,2.7,0.2c-0.2-0.6-0.4-1-0.5-1.2
			c0.4-0.4,0.7-0.6,0.9-1c0.3-0.6,0.4-1.2,0.5-1.8c0-0.1,0.1-0.2,0.1-0.3c0.8,0.5,1.4-0.3,2.1-0.4h0.1h0.1c0.2,0,0.3,0,0.5,0
			s0.3,0,0.5,0s0.3,0,0.5,0c0.3,0.3,0.7,0.6,1,0.8c0.6,0.4,0.9,0.1,0.9-0.5c0.2,0,0.3,0,0.5,0l0,0c0.2,0.1,0.3,0.2,0.5,0.2
			c0.3,0.2,0.6,0.3,1,0.5c1.1,0.9,1.1,1.3,0.2,2.2c-0.2,0-0.3,0-0.5,0l0,0C58.4,20.5,58.2,20.2,58,19.8z"/>
		<path class="st20" d="M54.1,17.7c-0.2,0-0.3,0-0.5,0c-0.1-0.2-0.1-0.4-0.2-0.6c-0.1,0-0.2,0.1-0.3,0.1c0.1,0.2,0.1,0.4,0.2,0.6
			c-0.7,0.2-1.3,0.9-2.1,0.4c0,0.1-0.1,0.2-0.1,0.3c-0.8,0.2-2.2-0.6-1.8,0.9c-0.4,0.6-0.6,1.2-1,1.5c-0.5,0.3-1.1,0.2-1.7,0.3l0,0
			c0.1-0.3,0.2-0.6,0.2-1c0.3-0.2,0.6-0.3,0.9-0.5c0.8-0.5,0.7-1-0.2-1.2c0.1-0.2,0.2-0.5,0.2-0.7c1.2-0.1,2.5-0.2,3.7-0.4
			c0.1,0,0.3-0.4,0.3-0.6s-0.3-0.5-0.4-0.7c0.9,0.1,1.8,0.3,2.3-0.6c-0.5-0.8-0.9-1.4-1.3-2.1c0.7,0.3,1.4,0.7,2.2,1
			c0.5,0.2,1,0.1,1.5,0.2c1.7,0.4,1.8,0.7,1.3,2.4c-0.1,0.3,0.1,0.7,0.1,1c-0.2,0-0.3,0-0.5,0c-0.6-0.3-1.2-1.1-1.9-0.2
			c-0.2,0-0.3,0-0.5,0C54.4,17.7,54.2,17.7,54.1,17.7z"/>
		<path class="st14" d="M60.1,14.7c0.2,0.2,0.3,0.4,0.5,0.5c-0.1,0.1-0.2,0.2-0.3,0.3c-0.2-0.2-0.4-0.3-0.7-0.5
			C59.8,14.9,59.9,14.8,60.1,14.7z"/>
		<path class="st20" d="M58,18.1c-0.2-0.1-0.3-0.2-0.5-0.2C57.6,18,57.8,18.1,58,18.1z"/>
		<path class="st8" d="M60.4,13.8c0,0,0,0.1-0.1,0.1C60.3,13.8,60.4,13.8,60.4,13.8L60.4,13.8z"/>
		<path class="st29" d="M50.9,31.3c0.3,0.5,1.5,0.9,1.9,0.7c0.2-0.1,0.3-0.3,0.5-0.4c0.4,0.5,0.7,0.9,1.1,1.5c0-2,1.7-3.6,3.5-3.8
			c0,1-0.5,1.2-1.5,1.1c0,0.6,0.1,1,0.1,1.5c-0.2,0.1-0.4,0.2-0.6,0.3c-0.3,0.3-0.9,0.6-1,0.9c0,0.8,0.6,0.9,1.3,0.9
			c0.9,0,1.9-0.1,2.8,0c1.1,0.1,1.9-0.3,2.6-1.1c0.6-0.6,1.6-0.9,2.4-1.4c0.2-0.1,0.5-0.2,0.6-0.4c0.6-0.9,1.2-1.7,1.6-2.7
			c0.2-0.5,0-1.2-0.2-1.8c0-0.1-0.5-0.3-0.7-0.3c-0.5,0.2-1.2,0.3-1.5,0.7c-0.7,0.9-1.6,0.7-2.6,0.7c0.2-0.6,0.5-1.2,0.7-1.8
			c-0.2,0.1-0.4,0.3-0.6,0.4c-0.4-0.5-0.8-1-1.2-1.6c0.7-0.7,1-1,1.2-1.1c0.7,0.5,1.3,0.9,1.8,1.3c0.1-0.1,0.2-0.2,0.3-0.3
			c-0.7-0.9-1.4-1.9-2.2-2.8c0.8-0.9,1.7-1.4,2.8-0.2c0.1,0.1,0.5,0.1,0.7,0.1c1,0.1,2,0.2,3,0.3c0.1,0.3,0.2,0.6,0.2,1
			c-0.5-0.1-0.9-0.3-1.4-0.3c-0.3,0-0.6,0.3-0.9,0.4c0.1,0.3,0.2,0.6,0.4,0.8c0.5,0.5,1.1,0.9,1.5,1.5c0.2,0.2,0.2,0.9,0.1,1
			c-1,0.6-0.6,1.6-0.9,2.4c-0.8,0.9-1.9,1.6-1.8,3.1c0,0.2-0.8,0.8-1.2,0.7c-0.7-0.1-1,0.1-1.5,0.5c-0.7,0.6-1.4,1.1-2.1,1.6
			c-0.1,0.1-0.1,0.4-0.2,0.6c-0.1,0.1-0.2,0.2-0.3,0.2s-0.2,0-0.2,0c-0.1,0-0.2,0-0.2,0c-0.5-0.2-1.1-0.2-1.5-0.5
			c-0.9-0.6-1.3-0.2-1.7,0.6c-0.5-0.2-1-0.4-1.5-0.6c-0.3,0.6-0.8,0.9-1.3,0.1c0-0.1-0.7,0.2-0.7,0.2c0.2,0.9-0.2,1-1,0.8
			c-0.1,0-0.4,0.4-0.6,0.6c-0.4,0.2-0.8,0.5-1.2,0.7c-0.2-1.3-0.5-2.6-0.7-3.9c0.2-0.3,0.5-0.5,0.7-0.8
			C50.4,32.2,50.7,31.7,50.9,31.3z M51,32.5c-0.1,0-0.1-0.1-0.2-0.1c0,0.1,0,0.1,0,0.2c0,0,0.1,0.1,0.1,0C50.9,32.6,51,32.6,51,32.5
			z"/>
		<path class="st21" d="M68.1,21.8c-1-0.1-2-0.2-3-0.3c-0.2,0-0.6,0-0.7-0.1c-1.1-1.2-2-0.7-2.8,0.2c0.7,0.9,1.4,1.9,2.2,2.8
			c-0.1,0.1-0.2,0.2-0.3,0.3c-0.6-0.4-1.2-0.8-1.8-1.3c-0.2,0.2-0.5,0.5-1.2,1.1c0.4,0.6,0.8,1.1,1.2,1.6c0.2-0.1,0.4-0.3,0.6-0.4
			c-0.2,0.6-0.5,1.2-0.7,1.8c-0.3,0-0.6-0.1-0.7-0.1c-0.2,0.4-0.4,0.6-0.5,0.9c-0.1,0.1-0.2,0.2-0.2,0.2c-0.2,0.2-0.3,0.3-0.5,0.5
			c-0.1-0.2-0.1-0.4-0.2-0.6c-0.3-0.3-0.6-0.6-1-0.8c-0.1,0.5-0.2,0.9-0.3,1.4c-0.1,0.1-0.2,0.2-0.2,0.2c-1.9,0.2-3.5,1.8-3.5,3.8
			c-0.4-0.6-0.7-1-1.1-1.5c-0.1,0.1-0.3,0.2-0.5,0.4c0-1.1,0-2.1,0-3.3c1.4,0.4,1.9-0.3,2.4-1s-0.1-1-0.4-1.5
			c-0.3-0.5-0.4-1.2-0.2-1.7c0.2-0.6,0.8-0.9,1.5-0.3c0.2,0.1,0.6,0,1,0c-0.3,0.4-0.6,0.8-1,1.4c0.4,0.3,0.8,0.6,1.2,0.8
			c0.2,0.1,0.7-0.3,0.7-0.5c0-0.6-0.1-1.2-0.2-2c0.1,0,0.3,0,0.6-0.1c-0.1-0.3-0.1-0.6-0.2-0.8l0,0c0.5,0.3,1,0.6,1.8,1.1
			c-0.3-0.9-0.5-1.4-0.6-2c-0.1-0.3,0.1-0.7,0.1-1.1c0.2,0.1,0.4,0.2,0.7,0.3c0,0,0.1,0,0.1,0.1c0,0-0.1,0-0.1-0.1
			c0.4-0.5,0.7-1.3,1.1-1.3c1.1,0,1-0.5,0.9-1.3c-0.1-0.3,0-0.7,0-1.1c1.3,0,2.3,0.5,3.2,1.4C66.4,20,67.3,20.9,68.1,21.8z M61,22.6
			c0.1,0,0.1,0.1,0.2,0.1c0,0,0.1-0.1,0.1-0.2c0,0-0.1-0.1-0.2-0.1C61,22.4,61,22.5,61,22.6z"/>
		<path class="st5" d="M29.3,41.3c0,0.3-0.1,0.6-0.1,0.9c-0.1,0-0.2,0-0.3,0c-0.2-0.5-0.3-0.9-0.5-1.5c-0.1,0.6-0.1,1.1-0.1,1.5
			c-0.4-0.2-0.8-0.5-1.1-0.7c1.1-0.9,1.3-2.1,1.2-3.4l0,0c0.1-0.1,0.2-0.2,0.2-0.2c0.2,0.6,0.5,1.3,0.7,1.9
			C29.3,40.3,29.3,40.8,29.3,41.3z"/>
		<path class="st4" d="M29.3,41.3c0-0.5,0-1,0-1.5c0.3-0.1,0.7-0.1,1-0.2c0.1,0.9,0.3,1.8,0.4,2.6c0,0.2,0,0.3,0,0.5
			c-0.1,0.3-0.3,0.6-0.6,1.1c-0.3-0.7-0.5-1.1-0.6-1.6C29.4,42,29.4,41.6,29.3,41.3z"/>
		<path class="st22" d="M28.3,38.1c0.1,1.3-0.1,2.5-1.2,3.4c-0.1-0.2-0.2-0.5-0.3-0.7c0-0.5,0.1-1,0.1-1.5c0.4-0.4,0.8-0.8,1.2-1.2
			C28.2,38.1,28.3,38.1,28.3,38.1z"/>
		<path class="st25" d="M30.8,42.7c0-0.2,0-0.3,0-0.5c0.2,0,0.3,0,0.5,0.1c0,0.1,0,0.3,0,0.4C31.1,42.7,30.9,42.7,30.8,42.7z"/>
		<path class="st19" d="M28.1,38.1c-0.4,0.4-0.8,0.8-1.2,1.2c0-0.3,0-0.6-0.1-0.9C27.3,38.3,27.4,37,28.1,38.1z"/>
		<path class="st15" d="M56.5,39.1c-0.2-0.2-0.5-0.5-0.7-0.7c0-0.2,0-0.4,0-0.5c0.1-0.1,0.3-0.1,0.4-0.2l-0.1-0.1
			c-0.1,0.1-0.2,0.2-0.3,0.3c-0.3,0.2-0.6,0.6-1,0.7c-0.8,0.1-1.2,0.4-1.2,1.3c-0.2-0.5-0.5-1-0.7-1.4c0.3-0.3,1-0.2,0.7-1
			c0-0.1,0-0.2,0-0.3c0.2,0,0.4,0,0.5,0c0.1,0.1,0.2,0.1,0.3,0.2c0-0.1-0.1-0.1-0.1-0.2c0.1-0.2,0.1-0.5,0.2-0.6
			c0.4-0.2,0.8-0.3,1.2-0.4c0.2,0.3,0.5,0.6,0.7,0.9c1-0.2,1.9-0.5,2.7-0.7l0,0c0.1,0.3,0.2,0.6,0.2,1c-0.2,0.4-0.5,0.8-0.8,1.3
			c-0.2,0-0.2-1.6-0.9-0.3l0,0c-0.2,0.3-0.3,0.6-0.6,1.1c-0.1,0-0.4-0.1-0.6-0.2l0,0C56.5,39.2,56.5,39.1,56.5,39.1z"/>
		<path class="st8" d="M59.4,37.3c-0.1-0.3-0.2-0.6-0.2-1c0.2-0.3,0.3-0.7,0.5-1c0.1,0,0.2,0,0.2,0c0,0.1,0.1,0.2,0.1,0.3
			c0.1-0.1,0.1-0.2,0.2-0.3c0.1-0.1,0.2-0.2,0.3-0.2c0.3,0.1,0.6,0.2,1,0.2c0.1,0,0.1,0,0.2,0c-0.5,0.6-1,1.3-1.4,1.9
			c-0.2,0.1-0.3,0.3-0.5,0.4C59.6,37.6,59.5,37.5,59.4,37.3z"/>
		<path class="st15" d="M57.7,38.3C57.8,38.4,57.8,38.5,57.7,38.3C57.8,38.5,57.7,38.4,57.7,38.3L57.7,38.3z"/>
		<path class="st20" d="M43.9,37.1c-0.5,0-1,0-1.5,0c-0.1,0-0.2,0-0.2,0l0,0c-0.6-0.2-1.3-0.3-1.9-0.5c-0.3,0-0.7,0-1,0l0,0
			c-0.1-0.2-0.1-0.3-0.2-0.5c-0.1-0.2-0.1-0.4-0.2-0.5c-0.1,0.1-0.2,0.2-0.3,0.3c0.1,0.2,0.2,0.3,0.2,0.5c-0.2,0-0.3,0-0.5,0
			c-0.1,0-0.2,0-0.2,0c0.1-0.3,0.2-0.6,0.2-1c0.8-0.3,0.8-1,0.7-1.7c0.4,0,0.7,0.1,1.1,0.1c0.2,1,0.5,1.6,1.6,1.1
			c0.2-0.1,0.5,0,0.7,0c0.1,0.1,0.1,0.2,0.2,0.3c0.1,0.1,0.1,0.1,0.2,0.2c0.3-0.1,0.5-0.1,0.8-0.2c0.1,0,0.2,0,0.2,0
			c0,0.1,0,0.3,0,0.4C43.9,36.1,43.9,36.6,43.9,37.1L43.9,37.1z"/>
		<path class="st15" d="M40.2,36.6c0.6,0.2,1.3,0.3,1.9,0.5c-0.1,0.4-0.3,0.9-0.3,1.3c-0.1,0.5-0.8,1.1,0.3,1.4l0,0
			c0.1,0.8,0.2,1.6,0.2,2.4c-0.1,0.3-0.1,0.6-0.2,0.9c0-0.1,0-0.1-0.1-0.2c-0.3-0.6-0.6-1.2-0.9-1.8c0-0.1-0.3,0-0.5,0
			c0-0.3,0-0.6,0-0.9c0.1-0.1,0.2-0.2,0.2-0.2c0.1-0.7,0.2-1.5,0.2-2.2c0.2-0.1,0.4-0.2,0.6-0.2c0-0.1,0-0.1,0-0.2
			c-0.2,0-0.4,0-0.5,0s-0.1-0.1-0.2-0.1c0,0.1,0.1,0.2,0.1,0.3s0,0.2,0,0.2c-0.1,0.3-0.2,0.7-0.3,1c-0.1,0-0.1,0-0.2-0.1
			c-0.1-0.4-0.1-0.8-0.2-1.1C40.4,37.3,40.3,37,40.2,36.6z"/>
		<path class="st8" d="M47.5,37.8c-0.6-0.2-1.1-0.5-1.7-0.7c-0.2,0.1-0.5,0.2-0.7,0.2c0-0.1,0-0.1,0-0.2c0-0.3,0-0.7,0-1
			c0.5-0.5,1-0.8,1.7-0.3c0.2,0.3,0.5,0.7,0.7,1C47.5,37.2,47.5,37.5,47.5,37.8z"/>
		<path class="st20" d="M45.1,37.1c0,0.1,0,0.1,0,0.2c-0.4,0-0.8,0-1.2,0l0,0c0-0.1,0-0.2,0-0.2l0,0c0.1-0.1,0.2-0.2,0.3-0.3
			c0.1-0.6,0.1-1.2,0.2-1.7c0.2,0.4,0.3,0.7,0.5,1.1C44.9,36.5,45,36.8,45.1,37.1z"/>
		<path class="st11" d="M42.2,39.8c0-0.2,0-0.4,0-0.6c0.1,0,0.1,0,0.2,0C42.3,39.4,42.2,39.6,42.2,39.8L42.2,39.8z"/>
		<path class="st20" d="M43.9,37.4c-0.1,0.1-0.1,0.3-0.2,0.4c-0.1,0-0.1-0.1-0.2-0.1C43.7,37.6,43.8,37.5,43.9,37.4L43.9,37.4z"/>
		<path class="st15" d="M42.2,37.1c0.1,0,0.2,0,0.2,0h-0.1H42.2z"/>
		<path class="st6" d="M55.8,37.8c0,0.2,0,0.4,0,0.5c0,1.3-0.7,1.7-2.2,1.4c0-0.8,0.4-1.2,1.2-1.3C55.1,38.5,55.4,38.1,55.8,37.8
			L55.8,37.8z"/>
		<path class="st14" d="M53.6,37.4c0.3,0.7-0.4,0.7-0.7,1c0,0-0.1-0.1-0.2-0.1c0-0.3,0-0.6,0-0.9c0.2,0,0.5,0,0.7,0
			C53.4,37.4,53.5,37.4,53.6,37.4z"/>
		<path class="st17" d="M52.6,37.4c0,0.3,0,0.6,0,0.9c-0.3,0.1-0.5,0.2-0.8,0.3c-0.2-0.3,0.9-0.7,0-1c0-0.1,0-0.2,0-0.3
			C52.1,37.3,52.4,37.3,52.6,37.4z"/>
		<path class="st6" d="M56.5,39.1c0,0.1,0,0.1,0,0.2c-0.1,0-0.2-0.1-0.3-0.1C56.3,39.1,56.4,39.1,56.5,39.1z"/>
		<path class="st2" d="M47.5,37.8c0-0.3,0-0.6,0-1c0.3,0.1,0.5,0.3,0.8,0.4c0.4-1.3,0.8-2.6,1.2-3.8l0,0c0.2,1.3,0.5,2.6,0.7,3.9
			c-0.2,0.3-0.3,0.7-0.5,1c-0.1,0.1-0.1,0.2-0.2,0.3l0,0c-0.3-0.2-0.6-0.3-0.9-0.5C48.2,38,47.9,37.9,47.5,37.8z"/>
		<path class="st8" d="M49.7,38.3c0.2-0.3,0.3-0.7,0.5-1c0.4-0.2,0.8-0.5,1.2-0.7c0.2,0.2,0.3,0.4,0.5,0.7c0,0.1,0,0.2,0,0.3
			C51.2,37.8,50.4,38.1,49.7,38.3z"/>
		<path class="st2" d="M49.5,38.6c0,0.2-0.1,0.4-0.1,0.6c-0.1,0-0.2-0.1-0.3-0.1C49.2,38.9,49.3,38.7,49.5,38.6
			C49.4,38.6,49.5,38.6,49.5,38.6z"/>
		<path class="st10" d="M46.6,43.4C46.7,43.4,46.7,43.4,46.6,43.4C46.7,43.4,46.7,43.4,46.6,43.4C46.7,43.5,46.6,43.5,46.6,43.4
			L46.6,43.4z"/>
		<path class="st28" d="M16,20.7C16,20.7,16,20.8,16,20.7c-0.1,0-0.1-0.1-0.1-0.1S16,20.6,16,20.7L16,20.7z"/>
		<path class="st28" d="M13.9,20c-0.1,0-0.1,0-0.1,0v-0.1C13.7,20,13.8,20,13.9,20z"/>
		<path class="st15" d="M61.6,35.4c-0.1,0-0.1,0-0.2,0c0.2-0.2,0.3-0.3,0.5-0.5C61.8,35.1,61.7,35.3,61.6,35.4z"/>
		<path class="st15" d="M62.4,36.9c0-0.1,0-0.3,0-0.4h0.1C62.5,36.7,62.5,36.8,62.4,36.9C62.5,36.9,62.4,36.9,62.4,36.9z"/>
		<path class="st15" d="M62.2,35.8C62.2,35.9,62.3,35.9,62.2,35.8C62.2,35.9,62.1,35.9,62.2,35.8C62.1,35.9,62.1,35.9,62.2,35.8
			L62.2,35.8z"/>
		<path class="st15" d="M68.9,29.3c1,0.5,1,0.6,0.2,1.3c-0.2-0.3-0.3-0.6-0.5-0.9v-0.1C68.7,29.5,68.8,29.4,68.9,29.3L68.9,29.3z"/>
		<path class="st15" d="M66,33c-0.1-0.1-0.1-0.2-0.2-0.3c0,0,0.1,0,0.1-0.1C65.9,32.8,65.9,32.9,66,33L66,33z"/>
		<path class="st17" d="M68.9,29.3c-0.1,0.1-0.2,0.2-0.3,0.3C68.7,29.5,68.8,29.4,68.9,29.3z"/>
		<path class="st6" d="M40.7,40.3c0,0.3,0,0.6,0,0.9c0.2,0,0.5-0.1,0.5,0c0.3,0.6,0.6,1.2,0.9,1.8c-0.7,0.1-1.4,0.1-2.1,0.2
			c0-0.2-0.1-0.5-0.1-0.7c-0.2-0.2-0.3-0.3-0.5-0.5c-0.1-0.2-0.2-0.4-0.2-0.5v-0.1v-0.1c0.1-0.1,0.2-0.1,0.3-0.2
			c1.1,0.2,0.6-0.8,0.9-1.2C40.6,39.9,40.7,40.1,40.7,40.3z"/>
		<path class="st6" d="M67.7,33.9c0,0.3,0,0.7-0.1,1c-0.1,0-0.1,0-0.2,0C67.5,34.6,67.6,34.3,67.7,33.9z"/>
		<path class="st11" d="M39.2,41.4L39.2,41.4c0,0.2,0,0.4,0,0.6c-0.2,0.2-0.5,0.5-0.7,0.7c-0.1,0-0.2,0-0.2,0
			c-0.1-0.1-0.3-0.3-0.4-0.4c-0.1,0.1-0.2,0.3-0.3,0.4c0,0.1,0,0.2,0,0.3s-0.1,0.1-0.1,0.2c-0.1,0-0.2,0-0.3,0c0-0.1,0-0.3-0.1-0.4
			c-0.3-0.4-0.7-0.8-1-1.2c0.3,0-0.2-1,0.6-0.5c0.1,0.1,1.1-0.2,0.8-1c0.1,0,0.2,0,0.2,0c0.1,0.5,0.1,1,0.2,1.5H38
			c0-0.6,0.1-1.3,0.1-2C38.6,40.2,38.9,40.8,39.2,41.4z"/>
		<path class="st10" d="M37.5,42.7c0.1-0.1,0.2-0.3,0.3-0.4c0.1,0.1,0.3,0.3,0.4,0.4c0.1,0.6,0,1-0.7,1c-0.1-0.2-0.1-0.4-0.2-0.6
			c0.1,0,0.1-0.1,0.1-0.2c0.1,0,0.3,0,0.4,0C37.8,42.9,37.7,42.8,37.5,42.7z"/>
		<path class="st4" d="M37.1,42.7c0,0.1,0,0.3,0.1,0.4c-0.3,0-0.5,0-0.8,0.1C36.2,42.5,36.7,42.7,37.1,42.7z"/>
		<path class="st10" d="M38.5,42.7c0.2-0.2,0.5-0.5,0.7-0.7h0.1h0.1c0.2,0.2,0.3,0.3,0.5,0.5c-0.2,0.8-0.3,1.6-0.5,2.6
			c-0.3-0.7-0.6-1.3-0.9-1.9C38.5,43,38.5,42.9,38.5,42.7z"/>
		<path class="st12" d="M25.9,29.6c-0.2,0.3-0.4,0.5-0.7,0.9c-0.2-0.2-0.4-0.4-0.5-0.6c0.3-0.3,0.7-0.6,1-0.9
			c-0.1,0-0.3-0.1-0.4-0.1c-0.1-0.4-0.4-0.9-0.3-1.2c0.2-0.6,0.5-1.1,0.8-1.7s0.6-1.1,1-1.7c-0.1-0.1-0.2-0.1-0.3-0.2
			c-0.2,0.2-0.3,0.3-0.7,0.6c-0.1-0.5-0.1-0.8-0.1-1.2c-0.2-0.4-0.5-0.7-0.6-1.1c-0.1-0.2,0.1-0.4,0.2-0.6c0.3-0.5,0.6-1,1-1.5
			c0.4,0,0.8,0.1,1.4,0.1c-0.7-1.6,0.5-2.1,1.6-2.6c0.3-0.2,0.6-0.5,1-0.8c0,0.3,0,0.5,0.1,0.8c0.2-0.1,0.5-0.2,0.8-0.3
			c-0.1,0.4-0.1,0.6-0.2,0.9c-0.3,0-0.6,0.1-0.9,0.1c0.1,0.1,0.1,0.3,0.2,0.4c0.2-0.2,0.5-0.3,0.7-0.5c0.9,0,0.7,0.4,0.5,1
			c-0.2,0.4-0.2,0.8-0.2,1.2c-0.1,0.2-0.2,0.3-0.2,0.5c0,0.6,0,1.2,0,1.9c-0.4,0.2-0.8,0.3-1.2,0.5c-0.2,0.1-0.6,0.1-0.6,0.2
			c-0.7,1.2-1.4,2.5-2,3.7l0,0C25.9,27.8,26.4,28.9,25.9,29.6z"/>
		<path class="st3" d="M29.5,23.5c0.4-0.2,0.8-0.4,1.2-0.5c0-0.7,0-1.3,0-1.9c0.4,0.2,0.8,0.3,1.2,0.5c-0.1,0.5-0.2,1-0.2,1.5
			c0,0.6,0.1,1.1,0.1,1.7c-0.1,0.9,0.2,2-0.8,2.7c-0.4-0.2-0.8-0.5-1.2-0.7c-0.3,0-0.6-0.1-1.1-0.2c0.5-0.3,0.7-0.4,1-0.6
			c-0.3-0.4-0.6-0.7-0.8-1c0.1,0,0.2,0,0.3,0C29.3,24.5,29.4,24,29.5,23.5z"/>
		<path class="st22" d="M30.5,12.1c-0.1-0.5-0.2-1.1-0.4-1.8c-0.6,0.4-0.8,0.6-1.1,0.8c-0.1-0.1-0.2-0.1-0.3-0.2
			c1-0.6,0.4-2.3,2-2.7c0.3,0.8,1,1.7,0.9,2.5c-0.2,1.5,0.6,1.5,1.6,1.4c0,0.2,0,0.5,0,0.7c-0.2,0-0.3,0-0.5,0
			c-0.2,0.2-0.5,0.3-0.7,0.5c-0.2-0.3-0.3-0.6-0.5-1c-0.5,0.6-0.7,0.9-0.9,1.3C30.5,13,30.5,12.5,30.5,12.1z"/>
		<path class="st16" d="M30.5,12.1c0,0.4,0,0.9,0,1.5c0.3-0.4,0.5-0.7,0.9-1.3c0.2,0.4,0.4,0.7,0.5,1c0.2,0.8-0.1,1.5-0.9,1.6
			c-0.6,0.1-1.9,0.9-1.6-0.9c0.1-0.4-0.4-0.9-0.7-1.3C29.4,12.4,29.9,12.2,30.5,12.1z"/>
		<path class="st0" d="M31,27.4c1-0.7,0.7-1.8,0.8-2.7c0.1-0.5-0.1-1.1-0.1-1.7c0.1,0,0.2,0,0.2,0c1,0.4,0.7,1.2,0.7,2
			c-0.2,0.9-0.5,1.8-0.7,2.7c-0.8,0.5-0.9,1.4-1.2,2.2l0,0c-0.2,0-0.5,0.9-0.7,0C30.4,29,30.7,28.2,31,27.4z"/>
		<path class="st27" d="M26.1,20.3c-0.3,0.5-0.6,1-1,1.5c-0.4-0.6-0.4-1.4,0-1.9c0.5-0.8,0.6-1.4-0.1-2.1c0.3-0.2,0.5-0.4,0.8-0.6
			c0.3,0.2,0.8,0.2,0.9,0.5s-0.1,0.8-0.2,1.1C26.5,19.3,26.3,19.8,26.1,20.3z"/>
		<path class="st22" d="M25.9,15c-0.3,0.3-0.7,0.5-1,0.8c-0.4,0.3-0.8,0.6-1.2,1c-0.1-0.1-0.2-0.2-0.3-0.3c0.2-0.2,0.4-0.4,0.7-0.7
			c-0.3,0-0.6-0.1-0.8-0.1c0.3-1.2,1.3-1.6,2.6-1.1C25.9,14.7,25.9,14.8,25.9,15z"/>
		<path class="st0" d="M32,21.6c-0.4-0.2-0.8-0.3-1.2-0.5c0.1-0.2,0.2-0.3,0.2-0.5c0.5-0.3,1.1-0.7,1.7-1.1
			C33.5,20.5,32.3,20.9,32,21.6z"/>
		<path class="st16" d="M32.4,15.9c0.4-0.7,0.7-1.2,1-1.7c0.1,0,0.2,0,0.3,0c-0.1,0.7-0.3,1.4-0.5,2.4C32.8,16.2,32.5,16,32.4,15.9z
			"/>
		<path class="st16" d="M32.7,12.8c0.2,0,0.3,0,0.5,0c-0.1,0.1-0.2,0.3-0.3,0.4C32.8,13.1,32.8,12.9,32.7,12.8z"/>
		<path class="st12" d="M29,17.2L29,17.2c-0.1,0.1-0.1,0-0.1,0C28.9,17.1,28.9,17.1,29,17.2C29,17.1,29,17.1,29,17.2z"/>
		<path class="st3" d="M51.4,16c0.1,0.2,0.4,0.5,0.4,0.7s-0.2,0.6-0.3,0.6c-1.2,0.2-2.5,0.3-3.7,0.4c-0.1-0.5-0.3-1-0.5-1.6
			C48.7,15.9,50,15.5,51.4,16z"/>
		<path class="st3" d="M47.5,18.4c0.9,0.3,1,0.7,0.2,1.2c-0.3,0.2-0.6,0.3-0.9,0.5c-0.2-0.3-0.6-0.5-0.7-0.8
			c-0.3-0.6-0.4-1.2-0.6-1.8c0.8-1,1,0.4,1.6,0.4l0,0C47.2,18.1,47.4,18.2,47.5,18.4z"/>
		<path class="st3" d="M47,17.9c0,0,0-0.1,0.1-0.1L47,17.9L47,17.9z"/>
		<path class="st2" d="M42.4,28.6c0-0.4,0-0.8,0-1.2c0.1,0,0.2,0,0.3,0l0,0c0.2,0.2,0.3,0.3,0.5,0.5l0,0c0,0.2,0,0.3,0,0.5
			c-0.1,1.1,0,2.2,1.3,2.7c0.2-0.6,0.3-1,0.4-1.5c0.2,0.2,0.4,0.4,0.8,0.8c-0.2-2.7-0.5-5.1-0.7-7.5c0.1,0,0.1-0.1,0.2-0.1
			c0.4,0.8,0.8,1.6,1.3,2.8c0.2-2.4,1.3-0.8,2-0.9c0.1,0,0.2,0,0.2,0l0,0c0.4,1,0.4,1.9-0.2,2.8c-0.6,0.9-1,1.9-1.5,2.8
			c0,0.5,0,1,0,1.5c-0.2,0.2-0.3,0.5-0.5,0.7l0,0c-0.2,0-0.5,0-0.7,0c-0.1-0.1-0.1-0.2-0.2-0.3c0.1,0.1,0.1,0.2,0.2,0.3
			c0.1,0.8,0.2,1.5,0.3,2.6c-1.5-0.9-0.9-2.1-1.3-3c-0.3-0.7-0.6-1-1.2-0.3c-0.2,0.1-0.3,0.2-0.5,0.2c-0.2-0.2-0.3-0.3-0.5-0.5
			c0-0.4-0.2-1,0-1.3C43,29.5,43,29.1,42.4,28.6z M43,30.7c0,0.1,0,0.1,0,0.2C43,30.9,43.1,30.8,43,30.7C43.1,30.8,43,30.7,43,30.7z
			"/>
		<path class="st13" d="M46.6,21.1c0.6-0.1,1.2,0,1.7-0.3c0.4-0.2,0.6-0.8,1-1.5c-0.3-1.5,1.1-0.8,1.8-0.9c-0.2,0.6-0.3,1.2-0.5,1.8
			c-0.2,0.4-0.5,0.6-0.9,1c0.1,0.2,0.2,0.6,0.5,1.2c-1-0.7-1.9,0.2-2.7-0.2c0,0-0.1,0.2-0.2,0.3C47,22,46.8,21.6,46.6,21.1z"/>
		<path class="st13" d="M44.8,29.6c-0.1,0.5-0.2,0.9-0.4,1.5c-1.3-0.6-1.4-1.6-1.3-2.7c0.2,0.1,0.5,0.2,0.8,0.4
			c0.2-0.2,0.3-0.4,0.7-0.9C44.7,28.6,44.8,29.1,44.8,29.6z"/>
		<path class="st21" d="M48.7,24.7c-0.1,0-0.2,0-0.2,0c-0.1-0.3-0.2-0.6-0.3-1C48.4,24.1,48.6,24.4,48.7,24.7z"/>
		<path class="st21" d="M47.8,23c0.2,0.2,0.3,0.5,0.5,0.7C48.1,23.5,47.9,23.3,47.8,23z"/>
		<path class="st13" d="M42.4,28.6c0.6,0.5,0.6,0.9,0.2,1.6c-0.2,0.3,0,0.9,0,1.3c-0.1,0.2-0.2,0.4-0.3,0.6
			c-0.2,0.4-0.3,0.7-0.5,1.1c-0.2-0.2-0.7-0.4-0.7-0.7c-0.1-0.7,0-1.5,0-2.2c-0.3,0.1-0.5,0.1-0.7,0.2c-0.1-0.9-0.2-1.7-0.4-2.6
			c-0.1,0-0.3,0-0.4,0c-0.1,0.4-0.2,0.7-0.3,1.1c-0.2,0.4-0.4,0.7-0.6,1.1c-0.2-0.1-0.4-0.3-0.6-0.5c0.2,1.8,0.2,1.8-0.4,1.8
			c0-0.5-0.1-1-0.1-1.5c0-0.1-0.4-0.2-0.4-0.1c-0.2,0.4-0.4,0.9-0.6,1.4c-0.1,0.1,0,0.3,0,0.5c-0.2,0.5-0.3,1-0.5,1.4
			c-0.2-0.1-0.3-0.2-0.5-0.2c0.1-0.5,0.2-0.9,0.3-1.4c0.4-1.5,0.8-2.9,1.2-4.4c0,0.8,0,1.6,0,2.4c0.2,0,0.3,0.1,0.5,0.1
			c0.2-0.4,0.6-0.8,0.7-1.2c0.3-1,0.5-2,0.8-3c0.9,0,1.2,0.5,1.5,1.3C40.9,27.3,41.8,27.9,42.4,28.6z"/>
		<path class="st3" d="M39,25.2c-0.2,1-0.5,2-0.8,3c-0.1,0.4-0.5,0.8-0.7,1.2c-0.2,0-0.3-0.1-0.5-0.1c0-0.8,0-1.6,0-2.4
			c0.2-0.2,0.3-0.3,0.5-0.5c0.2-0.8,0.3-1.6,0.5-2.3c0.2-0.4,0.6-0.7,1-1.1c0.1,0.2,0.3,0.5,0.4,0.7C39.3,24.2,39.2,24.7,39,25.2z"
			/>
		<path class="st13" d="M42.7,27.4c-0.1,0-0.2,0-0.3,0c0-0.3,0-0.7-0.1-1c0.1,0,0.2,0,0.3,0C42.7,26.7,42.7,27.1,42.7,27.4z"/>
		<path class="st13" d="M43.1,27.9c-0.2-0.2-0.3-0.3-0.5-0.5C42.8,27.5,43,27.7,43.1,27.9z"/>
		<path class="st3" d="M32,27.6c0.2-0.9,0.5-1.8,0.7-2.7c0.3-0.2,0.7-0.4,1.1-0.6c0.3,0.2,0.7,0.4,1.1,0.6c-0.1,0.6-0.2,1.3-0.2,1.9
			c-0.2,1-0.5,1.9-0.7,2.9c-0.2,0.1-0.5,0.3-0.7,0.4s-0.3,0.2-0.5,0.3c0-0.1,0-0.2,0-0.2c0-0.3,0-0.6,0-1c0.1-0.4,0.2-0.9,0.3-1.2
			C32.7,28,32.3,27.8,32,27.6z"/>
		<path class="st20" d="M34.6,26.9c0.1-0.6,0.2-1.3,0.2-1.9c0-0.1,0-0.2,0-0.2c0.5,0.6,1,1.2,1.9,1.2c-0.1,0.2-0.2,0.4-0.3,0.7
			c0.4-0.1,0.7-0.2,1-0.2c-0.2,0.2-0.3,0.3-0.5,0.5c-0.4,1.5-0.8,2.9-1.2,4.4c-0.1,0.5-0.2,0.9-0.3,1.4c-0.2-0.1-0.3-0.2-0.5-0.2
			c0.1-1,0.4-1.9,0.3-2.9C35.3,28.7,34.9,27.8,34.6,26.9z"/>
		<path class="st19" d="M25.7,23.5c0,0.3,0.1,0.7,0.1,1.2c0.3-0.3,0.5-0.4,0.7-0.6c0.1,0.1,0.2,0.1,0.3,0.2c-0.3,0.6-0.6,1.1-1,1.7
			c-0.3,0.6-0.7,1.1-0.8,1.7c-0.1,0.4,0.2,0.8,0.3,1.2c0.1,0,0.3,0.1,0.4,0.1c-0.3,0.3-0.7,0.6-1,0.9c0.3-0.7-1.6-0.9,0.1-1.9
			c-0.2,0-0.4,0-0.6,0c-0.3,0.2-0.5,0.3-0.9,0.6c0-0.3-0.1-0.6-0.1-0.9l0,0c0.1-0.2,0.2-0.3,0.2-0.5c0.4-0.7,0.8-1.5,1.2-2.2
			c0.9-0.3,0.4-0.6,0-1c0-0.2,0-0.3,0-0.5C25,23.5,25.3,23.5,25.7,23.5z"/>
		<path class="st12" d="M23.2,25.2c0,0.8-0.1,1.6-1,2C22.2,26.3,22,25.4,23.2,25.2z"/>
		<path class="st22" d="M20.3,24.5c0.4,0.1,0.7,0.3,1.2,0.4c-0.2,1.5-1,0.3-1.5,0.3c0-0.2,0-0.3,0-0.5l0,0
			C20.2,24.6,20.2,24.6,20.3,24.5z"/>
		<path class="st24" d="M20.3,26.9c0-0.3,0-0.6,0-1c0.2,0.1,0.3,0.2,0.5,0.2l0,0C20.6,26.4,20.5,26.7,20.3,26.9z"/>
		<path class="st22" d="M17.6,22.6c-0.1,0-0.2,0.1-0.2,0.1s-0.1-0.1-0.1-0.2c0.1,0,0.2-0.1,0.2-0.1S17.5,22.5,17.6,22.6z"/>
		<path class="st22" d="M19.1,22.5c0-0.1,0.1-0.2,0.1-0.3C19.2,22.3,19.1,22.4,19.1,22.5L19.1,22.5z"/>
		<path class="st3" d="M20.1,24.7c0,0.2,0,0.3,0,0.5C20.1,25,20.1,24.9,20.1,24.7z"/>
		<path class="st22" d="M20.8,26.2l0.1-0.1C20.9,26.1,20.9,26.1,20.8,26.2C20.9,26.2,20.8,26.2,20.8,26.2L20.8,26.2z"/>
		<path class="st3" d="M20.3,24.5c-0.1,0.1-0.2,0.2-0.2,0.2C20.2,24.6,20.2,24.6,20.3,24.5z"/>
		<path class="st28" d="M24.7,24c0.4,0.3,0.9,0.7,0,1C24.7,24.6,24.7,24.3,24.7,24z"/>
		<path class="st16" d="M23.5,27.1c-0.1,0.2-0.2,0.3-0.2,0.5C23.3,27.5,23.4,27.3,23.5,27.1z"/>
		<path class="st0" d="M29.5,23.5c-0.1,0.5-0.2,1-0.3,1.5c-0.1,0-0.2,0-0.3,0c0.3,0.3,0.5,0.6,0.8,1c-0.3,0.2-0.5,0.3-1,0.6
			c0.5,0.1,0.8,0.1,1.1,0.2c-0.1,0.7-0.2,1.5-0.3,2.2c-1,0.1-0.6,0.7-0.5,1.2c0,0.2,0,0.5,0,0.7c-0.2,0.2-0.3,0.3-0.5,0.5
			c0.4-1.4-0.9-1.3-1.7-1.7c-0.2,0.7-0.3,1.4-0.5,2.2c-0.2-0.7-0.3-1.5-0.5-2.2c0.5-0.6,0-1.8,1-2.2c0.1,0.4,0.2,0.8,0.4,1.6
			c0.1-0.8,0.9-1.5-0.4-1.6c0.7-1.2,1.3-2.5,2-3.7C29,23.5,29.3,23.6,29.5,23.5z"/>
		<path class="st12" d="M27.6,36.9c-0.2,0.1-0.5,0.2-0.9,0.4c-0.1-0.3-0.1-0.6-0.2-0.9c-0.1,0.1-0.2,0.2-0.3,0.3
			c-0.5-0.4,0.3-2.6,1.1-3.2c0.2,0.2,0.3,0.5,0.5,0.7c0,0,0,0.1-0.1,0.1c0,0,0-0.1,0.1-0.1s0.2,0,0.2,0s0.1,0,0.1,0.1
			c0,0-0.1,0-0.1-0.1c0-0.4,0-0.8,0-1.2c0.3,0.2,0.6,0.3,0.9,0.5c0.2,0.2,0.4,0.4,0.6,0.8c-0.1,0.1-0.4,0.4-0.6,0.7
			c-0.2,0.1-0.6,0-0.7,0.2C28.1,35.7,27.8,36.3,27.6,36.9z M27.8,35.3c-0.1,0.1-0.1,0.2-0.1,0.2c0,0.1,0.1,0.1,0.2,0.1
			C27.8,35.5,27.8,35.4,27.8,35.3z"/>
		<path class="st19" d="M29,33.5c-0.3-0.2-0.6-0.3-0.9-0.5c0,0.4,0,0.8,0,1.2l0,0c-0.1,0-0.2,0-0.2,0l0,0c-0.2-0.2-0.3-0.5-0.5-0.7
			c-0.3-0.6-0.6-1.1-1-1.7c0.2-0.7,0.3-1.5,0.5-2.2c0.7,0.4,2,0.2,1.7,1.7C28.7,32,28.9,32.7,29,33.5z"/>
		<path class="st19" d="M27.6,36.9c0.3-0.6,0.5-1.2,0.8-1.8c0.1-0.1,0.5-0.1,0.7-0.2c0.3-0.1,0.7-0.2,0.9-0.4
			c0.2-0.3,0.2-0.7,0.4-1.2c0.2,1,0.3,1.7,0.4,2.4c0,0.2,0,0.3,0,0.5c-1.3,0.1-1.5,0.4-1,1.2c-0.4,0.2-0.8,0.3-1.2,0.5
			c-0.1,0.1-0.2,0.2-0.2,0.2C28.1,37.7,27.8,37.3,27.6,36.9z"/>
		<path class="st24" d="M24.9,34c-0.1,0.2-0.2,0.3-0.2,0.5C24.8,34.3,24.9,34.1,24.9,34z"/>
		<path class="st0" d="M26.1,32.5L26.1,32.5c-0.1,0-0.1,0-0.1,0C26,32.4,26,32.4,26.1,32.5C26.1,32.4,26.1,32.4,26.1,32.5z"/>
		<path class="st11" d="M33.4,42.7c-0.2-0.3-0.4-0.7-0.6-1c-0.2-0.3-0.4-0.6-0.6-0.9c0-0.5,0-1,0.1-1.4c0.1,0,0.2,0,0.4,0
			c0.1,0.3,0.3,0.5,0.4,0.8c0.1-0.3,0.3-0.5,0.3-0.6c0.3,0.3,0.6,0.6,1,0.9c0.1,0.1,0.2,0.1,0.3,0.2c0.5,0.2,1.3,0.1,1.2,1
			c-0.2,0.2-0.3,0.3-0.5,0.5c-0.5-0.3-1.1-0.6-1.7-0.9C33.6,41.8,33.5,42.3,33.4,42.7z"/>
		<path class="st6" d="M35.8,41.5c0.1-0.9-0.7-0.8-1.2-1c0-0.5,0.1-0.9,0.1-1.4c1,0.3,1.8,0.1,2.4-0.8c0.2,0.6,0.3,1.1,0.5,1.7
			c0.2,0.8-0.7,1.1-0.8,1c-0.8-0.5-0.4,0.4-0.6,0.5C36,41.5,35.9,41.5,35.8,41.5z"/>
		<path class="st6" d="M33.4,42.7c0.1-0.4,0.1-0.9,0.2-1.6c0.6,0.3,1.2,0.6,1.7,0.9c-0.3,0.5-0.5,1-0.8,1.5h-0.1c0,0-0.1,0-0.1-0.1
			c-0.1-0.3-0.2-0.7-0.3-0.9C33.9,42.6,33.7,42.6,33.4,42.7z"/>
		<path class="st17" d="M37.1,38.3c-0.6,0.9-1.4,1-2.4,0.8c-0.1,0.4-0.2,0.8-0.3,1.2c-0.3-0.3-0.6-0.6-1-0.9c0,0.1-0.2,0.4-0.3,0.6
			c-0.1-0.3-0.3-0.5-0.4-0.8c-0.1,0-0.2,0-0.4,0c0,0.5,0,1-0.1,1.4c0,0.2,0,0.3,0,0.5c-0.3-0.3-0.8-0.5-0.9-0.8
			c-0.2-0.7-0.2-1.6-0.3-2.3c0.1-0.1,0.2-0.2,0.2-0.3c0.2-0.2,0.3-0.3,0.5-0.5l0,0c0.2,0,0.3,0,0.5,0c0.2-0.1,0.5-0.2,0.7-0.2
			c0.5-0.1,1-0.2,1.5-0.2c0.3,0.2,0.5,0.3,0.7,0.4c0.3-0.4,0.5-0.6,0.8-0.9c0.1,0.4,0.2,0.8,0.4,1.4c0.2-0.9,0.4-1.5,0.5-2.1
			c0.1-0.2,0.2-0.5,0.2-0.7s0-0.3,0-0.5c0.4,0.3,0.8,0.6,1.2,1c-0.1,0.3-0.2,0.6-0.2,1c0,0.1,0,0.2,0,0.2c0,0.2,0,0.3,0,0.5
			s0,0.3,0,0.5C37.7,37.8,37.4,38.1,37.1,38.3z"/>
		<path class="st11" d="M31,38.1c0.1,0.8,0.1,1.6,0.3,2.3c0.1,0.3,0.6,0.5,0.9,0.8c0.3,0.9-0.4,0.9-1,1c-0.2,0-0.3,0-0.5-0.1
			c-0.1-0.9-0.3-1.8-0.4-2.6c0.2-0.6,0.5-1.2,0.7-1.7l0,0C31,37.9,31,38,31,38.1z"/>
		<path class="st21" d="M47,30.3c0.5-0.9,0.9-1.9,1.5-2.8s0.6-1.8,0.2-2.8c0.2,0.2,0.5,0.3,0.7,0.5c0.1,0.8,0,1.7,0.3,2.5
			c0.4,0.9,1,1.8,1.5,2.7c0.1,0.2,0.4,0.4,0.6,0.5c-0.4,0.2-0.7,0.3-1,0.4c-0.2,0.5-0.5,0.9-0.8,1.4c-0.2,0.3-0.5,0.6-0.7,0.8l0,0
			c-0.4-1.1-0.8-2.3-1.1-3.4c-0.1-0.2-0.3-0.4-0.4-0.6C47.8,31.1,47.4,30.7,47,30.3z M50,31.7c-0.1,0-0.1,0-0.2-0.1v0.1
			C49.9,31.7,50,31.7,50,31.7z"/>
		<path class="st21" d="M58,19.8c0.2,0.3,0.5,0.7,0.7,1c-0.3,0.8-1.2,0.8-1.9,1.7c0.2-1.1,0.3-1.7,0.4-2.5
			C57.4,19.9,57.7,19.9,58,19.8z"/>
		<path class="st21" d="M58.4,23c-0.1-0.1-0.2-0.2-0.4-0.2l0.1-0.1C58.3,22.8,58.4,22.9,58.4,23L58.4,23z"/>
		<path class="st21" d="M58.7,20.8c0.2,0,0.3,0,0.5,0c-0.1,0.1-0.2,0.3-0.3,0.4C58.8,21.1,58.7,20.9,58.7,20.8z"/>
		<path class="st13" d="M55,17.7c0.8-0.9,1.3-0.1,1.9,0.2c0,0.7-0.3,0.9-0.9,0.5C55.7,18.2,55.4,17.9,55,17.7z"/>
		<path class="st13" d="M53.3,17.7c-0.1-0.2-0.1-0.4-0.2-0.6c0.1,0,0.2-0.1,0.3-0.1c0.1,0.2,0.1,0.4,0.2,0.6h-0.1L53.3,17.7z"/>
		<path class="st13" d="M54.1,17.7c0.2,0,0.3,0,0.5,0C54.4,17.7,54.2,17.7,54.1,17.7z"/>
		<path class="st21" d="M51.9,37.3c-0.2-0.2-0.3-0.4-0.5-0.7c0.2-0.2,0.5-0.7,0.6-0.6c0.8,0.2,1.2,0.1,1-0.8c0,0,0.6-0.3,0.7-0.2
			c0.6,0.8,1,0.5,1.3-0.1c0.6,0.2,1,0.4,1.5,0.6l0,0c-0.2,0.2-0.5,0.5-0.7,0.7c-0.4,0.1-0.9,0.2-1.2,0.4c-0.1,0.1-0.2,0.4-0.2,0.6
			c-0.1,0-0.1,0-0.2,0c-0.2,0-0.4,0-0.5,0c-0.1,0.1-0.2,0.2-0.2,0.3c-0.2,0-0.5,0-0.7,0C52.4,37.3,52.1,37.3,51.9,37.3z"/>
		<path class="st21" d="M59.7,35.4c-0.2,0.3-0.3,0.7-0.5,1l0,0c-0.3-0.3-0.5-0.7-0.8-0.8c-0.6-0.2-1.3-0.1-1.9-0.1l0,0
			c0.4-0.7,0.8-1.2,1.7-0.6C58.6,35.1,59.1,35.2,59.7,35.4z"/>
		<path class="st21" d="M51,32.5L51,32.5l-0.2,0.1c0-0.1,0-0.1,0-0.2C50.9,32.4,50.9,32.5,51,32.5z"/>
		<path class="st21" d="M60.1,35.4c-0.1,0.1-0.1,0.2-0.2,0.3c0-0.1-0.1-0.2-0.1-0.3C60,35.4,60.1,35.4,60.1,35.4z"/>
		<path class="st29" d="M59.7,29.1c-0.1,0.1-0.3,0.3-0.4,0.3c-0.4,0-0.7-0.2-1-0.3c0.1-0.5,0.2-0.9,0.3-1.4c0.3,0.3,0.7,0.5,1,0.8
			C59.6,28.7,59.6,28.9,59.7,29.1z"/>
		<path class="st29" d="M61,22.6c0-0.1,0-0.2,0.1-0.2c0,0,0.2,0,0.2,0.1c0,0,0,0.2-0.1,0.2C61.1,22.7,61,22.6,61,22.6z"/>
		<path class="st29" d="M60.4,28.4c-0.1,0.1-0.2,0.2-0.2,0.2C60.2,28.5,60.3,28.4,60.4,28.4z"/>
		<path class="st23" d="M60.4,21.3c0,0,0.1,0,0.1,0.1C60.5,21.3,60.4,21.3,60.4,21.3L60.4,21.3z"/>
		<path class="st16" d="M31,37.8c-0.2,0.6-0.5,1.2-0.7,1.7c-0.3,0.1-0.7,0.1-1,0.2c-0.2-0.6-0.5-1.3-0.7-1.9
			c0.4-0.2,0.8-0.3,1.2-0.5c-0.5-0.8-0.3-1.1,1-1.2C30.8,36.7,30.9,37.3,31,37.8z"/>
		<path class="st14" d="M56.5,35.4c0.6,0,1.3,0,1.9,0.1c0.3,0.1,0.5,0.5,0.8,0.8c-0.9,0.2-1.8,0.4-2.7,0.7c-0.2-0.3-0.4-0.6-0.7-0.9
			C56,35.9,56.3,35.7,56.5,35.4z"/>
		<path class="st6" d="M55.8,37.9c0.1-0.1,0.2-0.2,0.3-0.3l0.1,0.1C56,37.7,55.9,37.8,55.8,37.9C55.8,37.8,55.8,37.9,55.8,37.9z"/>
		<path class="st20" d="M54.1,37.1c0.1,0,0.1,0,0.2,0c0,0.1,0.1,0.1,0.1,0.2C54.3,37.2,54.2,37.2,54.1,37.1z"/>
		<path class="st20" d="M53.3,37.4c0.1-0.1,0.2-0.2,0.2-0.3c0,0.1,0,0.2,0,0.3C53.5,37.4,53.4,37.4,53.3,37.4z"/>
		<path class="st2" d="M38.8,30.1c0.2-0.4,0.5-0.7,0.6-1.1c0.1-0.3,0.2-0.7,0.3-1.1c0.1,0,0.3,0,0.4,0c0.1,0.9,0.2,1.7,0.4,2.6
			c0.1,1.2,0.2,2.4,0.4,3.6c0.4-0.2,0.7-0.4,1.1-0.6c0.2,0.1,0.5,0.2,0.7,0.3c-0.1,0.4-0.2,0.8-0.2,1.2c-0.2,0-0.5-0.1-0.7,0
			c-1.1,0.5-1.4-0.1-1.6-1.1c-0.4,0-0.7-0.1-1.1-0.1c-0.2-0.3-0.3-0.6-0.5-0.9c0.1-0.2,0.3-0.3,0.3-0.5
			C38.9,31.6,38.8,30.8,38.8,30.1z"/>
		<path class="st17" d="M39.2,41.4c-0.3-0.6-0.6-1.1-1-1.9c0,0.8-0.1,1.4-0.1,2H38c-0.1-0.5-0.1-1-0.2-1.5c0.2-0.8,0.3-1.6,0.5-2.4
			c0.2-0.2,0.4-0.3,0.6-0.5c0.1-0.2,0.3-0.3,0.4-0.5c0.3,0,0.7,0,1,0c0.1,0.4,0.2,0.7,0.3,1.1c0.1,0.4,0.1,0.8,0.2,1.1
			c-0.1,0.3-0.2,0.6-0.2,1c-0.3,0.4,0.2,1.4-0.9,1.2c0-1,0-2,0-3c-0.2,0-0.3,0-0.5,0c0.1,1.1,0.1,2.2,0.2,3.3L39.2,41.4z"/>
		<path class="st3" d="M38.5,32.8c0.2,0.3,0.3,0.6,0.5,0.9c0.1,0.7,0,1.4-0.7,1.7c-0.4-0.3-0.8-0.6-1.2-1c-0.1-0.2-0.3-0.4-0.4-0.6
			c-0.1-0.2-0.2-0.4-0.3-0.7c-0.1-0.1-0.2-0.2-0.2-0.2c0.2-0.5,0.3-1,0.5-1.4c0.4,0.6,0.7,1.3,1.1,2c0.1-0.5,0.2-0.7,0.3-1
			c0.1,0,0.2,0,0.2,0C38.4,32.6,38.5,32.7,38.5,32.8z"/>
		<path class="st21" d="M42.4,34.9c0.1-0.4,0.2-0.8,0.2-1.2c0.2-0.1,0.5-0.2,0.7-0.2c0,0.2,0,0.3,0,0.5c0,0.3,0,0.7,0,1
			c-0.1,0-0.2,0-0.3,0c0-0.2-0.1-0.4-0.1-0.5c-0.1,0-0.1,0-0.2,0c0,0.3,0,0.5,0,0.8l0,0c-0.1,0-0.2,0-0.2,0
			C42.6,35.1,42.5,35,42.4,34.9z"/>
		<path class="st15" d="M39.3,36.6c-0.1,0.2-0.3,0.3-0.4,0.5c-0.3,0-0.5,0-0.8,0c0-0.2,0-0.3,0-0.5c0.1-0.1,0.2-0.2,0.2-0.2
			c0.2,0,0.3,0,0.5,0l0,0C38.9,36.5,39.1,36.5,39.3,36.6L39.3,36.6z"/>
		<path class="st14" d="M44.4,35.1c-0.1,0.6-0.1,1.2-0.2,1.7c-0.1-0.4-0.2-0.8-0.3-1.3c0-0.1,0-0.3,0-0.4c0-0.1,0-0.2,0-0.2H44h0.1
			c0.1,0,0.2,0,0.3,0C44.4,35,44.4,35.1,44.4,35.1z"/>
		<path class="st17" d="M43.9,35.6c0.1,0.4,0.2,0.8,0.3,1.3c-0.1,0.1-0.2,0.2-0.3,0.3C43.9,36.6,43.9,36.1,43.9,35.6z"/>
		<path class="st3" d="M43.9,34.9c0,0.1,0,0.2,0,0.2c-0.1,0-0.2,0-0.2,0c-0.1-0.1-0.1-0.2-0.2-0.2c0-0.3,0-0.7,0-1
			c0.1,0,0.2,0,0.3,0C43.7,34.3,43.8,34.6,43.9,34.9z"/>
		<path class="st13" d="M43.4,34.9c0.1,0.1,0.1,0.2,0.2,0.2c-0.3,0.1-0.5,0.1-0.8,0.2c0-0.1,0-0.1,0-0.2l0,0
			c0.1-0.1,0.2-0.2,0.3-0.3C43.2,34.9,43.3,34.9,43.4,34.9z"/>
		<path class="st17" d="M38.8,36.4c-0.1-0.2-0.2-0.3-0.2-0.5c0.1-0.1,0.2-0.2,0.3-0.3c0.1,0.2,0.1,0.4,0.2,0.5
			C38.9,36.2,38.9,36.3,38.8,36.4L38.8,36.4z"/>
		<path class="st8" d="M38.8,36.4c0.1-0.1,0.2-0.2,0.3-0.2c0.1,0.2,0.1,0.3,0.2,0.5C39.1,36.5,38.9,36.5,38.8,36.4z"/>
		<path class="st8" d="M38.3,36.4c-0.1,0.1-0.2,0.2-0.2,0.2c0-0.1,0-0.2,0-0.2S38.2,36.4,38.3,36.4z"/>
		<path class="st0" d="M42.9,35.2c0,0.1,0,0.1,0,0.2c-0.1-0.1-0.1-0.1-0.2-0.2C42.7,35.2,42.8,35.2,42.9,35.2z"/>
		<path class="st17" d="M40.9,38.9c0.1-0.3,0.2-0.7,0.3-1l0,0C41.1,38.6,41,39.3,41,40C40.9,39.6,40.9,39.3,40.9,38.9z"/>
		<path class="st14" d="M40.9,38.9c0,0.4,0.1,0.8,0.1,1.2c-0.1,0.1-0.2,0.2-0.2,0.2c-0.1-0.2-0.2-0.3-0.3-0.5c0.1-0.3,0.2-0.6,0.2-1
			C40.8,38.8,40.8,38.9,40.9,38.9z"/>
		<path class="st17" d="M41.2,37.8c0-0.1,0-0.2,0-0.2c0-0.1,0-0.1,0-0.2c0.2,0,0.4,0,0.5,0c0,0.1,0,0.1,0,0.2
			C41.6,37.7,41.4,37.8,41.2,37.8L41.2,37.8z"/>
		<path class="st20" d="M41.2,37.4c0,0.1,0,0.1,0,0.2C41.2,37.5,41.1,37.4,41.2,37.4C41.1,37.3,41.2,37.4,41.2,37.4z"/>
		<path class="st29" d="M47,30.3c0.4,0.4,0.8,0.8,0.9-0.8c0.1,0.2,0.3,0.4,0.4,0.6c0.4,1.1,0.8,2.3,1.1,3.4
			c-0.4,1.2-0.8,2.5-1.2,3.8c-0.3-0.1-0.5-0.3-0.8-0.4c-0.2-0.3-0.5-0.7-0.7-1c0-0.2,0-0.5,0-0.7c0-0.9,0.5-1.8-0.2-2.7l0,0
			c0.5,0,1-0.1,0.5-0.7C47,31.3,47,30.8,47,30.3z"/>
		<path class="st21" d="M46.5,32.5c0.8,0.8,0.2,1.8,0.2,2.7c0,0.2,0,0.5,0,0.7c-0.7-0.6-1.2-0.2-1.7,0.3c-0.1,0-0.2,0-0.3,0
			c-0.2-0.4-0.3-0.7-0.5-1.1c0-0.1,0-0.1,0-0.2c-0.1-0.3-0.2-0.6-0.2-1c-0.1-0.1-0.2-0.2-0.2-0.3c0-0.2,0-0.5,0-0.7
			c0.2-0.2,0.3-0.3,0.5-0.5v0.1c0,0,0,0,0.1,0l-0.1-0.1c0.2-0.2,0.3-0.3,0.5-0.5c0.4,0.9-0.2,2.2,1.3,3c-0.1-1.1-0.2-1.8-0.3-2.6
			l0,0C46.1,32.5,46.3,32.5,46.5,32.5z"/>
		<path class="st14" d="M44.8,36.2c0.1,0,0.2,0,0.3,0c0,0.3,0,0.7,0,1C45,36.8,44.9,36.5,44.8,36.2z"/>
		<path class="st8" d="M39.3,41.3c-0.1-1.1-0.1-2.2-0.2-3.3c0.2,0,0.3,0,0.5,0c0,1,0,2,0,3C39.5,41.1,39.4,41.2,39.3,41.3z"/>
		<path class="st17" d="M39.5,42L39.5,42h-0.2c0-0.2,0-0.4,0-0.6C39.3,41.6,39.4,41.8,39.5,42z"/>
		<path class="st15" d="M38.3,37.6c-0.2,0.8-0.3,1.6-0.5,2.4c-0.1,0-0.2,0-0.2,0c-0.2-0.6-0.3-1.1-0.5-1.7c0.3-0.2,0.6-0.5,0.9-0.7
			C38.1,37.6,38.2,37.6,38.3,37.6z"/>
		<path class="st4" d="M37.5,42.7c0.1,0.1,0.3,0.2,0.4,0.3c-0.1,0-0.3,0-0.4,0C37.5,42.9,37.5,42.8,37.5,42.7z"/>
		<path class="st19" d="M30.8,18.4c-0.2,0.2-0.5,0.3-0.7,0.5c-0.1-0.1-0.1-0.3-0.2-0.4C30.2,18.5,30.5,18.4,30.8,18.4L30.8,18.4z"/>
		<path class="st20" d="M29.5,28.8c0.1-0.7,0.2-1.5,0.3-2.2c0.4,0.2,0.8,0.5,1.2,0.7c-0.3,0.8-0.6,1.6-1,2.4
			C29.9,29.5,29.7,29.2,29.5,28.8z"/>
		<path class="st18" d="M29.5,28.8c0.2,0.3,0.3,0.7,0.5,1c0.2,0.9,0.5,0,0.7,0c0.1,0.1,0.1,0.2,0.2,0.3c-0.1-0.1-0.1-0.2-0.2-0.3
			c0.3-0.8,0.4-1.7,1.2-2.2c0.3,0.2,0.7,0.3,1.1,0.5c-0.1,0.3-0.2,0.8-0.3,1.2c-0.4,0.4-0.9,0.9-1.3,1.3c0.1,0.1,0.2,0.2,0.3,0.3
			c0.4-0.2,0.7-0.4,1.1-0.6c0,0.1,0,0.2,0,0.2c0.1,0.3,0.2,0.6,0.2,0.9c0,0.1-0.2,0.2-0.2,0.3c-0.1,0-0.3-0.1-0.3-0.1
			c-0.4,0.8-0.9,1.5-1.1,2.3c-0.1,0.5,0.2,1.2,0.4,1.7l0,0c-0.3,0-0.6,0-1,0c-0.1-0.7-0.3-1.4-0.4-2.4c-0.1,0.5-0.1,1-0.4,1.2
			c-0.2,0.2-0.6,0.3-0.9,0.4c0.2-0.3,0.5-0.6,0.6-0.7c-0.3-0.3-0.5-0.5-0.6-0.8c-0.2-0.7-0.3-1.5-0.5-2.2c0.2-0.2,0.3-0.3,0.5-0.5
			c0.4-0.2,0.8-0.5,0-0.7C29,29.6,28.6,28.9,29.5,28.8z M31,33.3h-0.1v0.1C31,33.4,31,33.4,31,33.3C31.1,33.4,31.1,33.3,31,33.3z"/>
		<path class="st23" d="M43.4,33.5c-0.2,0.1-0.5,0.2-0.7,0.2c-0.2-0.1-0.5-0.2-0.7-0.3c0-0.1,0-0.2,0-0.2c0.2-0.4,0.3-0.7,0.5-1.1
			c0.1-0.2,0.2-0.4,0.3-0.6c0.2,0.2,0.3,0.3,0.5,0.5c0.1,0.1,0.2,0.2,0.2,0.2c0,0.3,0,0.7,0,1C43.4,33.3,43.4,33.4,43.4,33.5z"/>
		<path class="st13" d="M44.8,32c-0.2,0.2-0.3,0.3-0.5,0.5l0,0c-0.2,0.2-0.3,0.3-0.5,0.5c-0.1-0.4-0.2-0.8-0.2-1.2l0,0
			C44.2,31,44.6,31.4,44.8,32z"/>
		<path class="st21" d="M47,31.8c0.5,0.7,0,0.7-0.5,0.7C46.7,32.3,46.9,32,47,31.8z"/>
		<path class="st13" d="M43.4,32.2c-0.1-0.1-0.2-0.2-0.2-0.2c0.2-0.1,0.3-0.2,0.5-0.2l0,0C43.5,31.9,43.5,32.1,43.4,32.2z"/>
		<path class="st13" d="M43,30.7C43,30.7,43.1,30.8,43,30.7c0,0.1,0,0.2,0,0.2C43,30.8,43,30.8,43,30.7z"/>
		<path class="st21" d="M45.8,32.5c-0.1-0.1-0.1-0.2-0.2-0.3C45.7,32.3,45.8,32.4,45.8,32.5L45.8,32.5z"/>
		<path class="st18" d="M36.1,33c0.1,0.1,0.2,0.2,0.2,0.2c-0.2,1-0.3,2.1-0.5,3.1c-0.2,0.3-0.5,0.6-0.8,0.9
			c-0.2-0.1-0.4-0.3-0.7-0.4c0-0.1,0-0.2,0-0.2c-0.2-0.2-0.5-0.3-0.7-0.5c-0.2,0.1-0.5,0.2-0.7,0.2c0-0.3,0-0.6,0-1
			c0.4,0,0.8,0.1,1.2,0.1c0.2-0.6,0.3-1.1,0.5-1.6c-0.2-0.4-0.3-0.8-0.5-1.2c0.3-0.1,0.9,0.9,1-0.2c0.2,0.1,0.3,0.2,0.5,0.2
			C35.8,32.8,35.9,32.9,36.1,33z"/>
		<path class="st20" d="M38.5,32.8c-0.1-0.1-0.2-0.2-0.3-0.3c0-0.1-0.1-0.2-0.1-0.3c-0.1,0.1-0.1,0.2-0.2,0.3
			c-0.1,0.3-0.2,0.6-0.3,1c-0.4-0.7-0.8-1.3-1.1-2c0-0.2,0-0.3,0-0.5c0.2-0.5,0.4-0.9,0.6-1.4l0.4,0.1c0.1,0.5,0.1,1,0.1,1.5
			c0.6,0,0.6,0,0.4-1.8c0.3,0.2,0.5,0.4,0.6,0.5c0,0.7,0.1,1.5,0.1,2.2C38.9,32.5,38.7,32.6,38.5,32.8z"/>
		<path class="st20" d="M41.9,33.2c0,0.1,0,0.2,0,0.2c-0.4,0.2-0.8,0.4-1.1,0.6c-0.1-1.1-0.2-2.4-0.4-3.6c0.2-0.1,0.5-0.1,0.7-0.2
			c0,0.7-0.1,1.4,0,2.2C41.3,32.8,41.7,33,41.9,33.2z"/>
		<path class="st13" d="M35.1,32.5c-0.1,1.1-0.7,0.1-1,0.2c-0.1-0.3-0.4-0.7-0.4-1c0-0.6,0.1-1.3,0.2-1.9c0.2-1,0.5-1.9,0.7-2.9
			c0.3,0.9,0.7,1.8,0.8,2.7C35.5,30.6,35.2,31.5,35.1,32.5z"/>
		<path class="st20" d="M33.9,29.8c-0.1,0.6-0.2,1.3-0.2,1.9c0,0.3,0.3,0.7,0.4,1c0.2,0.4,0.3,0.8,0.5,1.2c-1.2-0.2-1.9-0.9-1.9-2.2
			c0.1-0.1,0.3-0.2,0.2-0.3c0-0.3-0.2-0.6-0.2-0.9c0.2-0.1,0.3-0.2,0.5-0.3S33.7,30,33.9,29.8z"/>
		<path class="st20" d="M32.7,30.3c-0.4,0.2-0.7,0.4-1.1,0.6c-0.1-0.1-0.2-0.2-0.3-0.3c0.4-0.4,0.9-0.9,1.3-1.3
			C32.7,29.7,32.7,30,32.7,30.3z"/>
		<path class="st12" d="M26.9,27.4c1.3,0.1,0.5,0.8,0.4,1.6C27.1,28.2,27,27.8,26.9,27.4L26.9,27.4z"/>
		<path class="st20" d="M29.1,30.1c0.8,0.2,0.4,0.5,0,0.7C29.1,30.5,29.1,30.3,29.1,30.1z"/>
		<path class="st19" d="M27.8,35.3c0,0.2,0,0.3,0,0.4c-0.1,0-0.2-0.1-0.2-0.1C27.6,35.5,27.7,35.4,27.8,35.3z"/>
		<path class="st19" d="M27.8,34.2c0,0,0,0.1-0.1,0.1C27.8,34.3,27.8,34.2,27.8,34.2L27.8,34.2z"/>
		<path class="st19" d="M28.1,34.2C28.1,34.2,28.2,34.2,28.1,34.2C28.2,34.2,28.1,34.2,28.1,34.2L28.1,34.2z"/>
		<path class="st0" d="M30.8,35.7c0.3,0,0.6,0,1,0c0,0.2,0,0.5,0,0.7l-0.1,0.1c0,0.1,0.1,0.1,0.1,0.2c0.2,0.2,0.3,0.5,0.5,0.7
			c-0.2,0-0.3,0-0.5,0c0,0-0.1,0-0.1-0.1c0,0,0.1,0,0.1,0.1c-0.2,0.2-0.3,0.3-0.5,0.5c-0.1,0-0.2,0-0.2,0l0,0
			c-0.1-0.6-0.2-1.1-0.3-1.7C30.8,36,30.8,35.8,30.8,35.7z"/>
		<path class="st8" d="M34.4,40.3c0.1-0.4,0.2-0.8,0.3-1.2c0,0.5-0.1,0.9-0.1,1.4C34.5,40.4,34.4,40.4,34.4,40.3z"/>
		<path class="st8" d="M35.9,36.4c0.2-1,0.3-2.1,0.5-3.1c0.1,0.2,0.2,0.5,0.3,0.7s0.3,0.4,0.4,0.6c0,0.2,0,0.3,0,0.5l0,0
			c-0.1,0.1-0.2,0.2-0.3,0.3c0,0.1,0,0.3,0,0.4c-0.2,0.6-0.3,1.2-0.5,2.1C36.1,37.2,36,36.8,35.9,36.4z"/>
		<path class="st20" d="M31.7,36.4c0-0.2,0-0.5,0-0.7l0,0c0.4-0.1,0.8-0.2,1.2-0.2c0,0.3,0,0.6,0,1c0,0.2,0,0.5,0,0.7
			c-0.2,0.1-0.5,0.2-0.7,0.2c-0.2-0.2-0.3-0.5-0.5-0.7C31.7,36.6,31.7,36.5,31.7,36.4z"/>
		<path class="st0" d="M32.9,37.1c0-0.2,0-0.5,0-0.7c0.2-0.1,0.5-0.2,0.7-0.2c0.2,0.2,0.5,0.3,0.7,0.5c0,0.1,0,0.2,0,0.2
			C33.9,37,33.4,37,32.9,37.1z"/>
		<path class="st3" d="M36.8,35.6c0-0.1,0-0.3,0-0.4c0.1-0.1,0.2-0.2,0.3-0.3l0,0C37,35.2,36.9,35.4,36.8,35.6z"/>
		<path class="st8" d="M38.3,37.6c-0.1,0-0.2,0-0.3,0c0-0.2,0-0.3,0-0.5c0.3,0,0.5,0,0.8,0C38.7,37.3,38.5,37.4,38.3,37.6z"/>
		<path class="st16" d="M31,37.8c0.1,0,0.2,0,0.2,0C31.1,37.9,31,38,31,38.1C31,38,31,37.9,31,37.8z"/>
		<path class="st29" d="M50,31.7C49.9,31.7,49.9,31.7,50,31.7l-0.1-0.1C49.9,31.6,50,31.6,50,31.7z"/>
		<path class="st13" d="M38,32.5c0.1-0.1,0.1-0.2,0.2-0.3c0,0.1,0.1,0.2,0.1,0.3C38.2,32.5,38.1,32.5,38,32.5z"/>
		<path class="st0" d="M43.2,34.9c-0.1,0.1-0.2,0.2-0.3,0.3c0-0.3,0-0.5,0-0.8c0.1,0,0.1,0,0.2,0C43.1,34.6,43.1,34.7,43.2,34.9z"/>
		<path class="st12" d="M43.4,33.5c0-0.1,0-0.1,0-0.2c0.1,0.2,0.2,0.3,0.3,0.5c0,0.1,0,0.2,0,0.2c-0.1,0-0.2,0-0.3,0
			C43.4,33.8,43.4,33.6,43.4,33.5z"/>
		<path class="st23" d="M43.6,34c0-0.1,0-0.2,0-0.2c0.1,0,0.1,0,0.2,0c0.1,0.1,0.2,0.2,0.2,0.3c0,0.3,0,0.6,0,1h-0.1h-0.1
			C43.8,34.6,43.7,34.3,43.6,34z"/>
		<path class="st2" d="M44.1,34.9c0-0.3,0-0.6,0-1c0.1,0.3,0.2,0.6,0.2,1C44.3,34.9,44.2,34.9,44.1,34.9z"/>
		<path class="st2" d="M43.9,33.7c-0.1,0-0.1,0-0.2,0c-0.1-0.2-0.2-0.3-0.3-0.5c0-0.3,0-0.7,0-1c0.1-0.2,0.2-0.3,0.2-0.5
			c0.1,0.4,0.2,0.8,0.2,1.2C43.9,33.2,43.9,33.5,43.9,33.7z"/>
		<path class="st2" d="M44.4,32.5L44.4,32.5C44.4,32.6,44.4,32.6,44.4,32.5C44.4,32.6,44.4,32.5,44.4,32.5L44.4,32.5z"/>
		<path class="st0" d="M32.9,35.4c-0.4,0.1-0.8,0.2-1.2,0.2c-0.1-0.6-0.5-1.2-0.4-1.7c0.2-0.8,0.7-1.5,1.1-2.3c0,0,0.2,0.1,0.3,0.1
			c0,1.3,0.7,2,1.9,2.2c-0.2,0.5-0.3,1-0.5,1.6C33.7,35.5,33.3,35.5,32.9,35.4z"/>
		<path class="st0" d="M30.8,29.8c0.1,0.1,0.1,0.2,0.2,0.3C30.9,30,30.8,29.9,30.8,29.8L30.8,29.8z"/>
		<path class="st0" d="M31,33.3C31.1,33.3,31.1,33.4,31,33.3c0,0.1,0,0.1-0.1,0.1v-0.1C31,33.3,31,33.3,31,33.3z"/>
		<path class="st17" d="M34.4,36.6c-0.2-0.2-0.5-0.3-0.7-0.5C33.9,36.3,34.2,36.5,34.4,36.6z"/>
		<path class="st17" d="M31.7,37.4c0,0-0.1,0-0.1-0.1C31.7,37.3,31.7,37.3,31.7,37.4L31.7,37.4z"/>
		<path class="st17" d="M31.7,36.4c0,0.1,0,0.2,0,0.2C31.7,36.6,31.7,36.5,31.7,36.4C31.6,36.5,31.7,36.4,31.7,36.4z"/>
		<path class="st17" d="M37.1,34.9c-0.1,0.1-0.2,0.2-0.3,0.3C36.9,35.1,37,35,37.1,34.9z"/>
	</g>
</g>
</svg>
