<?xml version="1.0" encoding="utf-8"?>
<!-- Generator: Adobe Illustrator 25.2.3, SVG Export Plug-In . SVG Version: 6.00 Build 0)  -->
<svg version="1.1" id="Layer_1_xA0_Image_1_" xmlns="http://www.w3.org/2000/svg" xmlns:xlink="http://www.w3.org/1999/xlink"
	 x="0px" y="0px" viewBox="0 0 75 75" style="enable-background:new 0 0 75 75;" xml:space="preserve">
<style type="text/css">
	.st0{fill:#A17946;}
	.st1{fill:#F4E6DC;}
	.st2{fill:#CAB49E;}
	.st3{fill:#E4D3C1;}
	.st4{fill:#381707;}
	.st5{fill:#E9D3B6;}
	.st6{fill:#6A4728;}
	.st7{fill:#C5B4A8;}
	.st8{fill:#4B2912;}
	.st9{fill:#DDC7AB;}
	.st10{fill:#8B6735;}
	.st11{fill:#EAD0A8;}
	.st12{fill:#E4C59F;}
	.st13{fill:#E0BC91;}
	.st14{fill:#97713E;}
	.st15{fill:#F0DCC5;}
	.st16{fill:#EFD9C0;}
	.st17{fill:#EFD5BA;}
	.st18{fill:#E8CFAD;}
	.st19{fill:#EBD3B1;}
	.st20{fill:#F4E3D3;}
</style>
<path d="M37.9,67c0-3.1-1-6.1-1.2-9.1c-0.3-3.5,0.4-7,1-10.4c0-0.2,0.1-0.5,0.3-0.7c0.3-0.4,0.9-0.4,1.4-0.3c5,0.3,10-1.3,14.7-3.1
	c3.9-1.4,7.8-3.1,10.7-6c3.3-3.3,4.9-7.8,5.9-12.3c0.8-3.5,1.2-7.3-0.4-10.4c-1-2-2.7-3.6-4.5-4.9c-2.2-1.7-4.6-3.1-7.1-4.2
	c-2-0.9-4-1.6-6.1-2.2c-13.8-3.8-29.4-0.7-40.7,8.1c-1.8,1.4-3.6,3-4.9,4.9c-1.2,1.6-2,3.4-2.8,5.2c-1.1,2.8-2,5.8-1.9,8.8
	c0.1,3,1.4,6.1,3.9,7.9c2.3,1.6,5.3,2.1,7.2,4.2c0.9,0.9,1.4,2.1,1.7,3.3c1.9,7-2.8,14.4-1.1,21.4c0.2,0.6,0.4,1.2,0.8,1.7
	c0.5,0.5,1.1,0.7,1.7,1c0.9,0.6,1.6,1.5,2.5,2.2c2,1.8,4.6,2.5,7.2,2.6C31.7,74.9,37.8,73.6,37.9,67z"/>
<polygon class="st0" points="34.4,56.8 35.7,44.6 18.9,42.3 18.3,43.1 16,52.9 15.5,60.5 14.5,65.4 17.2,66.8 20,69.4 22.7,71.9 
	27.6,73 35.7,70.5 35.7,66.9 34.2,62.5 "/>
<path class="st1" d="M29.2,44.6h6.5h3.7c0,0,16.6-2.9,20.5-6.3c3.8-3.4,9.6-8.2,9.6-12.7S66.3,11.6,58.8,8.8S38.6,1,25.1,7.1
	s-19,12.2-19,17.3S4.9,32.7,10,36.7s5.4,4.4,12.3,6.2S29.2,44.6,29.2,44.6z"/>
<g>
	<g>
		<path class="st2" d="M41.5,3.5c0.5,0.1,1,0.4,1.5,0.4c4.2,0.2,8.2,1.1,12,2.8c0.3,0.4,0.6,0.8,0.8,1.2c-0.3,0-0.6,0-0.8,0
			c-0.8-0.1-1.5-0.2-2.3-0.2c-0.5-0.9-1.5-1.2-2.4-1.4c-1-0.3-2.1-0.5-3.1-0.7c-2.2-0.4-4.3-0.8-6.5-1.2c-1.2,0-2.5,0-3.7,0
			c-0.3,0-0.6,0.3-0.9,0.4c-0.4,0.1-0.8,0.1-1.3,0.2c-0.6,0.1-1.3,0.3-1.9,0.4c-0.4,0.1-0.7,0.1-1.1,0.2c-1,0.2-2,0.3-2.9,0.5
			c-1.5,0.4-3,0.8-4.5,1.2c-0.4,0.1-0.7,0.5-1,0.8c-0.7,0.1-1.6-0.2-2.1,0.6C20.8,9,20.4,9.2,20,9.4c-1,0.5-2.1,0.9-3,1.5
			c-0.5,0.4-0.9,0.8-1.6,0.9c-0.5,0-1.1,0.4-1.4,0.8c-0.5,0.7-1,0.9-1.8,0.8c0-0.4-0.1-0.8,0.6-0.9c0.5-0.1,0.8-0.6,1.2-1
			c2.9-2.2,6.1-3.8,9.6-4.9c2.6-0.8,5.2-1.2,7.8-2c2.8-0.9,5.7-0.7,8.5-1c0.3,0,0.6-0.2,0.8-0.2C40.9,3.5,41.2,3.5,41.5,3.5z"/>
		<path class="st0" d="M22.1,71.9c-0.3-0.1-0.6-0.2-0.7-0.4c-1-1.2-1.9-2.5-3-3.5c-0.6-0.6-1.6-1-2.5-1.1c-1.4-0.2-1.9-1-1.3-2.4
			c0.2-0.5,0.4-1,0.4-1.5c0.2-2.6,0.1-5.2,0.5-7.8c0.4-3.4,1-6.8,2.2-10.1c0,0,0.1,0,0.1,0c0,0.5,0,1,0,1.5c0,0.1,0,0.3,0,0.4
			c0.2,0.3,0.4,0.7,0.6,0.8c0.4,0.1,0.9,0,0.9,0.7c0,0.8-0.6,0.5-1.1,0.6c-0.3-0.2-0.5-0.4-0.9-0.7c-1,1.8-1.1,3.6-1,5.5
			c0,0.3,0,0.6,0,0.8c-0.2,0.1-0.6,0.2-0.6,0.4c-0.2,1.3-0.4,2.6-0.4,3.9c-0.1,1.1-0.1,2.1,0,3.2c0,0.5,0.3,0.9,0.4,1.4
			c0,0.2,0,0.4,0,0.6c-0.9,0.5-0.8,1.4-0.8,2.1c1.2,0.3,2.4,0.6,3.5,0.8c0.3,0.1,0.6,0.3,0.9,0.4c0.5-0.1,0.9-0.3,1.4-0.4
			c-0.3-0.8-0.5-1.5-0.8-2.3c-0.3-0.6-0.6-0.9-1.3-0.8c-0.7,0.2-1-0.4-1-1c0-0.9,0.2-1.8,0.3-2.8c-0.1-0.2-0.3-0.5-0.4-0.9
			c-0.1-1.1-0.1-2.2-0.3-3.3c-0.1-1.2,0.5-2.1,1.8-2.2c0,0.1-0.1,0.2-0.1,0.3c0.7,0.2,1.3,0.5,2,0.7c0.3-1.3,0.6-2.4,0.9-3.6
			c-0.7,0-1.1,0.1-1.6,0.1c0,0.5,0,0.8,0,1.2c0,0.2-0.2,0.3-0.3,0.4c-0.2-0.1-0.3-0.3-0.5-0.4c0.9-0.7-0.1-1-0.3-1.5
			c0.1-0.5,0.2-1.5,0.5-1.6c0.9-0.2,1.9-0.3,2.7,0c1,0.3,1.7,0.3,2.4-0.6c0.1,0,0.2,0,0.2-0.1c0.1,0,0.3,0.1,0.4,0.1
			c0.4,2.1,2.1,1.3,3.4,1.6c-0.5,0.3-1,0.4-1.5,0.5c-0.3,0.1-0.6,0.3-1,0.5c0.3,0.4,0.6,0.8,1,1.1c0.1,0.1,0.5-0.1,0.8-0.1
			c0.4,0,0.8,0,1.2,0.1c-0.1,0.3-0.3,0.7-0.5,1.1c0.6,0.4,1.3,0.8,2,1.2c-0.8,0.9-1.7,1.7-0.6,2.9c0.1,0.1,0,0.3,0,0.4
			c-0.9,0.7-0.4,1.7-0.6,2.5c-0.2,1-0.1,1.7,0.9,1.9c-0.2,1.1-0.3,2.1-0.5,3.3c-0.5-0.5-0.7-0.8-1-1.2c-0.2,0.6-0.3,1-0.4,1.4
			c0.3,0.3,0.6,0.6,0.9,0.7c0.3,0.2,0.8,0.2,1.3,0.4c-0.4,0.7-0.9,1.4-1.2,2.1c-0.1,0.3-0.1,0.6-0.2,0.9c0,0.3,0,0.6,0,0.8
			c0,0.1,0.1,0.2,0.1,0.3c0.1-0.1,0.2-0.2,0.3-0.3c0.1,0,0.3,0,0.4,0c0.2,0.3,0.4,0.7,0.6,0.8c0.7,0.1,0.9,0.6,1.1,1.1
			c-1.1,0.2-2.3,0.4-3.4,0.5c-0.1-0.2-0.1-0.6-0.2-0.6c-1.1-0.3-2.2-0.6-3.3-0.9c0-1.2-0.1-1.3-1.3-1.3c-0.3,0-0.5,0.1-0.8,0.2
			c-0.1-0.1-0.1-0.1-0.2-0.2c-0.1-1.2-1-0.7-1.7-0.8c-0.1,0-0.3,0-0.4,0c-0.1-0.2-0.3-0.4-0.4-0.6c-0.1,0.1-0.2,0.2-0.2,0.3
			c0.2,0.1,0.4,0.2,0.6,0.3c0.1,0.1,0.3,0.3,0.4,0.4l0,0C21.4,70.5,21.8,71.2,22.1,71.9z M23.5,65.6C23,67,24,67.8,24.4,68.9
			c0,0.1,0.9,0.1,1,0c0.2-0.5,0.6-1.4,0.4-1.7C25.2,66.5,24.8,65.3,23.5,65.6z M25.1,52.3c0,0.1,0.1,0.3,0.1,0.4
			c0.3-0.1,0.7-0.2,1-0.3c0-0.1-0.1-0.2-0.1-0.3C25.8,52.1,25.5,52.2,25.1,52.3z"/>
		<path class="st3" d="M67.9,29.5c0.1,0.1,0.2,0.2,0.4,0.4c-0.3,0.1-0.6,0.2-1,0.4c0.2,0.2,0.3,0.3,0.4,0.4c-0.3,0.3-0.7,0.6-1,0.9
			c-0.5,0.4-1,0.8-1.4,1.3c-0.6,0.7-1.1,1.5-1.7,2.3c0,0,0,0,0,0c-0.7-0.4-0.8,0-0.9,0.6c0,0,0,0,0,0c-0.4,0.1-0.9,0.2-1.2,0.5
			c-1.3,0.9-2.4,1.9-3.7,2.7c-0.9,0.6-2.1,0.8-3,1.6c-1,0.7-2.4,0.8-3.7,1.2c-1,0.3-2,0.6-3,0.9c-0.8,0.2-1.5,1-2.4,0.4
			c0.2-0.2,0.4-0.5,0.7-0.6c0.7-0.4,1.4-0.8,2.1-1.3c2.5,0.3,4.4-1.2,6.3-2.5c0.8-0.5,1.4-1.1,2.5-0.8c0-1.3,0.8-1.6,1.8-1.6
			c0.7,0,1.6-0.1,1.5-1.2c0.3-0.2,0.6-0.4,0.7-0.7c0.3-1,0.8-1.7,1.9-1.7c0-0.4-0.1-1,0.1-1.2c0.6-0.6,0.3-1.1,0-1.6
			c-0.5-0.8-0.2-1.5,0.6-1.8c0.5-0.2,1.1,0,1.7,0c-0.1-0.2-0.2-0.5-0.4-0.8c-0.3-0.6-0.7-0.7-1.4-0.4c-1.1,0.6-2.2,1.1-3.3,1.7
			c0.4-0.5,0.8-1.1,1.4-1.5c0.9-0.8,1.9-1.5,2.9-2.3c0.1-0.3,0.4-0.5,0.4-0.8c0-1.1,0-2.2,0-3.3c0-0.6,0-1.2,0-1.8
			c0.5,0.6,1,1.2,1.5,1.8c0.5,0.8,1.1,1.5,1.5,2.3c0.1,0.2-0.1,0.6-0.2,0.8c-0.6,0.6-0.8,1.1,0.1,1.5c0.2,0.1,0.3,0.5,0.5,0.7
			c-0.1,0.7-0.3,1.4-0.4,2.1c-0.1-0.1-0.3-0.2-0.5-0.4c-0.3,1.3-0.3,1.3,0.1,1.6C67.7,29.4,67.8,29.4,67.9,29.5z"/>
		<path class="st4" d="M36,45c0,0.2,0.1,0.4,0.1,0.6c-0.3,0.5-0.7,1-0.8,1.5c-0.2,1-0.1,2.1-0.2,3.1l-0.1,0c0,0,0-0.1,0-0.1
			c-0.2,0-0.5,0-0.6-0.1c-0.8-1.4-2.4-1-3.6-1.4c-1-0.4-2.3-0.4-2.9-1c-1-1-2.3-1.1-3.4-1.5c-1.3-0.5-2.4-1.2-2.6-2.5
			c-0.4-0.4-1.3,0.3-1.3-0.7c0.9,0.2,1.8,0.2,2.6,0.5c1.5,0.6,2.9,0.9,4.5,1C30.4,44.5,33.2,44.8,36,45z"/>
		<path class="st5" d="M8.6,35.4c-0.1-0.1-0.1-0.2-0.2-0.2c-0.3-1-0.6-1.9-1.7-2.3c-0.3-0.8-0.6-1.7-0.9-2.5c0.3,0,0.5,0.1,0.9,0.1
			c-0.3-1.2,0.1-2,1.1-2.5c0.1,0,0.1-0.3,0.1-0.4c0.1,0,0.3,0,0.4-0.1c0.6-0.6,0.8-2.6,0.5-3.4c-0.1-0.2-0.1-0.6,0-0.9
			c0.1-0.5,0.3-1.1,0.5-1.5c0.1-0.3,0.4-0.6,0.6-0.8c0.2,1.5-1,3-0.3,4.5c0.1,0.3-0.2,0.8-0.1,1.2c0.1,0.4,0.4,0.8,0.6,1.2
			c-0.3,1.8,0.3,3.4,0.9,5c0.1,0.2,0.3,0.4,0.5,0.4c0.7,0.1,0.6,0.5,0.7,1c0,0.9-0.1,1.9,1.1,2.4c0.7,0.3,1.3,1.1,1.9,1.7
			c0.2,0.4,0.4,0.8,0.6,1.3c-0.1,0.1-0.1,0.3-0.2,0.4c-0.1-0.1-0.1-0.1-0.2-0.2c-0.8-0.6-1.7-1.1-2.5-1.7c-0.2-0.2-0.4-0.4-0.6-0.6
			c-0.4-0.3-0.8-0.7-1.3-1C10.2,36.1,9.4,35.8,8.6,35.4z"/>
		<path class="st6" d="M32,72.5c-0.2-0.5-0.3-1-1.1-1.1c-0.2,0-0.4-0.5-0.6-0.8c0.5-0.4,1-0.7,1.4-1.1c0.4-0.4,1-0.8,1-1.2
			c0.2-1.6,0.3-3.3,0.2-4.9c0-0.8-0.6-1.5-0.7-2.3c-0.1-1.2-0.4-2.5,0-3.5c0.7-1.5,1.1-3,0.9-4.7c-0.1-1.1-0.3-2.2-1.4-2.8
			c1.2-0.4,2.5,0.4,2.5,1.6c0,1.2-0.2,2.4-0.2,3.5c0,2.5,0.1,5.1,0.2,7.6c0,0.2,0.4,0.4,0.6,0.7c0,0.1,0.1,0.3,0.1,0.4
			c0.1,0.4,0.1,0.8,0.2,1.3c-0.7,0.4-1,1-0.9,1.7c0.1,0.5,0.5,0.9,0.6,1.4c0.2,0.9,0.2,1.9,0.3,2.8C34.1,71.7,33.1,72.1,32,72.5z"/>
		<path class="st7" d="M15.4,39.8c0.1,0.1,0.1,0.1,0.2,0.2c0.2,0.2,0.3,0.5,0.5,0.6c1.1,0.4,2.2,0.7,3.3,1.1c0.3,0,0.8,0,1,0.2
			c0.7,0.8,1.7,0.9,2.6,1.1c1.3,0.4,2.7,0.5,4.1,0.6c2,0.2,4.1,0.4,6.1,0.6c0.2,0,0.4,0.1,0.6,0.1c0.7,0,1.4,0.1,2.1,0.1
			c0.8,0,1.6-0.2,2.5-0.3c1.2-0.1,2.4,0,3.6-0.2c1.1-0.1,2.1-0.5,3.1-0.7c0,0,0.1,0,0.1,0c0,0-0.1,0-0.1-0.1c0-0.1,0-0.1,0-0.2
			c0.2,0,0.4,0,0.6,0c0.9,0.6,1.6-0.2,2.4-0.4c1-0.3,2-0.6,3-0.9c1.2-0.4,2.7-0.5,3.7-1.2c1-0.7,2.1-1,3-1.6
			c1.3-0.8,2.5-1.8,3.7-2.7c0.3-0.2,0.8-0.3,1.2-0.5c-0.4,1.4-1.7,1.8-2.6,2.5c-0.8,0.6-1.8,1-2.7,1.4c-2.6,1.1-5.1,2.4-7.8,3.1
			c-3.2,0.8-6.5,1.2-9.8,1.7c-1.3,0.2-2.7,0.3-4,0.5c-2.8-0.2-5.6-0.4-8.4-0.5c-1.6,0-3-0.4-4.5-1c-0.8-0.3-1.8-0.4-2.6-0.5
			c-0.7,0-1.3,0-1.8,0c-0.3,0.7-0.5,1.2-0.7,1.7c0.1-0.8-0.3-1.6,0.6-2.2c-1.5-0.8-3-1.5-4.5-2.3c-2-1-3.6-2.4-5.1-4.1
			c-0.2-0.2-0.2-0.5-0.3-0.8c0.8,0.4,1.6,0.7,2.3,1.2c0.5,0.3,0.9,0.6,1.3,1c0.2,0.2,0.4,0.4,0.6,0.6C13,39,14.1,39.7,15.4,39.8z"/>
		<path class="st8" d="M17.9,44.7c0.2-0.5,0.4-1,0.7-1.7c0.4,0,1.1,0,1.8,0c0,1.1,1,0.3,1.3,0.7c0.3,1.3,1.3,2,2.6,2.5
			c1.1,0.4,2.4,0.4,3.4,1.5c0.6,0.7,2,0.7,2.9,1c1.2,0.4,2.7,0,3.6,1.4c0.1,0.1,0.4,0,0.6,0.1c0,4.5,0,9,0,13.5
			c-0.2-0.2-0.5-0.4-0.6-0.7c-0.1-2.5-0.2-5.1-0.2-7.6c0-1.2,0.2-2.4,0.2-3.5c0-1.2-1.3-2.1-2.5-1.6c-0.7-0.2-1.4-0.4-2.1-0.6
			c-0.1,0-0.3,0-0.4-0.1c-1-0.3-2-0.5-3-0.8c-0.1,0-0.3,0-0.4,0c-0.1-0.1-0.1-0.2-0.2-0.3c-0.1,0.1-0.2,0.2-0.2,0.3c0,0,0,0.1,0,0.1
			c-0.1,0-0.3-0.1-0.4-0.1c-0.2-0.2-0.4-0.5-0.6-0.6c-1-0.4-2-0.8-3-1c-1.2-0.2-2.3-1.2-3.6-0.5c0-0.5,0-1,0-1.5
			C17.9,45,17.9,44.8,17.9,44.7z"/>
		<path class="st9" d="M8,27.6c0,0.1,0,0.3-0.1,0.4c-1,0.5-1.4,1.3-1.1,2.5c-0.4,0-0.6-0.1-0.9-0.1c-0.1-1.8-0.1-3.6-0.2-5.5
			c0-0.4,0.1-0.7,0.2-1.1c0.1-0.3,0.3-0.6,0.4-0.8c-0.1-1.2,0.3-2.1,1-3.1C7.8,19,8.1,18,8.7,17.2c0.6-0.9,1.3-1.7,1.9-2.6
			c0.1,0,0.2,0.1,0.3,0.1c-0.1-0.2-0.1-0.4-0.1-0.5c0.5-0.3,1-0.6,1.5-0.9c0.7,0.1,1.3-0.1,1.8-0.8c0.3-0.4,0.9-0.8,1.4-0.8
			c0.7-0.1,1.1-0.5,1.6-0.9c0.9-0.6,2-1,3-1.5c0,0,0,0,0,0c0,0.2,0,0.6-0.1,0.7c-0.8,0.5-1.6,1-2.3,1.4c-0.6,0.4-1.7,0.6-1.8,1.1
			c-0.5,1.7-2.1,2-3,3.1c-0.5,0.6-1.2,0.9-1.7,1.5c-1.1,1.5-2.1,3-3.1,4.6c-0.3,0.4-0.5,1-0.5,1.5C7.5,24.8,7.8,26.2,8,27.6z"/>
		<path class="st7" d="M67.9,29.5c-0.1-0.1-0.2-0.2-0.2-0.3c0.1-0.4,0.3-0.8,0.4-1.3c0.1-0.7,0.3-1.4,0.4-2.1
			c0.1-0.2,0.4-0.5,0.4-0.7c-0.1-1,0.4-2-0.5-3c-0.4-0.5,0-1.5-0.2-2.3c-0.1-0.5-0.3-1-0.6-1.4c-0.6-0.7-1.4-1.3-0.9-2.4
			c-0.3-0.2-0.6-0.2-0.8-0.4c-1-1.1-2-2.2-3-3.4c-0.8-0.8-1.4-1.8-2.4-2.3c-1.2-0.7-2.6-1-3.9-1.5c-0.1-0.1-0.3-0.3-0.4-0.4
			C56.1,8.1,56,8,55.8,8c-0.3-0.4-0.6-0.8-0.8-1.2c2,0.9,4.1,1.7,6,2.8c2.5,1.5,4.7,3.6,6.3,6.2c1,1.7,1.7,3.4,2.2,5.2
			c0.3,1.1,0.6,2.3,0.4,3.4c-0.3,1.6-0.9,3.2-1.4,4.7C68.4,29.2,68.1,29.4,67.9,29.5z"/>
		<path class="st8" d="M35.2,71.3c-0.1-0.9-0.1-1.9-0.3-2.8c-0.1-0.5-0.5-0.9-0.6-1.4c-0.2-0.8,0.2-1.4,0.9-1.7c0,0.3,0,0.6,0.1,1
			c-0.1,0.4-0.3,0.9,0.5,1c0.1,0.1,0.2,0.1,0.2,0.2c0,1,0,2,0,3C36.1,71.1,35.8,71.3,35.2,71.3z"/>
		<path class="st6" d="M22.7,70.2c0.1,0.1,0.1,0.1,0.2,0.2c0.6,0.4,1.3,0.9,1.9,1.3c0,0.1,0,0.3,0,0.4c-0.1,0.1-0.3,0.1-0.4,0.2
			c-0.1,0-0.3-0.1-0.4-0.1c-0.2,0-0.4-0.1-0.7-0.1c-0.4,0-0.8-0.1-1.2-0.1c-0.4-0.7-0.7-1.4-1.1-2.2C21.6,69.9,22.2,70.1,22.7,70.2z
			"/>
		<path class="st10" d="M24.8,72.1c0-0.1,0-0.3,0-0.4c0.1-0.1,0.1-0.2,0.2-0.2c1.1,0.3,2.2,0.6,3.3,0.9c0.1,0,0.2,0.4,0.2,0.6
			c-0.1,0-0.3,0.1-0.4,0.1c-0.2-0.1-0.3-0.3-0.5-0.4c-0.1,0.1-0.1,0.3-0.2,0.4c-0.1,0-0.3,0-0.4,0c-0.2,0-0.4,0-0.6,0
			c-0.6-0.3-1.1-0.5-1.7-0.8C24.9,72.3,24.9,72.2,24.8,72.1z"/>
		<path class="st7" d="M35,50.2c0.1-1,0-2.1,0.2-3.1c0.1-0.5,0.5-1,0.8-1.5c0,0.2,0.2,0.5,0.1,0.7c-0.1,0.9-0.3,1.9-0.4,2.8
			C35.8,49.6,35.6,50,35,50.2z"/>
		<path class="st7" d="M63.7,35.2c0.6-0.8,1.1-1.6,1.7-2.3c0.4-0.5,1-0.9,1.4-1.3c-0.3,0.5-0.4,1.2-0.8,1.6
			C65.2,33.9,64.9,35,63.7,35.2z"/>
		<path class="st7" d="M36,67.5c-0.1-0.1-0.2-0.1-0.2-0.2c-0.2-0.3-0.3-0.7-0.5-1c0-0.3,0-0.6-0.1-1c-0.1-0.4-0.1-0.8-0.2-1.3
			c0.3,0.4,0.6,0.7,0.7,1.1c0.2,0.4,0.3,0.9,0.3,1.4C36.1,66.8,36,67.2,36,67.5z"/>
		<path class="st2" d="M6.7,32.9c1,0.4,1.4,1.4,1.7,2.3C7.4,34.7,6.8,34,6.7,32.9z"/>
		<path class="st7" d="M62.8,35.8c0-0.6,0.1-1,0.9-0.6C63.4,35.4,63.1,35.6,62.8,35.8z"/>
		<path class="st5" d="M6.3,22.9c-0.1,0.3-0.3,0.6-0.4,0.8C6,23.5,6.1,23.2,6.3,22.9z"/>
		<path class="st0" d="M27.6,73.1c0.1-0.1,0.1-0.3,0.2-0.4c0.2,0.1,0.3,0.3,0.5,0.4C28,73.1,27.8,73.1,27.6,73.1z"/>
		<path class="st0" d="M26.5,73.2c0.2,0,0.4,0,0.6,0C26.9,73.1,26.7,73.2,26.5,73.2z"/>
		<path class="st0" d="M23.4,72c0.2,0,0.4,0.1,0.7,0.1C23.8,72.1,23.6,72.1,23.4,72z"/>
		<path class="st0" d="M24.8,72.1c0,0.1,0,0.2,0,0.3c-0.1,0-0.3-0.1-0.4-0.1C24.6,72.2,24.7,72.1,24.8,72.1z"/>
		<path class="st5" d="M52.7,7.7C53.5,7.8,54.2,7.9,55,8c0.1,0.4-0.2,1.1,0.6,1.1c0.1,0.3,0.1,0.6,0.2,0.8c-0.2,0.3-0.4,0.6-0.6,0.8
			c-0.5-0.2-1-0.3-1.5-0.6c-0.9-0.4-1.8-0.8-2.7-1.3C49.6,8,48.3,7,46.4,7.3c-0.4,0.1-0.9,0-1.4,0c0-0.9-0.2-1.3-1.1-0.8
			c-0.4,0.2-1.1-0.1-1.7-0.2c-0.3,0-0.5-0.2-0.7-0.2c-0.5,0-0.9-0.1-1.4,0c-1.3,0.1-2.7-0.4-4,0.4c0.1-0.3,0.3-0.6,0.4-0.8
			c0.4-0.1,0.7-0.1,1.1-0.2c0.1,0,0.3,0,0.4,0c0.1,0.1,0.1,0.1,0.2,0.2c0.5,0,1,0.1,1.5,0c0.2,0,0.4-0.4,0.6-0.6c0.1,0,0.3,0,0.4,0
			c1,0.2,1.9,0.6,3,0.5c1.2-0.1,2.5,0.5,3.8,0.8c0.6,0.1,1.2,0.3,1.8,0.6c0.9,0.3,1.9,0.8,2.8,1.1C52.3,8,52.5,7.8,52.7,7.7z"/>
		<path class="st11" d="M36.4,5.6c-0.1,0.3-0.3,0.6-0.4,0.8c0,0.3,0,0.6,0,0.8c-1.1-0.2-1.6,0.3-1.7,1.4c0,0.3-0.5,0.8-0.8,0.9
			c-0.3,0-0.7-0.4-0.9-0.7c-0.3-0.5-0.4-1-0.6-1.5c-0.1-0.6-0.1-1.1-0.2-1.7c0.4-0.1,0.7-0.1,1.1-0.2c0.7,0.4,1.4,0.2,1.9-0.4
			c0.4-0.1,0.8-0.1,1.3-0.2C36.2,5.1,36.3,5.4,36.4,5.6z"/>
		<path class="st9" d="M31.8,5.6c0.1,0.6,0.1,1.1,0.2,1.7c-0.1,0-0.1,0-0.2,0c-1.7,0-3.3,0-5.1,0C27.1,8,27.3,8.5,27.6,9
			c-0.4,0.1-0.7,0.3-1.1,0.4c-0.2-0.1-0.4-0.2-0.5-0.3c-0.7-0.9-1-0.9-1.6,0.1c-0.4-0.4-0.7-0.7-1.1-1.1c0.3-0.3,0.6-0.6,1-0.8
			c1.5-0.5,3-0.9,4.5-1.2C29.9,5.9,30.8,5.8,31.8,5.6z"/>
		<path class="st9" d="M52.7,7.7c-0.2,0.1-0.4,0.3-0.5,0.2c-0.9-0.3-1.9-0.7-2.8-1.1c-0.6-0.2-1.2-0.4-1.8-0.6
			c-1.3-0.3-2.5-0.8-3.8-0.8c-1.1,0.1-2-0.3-3-0.5c0-0.2,0-0.4,0-0.6c2.2,0.4,4.3,0.8,6.5,1.2c1,0.2,2.1,0.4,3.1,0.7
			C51.2,6.5,52.1,6.8,52.7,7.7z"/>
		<path class="st12" d="M23.4,8.2c0.4,0.4,0.7,0.7,1.1,1.1c0.2,0.8,0.4,1.5,0.6,2.3c-0.2,0-0.4,0-0.6,0c-0.4-0.1-0.7-0.1-1.1-0.2
			c0-0.3,0-0.6,0-0.8c-0.8-0.4-1.4-0.8-2.1-1.1c0-0.2,0-0.4,0-0.6C21.8,7.9,22.6,8.2,23.4,8.2z"/>
		<path class="st13" d="M40.7,4.4c0,0.2,0,0.4,0,0.6c-0.1,0-0.3,0-0.4,0c-0.6-0.1-1.2-0.2-1.7-0.2c-0.3,0-0.7,0.4-1,0.6
			c-0.4,0.1-0.7,0.1-1.1,0.2c-0.1-0.3-0.3-0.6-0.4-0.8c0.3-0.1,0.6-0.4,0.9-0.4C38.2,4.3,39.4,4.4,40.7,4.4z"/>
		<path class="st9" d="M55.6,9c-0.9,0-0.6-0.6-0.6-1.1c0.3,0,0.6,0,0.8,0C56,8,56.1,8.1,56.3,8.2c0,0.2,0,0.4,0,0.6
			C56.1,8.9,55.8,8.9,55.6,9z"/>
		<path class="st13" d="M34.8,5c-0.5,0.6-1.2,0.8-1.9,0.4C33.5,5.3,34.1,5.1,34.8,5z"/>
		<path class="st9" d="M21.3,8.8c0,0.2,0,0.4,0,0.6c-0.4,0-0.8,0-1.3,0c0,0,0,0,0,0C20.4,9.2,20.8,9,21.3,8.8z"/>
		<path class="st10" d="M29.7,49.6c0.7,0.2,1.4,0.4,2.1,0.6c1.2,0.6,1.3,1.7,1.4,2.8c0.2,1.6-0.3,3.1-0.9,4.7c-0.4,1-0.1,2.4,0,3.5
			c0.1,0.8,0.6,1.5,0.7,2.3c0.1,1.6,0,3.3-0.2,4.9c0,0.4-0.6,0.9-1,1.2c-0.4,0.4-1,0.7-1.4,1.1c-0.1,0-0.3,0-0.4,0
			c-0.1,0-0.3,0-0.4,0c0-0.3,0-0.6,0-0.8c1-0.3,2.4-2.1,2.3-3c0-0.2-0.2-0.3-0.3-0.5c-0.1-0.2-0.3-0.3-0.3-0.5
			c-0.2-1.9-0.3-3.7-0.4-5.6c-0.1-1.7,0.2-3.4,0.9-5.1c0.1-0.2,0.1-0.6,0-0.8c-0.9-1-0.5-2-0.1-3.2c-0.6,0-1.2-0.1-1.8-0.1
			C29.7,50.4,29.7,50,29.7,49.6z"/>
		<path class="st14" d="M29.7,49.6c0,0.4,0,0.8,0,1.3c0.7,0,1.2,0.1,1.8,0.1c-0.3,1.2-0.8,2.2,0.1,3.2c0.1,0.1,0.1,0.6,0,0.8
			c-0.7,1.6-1,3.3-0.9,5.1c0.1,1.9,0.3,3.7,0.4,5.6c0,0.2,0.2,0.4,0.3,0.5c0.1,0.2,0.3,0.3,0.3,0.5c0.1,1-1.2,2.7-2.3,3
			c0.1-0.3,0.1-0.6,0.2-0.9c0.3-0.7,0.8-1.3,1.2-2.1c-0.6-0.2-1-0.2-1.3-0.4c-0.3-0.2-0.6-0.5-0.9-0.7c0.1-0.4,0.2-0.8,0.4-1.4
			c0.4,0.4,0.6,0.7,1,1.2c0.2-1.2,0.3-2.2,0.5-3.3c-1-0.2-1.1-0.9-0.9-1.9c0.2-0.8-0.4-1.8,0.6-2.5c0.1-0.1,0.1-0.3,0-0.4
			c-1.1-1.2-0.2-2.1,0.6-2.9c-0.7-0.4-1.4-0.8-2-1.2c0.2-0.4,0.3-0.7,0.5-1.1c-0.4,0-0.8-0.1-1.2-0.1c-0.3,0-0.6,0.2-0.8,0.1
			c-0.4-0.3-0.7-0.7-1-1.1c0.3-0.2,0.6-0.4,1-0.5c0.5-0.2,1-0.2,1.5-0.5c-1.3-0.3-3,0.5-3.4-1.6c0,0,0-0.1,0-0.1c0.2,0,0.3,0,0.5,0
			c0.1,0,0.3,0,0.4,0c0.1,0.1,0.3,0.3,0.4,0.4c0.6,0.2,1.1,0.4,1.7,0.6c0.3-0.1,0.6-0.2,0.8-0.2C29.4,49.5,29.6,49.5,29.7,49.6z"/>
		<path class="st14" d="M19.6,52.5c0.2,0.1,0.3,0.3,0.5,0.4c0.1-0.1,0.3-0.3,0.3-0.4c0.1-0.3,0-0.7,0-1.2c0.5,0,0.9,0,1.6-0.1
			c-0.3,1.2-0.6,2.3-0.9,3.6c-0.6-0.2-1.3-0.5-2-0.7c0-0.1,0.1-0.2,0.1-0.3c-1.2,0.1-1.9,1-1.8,2.2c0.1,1.1,0.1,2.2,0.3,3.3
			c0,0.4,0.3,0.7,0.4,0.9c-0.1,1-0.3,1.9-0.3,2.8c0,0.6,0.3,1.2,1,1c0.7-0.2,1,0.2,1.3,0.8c-0.8,0-1.7-0.3-1.9,1.5
			c-1-0.8-1.7-1.5-2.4-2.1c0-0.2,0-0.4,0-0.6c0.3,0,0.7,0,0.8,0c0-1,0-1.9,0-2.7c0-0.4-0.1-0.7-0.2-1.1c0-0.4-0.1-0.8,0-1.2
			c0.5-1.3,0.7-2.6,0-3.8c0-0.3,0-0.6,0-0.8c0.9-0.4,1.1-1,0.6-1.8c-0.4-0.7-0.2-1.2,0.7-1.3c0.2,0.2,0.4,0.4,0.6,0.6
			C18.7,51.8,19.2,52.1,19.6,52.5z"/>
		<path class="st14" d="M24.8,48.7c-0.6,0.9-1.4,0.9-2.4,0.6c-0.8-0.3-1.8-0.2-2.7,0c-0.3,0.1-0.3,1-0.5,1.6c-0.3,0-0.5-0.1-0.8-0.1
			c-0.3-0.1-0.6-0.3-0.8-0.4c0.3-0.2,0.6-0.4,0.9-0.6c-0.1-0.2-0.2-0.4-0.3-0.6c0.4-0.1,1,0.2,1.1-0.6c0-0.7-0.4-0.6-0.9-0.7
			c-0.3-0.1-0.4-0.5-0.6-0.8c0.3,0.1,0.7,0.3,1,0.4c1.5,0.3,3,0.5,4.5,0.8C23.9,48.3,24.4,48.5,24.8,48.7z"/>
		<path class="st10" d="M15.8,64.3c0.7,0.6,1.4,1.2,2.4,2.1c0.1-1.7,1.1-1.4,1.9-1.5c0.3,0.8,0.5,1.5,0.8,2.3
			c-0.5,0.1-0.9,0.3-1.4,0.4c0.2-0.4,0.4-0.9,0.6-1.4c-0.5-0.1-0.9-0.2-1.4-0.3c0,0.5-0.1,0.9-0.1,1.3c-1.1-0.3-2.3-0.5-3.5-0.8
			C15,65.7,14.8,64.8,15.8,64.3z"/>
		<path class="st10" d="M16.4,54.8c0.7,1.3,0.5,2.5,0,3.8c-0.1,0.3,0,0.8,0,1.2c0,0.4,0.2,0.7,0.2,1.1c0,0.8,0,1.7,0,2.7
			c-0.2,0-0.5,0-0.8,0c-0.1-0.5-0.4-0.9-0.4-1.4c-0.1-1.1-0.1-2.1,0-3.2c0.1-1.3,0.3-2.6,0.4-3.9C15.8,55,16.2,54.9,16.4,54.8z"/>
		<path class="st14" d="M23.5,65.6c1.3-0.3,1.7,0.9,2.2,1.5c0.2,0.3-0.1,1.1-0.4,1.7c-0.1,0.1-1,0.1-1,0C24,67.8,23,67,23.5,65.6z"
			/>
		<path class="st6" d="M24.8,48.7c-0.5-0.2-1-0.4-1.4-0.5c-1.5-0.3-3-0.5-4.5-0.8c-0.4-0.1-0.7-0.3-1-0.4c0-0.1,0-0.3,0-0.4
			c1.3-0.7,2.4,0.3,3.6,0.5c1,0.2,2,0.6,3,1c0.2,0.1,0.4,0.4,0.6,0.6C25,48.6,24.9,48.7,24.8,48.7z"/>
		<path class="st10" d="M18.3,49.1c0.1,0.2,0.2,0.4,0.3,0.6c-0.3,0.2-0.6,0.4-0.9,0.6c0,0.1,0,0.3,0,0.4c-0.8,0.1-1.1,0.6-0.7,1.3
			c0.5,0.8,0.3,1.5-0.6,1.8c0-1.9,0-3.7,1-5.5C17.8,48.7,18,48.9,18.3,49.1z"/>
		<path class="st2" d="M18.5,50.8c0.3,0,0.5,0.1,0.8,0.1c0.1,0.5,1.2,0.9,0.3,1.5c-0.4-0.3-0.9-0.7-1.3-1
			C18.4,51.2,18.4,51,18.5,50.8z"/>
		<path class="st14" d="M25.1,71.5c-0.1,0.1-0.1,0.2-0.2,0.2c-0.6-0.4-1.3-0.9-1.9-1.3c0.3-0.1,0.5-0.2,0.8-0.2
			C24.9,70.1,25,70.3,25.1,71.5z"/>
		<path class="st6" d="M18.5,67.3c0-0.4,0.1-0.8,0.1-1.3c0.5,0.1,0.9,0.2,1.4,0.3c-0.2,0.5-0.4,1-0.6,1.4
			C19.1,67.5,18.8,67.4,18.5,67.3z"/>
		<path class="st14" d="M22.7,70.2c-0.6-0.1-1.1-0.3-1.7-0.4c0,0,0,0,0,0c0-0.1,0-0.3,0-0.4C21.7,69.5,22.6,69,22.7,70.2z"/>
		<path class="st14" d="M25.1,52.3c0.4-0.1,0.7-0.1,1.1-0.2c0,0.1,0.1,0.2,0.1,0.3c-0.3,0.1-0.7,0.2-1,0.3
			C25.2,52.6,25.2,52.4,25.1,52.3z"/>
		<path class="st14" d="M20.6,69.4c-0.2-0.1-0.4-0.2-0.6-0.3c0.1-0.1,0.2-0.2,0.2-0.3C20.4,69,20.5,69.2,20.6,69.4
			C20.6,69.3,20.6,69.4,20.6,69.4z"/>
		<path class="st6" d="M21,69.4c0,0.1,0,0.3,0,0.4c-0.1-0.1-0.3-0.3-0.4-0.4c0,0,0,0,0,0C20.8,69.4,20.9,69.4,21,69.4z"/>
		<path class="st14" d="M29.5,70.6c0.1,0,0.3,0,0.4,0c-0.1,0.1-0.2,0.2-0.3,0.3C29.6,70.8,29.5,70.7,29.5,70.6z"/>
		<path class="st15" d="M60.5,35c0.1,1.1-0.8,1.1-1.5,1.2c-1,0.1-1.8,0.4-1.8,1.6c-1.1-0.3-1.7,0.3-2.5,0.8
			c-1.9,1.3-3.8,2.7-6.3,2.5c0,0,0,0,0,0c-0.1-0.6,0.2-0.9,0.8-0.8c0.3,0,0.6,0,0.8,0c1.5-0.1,2.5-0.9,2.6-1.9l0,0
			c0.4-0.2,1.1-0.4,1.2-0.7c0.2-0.9,0.7-1,1.5-1c0.3,0,0.7,0.1,0.9-0.1c0.3-0.3,0.6-0.8,0.8-1.2c-0.3-0.2-0.6-0.5-1-0.6
			c-0.3-0.2-0.7-0.3-1.1-0.3c-0.8,0-1.8-0.2-2.2,0.2c-0.5,0.5-0.9,0.7-1.5,0.7c-0.9,0.1-1.8,0.2-2.7,0.3c-1.1,0.2-2.3,0.5-3.4,0.7
			c-0.8,0.2-1.6,0.3-2.4,0.7c-0.9,0.4-1.7,0.7-2.8,0.5c-1.1-0.2-2.3,0-3.4,0.1c-0.8,0.1-1.6,0.5-2.4,0.4c-1.5-0.1-3-0.5-4.5-0.7
			c-1.1-0.2-2.2-0.4-3.3-0.5c-1.4-0.1-2.7,0-4.1,0c-0.3,0-0.6-0.1-0.9-0.3c-0.7-0.3-1.3,0-1.6,0.5c-0.2,0.4-0.2,1,0,1.4
			c0.4,0.6,0.9,1.2,1.5,1.5c1,0.4,2.1,0.7,3.2,1c0.9,0.3,2,0.2,3,0.7c0.4,0.2,1,0.1,1.4,0.2c1.1,0.2,2.1,0.4,3.2,0.6
			c0.7,0.1,1.4,0.1,2,0.1c1.4,0.1,2.7,0.2,4.1,0.3c-0.5,0.1-0.9,0.3-1.4,0.4c-0.8,0.1-1.5,0.1-2.3,0.1c-0.8,0-1.7-0.1-2.5-0.1
			c-0.9,0-1.7-0.1-2.6-0.1c-0.2,0-0.5,0.1-0.7,0.1c-0.9-0.1-1.9-0.2-2.8-0.4c-0.3-0.1-0.7-0.2-1-0.4c-0.7-0.3-1.3-0.9-2-1
			c-1.5-0.4-2.9-0.7-4.2-1.6c-0.4-0.3-1-0.4-1.4-0.6c-0.1-0.1-0.3-0.3-0.4-0.4l0,0c-0.3-0.6-0.5-1.3-0.8-1.9
			c-0.2-0.5-0.5-1.1-0.4-1.7c0.1-0.7,0.4-1.3,0.7-1.9c-0.5,0-0.8,0.2-1.1,0.2c-0.3,0-0.7-0.2-1-0.4c-0.1-0.1,0-0.5,0.1-0.6
			c0.3-0.1,0.6-0.2,0.9-0.2c0.6,0,1.2,0.1,1.7,0.2c0.3,0.1,0.7,0.2,0.8,0.4c0.4,0.7,0.9,0.8,1.6,0.7c0.1,0.2,0.1,0.5,0.2,0.5
			c0.8,0.3,1.6,0.6,2.3,0.9c0.1,0.1,0.3,0.3,0.4,0.4c0.3,0.7,0.7,0.7,1.1,0c0,0,0,0,0,0c0.4,0,0.8,0,1.3,0c0.5,0.8,1.3,0.5,2.1,0.5
			c2.1,0.2,4.2,0.5,6.3,0.7c1.2,0.1,2.4,0,3.6,0.1c2.2,0.2,4.3,0,6.3-0.9c1.1-0.5,2.2-0.9,3.5-0.6c0.8,0.2,1.6-0.3,2-1.2
			c0.4,0,0.7,0,1.1,0c0.1,0,0.3,0,0.4,0c1.4-0.4,2.8-0.9,4.2-1.3c0.2,0,0.4-0.1,0.5-0.1c1.3,0.8,2.2,0,3-0.9
			c0.5-0.6,1.1-0.5,1.8-0.2C60.7,32.6,60.5,33.8,60.5,35z"/>
		<path class="st5" d="M65.1,18.7c0,0.6,0,1.2,0,1.8c0,1.1,0,2.2,0,3.3c0,0.3-0.3,0.5-0.4,0.8c-0.8-0.4-1.6-0.7-2,0.3
			c-0.5,1.1-1.3,1.3-2.3,1.4c-0.4,0-0.9,0.5-1.3,0.8c-0.3,0.3-0.4,0.9-0.6,1.3C58,29.2,57.7,30,56.6,30c-0.4,0-0.8,0.6-1.2,1
			c-1.5-0.3-2.7,0.5-3.9,1.1c-1.3,0.6-2.3,2.1-4,1.7c-0.1,0-0.3,0.4-0.5,0.6c-0.8,0-1.5,0-2.3,0c-0.4,0-0.8,0-1.3,0
			c0.4-0.2,0.9-0.4,1.3-0.6c0.4-0.2,0.7-0.4,1.1-0.6c0.2,0,0.4,0,0.6,0c0.2,0.7,0.5,0.4,0.8,0.1c0.2-0.2,0.5-0.5,0.7-0.5
			c1.1,0.1,2-0.5,2.9-1c0.8-0.5,1.7-0.9,2.5-1.1c0.8-0.2,1.4-0.5,1.3-1.5c1.2,0.1,1.5-0.6,1.4-1.6c0-0.6,1-1.6,1.6-1.7
			c0.4-0.1,1.1,0,1.3-0.2c0.5-0.6,1-0.6,1.4-0.2c0.4-0.4,0.8-0.6,1-0.9c0.4-0.5,0.8-1.1,0.9-1.7c0.2-1.2,0.2-2.4,0.3-3.5
			c0.1-1.3,0.9-1.6,2-1c0.2,0.1,0.3,0.1,0.5,0.2C65.1,18.4,65.1,18.6,65.1,18.7z"/>
		<path class="st16" d="M60.5,35c0-1.1,0.2-2.3-1.1-3.1c-0.7-0.4-1.3-0.4-1.8,0.2c-0.8,0.9-1.7,1.7-3,0.9c-0.1-0.1-0.3,0-0.5,0.1
			c-1.4,0.4-2.8,0.9-4.2,1.3c-0.1,0-0.3,0-0.4,0c0-0.1,0-0.3,0.1-0.3c1.7-0.8,3.4-1.6,5.1-2.4c0.3-0.1,0.5-0.4,0.7-0.7
			c0.3,0,0.6,0.1,0.9,0c0.7-0.2,1.8-0.3,2.1-0.8c0.5-0.9,1.1-1.5,2-1.7c1.1-0.6,2.2-1.1,3.3-1.7c0.6-0.3,1.1-0.2,1.4,0.4
			c0.1,0.3,0.3,0.6,0.4,0.8c-0.6,0-1.2-0.1-1.7,0c-0.9,0.3-1.1,1-0.6,1.8c0.3,0.6,0.7,1,0,1.6c-0.2,0.2-0.1,0.7-0.1,1.2
			c-1.1,0-1.5,0.7-1.9,1.7C61.1,34.6,60.7,34.7,60.5,35z"/>
		<path class="st9" d="M65.1,18.7c0-0.1,0-0.3,0-0.4c0.6-0.5,1.1-1.1,0.4-1.9c-0.8-0.9-1.6-1.8-2.3-2.7c-0.7-0.9-2-1.2-2.3-2.5
			c0-0.2-0.4-0.3-0.6-0.4c-1-0.5-1.9-1.5-3.2-1.5c-0.2,0-0.3-0.3-0.5-0.5c0-0.1,0-0.1,0-0.2c1.3,0.5,2.7,0.8,3.9,1.5
			c0.9,0.5,1.6,1.5,2.4,2.3c1,1.1,2,2.2,3,3.4c0.2,0.2,0.5,0.3,0.8,0.4c-0.5,1.1,0.3,1.7,0.9,2.4c0.3,0.4,0.5,0.9,0.6,1.4
			c0.1,0.8-0.2,1.9,0.2,2.3c0.9,1,0.4,2,0.5,3c0,0.2-0.3,0.5-0.4,0.7c-0.2-0.3-0.3-0.6-0.5-0.7c-0.9-0.5-0.7-0.9-0.1-1.5
			c0.2-0.2,0.3-0.6,0.2-0.8c-0.5-0.8-1-1.6-1.5-2.3C66.1,19.9,65.6,19.3,65.1,18.7z"/>
		<path class="st17" d="M60.5,28.4c-1,0.2-1.5,0.8-2,1.7c-0.3,0.5-1.4,0.6-2.1,0.8c-0.3,0.1-0.6,0-0.9,0c0.4-0.3,0.8-1,1.2-1
			c1.1,0,1.4-0.8,1.8-1.5c0.2-0.4,0.3-1,0.6-1.3c0.3-0.4,0.8-0.8,1.3-0.8c1.1-0.1,1.9-0.3,2.3-1.4c0.5-1,1.3-0.7,2-0.3
			c-1,0.8-1.9,1.5-2.9,2.3C61.3,27.4,60.9,27.9,60.5,28.4z"/>
		<path class="st15" d="M45.7,43c-0.2,0-0.4,0-0.6,0c-0.1-0.5-0.3-0.7-0.9-0.5c-1,0.4-2,0.7-3.1,1.1c-0.1,0-0.3-0.2-0.5-0.3
			c0.1-0.1,0.2-0.3,0.4-0.4c0.5-0.2,1.2-0.2,1.6-0.5c0.8-0.5,1.4-0.9,2.4-0.4c0.3,0.2,0.9-0.1,1.4-0.2c0.7-0.2,1.4-0.4,2.1-0.6
			c0,0,0,0,0,0c-0.7,0.4-1.4,0.8-2.1,1.3C46.2,42.5,46,42.8,45.7,43z"/>
		<path class="st9" d="M68.1,28c-0.1,0.4-0.3,0.8-0.4,1.3c-0.4-0.4-0.4-0.4-0.1-1.6C67.8,27.8,67.9,27.9,68.1,28z"/>
		<path class="st16" d="M19.4,33.7c-0.7,0.1-1.2-0.1-1.6-0.7c-0.1-0.2-0.5-0.3-0.8-0.4c-0.6-0.1-1.1-0.2-1.7-0.2
			c-0.3,0-0.7,0-0.9,0.2c-0.1,0.1-0.2,0.6-0.1,0.6c0.3,0.2,0.6,0.4,1,0.4c0.3,0,0.6-0.2,1.1-0.2c-0.2,0.6-0.6,1.3-0.7,1.9
			c0,0.5,0.2,1.1,0.4,1.7c0.2,0.6,0.5,1.3,0.8,1.9c-0.6-0.2-1.1-0.4-1.7-0.6c-0.6-0.6-1.2-1.4-1.9-1.7c-1.2-0.5-1.1-1.5-1.1-2.4
			c0-0.6,0-0.9-0.7-1c-0.2,0-0.4-0.3-0.5-0.4c-0.6-1.6-1.2-3.2-0.9-5c0.1-0.5,0.3-1,0.4-1.6c0.1-1.2,0.2-2.3,0.3-3.5
			c0-0.2,0.4-0.3,0.6-0.4c0.2-0.1,0.4-0.2,0.4-0.2c-0.3-0.5-0.6-0.9-0.9-1.3c0-0.1,0-0.1,0-0.2c1-0.4,2.1-0.8,3.1-1.2
			c-0.8-1.4-0.9-1.3,0.7-2.5c0.9,0.7,0.9,0.7,1.9,0.1c0.6-0.4,1.3-0.7,1.8-1.1c0.4-0.3,0.7-0.8,1.2-1.3c-0.6-1.1-0.3-1.5,1.2-1.6
			c0.8,0,1.7,0,2.5,0c-0.3,2.2-1.8,0.5-2.4,0.7c0,0.6-0.1,1.1,0,1.5c0.3,1.2,0.1,1.7-1.1,2.1c-0.3,0.1-0.8,0.4-0.9,0.7
			c-0.3,0.9-1,1-1.8,0.9c-0.4-0.1-0.8-0.1-1.2-0.1c-1,0.1-1.4,0.8-1,1.6c0.3,0.7-0.1,0.7-0.6,0.9c-0.5,0.2-1.2,0.4-1.5,0.9
			C12.4,23,12.1,24,11.7,25c0.7,0.3,1.5,1,2,0.8c1.2-0.3,2.2-0.3,3.4-0.1c0.5,0.1,1.1-0.2,1.7-0.2c1.4-0.2,2.8-0.3,4.3-0.5
			c0.4-0.1,0.9-0.3,1.2-0.6c0.5-0.4,0.7-0.9,0.1-1.4c-0.4-0.3-0.9-0.5-1.6-0.9c0.9-0.2,1.6-0.4,2.3-0.4c0.6-0.1,0.8-0.3,0.8-0.8
			c0.1-0.7,0.1-1.7,0.5-2.2c0.8-0.9,1.6-1.6,0.8-2.8c0,0,0.1-0.1,0.1-0.2c0.1-0.5,0.2-1,0.3-1.4c-0.8-0.4-1.8-0.6-1.9-1
			c-0.3-1.2-1.2-0.8-1.9-0.9c0.2-0.3,0.4-0.6,0.6-0.8c0.2,0,0.4,0,0.6,0c0.5,0,1,0,1.5,0c0.4,0.1,0.7,0.1,1.1,0.2c0,0.1,0,0.1,0,0.2
			c-0.1,0.8,0.2,1.4,0.9,1.5c1.1,0.2,2.2,0.3,3.3,0.4c0.3,0.1,0.6,0.1,0.8,0.2c-0.3,0.2-0.5,0.6-0.8,0.6c-1.8,0.1-3,0.8-3.2,2.8
			c-0.9,0.2-1.1,0.9-1.1,1.7c0,0.3,0,0.6,0,0.8c0,0.3,0,0.6,0,0.8c-1.2-0.3-1.2,0.9-1.8,1.4c-0.1,0.1,0.3,0.7,0.5,0.9
			c0.3,0.3,0.7,0.6,1.1,0.9c0.1-0.3,0.2-0.7,0.3-1.3c0.7,0.1,1.9,0.1,1.9,0.4c0.3,1.3,1.3,0.9,2.1,1c0,0.2,0.1,0.4,0.1,0.7
			c-0.2,1.2-0.1,1.3,1.1,1.5c0.3,0,0.6,0.2,0.9,0.3c0.6,0.1,1.2,0.3,1.9,0.2c0.1,0,0.2-0.8,0.3-1.3c0-0.2,0-0.4,0.1-0.7
			c0.9,0.4,1.5-0.1,1.5-0.8c0-0.8-0.6-0.9-1.3-1.2c-1-0.4-1.7,0.2-2.6,0.1c2.1-1.8,3.7-1.2,5.2,0.7c-0.1,1-0.1,1.7-0.3,2.3
			c-0.1,0.4-0.2,1-0.5,1.1c-0.9,0.3-1.8,0.5-2.7,0.5c-2.1,0.1-4.1,0-6.2-0.1c-0.6,0-1.5,0.1-1.8-1c-0.1-0.4-1.2-0.7-1.8-0.7
			c-2,0.1-4,0.3-5.9,0.6c-1.1,0.2-2.2,0.6-3.3,0.9c-0.2,0-0.3,0.3-0.4,0.5c-0.3,1,0.9,3.1,1.9,3.2c1.1,0.2,1.5,0.6,1.4,1.7
			C19.3,33,19.4,33.4,19.4,33.7z M15.4,29.4c-0.2-0.8-0.3-1.3-0.4-2c-0.5,0.3-0.9,0.5-1.2,0.7c-0.2,0.2-0.2,0.8-0.1,0.8
			C14.2,29.1,14.7,29.2,15.4,29.4z M13.8,20.5c0,0.1-0.1,0.1-0.1,0.2c0.1,0,0.1,0.1,0.2,0.1c0,0,0.1-0.1,0.1-0.2
			C13.9,20.5,13.9,20.5,13.8,20.5z"/>
		<path class="st18" d="M10.9,20.6c0,0.1,0,0.1,0,0.2c-0.4,0-0.7,0-1.1,0c-0.2,0.3-0.5,0.5-0.6,0.8c-0.2,0.5-0.3,1-0.5,1.5
			c-0.1,0.3-0.1,0.6,0,0.9c0.3,0.8,0.1,2.7-0.5,3.4c-0.1,0.1-0.3,0.1-0.4,0.1c-0.2-1.4-0.5-2.8-0.6-4.2c0-0.5,0.2-1.1,0.5-1.5
			c1-1.6,2-3.1,3.1-4.6c0.4-0.6,1.2-0.9,1.7-1.5c0.9-1.1,2.6-1.4,3-3.1c0.1-0.5,1.2-0.7,1.8-1.1c0.8-0.5,1.6-0.9,2.3-1.4
			C20,10,20,9.7,20,9.4c0.4,0,0.8,0,1.3,0c0.6,0.4,1.3,0.7,2.1,1.1c0,0.1,0,0.5,0,0.8c-2.6-0.2-4.2,1.7-6.2,2.8c0,0.5,0,1.1,0,2
			c-1-1.3-1.8-0.8-2.6-0.3c-0.5,0.3-0.9,0.7-1.3,1.1C12.2,17.9,10.6,18.7,10.9,20.6z"/>
		<path class="st3" d="M15.1,38.3c0.6,0.2,1.1,0.4,1.7,0.6c0,0,0,0,0,0c0.1,0.1,0.3,0.3,0.4,0.4c0.5,0.2,1,0.3,1.4,0.6
			c1.3,0.9,2.7,1.2,4.2,1.6c0.7,0.2,1.3,0.7,2,1c0.3,0.2,0.7,0.3,1,0.4c0.9,0.2,1.8,0.3,2.8,0.4c0.2,0,0.5-0.1,0.7-0.1
			c0.9,0,1.7,0.1,2.6,0.1c0.8,0,1.7,0.1,2.5,0.1c0.8,0,1.5,0,2.3-0.1c0.5-0.1,0.9-0.3,1.4-0.4c0.2-0.1,0.4-0.1,0.6-0.2
			c0.5,0.1,1,0.3,1.5,0.4c0.1,0,0.3,0,0.4,0c0.2,0.1,0.4,0.4,0.5,0.3c1-0.3,2.1-0.7,3.1-1.1c0.5-0.2,0.8,0,0.9,0.5
			c0,0.1,0,0.1,0,0.2l0,0c-1,0.3-2.1,0.6-3.1,0.7c-1.2,0.2-2.4,0.1-3.6,0.2c-0.8,0.1-1.6,0.2-2.5,0.3c-0.7,0-1.4,0-2.1-0.1
			c-0.2,0-0.4-0.1-0.6-0.1c-2-0.2-4.1-0.4-6.1-0.6c-1.4-0.2-2.8-0.3-4.1-0.6c-0.9-0.2-1.9-0.4-2.6-1.1c-0.2-0.2-0.7-0.1-1-0.2
			c-1.2-0.7-2.4-1.4-3.6-2.1C15.6,39.2,15.4,38.8,15.1,38.3z"/>
		<path class="st17" d="M9.9,20.8c0.4,0,0.7,0,1.1,0c0.3,0.4,0.6,0.8,0.9,1.3c-0.1,0-0.2,0.1-0.4,0.2c-0.2,0.1-0.6,0.3-0.6,0.4
			c-0.1,1.2-0.2,2.3-0.3,3.5c-0.1,0.5-0.3,1-0.4,1.6c-0.2-0.4-0.5-0.8-0.6-1.2c-0.1-0.4,0.3-0.9,0.1-1.2C8.9,23.8,10,22.4,9.9,20.8z
			"/>
		<path class="st9" d="M15.8,39.6c1.2,0.7,2.4,1.4,3.6,2.1c-1.1-0.3-2.2-0.7-3.3-1.1c-0.2-0.1-0.3-0.4-0.5-0.6
			C15.6,39.9,15.7,39.8,15.8,39.6z"/>
		<path class="st9" d="M15.4,39.8c-1.3-0.1-2.3-0.8-2.5-1.7C13.7,38.7,14.5,39.3,15.4,39.8z"/>
		<path class="st3" d="M45.1,43.2C45.1,43.2,45.2,43.2,45.1,43.2C45.2,43.2,45.1,43.2,45.1,43.2C45.1,43.2,45.1,43.2,45.1,43.2z"/>
		<path class="st6" d="M29.3,49.5c-0.3,0.1-0.6,0.2-0.8,0.2c-0.6-0.2-1.1-0.4-1.7-0.6c-0.1-0.1-0.3-0.3-0.4-0.4
			C27.3,49,28.3,49.2,29.3,49.5z"/>
		<path class="st6" d="M25.9,48.7c-0.2,0-0.3,0-0.5,0c0.1-0.1,0.2-0.2,0.2-0.3C25.8,48.5,25.8,48.6,25.9,48.7z"/>
		<path class="st2" d="M56.7,8.6c0,0.1,0,0.1,0,0.2c-0.1,0-0.3,0-0.4,0c0-0.2,0-0.4,0-0.6C56.4,8.3,56.5,8.4,56.7,8.6z"/>
		<path class="st6" d="M35.3,66.3c0.2,0.3,0.3,0.7,0.5,1C35,67.2,35.2,66.7,35.3,66.3z"/>
		<path class="st18" d="M56.3,8.8c0.1,0,0.3,0,0.4,0C56.8,9,57,9.3,57.2,9.3c1.3-0.1,2.1,0.9,3.2,1.5c0.2,0.1,0.5,0.2,0.6,0.4
			c0.3,1.3,1.5,1.6,2.3,2.5c0.8,0.9,1.6,1.8,2.3,2.7c0.7,0.8,0.2,1.4-0.4,1.9c-0.2-0.1-0.3-0.1-0.5-0.2c-1.2-0.6-1.9-0.2-2,1
			c-0.1,1.2-0.1,2.4-0.3,3.5c-0.1,0.6-0.5,1.2-0.9,1.7c-0.2,0.4-0.6,0.6-1,0.9C59.9,25,59.5,25,59,25.6c-0.2,0.3-0.8,0.2-1.3,0.2
			c-0.6,0.1-1.7,1.1-1.6,1.7c0.1,1-0.2,1.7-1.4,1.6c0.1,1-0.5,1.3-1.3,1.5c-0.9,0.2-1.7,0.7-2.5,1.1c-0.9,0.5-1.8,1.1-2.9,1
			c-0.2,0-0.5,0.3-0.7,0.5c-0.3,0.3-0.6,0.6-0.8-0.1c0-0.7,0-1.4,0-1.9c1.2,0,2.2,0,3.4,0c0-0.4,0-0.8,0-1.1c0-0.5-0.3-1.1-0.1-1.4
			c0.3-0.4,0.9-0.7,1.3-1c0.2-0.1,0.6-0.2,0.7-0.4c0.1-0.3,0.1-0.8,0-1c-0.1-0.2-0.8-0.3-0.9-0.2c-0.6,0.8-1.5,0.4-2.2,0.5
			c0.1-1,0.3-2,0.3-2.9c0-0.4-0.4-0.8-0.8-1c-0.4-0.2-0.9-0.3-1.4-0.4c0.4-0.5,0.7-0.8,1-1.2c0.1,0.5,0.2,0.8,0.3,1.4
			c0.2-0.5,0.3-0.7,0.4-0.9c0.6,0,1.4,0.2,1.7-0.1c1.2-1,2.7-0.6,3.8-0.4c2.3,0.5,3.1-2,5-2c0,0,0.1,0,0.1-0.1
			c0.3-0.7,0.8-0.9,1.5-0.8c0.1,0,0.3-0.2,0.5-0.3c0-0.1,0-0.2,0-0.3c-0.9,0-1.9,0-2.8,0c-0.4,0-0.7-0.3-1.1-0.4
			c0.3-0.2,0.7-0.5,1-0.6c1.7-0.2,3.2-0.8,4.6-1.9c-0.6-0.4-1.3-0.8-1.9-1.2c-0.1-0.1-0.3,0-0.4,0c-0.7,0-1.4,0.1-1.1-1.1
			c0-0.1-0.2-0.4-0.3-0.5c-0.5-0.4-1.1-0.7-1.6-1.1c-0.4-0.4-0.7-1-1.4-0.8c-0.1-0.3-0.1-0.6-0.2-0.8C55.8,8.9,56.1,8.9,56.3,8.8z
			 M50.6,22.1c0,0.1,0,0.3,0,0.4c0.4,0.5,0.9,0.6,1.4,0.2c0.1-0.1,0.1-0.4,0.1-0.6C51.6,22.1,51.1,22.1,50.6,22.1z M54.9,28.3
			c0.1,0,0.1,0.1,0.2,0.1c0,0,0.1-0.1,0.1-0.2c-0.1,0-0.1-0.1-0.2-0.1C54.9,28.1,54.9,28.2,54.9,28.3z"/>
		<path class="st17" d="M36,7.3c0-0.3,0-0.6,0-0.8c1.3-0.8,2.6-0.3,4-0.4c0.5,0,1,0,1.4,0c0.3,0,0.5,0.2,0.7,0.2
			c0.6,0.1,1.3,0.5,1.7,0.2c1-0.5,1.2-0.2,1.1,0.8c0.5,0,1,0.1,1.4,0C48.3,7,49.6,8,51.1,8.9c0.9,0.5,1.8,0.9,2.7,1.3
			c0.5,0.2,1,0.4,1.5,0.6c1.1,0.7,2.2,1.5,1.6,3.1c-0.3,0.7-0.5,1.5-0.8,2.3c-0.9,0.3-2,0.5-3,1c-1.5,0.7-2.6,0.1-2.7-1.5
			c0-1.4-0.4-1.7-1.5-1.4c-0.4,0.5-0.7,0.8-1,1.1c-0.4-0.4-0.9-0.8-1.1-1.3c-0.3-0.8-0.3-1.7-0.5-2.6c-0.1-0.2-0.3-0.6-0.5-0.6
			c-0.9,0-1.5-0.5-2.1-1.2c-0.2-0.3-0.9-0.3-1.4-0.4c-0.3-0.1-0.6,0-0.8-0.1c-0.9-0.3-1.3,0.1-1.3,0.9c0,0.2,0,0.4,0,0.6
			c-0.5-0.1-1.3,0.3-1.5-0.7c-0.2-1-0.5-2-0.8-3.3c-0.4,0.4-0.7,0.6-0.9,0.8c-0.2,0.2-0.5,0.4-0.8,0.6C36.2,7.9,36.1,7.6,36,7.3z"/>
		<path class="st19" d="M40.2,10.1c0-0.9,0.5-1.2,1.3-0.9c0.3,0.1,0.6,0,0.8,0.1c0.5,0.1,1.1,0.1,1.4,0.4c0.6,0.7,1.2,1.1,2.1,1.2
			c0.2,0,0.4,0.4,0.5,0.6c0.2,0.8,0.2,1.7,0.5,2.6c0.2,0.5,0.7,0.9,1.1,1.3c0.3-0.3,0.5-0.6,1-1.1c1.1-0.3,1.5,0,1.5,1.4
			c0,1.6,1.2,2.2,2.7,1.5c1-0.5,2.1-0.7,3-1c0.3-0.8,0.6-1.6,0.8-2.3c0.6-1.6-0.5-2.4-1.6-3.1c0.2-0.3,0.4-0.6,0.6-0.8
			c0.7-0.2,1,0.4,1.4,0.8c0.5,0.4,1,0.7,1.6,1.1c0.2,0.1,0.4,0.4,0.3,0.5c-0.3,1.1,0.4,1.1,1.1,1.1c0.1,0,0.3,0,0.4,0
			c0.6,0.4,1.2,0.8,1.9,1.2c-1.3,1.1-2.9,1.7-4.6,1.9c-0.4,0-0.7,0.4-1,0.6c0.4,0.2,0.7,0.4,1.1,0.4c0.9,0.1,1.9,0,2.8,0
			c0,0.1,0,0.2,0,0.3c-0.2,0.1-0.3,0.3-0.5,0.3c-0.7,0-1.2,0.1-1.5,0.8c0,0,0,0.1-0.1,0.1c-1.9-0.1-2.7,2.5-5,2
			c-1.1-0.2-2.6-0.6-3.8,0.4c-0.4,0.3-1.2,0.1-1.7,0.1c0.1-1.1,0.3-2.2,0.3-3.3c0-0.2-0.3-0.5-0.5-0.7c-1-0.8-2.1-1.5-2.8-2.5
			c-0.5-0.7-1-1-1.8-0.9c-0.3,0-0.8-0.3-0.8-0.5c0.1-1.3-0.8-2-1.3-3C41.1,9.9,40.8,9.8,40.2,10.1z"/>
		<path class="st12" d="M37.5,5.4c0.3-0.2,0.7-0.5,1-0.6c0.6-0.1,1.2,0.1,1.7,0.2c-0.2,0.2-0.4,0.6-0.6,0.6c-0.5,0.1-1,0-1.5,0
			c-0.1-0.1-0.1-0.1-0.2-0.2C37.8,5.4,37.6,5.4,37.5,5.4z"/>
		<path class="st11" d="M37.9,5.4c0.1,0.1,0.1,0.1,0.2,0.2C38.1,5.6,38,5.5,37.9,5.4z"/>
		<path class="st19" d="M36,7.3c0.1,0.3,0.2,0.5,0.3,0.8c0.3-0.2,0.5-0.4,0.8-0.6c0.3-0.2,0.5-0.5,0.9-0.8C38.3,8,38.6,9,38.8,10
			c0.2,1,0.9,0.6,1.5,0.7c0.1,0.8-0.2,1.1-1,1.1c-0.8,0-1.5,0-2.3,0c-0.8,0-1.2,0.4-1.3,1.2c-0.1,0.3-0.2,0.7-0.4,1
			c-0.3,0.4-0.6,0.7-1,1c-0.3,0.2-0.6,0.3-0.9,0.4c0.2-0.4,0.6-0.7,0.6-1.1c0-0.9,0-1.8-0.2-2.7c-0.1-0.3-0.5-0.8-0.7-0.8
			c-1.7,0-3.3,0.2-5,0.2c-0.1,0-0.3-0.2-0.4-0.3c0-0.4,0-0.7,0-1.1c0.6,0,1.2-0.1,1.8,0c2.1,0.4,2.4,0.1,2.4-2c0-0.1,0-0.2,0-0.3
			c0.1,0,0.1,0,0.2,0c0.2,0.5,0.3,1.1,0.6,1.5c0.2,0.3,0.6,0.8,0.9,0.7c0.3-0.1,0.8-0.5,0.8-0.9C34.4,7.6,34.9,7.1,36,7.3z
			 M36.1,9.6c-0.2-0.1-0.4-0.1-0.5-0.2c-0.1,0.3-0.3,0.6-0.3,1c0,0.1,0.3,0.2,0.5,0.3C35.9,10.3,36,9.9,36.1,9.6z"/>
		<path class="st5" d="M27.6,10.7c0.1,0.1,0.3,0.3,0.4,0.3c1.7-0.1,3.3-0.2,5-0.2c0.2,0,0.6,0.5,0.7,0.8c0.1,0.9,0.2,1.8,0.2,2.7
			c0,0.4-0.4,0.8-0.6,1.1c0,0,0,0,0,0c-0.2,0-0.4,0-0.6,0c0.2-0.4,0.4-0.7,0.6-1.1c-0.2,0-0.4-0.1-0.6-0.1c-0.3-0.1-0.6-0.1-0.8-0.2
			c0-0.1,0-0.3,0-0.4c0.1-0.8,0-1.2-1.1-1.4c-1-0.1-2.1,0.6-3.1-0.1c0-0.1,0-0.1,0-0.2c-0.3-0.5-0.5-1-1.1-0.2c-0.5,0-1,0-1.5,0
			c-0.2-0.8-0.4-1.5-0.6-2.3c0.6-1,0.9-1,1.6-0.1c0.1,0.1,0.3,0.2,0.5,0.3C26.5,10.2,26.6,10.8,27.6,10.7z"/>
		<path class="st5" d="M31.8,7.3c0,0.1,0,0.2,0,0.3c0,2.1-0.3,2.3-2.4,2c-0.6-0.1-1.2,0-1.8,0c0-0.2,0-0.4,0-0.6
			c-0.3-0.5-0.5-1-0.9-1.7C28.5,7.3,30.1,7.3,31.8,7.3z"/>
		<path class="st11" d="M27.6,9c0,0.2,0,0.4,0,0.6c0,0.4,0,0.7,0,1.1c-1,0.1-1.1-0.5-1.1-1.3C26.9,9.3,27.2,9.2,27.6,9z"/>
		<path class="st17" d="M10.9,20.6c-0.3-1.9,1.3-2.7,2.3-3.8c0.4-0.4,0.8-0.7,1.3-1.1c0.8-0.6,1.6-1,2.6,0.3c0-0.9,0-1.4,0-2
			c2.1-1,3.7-3,6.2-2.8c0.4,0.1,0.7,0.1,1.1,0.2c-0.2,0.3-0.4,0.6-0.6,0.8c-0.1,0.2-0.3,0.4-0.4,0.6c-0.8,0-1.7,0-2.5,0
			c-1.6,0.1-1.8,0.5-1.2,1.6c-0.4,0.5-0.7,1-1.2,1.3c-0.6,0.4-1.2,0.7-1.8,1.1c-1,0.6-1,0.6-1.9-0.1c-1.7,1.2-1.5,1.2-0.7,2.5
			C13,19.8,12,20.2,10.9,20.6z"/>
		<path class="st10" d="M26.7,49.1c0.6,0.2,1.1,0.4,1.7,0.6C27.9,49.5,27.3,49.3,26.7,49.1z"/>
		<path class="st0" d="M18.5,50.8c-0.1,0.2-0.2,0.4-0.2,0.6c-0.2-0.2-0.4-0.4-0.6-0.6c0-0.1,0-0.3,0-0.4
			C18,50.5,18.2,50.6,18.5,50.8z"/>
		<path class="st20" d="M38.8,42.8c-0.2,0.1-0.4,0.1-0.6,0.2c-1.4-0.1-2.7-0.2-4.1-0.3c-0.7-0.1-1.4,0-2-0.1
			c-1.1-0.2-2.1-0.4-3.2-0.6c-0.5-0.1-1,0-1.4-0.2c-1-0.5-2-0.4-3-0.7c-1-0.3-2.1-0.6-3.2-1c-0.6-0.2-1.2-0.9-1.5-1.5
			c-0.2-0.3-0.2-1,0-1.4c0.3-0.5,0.9-0.8,1.6-0.5c0.3,0.1,0.6,0.3,0.9,0.3c1.4,0,2.8,0,4.1,0c1.1,0.1,2.2,0.3,3.3,0.5
			c1.5,0.2,3,0.6,4.5,0.7c0.8,0.1,1.6-0.3,2.4-0.4c1.1-0.1,2.3-0.3,3.4-0.1c1.1,0.2,1.9-0.1,2.8-0.5c0.7-0.3,1.6-0.5,2.4-0.7
			c1.1-0.3,2.3-0.5,3.4-0.7c0.9-0.2,1.8-0.2,2.7-0.3c0.6-0.1,1-0.3,1.5-0.7c0.4-0.4,1.5-0.2,2.2-0.2c0.4,0,0.8,0.1,1.1,0.3
			c0.4,0.2,0.7,0.4,1,0.6c-0.3,0.4-0.5,0.9-0.8,1.2c-0.2,0.2-0.6,0.1-0.9,0.1c-0.7,0-1.2,0.1-1.5,1c-0.1,0.3-0.8,0.5-1.2,0.7
			c-0.3-1-2-1.8-3.2-1.2c-1.2,0.6-2.4,0.5-3.6,0.5c-0.5,0-1,0-1.6,0c0.1,1.1-0.4,1.4-1.3,1.3c-1.7-0.2-3.5-0.4-5.2-0.4
			c-3-0.1-6,0-9,0c-0.3,0-0.6,0-0.9,0c-1.1-0.1-2.2-0.2-3.3-0.4c-0.4-0.1-0.8-0.2-1.3-0.3c-0.4,0-0.8,0-1.2,0.1c0,0-0.1,0.6,0,0.7
			c0.9,0.7,1.6,1.8,3,1.7c0.8-0.1,1.6,0.4,2.4,0.6c0.6,0.2,1.2,0.5,1.8,0.6c0.7,0.1,1.4,0,2,0.1c1.2,0.1,2.5,0.3,3.7,0.4
			c2,0.1,4,0,6,0c0.3,0,0.7,0.1,0.9-0.1c1.1-0.8,2.3-0.9,3.5-0.7c1.3,0.1,2.1-0.6,3-1.4c0.3-0.3,0.7-0.4,1.1-0.5
			c0.5-0.1,0.9,0,1.4-0.2c0.6-0.2,1.1-0.5,1.7-0.7c-0.1,1-1.1,1.7-2.6,1.9c-0.3,0-0.6,0-0.8,0c-0.7-0.1-0.9,0.2-0.8,0.8
			c-0.7,0.2-1.4,0.4-2.1,0.6c-0.5,0.1-1.1,0.4-1.4,0.2c-1-0.5-1.6-0.1-2.4,0.4c-0.4,0.3-1.1,0.3-1.6,0.5c-0.2,0.1-0.3,0.3-0.4,0.4
			c-0.1,0-0.3,0-0.4,0c-0.1-0.3-0.2-0.8-0.3-0.8C39.5,42.5,39.2,42.6,38.8,42.8z"/>
		<path class="st17" d="M19.4,33.7c0-0.4,0-0.7,0-1.1c0.1-1.1-0.4-1.6-1.4-1.7c-1-0.1-2.2-2.2-1.9-3.2c0.1-0.2,0.2-0.4,0.4-0.5
			c1.1-0.3,2.2-0.7,3.3-0.9c2-0.3,3.9-0.5,5.9-0.6c0.6,0,1.7,0.3,1.8,0.7c0.3,1.1,1.2,1,1.8,1c2,0.1,4.1,0.1,6.2,0.1
			c0.9,0,1.8-0.3,2.7-0.5c0.3-0.1,0.4-0.7,0.5-1.1c0.1-0.7,0.2-1.3,0.3-2.3c-1.5-1.9-3.1-2.5-5.2-0.7c-0.1,0-0.1,0-0.2,0
			c-0.2,0-0.4,0-0.6,0c0.1-0.1,0.1-0.3,0.2-0.4c0.3-0.2,0.7-0.4,1-0.7c0.5-0.4,0.9-0.9,1.3-1.4c1.8-0.3,3,0.6,4,1.9
			c0.2,0.3,0.6,0.5,0.9,0.8c0,0.8,0,1.7,0,2.5c-0.1,0.5,0.1,1.2-0.2,1.5c-0.5,0.5-1.3,1.1-2,1.2c-1.8,0.3-3.7,0.5-5.5,0.4
			c-1.8,0-3.7,0.6-5.2-1.1c-0.6-0.7-2-0.6-3.1-0.7c-1.1-0.1-2.1,0.4-3.2-0.2c-0.1-0.1-0.4,0.1-0.7,0.2c-0.4,0.1-0.8,0.3-1.2,0.4
			c-0.7,0.1-1.3,0.2-2.2,0.4c1.1,1,1.1,2.7,2.8,3c0.1,0,0.2,0.3,0.3,0.4c0.8,1.1,0.6,2.7,1.8,3.6c0.1,0.1,0,0.3,0,0.4
			c-0.8-0.3-1.6-0.6-2.3-0.9C19.4,34.2,19.4,33.9,19.4,33.7z"/>
		<path class="st19" d="M21.9,35.2c0-0.1,0-0.4,0-0.4c-1.2-0.9-1.1-2.5-1.8-3.6c-0.1-0.1-0.1-0.4-0.3-0.4c-1.7-0.2-1.7-2-2.8-3
			c0.8-0.1,1.5-0.2,2.2-0.4c0.4-0.1,0.8-0.3,1.2-0.4c0.2-0.1,0.5-0.3,0.7-0.2c1,0.6,2.1,0.1,3.2,0.2c1.1,0.1,2.5,0.1,3.1,0.7
			c1.6,1.7,3.5,1.1,5.2,1.1c1.8,0,3.7-0.2,5.5-0.4c0.7-0.1,1.5-0.6,2-1.2c0.3-0.3,0.2-1,0.2-1.5c0.7,0.4,1.4,0.8,2.5,1.4
			c-1.1,0.7-1.7,1.3-2.5,1.6c-1.2,0.4-2.3,1.9-3.6,0.7c-2.4,1.1-4.6,0.2-6.8,0.3c-0.1-0.1-0.3-0.4-0.4-0.4c-1.4,0.3-2.4-0.7-3.5-1.1
			c-2.4-0.9-4.5-0.4-6.7,0.3c-0.1,0-0.2,0.2-0.3,0.4c0.1,0.1,0.2,0.3,0.3,0.3c1.1,0.6,2,1.4,2.3,2.7c0.1,0.3,0.7,0.5,1,0.7
			c0.5,0.2,1.1,0.3,1.4,0.6c1.1,1.4,2.6,1,4,1c0.4,0,0.8,0,1.2,0c0.1,0.1,0.3,0.3,0.4,0.4c0.6,0,1.3,0,1.9,0
			c0.1,0.1,0.3,0.3,0.4,0.4c-0.2,0.1-0.4,0.2-0.6,0.2c-0.4,0-0.7-0.1-1.1-0.2c-1.7-0.2-3.5-0.3-5.2-0.6c-1.3-0.3-1.3-0.4-1.3,1
			c0,0,0,0,0,0c-0.4,0-0.7,0-1.1,0C22.2,35.5,22,35.3,21.9,35.2z"/>
		<path class="st16" d="M44.7,34.3c0.8,0,1.5,0,2.3,0c0.5,0,1,0,1.5,0c-0.4,0.9-1.2,1.3-2,1.2c-1.3-0.3-2.4,0.1-3.5,0.6
			c-2,0.9-4.1,1.1-6.3,0.9c-1.2-0.1-2.4,0-3.6-0.1c-2.1-0.2-4.2-0.5-6.3-0.7c-0.7-0.1-1.5,0.2-2.1-0.5c0.2-0.1,0.4-0.2,0.7-0.2
			c2.2,0.2,4.3,0.4,6.5,0.6c0.6,0,1.2,0,1.8,0c3.7,0.5,7.4,0.4,10.9-1.4C44.6,34.6,44.6,34.5,44.7,34.3z"/>
		<path class="st17" d="M44.7,34.3c-0.1,0.1-0.1,0.3-0.2,0.3c-3.5,1.7-7.1,1.8-10.9,1.4c-0.6-0.1-1.2,0-1.8,0
			c-2.2-0.2-4.3-0.4-6.5-0.6c-0.2,0-0.4,0.1-0.7,0.2c-0.4,0-0.8,0-1.3,0c0-1.4,0-1.2,1.3-1c1.7,0.3,3.5,0.4,5.2,0.6
			c0.4,0,0.7,0.2,1.1,0.2c0.2,0,0.4-0.1,0.6-0.2c1.7,0.1,3.3,0.2,5,0.5c1.2,0.2,2.2-0.6,3.4-0.2c0.3,0.1,1.6,0,1.7-1.1
			c0.1,0,0.1,0,0.2,0c0.5,0,1,0,1.5,0C43.8,34.3,44.2,34.3,44.7,34.3z"/>
		<path class="st17" d="M48.5,34.3c-0.5,0-1,0-1.5,0c0.2-0.2,0.4-0.6,0.5-0.6c1.7,0.3,2.7-1.2,4-1.7c1.3-0.5,2.4-1.4,3.9-1.1
			c-0.2,0.2-0.4,0.5-0.7,0.7c-1.7,0.8-3.4,1.6-5.1,2.4c-0.1,0-0.1,0.2-0.1,0.3C49.2,34.3,48.8,34.3,48.5,34.3z"/>
		<path class="st17" d="M22.3,35.6c0.4,0,0.7,0,1.1,0C23,36.3,22.7,36.3,22.3,35.6z"/>
		<path class="st16" d="M17.3,39.4c-0.1-0.1-0.3-0.3-0.4-0.4C17,39.1,17.1,39.3,17.3,39.4z"/>
		<path class="st9" d="M41.9,34.3c-0.1,0-0.1,0-0.2,0c-0.2,0-0.4,0-0.6,0c0.4-0.4,0.8-0.9,1.3-1.3c0.8-0.6,1.5-1.1,2.2-1.8
			c0.6-0.7,1.9-0.8,2.8-1.2c0.4-0.2,0.7-0.5,1.1-0.8c-0.3-0.3-0.6-0.6-0.9-0.9c-0.3-0.3-0.6-0.6-1-0.8c0.7-0.2,2,0.6,1.9-1.1
			c0.8-0.1,1.6,0.3,2.2-0.5c0.1-0.1,0.7,0,0.9,0.2c0.2,0.2,0.1,0.7,0,1c-0.1,0.2-0.5,0.3-0.7,0.4c-0.5,0.3-1.1,0.5-1.3,1
			c-0.2,0.3,0.1,0.9,0.1,1.4c0,0.3,0,0.7,0,1.1c-1.1,0-2.1,0-3.4,0c0,0.6,0,1.2,0,1.9c-0.2,0-0.4,0-0.6,0c-0.5,0-1,0-1.6,0
			C43.1,32.9,42.4,33.5,41.9,34.3z"/>
		<path class="st18" d="M41.9,34.3c0.5-0.9,1.2-1.4,2.2-1.3c0.5,0.1,1,0,1.6,0c-0.4,0.2-0.7,0.4-1.1,0.6c-0.4,0.2-0.8,0.4-1.3,0.6
			C42.9,34.3,42.4,34.3,41.9,34.3z"/>
		<path class="st15" d="M23.4,13c0.1-0.2,0.3-0.4,0.4-0.6c0.7,0.1,1.5-0.3,1.9,0.9c0.1,0.4,1.2,0.6,1.9,1c-0.1,0.4-0.2,0.9-0.3,1.4
			c0,0.1-0.1,0.2-0.1,0.2c0.8,1.3-0.1,1.9-0.8,2.8c-0.4,0.5-0.4,1.4-0.5,2.2c-0.1,0.6-0.3,0.8-0.8,0.8c-0.7,0.1-1.4,0.2-2.3,0.4
			c0.7,0.4,1.2,0.6,1.6,0.9c0.6,0.5,0.4,1-0.1,1.4c-0.3,0.3-0.8,0.6-1.2,0.6c-1.4,0.2-2.8,0.3-4.3,0.5c-0.6,0.1-1.2,0.3-1.7,0.2
			c-1.2-0.3-2.2-0.3-3.4,0.1c-0.5,0.2-1.3-0.5-2-0.8c0.4-1,0.7-2,1.2-2.8c0.3-0.4,0.9-0.7,1.5-0.9c0.5-0.2,0.9-0.2,0.6-0.9
			c-0.4-0.9,0.1-1.5,1-1.6c0.4,0,0.8,0.1,1.2,0.1c0.8,0.1,1.4,0,1.8-0.9c0.1-0.3,0.5-0.6,0.9-0.7c1.1-0.4,1.4-0.9,1.1-2.1
			c-0.1-0.4,0-0.9,0-1.5C21.6,13.5,23.1,15.2,23.4,13z"/>
		<path class="st15" d="M33.5,22.9c0.1,0,0.1,0,0.2,0c0.9,0.1,1.6-0.5,2.6-0.1c0.7,0.3,1.3,0.4,1.3,1.2c0,0.8-0.6,1.2-1.5,0.8
			c0,0.3,0,0.5-0.1,0.7c-0.1,0.4-0.2,1.2-0.3,1.3c-0.6,0-1.2-0.1-1.9-0.2c-0.3-0.1-0.6-0.2-0.9-0.3c-1.2-0.1-1.3-0.3-1.1-1.5
			c0-0.2-0.1-0.4-0.1-0.7c0-0.1,0-0.1,0-0.2C32.7,24.1,33.3,23.9,33.5,22.9z"/>
		<path class="st19" d="M33.1,22.5c-0.1,0.1-0.1,0.3-0.2,0.4c-0.4,0-0.7,0-1.1,0c-0.1,0-0.1-0.1-0.2-0.1c-1.5,0.3-2.3-1.2-3.7-1.3
			c-0.1,0-0.2-0.5-0.4-0.7c0-0.3,0-0.6,0-0.8c1.2-0.4,2.2-1.7,2.1-2.7c0-0.1,0-0.3,0-0.4c0.2-0.1,0.4-0.3,0.6-0.4
			c0.4,1,0.2,1.8-0.5,2.6c-0.7,0.8-0.8,1.6-0.2,1.9c0.7,0.3,1.4,0.5,2.1,0.8C31.7,22.8,32.5,22.5,33.1,22.5z"/>
		<path class="st17" d="M27.6,20.8c0.1,0.3,0.2,0.7,0.4,0.7c1.4,0,2.2,1.6,3.7,1.3c0,0,0.1,0.1,0.2,0.1c0,0.4,0,0.7,0,1.1
			c0,0.1,0,0.1,0,0.2c-0.8-0.1-1.8,0.4-2.1-1c-0.1-0.3-1.2-0.3-1.9-0.4c-0.1,0.6-0.3,1-0.3,1.3c-0.4-0.4-0.8-0.6-1.1-0.9
			c-0.2-0.3-0.6-0.8-0.5-0.9C26.4,21.7,26.4,20.5,27.6,20.8z"/>
		<path class="st17" d="M27.6,12c1,0.7,2.1,0,3.1,0.1c1.1,0.1,1.2,0.5,1.1,1.4c0,0.1,0,0.3,0,0.4c-1.1-0.1-2.2-0.2-3.3-0.4
			C27.7,13.3,27.5,12.7,27.6,12z"/>
		<path class="st17" d="M29.7,16.8c0,0.1,0,0.3,0,0.4c-0.4,0.1-0.7,0.1-1.1,0.2c0.2-1.9,1.3-2.7,3.2-2.8c0.3,0,0.6-0.4,0.8-0.6
			c0.2,0,0.4,0.1,0.6,0.1c-0.2,0.4-0.4,0.8-0.6,1.1c0,0,0,0,0,0c-0.8,0.1-1.8-0.4-2.1,0.8c-0.1,0-0.1,0-0.2,0
			C30.1,16.4,29.9,16.6,29.7,16.8z"/>
		<path class="st17" d="M15.4,29.4c-0.7-0.2-1.2-0.3-1.7-0.5c-0.1,0-0.1-0.6,0.1-0.8c0.3-0.3,0.7-0.4,1.2-0.7
			C15.1,28.1,15.2,28.6,15.4,29.4z"/>
		<path class="st5" d="M28.6,17.5c0.4-0.1,0.7-0.1,1.1-0.2c0.1,1-0.9,2.3-2.1,2.7c0-0.3,0-0.6,0-0.8C27.9,18.6,28.3,18,28.6,17.5z"
			/>
		<path class="st17" d="M28.6,17.5c-0.4,0.6-0.7,1.1-1.1,1.7C27.6,18.4,27.7,17.7,28.6,17.5z"/>
		<path class="st17" d="M26.5,11.5c0.5-0.8,0.8-0.3,1.1,0.2C27.2,11.7,26.9,11.6,26.5,11.5z"/>
		<path class="st17" d="M13.8,20.5c0.1,0,0.1,0.1,0.2,0.1c0,0.1,0,0.1-0.1,0.2c0,0-0.1,0-0.2-0.1C13.8,20.6,13.8,20.6,13.8,20.5z"/>
		<path class="st15" d="M38.8,42.8c0.4-0.1,0.8-0.3,1.2-0.4c0.1,0,0.2,0.5,0.3,0.8C39.7,43.1,39.3,42.9,38.8,42.8z"/>
		<path class="st11" d="M30.3,16.2c0.1,0,0.1,0,0.2,0c0.3,0,0.6,0,0.8,0c0.2-0.1,0.4-0.1,0.6-0.2c0.2-0.1,0.4-0.1,0.6-0.2
			c0.2-0.1,0.4-0.3,0.6-0.4c0,0,0,0,0,0c0.3-0.1,0.6-0.2,0.9-0.4c0.4-0.3,0.7-0.6,1-1c0.2-0.3,0.4-0.6,0.4-1
			c0.1-0.8,0.5-1.2,1.3-1.2c0.8,0,1.5,0,2.3,0c0.8,0,1.1-0.3,1-1.1c0-0.2,0-0.4,0-0.6c0.6-0.2,0.9-0.1,1.2,0.5c0.4,1,1.4,1.7,1.3,3
			c0,0.1,0.5,0.5,0.8,0.5c0.8,0,1.2,0.3,1.8,0.9c0.8,1,1.9,1.7,2.8,2.5c0.2,0.2,0.5,0.5,0.5,0.7c-0.1,1.1-0.2,2.2-0.3,3.3
			c-0.1,0.2-0.2,0.4-0.4,0.9c-0.1-0.6-0.2-1-0.3-1.4c-0.3,0.4-0.6,0.8-1,1.2c0.5,0.1,1.1,0.2,1.4,0.4c0.4,0.2,0.8,0.7,0.8,1
			c0,1-0.2,2-0.3,2.9c0.1,1.6-1.2,0.9-1.9,1.1c-0.1-0.6-0.4-0.7-1-0.5c-0.6,0.2-1.3,0.3-2,0.5c-0.7,0.1-1.4,0.1-1.5,1.1
			c0,0.2-0.3,0.4-0.5,0.5c-1.1,0.5-2.3,1-3.4,1.4c-0.3,0.1-0.6,0.1-0.9,0c-0.6-0.1-1.2-0.3-1.8-0.3c-1.7,0-3.4,0.1-5.1,0.2
			c-0.6,0-1-0.2-1.1-0.9c0.1,0,0.3,0,0.4,0c2.2-0.1,4.5,0.8,6.8-0.3c1.3,1.2,2.4-0.2,3.6-0.7c0.8-0.3,1.5-0.9,2.5-1.6
			c-1-0.6-1.7-1-2.5-1.4c0-0.8,0-1.7,0-2.5c0-0.5,0-1,0-1.5c0.4,0.1,0.9,0.1,1.3,0.3c0.5,0.3,1.8,0.1,2-0.5c0.2-0.7,0.6-0.8,1.2-0.9
			c0.7-0.1,1.3-0.3,2-0.5c0-0.1,0-0.3-0.1-0.4c-1.2-1-2.3-2.1-3.5-2.9c-1-0.6-2.1-1.8-3.5-0.7c-0.3,0-0.6,0-0.8,0
			c-0.2-0.1-0.4-0.4-0.6-0.4c-0.6-0.1-1.3-0.1-1.9-0.3c-1.1-0.4-1.7-0.2-2.4,1c-0.3-0.1-0.7-0.1-1-0.2c-0.1,0.1-0.3,0.3-0.4,0.4
			c-0.2,0-0.4,0-0.6,0c-0.3,0.2-0.8,0.4-0.8,0.7c0,0.9-0.1,1.9,0.4,2.6c0.4,0.6,0.5,1.2,0.5,1.8l0,0c-0.7-0.3-1.4-0.5-2.1-0.8
			c-0.6-0.3-0.5-1.1,0.2-1.9c0.6-0.8,0.9-1.6,0.5-2.6C30.3,16.3,30.3,16.3,30.3,16.2z"/>
		<path class="st11" d="M50.6,22.1c0.5,0,1,0,1.5,0c0,0.2,0,0.5-0.1,0.6c-0.5,0.4-1,0.2-1.4-0.2C50.6,22.4,50.6,22.2,50.6,22.1z"/>
		<path class="st5" d="M54.9,28.3c0-0.1,0-0.1,0.1-0.2c0,0,0.1,0,0.2,0.1c0,0.1,0,0.1-0.1,0.2C55,28.4,54.9,28.3,54.9,28.3z"/>
		<path class="st17" d="M36.1,9.6c-0.1,0.4-0.2,0.7-0.3,1.1c-0.2-0.1-0.5-0.2-0.5-0.3c0.1-0.3,0.2-0.6,0.3-1
			C35.7,9.5,35.9,9.5,36.1,9.6z"/>
		<path class="st19" d="M33.3,15.3c-0.2,0.1-0.4,0.3-0.6,0.4c0-0.1,0-0.3,0-0.4c0,0,0,0,0,0C32.9,15.3,33.1,15.3,33.3,15.3z"/>
		<path class="st1" d="M52.7,38.3c-0.6,0.3-1.1,0.6-1.7,0.7c-0.4,0.1-0.9,0.1-1.4,0.2c-0.4,0.1-0.9,0.2-1.1,0.5
			c-0.9,0.8-1.6,1.6-3,1.4C44.2,41,43,41,42,41.8c-0.2,0.2-0.6,0.1-0.9,0.1c-2,0-4,0.1-6,0c-1.2,0-2.5-0.3-3.7-0.4
			c-0.7-0.1-1.4,0.1-2-0.1c-0.6-0.1-1.2-0.4-1.8-0.6c-0.8-0.2-1.6-0.7-2.4-0.6c-1.5,0.1-2.1-0.9-3-1.7c-0.1-0.1-0.1-0.7,0-0.7
			c0.4-0.1,0.8-0.1,1.2-0.1c0.4,0,0.8,0.2,1.3,0.3c1.1,0.1,2.2,0.3,3.3,0.4c0.3,0,0.6,0,0.9,0c3,0,6,0,9,0c1.7,0,3.5,0.2,5.2,0.4
			c0.9,0.1,1.4-0.2,1.3-1.3c0.6,0,1.1,0,1.6,0c1.2,0,2.4,0,3.6-0.5C50.7,36.6,52.3,37.3,52.7,38.3C52.7,38.3,52.7,38.3,52.7,38.3z"
			/>
		<path class="st19" d="M40.2,21.7c0,0.5,0,1,0,1.5c-0.3-0.3-0.6-0.5-0.9-0.8c-1-1.4-2.2-2.2-4-1.9c0-0.1,0-0.3,0-0.4
			c0.6-0.1,1.3-0.3,1.9-0.4c0.6,0.3,1.2,0.5,1.7,0.8c0.4,0.2,0.8,0.5,1.2,0.7C40.2,21.3,40.2,21.5,40.2,21.7z"/>
		<path class="st11" d="M35.4,20c0,0.1,0,0.3,0,0.4c-0.4,0.5-0.8,1-1.3,1.4c-0.3,0.3-0.7,0.5-1,0.7c-0.6,0-1.4,0.3-1.3-0.8
			c0,0,0,0,0,0c1.1,0.4,1.7-0.5,2.4-1C34.6,20.4,35,20.2,35.4,20z"/>
		<path class="st16" d="M31.8,24c0-0.4,0-0.7,0-1.1c0.4,0,0.7,0,1.1,0c0.2,0,0.4,0,0.6,0C33.3,23.9,32.7,24.1,31.8,24z"/>
		<path class="st18" d="M29.7,29.7c-0.1,0-0.3,0-0.4,0c-0.6,0-1.1,0-1.7,0c-0.6-0.1-1.2-0.3-1.9-0.3c-0.4,0-0.9,0.2-1.3,0.1
			c-0.8-0.3-1.2-0.1-1.3,0.7c0,0.2-0.1,0.7-0.3,0.7c-1.1,0.3-0.7,1.1-0.6,1.8c-0.3-0.2-0.9-0.4-1-0.7c-0.3-1.4-1.2-2.1-2.3-2.7
			c-0.1-0.1-0.2-0.2-0.3-0.3c0.1-0.1,0.2-0.3,0.3-0.4c2.2-0.7,4.3-1.3,6.7-0.3c1.1,0.4,2.1,1.4,3.5,1.1
			C29.4,29.3,29.6,29.6,29.7,29.7z"/>
		<path class="st11" d="M22.3,32.6c-0.2-0.7-0.5-1.4,0.6-1.8c0.1,0,0.2-0.4,0.3-0.7c0.1-0.8,0.4-1.1,1.3-0.7
			c0.4,0.1,0.9-0.1,1.3-0.1c0.6,0.1,1.2,0.2,1.9,0.3c0,0.4,0,0.8,0,1.2c-1.2,0-2.2,0-3.2,0c0,0.6,0,1.1,0,1.5c0.7,0.2,1.4,0.2,2,0.5
			c1.2,0.7,2.4,1.1,3.8,1c0.6,0,1.1,0.2,1.7,0.4c-0.2,0.1-0.4,0.3-0.6,0.4c-0.6,0-1.3,0-1.9,0c-0.1-0.1-0.3-0.3-0.4-0.4
			c-0.4,0-0.8,0-1.2,0c-1.4-0.1-2.9,0.4-4-1C23.4,32.9,22.8,32.9,22.3,32.6z"/>
		<path class="st18" d="M31.2,34.8c0.2-0.1,0.4-0.3,0.6-0.4c1.6,0.1,3.2,0.3,4.8,0.4c1.2,0.1,2.4,0,3.6,0c0.1-0.1,0.3-0.3,0.4-0.4
			c0.1,0,0.3,0,0.4,0c0.2,0,0.4,0,0.6,0c-0.1,1.1-1.4,1.2-1.7,1.1c-1.2-0.4-2.3,0.4-3.4,0.2c-1.6-0.3-3.3-0.3-5-0.5
			C31.5,35,31.3,34.9,31.2,34.8z"/>
		<path class="st18" d="M28.9,34.3c0.1,0.1,0.3,0.3,0.4,0.4C29.1,34.6,29,34.5,28.9,34.3z"/>
		<path class="st12" d="M41.1,34.3c-0.1,0-0.3,0-0.4,0c-0.1,0.1-0.3,0.3-0.4,0.4c-1.2,0-2.4,0-3.6,0c-1.6-0.1-3.2-0.3-4.8-0.4
			c-0.6-0.1-1.1-0.4-1.7-0.4c-1.4,0-2.6-0.4-3.8-1c-0.5-0.3-1.3-0.3-2-0.5c0-0.3,0-0.8,0-1.5c1,0,2.1,0,3.2,0c0-0.5,0-0.9,0-1.2
			c0.6,0,1.1,0,1.7,0c0.1,0.7,0.4,0.9,1.1,0.9c1.7-0.1,3.4-0.2,5.1-0.2c0.6,0,1.2,0.2,1.8,0.3c0.3,0,0.6,0.1,0.9,0
			c1.1-0.4,2.3-0.9,3.4-1.4c0.2-0.1,0.5-0.3,0.5-0.5c0.1-1,0.8-1,1.5-1.1c0.7-0.1,1.4-0.3,2-0.5c0.6-0.2,0.9-0.2,1,0.5
			c0.3,0.3,0.6,0.5,1,0.8c0.3,0.3,0.6,0.6,0.9,0.9c-0.4,0.3-0.7,0.6-1.1,0.8c-0.9,0.4-2.2,0.5-2.8,1.2c-0.7,0.7-1.4,1.2-2.2,1.8
			C41.9,33.4,41.5,33.9,41.1,34.3z M38.8,32.1c1,0.4,1.9,0,2.8-0.3c1.5-0.5,2.9-1.1,4.3-1.7c0.3-0.1,0.6-0.3,0.8-0.6
			c0.1-0.1-0.2-0.6-0.5-0.7c-0.5-0.2-1.2-0.4-1.7-0.3c-1,0.3-2,0.8-2.9,1.4C40.7,30.5,39.8,31.3,38.8,32.1z"/>
		<path class="st5" d="M30.3,16.2c0,0.1,0,0.1,0,0.2c-0.2,0.1-0.4,0.3-0.6,0.4C29.9,16.6,30.1,16.4,30.3,16.2z"/>
		<path class="st5" d="M32.6,15.3c0,0.1,0,0.3,0,0.4c-0.2,0.1-0.4,0.1-0.6,0.2c-0.2,0.1-0.4,0.1-0.6,0.2c-0.3,0-0.6,0-0.8,0
			C30.8,14.9,31.9,15.5,32.6,15.3z"/>
		<path class="st13" d="M31.8,16.6c0.2,0,0.4,0,0.6,0c0.1-0.1,0.3-0.3,0.4-0.4c0.3,0.1,0.7,0.1,1,0.2c1.6-0.1,3.2-0.1,4.9-0.2
			c0.3,0,0.6,0,0.8,0c0.1,0.6,0.4,0.6,0.9,0.5c0.8-0.2,1.8,1,1.6,1.7c-0.2,0.6-0.5,1.2-0.8,1.8c-0.3-0.1-0.7-0.3-1-0.4
			c-0.1-0.2-0.2-0.5-0.4-0.6c-0.8-0.7-1.6-0.1-2.4,0c-1.5-0.1-2.9-0.2-4.4-0.3c-0.1,0-0.2-0.1-0.4-0.2
			C31.6,18.4,31.8,17.5,31.8,16.6z"/>
		<path class="st12" d="M40.2,19.8c0.3,0.1,0.7,0.3,1,0.4c0.3-0.6,0.6-1.2,0.8-1.8c0.3-0.7-0.8-1.9-1.6-1.7
			c-0.5,0.1-0.8,0.2-0.9-0.5c1.4-1.1,2.5,0,3.5,0.7c1.3,0.8,2.4,1.9,3.5,2.9c0.1,0.1,0.1,0.3,0.1,0.4c-0.7,0.2-1.4,0.3-2,0.5
			c-0.6,0.1-1,0.2-1.2,0.9c-0.2,0.6-1.5,0.7-2,0.5c-0.4-0.2-0.8-0.2-1.3-0.3c0-0.2,0-0.4,0-0.6C40.2,20.6,40.2,20.2,40.2,19.8z"/>
		<path class="st12" d="M31.8,16.6c0,0.9-0.2,1.8,1,2.1c0.1,0,0.2,0.2,0.4,0.2c1.5,0.1,2.9,0.2,4.4,0.3c-0.1,0.1-0.1,0.3-0.2,0.4
			c-0.6,0.1-1.3,0.3-1.9,0.4c-0.4,0.2-0.8,0.4-1.2,0.6c-0.7,0.6-1.3,1.4-2.4,1c0-0.6-0.1-1.2-0.5-1.8c-0.4-0.7-0.4-1.7-0.4-2.6
			C31,17.1,31.5,16.8,31.8,16.6z"/>
		<path class="st12" d="M38.8,16.2c-1.6,0.1-3.2,0.1-4.9,0.2c0.6-1.2,1.2-1.4,2.4-1c0.6,0.2,1.3,0.2,1.9,0.3
			C38.4,15.8,38.6,16,38.8,16.2z"/>
		<path class="st19" d="M31.4,16.2c0.2-0.1,0.4-0.1,0.6-0.2C31.8,16,31.6,16.1,31.4,16.2z"/>
		<path class="st12" d="M32.9,16.2c-0.1,0.1-0.3,0.3-0.4,0.4C32.6,16.5,32.7,16.3,32.9,16.2z"/>
		<path class="st11" d="M37.3,19.6c0.1-0.1,0.1-0.3,0.2-0.4c0.8-0.1,1.6-0.7,2.4,0c0.2,0.2,0.2,0.4,0.4,0.6c0,0.4,0,0.8,0,1.3
			c-0.4-0.2-0.8-0.5-1.2-0.7C38.4,20.1,37.9,19.8,37.3,19.6z"/>
		<path class="st9" d="M40.2,34.8c0.1-0.1,0.3-0.3,0.4-0.4C40.5,34.5,40.4,34.6,40.2,34.8z"/>
		<path class="st13" d="M38.8,32.1c1.1-0.8,1.9-1.6,2.9-2.2c0.9-0.6,1.9-1.1,2.9-1.4c0.5-0.2,1.1,0.1,1.7,0.3
			c0.2,0.1,0.5,0.6,0.5,0.7c-0.1,0.3-0.5,0.5-0.8,0.6c-1.4,0.6-2.9,1.2-4.3,1.7C40.7,32.1,39.8,32.4,38.8,32.1z"/>
	</g>
</g>
</svg>
