<?xml version="1.0" encoding="utf-8"?>
<!-- Generator: Adobe Illustrator 25.2.3, SVG Export Plug-In . SVG Version: 6.00 Build 0)  -->
<svg version="1.1" id="Layer_1" xmlns="http://www.w3.org/2000/svg" xmlns:xlink="http://www.w3.org/1999/xlink" x="0px" y="0px"
	 viewBox="0 0 75 75" style="enable-background:new 0 0 75 75;" xml:space="preserve">
<style type="text/css">
	.st0{fill:#1CFFFF;}
	.st1{fill:#D7D7D7;}
	.st2{fill:none;}
</style>
<g>
	<path class="st0" d="M55.68,34.46c0.25-0.44,0.5-0.88,0.75-1.32c0.78-1.36,1.56-2.73,2.03-4.22c0.43-1.37,0.59-2.81,0.75-4.24
		c0.34-3.15,0.66-6.48-0.6-9.39c-0.7-1.62-1.86-3.01-3.01-4.35c-1.27-1.48-2.6-2.97-4.32-3.91c-1.06-0.58-2.67-2.04-3.78-2.53
		c-1.5-0.65-2.47-0.43-4.02-0.96c-1.13-0.39-2.32-0.57-3.51-0.69c-5.59-0.57-11.32,0.27-16.52,2.42c-1.22,0.5-2.41,1.08-3.47,1.87
		c-1.12,0.83-2.06,1.87-2.99,2.9C16,11.13,15,12.25,14.37,13.58c-0.48,1-0.73,2.09-0.92,3.18c-0.7,3.99,0.25,7.77,1.05,11.74
		c0.27,1.33,0.4,1.79,1,3c0.73,1.47,1.94,3.75,3,5c1.26,1.49,2.12,3.34,4.03,2.94c0.93-0.19,1.68-0.85,2.56-1.21
		c0.65-0.26,1.35-0.36,2.03-0.51c2.86-0.62,5.52-2.13,8.44-2.29c1.78-0.09,3.54,0.33,5.27,0.74c3.02,0.73,6.05,1.45,9.07,2.18
		c1.05,0.25,2.5,0.99,3.37,0.27C54.28,37.8,55.02,35.6,55.68,34.46z"/>
	<polygon class="st1" points="36.03,34.58 49.19,37.64 49.5,73.5 26.5,72.5 25.15,36.83 	"/>
	<g>
		<g>
			<path d="M49.79,42.18c0,10.45,0,20.9,0,31.35c-0.33,0.02-0.66,0.04-1,0.06c-0.09-1.2-0.26-2.4-0.26-3.61
				c-0.02-9.63-0.13-19.26,0.06-28.89c0.06-2.82-1.06-3.49-3.51-4.17c-5.21-1.43-10.21-1.91-15.44-0.03
				c-2.04,0.73-2.81,1.39-2.77,3.65c0.17,9.63,0.11,19.26,0.12,28.89c0,1.15-0.1,2.3-0.15,3.45c-0.33,0.07-0.65,0.15-0.98,0.22
				c-0.29-1.06-0.8-2.11-0.82-3.18c-0.13-8.06-0.24-16.13-0.18-24.19c0.02-2.35-0.37-4-2.98-4.4c-0.42-0.06-0.93-0.36-1.17-0.71
				c-4.68-6.78-9.11-13.79-7.91-22.51c0.96-6.91,5.5-11.84,11.57-14.52c8.43-3.71,17.43-4.04,25.6,0.67
				c11.31,6.53,13.08,14.91,9.56,25.5c-0.75,2.26-1.74,4.54-3.09,6.48c-1.56,2.23-3.65,4.08-5.5,6.1
				C50.55,42.29,50.17,42.24,49.79,42.18z M20.6,37.86c1.13-0.3,2.1-0.41,2.93-0.8c7.8-3.64,15.67-4.16,23.99-1.61
				c6.44,1.97,6.83,1.72,9.62-4.61c5.07-11.48,1.35-20.44-8.63-25.4c-7.56-3.76-15.78-3.36-23.68-0.19c-5.74,2.3-9.85,9-10.17,15.21
				C14.32,27.03,17.76,32.1,20.6,37.86z"/>
		</g>
	</g>
</g>
<rect class="st2" width="75" height="75"/>
</svg>
