<?xml version="1.0" encoding="utf-8"?>
<!-- Generator: Adobe Illustrator 25.2.3, SVG Export Plug-In . SVG Version: 6.00 Build 0)  -->
<svg version="1.1" id="Layer_1" xmlns="http://www.w3.org/2000/svg" xmlns:xlink="http://www.w3.org/1999/xlink" x="0px" y="0px"
	 viewBox="0 0 75 75" style="enable-background:new 0 0 75 75;" xml:space="preserve">
<style type="text/css">
	.st0{fill:#D7D7D7;}
	.st1{fill:#76CB82;}
	.st2{fill:#202020;}
</style>
<g id="Layer_1_1_">
	<path class="st0" d="M43.49,0.98c-7.04-0.75-14.1,0.73-21.02,2.21c-1.8,0.38-3.61,0.77-5.27,1.55c-1.75,0.82-3.28,2.03-4.8,3.24
		c-3.07,2.45-6.14,4.89-9.22,7.34C2.34,15.98,1.43,17.25,2.22,18c0.25,0.24,0.6,0.32,0.94,0.39c2.33,0.52,4.67,1.04,7.06,1.21
		c3.13,0.23,6.27-0.13,9.41-0.15c3.97-0.02,7.92,0.5,11.88,0.64c6.71,0.24,13.44-0.63,20.15-0.33c3.79,0.17,7.57,0.7,11.36,0.8
		c3.16,0.08,6.32-0.14,9.47-0.35c0.45-0.03,0.93-0.07,1.3-0.33c1.07-0.76,0.36-2.44-0.47-3.46c-2.85-3.5-6.27-6.52-10.09-8.93
		c-3.64-2.3-7.4-3.56-11.5-4.76C49.03,1.93,46.29,1.28,43.49,0.98z"/>
	<path class="st0" d="M43.34,44.66c-0.05-1.77-0.1-3.53-0.18-5.3c-0.12-2.67-0.32-5.34-0.52-8.01c-0.27-3.65-0.54-7.3-0.82-10.95
		c-4.27-0.56-8.61-0.53-12.87,0.08c0.7,0.52,0.94,1.47,0.94,2.34s-0.21,1.74-0.21,2.61c0.01,1.61,0.74,3.15,0.83,4.76
		c0.06,1.06-0.16,2.12-0.34,3.17c-1.08,6.29-0.74,12.72-0.6,19.1c0.03,1.46,0.06,2.93-0.04,4.39c-0.11,1.59-0.36,3.17-0.56,4.75
		c-0.46,3.68-0.65,7.4-0.57,11.11c0.01,0.38,0.04,0.81,0.3,1.09c0.19,0.2,0.46,0.29,0.73,0.35c3.55,0.87,7.14-0.92,10.62-2.03
		c1.23-0.39,3.63-0.58,3.96-2.02c0.39-1.71-0.11-4.09-0.16-5.85c-0.11-4.2-0.23-8.39-0.34-12.59
		C43.47,49.32,43.41,46.99,43.34,44.66z"/>
</g>
<path class="st1" d="M37.49,43.72c0,0.05,0,0.06-0.04,0.12c-0.26,0.42-0.93,1.02-1.74,0.05c-0.01-0.02-0.07-0.1-0.08-0.14
	l-0.07-3.08l-0.08-2.33l-0.08-1.72c0,0,0.05-2.83,0.18-4.83c0.14-3.39,0.66-2.09,1.03-0.01c0.01-0.11,0.19,1.13,0.35,2.41
	c0.15,1.3,0.3,2.58,0.3,2.58l0.07,1.49l0.09,2.35L37.49,43.72z"/>
<path class="st1" d="M32.3,30.14c0-0.05,0-0.06,0.04-0.12c0.26-0.42,0.93-1.02,1.74-0.05c0.01,0.02,0.07,0.1,0.08,0.14l0.07,3.08
	l0.08,2.33l0.08,1.72c0,0-0.05,2.83-0.18,4.83c-0.14,3.39-0.66,2.09-1.03,0.01c-0.01,0.11-0.19-1.13-0.35-2.41
	c-0.15-1.3-0.3-2.58-0.3-2.58l-0.07-1.49l-0.09-2.35L32.3,30.14z"/>
<g>
	<g>
		<g>
			<path class="st1" d="M42.38,43.36c0.01,0.05,0.01,0.06-0.03,0.13c-0.21,0.43-0.79,1.14-1.72,0.27c-0.02-0.02-0.08-0.09-0.1-0.14
				c-0.14-1.04-0.25-2.09-0.33-3.14c-0.04-0.64-0.08-1.28-0.1-1.92c-0.02-0.59-0.03-1.17-0.03-1.76c0,0,0.04-0.72,0.16-1.7
				c0.11-0.97,0.32-2.19,0.56-3.17c0.81-3.34,1.03-1.9,1.02,0.17c0.03-0.11-0.01,1.13,0.01,2.4c0.02,1.26,0.1,2.54,0.1,2.54
				l0.03,1.45c0.02,0.62,0.06,1.23,0.1,1.85C42.14,41.35,42.24,42.36,42.38,43.36z"/>
		</g>
	</g>
</g>
<g id="Layer_2_1_">
	<g>
		<g>
			<g>
				<path class="st1" d="M40.79,30.94c0-0.04-0.01-0.06,0.03-0.12c0.22-0.43,0.84-1.09,1.74-0.19c0.02,0.02,0.08,0.1,0.09,0.14
					c0.1,1.04,0.18,2.08,0.24,3.12l0.07,1.4l0.07,1.74c0,0-0.12,2.87-0.46,4.87c-0.51,3.38-0.87,1.99-1.03-0.09
					c-0.02,0.11-0.08-1.14-0.17-2.41c-0.1-1.29-0.21-2.56-0.21-2.56l-0.06-1.47L41.02,34C40.96,32.98,40.88,31.96,40.79,30.94z"/>
			</g>
		</g>
	</g>
	<g>
		<g>
			<g>
				<path class="st2" d="M41.23,20.8c0-0.05,0-0.06,0.04-0.13c0.25-0.44,0.9-1.03,1.74-0.09c0.02,0.02,0.07,0.1,0.08,0.14
					c0.03,1.01,0.12,2.02,0.21,3.03c0.38,3.85,1.08,7.73,1.32,11.72c0.15,1.99,0.04,4.04,0,5.95c-0.03,1.94-0.01,3.89,0.01,5.85
					c0.05,3.91,0.12,7.87-0.13,11.82c-0.12,1.96-0.25,3.9-0.24,5.81l0.03,1.1l0.05,0.88c0,0-0.01,0.69,0.03,1.63
					c0.03,0.94,0.1,2.13,0.16,3.13c0.33,3.36-0.37,2.17-1.02,0.14c0,0.11-0.34-1.11-0.6-2.39c-0.27-1.28-0.43-2.62-0.43-2.62
					l-0.04-0.92l-0.01-0.46v-1.16c0.02-1.97,0.17-3.91,0.27-5.82c0.21-3.8,0.13-7.64,0.08-11.5c-0.02-1.93-0.04-3.87,0-5.81
					c0.05-1.98,0.13-3.8-0.02-5.7c-0.24-3.78-0.92-7.57-1.3-11.45C41.35,22.9,41.27,21.85,41.23,20.8z"/>
			</g>
		</g>
	</g>
	<g>
		<g>
			<g>
				<path class="st2" d="M73.31,19.14c0.05,0,0.06,0,0.12,0.04c0.42,0.24,1.06,0.89,0.13,1.74c-0.02,0.02-0.1,0.07-0.14,0.08
					c-0.06,0-1.2,0.06-2.87,0.15c-0.4,0.01-0.8,0.03-1.21,0.04c-1.24,0.04-2.5,0.1-3.79,0.11c-2.57,0.05-5.22,0.07-7.94,0.04
					c-5.44-0.05-11.15-0.23-17.04-0.42c-5.89-0.18-11.96-0.36-18.11-0.32c-3.08,0-6.15,0.13-9.3,0.2c-3.14,0.05-6.43-0.05-9.59-1.15
					c-0.39-0.13-0.78-0.29-1.16-0.46c-0.19-0.08-0.38-0.17-0.57-0.26c-0.34-0.17-0.71-0.36-1.01-0.56L0.71,18.3
					c-0.03-0.03,0-0.09-0.01-0.13l0.02-0.29l0.04-0.57c0.04-0.18,0.06-0.4,0.11-0.56c0.03-0.12,0.07-0.24,0.11-0.35
					c0.17-0.46,0.4-0.88,0.67-1.26c1.09-1.54,2.72-2.31,4.05-3.03c2.67-1.35,4.86-3.46,7.35-5.39c1.24-0.96,2.57-1.88,4.03-2.57
					S20.06,3,21.56,2.64c3.01-0.67,5.9-1.19,8.82-1.69c2.91-0.48,5.82-0.83,8.69-0.9c2.88-0.07,5.72,0.21,8.39,0.73
					C50.14,1.3,52.68,2,55.11,2.76c2.43,0.75,4.76,1.62,6.93,2.64c2.16,1.03,4.16,2.23,5.88,3.61c0.86,0.69,1.67,1.42,2.39,2.18
					c0.36,0.38,0.7,0.77,1.03,1.16l0.16,0.19c0.22,0.27,0.4,0.51,0.55,0.7c0.29,0.4,0.46,0.63,0.46,0.63s0.39,0.63,0.83,1.52
					c0.44,0.89,0.9,2.06,1.16,3.05c0.11,0.39,0.26,0.83,0.14,1.23c-0.13,0.44-0.49,0.56-0.69,0.55c-0.23-0.01-0.32-0.15-0.32-0.21
					c-0.01-0.07,0.03-0.1,0.09-0.11c0.1-0.02,0.19-0.11,0.23-0.27c0-0.08-0.12-0.36-0.41-0.84c0.02,0.11-0.52-0.99-1.21-2.02
					c-0.67-1.04-1.47-2.01-1.47-2.01s-0.15-0.21-0.42-0.57c-0.07-0.09-0.15-0.19-0.23-0.29c-0.04-0.05-0.09-0.11-0.13-0.16
					l-0.07-0.09l-0.33-0.39l-0.44-0.5c-2.41-2.66-5.9-4.92-10.08-6.6c-2.09-0.85-4.35-1.58-6.71-2.25s-4.83-1.27-7.38-1.64
					c-5.1-0.78-10.6-0.19-16.23,0.84c-2.81,0.55-5.76,0.99-8.49,1.79c-1.37,0.41-2.66,0.96-3.88,1.71c-1.22,0.74-2.38,1.65-3.54,2.6
					c-1.17,0.95-2.34,1.95-3.63,2.87C8.67,12.57,7.99,13,7.29,13.4l-2.01,1.09c-0.63,0.36-1.2,0.75-1.65,1.21s-0.8,1-0.95,1.55
					c-0.01,0.05,0,0.01-0.01,0.02l-0.01-0.01l0.22,0.11l0.5,0.21c0.66,0.29,1.36,0.5,2.06,0.69c2.84,0.72,5.89,0.72,8.93,0.64
					c3.06-0.11,6.16-0.17,9.21-0.18c6.11,0,12.11,0.17,17.92,0.35s11.43,0.36,16.76,0.39c2.67,0.02,5.26,0,7.77-0.05
					c1.54-0.05,3.03-0.1,4.47-0.14C72.14,19.2,73.25,19.14,73.31,19.14z"/>
			</g>
		</g>
	</g>
	<g>
		<g>
			<g>
				<path class="st1" d="M30.29,30.24c0-0.05,0-0.06,0.04-0.12c0.24-0.43,0.88-1.05,1.74-0.12c0.02,0.02,0.07,0.1,0.08,0.14
					l0.2,3.07l0.24,3.02l0.16,1.71c0,0,0.09,2.83,0.05,4.84c0.03,3.39-0.55,2.12-1.03,0.06c-0.01,0.11-0.25-1.12-0.47-2.39
					c-0.21-1.29-0.42-2.57-0.42-2.57l-0.14-1.48l-0.25-3.04L30.29,30.24z"/>
			</g>
		</g>
	</g>
	<g>
		<g>
			<g>
				<path class="st2" d="M28.86,20.13c0-0.04-0.01-0.06,0.03-0.12c0.22-0.43,0.84-1.1,1.73-0.2c0.02,0.02,0.08,0.1,0.09,0.14
					c0.1,1.03,0.19,2.07,0.27,3.11c0.3,4.12,0.4,8.26,0.29,12.39c-0.04,2.17-0.51,4.22-0.7,6.17c-0.2,1.93-0.02,3.93,0.15,5.98
					c0.19,2.05,0.23,4.2,0.11,6.27c-0.12,2.08-0.31,4.12-0.47,6.16l-0.68,8.17c0,0-0.42,2.81-0.87,4.77
					c-0.67,3.33-0.97,1.95-1.02-0.15c-0.06,0.21,0.06-5.02,0.06-5.02l0.7-8.55c0.16-2.01,0.35-4.02,0.44-6
					c0.11-1.99,0.02-3.91-0.16-5.92c-0.16-2-0.33-4.1-0.08-6.21c0.23-2.08,0.65-4,0.66-5.93c0.1-4,0-8.01-0.3-12
					C29.05,22.17,28.96,21.15,28.86,20.13z"/>
			</g>
		</g>
	</g>
	<g>
		<g>
			<g>
				<path class="st1" d="M33.35,30.3c0-0.05,0-0.06,0.04-0.12c0.26-0.42,0.93-1.02,1.74-0.05c0.01,0.02,0.07,0.1,0.08,0.14
					l0.07,3.08l0.08,2.33l0.08,1.72c0,0-0.05,2.83-0.18,4.83c-0.14,3.39-0.66,2.09-1.03,0.01c-0.01,0.11-0.19-1.13-0.35-2.41
					c-0.15-1.3-0.3-2.58-0.3-2.58l-0.07-1.49l-0.09-2.35L33.35,30.3z"/>
			</g>
		</g>
	</g>
	<g>
		<g>
			<g>
				<path class="st1" d="M37.11,29.82c0-0.05,0-0.06,0.04-0.12c0.26-0.41,0.93-1.01,1.75-0.04c0.01,0.02,0.07,0.1,0.08,0.15L39,32.9
					l0.01,2.41l0.01,1.72c0,0-0.17,2.84-0.44,4.83c-0.37,3.38-0.79,2.03-1.03-0.06c-0.04,0.22-0.39-5-0.39-5l-0.01-1.48l-0.02-2.41
					L37.11,29.82z"/>
			</g>
		</g>
	</g>
	<g>
		<g>
			<g>
				<path class="st1" d="M39.01,30.5C39,30.45,39,30.44,39.04,30.37c0.21-0.43,0.79-1.14,1.72-0.27c0.02,0.02,0.08,0.09,0.1,0.14
					c0.14,1.04,0.25,2.09,0.33,3.14c0.04,0.64,0.08,1.28,0.1,1.92c0.02,0.59,0.03,1.17,0.03,1.76c0,0-0.04,0.72-0.16,1.7
					c-0.11,0.97-0.32,2.19-0.56,3.17c-0.81,3.34-1.03,1.9-1.02-0.17c-0.03,0.11,0.01-1.13-0.01-2.4c-0.02-1.26-0.1-2.54-0.1-2.54
					l-0.03-1.45c-0.02-0.62-0.06-1.23-0.1-1.85C39.25,32.51,39.15,31.5,39.01,30.5z"/>
			</g>
		</g>
	</g>
	<g>
		<g>
			<g>
				<path class="st2" d="M29.91,30.22c-0.05,0-0.06,0-0.12-0.05c-0.4-0.27-0.97-0.96,0.03-1.75c0.02-0.01,0.11-0.07,0.15-0.07
					l3.09,0.06l1.16,0.03l1.72,0.03c0,0,2.83,0.24,4.81,0.56c3.37,0.46,2.02,0.85-0.08,1.03c0.22,0.04-5.02,0.26-5.02,0.26
					l-1.48-0.03l-1.16-0.02L29.91,30.22z"/>
			</g>
		</g>
	</g>
	<g>
		<g>
			<g>
				<path class="st2" d="M42.76,43.64c0.05,0,0.06,0.01,0.12,0.06c0.39,0.3,0.91,1.03-0.14,1.74c-0.02,0.01-0.11,0.06-0.15,0.06
					c-1.02-0.09-2.03-0.17-3.05-0.23l-1.85-0.09l-1.71-0.05c0,0-2.28-0.2-4.8-0.43c-3.38-0.23-2.07-0.72,0.03-1.03
					c-0.11-0.02,1.15-0.16,2.44-0.25c1.29-0.1,2.61-0.15,2.61-0.15l1.5,0.04l1.89,0.09C40.69,43.46,41.73,43.54,42.76,43.64z"/>
			</g>
		</g>
	</g>
</g>
</svg>
